#N canvas 310 70 571 504 10;
#X declare -stdpath iemnet -path include;
#X obj 405 55 udpclient;
#X obj 405 24 r \$0.to.udp;
#X obj 405 107 s \$0.from.udp;
#X obj 439 76 tgl 15 0 empty empty empty 17 7 0 10 -262144 -1 -1 1
1;
#X obj 11 11 declare -stdpath iemnet -path include;
#X obj 342 179 table \$0.noise 65536;
#N canvas 1040 506 334 207 generate-8bit-noise 0;
#X obj 14 15 loadbang;
#X msg 14 35 65536;
#X obj 14 55 until;
#X obj 14 75 f;
#X obj 49 76 + 1;
#X obj 14 162 s \$0.noise;
#X obj 41 117 random 256;
#X obj 14 95 t a b;
#X obj 14 142 pack f f;
#X connect 0 0 1 0;
#X connect 1 0 2 0;
#X connect 2 0 3 0;
#X connect 3 0 4 0;
#X connect 3 0 7 0;
#X connect 4 0 3 1;
#X connect 6 0 8 1;
#X connect 7 0 8 0;
#X connect 7 1 6 0;
#X connect 8 0 5 0;
#X restore 342 158 pd generate-8bit-noise;
#X obj 14 160 cnv 15 220 40 empty empty empty 20 12 0 14 -233017 -66577
0;
#X text 20 182 -n;
#X obj 40 182 nbx 2 14 1 64 0 0 \$0.num.channels \$0.num.channels empty
0 -8 0 10 -204800 -1 -1 4 256;
#X obj 95 182 nbx 2 14 0 99 0 0 \$0.port.offset \$0.port.offset empty
0 -8 0 10 -204800 -1 -1 5 256;
#X text 75 182 -o;
#X text 129 182 -b;
#X text 17 164 jacktrip;
#X obj 149 182 nbx 2 14 8 32 0 0 \$0.bitres \$0.bitres empty 0 -8 0
10 -204800 -1 -1 16 256;
#X obj 263 17 loadbang;
#X obj 263 37 \$0;
#X obj 14 130 cnv 15 220 25 empty empty empty 20 12 0 14 -233017 -66577
0;
#X text 20 137 jack blocksize:;
#X obj 134 130 hradio 25 1 0 4 \$0.jack.blocksize \$0.jack.blocksize
empty 0 -8 0 10 -204800 -4032 -1 1;
#X text 137 135 64;
#X text 159 135 128;
#X text 185 135 256;
#X text 209 135 512;
#X obj 383 314 r \$0.num.channels;
#X obj 384 249 r \$0.bitres;
#X obj 344 214 r \$0.jack.blocksize;
#X obj 384 269 >> 3;
#X obj 344 234 t b a;
#X msg 344 254 64;
#X obj 344 274 <<;
#X obj 344 311 *;
#X obj 384 289 t b a;
#X obj 344 351 *;
#X obj 383 334 t b a;
#X obj 344 374 s \$0.payload.length;
#X obj 14 50 cnv 15 220 25 empty empty empty 20 12 0 14 -233017 -66577
0;
#X obj 14 50 tgl 25 0 \$0.on.off \$0.on.off empty 17 7 0 10 -261234
-1 -1 0 1;
#X text 42 57 start / stop;
#N canvas 0 43 311 384 sender 0;
#X obj 33 14 r \$0.on.off;
#X obj 33 85 metro;
#X obj 109 16 r \$0.jack.blocksize;
#X obj 109 36 t b a;
#X msg 109 56 64;
#X obj 109 76 <<;
#X obj 33 34 sel 1;
#X obj 33 54 del 0;
#X obj 109 96 * 1000;
#X obj 109 156 /;
#X obj 124 115 loadbang;
#X obj 124 135 samplerate~;
#X obj 71 177 r \$0.payload.length;
#X obj 33 200 f;
#X obj 33 220 t b a;
#X msg 33 240 0;
#X obj 33 260 array get \$0.noise;
#X obj 33 311 s \$0.to.udp;
#N canvas 0 43 450 300 prepend_header 0;
#X obj 9 12 inlet;
#X obj 9 274 outlet;
#X obj 94 13 r \$0.on.off;
#X obj 94 33 sel 0;
#X msg 94 53 0;
#X obj 9 32 t a b;
#X obj 36 83 f;
#X obj 36 102 mod 65536;
#X obj 36 122 t a a;
#X obj 111 111 + 1;
#X obj 36 142 t a a;
#X obj 36 162 >> 8;
#X obj 71 162 & 255;
#X obj 36 182 pack f f;
#X obj 9 253 list prepend;
#X obj 36 202 list append 0 0 0 0 0 0 0 0 0 0;
#X obj 36 223 list prepend 0 0 0 0;
#X connect 0 0 5 0;
#X connect 2 0 3 0;
#X connect 3 0 4 0;
#X connect 4 0 6 1;
#X connect 5 0 14 0;
#X connect 5 1 6 0;
#X connect 6 0 7 0;
#X connect 7 0 8 0;
#X connect 8 0 10 0;
#X connect 8 1 9 0;
#X connect 9 0 6 1;
#X connect 10 0 11 0;
#X connect 10 1 12 0;
#X connect 11 0 13 0;
#X connect 12 0 13 1;
#X connect 13 0 15 0;
#X connect 14 0 1 0;
#X connect 15 0 16 0;
#X connect 16 0 14 1;
#X restore 33 284 pd prepend_header;
#X obj 56 136 bng 15 250 50 0 empty empty empty 17 7 0 10 -262144 -1
-1;
#X connect 0 0 6 0;
#X connect 1 0 13 0;
#X connect 2 0 3 0;
#X connect 3 0 4 0;
#X connect 3 1 5 1;
#X connect 4 0 5 0;
#X connect 5 0 8 0;
#X connect 6 0 7 0;
#X connect 6 1 1 0;
#X connect 7 0 1 0;
#X connect 8 0 9 0;
#X connect 9 0 1 1;
#X connect 10 0 11 0;
#X connect 11 0 9 1;
#X connect 12 0 13 1;
#X connect 13 0 14 0;
#X connect 14 0 15 0;
#X connect 14 1 16 1;
#X connect 15 0 16 0;
#X connect 16 0 18 0;
#X connect 18 0 17 0;
#X connect 19 0 13 0;
#X restore 19 293 pd sender;
#N canvas 520 173 654 779 receiver 0;
#X obj 14 11 r \$0.from.udp;
#X obj 14 32 list split 16;
#X obj 51 54 list length;
#X obj 81 74 r \$0.payload.length;
#X obj 51 74 sel;
#X msg 66 94 ERROR: received packet with length \$1;
#X obj 66 113 print jacktrip_simulator;
#X obj 14 139 unpack f f;
#X obj 14 159 << 8;
#X obj 14 179 +;
#X msg 14 119 \$5 \$6;
#X obj 47 331 r \$0.on.off;
#X obj 41 267 pack f f;
#X obj 41 298 s \$0.ringbuffer;
#X obj 14 199 t b a;
#X msg 47 371 1;
#X obj 14 414 t b b;
#X msg 74 405 0;
#X obj 14 394 spigot;
#N canvas 354 274 450 300 metro 0;
#X obj 13 214 metro;
#X obj 109 16 r \$0.jack.blocksize;
#X obj 109 36 t b a;
#X msg 109 56 64;
#X obj 109 76 <<;
#X obj 109 96 * 1000;
#X obj 109 156 /;
#X obj 124 115 loadbang;
#X obj 124 135 samplerate~;
#X obj 13 260 outlet;
#X obj 13 36 inlet;
#X obj 109 220 *;
#X obj 165 168 r \$0.queue;
#X obj 165 188 t b a;
#X obj 13 56 del;
#X obj 67 41 inlet;
#X connect 0 0 9 0;
#X connect 1 0 2 0;
#X connect 2 0 3 0;
#X connect 2 1 4 1;
#X connect 3 0 4 0;
#X connect 4 0 5 0;
#X connect 5 0 6 0;
#X connect 6 0 0 1;
#X connect 6 0 11 0;
#X connect 7 0 8 0;
#X connect 8 0 6 1;
#X connect 10 0 14 0;
#X connect 11 0 14 1;
#X connect 12 0 13 0;
#X connect 13 0 11 0;
#X connect 13 1 11 1;
#X connect 14 0 0 0;
#X connect 15 0 0 0;
#X restore 14 440 pd metro;
#X obj 47 351 sel 1 0;
#X msg 113 406 0;
#X msg 169 391 const 0;
#X obj 169 411 s \$0.ringbuffer;
#X obj 41 247 mod 32;
#X obj 180 440 table \$0.ringbuffer 32;
#X obj 14 465 f;
#X obj 69 509 + 1;
#X obj 33 560 tabread \$0.ringbuffer;
#X obj 139 273 s \$0.sequence;
#X obj 14 510 t a a a;
#X obj 33 537 mod 32;
#X obj 14 583 sel;
#X obj 14 485 mod 65536;
#X obj 29 686 f;
#X obj 29 706 + 1;
#X obj 48 632 print DROPPED_PACKET;
#X obj 29 728 s \$0.dropped;
#X obj 73 663 r \$0.on.off;
#X obj 73 683 sel 1;
#X msg 73 703 0;
#X obj 318 194 t a a;
#X obj 319 222 -;
#X obj 319 248 < 0;
#X obj 319 268 sel 1;
#X obj 319 314 f;
#X obj 319 334 + 1;
#X obj 400 232 r \$0.on.off;
#X obj 400 253 sel 1;
#X msg 400 272 0;
#X obj 319 384 s \$0.outoforder;
#X msg 368 235 -1;
#X obj 41 222 t a a a a;
#N canvas 0 43 450 300 ratelimit 0;
#X obj 159 54 inlet;
#X obj 76 179 outlet;
#X obj 76 55 loadbang;
#X obj 76 75 metro 20;
#X obj 76 95 f;
#X obj 76 132 change;
#X connect 0 0 4 1;
#X connect 2 0 3 0;
#X connect 3 0 4 0;
#X connect 4 0 5 0;
#X connect 5 0 1 0;
#X restore 139 252 pd ratelimit;
#N canvas 881 316 450 300 count_glitches 0;
#X obj 24 23 inlet;
#X obj 24 43 t a a;
#X obj 24 75 -;
#X obj 24 102 > 100;
#X obj 24 122 sel 1;
#X obj 115 22 r \$0.on.off;
#X obj 115 42 sel 1;
#X msg 67 67 -1;
#X obj 24 147 f;
#X obj 24 167 + 1;
#X obj 24 189 s \$0.glitch;
#X msg 94 123 0;
#X connect 0 0 1 0;
#X connect 1 0 2 1;
#X connect 1 1 2 0;
#X connect 2 0 3 0;
#X connect 3 0 4 0;
#X connect 4 0 8 0;
#X connect 5 0 6 0;
#X connect 6 0 7 0;
#X connect 6 0 11 0;
#X connect 7 0 2 1;
#X connect 8 0 9 0;
#X connect 9 0 8 1;
#X connect 9 0 10 0;
#X connect 11 0 8 1;
#X connect 11 0 10 0;
#X restore 255 567 pd count_glitches;
#X obj 29 604 t b a a;
#X connect 0 0 1 0;
#X connect 1 0 10 0;
#X connect 1 1 2 0;
#X connect 2 0 4 0;
#X connect 3 0 4 1;
#X connect 4 1 5 0;
#X connect 5 0 6 0;
#X connect 7 0 8 0;
#X connect 7 1 9 1;
#X connect 8 0 9 0;
#X connect 9 0 14 0;
#X connect 10 0 7 0;
#X connect 11 0 20 0;
#X connect 12 0 13 0;
#X connect 14 0 18 0;
#X connect 14 1 52 0;
#X connect 15 0 18 1;
#X connect 16 0 19 0;
#X connect 16 1 17 0;
#X connect 17 0 18 1;
#X connect 18 0 16 0;
#X connect 19 0 26 0;
#X connect 20 0 15 0;
#X connect 20 0 22 0;
#X connect 20 1 21 0;
#X connect 21 0 26 1;
#X connect 21 0 19 1;
#X connect 22 0 23 0;
#X connect 24 0 12 0;
#X connect 26 0 33 0;
#X connect 27 0 26 1;
#X connect 28 0 32 1;
#X connect 30 0 32 0;
#X connect 30 1 31 0;
#X connect 30 2 27 0;
#X connect 31 0 28 0;
#X connect 32 1 55 0;
#X connect 33 0 30 0;
#X connect 34 0 35 0;
#X connect 35 0 34 1;
#X connect 35 0 37 0;
#X connect 38 0 39 0;
#X connect 39 0 40 0;
#X connect 40 0 37 0;
#X connect 40 0 34 1;
#X connect 41 0 42 1;
#X connect 41 1 42 0;
#X connect 42 0 43 0;
#X connect 43 0 44 0;
#X connect 44 0 45 0;
#X connect 45 0 46 0;
#X connect 46 0 45 1;
#X connect 46 0 50 0;
#X connect 47 0 48 0;
#X connect 48 0 49 0;
#X connect 48 0 51 0;
#X connect 49 0 45 1;
#X connect 49 0 50 0;
#X connect 51 0 42 1;
#X connect 52 0 24 0;
#X connect 52 1 12 1;
#X connect 52 2 53 0;
#X connect 52 3 41 0;
#X connect 53 0 29 0;
#X connect 55 0 34 0;
#X connect 55 1 36 0;
#X connect 55 2 54 0;
#X restore 19 316 pd receiver;
#N canvas 745 406 354 268 connection 0;
#X msg 39 189 disconnect;
#X obj 13 213 s \$0.to.udp;
#X msg 13 167 connect telematic.zhdk.ch \$1;
#X obj 13 81 f;
#X obj 52 82 r \$0.port.offset;
#X obj 13 101 + 4464;
#X obj 13 38 r \$0.on.off;
#X obj 13 61 sel 1;
#X obj 13 123 change -1;
#X obj 13 143 t a b;
#X connect 0 0 1 0;
#X connect 2 0 1 0;
#X connect 3 0 5 0;
#X connect 4 0 3 1;
#X connect 5 0 8 0;
#X connect 6 0 7 0;
#X connect 7 0 3 0;
#X connect 8 0 9 0;
#X connect 9 0 2 0;
#X connect 9 1 0 0;
#X restore 19 272 pd connection;
#X obj 151 57 nbx 5 14 0 65535 0 0 \$0.bla \$0.sequence empty 0 -8
0 10 -262130 -1 -1 6293 256;
#X text 207 57 seq;
#X msg 263 57 \; \$1.num.channels 2 \; \$1.port.offset 0 \; \$1.bitres
16 \; \$1.jack.blocksize 1 \; \$1.queue 2;
#X obj 200 182 nbx 2 14 2 99 0 0 \$0.queue \$0.queue empty 0 -8 0 10
-204800 -1 -1 8 256;
#X text 180 182 -q;
#X obj 14 206 cnv 15 220 40 empty empty empty 20 12 0 14 -233017 -66577
0;
#X text 71 209 DROPPED;
#X text 124 209 OOORDER;
#X obj 72 227 nbx 4 14 -1e+37 1e+37 0 0 \$0.bla \$0.dropped empty 0
-8 0 10 -262130 -1 -1 0 256;
#X obj 125 227 nbx 4 14 -1e+37 1e+37 0 0 \$0.bla \$0.outoforder empty
0 -8 0 10 -262130 -1 -1 0 256;
#X text 19 210 GLITCH;
#X obj 20 227 nbx 4 14 -1e+37 1e+37 0 0 \$0.bla \$0.glitch empty 0
-8 0 10 -262130 -1 -1 0 256;
#X obj 14 85 cnv 15 220 40 empty empty empty 20 12 0 14 -233017 -66577
0;
#X obj 16 104 nbx 4 14 -1e+37 1e+37 0 0 \$0.bla \$0.udp.packet.size
empty 0 -8 0 10 -262130 -1 -1 1040 256;
#X text 15 87 bytes/p;
#X obj 66 104 nbx 4 14 -1e+37 1e+37 0 0 \$0.bla \$0.bandwidth empty
0 -8 0 10 -262130 -1 -1 0.290627 256;
#X text 65 87 MB/s;
#X obj 116 104 nbx 5 14 -1e+37 1e+37 0 0 \$0.bla \$0.samplerate empty
0 -8 0 10 -262130 -1 -1 44100 256;
#X text 115 87 sr;
#N canvas 0 43 458 351 calculate.metrics 0;
#X obj 14 14 loadbang;
#X obj 14 34 samplerate~;
#X obj 14 54 s \$0.samplerate;
#X obj 10 114 r \$0.payload.length;
#X obj 10 134 + 16;
#X obj 10 154 s \$0.udp.packet.size;
#X obj 240 27 r \$0.jack.blocksize;
#X obj 309 99 r \$0.samplerate;
#X obj 240 122 list prepend;
#X obj 240 142 /;
#X obj 275 148 r \$0.udp.packet.size;
#X obj 240 243 *;
#X obj 275 208 t b a;
#X obj 240 49 t b a;
#X msg 240 69 64;
#X obj 240 89 <<;
#X obj 240 271 / 1204;
#X obj 240 291 / 1024;
#X obj 240 311 s \$0.bandwidth;
#X obj 275 168 + 20;
#X text 311 176 12 Bytes: IP HEADER;
#X text 311 190 8 Bytes: UDP HEADER;
#X connect 0 0 1 0;
#X connect 1 0 2 0;
#X connect 3 0 4 0;
#X connect 4 0 5 0;
#X connect 6 0 13 0;
#X connect 7 0 8 1;
#X connect 8 0 9 0;
#X connect 9 0 11 0;
#X connect 10 0 19 0;
#X connect 11 0 16 0;
#X connect 12 0 11 0;
#X connect 12 1 11 1;
#X connect 13 0 14 0;
#X connect 13 1 15 1;
#X connect 14 0 15 0;
#X connect 15 0 8 0;
#X connect 16 0 17 0;
#X connect 17 0 18 0;
#X connect 19 0 12 0;
#X restore 19 346 pd calculate.metrics;
#X connect 0 0 2 0;
#X connect 0 2 3 0;
#X connect 1 0 0 0;
#X connect 15 0 16 0;
#X connect 16 0 44 0;
#X connect 24 0 34 0;
#X connect 25 0 27 0;
#X connect 26 0 28 0;
#X connect 27 0 32 0;
#X connect 28 0 29 0;
#X connect 28 1 30 1;
#X connect 29 0 30 0;
#X connect 30 0 31 0;
#X connect 31 0 33 0;
#X connect 32 0 31 0;
#X connect 32 1 31 1;
#X connect 33 0 35 0;
#X connect 34 0 33 0;
#X connect 34 1 33 1;
