#N canvas 541 70 574 383 10;
#X declare -path include;
#X obj 189 90 dac~ 1;
#X obj 191 132 adc~ 1;
#X obj 61 134 metro;
#X msg 88 94 1000 \$1;
#X obj 88 114 /;
#X obj 55 213 cnv 15 250 150 empty empty empty 20 12 0 14 -228856 -66577
0;
#N canvas 0 0 450 300 (subpatch) 0;
#X array \$0.scope 250 float 2;
#X coords 0 1 250 -1 250 150 2 0 0;
#X restore 55 213 graph;
#X obj 257 15 declare -path include;
#X obj 61 157 rh_vtabwrite~ \$0.scope;
#X obj 61 27 loadbang;
#X obj 61 69 t b a;
#X msg 61 47 55;
#X msg 190 34 0;
#X obj 189 70 osc~ 220;
#X obj 280 74 detect_phase_shift;
#X obj 280 95 geiger 10000;
#X obj 280 121 moving_sum 6;
#X floatatom 280 141 5 0 0 0 - - -, f 5;
#X text 320 141 glitch/min;
#X floatatom 400 140 5 0 0 0 - - -, f 5;
#X obj 400 120 moving_sum 90;
#X text 440 140 glitch/15min;
#X connect 1 0 8 1;
#X connect 1 0 14 0;
#X connect 2 0 8 0;
#X connect 3 0 4 0;
#X connect 4 0 2 1;
#X connect 9 0 11 0;
#X connect 10 0 2 0;
#X connect 10 1 3 0;
#X connect 11 0 10 0;
#X connect 12 0 13 1;
#X connect 13 0 0 0;
#X connect 14 0 15 0;
#X connect 15 0 16 0;
#X connect 15 0 20 0;
#X connect 16 0 17 0;
#X connect 20 0 19 0;
