#N canvas 415 43 746 699 10;
#X declare -stdpath iemnet -path include;
#X obj 405 55 udpclient;
#X obj 405 24 r \$0.to.udp;
#X obj 405 107 s \$0.from.udp;
#X obj 439 76 tgl 15 0 empty empty empty 17 7 0 10 -262144 -1 -1 1
1;
#X obj 11 11 declare -stdpath iemnet -path include;
#X obj 342 179 table \$0.noise 65536;
#N canvas 1040 506 334 207 generate-8bit-noise 0;
#X obj 14 15 loadbang;
#X msg 14 35 65536;
#X obj 14 55 until;
#X obj 14 75 f;
#X obj 49 76 + 1;
#X obj 14 162 s \$0.noise;
#X obj 41 117 random 256;
#X obj 14 95 t a b;
#X obj 14 142 pack f f;
#X connect 0 0 1 0;
#X connect 1 0 2 0;
#X connect 2 0 3 0;
#X connect 3 0 4 0;
#X connect 3 0 7 0;
#X connect 4 0 3 1;
#X connect 6 0 8 1;
#X connect 7 0 8 0;
#X connect 7 1 6 0;
#X connect 8 0 5 0;
#X restore 342 158 pd generate-8bit-noise;
#X obj 14 160 cnv 15 220 40 empty empty empty 20 12 0 14 -233017 -66577
0;
#X text 20 182 -n;
#X obj 40 182 nbx 2 14 1 64 0 0 \$0.num.channels \$0.num.channels empty
0 -8 0 10 -204800 -1 -1 1 256;
#X obj 95 182 nbx 2 14 0 99 0 0 \$0.port.offset \$0.port.offset empty
0 -8 0 10 -204800 -1 -1 20 256;
#X text 75 182 -o;
#X text 129 182 -b;
#X text 17 164 jacktrip;
#X obj 149 182 nbx 2 14 8 32 0 0 \$0.bitres \$0.bitres empty 0 -8 0
10 -204800 -1 -1 16 256;
#X obj 263 17 loadbang;
#X obj 263 37 \$0;
#X obj 14 130 cnv 15 220 25 empty empty empty 20 12 0 14 -233017 -66577
0;
#X text 20 137 jack blocksize:;
#X obj 134 130 hradio 25 1 0 4 \$0.jack.blocksize \$0.jack.blocksize
empty 0 -8 0 10 -204800 -4032 -1 1;
#X text 137 135 64;
#X text 159 135 128;
#X text 185 135 256;
#X text 209 135 512;
#X obj 383 314 r \$0.num.channels;
#X obj 384 249 r \$0.bitres;
#X obj 344 214 r \$0.jack.blocksize;
#X obj 384 269 >> 3;
#X obj 344 234 t b a;
#X msg 344 254 64;
#X obj 344 274 <<;
#X obj 344 311 *;
#X obj 384 289 t b a;
#X obj 344 351 *;
#X obj 383 334 t b a;
#X obj 344 374 s \$0.payload.length;
#X obj 14 50 cnv 15 220 25 empty empty empty 20 12 0 14 -233017 -66577
0;
#X obj 14 50 tgl 25 0 \$0.on.off \$0.on.off empty 17 7 0 10 -261234
-1 -1 1 1;
#N canvas 0 70 285 340 sender 0;
#X obj 14 166 s \$0.to.udp;
#N canvas 0 43 635 529 prepend_header 0;
#X obj 9 12 inlet;
#X obj 9 414 outlet;
#X obj 94 13 r \$0.on.off;
#X obj 94 33 sel 0;
#X msg 94 53 0;
#X obj 9 32 t a b;
#X obj 36 83 f;
#X obj 36 102 mod 65536;
#X obj 36 122 t a a;
#X obj 111 111 + 1;
#X obj 36 142 t a a;
#X obj 81 160 >> 8;
#X obj 36 161 & 255;
#X obj 36 182 pack f f;
#X obj 9 393 list prepend;
#X obj 212 23 r \$0.jack.blocksize;
#X obj 212 104 t a a;
#X obj 257 122 >> 8;
#X obj 212 123 & 255;
#X obj 212 43 t b a;
#X msg 212 63 64;
#X obj 212 83 <<;
#X obj 36 202 list append 0 0;
#X obj 212 144 pack f f;
#X text 158 182 seq;
#X text 145 205 buffersize;
#X obj 36 231 list append 0;
#X text 146 231 samplingrate;
#X obj 36 261 list append 0;
#X text 136 266 bit resolution;
#X obj 36 298 list append 0;
#X text 132 301 in channels;
#X obj 36 330 list append 0;
#X text 219 363 time tag;
#X text 127 334 out channels;
#X obj 36 363 list prepend 0 0 0 0 0 0 0 0;
#X obj 296 218 r \$0.bitres;
#X obj 283 279 r \$0.num.channels;
#N canvas 394 310 404 229 samplerate 0;
#X obj 17 17 r \$0.samplerate;
#X obj 18 168 outlet;
#X obj 17 45 select 22050 32000 44100 48000 88200 96000 192000;
#X msg 17 80 0;
#X msg 58 80 1;
#X msg 100 80 2;
#X msg 141 80 3;
#X msg 183 79 4;
#X msg 224 80 5;
#X msg 266 79 6;
#X connect 0 0 2 0;
#X connect 2 0 3 0;
#X connect 2 1 4 0;
#X connect 2 2 5 0;
#X connect 2 3 6 0;
#X connect 2 4 7 0;
#X connect 2 5 8 0;
#X connect 2 6 9 0;
#X connect 3 0 1 0;
#X connect 4 0 1 0;
#X connect 5 0 1 0;
#X connect 6 0 1 0;
#X connect 7 0 1 0;
#X connect 8 0 1 0;
#X connect 9 0 1 0;
#X restore 291 170 pd samplerate;
#X connect 0 0 5 0;
#X connect 2 0 3 0;
#X connect 3 0 4 0;
#X connect 4 0 6 1;
#X connect 5 0 14 0;
#X connect 5 1 6 0;
#X connect 6 0 7 0;
#X connect 7 0 8 0;
#X connect 8 0 10 0;
#X connect 8 1 9 0;
#X connect 9 0 6 1;
#X connect 10 0 12 0;
#X connect 10 1 11 0;
#X connect 11 0 13 1;
#X connect 12 0 13 0;
#X connect 13 0 22 0;
#X connect 14 0 1 0;
#X connect 15 0 19 0;
#X connect 16 0 18 0;
#X connect 16 1 17 0;
#X connect 17 0 23 1;
#X connect 18 0 23 0;
#X connect 19 0 20 0;
#X connect 19 1 21 1;
#X connect 20 0 21 0;
#X connect 21 0 16 0;
#X connect 22 0 26 0;
#X connect 23 0 22 1;
#X connect 26 0 28 0;
#X connect 28 0 30 0;
#X connect 30 0 32 0;
#X connect 32 0 35 0;
#X connect 35 0 14 1;
#X connect 36 0 28 1;
#X connect 37 0 30 1;
#X connect 37 0 32 1;
#X connect 38 0 26 1;
#X restore 14 139 pd prepend_header;
#X obj 14 50 inlet;
#X connect 1 0 0 0;
#X connect 2 0 1 0;
#X restore 180 487 pd sender;
#N canvas 511 143 630 805 receiver 0;
#X obj 14 11 r \$0.from.udp;
#X obj 14 32 list split 16;
#X obj 164 71 list length;
#X obj 194 91 r \$0.payload.length;
#X obj 164 91 sel;
#X msg 179 111 ERROR: received packet with length \$1;
#X obj 179 130 print jacktrip_simulator;
#X obj 14 144 unpack f f;
#X obj 71 165 << 8;
#X obj 14 179 +;
#X obj 47 331 r \$0.on.off;
#X obj 29 270 pack f f;
#X obj 29 289 s \$0.ringbuffer;
#X msg 47 371 1;
#X msg 74 405 0;
#X obj 14 394 spigot;
#N canvas 354 274 450 300 metro 0;
#X obj 13 214 metro;
#X obj 109 16 r \$0.jack.blocksize;
#X obj 109 36 t b a;
#X msg 109 56 64;
#X obj 109 76 <<;
#X obj 109 96 * 1000;
#X obj 109 166 /;
#X obj 13 260 outlet;
#X obj 13 36 inlet;
#X obj 109 220 *;
#X obj 165 168 r \$0.queue;
#X obj 165 188 t b a;
#X obj 13 56 del;
#X obj 67 41 inlet;
#X msg 67 98 0;
#X msg 13 97 1;
#X obj 131 118 r \$0.samplerate;
#X obj 131 138 t b a;
#X connect 0 0 7 0;
#X connect 1 0 2 0;
#X connect 2 0 3 0;
#X connect 2 1 4 1;
#X connect 3 0 4 0;
#X connect 4 0 5 0;
#X connect 5 0 6 0;
#X connect 6 0 0 1;
#X connect 6 0 9 0;
#X connect 8 0 12 0;
#X connect 9 0 12 1;
#X connect 10 0 11 0;
#X connect 11 0 9 0;
#X connect 11 1 9 1;
#X connect 12 0 15 0;
#X connect 13 0 14 0;
#X connect 14 0 0 0;
#X connect 15 0 0 0;
#X connect 16 0 17 0;
#X connect 17 0 6 0;
#X connect 17 1 6 1;
#X restore 14 440 pd metro;
#X obj 47 351 sel 1 0;
#X msg 169 391 const 0;
#X obj 169 411 s \$0.ringbuffer;
#X obj 14 465 f;
#X obj 69 509 + 1;
#X obj 33 560 tabread \$0.ringbuffer;
#X obj 122 265 s \$0.sequence;
#X obj 14 510 t a a a;
#X obj 14 583 sel;
#X obj 14 485 mod 65536;
#X obj 48 646 print DROPPED_PACKET;
#N canvas 0 50 450 300 ratelimit 0;
#X obj 159 54 inlet;
#X obj 76 179 outlet;
#X obj 76 55 loadbang;
#X obj 76 75 metro 20;
#X obj 76 95 f;
#X obj 76 132 change;
#X connect 0 0 4 1;
#X connect 2 0 3 0;
#X connect 3 0 4 0;
#X connect 4 0 5 0;
#X connect 5 0 1 0;
#X restore 122 244 pd ratelimit;
#X obj 29 603 t b a a;
#X msg 14 119 \$9 \$10;
#X obj 14 414 t b b a;
#X obj 107 401 t b;
#N canvas 990 217 384 614 jtter.analysis 0;
#X obj 10 11 inlet;
#X obj 145 17 r \$0.on.off;
#X obj 10 31 t a a;
#X obj 37 63 spigot;
#X msg 112 70 0;
#X obj 56 187 realtime;
#X obj 37 83 t a b b;
#X obj 10 128 -;
#X obj 183 94 r \$0.jack.blocksize;
#X obj 183 114 t b a;
#X msg 183 134 64;
#X obj 183 154 <<;
#X obj 183 174 * 1000;
#X obj 183 244 /;
#X obj 205 196 r \$0.samplerate;
#X obj 205 216 t b a;
#X obj 10 222 *;
#X obj 10 289 -;
#X obj 10 148 t a b;
#X obj 37 360 min;
#X obj 37 380 t a a;
#X obj 10 461 max;
#X obj 10 484 t a a;
#X obj 37 400 change;
#X obj 10 505 change;
#X floatatom 10 525 10 0 0 0 - - -, f 10;
#X obj 10 339 t a a;
#X obj 133 288 r \$0.on.off;
#X obj 133 308 sel 1;
#X msg 133 328 1000;
#X msg 170 328 -10000;
#X obj 10 250 pack f f;
#X msg 10 270 \$2 \$1;
#X obj 10 309 -;
#X obj 10 438 -;
#X connect 0 0 2 0;
#X connect 1 0 3 1;
#X connect 2 0 7 0;
#X connect 2 1 3 0;
#X connect 3 0 6 0;
#X connect 4 0 3 1;
#X connect 5 0 31 1;
#X connect 6 0 7 1;
#X connect 6 1 5 0;
#X connect 6 2 4 0;
#X connect 7 0 18 0;
#X connect 8 0 9 0;
#X connect 9 0 10 0;
#X connect 9 1 11 1;
#X connect 10 0 11 0;
#X connect 11 0 12 0;
#X connect 12 0 13 0;
#X connect 13 0 16 1;
#X connect 14 0 15 0;
#X connect 15 0 13 0;
#X connect 15 1 13 1;
#X connect 16 0 31 0;
#X connect 17 0 33 0;
#X connect 18 0 16 0;
#X connect 18 1 5 1;
#X connect 19 0 20 0;
#X connect 20 0 23 0;
#X connect 20 1 19 1;
#X connect 21 0 22 0;
#X connect 22 0 24 0;
#X connect 22 1 21 1;
#X connect 23 0 34 1;
#X connect 24 0 25 0;
#X connect 26 0 34 0;
#X connect 26 1 19 0;
#X connect 27 0 28 0;
#X connect 28 0 29 0;
#X connect 28 0 30 0;
#X connect 29 0 19 1;
#X connect 30 0 21 1;
#X connect 31 0 32 0;
#X connect 32 0 17 0;
#X connect 33 0 26 0;
#X connect 34 0 21 0;
#X restore 377 234 pd jtter.analysis;
#N canvas 0 50 450 300 out.of.order.counter 0;
#X obj 30 59 t a a;
#X obj 31 87 -;
#X obj 31 113 < 0;
#X obj 31 133 sel 1;
#X obj 31 179 f;
#X obj 31 199 + 1;
#X obj 112 97 r \$0.on.off;
#X obj 112 118 sel 1;
#X msg 112 137 0;
#X obj 31 249 s \$0.outoforder;
#X msg 80 100 -1;
#X obj 30 36 inlet;
#X connect 0 0 1 1;
#X connect 0 1 1 0;
#X connect 1 0 2 0;
#X connect 2 0 3 0;
#X connect 3 0 4 0;
#X connect 4 0 5 0;
#X connect 5 0 4 1;
#X connect 5 0 9 0;
#X connect 6 0 7 0;
#X connect 7 0 8 0;
#X connect 7 0 10 0;
#X connect 8 0 4 1;
#X connect 8 0 9 0;
#X connect 10 0 1 1;
#X connect 11 0 0 0;
#X restore 218 244 pd out.of.order.counter;
#X obj 29 231 t a a;
#X obj 14 197 t a a a a a;
#N canvas 881 316 450 300 glitch.counter 0;
#X obj 24 23 inlet;
#X obj 24 43 t a a;
#X obj 24 75 -;
#X obj 24 102 > 100;
#X obj 24 122 sel 1;
#X obj 115 22 r \$0.on.off;
#X obj 115 42 sel 1;
#X msg 67 67 -1;
#X obj 24 147 f;
#X obj 24 167 + 1;
#X obj 24 189 s \$0.glitch;
#X msg 94 123 0;
#X connect 0 0 1 0;
#X connect 1 0 2 1;
#X connect 1 1 2 0;
#X connect 2 0 3 0;
#X connect 3 0 4 0;
#X connect 4 0 8 0;
#X connect 5 0 6 0;
#X connect 6 0 7 0;
#X connect 6 0 11 0;
#X connect 7 0 2 1;
#X connect 8 0 9 0;
#X connect 9 0 8 1;
#X connect 9 0 10 0;
#X connect 11 0 8 1;
#X connect 11 0 10 0;
#X restore 68 626 pd glitch.counter;
#N canvas 0 50 318 172 dropped.counter 0;
#X obj 24 74 f;
#X obj 24 94 + 1;
#X obj 24 116 s \$0.dropped;
#X obj 68 51 r \$0.on.off;
#X obj 68 71 sel 1;
#X msg 68 91 0;
#X obj 24 13 inlet;
#X connect 0 0 1 0;
#X connect 1 0 0 1;
#X connect 1 0 2 0;
#X connect 3 0 4 0;
#X connect 4 0 5 0;
#X connect 5 0 2 0;
#X connect 5 0 0 1;
#X connect 6 0 0 0;
#X restore 29 666 pd dropped.counter;
#X obj 169 434 table \$0.ringbuffer 100;
#X obj 29 250 mod 100;
#X obj 33 537 mod 100;
#X obj 51 52 t a a;
#X obj 51 79 outlet;
#X connect 0 0 1 0;
#X connect 1 0 30 0;
#X connect 1 1 42 0;
#X connect 2 0 4 0;
#X connect 3 0 4 1;
#X connect 4 1 5 0;
#X connect 5 0 6 0;
#X connect 7 0 9 0;
#X connect 7 1 8 0;
#X connect 8 0 9 1;
#X connect 9 0 36 0;
#X connect 10 0 17 0;
#X connect 11 0 12 0;
#X connect 13 0 15 1;
#X connect 14 0 15 1;
#X connect 15 0 31 0;
#X connect 16 0 20 0;
#X connect 17 0 13 0;
#X connect 17 0 18 0;
#X connect 17 1 32 0;
#X connect 18 0 19 0;
#X connect 20 0 26 0;
#X connect 21 0 20 1;
#X connect 22 0 25 1;
#X connect 24 0 25 0;
#X connect 24 1 41 0;
#X connect 24 2 21 0;
#X connect 25 1 29 0;
#X connect 26 0 24 0;
#X connect 28 0 23 0;
#X connect 29 0 38 0;
#X connect 29 1 27 0;
#X connect 29 2 37 0;
#X connect 30 0 7 0;
#X connect 31 0 16 0;
#X connect 31 1 14 0;
#X connect 31 2 20 1;
#X connect 32 0 16 1;
#X connect 35 0 40 0;
#X connect 35 1 11 1;
#X connect 36 0 15 0;
#X connect 36 1 35 0;
#X connect 36 2 28 0;
#X connect 36 3 34 0;
#X connect 36 4 33 0;
#X connect 40 0 11 0;
#X connect 41 0 22 0;
#X connect 42 0 43 0;
#X connect 42 1 2 0;
#X restore 180 520 pd receiver;
#N canvas 745 406 354 268 connection 0;
#X msg 39 189 disconnect;
#X obj 13 213 s \$0.to.udp;
#X msg 13 167 connect telematic.zhdk.ch \$1;
#X obj 13 81 f;
#X obj 52 82 r \$0.port.offset;
#X obj 13 101 + 4464;
#X obj 13 38 r \$0.on.off;
#X obj 13 61 sel 1;
#X obj 13 123 change -1;
#X obj 13 143 t a b;
#X connect 0 0 1 0;
#X connect 2 0 1 0;
#X connect 3 0 5 0;
#X connect 4 0 3 1;
#X connect 5 0 8 0;
#X connect 6 0 7 0;
#X connect 7 0 3 0;
#X connect 8 0 9 0;
#X connect 9 0 2 0;
#X connect 9 1 0 0;
#X restore 19 272 pd connection;
#X obj 151 57 nbx 5 14 0 65535 0 0 \$0.bla \$0.sequence empty 0 -8
0 10 -262130 -1 -1 20567 256;
#X text 207 57 seq;
#X msg 263 57 \; \$1.num.channels 2 \; \$1.port.offset 0 \; \$1.bitres
16 \; \$1.jack.blocksize 1 \; \$1.queue 2;
#X obj 200 182 nbx 2 14 2 99 0 0 \$0.queue \$0.queue empty 0 -8 0 10
-204800 -1 -1 2 256;
#X text 180 182 -q;
#X obj 14 206 cnv 15 220 40 empty empty empty 20 12 0 14 -233017 -66577
0;
#X text 71 209 DROPPED;
#X text 124 209 OOORDER;
#X obj 72 227 nbx 4 14 -1e+37 1e+37 0 0 \$0.bla \$0.dropped empty 0
-8 0 10 -262130 -1 -1 85 256;
#X obj 125 227 nbx 4 14 -1e+37 1e+37 0 0 \$0.bla \$0.outoforder empty
0 -8 0 10 -262130 -1 -1 0 256;
#X text 19 210 GLITCH;
#X obj 20 227 nbx 4 14 -1e+37 1e+37 0 0 \$0.bla \$0.glitch empty 0
-8 0 10 -262130 -1 -1 7 256;
#X obj 14 85 cnv 15 220 40 empty empty empty 20 12 0 14 -233017 -66577
0;
#X obj 16 104 nbx 5 14 -1e+37 1e+37 0 0 \$0.bla \$0.udp.packet.size
empty 0 -8 0 10 -262130 -1 -1 272 256;
#X obj 76 104 nbx 5 14 -1e+37 1e+37 0 0 \$0.bla \$0.bandwidth empty
0 -8 0 10 -262130 -1 -1 0.804825 256;
#X obj 136 104 nbx 5 14 -1e+37 1e+37 0 0 \$0.bla \$0.samplerate empty
0 -8 0 10 -262130 -1 -1 44100 256;
#X text 135 87 sr;
#N canvas 1439 541 456 382 calculate.metrics 0;
#X obj 14 14 loadbang;
#X obj 14 34 samplerate~;
#X obj 14 54 s \$0.samplerate;
#X obj 10 114 r \$0.payload.length;
#X obj 10 134 + 16;
#X obj 10 154 s \$0.udp.packet.size;
#X obj 240 27 r \$0.jack.blocksize;
#X obj 309 99 r \$0.samplerate;
#X obj 240 122 list prepend;
#X obj 240 142 /;
#X obj 275 148 r \$0.udp.packet.size;
#X obj 240 243 *;
#X obj 275 208 t b a;
#X obj 240 49 t b a;
#X msg 240 69 64;
#X obj 240 89 <<;
#X obj 240 331 s \$0.bandwidth;
#X obj 275 168 + 20;
#X text 311 176 12 Bytes: IP HEADER;
#X text 311 190 8 Bytes: UDP HEADER;
#X obj 13 193 r \$0.on.off;
#X obj 13 260 f;
#X obj 49 259 + 1;
#X obj 13 281 s \$0.seconds;
#X obj 103 218 sel 1;
#X msg 103 238 0;
#X obj 13 233 metro 1000;
#X obj 13 213 t a a;
#X obj 240 261 * 8;
#X obj 240 284 / 1000;
#X obj 240 304 / 1000;
#X connect 0 0 1 0;
#X connect 1 0 2 0;
#X connect 3 0 4 0;
#X connect 4 0 5 0;
#X connect 6 0 13 0;
#X connect 7 0 8 1;
#X connect 8 0 9 0;
#X connect 9 0 11 0;
#X connect 10 0 17 0;
#X connect 11 0 28 0;
#X connect 12 0 11 0;
#X connect 12 1 11 1;
#X connect 13 0 14 0;
#X connect 13 1 15 1;
#X connect 14 0 15 0;
#X connect 15 0 8 0;
#X connect 17 0 12 0;
#X connect 20 0 27 0;
#X connect 21 0 22 0;
#X connect 21 0 23 0;
#X connect 22 0 21 1;
#X connect 24 0 25 0;
#X connect 25 0 21 1;
#X connect 26 0 21 0;
#X connect 27 0 26 0;
#X connect 27 1 24 0;
#X connect 28 0 29 0;
#X connect 29 0 30 0;
#X connect 30 0 16 0;
#X restore 19 346 pd calculate.metrics;
#X obj 90 57 nbx 4 14 0 65535 0 0 \$0.bla \$0.seconds empty 0 -8 0
10 -262130 -1 -1 59 256;
#X text 39 50 start;
#X text 39 61 stop;
#X text 136 58 s;
#X text 15 87 bytes/fr;
#X text 75 87 Mb/s;
#X obj 513 126 precalculated_tables;
#X obj 181 271 inlet~;
#N canvas 0 43 410 272 reblocked_input 0;
#X obj 7 22 inlet~;
#X obj 163 26 r \$0.jack.blocksize;
#X obj 163 46 t b a;
#X msg 163 66 64;
#X obj 163 86 <<;
#X obj 163 139 block~;
#X msg 163 113 set \$1 1 1;
#X obj 8 73 tabsend~ \$0.inbuffer;
#X obj 11 134 bang~;
#X obj 11 160 outlet;
#X connect 0 0 7 0;
#X connect 1 0 2 0;
#X connect 2 0 3 0;
#X connect 2 1 4 1;
#X connect 3 0 4 0;
#X connect 4 0 6 0;
#X connect 6 0 5 0;
#X connect 8 0 9 0;
#X restore 180 324 pd reblocked_input;
#X obj 506 185 table \$0.inbuffer 4096;
#X msg 233 389 blocksize \$1;
#X obj 180 464 netpd-tabdump16 \$0.inbuffer;
#X obj 252 435 r \$0.on.off;
#X obj 180 432 spigot 0;
#X obj 487 461 table \$0.recvbuffer 8192;
#X obj 208 573 netpd-tabwrite16 \$0.recvbuffer;
#X obj 180 540 t b a;
#X obj 233 362 t a a;
#X obj 180 572 f;
#X obj 486 492 table \$0.outbuffer 65536;
#X connect 0 0 2 0;
#X connect 0 2 3 0;
#X connect 1 0 0 0;
#X connect 15 0 16 0;
#X connect 16 0 43 0;
#X connect 24 0 34 0;
#X connect 25 0 27 0;
#X connect 26 0 28 0;
#X connect 27 0 32 0;
#X connect 28 0 29 0;
#X connect 28 1 30 1;
#X connect 29 0 30 0;
#X connect 30 0 31 0;
#X connect 30 0 76 0;
#X connect 31 0 33 0;
#X connect 32 0 31 0;
#X connect 32 1 31 1;
#X connect 33 0 35 0;
#X connect 34 0 33 0;
#X connect 34 1 33 1;
#X connect 39 0 75 0;
#X connect 66 0 67 0;
#X connect 67 0 72 0;
#X connect 69 0 70 0;
#X connect 69 0 74 0;
#X connect 70 0 38 0;
#X connect 71 0 72 1;
#X connect 72 0 70 0;
#X connect 75 0 77 0;
#X connect 75 1 74 0;
#X connect 76 0 69 0;
#X connect 76 1 77 1;
