#N canvas 0 53 978 384 10;
#X declare -stdpath iemnet -stdpath osc -stdpath slip -path include
;
#X obj 39 38 cnv 24 311 24 empty empty PEERNODES 5 13 0 16 -228856
-1 0;
#N canvas 1020 178 769 522 code 0;
#N canvas 966 53 664 577 communication 0;
#X obj 9 38 packOSC;
#X obj 9 17 r \$0.send;
#X obj 9 58 slipenc 16384;
#X obj 9 78 s \$0.to;
#X obj 9 157 tcpclient;
#X obj 9 133 r \$0.to;
#X obj 9 254 s \$0.from;
#X obj 9 299 r \$0.from;
#X obj 9 319 slipdec 16384;
#X obj 9 339 unpackOSC;
#X obj 9 359 s \$0.receive;
#X obj 141 123 s \$0.to;
#X msg 160 100 disconnect;
#X obj 141 17 r \$0.connect;
#X obj 141 37 sel 1 0;
#X obj 43 180 s \$0.connection.state;
#X obj 405 185 r \$0.receive;
#X msg 405 100 /s/server/socket;
#X obj 405 121 s \$0.send;
#X obj 405 205 routeOSC /s/server/socket;
#X obj 414 228 r \$0.connection.state;
#X obj 414 248 sel 0;
#X msg 414 268 0;
#X obj 405 293 s \$0.id;
#X obj 405 35 r \$0.connection.state;
#X obj 405 344 r \$0.to.tpf;
#X obj 405 364 list split 1;
#X obj 405 404 list append;
#X obj 405 444 s \$0.send;
#X obj 405 470 r \$0.receive;
#X obj 405 512 s \$0.from.tpf;
#X obj 405 424 list trim;
#X msg 405 384 symbol /s/tpf\$1;
#X obj 405 492 routeOSC /s/tpf;
#X obj 405 55 sel 1;
#X obj 405 75 del 100;
#X msg 141 79 connect \$1 3025;
#X obj 141 58 symbol;
#X obj 196 57 r \$0.host;
#X connect 0 0 2 0;
#X connect 1 0 0 0;
#X connect 2 0 3 0;
#X connect 4 0 6 0;
#X connect 4 2 15 0;
#X connect 5 0 4 0;
#X connect 7 0 8 0;
#X connect 8 0 9 0;
#X connect 9 0 10 0;
#X connect 12 0 11 0;
#X connect 13 0 14 0;
#X connect 14 0 37 0;
#X connect 14 1 12 0;
#X connect 16 0 19 0;
#X connect 17 0 18 0;
#X connect 19 0 23 0;
#X connect 20 0 21 0;
#X connect 21 0 22 0;
#X connect 22 0 23 0;
#X connect 24 0 34 0;
#X connect 25 0 26 0;
#X connect 26 0 32 0;
#X connect 26 1 27 1;
#X connect 27 0 31 0;
#X connect 29 0 33 0;
#X connect 31 0 28 0;
#X connect 32 0 27 0;
#X connect 33 0 30 0;
#X connect 34 0 35 0;
#X connect 35 0 17 0;
#X connect 36 0 11 0;
#X connect 37 0 36 0;
#X connect 38 0 37 1;
#X restore 8 41 pd communication;
#X obj 189 149 nbx 5 14 -1e+37 1e+37 0 0 \$0.bla \$0.id empty 0 -8
0 10 -262144 -1 -1 4 256;
#N canvas 358 93 314 294 tpf.initialization 0;
#X obj 17 10 r \$0.id;
#X obj 17 51 b;
#X obj 17 30 moses 1;
#N canvas 280 164 450 300 protocol/version 0;
#X obj 17 54 s \$0.to.tpf;
#X obj 17 74 r \$0.from.tpf;
#X obj 17 114 unpack f f;
#X obj 17 134 == 1;
#X obj 74 133 == 0;
#X obj 17 154 &&;
#X obj 17 175 sel 1;
#X msg 44 195 protocol version of server does not match;
#X obj 44 215 s \$0.error;
#X msg 17 33 /protocol/version;
#X obj 17 94 routeOSC /protocol/version;
#X obj 17 11 inlet;
#X obj 17 255 outlet;
#X text 69 254 bang when OK;
#X obj 216 262 print DEBUG;
#X connect 1 0 10 0;
#X connect 2 0 3 0;
#X connect 2 1 4 0;
#X connect 3 0 5 0;
#X connect 4 0 5 1;
#X connect 5 0 6 0;
#X connect 6 0 12 0;
#X connect 6 1 7 0;
#X connect 7 0 8 0;
#X connect 9 0 0 0;
#X connect 10 0 2 0;
#X connect 11 0 9 0;
#X restore 17 94 pd protocol/version;
#N canvas 20 55 450 300 register/name 0;
#X obj 23 55 symbol;
#X obj 81 56 r \$0.name;
#X obj 80 77 list;
#X msg 23 98 /register/name \$1;
#X obj 23 12 inlet;
#X obj 23 230 outlet;
#X obj 23 119 s \$0.to.tpf;
#X obj 23 139 r \$0.from.tpf;
#X obj 23 159 routeOSC /register;
#X obj 23 203 b;
#X obj 78 251 s \$0.error;
#X obj 23 179 routeOSC /done /error /again;
#X obj 180 22 t b;
#X obj 297 139 r \$0.name;
#X obj 296 160 list;
#X msg 296 180 symbol \$1:;
#X obj 78 208 list prepend;
#X obj 78 228 list trim;
#X connect 0 0 3 0;
#X connect 1 0 2 0;
#X connect 2 0 0 1;
#X connect 3 0 6 0;
#X connect 4 0 0 0;
#X connect 7 0 8 0;
#X connect 8 0 11 0;
#X connect 9 0 5 0;
#X connect 11 0 9 0;
#X connect 11 1 16 0;
#X connect 11 2 12 0;
#X connect 12 0 0 0;
#X connect 13 0 14 0;
#X connect 14 0 15 0;
#X connect 15 0 16 1;
#X connect 16 0 17 0;
#X connect 17 0 10 0;
#X restore 17 119 pd register/name;
#X obj 17 162 s \$0.registered;
#X connect 0 0 2 0;
#X connect 1 0 3 0;
#X connect 2 1 1 0;
#X connect 3 0 4 0;
#X connect 4 0 5 0;
#X restore 8 62 pd tpf.initialization;
#N canvas 235 254 683 613 refresh 0;
#X obj 17 9 r \$0.from.tpf;
#X obj 17 65 s \$0.to.tpf;
#X obj 15 112 r \$0.from.tpf;
#X obj 15 132 routeOSC /clients;
#X obj 15 150 routeOSC /end /begin;
#X obj 132 322 text set \$0.clients;
#X obj 169 282 loadbang;
#X msg 169 302 8e+06;
#X obj 192 232 text delete \$0.clients;
#X msg 192 211 -1;
#X obj 132 263 spigot;
#X obj 73 170 t b b;
#X msg 73 191 1;
#X msg 42 192 0;
#X obj 336 120 r \$0.from.tpf;
#X obj 336 158 routeOSC /end /begin;
#X obj 490 290 loadbang;
#X msg 490 310 8e+06;
#X msg 513 219 -1;
#X obj 453 271 spigot;
#X obj 394 178 t b b;
#X msg 394 199 1;
#X msg 363 200 0;
#X obj 336 140 routeOSC /mylinks;
#X obj 513 240 text delete \$0.mylinks;
#X obj 453 330 text set \$0.mylinks;
#X obj 15 170 t b b;
#X obj 15 343 s \$0.refresh.client.display;
#X obj 336 178 t b b;
#X obj 9 389 r \$0.connection.state;
#X obj 9 409 sel 0;
#X obj 9 429 t b b b;
#X msg 48 450 -1;
#X obj 48 470 t a a;
#X obj 75 490 text delete \$0.clients;
#X obj 48 510 text delete \$0.mylinks;
#X obj 262 15 r \$0.from.tpf;
#X obj 262 71 s \$0.to.tpf;
#X obj 17 29 routeOSC /updated/clients;
#X msg 17 47 /refresh/clients;
#X obj 262 35 routeOSC /updated/mylinks;
#X msg 262 53 /refresh/mylinks;
#X obj 363 351 text size \$0.mylinks;
#X obj 363 371 t a b;
#X obj 363 391 until;
#X obj 363 411 f;
#X obj 363 431 t a a;
#X obj 401 422 + 1;
#X msg 404 392 0;
#X obj 363 452 text get \$0.mylinks;
#X obj 363 493 s \$0.assign.mylink;
#X obj 336 324 t b b;
#X obj 336 516 s \$0.refresh.mylink.display;
#X msg 363 472 0 \$2;
#X obj 9 530 s \$0.reset;
#X connect 0 0 38 0;
#X connect 2 0 3 0;
#X connect 3 0 4 0;
#X connect 4 0 26 0;
#X connect 4 1 11 0;
#X connect 4 2 10 0;
#X connect 6 0 7 0;
#X connect 7 0 5 1;
#X connect 9 0 8 0;
#X connect 10 0 5 0;
#X connect 11 0 12 0;
#X connect 11 1 9 0;
#X connect 12 0 10 1;
#X connect 13 0 10 1;
#X connect 14 0 23 0;
#X connect 15 0 28 0;
#X connect 15 1 20 0;
#X connect 15 2 19 0;
#X connect 16 0 17 0;
#X connect 17 0 25 1;
#X connect 18 0 24 0;
#X connect 19 0 25 0;
#X connect 20 0 21 0;
#X connect 20 1 18 0;
#X connect 21 0 19 1;
#X connect 22 0 19 1;
#X connect 23 0 15 0;
#X connect 26 0 27 0;
#X connect 26 1 13 0;
#X connect 28 0 51 0;
#X connect 28 1 22 0;
#X connect 29 0 30 0;
#X connect 30 0 31 0;
#X connect 31 0 54 0;
#X connect 31 2 32 0;
#X connect 32 0 33 0;
#X connect 33 0 35 0;
#X connect 33 1 34 0;
#X connect 36 0 40 0;
#X connect 38 0 39 0;
#X connect 39 0 1 0;
#X connect 40 0 41 0;
#X connect 41 0 37 0;
#X connect 42 0 43 0;
#X connect 43 0 44 0;
#X connect 43 1 48 0;
#X connect 44 0 45 0;
#X connect 45 0 46 0;
#X connect 46 0 49 0;
#X connect 46 1 47 0;
#X connect 47 0 45 1;
#X connect 48 0 45 1;
#X connect 49 0 53 0;
#X connect 51 0 52 0;
#X connect 51 1 42 0;
#X connect 53 0 50 0;
#X restore 8 82 pd refresh;
#X text 249 150 my_id;
#X obj 176 63 text define \$0.clients;
#X obj 176 83 text define \$0.mylinks;
#X obj 8 8 declare -stdpath iemnet -stdpath osc -stdpath slip -path
include;
#N canvas 20 381 1109 592 params 0;
#X obj 619 83 text search \$0.clients 0;
#X obj 619 58 f;
#X obj 634 36 r \$0.id;
#X obj 619 108 text get \$0.clients;
#X obj 619 16 r \$0.refresh.client.display;
#X obj 619 128 route bang;
#X obj 30 534 s \$0.to.tpf;
#X msg 106 461 /params/begin;
#X msg 11 499 /params/end;
#X obj 30 413 list prepend /params;
#X obj 30 433 list trim;
#X obj 366 19 r \$0.from.tpf;
#X obj 366 39 routeOSC /updated/params;
#X msg 366 59 /refresh/params;
#X obj 366 78 s \$0.to.tpf;
#X obj 836 17 r \$0.from.tpf;
#X obj 836 37 routeOSC /params;
#X obj 836 57 routeOSC /end /begin;
#X obj 836 77 t b b;
#X msg 863 96 0;
#X msg 894 96 1;
#X obj 953 151 spigot;
#X obj 953 172 list;
#X obj 1009 140 loadbang;
#X msg 1009 160 8e+06;
#X obj 953 192 text set \$0.params;
#X obj 921 224 text delete \$0.params;
#X obj 894 77 t b b;
#X msg 921 203 -1;
#X obj 836 267 s \$0.updated.params;
#X obj 584 14 bng 15 250 50 0 empty empty empty 17 7 0 10 -262144 -1
-1;
#X obj 621 217 s \$0.set.params;
#X obj 11 15 r \$0.set.params;
#X obj 11 85 sel 1;
#X obj 30 129 t b b b;
#X obj 30 236 samplerate~;
#X msg 30 256 samplerate \$1;
#X obj 79 195 r \$0.bitres;
#X obj 49 196 f;
#X msg 49 214 bitres \$1;
#X obj 88 133 r \$0.blocksize;
#X obj 73 156 f;
#X msg 73 174 blocksize \$1;
#X obj 11 106 t b b b;
#X obj 329 146 r \$0.updated.params;
#X obj 356 206 t a b;
#X obj 356 226 until;
#X obj 356 246 f;
#X obj 356 266 t a a;
#X obj 394 257 + 1;
#X msg 397 227 0;
#X obj 356 186 text size \$0.params;
#X obj 356 287 text get \$0.params;
#X obj 356 307 list trim;
#X obj 426 396 t b a;
#X obj 329 166 t b b;
#X obj 329 475 f;
#X obj 329 498 s \$0.param.check;
#X obj 356 327 t a a a;
#N canvas 1275 705 441 348 bitres 0;
#X obj 23 58 t a a;
#X obj 23 113 ==;
#X obj 23 143 t a a;
#X obj 23 309 outlet;
#X obj 50 165 sel 0;
#X obj 150 60 t a a;
#X obj 23 16 inlet;
#X obj 113 133 pack f f;
#X obj 50 209 list append;
#X msg 50 230 \$1 mismatch: mandated \$2 - configured \$3;
#X obj 50 250 s \$0.error;
#X obj 23 38 route bitres;
#X obj 150 40 r \$0.bitres;
#X obj 50 189 list append bitres;
#X connect 0 0 1 0;
#X connect 0 1 7 0;
#X connect 1 0 2 0;
#X connect 2 0 3 0;
#X connect 2 1 4 0;
#X connect 4 0 13 0;
#X connect 5 0 1 1;
#X connect 5 1 7 1;
#X connect 6 0 11 0;
#X connect 7 0 8 1;
#X connect 8 0 9 0;
#X connect 9 0 10 0;
#X connect 11 0 0 0;
#X connect 12 0 5 0;
#X connect 13 0 8 0;
#X restore 356 370 pd bitres;
#N canvas 1275 705 441 348 samplerate 0;
#X obj 23 58 t a a;
#X obj 23 113 ==;
#X obj 23 143 t a a;
#X obj 23 309 outlet;
#X obj 50 165 sel 0;
#X obj 150 60 t a a;
#X obj 23 16 inlet;
#X obj 113 133 pack f f;
#X obj 50 209 list append;
#X msg 50 230 \$1 mismatch: mandated \$2 - configured \$3;
#X obj 50 250 s \$0.error;
#X obj 23 38 route samplerate;
#X obj 150 40 samplerate~;
#X obj 150 15 loadbang;
#X obj 50 189 list append samplerate;
#X connect 0 0 1 0;
#X connect 0 1 7 0;
#X connect 1 0 2 0;
#X connect 2 0 3 0;
#X connect 2 1 4 0;
#X connect 4 0 14 0;
#X connect 5 0 1 1;
#X connect 5 1 7 1;
#X connect 6 0 11 0;
#X connect 7 0 8 1;
#X connect 8 0 9 0;
#X connect 9 0 10 0;
#X connect 11 0 0 0;
#X connect 12 0 5 0;
#X connect 13 0 12 0;
#X connect 14 0 8 0;
#X restore 426 370 pd samplerate;
#X obj 525 371 s \$0.blocksize;
#X obj 525 349 route blocksize;
#X obj 356 429 &&;
#X msg 621 193 \$3;
#X obj 674 149 list;
#X msg 669 192 \$3;
#X obj 674 169 t a a;
#X obj 11 61 change;
#X obj 120 14 r \$0.connection.state;
#X obj 120 34 sel 0;
#X msg 120 54 set 0;
#X obj 506 68 r \$0.set.params;
#X obj 506 88 sel 0;
#X connect 0 0 3 0;
#X connect 1 0 0 0;
#X connect 2 0 1 1;
#X connect 3 0 5 0;
#X connect 4 0 1 0;
#X connect 5 1 65 0;
#X connect 7 0 6 0;
#X connect 8 0 6 0;
#X connect 9 0 10 0;
#X connect 10 0 6 0;
#X connect 11 0 12 0;
#X connect 12 0 13 0;
#X connect 13 0 14 0;
#X connect 15 0 16 0;
#X connect 16 0 17 0;
#X connect 17 0 18 0;
#X connect 17 1 27 0;
#X connect 17 2 21 0;
#X connect 18 0 29 0;
#X connect 18 1 19 0;
#X connect 19 0 21 1;
#X connect 20 0 21 1;
#X connect 21 0 22 0;
#X connect 22 0 25 0;
#X connect 23 0 24 0;
#X connect 24 0 25 1;
#X connect 27 0 20 0;
#X connect 27 1 28 0;
#X connect 28 0 26 0;
#X connect 30 0 1 0;
#X connect 32 0 68 0;
#X connect 33 0 43 0;
#X connect 34 0 35 0;
#X connect 34 1 38 0;
#X connect 34 2 41 0;
#X connect 35 0 36 0;
#X connect 36 0 9 0;
#X connect 37 0 38 1;
#X connect 38 0 39 0;
#X connect 39 0 9 0;
#X connect 40 0 41 1;
#X connect 41 0 42 0;
#X connect 42 0 9 0;
#X connect 43 0 8 0;
#X connect 43 1 34 0;
#X connect 43 2 7 0;
#X connect 44 0 55 0;
#X connect 45 0 46 0;
#X connect 45 1 50 0;
#X connect 46 0 47 0;
#X connect 47 0 48 0;
#X connect 48 0 52 0;
#X connect 48 1 49 0;
#X connect 49 0 47 1;
#X connect 50 0 47 1;
#X connect 51 0 45 0;
#X connect 52 0 53 0;
#X connect 53 0 58 0;
#X connect 54 0 63 0;
#X connect 54 1 63 1;
#X connect 55 0 56 0;
#X connect 55 1 51 0;
#X connect 56 0 57 0;
#X connect 58 0 59 0;
#X connect 58 1 60 0;
#X connect 58 2 62 0;
#X connect 59 0 63 0;
#X connect 60 0 54 0;
#X connect 62 0 61 0;
#X connect 63 0 56 1;
#X connect 64 0 31 0;
#X connect 65 0 67 0;
#X connect 67 0 64 0;
#X connect 67 1 66 0;
#X connect 68 0 33 0;
#X connect 69 0 70 0;
#X connect 70 0 71 0;
#X connect 71 0 68 0;
#X connect 72 0 73 0;
#X connect 73 0 13 0;
#X restore 8 102 pd params;
#X obj 176 103 text define \$0.params;
#N canvas 398 461 316 192 gui.code 0;
#N canvas 2026 859 379 223 host 0;
#X restore 8 26 pd host;
#N canvas 251 323 534 348 channels 0;
#X obj 136 277 s \$0.channels.label;
#X msg 136 252 label ch=\$1;
#X obj 190 28 r \$0.channels.nb;
#X obj 190 98 div 4;
#X obj 20 237 * 4;
#X msg 20 257 set \$1;
#X obj 20 277 s \$0.channels.nb.r;
#X obj 20 212 t a a;
#X obj 20 24 r \$0.channels;
#X obj 190 118 change -1;
#X obj 224 178 s \$0.channels;
#X obj 190 138 t b a a b;
#X obj 20 160 spigot 1;
#X msg 241 157 0;
#X msg 160 166 1;
#X obj 300 78 == 0;
#X obj 190 64 spigot 1;
#X msg 369 224 color -1 -1 \$1;
#X msg 404 181 20;
#X msg 369 181 30;
#X obj 369 126 sel 0 1;
#X obj 296 138 loadbang;
#X obj 300 26 r \$0.connection.state;
#X obj 300 46 t a a;
#X obj 300 105 sel 1;
#X connect 1 0 0 0;
#X connect 2 0 16 0;
#X connect 3 0 9 0;
#X connect 4 0 5 0;
#X connect 5 0 6 0;
#X connect 7 0 4 0;
#X connect 7 1 1 0;
#X connect 8 0 12 0;
#X connect 9 0 11 0;
#X connect 11 0 14 0;
#X connect 11 1 1 0;
#X connect 11 2 10 0;
#X connect 11 3 13 0;
#X connect 12 0 7 0;
#X connect 13 0 12 1;
#X connect 14 0 12 1;
#X connect 15 0 16 1;
#X connect 15 0 24 0;
#X connect 16 0 3 0;
#X connect 17 0 0 0;
#X connect 18 0 17 0;
#X connect 19 0 17 0;
#X connect 20 0 19 0;
#X connect 20 1 18 0;
#X connect 21 0 19 0;
#X connect 22 0 23 0;
#X connect 23 0 15 0;
#X connect 23 1 20 0;
#X connect 24 0 4 0;
#X restore 8 45 pd channels;
#N canvas 101 223 450 300 samplerate 0;
#X msg 128 121 label sr=\$1Hz;
#X obj 128 146 s \$0.sr.label;
#X obj 128 20 loadbang;
#X obj 128 40 samplerate~;
#X obj 250 88 loadbang;
#X msg 249 109 color -1 -1 20;
#X connect 0 0 1 0;
#X connect 2 0 3 0;
#X connect 3 0 0 0;
#X connect 4 0 5 0;
#X connect 5 0 1 0;
#X restore 8 64 pd samplerate;
#N canvas 963 629 691 446 blocksize 0;
#X obj 47 28 r \$0.bs.nb;
#X obj 47 108 div 4;
#X obj 47 128 t b a;
#X msg 47 148 2;
#X obj 47 171 <<;
#X obj 74 147 + 5;
#X msg 64 347 label bs=\$1;
#X obj 64 372 s \$0.bs.label;
#X obj 251 109 r \$0.blocksize;
#X obj 278 209 log;
#X obj 278 230 /;
#X obj 313 203 log;
#X msg 313 184 2;
#X obj 313 163 loadbang;
#X obj 278 250 int;
#X obj 278 270 - 5;
#X obj 278 290 * 4;
#X msg 278 313 set \$1;
#X obj 278 334 s \$0.bs.nb.r;
#X obj 251 162 t a a;
#X obj 47 193 change -1;
#X obj 47 219 t b a a b;
#X obj 251 135 spigot 1;
#X msg 98 238 0;
#X msg 47 244 1;
#X obj 81 259 s \$0.blocksize;
#X obj 150 58 == 0;
#X obj 47 48 spigot 1;
#X obj 450 211 s \$0.bs.label;
#X msg 450 178 color -1 -1 \$1;
#X msg 485 135 20;
#X msg 450 135 30;
#X obj 450 80 sel 0 1;
#X obj 377 92 loadbang;
#X obj 150 6 r \$0.connection.state;
#X obj 150 26 t a a;
#X obj 150 96 sel 1;
#X obj 278 187 f;
#X connect 0 0 27 0;
#X connect 1 0 2 0;
#X connect 2 0 3 0;
#X connect 2 1 5 0;
#X connect 3 0 4 0;
#X connect 4 0 20 0;
#X connect 5 0 4 1;
#X connect 6 0 7 0;
#X connect 8 0 22 0;
#X connect 9 0 10 0;
#X connect 10 0 14 0;
#X connect 11 0 10 1;
#X connect 12 0 11 0;
#X connect 13 0 12 0;
#X connect 14 0 15 0;
#X connect 15 0 16 0;
#X connect 16 0 17 0;
#X connect 17 0 18 0;
#X connect 19 0 6 0;
#X connect 19 1 37 0;
#X connect 20 0 21 0;
#X connect 21 0 24 0;
#X connect 21 1 6 0;
#X connect 21 2 25 0;
#X connect 21 3 23 0;
#X connect 22 0 19 0;
#X connect 23 0 22 1;
#X connect 24 0 22 1;
#X connect 26 0 27 1;
#X connect 26 0 36 0;
#X connect 27 0 1 0;
#X connect 29 0 28 0;
#X connect 30 0 29 0;
#X connect 31 0 29 0;
#X connect 32 0 31 0;
#X connect 32 1 30 0;
#X connect 33 0 31 0;
#X connect 34 0 35 0;
#X connect 35 0 26 0;
#X connect 35 1 32 0;
#X connect 36 0 37 0;
#X connect 37 0 9 0;
#X restore 8 83 pd blocksize;
#N canvas 0 43 450 300 bitres 0;
#X obj 26 76 s \$0.res.label;
#X msg 26 51 label res=\$1;
#X obj 163 30 loadbang;
#X obj 23 22 r \$0.bitres;
#X msg 163 50 color -1 -1 20;
#X connect 1 0 0 0;
#X connect 2 0 4 0;
#X connect 3 0 1 0;
#X connect 4 0 0 0;
#X restore 9 102 pd bitres;
#N canvas 255 114 593 359 queue 0;
#X obj 151 159 div 4;
#X obj 35 233 * 4;
#X msg 35 253 set \$1;
#X obj 35 208 t a a;
#X obj 151 29 r \$0.queue.nb;
#X obj 168 281 s \$0.queue.label;
#X obj 35 273 s \$0.queue.nb.r;
#X msg 168 256 label q=\$1;
#X obj 35 23 r \$0.queue;
#X obj 151 178 t b a a b;
#X obj 35 159 spigot 1;
#X msg 202 197 0;
#X msg 151 203 1;
#X obj 299 318 s \$0.queue;
#X obj 265 81 == 0;
#X obj 151 99 spigot 1;
#X msg 438 188 color -1 -1 \$1;
#X msg 473 145 20;
#X msg 438 145 30;
#X obj 438 90 sel 0 1;
#X obj 365 102 loadbang;
#X obj 265 29 r \$0.connection.state;
#X obj 265 49 t a a;
#X obj 438 221 s \$0.queue.label;
#X obj 265 111 sel 1;
#X obj 299 258 t b a;
#X obj 299 278 del 500;
#X obj 299 298 f;
#X connect 0 0 9 0;
#X connect 1 0 2 0;
#X connect 2 0 6 0;
#X connect 3 0 1 0;
#X connect 3 1 7 0;
#X connect 4 0 15 0;
#X connect 7 0 5 0;
#X connect 8 0 10 0;
#X connect 9 0 12 0;
#X connect 9 1 7 0;
#X connect 9 2 25 0;
#X connect 9 3 11 0;
#X connect 10 0 3 0;
#X connect 11 0 10 1;
#X connect 12 0 10 1;
#X connect 14 0 15 1;
#X connect 14 0 24 0;
#X connect 15 0 0 0;
#X connect 16 0 23 0;
#X connect 17 0 16 0;
#X connect 18 0 16 0;
#X connect 19 0 18 0;
#X connect 19 1 17 0;
#X connect 20 0 18 0;
#X connect 21 0 22 0;
#X connect 22 0 14 0;
#X connect 22 1 19 0;
#X connect 24 0 1 0;
#X connect 25 0 26 0;
#X connect 25 1 27 1;
#X connect 26 0 27 0;
#X connect 27 0 13 0;
#X restore 8 122 pd queue;
#N canvas 804 561 615 188 connect 0;
#X obj 47 85 r \$0.connection.state;
#X obj 16 104 ==;
#X obj 16 125 s \$0.connect;
#X obj 16 46 t b b;
#X obj 266 31 r \$0.registered;
#X obj 203 34 sel 0;
#X obj 203 8 r \$0.connection.state;
#X obj 477 17 r \$0.error;
#X obj 16 11 r \$0.connect.switch;
#X obj 204 138 s \$0.connect.switch.r;
#X msg 204 107 color \$1 \$2 \$3;
#X msg 477 37 255 0 0;
#X msg 266 53 0 0 255;
#X msg 203 57 0 0 0;
#X msg 121 48 192 192 192;
#X connect 0 0 1 1;
#X connect 1 0 2 0;
#X connect 3 0 1 0;
#X connect 3 1 14 0;
#X connect 4 0 12 0;
#X connect 5 0 13 0;
#X connect 6 0 5 0;
#X connect 7 0 11 0;
#X connect 8 0 3 0;
#X connect 10 0 9 0;
#X connect 11 0 10 0;
#X connect 12 0 10 0;
#X connect 13 0 10 0;
#X connect 14 0 10 0;
#X restore 8 7 pd connect;
#X restore 8 122 pd gui.code;
#X obj 184 192 s \$0.to.tpf;
#X obj 337 152 r \$0.from.tpf;
#X obj 337 191 print FROM;
#X obj 337 172 spigot;
#X obj 337 232 spigot;
#X obj 337 212 r \$0.to.tpf;
#X obj 337 251 print TO;
#X obj 426 217 tgl 15 0 empty empty empty 17 7 0 10 -262144 -1 -1 0
1;
#X msg 184 172 /reset/clients;
#X obj 359 11 loadbang;
#X obj 359 31 f \$0;
#X obj 447 25 bng 15 250 50 0 empty empty empty 17 7 0 10 -262144 -1
-1;
#X msg 359 50 \; pd dsp 1 \; \$1.name symbol <LOCATION> \; \$1.host
symbol telematic.zhdk.ch \; \$1.channels 2 \; \$1.bitres 16 \; \$1.queue
4 \; \$1.blocksize 128 \;;
#N canvas 765 657 450 300 manage.links 0;
#X obj 59 16 r \$0.refresh.mylink.display;
#X obj 92 62 r \$0.param.check;
#X obj 211 55 r \$0.connection.state;
#X obj 59 185 spigot 1;
#X obj 92 82 t a a;
#X obj 92 101 sel 1;
#X msg 92 121 1;
#X msg 59 36 1;
#X obj 211 75 sel 0;
#X msg 211 95 0;
#X obj 211 115 t a a;
#X obj 59 211 s \$0.link.connect;
#X connect 0 0 7 0;
#X connect 1 0 4 0;
#X connect 2 0 8 0;
#X connect 3 0 11 0;
#X connect 4 0 5 0;
#X connect 4 1 3 1;
#X connect 5 0 6 0;
#X connect 6 0 3 0;
#X connect 7 0 3 0;
#X connect 8 0 9 0;
#X connect 9 0 10 0;
#X connect 10 0 3 1;
#X connect 10 1 3 0;
#X restore 8 142 pd manage.links;
#N canvas 665 528 992 567 chat.code 0;
#X obj 52 132 s \$0.send;
#X obj 52 91 list prepend /b/tpf/chat/message;
#X obj 52 112 list trim;
#X obj 596 39 r \$0.receive;
#X obj 596 62 routeOSC /*;
#X obj 596 84 routeOSC /tpf/chat/message;
#X obj 136 27 r \$0.id;
#X obj 52 48 list append 0;
#X obj 52 69 list prepend <name>;
#X obj 199 42 r \$0.name;
#X obj 52 27 r \$0.chat.s;
#X obj 295 52 text define \$0.chat;
#X obj 690 142 loadbang;
#X obj 596 141 list;
#X msg 295 28 clear;
#X obj 635 190 text insert \$0.chat;
#X msg 690 162 0;
#X obj 615 214 text size \$0.chat;
#X obj 615 235 - 30;
#X obj 615 256 max 0;
#X obj 615 278 until;
#X obj 615 322 text delete \$0.chat;
#X obj 615 299 f 30;
#X obj 785 26 loadbang;
#X obj 785 89 s \$0.chat.buffer;
#X obj 693 275 r \$0.chat.buffer;
#X msg 596 369 totalsize \$1;
#X obj 596 163 t b b a;
#X obj 596 346 text size \$0.chat;
#X msg 785 47 80;
#X obj 103 372 s \$0.chat.r;
#X obj 104 185 r \$0.connection.state;
#X obj 104 206 sel 0 1;
#X obj 291 179 loadbang;
#X msg 103 313 set <not\$1connected>;
#X msg 233 315 set <Enter\$1your\$1message\$1here>;
#X obj 103 277 symbol;
#X obj 233 276 symbol;
#X obj 291 200 t b b;
#X msg 318 222 32;
#X obj 318 243 makefilename %c;
#X obj 309 130 bng 15 250 50 0 empty empty empty 17 7 0 10 -262144
-1 -1;
#N canvas 1136 447 521 398 wrap 0;
#X obj 17 8 inlet;
#X obj 44 345 outlet;
#X obj 17 139 list fromsymbol;
#X obj 17 182 list tosymbol;
#X msg 17 55 list \$2 \$1 \$3;
#X obj 44 302 pack s s f;
#X msg 44 323 list \$2 \$1 \$3;
#X obj 17 76 unpack s s f;
#X obj 17 217 t b a;
#X msg 17 256 symbol;
#X obj 17 30 list;
#N canvas 966 53 526 756 serialize 0;
#X obj 92 152 until;
#X obj 91 431 list store;
#X obj 91 177 f;
#X msg 144 152 0, f 2;
#X obj 92 96 t b b a a;
#X obj 207 208 list length;
#X obj 91 198 t a a;
#X obj 175 246 pack f f;
#X msg 175 267 \$2 \$1;
#X obj 175 288 -;
#X obj 175 330 max 1;
#X obj 91 364 pack f f;
#X msg 91 400 get \$1 \$2;
#X obj 92 47 inlet;
#X obj 91 458 outlet;
#X obj 131 178 + 73;
#X obj 175 309 min 73;
#X connect 0 0 2 0;
#X connect 1 0 14 0;
#X connect 1 1 0 1;
#X connect 2 0 6 0;
#X connect 2 0 15 0;
#X connect 3 0 2 1;
#X connect 4 0 0 0;
#X connect 4 1 3 0;
#X connect 4 2 5 0;
#X connect 4 3 1 1;
#X connect 5 0 7 1;
#X connect 6 0 11 0;
#X connect 6 1 7 0;
#X connect 7 0 8 0;
#X connect 8 0 9 0;
#X connect 9 0 16 0;
#X connect 10 0 11 1;
#X connect 11 0 12 0;
#X connect 12 0 1 0;
#X connect 13 0 4 0;
#X connect 15 0 2 1;
#X connect 16 0 10 0;
#X restore 18 161 pd serialize 73;
#X connect 0 0 10 0;
#X connect 2 0 11 0;
#X connect 3 0 8 0;
#X connect 4 0 7 0;
#X connect 5 0 6 0;
#X connect 6 0 1 0;
#X connect 7 0 2 0;
#X connect 7 1 5 1;
#X connect 7 2 5 2;
#X connect 8 0 9 0;
#X connect 8 1 5 0;
#X connect 9 0 5 1;
#X connect 10 0 4 0;
#X connect 11 0 3 0;
#X restore 596 111 pd wrap;
#X obj 307 397 r \$0.display.chat;
#X msg 307 418 vis 1;
#X obj 307 439 s pd-chat;
#X obj 596 394 s \$0.scb.chat.r;
#X connect 1 0 2 0;
#X connect 2 0 0 0;
#X connect 3 0 4 0;
#X connect 4 0 5 0;
#X connect 5 0 42 0;
#X connect 6 0 7 1;
#X connect 7 0 8 0;
#X connect 8 0 1 0;
#X connect 9 0 8 1;
#X connect 10 0 7 0;
#X connect 12 0 16 0;
#X connect 13 0 27 0;
#X connect 14 0 11 0;
#X connect 16 0 15 1;
#X connect 17 0 18 0;
#X connect 18 0 19 0;
#X connect 19 0 20 0;
#X connect 20 0 22 0;
#X connect 22 0 21 0;
#X connect 23 0 29 0;
#X connect 25 0 22 1;
#X connect 25 0 18 1;
#X connect 26 0 46 0;
#X connect 27 0 28 0;
#X connect 27 1 17 0;
#X connect 27 2 15 0;
#X connect 28 0 26 0;
#X connect 29 0 24 0;
#X connect 31 0 32 0;
#X connect 32 0 36 0;
#X connect 32 1 37 0;
#X connect 33 0 38 0;
#X connect 34 0 30 0;
#X connect 35 0 30 0;
#X connect 36 0 34 0;
#X connect 37 0 35 0;
#X connect 38 0 36 0;
#X connect 38 1 39 0;
#X connect 39 0 40 0;
#X connect 40 0 37 1;
#X connect 40 0 36 1;
#X connect 41 0 37 0;
#X connect 42 0 13 0;
#X connect 43 0 44 0;
#X connect 44 0 45 0;
#X restore 8 162 pd chat.code;
#N canvas 978 53 787 374 chat 0;
#X obj 9 334 cnv 15 128 22 empty empty empty 20 12 0 14 -233017 -66577
0;
#X obj 743 334 cnv 15 24 22 empty empty empty 2 12 0 14 -233017 -66577
0;
#X obj 743 10 scrollbar_24x321 \$0.scb.chat.r \$0.scb.chat.s 14;
#X obj 140 334 symbolatom_600x22 \$0 \$0.chat.s \$0.chat.r 150 340
;
#X obj 9 309 tpf-client-chatline \$0.chat \$0.scb.chat.s 0;
#X obj 9 10 tpf-client-chatline \$0.chat \$0.scb.chat.s 13;
#X obj 9 33 tpf-client-chatline \$0.chat \$0.scb.chat.s 12;
#X obj 9 56 tpf-client-chatline \$0.chat \$0.scb.chat.s 11;
#X obj 9 79 tpf-client-chatline \$0.chat \$0.scb.chat.s 10;
#X obj 9 102 tpf-client-chatline \$0.chat \$0.scb.chat.s 9;
#X obj 9 125 tpf-client-chatline \$0.chat \$0.scb.chat.s 8;
#X obj 9 148 tpf-client-chatline \$0.chat \$0.scb.chat.s 7;
#X obj 9 171 tpf-client-chatline \$0.chat \$0.scb.chat.s 6;
#X obj 9 194 tpf-client-chatline \$0.chat \$0.scb.chat.s 5;
#X obj 9 217 tpf-client-chatline \$0.chat \$0.scb.chat.s 4;
#X obj 9 240 tpf-client-chatline \$0.chat \$0.scb.chat.s 3;
#X obj 9 263 tpf-client-chatline \$0.chat \$0.scb.chat.s 2;
#X obj 9 286 tpf-client-chatline \$0.chat \$0.scb.chat.s 1;
#X restore 8 182 pd chat;
#N canvas 45 812 1109 503 errors.code 0;
#X obj 392 28 r \$0.error;
#X obj 316 125 print TPF_ERROR;
#X obj 17 81 r \$0.display.errors;
#X msg 17 102 vis 1;
#X obj 17 123 s pd-errors;
#X obj 216 28 text define \$0.msgs;
#X obj 690 142 loadbang;
#X obj 596 141 list;
#X msg 690 162 0;
#X obj 615 235 - 30;
#X obj 615 256 max 0;
#X obj 615 278 until;
#X obj 615 299 f 30;
#X obj 785 26 loadbang;
#X msg 596 369 totalsize \$1;
#X obj 596 163 t b b a;
#X msg 785 47 80;
#X obj 785 89 s \$0.msgs.buffer;
#X obj 693 275 r \$0.msgs.buffer;
#X obj 635 190 text insert \$0.msgs;
#X obj 615 214 text size \$0.msgs;
#X obj 615 322 text delete \$0.msgs;
#X obj 596 345 text size \$0.msgs;
#X obj 596 394 s \$0.scb.msgs.r;
#N canvas 789 242 443 595 list2symbol 0;
#X obj 168 149 until;
#X obj 168 231 list store;
#X obj 168 174 f;
#X obj 206 175 + 1;
#X msg 222 147 0, f 2;
#X obj 168 122 t b b a;
#X msg 168 203 get \$1 1;
#X obj 166 298 list fromsymbol;
#X obj 167 253 list append;
#X msg 166 276 symbol \$1\$2;
#X obj 297 168 loadbang;
#X msg 297 199 symbol;
#X obj 166 339 list prepend append;
#X obj 166 360 list trim;
#X obj 72 394 list store;
#X obj 166 319 list append 32;
#X obj 68 64 t b b a;
#X obj 72 415 list tosymbol;
#X obj 68 43 list;
#X obj 72 436 outlet;
#X obj 68 21 inlet;
#X connect 0 0 2 0;
#X connect 1 0 8 0;
#X connect 1 1 0 1;
#X connect 2 0 3 0;
#X connect 2 0 6 0;
#X connect 3 0 2 1;
#X connect 4 0 2 1;
#X connect 5 0 0 0;
#X connect 5 1 4 0;
#X connect 5 2 1 1;
#X connect 6 0 1 0;
#X connect 7 0 15 0;
#X connect 8 0 9 0;
#X connect 9 0 7 0;
#X connect 10 0 11 0;
#X connect 11 0 8 1;
#X connect 12 0 13 0;
#X connect 13 0 14 0;
#X connect 14 0 17 0;
#X connect 15 0 12 0;
#X connect 16 0 14 1;
#X connect 16 1 14 0;
#X connect 16 2 5 0;
#X connect 17 0 19 0;
#X connect 18 0 16 0;
#X connect 20 0 18 0;
#X restore 519 55 pd list2symbol;
#X msg 519 76 list ERROR \$1 -1;
#X connect 0 0 1 0;
#X connect 0 0 24 0;
#X connect 2 0 3 0;
#X connect 3 0 4 0;
#X connect 6 0 8 0;
#X connect 7 0 15 0;
#X connect 8 0 19 1;
#X connect 9 0 10 0;
#X connect 10 0 11 0;
#X connect 11 0 12 0;
#X connect 12 0 21 0;
#X connect 13 0 16 0;
#X connect 14 0 23 0;
#X connect 15 0 22 0;
#X connect 15 1 20 0;
#X connect 15 2 19 0;
#X connect 16 0 17 0;
#X connect 18 0 12 1;
#X connect 18 0 9 1;
#X connect 20 0 9 0;
#X connect 22 0 14 0;
#X connect 24 0 25 0;
#X connect 25 0 7 0;
#X restore 8 202 pd errors.code;
#N canvas 978 487 783 348 errors 0;
#X obj 743 10 scrollbar_24x321 \$0.scb.msgs.r \$0.scb.msgs.s 14;
#X obj 9 10 tpf-client-chatline \$0.msgs \$0.scb.msgs.s 13;
#X obj 9 309 tpf-client-chatline \$0.msgs \$0.scb.msgs.s 0;
#X obj 9 33 tpf-client-chatline \$0.msgs \$0.scb.msgs.s 12;
#X obj 9 56 tpf-client-chatline \$0.msgs \$0.scb.msgs.s 11;
#X obj 9 79 tpf-client-chatline \$0.msgs \$0.scb.msgs.s 10;
#X obj 9 102 tpf-client-chatline \$0.msgs \$0.scb.msgs.s 9;
#X obj 9 125 tpf-client-chatline \$0.msgs \$0.scb.msgs.s 8;
#X obj 9 148 tpf-client-chatline \$0.msgs \$0.scb.msgs.s 7;
#X obj 9 171 tpf-client-chatline \$0.msgs \$0.scb.msgs.s 6;
#X obj 9 194 tpf-client-chatline \$0.msgs \$0.scb.msgs.s 5;
#X obj 9 217 tpf-client-chatline \$0.msgs \$0.scb.msgs.s 4;
#X obj 9 240 tpf-client-chatline \$0.msgs \$0.scb.msgs.s 3;
#X obj 9 263 tpf-client-chatline \$0.msgs \$0.scb.msgs.s 2;
#X obj 9 286 tpf-client-chatline \$0.msgs \$0.scb.msgs.s 1;
#X restore 8 222 pd errors;
#X connect 12 0 14 0;
#X connect 14 0 13 0;
#X connect 15 0 17 0;
#X connect 16 0 15 0;
#X connect 18 0 14 1;
#X connect 18 0 15 1;
#X connect 19 0 11 0;
#X connect 20 0 21 0;
#X connect 21 0 23 0;
#X connect 22 0 21 0;
#X restore 764 346 pd code;
#X obj 4 65 tpf-client-link \$0 0;
#X obj 353 38 cnv 24 32 24 empty empty RX 5 13 0 16 -228856 -1 0;
#X obj 4 38 cnv 24 32 24 empty empty TX 5 13 0 16 -228856 -1 0;
#X obj 461 38 cnv 24 70 24 empty empty DROP 5 13 0 16 -228856 -1 0
;
#X obj 534 38 cnv 24 70 24 empty empty GLITCH 5 13 0 16 -228856 -1
0;
#X obj 607 38 cnv 24 70 24 empty empty OOO 5 13 0 16 -228856 -1 0;
#X obj 39 3 symbolatom_311x32 \$0 \$0.name \$0.name.r 100 20;
#X obj 452 20 cnv 15 84 15 empty \$0.res.label res=16 4 7 0 13 -1 -195568
0;
#X obj 353 20 cnv 15 98 15 empty \$0.sr.label sr=44100Hz 4 7 0 13 -1
-195568 0;
#X obj 819 346 namecanvas \$0.main.cnv;
#X obj 388 38 cnv 24 70 24 empty empty CHAN 5 13 0 16 -228856 -1 0
;
#X obj 353 3 cnv 15 44 16 empty empty host= 4 8 0 13 -1 -262144 0;
#X obj 398 3 symbolatom_203x17 \$0 \$0.host \$0.host.r 500 15;
#X obj 605 3 nbx 7 16 6 34 0 0 \$0.channels.nb \$0.channels.nb.r empty
0 8 0 10 -262144 -1 -1 8 256;
#X obj 602 3 cnv 15 75 16 empty \$0.channels.label ch=2 4 8 0 13 -1
-195568 0;
#X obj 610 19 nbx 6 16 10 398 0 0 \$0.queue.nb \$0.queue.nb.r empty
0 8 0 10 -262144 -1 -1 16 256;
#X obj 610 20 cnv 15 67 15 empty \$0.queue.label q=4 4 7 0 13 -1 -195568
0;
#X obj 540 19 nbx 6 16 2 26 0 0 \$0.bs.nb \$0.bs.nb.r empty 0 8 0 10
-262144 -1 -1 8 256;
#X obj 537 20 cnv 15 72 15 empty \$0.bs.label bs=128 4 7 0 13 -1 -195568
0;
#X obj 680 38 cnv 24 32 24 empty empty 1 10 13 0 16 -228856 -1 0;
#X obj 715 38 cnv 24 32 24 empty empty 2 10 13 0 16 -228856 -1 0;
#X obj 750 38 cnv 24 32 24 empty empty 3 10 13 0 16 -228856 -1 0;
#X obj 785 38 cnv 24 32 24 empty empty 4 10 13 0 16 -228856 -1 0;
#X obj 820 38 cnv 24 32 24 empty empty 5 10 13 0 16 -228856 -1 0;
#X obj 855 38 cnv 24 32 24 empty empty 6 10 13 0 16 -228856 -1 0;
#X obj 890 38 cnv 24 32 24 empty empty 7 10 13 0 16 -228856 -1 0;
#X obj 925 38 cnv 24 32 24 empty empty 8 10 13 0 16 -228856 -1 0;
#X obj 680 3 tpf-client-inchannel \$0 0;
#X obj 715 3 tpf-client-inchannel \$0 1;
#X obj 750 3 tpf-client-inchannel \$0 2;
#X obj 785 3 tpf-client-inchannel \$0 3;
#X obj 820 3 tpf-client-inchannel \$0 4;
#X obj 855 3 tpf-client-inchannel \$0 5;
#X obj 890 3 tpf-client-inchannel \$0 6;
#X obj 925 3 tpf-client-inchannel \$0 7;
#X obj 4 100 tpf-client-link \$0 1;
#X obj 4 135 tpf-client-link \$0 2;
#X obj 4 170 tpf-client-link \$0 3;
#X obj 4 205 tpf-client-link \$0 4;
#X obj 4 240 tpf-client-link \$0 5;
#X obj 4 275 tpf-client-link \$0 6;
#X obj 4 310 tpf-client-link \$0 7;
#X obj 4 345 tpf-client-button Chat \$0.display.chat;
#X obj 135 345 tpf-client-button Errors \$0.display.errors;
#X obj 764 345 cnv 15 192 32 empty empty empty 20 12 0 14 -262144 -66577
0;
#X obj 4 3 tpf-client-button2 32 32 \$0.connect.switch \$0.connect.switch.r
;
