#N canvas 213 177 532 447 10;
#X declare -stdpath iemnet -stdpath osc -stdpath slip;
#X obj 8 11 declare -stdpath iemnet -stdpath osc -stdpath slip;
#X obj 398 17 loadbang;
#N canvas 0 43 664 577 communication 0;
#X obj 9 38 packOSC;
#X obj 9 17 r \$0.send;
#X obj 9 58 slipenc 16384;
#X obj 9 78 s \$0.to;
#X obj 9 157 tcpclient;
#X obj 9 133 r \$0.to;
#X obj 9 254 s \$0.from;
#X obj 9 299 r \$0.from;
#X obj 9 319 slipdec 16384;
#X obj 9 339 unpackOSC;
#X obj 9 359 s \$0.receive;
#X obj 141 103 s \$0.to;
#X msg 160 80 disconnect;
#X obj 141 17 r \$0.connect;
#X obj 141 37 sel 1 0;
#X obj 43 180 s \$0.connection.state;
#X msg 141 59 connect localhost 3025;
#X obj 405 185 r \$0.receive;
#X msg 405 100 /s/server/socket;
#X obj 405 121 s \$0.send;
#X obj 405 205 routeOSC /s/server/socket;
#X obj 414 228 r \$0.connection.state;
#X obj 414 248 sel 0;
#X msg 414 268 0;
#X obj 405 293 s \$0.id;
#X obj 405 35 r \$0.connection.state;
#X obj 405 344 r \$0.to.tpf;
#X obj 405 364 list split 1;
#X obj 405 404 list append;
#X obj 405 444 s \$0.send;
#X obj 405 470 r \$0.receive;
#X obj 405 512 s \$0.from.tpf;
#X obj 405 424 list trim;
#X msg 405 384 symbol /s/tpf\$1;
#X obj 405 492 routeOSC /s/tpf;
#X obj 405 55 sel 1;
#X obj 405 75 del 100;
#X connect 0 0 2 0;
#X connect 1 0 0 0;
#X connect 2 0 3 0;
#X connect 4 0 6 0;
#X connect 4 2 15 0;
#X connect 5 0 4 0;
#X connect 7 0 8 0;
#X connect 8 0 9 0;
#X connect 9 0 10 0;
#X connect 12 0 11 0;
#X connect 13 0 14 0;
#X connect 14 0 16 0;
#X connect 14 1 12 0;
#X connect 16 0 11 0;
#X connect 17 0 20 0;
#X connect 18 0 19 0;
#X connect 20 0 24 0;
#X connect 21 0 22 0;
#X connect 22 0 23 0;
#X connect 23 0 24 0;
#X connect 25 0 35 0;
#X connect 26 0 27 0;
#X connect 27 0 33 0;
#X connect 27 1 28 1;
#X connect 28 0 32 0;
#X connect 30 0 34 0;
#X connect 32 0 29 0;
#X connect 33 0 28 0;
#X connect 34 0 31 0;
#X connect 35 0 36 0;
#X connect 36 0 18 0;
#X restore 8 31 pd communication;
#X obj 398 37 \$0;
#X obj 343 68 tgl 20 0 \$0.connect \$0.connect.r empty 17 7 0 10 -262144
-1 -1 0 1;
#X obj 377 242 nbx 5 14 -1e+37 1e+37 0 0 \$0.bla \$0.id empty 0 -8
0 10 -262144 -1 -1 0 256;
#X text 437 243 id;
#N canvas 358 93 419 464 tpf.initialization 0;
#X obj 17 10 r \$0.id;
#X obj 17 51 b;
#X obj 17 30 moses 1;
#N canvas 280 164 450 300 protocol/version 0;
#X obj 17 54 s \$0.to.tpf;
#X obj 17 74 r \$0.from.tpf;
#X obj 17 114 unpack f f;
#X obj 17 134 == 1;
#X obj 74 133 == 0;
#X obj 17 154 &&;
#X obj 17 175 sel 1;
#X msg 44 195 protocol version of server does not match;
#X obj 44 215 s \$0.error;
#X msg 17 33 /protocol/version;
#X obj 17 94 routeOSC /protocol/version;
#X obj 17 11 inlet;
#X obj 17 255 outlet;
#X text 69 254 bang when OK;
#X obj 216 262 print DEBUG;
#X connect 1 0 10 0;
#X connect 2 0 3 0;
#X connect 2 1 4 0;
#X connect 3 0 5 0;
#X connect 4 0 5 1;
#X connect 5 0 6 0;
#X connect 6 0 12 0;
#X connect 6 1 7 0;
#X connect 7 0 8 0;
#X connect 9 0 0 0;
#X connect 10 0 2 0;
#X connect 11 0 9 0;
#X restore 17 94 pd protocol/version;
#N canvas 20 55 450 300 register/name 0;
#X obj 23 55 symbol;
#X obj 81 56 r \$0.name;
#X obj 80 77 list;
#X msg 23 98 /register/name \$1;
#X obj 23 12 inlet;
#X obj 23 230 outlet;
#X obj 23 119 s \$0.to.tpf;
#X obj 23 139 r \$0.from.tpf;
#X obj 23 159 routeOSC /register;
#X obj 23 179 routeOSC /done /error;
#X obj 23 203 b;
#X obj 84 203 s \$0.error;
#X connect 0 0 3 0;
#X connect 1 0 2 0;
#X connect 2 0 0 1;
#X connect 3 0 6 0;
#X connect 4 0 0 0;
#X connect 7 0 8 0;
#X connect 8 0 9 0;
#X connect 9 0 10 0;
#X connect 9 1 11 0;
#X connect 10 0 5 0;
#X restore 17 119 pd register/name;
#X obj 17 148 print OK;
#X connect 0 0 2 0;
#X connect 1 0 3 0;
#X connect 2 1 1 0;
#X connect 3 0 4 0;
#X connect 4 0 5 0;
#X restore 8 52 pd tpf.initialization;
#X msg 398 58 \; \$1.connect.r 1 \; \$1.name ZURICH \;;
#X obj 385 370 r \$0.error;
#X obj 385 390 print TPF_ERROR;
#X obj 102 303 r \$0.from.tpf;
#X obj 102 323 print FROM;
#X obj 193 303 r \$0.to.tpf;
#X obj 193 323 print TO;
#X connect 1 0 3 0;
#X connect 3 0 8 0;
#X connect 9 0 10 0;
#X connect 11 0 12 0;
#X connect 13 0 14 0;
