#N canvas 213 177 532 447 10;
#X declare -stdpath iemnet -stdpath osc -stdpath slip;
#X obj 8 11 declare -stdpath iemnet -stdpath osc -stdpath slip;
#X obj 398 17 loadbang;
#N canvas 0 43 476 412 communication 0;
#X obj 9 38 packOSC;
#X obj 9 17 r \$0.send;
#X obj 9 58 slipenc 16384;
#X obj 9 78 s \$0.to;
#X obj 9 157 tcpclient;
#X obj 9 133 r \$0.to;
#X obj 9 254 s \$0.from;
#X obj 9 299 r \$0.from;
#X obj 9 319 slipdec 16384;
#X obj 9 339 unpackOSC;
#X obj 9 359 s \$0.receive;
#X obj 141 103 s \$0.to;
#X msg 160 80 disconnect;
#X obj 141 17 r \$0.connect;
#X obj 141 37 sel 1 0;
#X obj 43 180 s \$0.connection.state;
#X msg 141 59 connect localhost 3025;
#X connect 0 0 2 0;
#X connect 1 0 0 0;
#X connect 2 0 3 0;
#X connect 4 0 6 0;
#X connect 4 2 15 0;
#X connect 5 0 4 0;
#X connect 7 0 8 0;
#X connect 8 0 9 0;
#X connect 9 0 10 0;
#X connect 12 0 11 0;
#X connect 13 0 14 0;
#X connect 14 0 16 0;
#X connect 14 1 12 0;
#X connect 16 0 11 0;
#X restore 8 31 pd communication;
#X obj 398 37 \$0;
#X msg 398 58 \; \$1.connect.r 1;
#X obj 335 54 tgl 20 0 \$0.connect \$0.connect.r empty 17 7 0 10 -262144
-1 -1 0 1;
#X obj 377 221 nbx 5 14 -1e+37 1e+37 0 0 \$0.bla \$0.num.of.clients
empty 0 -8 0 10 -262144 -1 -1 0 256;
#X text 437 222 num_of_clients;
#X obj 377 242 nbx 5 14 -1e+37 1e+37 0 0 \$0.bla \$0.id empty 0 -8
0 10 -262144 -1 -1 0 256;
#X text 437 243 id;
#N canvas 667 96 717 585 manager.id 0;
#X obj 11 180 r \$0.receive;
#X msg 11 136 /s/server/socket;
#X obj 11 156 s \$0.send;
#X obj 11 11 r \$0.receive;
#X obj 11 31 routeOSC /s/server/num_of_clients;
#X obj 11 200 routeOSC /s/server/socket;
#X obj 11 51 t b a;
#X obj 20 223 r \$0.connection.state;
#X obj 20 243 sel 0;
#X msg 20 263 0;
#X obj 38 114 s \$0.num.of.clients;
#X obj 11 288 s \$0.id;
#X obj 55 52 r \$0.connection.state;
#X obj 55 72 sel 0;
#X msg 55 92 0;
#X obj 304 29 r \$0.id;
#X obj 304 49 moses 0;
#X obj 358 89 r \$0.num.of.clients;
#X obj 343 69 t b a;
#X obj 343 112 f;
#X obj 343 132 sel 1;
#X obj 468 182 b;
#X obj 343 158 f;
#X obj 387 129 t a;
#X obj 343 181 s \$0.manager.id;
#X obj 11 339 r \$0.to.tpf;
#X obj 11 359 list split 1;
#X msg 11 379 symbol /tpf/\$1;
#X obj 11 399 list append;
#X obj 11 419 s \$0.send;
#X obj 11 465 r \$0.receive;
#X obj 11 487 routeOSC /tpf;
#X obj 11 507 s \$0.from.tpf;
#X connect 0 0 5 0;
#X connect 1 0 2 0;
#X connect 3 0 4 0;
#X connect 4 0 6 0;
#X connect 5 0 11 0;
#X connect 6 0 1 0;
#X connect 6 1 10 0;
#X connect 7 0 8 0;
#X connect 8 0 9 0;
#X connect 9 0 11 0;
#X connect 12 0 13 0;
#X connect 13 0 14 0;
#X connect 14 0 10 0;
#X connect 15 0 16 0;
#X connect 16 1 18 0;
#X connect 17 0 19 1;
#X connect 18 0 19 0;
#X connect 18 1 23 0;
#X connect 19 0 20 0;
#X connect 20 0 22 0;
#X connect 20 1 21 0;
#X connect 22 0 24 0;
#X connect 23 0 22 1;
#X connect 25 0 26 0;
#X connect 26 0 27 0;
#X connect 26 1 28 1;
#X connect 27 0 28 0;
#X connect 28 0 29 0;
#X connect 30 0 31 0;
#X connect 31 0 32 0;
#X restore 8 51 pd manager.id;
#X connect 1 0 3 0;
