#N canvas 4 43 521 186 10;
#X declare -stdpath iemnet -stdpath osc -stdpath slip;
#X obj 5 38 cnv 18 100 18 empty empty LOCATIONS: 3 10 0 12 -232576
-1 0;
#X obj 5 57 cnv 18 100 18 empty \$0.client.display.0 empty 3 10 0 12
-232576 -4160 0;
#X obj 5 76 cnv 18 100 18 empty \$0.client.display.1 empty 3 10 0 12
-232576 -4160 0;
#X obj 5 95 cnv 18 100 18 empty \$0.client.display.2 empty 3 10 0 12
-232576 -4160 0;
#X obj 5 114 cnv 18 100 18 empty \$0.client.display.3 empty 3 10 0
12 -232576 -4160 0;
#X obj 5 133 cnv 18 100 18 empty \$0.client.display.4 empty 3 10 0
12 -232576 -4160 0;
#X obj 5 152 cnv 18 100 18 empty \$0.client.display.5 empty 3 10 0
12 -232576 -4160 0;
#X obj 106 38 cnv 18 400 18 empty empty LINKS: 3 10 0 12 -232576 -1
0;
#X obj 106 57 cnv 18 400 18 empty \$0.mylink.display.0 empty 3 10 0
12 -232576 -4160 0;
#X obj 106 76 cnv 18 400 18 empty \$0.mylink.display.1 empty 3 10 0
12 -232576 -4160 0;
#X obj 106 95 cnv 18 400 18 empty \$0.mylink.display.2 empty 3 10 0
12 -232576 -4160 0;
#X obj 106 114 cnv 18 400 18 empty \$0.mylink.display.3 empty 3 10
0 12 -232576 -4160 0;
#X obj 106 133 cnv 18 400 18 empty \$0.mylink.display.4 empty 3 10
0 12 -232576 -4160 0;
#X obj 106 152 cnv 18 400 18 empty \$0.mylink.display.5 empty 3 10
0 12 -232576 -4160 0;
#N canvas 0 276 432 291 code 0;
#X obj 8 11 declare -stdpath iemnet -stdpath osc -stdpath slip;
#N canvas 0 43 664 577 communication 0;
#X obj 9 38 packOSC;
#X obj 9 17 r \$0.send;
#X obj 9 58 slipenc 16384;
#X obj 9 78 s \$0.to;
#X obj 9 157 tcpclient;
#X obj 9 133 r \$0.to;
#X obj 9 254 s \$0.from;
#X obj 9 299 r \$0.from;
#X obj 9 319 slipdec 16384;
#X obj 9 339 unpackOSC;
#X obj 9 359 s \$0.receive;
#X obj 141 103 s \$0.to;
#X msg 160 80 disconnect;
#X obj 141 17 r \$0.connect;
#X obj 141 37 sel 1 0;
#X obj 43 180 s \$0.connection.state;
#X msg 141 59 connect localhost 3025;
#X obj 405 185 r \$0.receive;
#X msg 405 100 /s/server/socket;
#X obj 405 121 s \$0.send;
#X obj 405 205 routeOSC /s/server/socket;
#X obj 414 228 r \$0.connection.state;
#X obj 414 248 sel 0;
#X msg 414 268 0;
#X obj 405 293 s \$0.id;
#X obj 405 35 r \$0.connection.state;
#X obj 405 344 r \$0.to.tpf;
#X obj 405 364 list split 1;
#X obj 405 404 list append;
#X obj 405 444 s \$0.send;
#X obj 405 470 r \$0.receive;
#X obj 405 512 s \$0.from.tpf;
#X obj 405 424 list trim;
#X msg 405 384 symbol /s/tpf\$1;
#X obj 405 492 routeOSC /s/tpf;
#X obj 405 55 sel 1;
#X obj 405 75 del 100;
#X connect 0 0 2 0;
#X connect 1 0 0 0;
#X connect 2 0 3 0;
#X connect 4 0 6 0;
#X connect 4 2 15 0;
#X connect 5 0 4 0;
#X connect 7 0 8 0;
#X connect 8 0 9 0;
#X connect 9 0 10 0;
#X connect 12 0 11 0;
#X connect 13 0 14 0;
#X connect 14 0 16 0;
#X connect 14 1 12 0;
#X connect 16 0 11 0;
#X connect 17 0 20 0;
#X connect 18 0 19 0;
#X connect 20 0 24 0;
#X connect 21 0 22 0;
#X connect 22 0 23 0;
#X connect 23 0 24 0;
#X connect 25 0 35 0;
#X connect 26 0 27 0;
#X connect 27 0 33 0;
#X connect 27 1 28 1;
#X connect 28 0 32 0;
#X connect 30 0 34 0;
#X connect 32 0 29 0;
#X connect 33 0 28 0;
#X connect 34 0 31 0;
#X connect 35 0 36 0;
#X connect 36 0 18 0;
#X restore 8 31 pd communication;
#X obj 11 172 nbx 5 14 -1e+37 1e+37 0 0 \$0.bla \$0.id empty 0 -8 0
10 -262144 -1 -1 0 256;
#N canvas 358 93 419 464 tpf.initialization 0;
#X obj 17 10 r \$0.id;
#X obj 17 51 b;
#X obj 17 30 moses 1;
#N canvas 280 164 450 300 protocol/version 0;
#X obj 17 54 s \$0.to.tpf;
#X obj 17 74 r \$0.from.tpf;
#X obj 17 114 unpack f f;
#X obj 17 134 == 1;
#X obj 74 133 == 0;
#X obj 17 154 &&;
#X obj 17 175 sel 1;
#X msg 44 195 protocol version of server does not match;
#X obj 44 215 s \$0.error;
#X msg 17 33 /protocol/version;
#X obj 17 94 routeOSC /protocol/version;
#X obj 17 11 inlet;
#X obj 17 255 outlet;
#X text 69 254 bang when OK;
#X obj 216 262 print DEBUG;
#X connect 1 0 10 0;
#X connect 2 0 3 0;
#X connect 2 1 4 0;
#X connect 3 0 5 0;
#X connect 4 0 5 1;
#X connect 5 0 6 0;
#X connect 6 0 12 0;
#X connect 6 1 7 0;
#X connect 7 0 8 0;
#X connect 9 0 0 0;
#X connect 10 0 2 0;
#X connect 11 0 9 0;
#X restore 17 94 pd protocol/version;
#N canvas 20 55 450 300 register/name 0;
#X obj 23 55 symbol;
#X obj 81 56 r \$0.name;
#X obj 80 77 list;
#X msg 23 98 /register/name \$1;
#X obj 23 12 inlet;
#X obj 23 230 outlet;
#X obj 23 119 s \$0.to.tpf;
#X obj 23 139 r \$0.from.tpf;
#X obj 23 159 routeOSC /register;
#X obj 23 179 routeOSC /done /error;
#X obj 23 203 b;
#X obj 84 203 s \$0.error;
#X connect 0 0 3 0;
#X connect 1 0 2 0;
#X connect 2 0 0 1;
#X connect 3 0 6 0;
#X connect 4 0 0 0;
#X connect 7 0 8 0;
#X connect 8 0 9 0;
#X connect 9 0 10 0;
#X connect 9 1 11 0;
#X connect 10 0 5 0;
#X restore 17 119 pd register/name;
#X connect 0 0 2 0;
#X connect 1 0 3 0;
#X connect 2 1 1 0;
#X connect 3 0 4 0;
#X restore 8 52 pd tpf.initialization;
#X obj 13 212 r \$0.error;
#X obj 13 232 print TPF_ERROR;
#N canvas 235 254 683 613 refresh 0;
#X obj 17 9 r \$0.from.tpf;
#X obj 17 65 s \$0.to.tpf;
#X obj 17 29 routeOSC /refresh/trigger;
#X msg 17 47 /refresh/clients \, /refresh/mylinks;
#X obj 15 112 r \$0.from.tpf;
#X obj 15 132 routeOSC /clients;
#X obj 15 150 routeOSC /end /begin;
#X obj 132 322 text set \$0.clients;
#X obj 169 282 loadbang;
#X msg 169 302 8e+06;
#X obj 192 232 text delete \$0.clients;
#X msg 192 211 -1;
#X obj 132 263 spigot;
#X obj 73 170 t b b;
#X msg 73 191 1;
#X msg 42 192 0;
#X obj 336 120 r \$0.from.tpf;
#X obj 336 158 routeOSC /end /begin;
#X obj 490 290 loadbang;
#X msg 490 310 8e+06;
#X msg 513 219 -1;
#X obj 453 271 spigot;
#X obj 394 178 t b b;
#X msg 394 199 1;
#X msg 363 200 0;
#X obj 336 140 routeOSC /mylinks;
#X obj 513 240 text delete \$0.mylinks;
#X obj 453 330 text set \$0.mylinks;
#X obj 15 170 t b b;
#X obj 15 343 s \$0.refresh.client.display;
#X obj 336 178 t b b;
#X obj 336 353 s \$0.refresh.mylink.display;
#X obj 9 389 r \$0.connection.state;
#X obj 9 409 sel 0;
#X obj 9 429 t b b b;
#X msg 48 450 -1;
#X obj 48 470 t a a;
#X obj 75 490 text delete \$0.clients;
#X obj 48 510 text delete \$0.mylinks;
#X obj 28 529 s \$0.refresh.client.display;
#X obj 9 549 s \$0.refresh.mylink.display;
#X connect 0 0 2 0;
#X connect 2 0 3 0;
#X connect 3 0 1 0;
#X connect 4 0 5 0;
#X connect 5 0 6 0;
#X connect 6 0 28 0;
#X connect 6 1 13 0;
#X connect 6 2 12 0;
#X connect 8 0 9 0;
#X connect 9 0 7 1;
#X connect 11 0 10 0;
#X connect 12 0 7 0;
#X connect 13 0 14 0;
#X connect 13 1 11 0;
#X connect 14 0 12 1;
#X connect 15 0 12 1;
#X connect 16 0 25 0;
#X connect 17 0 30 0;
#X connect 17 1 22 0;
#X connect 17 2 21 0;
#X connect 18 0 19 0;
#X connect 19 0 27 1;
#X connect 20 0 26 0;
#X connect 21 0 27 0;
#X connect 22 0 23 0;
#X connect 22 1 20 0;
#X connect 23 0 21 1;
#X connect 24 0 21 1;
#X connect 25 0 17 0;
#X connect 28 0 29 0;
#X connect 28 1 15 0;
#X connect 30 0 31 0;
#X connect 30 1 24 0;
#X connect 32 0 33 0;
#X connect 33 0 34 0;
#X connect 34 0 40 0;
#X connect 34 1 39 0;
#X connect 34 2 35 0;
#X connect 35 0 36 0;
#X connect 36 0 38 0;
#X connect 36 1 37 0;
#X restore 8 75 pd refresh;
#X text 71 173 my_id;
#X obj 176 53 text define \$0.clients;
#X obj 176 73 text define \$0.mylinks;
#N canvas 377 306 700 529 display 0;
#X obj 24 14 r \$0.refresh.client.display;
#X obj 24 73 until;
#X obj 24 93 f;
#X obj 149 101 + 1;
#X msg 69 77 0;
#X obj 39 146 text get \$0.clients;
#X msg 96 186 symbol \$2;
#X msg 24 294 \; \$1.client.display.\$2 label \$3;
#X obj 24 272 list prepend \$0;
#X obj 24 251 list prepend 0;
#X obj 24 34 t b b;
#X msg 24 54 6;
#X obj 24 233 symbol;
#X msg 39 205 symbol empty;
#X obj 24 113 t b a b a a;
#X obj 39 166 route bang;
#X obj 287 77 until;
#X obj 287 97 f;
#X obj 370 105 + 1;
#X msg 331 76 0;
#X obj 302 150 text get \$0.clients;
#X obj 287 458 list prepend \$0;
#X obj 287 437 list prepend 0;
#X obj 287 38 t b b;
#X msg 287 58 6;
#X obj 287 419 symbol;
#X msg 302 391 symbol empty;
#X obj 287 117 t b a b a a;
#X obj 302 172 route bang;
#X msg 359 193 \$1;
#X obj 359 213 sel;
#X obj 392 261 text get \$0.mylinks;
#X msg 287 480 \; \$1.mylink.display.\$2 label \$3;
#X obj 392 239 text search \$0.mylinks 0;
#X obj 287 18 r \$0.refresh.mylink.display;
#X obj 395 194 r \$0.id;
#X obj 392 281 unpack f f;
#X obj 392 304 text search \$0.clients 0;
#X obj 392 324 text get \$0.clients;
#X msg 392 344 symbol \$2;
#X obj 576 316 loadbang;
#X msg 576 336 32;
#X obj 576 356 list tosymbol;
#X obj 392 364 pack s f s;
#X msg 392 384 symbol jacktrip\$3-o\$2\$3--clientname\$3\$1;
#X connect 0 0 10 0;
#X connect 1 0 2 0;
#X connect 2 0 14 0;
#X connect 3 0 2 1;
#X connect 4 0 2 1;
#X connect 5 0 15 0;
#X connect 6 0 12 1;
#X connect 8 0 7 0;
#X connect 9 0 8 0;
#X connect 10 0 11 0;
#X connect 10 1 4 0;
#X connect 11 0 1 0;
#X connect 12 0 9 0;
#X connect 13 0 12 1;
#X connect 14 0 12 0;
#X connect 14 1 5 0;
#X connect 14 3 9 1;
#X connect 14 4 3 0;
#X connect 15 0 13 0;
#X connect 15 1 6 0;
#X connect 16 0 17 0;
#X connect 17 0 27 0;
#X connect 18 0 17 1;
#X connect 19 0 17 1;
#X connect 20 0 28 0;
#X connect 21 0 32 0;
#X connect 22 0 21 0;
#X connect 23 0 24 0;
#X connect 23 1 19 0;
#X connect 24 0 16 0;
#X connect 25 0 22 0;
#X connect 26 0 25 1;
#X connect 27 0 25 0;
#X connect 27 1 20 0;
#X connect 27 3 22 1;
#X connect 27 4 18 0;
#X connect 28 0 26 0;
#X connect 28 1 29 0;
#X connect 29 0 30 0;
#X connect 30 0 26 0;
#X connect 30 1 33 0;
#X connect 31 0 36 0;
#X connect 33 0 31 0;
#X connect 34 0 23 0;
#X connect 35 0 30 1;
#X connect 36 0 37 0;
#X connect 36 1 43 1;
#X connect 37 0 38 0;
#X connect 38 0 39 0;
#X connect 39 0 43 0;
#X connect 40 0 41 0;
#X connect 41 0 42 0;
#X connect 42 0 43 2;
#X connect 43 0 44 0;
#X connect 44 0 25 1;
#X restore 8 96 pd display;
#X connect 4 0 5 0;
#X restore 459 18 pd code;
#X obj 5 6 tgl 20 0 \$0.connect \$0.connect.r empty 17 7 0 10 -262144
-1 -1 0 1;
#X symbolatom 30 7 20 0 0 0 - - #0.name, f 20;
