#N canvas 0 43 966 371 10;
#X declare -stdpath iemnet -stdpath osc -stdpath slip -path include
;
#X obj 39 38 cnv 24 311 24 empty empty PEERNODES 5 13 0 16 -228856
-1 0;
#N canvas 0 461 604 308 code 0;
#N canvas 0 50 664 577 communication 0;
#X obj 9 38 packOSC;
#X obj 9 17 r \$0.send;
#X obj 9 58 slipenc 16384;
#X obj 9 78 s \$0.to;
#X obj 9 157 tcpclient;
#X obj 9 133 r \$0.to;
#X obj 9 254 s \$0.from;
#X obj 9 299 r \$0.from;
#X obj 9 319 slipdec 16384;
#X obj 9 339 unpackOSC;
#X obj 9 359 s \$0.receive;
#X obj 141 123 s \$0.to;
#X msg 160 100 disconnect;
#X obj 141 17 r \$0.connect;
#X obj 141 37 sel 1 0;
#X obj 43 180 s \$0.connection.state;
#X obj 405 185 r \$0.receive;
#X msg 405 100 /s/server/socket;
#X obj 405 121 s \$0.send;
#X obj 405 205 routeOSC /s/server/socket;
#X obj 414 228 r \$0.connection.state;
#X obj 414 248 sel 0;
#X msg 414 268 0;
#X obj 405 293 s \$0.id;
#X obj 405 35 r \$0.connection.state;
#X obj 405 344 r \$0.to.tpf;
#X obj 405 364 list split 1;
#X obj 405 404 list append;
#X obj 405 444 s \$0.send;
#X obj 405 470 r \$0.receive;
#X obj 405 512 s \$0.from.tpf;
#X obj 405 424 list trim;
#X msg 405 384 symbol /s/tpf\$1;
#X obj 405 492 routeOSC /s/tpf;
#X obj 405 55 sel 1;
#X obj 405 75 del 100;
#X msg 141 79 connect \$1 3025;
#X obj 141 58 symbol;
#X obj 196 57 r \$0.host;
#X connect 0 0 2 0;
#X connect 1 0 0 0;
#X connect 2 0 3 0;
#X connect 4 0 6 0;
#X connect 4 2 15 0;
#X connect 5 0 4 0;
#X connect 7 0 8 0;
#X connect 8 0 9 0;
#X connect 9 0 10 0;
#X connect 12 0 11 0;
#X connect 13 0 14 0;
#X connect 14 0 37 0;
#X connect 14 1 12 0;
#X connect 16 0 19 0;
#X connect 17 0 18 0;
#X connect 19 0 23 0;
#X connect 20 0 21 0;
#X connect 21 0 22 0;
#X connect 22 0 23 0;
#X connect 24 0 34 0;
#X connect 25 0 26 0;
#X connect 26 0 32 0;
#X connect 26 1 27 1;
#X connect 27 0 31 0;
#X connect 29 0 33 0;
#X connect 31 0 28 0;
#X connect 32 0 27 0;
#X connect 33 0 30 0;
#X connect 34 0 35 0;
#X connect 35 0 17 0;
#X connect 36 0 11 0;
#X connect 37 0 36 0;
#X connect 38 0 37 1;
#X restore 8 41 pd communication;
#X obj 189 149 nbx 5 14 -1e+37 1e+37 0 0 \$0.bla \$0.id empty 0 -8
0 10 -262144 -1 -1 0 256;
#N canvas 358 93 419 464 tpf.initialization 0;
#X obj 17 10 r \$0.id;
#X obj 17 51 b;
#X obj 17 30 moses 1;
#N canvas 280 164 450 300 protocol/version 0;
#X obj 17 54 s \$0.to.tpf;
#X obj 17 74 r \$0.from.tpf;
#X obj 17 114 unpack f f;
#X obj 17 134 == 1;
#X obj 74 133 == 0;
#X obj 17 154 &&;
#X obj 17 175 sel 1;
#X msg 44 195 protocol version of server does not match;
#X obj 44 215 s \$0.error;
#X msg 17 33 /protocol/version;
#X obj 17 94 routeOSC /protocol/version;
#X obj 17 11 inlet;
#X obj 17 255 outlet;
#X text 69 254 bang when OK;
#X obj 216 262 print DEBUG;
#X connect 1 0 10 0;
#X connect 2 0 3 0;
#X connect 2 1 4 0;
#X connect 3 0 5 0;
#X connect 4 0 5 1;
#X connect 5 0 6 0;
#X connect 6 0 12 0;
#X connect 6 1 7 0;
#X connect 7 0 8 0;
#X connect 9 0 0 0;
#X connect 10 0 2 0;
#X connect 11 0 9 0;
#X restore 17 94 pd protocol/version;
#N canvas 20 55 450 300 register/name 0;
#X obj 23 55 symbol;
#X obj 81 56 r \$0.name;
#X obj 80 77 list;
#X msg 23 98 /register/name \$1;
#X obj 23 12 inlet;
#X obj 23 230 outlet;
#X obj 23 119 s \$0.to.tpf;
#X obj 23 139 r \$0.from.tpf;
#X obj 23 159 routeOSC /register;
#X obj 23 203 b;
#X obj 78 204 s \$0.error;
#X obj 23 179 routeOSC /done /error /again;
#X obj 180 22 t b;
#X connect 0 0 3 0;
#X connect 1 0 2 0;
#X connect 2 0 0 1;
#X connect 3 0 6 0;
#X connect 4 0 0 0;
#X connect 7 0 8 0;
#X connect 8 0 11 0;
#X connect 9 0 5 0;
#X connect 11 0 9 0;
#X connect 11 1 10 0;
#X connect 11 2 12 0;
#X connect 12 0 0 0;
#X restore 17 119 pd register/name;
#X obj 17 162 s \$0.registered;
#X connect 0 0 2 0;
#X connect 1 0 3 0;
#X connect 2 1 1 0;
#X connect 3 0 4 0;
#X connect 4 0 5 0;
#X restore 8 62 pd tpf.initialization;
#X obj 8 218 r \$0.error;
#X obj 8 238 print TPF_ERROR;
#N canvas 235 254 683 613 refresh 0;
#X obj 17 9 r \$0.from.tpf;
#X obj 17 65 s \$0.to.tpf;
#X obj 15 112 r \$0.from.tpf;
#X obj 15 132 routeOSC /clients;
#X obj 15 150 routeOSC /end /begin;
#X obj 132 322 text set \$0.clients;
#X obj 169 282 loadbang;
#X msg 169 302 8e+06;
#X obj 192 232 text delete \$0.clients;
#X msg 192 211 -1;
#X obj 132 263 spigot;
#X obj 73 170 t b b;
#X msg 73 191 1;
#X msg 42 192 0;
#X obj 336 120 r \$0.from.tpf;
#X obj 336 158 routeOSC /end /begin;
#X obj 490 290 loadbang;
#X msg 490 310 8e+06;
#X msg 513 219 -1;
#X obj 453 271 spigot;
#X obj 394 178 t b b;
#X msg 394 199 1;
#X msg 363 200 0;
#X obj 336 140 routeOSC /mylinks;
#X obj 513 240 text delete \$0.mylinks;
#X obj 453 330 text set \$0.mylinks;
#X obj 15 170 t b b;
#X obj 15 343 s \$0.refresh.client.display;
#X obj 336 178 t b b;
#X obj 9 389 r \$0.connection.state;
#X obj 9 409 sel 0;
#X obj 9 429 t b b b;
#X msg 48 450 -1;
#X obj 48 470 t a a;
#X obj 75 490 text delete \$0.clients;
#X obj 48 510 text delete \$0.mylinks;
#X obj 262 15 r \$0.from.tpf;
#X obj 262 71 s \$0.to.tpf;
#X obj 17 29 routeOSC /updated/clients;
#X msg 17 47 /refresh/clients;
#X obj 262 35 routeOSC /updated/mylinks;
#X msg 262 53 /refresh/mylinks;
#X obj 363 351 text size \$0.mylinks;
#X obj 363 371 t a b;
#X obj 363 391 until;
#X obj 363 411 f;
#X obj 363 431 t a a;
#X obj 401 422 + 1;
#X msg 404 392 0;
#X obj 363 452 text get \$0.mylinks;
#X obj 363 493 s \$0.assign.mylink;
#X obj 336 324 t b b;
#X obj 336 516 s \$0.refresh.mylink.display;
#X msg 363 472 0 \$2;
#X obj 9 530 s \$0.reset;
#X connect 0 0 38 0;
#X connect 2 0 3 0;
#X connect 3 0 4 0;
#X connect 4 0 26 0;
#X connect 4 1 11 0;
#X connect 4 2 10 0;
#X connect 6 0 7 0;
#X connect 7 0 5 1;
#X connect 9 0 8 0;
#X connect 10 0 5 0;
#X connect 11 0 12 0;
#X connect 11 1 9 0;
#X connect 12 0 10 1;
#X connect 13 0 10 1;
#X connect 14 0 23 0;
#X connect 15 0 28 0;
#X connect 15 1 20 0;
#X connect 15 2 19 0;
#X connect 16 0 17 0;
#X connect 17 0 25 1;
#X connect 18 0 24 0;
#X connect 19 0 25 0;
#X connect 20 0 21 0;
#X connect 20 1 18 0;
#X connect 21 0 19 1;
#X connect 22 0 19 1;
#X connect 23 0 15 0;
#X connect 26 0 27 0;
#X connect 26 1 13 0;
#X connect 28 0 51 0;
#X connect 28 1 22 0;
#X connect 29 0 30 0;
#X connect 30 0 31 0;
#X connect 31 0 54 0;
#X connect 31 2 32 0;
#X connect 32 0 33 0;
#X connect 33 0 35 0;
#X connect 33 1 34 0;
#X connect 36 0 40 0;
#X connect 38 0 39 0;
#X connect 39 0 1 0;
#X connect 40 0 41 0;
#X connect 41 0 37 0;
#X connect 42 0 43 0;
#X connect 43 0 44 0;
#X connect 43 1 48 0;
#X connect 44 0 45 0;
#X connect 45 0 46 0;
#X connect 46 0 49 0;
#X connect 46 1 47 0;
#X connect 47 0 45 1;
#X connect 48 0 45 1;
#X connect 49 0 53 0;
#X connect 51 0 52 0;
#X connect 51 1 42 0;
#X connect 53 0 50 0;
#X restore 8 85 pd refresh;
#X text 249 150 my_id;
#X obj 176 63 text define \$0.clients;
#X obj 176 83 text define \$0.mylinks;
#N canvas 520 201 924 572 display 0;
#X obj 24 14 r \$0.refresh.client.display;
#X obj 287 18 r \$0.refresh.mylink.display;
#X obj 677 201 text search \$0.params 0;
#X msg 677 156 symbol channels \, symbol bitres;
#X obj 677 221 sel -1;
#X obj 710 243 text get \$0.params;
#X obj 710 268 list split 1;
#X obj 744 290 list prepend;
#X obj 744 315 t a a;
#X obj 658 349 list append;
#X obj 658 132 t b b b;
#X obj 472 11 r \$0.updated.params;
#X connect 2 0 4 0;
#X connect 3 0 2 0;
#X connect 4 1 5 0;
#X connect 5 0 6 0;
#X connect 6 1 7 0;
#X connect 7 0 8 0;
#X connect 8 0 9 1;
#X connect 8 1 7 1;
#X connect 10 0 9 0;
#X connect 10 1 3 0;
#X connect 10 2 7 1;
#X restore 8 106 pd display;
#X obj 8 8 declare -stdpath iemnet -stdpath osc -stdpath slip -path
include;
#N canvas 34 440 1134 626 params 0;
#X obj 619 83 text search \$0.clients 0;
#X obj 619 58 f;
#X obj 634 36 r \$0.id;
#X obj 619 108 text get \$0.clients;
#X msg 618 150 \$3;
#X obj 619 16 r \$0.refresh.client.display;
#X obj 619 128 route bang;
#X obj 30 484 s \$0.to.tpf;
#X msg 106 411 /params/begin;
#X msg 11 449 /params/end;
#X obj 30 363 list prepend /params;
#X obj 30 383 list trim;
#X obj 366 19 r \$0.from.tpf;
#X obj 366 39 routeOSC /updated/params;
#X msg 366 59 /refresh/params;
#X obj 366 78 s \$0.to.tpf;
#X obj 553 264 r \$0.from.tpf;
#X obj 553 284 routeOSC /params;
#X obj 553 304 routeOSC /end /begin;
#X obj 553 324 t b b;
#X msg 580 343 0;
#X msg 611 343 1;
#X obj 670 398 spigot;
#X obj 670 419 list;
#X obj 726 387 loadbang;
#X msg 726 407 8e+06;
#X obj 670 439 text set \$0.params;
#X obj 638 471 text delete \$0.params;
#X obj 611 324 t b b;
#X msg 638 450 -1;
#N canvas 0 50 450 300 update.guis 0;
#X obj 13 8 inlet;
#X obj 13 49 text size \$0.params;
#X obj 13 69 t a b;
#X obj 13 89 until;
#X obj 13 109 f;
#X obj 13 129 t a a;
#X obj 59 120 + 1;
#X msg 56 91 0;
#X obj 13 156 text get \$0.params;
#X obj 13 176 list prepend set;
#X obj 13 196 list trim;
#X obj 13 216 s \$0.param;
#X connect 0 0 1 0;
#X connect 1 0 2 0;
#X connect 2 0 3 0;
#X connect 2 1 7 0;
#X connect 3 0 4 0;
#X connect 4 0 5 0;
#X connect 5 0 8 0;
#X connect 5 1 6 0;
#X connect 6 0 4 1;
#X connect 7 0 4 1;
#X connect 8 0 9 0;
#X connect 9 0 10 0;
#X connect 10 0 11 0;
#X restore 580 494 pd update.guis;
#X obj 469 61 r \$0.registered;
#X obj 553 399 t b b;
#X obj 553 514 s \$0.updated.params;
#X obj 813 323 r \$0.block.settings;
#X obj 813 343 change -1;
#X obj 813 363 sel 0;
#X obj 813 392 t b b b b;
#X obj 864 414 s \$0.bitres.gui.r;
#X obj 847 436 s \$0.channels.gui.r;
#X obj 830 456 s \$0.jack.samplerate.gui.r;
#X obj 813 480 s \$0.jack.buffer.size.gui.r;
#X obj 584 14 bng 15 250 50 0 empty empty empty 17 7 0 10 -262144 -1
-1;
#X obj 618 174 s \$0.set.params;
#X obj 11 15 r \$0.set.params;
#X obj 11 35 sel 1;
#X obj 30 79 t b b b;
#X obj 30 186 samplerate~;
#X msg 30 206 samplerate \$1;
#X obj 79 145 r \$0.bitres;
#X obj 49 146 f;
#X msg 49 164 bitres \$1;
#X obj 88 83 r \$0.blocksize;
#X obj 73 106 f;
#X msg 73 126 blocksize \$1;
#X obj 11 56 t b b b;
#X obj 183 181 r \$0.blocksize;
#X msg 183 202 blocksize \$1;
#X obj 227 222 r \$0.set.params;
#X obj 183 222 spigot;
#X obj 183 248 t b a b;
#X connect 0 0 3 0;
#X connect 1 0 0 0;
#X connect 2 0 1 1;
#X connect 3 0 6 0;
#X connect 4 0 43 0;
#X connect 5 0 1 0;
#X connect 6 1 4 0;
#X connect 8 0 7 0;
#X connect 9 0 7 0;
#X connect 10 0 11 0;
#X connect 11 0 7 0;
#X connect 12 0 13 0;
#X connect 13 0 14 0;
#X connect 14 0 15 0;
#X connect 16 0 17 0;
#X connect 17 0 18 0;
#X connect 18 0 19 0;
#X connect 18 1 28 0;
#X connect 18 2 22 0;
#X connect 19 0 32 0;
#X connect 19 1 20 0;
#X connect 20 0 22 1;
#X connect 21 0 22 1;
#X connect 22 0 23 0;
#X connect 23 0 26 0;
#X connect 24 0 25 0;
#X connect 25 0 26 1;
#X connect 28 0 21 0;
#X connect 28 1 29 0;
#X connect 29 0 27 0;
#X connect 31 0 14 0;
#X connect 32 0 33 0;
#X connect 32 1 30 0;
#X connect 34 0 35 0;
#X connect 35 0 36 0;
#X connect 37 0 41 0;
#X connect 37 1 40 0;
#X connect 37 2 39 0;
#X connect 37 3 38 0;
#X connect 42 0 1 0;
#X connect 44 0 45 0;
#X connect 45 0 55 0;
#X connect 46 0 47 0;
#X connect 46 1 50 0;
#X connect 46 2 53 0;
#X connect 47 0 48 0;
#X connect 48 0 10 0;
#X connect 49 0 50 1;
#X connect 50 0 51 0;
#X connect 51 0 10 0;
#X connect 52 0 53 1;
#X connect 53 0 54 0;
#X connect 54 0 10 0;
#X connect 55 0 9 0;
#X connect 55 1 46 0;
#X connect 55 2 8 0;
#X connect 56 0 57 0;
#X connect 57 0 59 0;
#X connect 58 0 59 1;
#X connect 59 0 60 0;
#X connect 60 0 9 0;
#X connect 60 1 10 0;
#X connect 60 2 8 0;
#X restore 8 126 pd params;
#X obj 176 103 text define \$0.params;
#N canvas 398 461 316 192 gui.code 0;
#N canvas 970 43 379 223 host 0;
#X restore 8 26 pd host;
#N canvas 251 323 450 300 channels 0;
#X obj 136 227 s \$0.channels.label;
#X msg 136 202 label ch=\$1;
#X obj 190 28 r \$0.channels.nb;
#X obj 190 48 div 4;
#X obj 20 187 * 4;
#X msg 20 207 set \$1;
#X obj 20 227 s \$0.channels.nb.r;
#X obj 20 162 t a a;
#X obj 20 24 r \$0.channels;
#X obj 190 68 change -1;
#X obj 224 128 s \$0.channels;
#X obj 190 88 t b a a b;
#X obj 20 110 spigot 1;
#X msg 241 107 0;
#X msg 160 116 1;
#X connect 1 0 0 0;
#X connect 2 0 3 0;
#X connect 3 0 9 0;
#X connect 4 0 5 0;
#X connect 5 0 6 0;
#X connect 7 0 4 0;
#X connect 7 1 1 0;
#X connect 8 0 12 0;
#X connect 9 0 11 0;
#X connect 11 0 14 0;
#X connect 11 1 1 0;
#X connect 11 2 10 0;
#X connect 11 3 13 0;
#X connect 12 0 7 0;
#X connect 13 0 12 1;
#X connect 14 0 12 1;
#X restore 8 45 pd channels;
#N canvas 101 223 450 300 samplerate 0;
#X msg 128 121 label sr=\$1Hz;
#X obj 128 146 s \$0.sr.label;
#X obj 128 20 loadbang;
#X obj 128 40 samplerate~;
#X obj 250 88 loadbang;
#X msg 250 108 color 22 22 10;
#X connect 0 0 1 0;
#X connect 2 0 3 0;
#X connect 3 0 0 0;
#X connect 4 0 5 0;
#X connect 5 0 1 0;
#X restore 8 64 pd samplerate;
#N canvas 0 43 442 397 blocksize 0;
#X obj 47 28 r \$0.bs.nb;
#X obj 47 48 div 4;
#X obj 47 68 t b a;
#X msg 47 88 2;
#X obj 47 111 <<;
#X obj 74 87 + 5;
#X msg 64 287 label bs=\$1;
#X obj 64 312 s \$0.bs.label;
#X obj 251 49 r \$0.blocksize;
#X obj 278 149 log;
#X obj 278 170 /;
#X obj 313 143 log;
#X msg 313 124 2;
#X obj 313 103 loadbang;
#X obj 278 190 int;
#X obj 278 210 - 5;
#X obj 278 230 * 4;
#X msg 278 253 set \$1;
#X obj 278 274 s \$0.bs.nb.r;
#X obj 251 102 t a a;
#X obj 47 133 change -1;
#X obj 47 159 t b a a b;
#X obj 251 75 spigot 1;
#X msg 98 178 0;
#X msg 47 184 1;
#X obj 81 199 s \$0.blocksize;
#X connect 0 0 1 0;
#X connect 1 0 2 0;
#X connect 2 0 3 0;
#X connect 2 1 5 0;
#X connect 3 0 4 0;
#X connect 4 0 20 0;
#X connect 5 0 4 1;
#X connect 6 0 7 0;
#X connect 8 0 22 0;
#X connect 9 0 10 0;
#X connect 10 0 14 0;
#X connect 11 0 10 1;
#X connect 12 0 11 0;
#X connect 13 0 12 0;
#X connect 14 0 15 0;
#X connect 15 0 16 0;
#X connect 16 0 17 0;
#X connect 17 0 18 0;
#X connect 19 0 6 0;
#X connect 19 1 9 0;
#X connect 20 0 21 0;
#X connect 21 0 24 0;
#X connect 21 1 6 0;
#X connect 21 2 25 0;
#X connect 21 3 23 0;
#X connect 22 0 19 0;
#X connect 23 0 22 1;
#X connect 24 0 22 1;
#X restore 8 83 pd blocksize;
#N canvas 0 43 450 300 bitres 0;
#X obj 26 76 s \$0.res.label;
#X msg 26 51 label res=\$1;
#X obj 163 30 loadbang;
#X msg 163 50 color 22 22 10;
#X obj 23 22 r \$0.bitres;
#X connect 1 0 0 0;
#X connect 2 0 3 0;
#X connect 3 0 0 0;
#X connect 4 0 1 0;
#X restore 9 102 pd bitres;
#N canvas 0 43 450 300 queue 0;
#X obj 151 59 div 4;
#X obj 35 133 * 4;
#X msg 35 153 set \$1;
#X obj 35 108 t a a;
#X obj 151 39 r \$0.queue.nb;
#X obj 168 181 s \$0.queue.label;
#X obj 35 173 s \$0.queue.nb.r;
#X msg 168 156 label q=\$1;
#X obj 35 23 r \$0.queue;
#X obj 151 78 t b a a b;
#X obj 35 59 spigot 1;
#X msg 202 97 0;
#X msg 151 103 1;
#X obj 185 118 s \$0.queue;
#X connect 0 0 9 0;
#X connect 1 0 2 0;
#X connect 2 0 6 0;
#X connect 3 0 1 0;
#X connect 3 1 7 0;
#X connect 4 0 0 0;
#X connect 7 0 5 0;
#X connect 8 0 10 0;
#X connect 9 0 12 0;
#X connect 9 1 7 0;
#X connect 9 2 13 0;
#X connect 9 3 11 0;
#X connect 10 0 3 0;
#X connect 11 0 10 1;
#X connect 12 0 10 1;
#X restore 8 122 pd queue;
#N canvas 393 157 615 188 connect 0;
#X obj 15 31 sel;
#X obj 46 31 t a;
#X obj 46 85 r \$0.connection.state;
#X obj 15 104 ==;
#X obj 15 125 s \$0.connect;
#X obj 15 11 r \$0.connect.sl;
#X obj 203 112 s \$0.connect.label;
#X msg 203 86 color \$1 \$1 \$1;
#X msg 266 53 18;
#X msg 163 57 10;
#X msg 203 57 22;
#X obj 19 53 t b b;
#X obj 266 31 r \$0.registered;
#X obj 203 34 sel 0;
#X obj 203 8 r \$0.connection.state;
#X connect 0 0 11 0;
#X connect 0 1 1 0;
#X connect 1 0 0 1;
#X connect 2 0 3 1;
#X connect 3 0 4 0;
#X connect 5 0 0 0;
#X connect 7 0 6 0;
#X connect 8 0 7 0;
#X connect 9 0 7 0;
#X connect 10 0 7 0;
#X connect 11 0 3 0;
#X connect 11 1 9 0;
#X connect 12 0 8 0;
#X connect 13 0 10 0;
#X connect 14 0 13 0;
#X restore 8 7 pd connect;
#X obj 181 25 r \$0.blocksize;
#X floatatom 181 45 5 0 0 0 - - -, f 5;
#X connect 7 0 8 0;
#X restore 8 172 pd gui.code;
#X obj 184 192 s \$0.to.tpf;
#X obj 337 152 r \$0.from.tpf;
#X obj 337 191 print FROM;
#X obj 337 172 spigot;
#X obj 337 232 spigot;
#X obj 337 212 r \$0.to.tpf;
#X obj 337 251 print TO;
#X obj 426 217 tgl 15 0 empty empty empty 17 7 0 10 -262144 -1 -1 0
1;
#X msg 184 172 /reset/clients;
#X obj 359 11 loadbang;
#X obj 359 31 f \$0;
#X obj 447 25 bng 15 250 50 0 empty empty empty 17 7 0 10 -262144 -1
-1;
#X msg 359 50 \; pd dsp 1 \; \$1.name symbol <LOCATION> \; \$1.host
symbol telematic.zhdk.ch \; \$1.channels 2 \; \$1.bitres 16 \; \$1.queue
4 \; \$1.blocksize 128 \;;
#X connect 3 0 4 0;
#X connect 15 0 17 0;
#X connect 17 0 16 0;
#X connect 18 0 20 0;
#X connect 19 0 18 0;
#X connect 21 0 17 1;
#X connect 21 0 18 1;
#X connect 22 0 14 0;
#X connect 23 0 24 0;
#X connect 24 0 26 0;
#X connect 25 0 24 0;
#X restore 4 346 pd code;
#X obj 4 65 tpf-client-link \$0 0;
#X obj 353 38 cnv 24 32 24 empty empty RX 5 13 0 16 -228856 -1 0;
#X obj 4 38 cnv 24 32 24 empty empty TX 5 13 0 16 -228856 -1 0;
#X obj 461 38 cnv 24 70 24 empty empty DROP 5 13 0 16 -228856 -1 0
;
#X obj 534 38 cnv 24 70 24 empty empty GLITCH 5 13 0 16 -228856 -1
0;
#X obj 607 38 cnv 24 70 24 empty empty OOO 5 13 0 16 -228856 -1 0;
#X obj 39 3 symbolatom_311x32 \$0 \$0.name \$0.name.r 100 20;
#X obj 452 20 cnv 15 84 15 empty \$0.res.label res=16 4 7 0 13 -1 -233017
0;
#X obj 353 20 cnv 15 98 15 empty \$0.sr.label sr=48000Hz 4 7 0 13 -1
-233017 0;
#X obj 59 346 namecanvas \$0.main.cnv;
#X obj 388 38 cnv 24 70 24 empty empty CHAN 5 13 0 16 -228856 -1 0
;
#X obj 353 3 cnv 15 44 16 empty empty host= 4 8 0 13 -1 -262144 0;
#X obj 398 3 symbolatom_203x17 \$0 \$0.host \$0.host.r 500 15;
#X obj 605 3 nbx 7 16 6 34 0 0 \$0.channels.nb \$0.channels.nb.r empty
0 8 0 10 -262144 -1 -1 8 256;
#X obj 602 3 cnv 15 75 16 empty \$0.channels.label ch=2 4 8 0 13 -1
-262144 0;
#X obj 610 19 nbx 6 16 10 398 0 0 \$0.queue.nb \$0.queue.nb.r empty
0 8 0 10 -262144 -1 -1 16 256;
#X obj 610 20 cnv 15 67 15 empty \$0.queue.label q=4 4 7 0 13 -1 -262144
0;
#X obj 540 19 nbx 6 16 2 26 0 0 \$0.bs.nb \$0.bs.nb.r empty 0 8 0 10
-262144 -1 -1 8 256;
#X obj 537 20 cnv 15 72 15 empty \$0.bs.label bs=128 4 7 0 13 -1 -262144
0;
#X obj 4 5 vsl 32 27 0 127 0 0 \$0.connect.sl \$0.connect.sl.r empty
0 10 0 10 -262144 -262144 -1 0 1;
#X obj 4 3 cnv 32 32 32 empty \$0.connect.label empty 8 16 0 20 -1
-1 0;
#X obj 680 38 cnv 24 32 24 empty empty 1 10 13 0 16 -228856 -1 0;
#X obj 715 38 cnv 24 32 24 empty empty 2 10 13 0 16 -228856 -1 0;
#X obj 750 38 cnv 24 32 24 empty empty 3 10 13 0 16 -228856 -1 0;
#X obj 785 38 cnv 24 32 24 empty empty 4 10 13 0 16 -228856 -1 0;
#X obj 820 38 cnv 24 32 24 empty empty 5 10 13 0 16 -228856 -1 0;
#X obj 855 38 cnv 24 32 24 empty empty 6 10 13 0 16 -228856 -1 0;
#X obj 890 38 cnv 24 32 24 empty empty 7 10 13 0 16 -228856 -1 0;
#X obj 925 38 cnv 24 32 24 empty empty 8 10 13 0 16 -228856 -1 0;
#X obj 680 3 tpf-client-inchannel \$0 0;
#X obj 715 3 tpf-client-inchannel \$0 1;
#X obj 750 3 tpf-client-inchannel \$0 2;
#X obj 785 3 tpf-client-inchannel \$0 3;
#X obj 820 3 tpf-client-inchannel \$0 4;
#X obj 855 3 tpf-client-inchannel \$0 5;
#X obj 890 3 tpf-client-inchannel \$0 6;
#X obj 925 3 tpf-client-inchannel \$0 7;
#X obj 4 100 tpf-client-link \$0 1;
#X obj 4 135 tpf-client-link \$0 2;
#X obj 4 170 tpf-client-link \$0 3;
#X obj 4 205 tpf-client-link \$0 4;
#X obj 4 240 tpf-client-link \$0 5;
#X obj 4 275 tpf-client-link \$0 6;
#X obj 4 310 tpf-client-link \$0 7;
