#N canvas 248 58 539 281 10;
#X obj 31 19 osc~ 220;
#X obj 30 119 dac~ 1;
#X obj 31 48 *~;
#X obj 74 36 tgl 20 0 empty empty empty 17 7 0 10 -204786 -1 -1 0 1
;
#X msg 74 79 \$1 20;
#X obj 74 100 line~;
#X obj 217 21 bng 20 250 50 0 empty empty empty 17 7 0 10 -261234 -1
-1;
#X obj 280 44 tgl 30 0 empty empty empty 17 7 0 10 -258113 -1 -1 1
1;
#X text 243 23 <- select file;
#X text 314 49 record;
#X text 99 42 on/off;
#X obj 74 61 * 0.25;
#N canvas 0 50 602 425 recorder 0;
#X obj 217 223 writesf~ 1;
#X msg 217 171 open \$1;
#X obj 217 97 symbol;
#X obj 326 65 sel 0 1;
#X msg 326 104 stop;
#X msg 376 108 start;
#X obj 376 84 t b b;
#X obj 217 54 savepanel;
#X obj 288 190 adc~ 1;
#X obj 344 222 env~ 2048;
#X obj 344 242 - 100;
#X obj 217 23 inlet;
#X obj 326 35 inlet;
#X obj 186 306 outlet;
#X obj 349 324 outlet;
#X connect 1 0 0 0;
#X connect 2 0 1 0;
#X connect 2 0 14 0;
#X connect 3 0 4 0;
#X connect 3 1 6 0;
#X connect 4 0 0 0;
#X connect 5 0 0 0;
#X connect 6 0 5 0;
#X connect 6 1 2 0;
#X connect 7 0 2 0;
#X connect 8 0 0 0;
#X connect 8 0 9 0;
#X connect 9 0 10 0;
#X connect 10 0 13 0;
#X connect 11 0 7 0;
#X connect 12 0 3 0;
#X restore 217 89 pd recorder;
#X obj 218 125 vu 15 120 empty empty -1 -8 0 10 -66577 -1 1 0;
#X symbolatom 280 115 40 0 0 0 - - -, f 40;
#X text 286 134 file;
#X obj 34 182 loadbang;
#X msg 34 202 \; pd dsp 1;
#X connect 0 0 2 0;
#X connect 2 0 1 0;
#X connect 3 0 11 0;
#X connect 4 0 5 0;
#X connect 5 0 2 1;
#X connect 6 0 12 0;
#X connect 7 0 12 1;
#X connect 11 0 4 0;
#X connect 12 0 13 0;
#X connect 12 1 14 0;
#X connect 16 0 17 0;
