#N canvas 558 404 450 300 10;
#X declare -stdpath iemnet;
#X obj 99 139 udpclient;
#X msg 136 78 connect telematic.zhdk.ch 4464;
#X msg 137 101 disconnect;
#X obj 134 161 tgl 15 0 empty empty empty 17 7 0 10 -262144 -1 -1 0
1;
#X obj 156 161 print;
#X obj 22 21 declare -stdpath iemnet;
#X obj 98 216 t b b;
#X obj 98 236 timer;
#X floatatom 98 256 10 0 0 0 - - -, f 10;
#X obj 38 171 t a;
#X msg 33 60 97 97;
#X obj 38 143 spigot;
#X obj 52 107 tgl 15 0 empty empty empty 17 7 0 10 -262144 -1 -1 0
1;
#X connect 0 0 6 0;
#X connect 0 0 11 0;
#X connect 0 2 3 0;
#X connect 0 3 4 0;
#X connect 1 0 0 0;
#X connect 2 0 0 0;
#X connect 6 0 7 0;
#X connect 6 1 7 1;
#X connect 7 0 8 0;
#X connect 9 0 0 0;
#X connect 10 0 0 0;
#X connect 11 0 9 0;
#X connect 12 0 11 1;
