#N canvas 160 186 714 787 10;
#X declare -stdpath iemnet -path include;
#X obj 82 42 loadbang;
#X obj 82 69 tgl 15 0 empty empty empty 17 7 0 10 -204786 -1 -1 1 1
;
#X obj 82 94 sel 1 0;
#X msg 100 143 disconnect;
#N canvas 0 43 450 300 reblocked 0;
#X obj 78 125 udpclient;
#X obj 78 93 inlet;
#X obj 78 175 outlet;
#X obj 200 178 outlet;
#X obj 130 180 outlet;
#X obj 257 178 outlet;
#X obj 31 18 block~ 16 1 1;
#X connect 0 0 2 0;
#X connect 0 1 4 0;
#X connect 0 2 3 0;
#X connect 0 3 5 0;
#X connect 1 0 0 0;
#X restore 20 182 pd reblocked udpclient;
#X obj 20 138 r \$0.to.udp;
#X obj 20 209 s \$0.from.udp;
#X obj 111 212 tgl 15 0 empty empty empty 17 7 0 10 -262144 -1 -1 1
1;
#N canvas 0 43 334 327 generate_burst 0;
#X msg 137 37 11;
#X text 164 37 ms;
#N canvas 732 209 352 244 ms2samp 0;
#X obj 86 77 samplerate~;
#X obj 59 24 inlet;
#X obj 59 158 outlet;
#X obj 86 101 / 1000;
#X obj 59 52 t a b;
#X obj 59 127 *;
#X connect 0 0 3 0;
#X connect 1 0 4 0;
#X connect 3 0 5 1;
#X connect 4 0 5 0;
#X connect 4 1 0 0;
#X connect 5 0 2 0;
#X restore 137 64 pd ms2samp;
#X obj 137 13 loadbang;
#X msg 176 114 resize \$1;
#X obj 22 69 until;
#X obj 22 45 t a b;
#X msg 62 69 0;
#X obj 22 95 f;
#X obj 176 138 s \$0.burst;
#X obj 22 278 tabwrite \$0.burst;
#N canvas 379 342 146 205 sinc 0;
#X obj 74 128 /;
#X obj 74 100 sin;
#X obj 74 77 t a a;
#X obj 29 52 select 0;
#X msg 29 126 1;
#X obj 29 20 inlet;
#X obj 29 159 outlet;
#X connect 0 0 6 0;
#X connect 1 0 0 0;
#X connect 2 0 1 0;
#X connect 2 1 0 1;
#X connect 3 0 4 0;
#X connect 3 1 2 0;
#X connect 4 0 6 0;
#X connect 5 0 3 0;
#X restore 22 246 pd sinc;
#X obj 51 96 + 1;
#X obj 22 124 t a a;
#X obj 104 135 / 2;
#X obj 22 156 -;
#X obj 137 91 t a a a;
#N canvas 430 266 113 233 normalize 0;
#X obj 68 91 atan;
#X msg 68 69 1;
#X obj 68 112 * 8;
#X obj 41 135 /;
#X obj 41 46 t a a;
#X obj 41 19 inlet;
#X obj 3 186 outlet;
#X obj 3 18 inlet;
#X obj 3 161 /;
#X connect 0 0 2 0;
#X connect 1 0 0 0;
#X connect 2 0 3 1;
#X connect 3 0 8 1;
#X connect 4 0 3 0;
#X connect 4 1 1 0;
#X connect 5 0 4 0;
#X connect 7 0 8 0;
#X connect 8 0 6 0;
#X restore 22 181 pd normalize;
#X obj 22 217 * 100;
#X connect 0 0 2 0;
#X connect 2 0 16 0;
#X connect 3 0 0 0;
#X connect 4 0 9 0;
#X connect 5 0 8 0;
#X connect 6 0 5 0;
#X connect 6 1 7 0;
#X connect 7 0 8 1;
#X connect 8 0 12 0;
#X connect 8 0 13 0;
#X connect 11 0 10 0;
#X connect 12 0 8 1;
#X connect 13 0 15 0;
#X connect 13 1 10 1;
#X connect 14 0 15 1;
#X connect 15 0 17 0;
#X connect 16 0 6 0;
#X connect 16 1 14 0;
#X connect 16 1 17 1;
#X connect 16 2 4 0;
#X connect 17 0 18 0;
#X connect 18 0 11 0;
#X restore 300 219 pd generate_burst;
#X obj 297 242 table \$0.burst;
#X obj 33 542 dac~ 1 2;
#X obj 5 8 declare -stdpath iemnet -path include;
#X msg 53 411 0 485;
#N canvas 779 415 447 287 switched_loop 0;
#X obj 39 55 switch~ 485 1 1;
#X obj 12 35 t a b;
#X obj 12 88 list prepend 0;
#X obj 219 42 tabreceive~ \$0.in.buffer;
#X obj 219 173 tabsend~ \$0.out.buffer;
#X obj 12 12 inlet;
#X obj 12 110 tabwrite16 \$0.in.buffer;
#X obj 237 125 *~ 0.5;
#X obj 235 75 rzero_rev~ 0;
#X obj 237 105 +~;
#X connect 1 0 2 0;
#X connect 1 1 0 0;
#X connect 2 0 6 0;
#X connect 3 0 8 0;
#X connect 3 0 4 0;
#X connect 5 0 1 0;
#X connect 8 0 9 1;
#X connect 9 0 7 0;
#X restore 73 391 pd switched_loop;
#X obj 287 319 table \$0.out.buffer 485;
#X obj 287 301 table \$0.in.buffer 485;
#X obj 34 299 r \$0.from.udp;
#X obj 53 434 tabdump16 \$0.out.buffer;
#X msg 300 122 0 485;
#X obj 300 145 tabdump16 \$0.burst;
#X obj 300 168 s \$0.to.udp;
#X obj 53 456 s \$0.to.udp;
#X obj 34 481 tabplay~ \$0.in.buffer;
#X obj 34 368 t b b a;
#X obj 300 49 bng 15 250 50 0 empty empty empty 17 7 0 10 -261234 -1
-1;
#X text 325 49 trigger;
#X obj 347 435 r \$0.from.udp;
#X obj 490 24 loadbang;
#X msg 490 44 \; pd dsp 1;
#X obj 347 455 t b b;
#X obj 347 475 timer;
#X floatatom 347 495 10 0 0 0 - - -, f 10;
#X msg 347 512 1000 \$1;
#X obj 347 532 /;
#X floatatom 347 552 10 0 0 0 - - -, f 10;
#X text 409 552 Hz;
#X text 410 495 ms;
#N canvas 0 43 450 300 stop 0;
#X obj 23 23 inlet;
#X obj 23 206 outlet;
#X obj 134 27 inlet;
#X obj 23 80 list prepend 0;
#X msg 134 47 1;
#X obj 23 100 route 0 1;
#X msg 134 90 0;
#X connect 0 0 3 0;
#X connect 2 0 4 0;
#X connect 3 0 5 0;
#X connect 4 0 3 1;
#X connect 5 0 1 0;
#X connect 5 1 6 0;
#X connect 6 0 3 1;
#X restore 34 334 pd stop;
#X msg 82 120 connect telematic.zhdk.ch 4469;
#X obj 300 69 t b b;
#X obj 96 334 bng 15 250 50 0 empty empty empty 17 7 0 10 -191407 -1
-1;
#X text 117 334 stop;
#X connect 0 0 1 0;
#X connect 1 0 2 0;
#X connect 2 0 38 0;
#X connect 2 1 3 0;
#X connect 3 0 4 0;
#X connect 4 0 6 0;
#X connect 4 2 7 0;
#X connect 5 0 4 0;
#X connect 12 0 17 0;
#X connect 16 0 37 0;
#X connect 17 0 21 0;
#X connect 18 0 19 0;
#X connect 19 0 20 0;
#X connect 22 0 10 0;
#X connect 22 0 10 1;
#X connect 23 0 22 0;
#X connect 23 1 12 0;
#X connect 23 2 13 0;
#X connect 24 0 39 0;
#X connect 26 0 29 0;
#X connect 27 0 28 0;
#X connect 29 0 30 0;
#X connect 29 1 30 1;
#X connect 30 0 31 0;
#X connect 31 0 32 0;
#X connect 32 0 33 0;
#X connect 33 0 34 0;
#X connect 37 0 23 0;
#X connect 38 0 4 0;
#X connect 39 0 18 0;
#X connect 40 0 37 1;
