#N canvas 160 186 714 787 10;
#X declare -stdpath iemnet;
#X obj 5 8 declare -stdpath iemnet;
#X obj 102 53 loadbang;
#X obj 102 80 tgl 15 0 empty empty empty 17 7 0 10 -204786 -1 -1 0
1;
#X obj 102 105 sel 1 0;
#X msg 120 154 disconnect;
#X obj 175 252 tgl 15 0 empty empty empty 17 7 0 10 -262144 -1 -1 0
1;
#N canvas 472 850 352 265 generate_burst 0;
#X obj 18 74 noise~;
#X obj 18 42 switch~ 256;
#X obj 19 216 tabsend~ burst;
#X obj 18 15 inlet;
#X obj 18 116 +~ 1;
#X obj 18 142 *~ 128;
#X obj 34 170 wrap~;
#X obj 18 193 -~;
#X msg 178 145 cosinesum 256 0.5 -0.5;
#X obj 177 201 table cosine 256;
#X obj 178 168 s cosine;
#X obj 178 122 loadbang;
#X obj 18 94 *~;
#X obj 68 77 tabreceive~ cosine;
#X connect 0 0 12 0;
#X connect 3 0 1 0;
#X connect 4 0 5 0;
#X connect 5 0 7 0;
#X connect 5 0 6 0;
#X connect 6 0 7 1;
#X connect 7 0 2 0;
#X connect 8 0 10 0;
#X connect 11 0 8 0;
#X connect 12 0 4 0;
#X connect 13 0 12 1;
#X restore 384 75 pd generate_burst;
#X obj 611 60 table burst 256;
#X obj 357 135 array get burst;
#X obj 357 32 bng 15 250 50 0 empty empty empty 17 7 0 10 -261682 -1
-1;
#X text 373 33 ZUPF;
#X obj 586 242 table received 256;
#X obj 328 253 list prepend 0;
#X obj 367 294 s received;
#X obj 322 405 dac~;
#X obj 586 266 table playback 256;
#X obj 328 366 tabplay~ playback;
#X obj 328 273 t b b a;
#X obj 587 288 table send 256;
#X obj 211 325 spigot 0;
#X obj 256 255 tgl 15 0 empty empty empty 17 7 0 10 -261234 -1 -1 1
1;
#X obj 545 132 array sum burst;
#X obj 549 110 bng 15 250 50 0 empty empty empty 17 7 0 10 -262144
-1 -1;
#X floatatom 544 189 5 0 0 0 - - -, f 5;
#X obj 545 152 / 256;
#X obj 357 52 t b b;
#N canvas 355 475 450 405 damper 0;
#X obj 11 7 inlet;
#X obj 38 47 switch~ 256;
#X obj 247 18 tabreceive~ received;
#X obj 246 42 *~ 0.0078125;
#X obj 246 66 -~ 1;
#X obj 321 244 tabsend~ playback;
#X obj 248 178 +~;
#X obj 248 240 +~ 1;
#X obj 248 268 *~ 128;
#X obj 264 296 wrap~;
#X obj 248 319 -~;
#X obj 249 348 tabsend~ send;
#X obj 11 27 t b b;
#X obj 11 79 array get send;
#X obj 11 102 outlet;
#X obj 248 202 hip~ 5;
#X obj 246 102 *~ 0.1;
#X obj 247 149 *~ 9;
#X obj 281 148 lop~ 2000;
#X connect 0 0 12 0;
#X connect 2 0 3 0;
#X connect 3 0 4 0;
#X connect 4 0 16 0;
#X connect 6 0 15 0;
#X connect 7 0 8 0;
#X connect 8 0 10 0;
#X connect 8 0 9 0;
#X connect 9 0 10 1;
#X connect 10 0 11 0;
#X connect 12 0 13 0;
#X connect 12 1 1 0;
#X connect 13 0 14 0;
#X connect 15 0 5 0;
#X connect 15 0 7 0;
#X connect 16 0 17 0;
#X connect 16 0 18 0;
#X connect 17 0 6 0;
#X connect 18 0 6 1;
#X restore 347 324 pd damper;
#X msg 102 131 connect telematic.zhdk.ch 4470;
#X obj 70 339 bng 15 250 50 0 empty empty empty 17 7 0 10 -262144 -1
-1;
#X obj 121 395 timer;
#X obj 118 354 t b b;
#X obj 121 436 samplerate~;
#X obj 121 415 t b a;
#X obj 120 477 *;
#X obj 121 456 * 0.001;
#N canvas 0 43 450 300 reblocked 0;
#X obj 78 125 udpclient;
#X obj 78 93 inlet;
#X obj 78 175 outlet;
#X obj 200 178 outlet;
#X obj 130 180 outlet;
#X obj 257 178 outlet;
#X obj 31 18 block~ 16 1 1;
#X connect 0 0 2 0;
#X connect 0 1 4 0;
#X connect 0 2 3 0;
#X connect 0 3 5 0;
#X connect 1 0 0 0;
#X restore 88 199 pd reblocked udpclient;
#X obj 121 535 int;
#X obj 478 474 / 2;
#X obj 515 476 / 2;
#X obj 512 503 int;
#X obj 477 522 sel;
#X obj 474 565 f;
#X obj 494 543 b;
#X obj 518 568 f;
#X obj 486 417 t a a a;
#X floatatom 449 630 5 0 0 0 - - -, f 5;
#X floatatom 548 637 5 0 0 0 - - -, f 5;
#X obj 547 658 print;
#X obj 125 502 / 64;
#X connect 1 0 2 0;
#X connect 2 0 3 0;
#X connect 3 0 27 0;
#X connect 3 1 4 0;
#X connect 4 0 35 0;
#X connect 8 0 35 0;
#X connect 9 0 25 0;
#X connect 12 0 17 0;
#X connect 16 0 14 0;
#X connect 16 0 14 1;
#X connect 17 0 16 0;
#X connect 17 1 26 0;
#X connect 17 2 13 0;
#X connect 19 0 35 0;
#X connect 20 0 19 1;
#X connect 21 0 24 0;
#X connect 22 0 21 0;
#X connect 24 0 23 0;
#X connect 25 0 8 0;
#X connect 25 1 6 0;
#X connect 26 0 19 0;
#X connect 27 0 35 0;
#X connect 29 0 32 0;
#X connect 30 0 29 0;
#X connect 30 1 29 1;
#X connect 31 0 34 0;
#X connect 32 0 31 0;
#X connect 32 1 33 1;
#X connect 33 0 48 0;
#X connect 34 0 33 0;
#X connect 35 0 28 0;
#X connect 35 0 30 0;
#X connect 35 0 12 0;
#X connect 35 2 5 0;
#X connect 36 0 44 0;
#X connect 37 0 40 0;
#X connect 38 0 39 0;
#X connect 39 0 40 1;
#X connect 40 0 41 0;
#X connect 40 1 42 0;
#X connect 41 0 45 0;
#X connect 42 0 43 0;
#X connect 43 0 46 0;
#X connect 44 0 37 0;
#X connect 44 1 38 0;
#X connect 44 2 43 1;
#X connect 44 2 41 1;
#X connect 46 0 47 0;
#X connect 48 0 36 0;
