#N canvas 757 289 928 791 10;
#X declare -path iemnet -path osc;
#X obj 18 8 tgl 15 0 empty empty empty 17 7 0 10 -262144 -1 -1 1 1
;
#X obj 18 85 tgl 15 0 empty empty empty 17 7 0 10 -262144 -1 -1 1 1
;
#X obj 330 14 declare -path iemnet -path osc;
#X obj 24 226 r \$0.from;
#X obj 24 273 print ARDOUR_MONITOR;
#X msg 634 21 517;
#X text 662 20 audio tracks \, audio busses \, hidden tracks;
#X msg 635 48 1541;
#X text 666 48 same as above \, plus 'use groups';
#X obj 24 249 spigot 0;
#X obj 97 251 tgl 15 0 empty empty empty 17 7 0 10 -262144 -1 -1 1
1;
#X text 334 64 <ssid> <hide> <name> <group_name>;
#X text 333 47 format:;
#X obj 335 87 text define \$0.strips;
#N canvas 406 237 872 592 INIT 1;
#X obj 23 220 udpclient;
#X obj 23 170 r \$0.to;
#X obj 23 325 s \$0.from;
#X obj 23 195 packOSC;
#X obj 85 171 r \$0.connection;
#X msg 39 102 connect localhost 3819;
#X msg 20 74 disconnect;
#X obj 20 128 s \$0.connection;
#X obj 20 48 sel 0 1;
#X obj 57 244 s \$0.connected;
#X obj 20 23 inlet;
#X obj 23 408 outlet;
#X obj 23 303 unpackOSC;
#X obj 23 275 route 37;
#X obj 262 205 s \$0.to;
#X obj 262 230 r \$0.from;
#X msg 262 177 /strip/list;
#X obj 262 259 spigot;
#X msg 333 224 1;
#X obj 262 141 t b b;
#X msg 364 228 0;
#X obj 262 36 r \$0.connected;
#X obj 603 183 r \$0.connected;
#X obj 603 206 sel 0;
#X obj 262 82 t b b, f 9;
#X obj 262 110 del 500;
#X obj 262 59 sel 1 0, f 10;
#X msg 340 87 stop;
#X msg 603 296 0;
#X obj 603 319 s \$0.ready;
#X obj 23 385 r \$0.ready;
#X obj 379 442 text set \$0.strips;
#X obj 379 383 t a b;
#X msg 414 412 1e+15;
#X msg 630 255 -1;
#X obj 630 278 text delete \$0.strips;
#X obj 603 232 t b b;
#X obj 313 146 s \$0.to;
#X msg 313 121 /set_surface/strip_types 519 \, /set_surface/feedback
16384;
#X obj 262 284 routeOSC /reply, f 33;
#X obj 262 308 route end_route_list;
#X obj 379 332 list;
#X msg 379 357 list \$7 \$2 0;
#X obj 262 331 t b b;
#X msg 262 354 1;
#X obj 262 377 s \$0.ready;
#X obj 538 482 print;
#X connect 0 0 13 0;
#X connect 0 2 9 0;
#X connect 1 0 3 0;
#X connect 3 0 0 0;
#X connect 4 0 0 0;
#X connect 5 0 7 0;
#X connect 6 0 7 0;
#X connect 8 0 6 0;
#X connect 8 1 5 0;
#X connect 10 0 8 0;
#X connect 12 0 2 0;
#X connect 13 1 12 0;
#X connect 15 0 17 0;
#X connect 16 0 14 0;
#X connect 17 0 39 0;
#X connect 18 0 17 1;
#X connect 19 0 16 0;
#X connect 19 1 18 0;
#X connect 20 0 17 1;
#X connect 21 0 26 0;
#X connect 22 0 23 0;
#X connect 23 0 36 0;
#X connect 24 0 25 0;
#X connect 24 1 38 0;
#X connect 25 0 19 0;
#X connect 26 0 24 0;
#X connect 26 1 27 0;
#X connect 27 0 25 0;
#X connect 28 0 29 0;
#X connect 30 0 11 0;
#X connect 32 0 31 0;
#X connect 32 1 33 0;
#X connect 33 0 31 1;
#X connect 34 0 35 0;
#X connect 36 0 28 0;
#X connect 36 1 34 0;
#X connect 38 0 37 0;
#X connect 39 0 40 0;
#X connect 40 0 43 0;
#X connect 40 1 41 0;
#X connect 41 0 42 0;
#X connect 42 0 32 0;
#X connect 43 0 44 0;
#X connect 43 1 20 0;
#X connect 44 0 45 0;
#X restore 18 48 pd INIT;
#X floatatom 278 188 5 0 0 0 - - -;
#X text 317 189 num of send channels;
#X msg 278 402 /strip/hide \$1 \$2;
#X obj 278 427 s \$0.to;
#X obj 598 222 r \$0.from;
#X obj 602 247 routeOSC /strip/hide;
#X obj 724 372 text search \$0.strips;
#X msg 724 347 \$1;
#X obj 724 395 route -1;
#X obj 724 444 text get \$0.strips;
#X msg 724 420 \$1 1 1;
#X msg 697 348 \$2;
#X obj 697 323 t a a;
#X obj 697 520 text set \$0.strips;
#X obj 724 467 t a b;
#X msg 765 495 1;
#X msg 796 258 1 1;
#X obj 713 352 print GAGGI;
#X obj 558 649 s \$0.to;
#X msg 569 576 1 \, 2 \, 3 \, 4 \, 5 \, 6 \, 7 \, 8;
#X msg 558 626 /strip/hide 1 \$1;
#X obj 508 590 tgl 15 0 empty empty empty 17 7 0 10 -262144 -1 -1 0
1;
#X obj 61 140 s \$0.to;
#X msg 59 112 /strip/list;
#X obj 240 41 tgl 15 0 empty empty empty 17 7 0 10 -262144 -1 -1 0
1;
#X msg 213 72 /strip/hide 1 \$1;
#X obj 249 139 s \$0.to;
#X msg 130 120 /surface/list;
#X msg 130 155 /set_surface;
#X msg 254 114 /set_surface/strip_types 519 \, /set_surface/feedback
16384;
#X obj 92 429 s \$0.to;
#X msg 92 405 /strip/list;
#X obj 147 518 t a a;
#N canvas 0 106 450 435 iterate.group 0;
#X msg 103 152 8;
#X obj 103 175 until;
#X obj 103 198 f;
#X obj 103 221 t a a;
#X obj 161 209 + 1;
#X obj 103 122 t b b a;
#X obj 103 244 t a a;
#X obj 103 343 pack f f;
#X obj 130 319 >;
#X obj 103 31 inlet;
#X obj 103 366 outlet;
#X obj 103 57 t a a;
#X msg 103 80 \$2;
#X obj 202 113 * 8;
#X obj 202 161 + 1;
#X msg 202 87 \$1;
#X obj 130 272 -;
#X obj 202 137 t a a;
#X connect 0 0 1 0;
#X connect 1 0 2 0;
#X connect 2 0 3 0;
#X connect 3 0 6 0;
#X connect 3 1 4 0;
#X connect 4 0 2 1;
#X connect 5 0 0 0;
#X connect 5 2 8 1;
#X connect 6 0 7 0;
#X connect 6 1 16 0;
#X connect 7 0 10 0;
#X connect 8 0 7 1;
#X connect 9 0 11 0;
#X connect 11 0 12 0;
#X connect 11 1 15 0;
#X connect 12 0 5 0;
#X connect 13 0 17 0;
#X connect 14 0 2 1;
#X connect 15 0 13 0;
#X connect 16 0 8 0;
#X connect 17 0 14 0;
#X connect 17 1 16 1;
#X restore 278 292 pd iterate.group;
#N canvas 0 139 372 364 filter.changes 0;
#X obj 26 109 text search \$0.strips;
#X msg 26 84 \$1;
#X obj 26 132 route -1;
#X obj 28 180 text get \$0.strips;
#X obj 26 53 t a a a, f 12;
#X msg 60 84 \$2;
#X obj 28 205 ==;
#X obj 28 228 sel 0;
#X obj 28 252 list append;
#X msg 28 156 \$1 2 1;
#X obj 26 18 inlet;
#X obj 28 275 outlet;
#X connect 0 0 2 0;
#X connect 1 0 0 0;
#X connect 2 1 9 0;
#X connect 3 0 6 0;
#X connect 4 0 1 0;
#X connect 4 1 5 0;
#X connect 4 2 8 1;
#X connect 5 0 6 1;
#X connect 6 0 7 0;
#X connect 7 0 8 0;
#X connect 8 0 11 0;
#X connect 9 0 3 0;
#X connect 10 0 4 0;
#X restore 278 320 pd filter.changes;
#X obj 278 343 t a a;
#N canvas 0 238 372 364 apply.changes 0;
#X obj 26 109 text search \$0.strips;
#X obj 26 132 route -1;
#X obj 26 18 inlet;
#X obj 26 53 unpack f f, f 12;
#X obj 32 244 text set \$0.strips;
#X obj 32 168 list prepend;
#X msg 32 195 \$1 \$2 2;
#X obj 32 218 unpack f f f;
#X connect 0 0 1 0;
#X connect 1 1 5 0;
#X connect 2 0 3 0;
#X connect 3 0 0 0;
#X connect 3 1 5 1;
#X connect 5 0 6 0;
#X connect 6 0 7 0;
#X connect 7 0 4 0;
#X connect 7 1 4 1;
#X connect 7 2 4 2;
#X restore 305 371 pd apply.changes;
#X obj 278 262 list prepend;
#X floatatom 347 230 5 0 0 0 - - -;
#X connect 0 0 14 0;
#X connect 3 0 9 0;
#X connect 9 0 4 0;
#X connect 10 0 9 1;
#X connect 14 0 1 0;
#X connect 15 0 52 0;
#X connect 17 0 18 0;
#X connect 19 0 20 0;
#X connect 21 0 23 0;
#X connect 22 0 21 0;
#X connect 23 1 25 0;
#X connect 24 0 29 0;
#X connect 25 0 24 0;
#X connect 26 0 28 0;
#X connect 27 0 26 0;
#X connect 27 1 22 0;
#X connect 29 0 28 1;
#X connect 29 1 30 0;
#X connect 30 0 28 2;
#X connect 35 0 33 0;
#X connect 36 0 35 0;
#X connect 38 0 37 0;
#X connect 39 0 40 0;
#X connect 40 0 37 0;
#X connect 42 0 37 0;
#X connect 43 0 37 0;
#X connect 44 0 41 0;
#X connect 46 0 45 0;
#X connect 48 0 49 0;
#X connect 49 0 50 0;
#X connect 50 0 17 0;
#X connect 50 1 51 0;
#X connect 52 0 48 0;
#X connect 53 0 52 1;
