#N canvas 1214 26 942 695 10;
#X declare -path osc;
#X obj 18 8 tgl 15 0 empty empty empty 17 7 0 10 #fcfcfc #000000 #000000
0 1;
#X obj 18 85 tgl 15 0 empty empty empty 17 7 0 10 #fcfcfc #000000 #000000
0 1;
#X obj 24 226 r \$0.from;
#X obj 24 273 print ARDOUR_MONITOR;
#X msg 634 21 517;
#X text 662 20 audio tracks \, audio busses \, hidden tracks;
#X msg 635 48 1541;
#X text 666 48 same as above \, plus 'use groups';
#X obj 24 249 spigot 0;
#X obj 97 251 tgl 15 0 empty empty empty 17 7 0 10 #fcfcfc #000000
#000000 0 1;
#X text 333 47 format:;
#X obj 335 87 text define \$0.strips;
#N canvas 406 237 1007 1070 INIT 1;
#X obj 23 170 r \$0.to;
#X obj 23 325 s \$0.from;
#X obj 85 171 r \$0.connection;
#X msg 39 102 connect localhost 3819;
#X msg 20 74 disconnect;
#X obj 20 128 s \$0.connection;
#X obj 20 48 sel 0 1;
#X obj 23 249 s \$0.connected;
#X obj 20 23 inlet;
#X obj 23 408 outlet;
#X obj 23 303 unpackOSC;
#X obj 262 230 r \$0.from;
#X obj 262 36 r \$0.connected;
#X obj 603 183 r \$0.connected;
#X obj 603 206 sel 0;
#X msg 603 296 0;
#X obj 603 319 s \$0.ready;
#X obj 23 385 r \$0.ready;
#X msg 630 255 -1;
#X obj 630 278 text delete \$0.strips;
#X obj 603 232 t b b;
#X obj 262 109 s \$0.to;
#X obj 23 220 netsend -u -b;
#X obj 23 195 packOSC;
#X obj 262 59 sel 1;
#X obj 262 272 routeOSC /strip;
#X msg 262 83 /set_surface/strip_types 513 \, /set_surface/feedback
1;
#X obj 262 303 route /hide /group /name;
#X obj 23 275 route 35;
#X msg 408 331 \$1 name \$2;
#X msg 333 331 \$1 group \$2;
#X msg 262 331 \$1 hide \$2;
#X obj 262 379 t a;
#X obj 300 501 t a a, f 25;
#X msg 388 385 2 group YEAH;
#X obj 801 352 t a a;
#X obj 835 448 list trim;
#X obj 835 471 route group name hide;
#X obj 801 422 list split 1;
#X obj 786 546 pack f s s f;
#X obj 786 520 f;
#X msg 942 418 \$1;
#X obj 942 442 sel -1;
#X obj 993 444 t a b;
#X obj 809 632 print;
#X obj 867 501 symbol;
#X obj 817 502 symbol;
#N canvas 872 739 449 447 stub 0;
#X obj 213 219 pack f s s 34;
#X msg 265 191 list 0 <unset> <unset> 0;
#X obj 186 101 t b a;
#X obj 186 258 list append;
#X obj 238 89 t a b;
#X obj 238 112 list trim;
#X obj 238 135 route group name hide;
#X obj 186 61 list split 1;
#X obj 238 161 symbol;
#X obj 284 161 symbol;
#X obj 25 394 text set \$0.strips;
#X obj 25 282 list append;
#X obj 25 308 t a a;
#X msg 52 332 \$1;
#X obj 25 8 inlet;
#X obj 25 32 t a a, f 25;
#X msg 25 55 \$1;
#X obj 25 102 sel -1;
#X obj 25 79 text search \$0.strips 0;
#X obj 52 358 - 1;
#X connect 0 0 3 1;
#X connect 1 0 0 0;
#X connect 2 0 3 0;
#X connect 2 1 0 0;
#X connect 3 0 11 1;
#X connect 4 0 5 0;
#X connect 4 1 1 0;
#X connect 5 0 6 0;
#X connect 6 0 8 0;
#X connect 6 1 9 0;
#X connect 6 2 0 3;
#X connect 7 0 2 0;
#X connect 7 1 4 0;
#X connect 8 0 0 1;
#X connect 9 0 0 2;
#X connect 11 0 12 0;
#X connect 12 0 10 0;
#X connect 12 1 13 0;
#X connect 13 0 19 0;
#X connect 14 0 15 0;
#X connect 15 0 16 0;
#X connect 15 1 7 0;
#X connect 16 0 18 0;
#X connect 17 0 11 0;
#X connect 18 0 17 0;
#X connect 19 0 10 1;
#X restore 300 534 pd stub;
#N canvas 1022 409 542 507 update 0;
#X obj 44 26 inlet;
#X obj 141 178 list split 1;
#X obj 175 203 list trim;
#X obj 175 226 route group name hide;
#X obj 239 111 text search \$0.strips 0;
#X obj 239 141 sel -1;
#X obj 44 56 t b a a, f 33;
#X obj 44 168 sel -1;
#X obj 44 142 f;
#X obj 272 165 text get \$0.strips;
#X obj 272 192 unpack f s s f;
#X obj 152 276 pack f s s f;
#X obj 165 418 text delete \$0.strips;
#X obj 77 321 list append;
#X obj 138 395 t a a;
#X obj 77 444 text insert \$0.strips;
#X obj 175 250 symbol;
#X obj 220 249 symbol;
#X msg 239 82 \$1;
#X obj 77 213 t b b a;
#X obj 77 346 t a b;
#X obj 138 371 f;
#X connect 0 0 6 0;
#X connect 1 1 2 0;
#X connect 2 0 3 0;
#X connect 3 0 16 0;
#X connect 3 1 17 0;
#X connect 3 2 11 3;
#X connect 4 0 8 1;
#X connect 4 0 5 0;
#X connect 5 1 9 0;
#X connect 6 0 8 0;
#X connect 6 1 1 0;
#X connect 6 2 18 0;
#X connect 7 1 19 0;
#X connect 8 0 7 0;
#X connect 9 0 10 0;
#X connect 10 0 11 0;
#X connect 10 1 11 1;
#X connect 10 2 11 2;
#X connect 10 3 11 3;
#X connect 11 0 13 1;
#X connect 13 0 20 0;
#X connect 14 0 15 1;
#X connect 14 1 12 0;
#X connect 16 0 11 1;
#X connect 17 0 11 2;
#X connect 18 0 4 0;
#X connect 19 0 13 0;
#X connect 19 1 11 0;
#X connect 19 2 21 1;
#X connect 20 0 15 0;
#X connect 20 1 21 0;
#X connect 21 0 14 0;
#X restore 447 539 pd update;
#X msg 353 439 16 name AAAAA;
#X connect 0 0 23 0;
#X connect 2 0 22 0;
#X connect 3 0 5 0;
#X connect 4 0 5 0;
#X connect 6 0 4 0;
#X connect 6 1 3 0;
#X connect 8 0 6 0;
#X connect 10 0 1 0;
#X connect 11 0 25 0;
#X connect 12 0 24 0;
#X connect 13 0 14 0;
#X connect 14 0 20 0;
#X connect 15 0 16 0;
#X connect 17 0 9 0;
#X connect 18 0 19 0;
#X connect 20 0 15 0;
#X connect 20 1 18 0;
#X connect 22 0 7 0;
#X connect 22 1 28 0;
#X connect 23 0 22 0;
#X connect 24 0 26 0;
#X connect 25 0 27 0;
#X connect 26 0 21 0;
#X connect 27 0 31 0;
#X connect 27 1 30 0;
#X connect 27 2 29 0;
#X connect 28 1 10 0;
#X connect 29 0 32 0;
#X connect 30 0 32 0;
#X connect 31 0 32 0;
#X connect 32 0 33 0;
#X connect 33 0 47 0;
#X connect 33 1 48 0;
#X connect 34 0 32 0;
#X connect 35 0 38 0;
#X connect 35 1 41 0;
#X connect 36 0 37 0;
#X connect 37 0 46 0;
#X connect 37 1 45 0;
#X connect 37 2 39 3;
#X connect 38 0 40 1;
#X connect 38 1 36 0;
#X connect 39 0 44 0;
#X connect 40 0 39 0;
#X connect 41 0 42 0;
#X connect 42 1 43 0;
#X connect 43 0 42 1;
#X connect 43 1 40 0;
#X connect 45 0 39 2;
#X connect 46 0 39 1;
#X connect 49 0 33 0;
#X restore 18 48 pd INIT;
#X floatatom 278 188 5 0 0 0 - - - 0;
#X text 317 189 num of send channels;
#X msg 278 402 /strip/hide \$1 \$2;
#X obj 278 427 s \$0.to;
#X obj 551 188 r \$0.from;
#X obj 555 213 routeOSC /strip/hide;
#X obj 752 221 text search \$0.strips;
#X msg 752 196 \$1;
#X obj 752 244 route -1;
#X obj 752 293 text get \$0.strips;
#X msg 752 269 \$1 1 1;
#X msg 725 197 \$2;
#X obj 725 172 t a a;
#X obj 725 369 text set \$0.strips;
#X obj 752 316 t a b;
#X msg 793 344 1;
#X msg 825 146 1 1, f 7;
#X obj 741 201 print GAGGI;
#X obj 481 394 s \$0.to;
#X msg 492 321 1 \, 2 \, 3 \, 4 \, 5 \, 6 \, 7 \, 8;
#X msg 481 371 /strip/hide 1 \$1;
#X obj 431 335 tgl 15 0 empty empty empty 17 7 0 10 #fcfcfc #000000
#000000 0 1;
#X obj 61 140 s \$0.to;
#X msg 59 112 /strip/list;
#X obj 240 41 tgl 15 0 empty empty empty 17 7 0 10 #fcfcfc #000000
#000000 0 1;
#X msg 213 72 /strip/hide 1 \$1;
#X obj 249 139 s \$0.to;
#X msg 130 120 /surface/list;
#X msg 130 155 /set_surface;
#X msg 254 114 /set_surface/strip_types 519 \, /set_surface/feedback
16384;
#X obj 92 429 s \$0.to;
#X msg 92 405 /strip/list;
#N canvas 0 106 450 435 iterate.group 0;
#X msg 103 152 8;
#X obj 103 175 until;
#X obj 103 198 f;
#X obj 103 221 t a a;
#X obj 161 209 + 1;
#X obj 103 122 t b b a;
#X obj 103 244 t a a;
#X obj 103 343 pack f f;
#X obj 130 319 >;
#X obj 103 31 inlet;
#X obj 103 366 outlet;
#X obj 103 57 t a a;
#X msg 103 80 \$2;
#X obj 202 113 * 8;
#X obj 202 161 + 1;
#X msg 202 87 \$1;
#X obj 130 272 -;
#X obj 202 137 t a a;
#X connect 0 0 1 0;
#X connect 1 0 2 0;
#X connect 2 0 3 0;
#X connect 3 0 6 0;
#X connect 3 1 4 0;
#X connect 4 0 2 1;
#X connect 5 0 0 0;
#X connect 5 2 8 1;
#X connect 6 0 7 0;
#X connect 6 1 16 0;
#X connect 7 0 10 0;
#X connect 8 0 7 1;
#X connect 9 0 11 0;
#X connect 11 0 12 0;
#X connect 11 1 15 0;
#X connect 12 0 5 0;
#X connect 13 0 17 0;
#X connect 14 0 2 1;
#X connect 15 0 13 0;
#X connect 16 0 8 0;
#X connect 17 0 14 0;
#X connect 17 1 16 1;
#X restore 278 292 pd iterate.group;
#N canvas 0 139 372 364 filter.changes 0;
#X obj 26 109 text search \$0.strips;
#X msg 26 84 \$1;
#X obj 26 132 route -1;
#X obj 28 180 text get \$0.strips;
#X obj 26 53 t a a a, f 12;
#X msg 60 84 \$2;
#X obj 28 205 ==;
#X obj 28 228 sel 0;
#X obj 28 252 list append;
#X msg 28 156 \$1 2 1;
#X obj 26 18 inlet;
#X obj 28 275 outlet;
#X connect 0 0 2 0;
#X connect 1 0 0 0;
#X connect 2 1 9 0;
#X connect 3 0 6 0;
#X connect 4 0 1 0;
#X connect 4 1 5 0;
#X connect 4 2 8 1;
#X connect 5 0 6 1;
#X connect 6 0 7 0;
#X connect 7 0 8 0;
#X connect 8 0 11 0;
#X connect 9 0 3 0;
#X connect 10 0 4 0;
#X restore 278 320 pd filter.changes;
#X obj 278 343 t a a;
#N canvas 0 238 372 364 apply.changes 0;
#X obj 26 109 text search \$0.strips;
#X obj 26 132 route -1;
#X obj 26 18 inlet;
#X obj 26 53 unpack f f, f 12;
#X obj 32 244 text set \$0.strips;
#X obj 32 168 list prepend;
#X msg 32 195 \$1 \$2 2;
#X obj 32 218 unpack f f f;
#X connect 0 0 1 0;
#X connect 1 1 5 0;
#X connect 2 0 3 0;
#X connect 3 0 0 0;
#X connect 3 1 5 1;
#X connect 5 0 6 0;
#X connect 6 0 7 0;
#X connect 7 0 4 0;
#X connect 7 1 4 1;
#X connect 7 2 4 2;
#X restore 305 371 pd apply.changes;
#X obj 278 262 list prepend;
#X floatatom 347 230 5 0 0 0 - - - 0;
#X obj 330 14 declare -path osc;
#X text 334 64 <ssid> <group> <name> <hide>;
#X connect 0 0 12 0;
#X connect 2 0 8 0;
#X connect 8 0 3 0;
#X connect 9 0 8 1;
#X connect 12 0 1 0;
#X connect 13 0 49 0;
#X connect 15 0 16 0;
#X connect 17 0 18 0;
#X connect 19 0 21 0;
#X connect 20 0 19 0;
#X connect 21 1 23 0;
#X connect 22 0 27 0;
#X connect 23 0 22 0;
#X connect 24 0 26 0;
#X connect 25 0 24 0;
#X connect 25 1 20 0;
#X connect 27 0 26 1;
#X connect 27 1 28 0;
#X connect 28 0 26 2;
#X connect 33 0 31 0;
#X connect 34 0 33 0;
#X connect 36 0 35 0;
#X connect 37 0 38 0;
#X connect 38 0 35 0;
#X connect 40 0 35 0;
#X connect 41 0 35 0;
#X connect 42 0 39 0;
#X connect 44 0 43 0;
#X connect 45 0 46 0;
#X connect 46 0 47 0;
#X connect 47 0 15 0;
#X connect 47 1 48 0;
#X connect 49 0 45 0;
#X connect 50 0 49 1;
