#N canvas 234 106 876 583 10;
#X declare -path ggee;
#X obj 250 25 text define \$0.jack.connections;
#X obj 15 14 declare -path ggee;
#X obj 535 138 shell;
#X obj 357 97 netreceive -u 9000;
#X obj 357 120 print HOLE_LIST;
#X msg 535 112 jack_lsp;
#X obj 707 246 array;
#X obj 535 216 list fromsymbol;
#X obj 535 239 list split 6;
#X obj 535 299 list tosymbol;
#X obj 569 263 list split 1;
#X obj 640 301 list tosymbol;
#X obj 535 331 select ardour;
#X msg 535 354 symbol ardour;
#X obj 535 377 list append;
#X obj 535 400 print;
#X obj 535 186 list2symbol 32;
#X obj 535 161 list;
#X msg 53 96 8;
#X obj 53 142 until;
#X obj 53 165 f;
#X obj 53 188 t a a;
#X obj 98 174 + 1;
#X msg 95 142 0;
#X obj 53 118 t a b;
#X obj 43 452 shell;
#X msg 79 423 jack_connect \$1 \$1;
#X floatatom 238 235 5 0 0 0 - - -;
#X obj 215 356 list2symbol 32;
#X msg 215 329 list ardour:send \$1/audio_out 1;
#X obj 215 273 t a a;
#X msg 254 305 symbol tpf-client:input_\$1;
#X obj 215 385 pack s s;
#X msg 221 467 jack_connect tpf-client:output_1 tpf-client:input_1
;
#X connect 2 0 17 0;
#X connect 3 0 4 0;
#X connect 5 0 2 0;
#X connect 7 0 8 0;
#X connect 8 0 9 0;
#X connect 8 1 10 0;
#X connect 9 0 12 0;
#X connect 10 1 11 0;
#X connect 11 0 14 1;
#X connect 12 0 13 0;
#X connect 13 0 14 0;
#X connect 14 0 15 0;
#X connect 16 0 7 0;
#X connect 17 0 16 0;
#X connect 18 0 24 0;
#X connect 19 0 20 0;
#X connect 20 0 21 0;
#X connect 21 1 22 0;
#X connect 22 0 20 1;
#X connect 23 0 20 1;
#X connect 24 0 19 0;
#X connect 24 1 23 0;
#X connect 26 0 25 0;
#X connect 27 0 30 0;
#X connect 28 0 32 0;
#X connect 29 0 28 0;
#X connect 30 0 29 0;
#X connect 30 1 31 0;
#X connect 31 0 32 1;
#X connect 32 0 26 0;
#X connect 33 0 25 0;
