#N canvas 0 106 973 386 10;
#X declare -path iemnet -path osc -path slip -path include;
#X obj 39 38 cnv 24 311 24 empty empty PEERNODES 5 13 0 16 -228856
-1 0;
#N canvas 137 566 858 346 code 0;
#N canvas 956 106 664 577 communication 0;
#X obj 9 38 packOSC;
#X obj 9 17 r \$0.send;
#X obj 9 58 slipenc 16384;
#X obj 9 78 s \$0.to;
#X obj 9 157 tcpclient;
#X obj 9 133 r \$0.to;
#X obj 9 254 s \$0.from;
#X obj 9 299 r \$0.from;
#X obj 9 319 slipdec 16384;
#X obj 9 339 unpackOSC;
#X obj 9 365 s \$0.receive;
#X obj 141 123 s \$0.to;
#X msg 160 100 disconnect;
#X obj 141 17 r \$0.connect;
#X obj 141 37 sel 1 0;
#X obj 43 180 s \$0.connection.state;
#X obj 405 185 r \$0.receive;
#X msg 405 100 /s/server/socket;
#X obj 405 121 s \$0.send;
#X obj 405 205 routeOSC /s/server/socket;
#X obj 414 228 r \$0.connection.state;
#X obj 414 248 sel 0;
#X msg 414 268 0;
#X obj 405 293 s \$0.id;
#X obj 405 35 r \$0.connection.state;
#X obj 405 344 r \$0.to.tpf;
#X obj 405 364 list split 1;
#X obj 405 404 list append;
#X obj 405 444 s \$0.send;
#X obj 405 470 r \$0.receive;
#X obj 405 512 s \$0.from.tpf;
#X obj 405 424 list trim;
#X msg 405 384 symbol /s/tpf\$1;
#X obj 405 492 routeOSC /s/tpf;
#X obj 405 55 sel 1;
#X obj 405 75 del 100;
#X msg 141 79 connect \$1 3025;
#X obj 141 58 symbol;
#X obj 196 57 r \$0.host;
#N canvas 0 53 377 257 msgs 0;
#X obj 42 17 r \$0.connection.state;
#X obj 42 38 sel 1 0;
#X obj 118 53 r \$0.host;
#X obj 41 89 symbol;
#X obj 91 92 symbol;
#X obj 45 165 s \$0.info;
#X msg 40 124 connected to '\$1';
#X msg 152 124 disconnected from '\$1';
#X connect 0 0 1 0;
#X connect 1 0 3 0;
#X connect 1 1 4 0;
#X connect 2 0 3 1;
#X connect 2 0 4 1;
#X connect 3 0 6 0;
#X connect 4 0 7 0;
#X connect 6 0 5 0;
#X connect 7 0 5 0;
#X restore 21 419 pd msgs;
#N canvas 0 215 296 241 keep_alive 0;
#X obj 6 16 r \$0.connection.state;
#X obj 25 99 del 1000;
#X obj 6 39 sel 0 1;
#X msg 6 68 stop;
#X obj 6 128 metro 60000;
#X msg 6 151 /s/server/dummy;
#X obj 6 175 s \$0.send;
#X connect 0 0 2 0;
#X connect 1 0 4 0;
#X connect 2 0 3 0;
#X connect 2 1 1 0;
#X connect 3 0 1 0;
#X connect 3 0 4 0;
#X connect 4 0 5 0;
#X connect 5 0 6 0;
#X restore 132 221 pd keep_alive;
#X connect 0 0 2 0;
#X connect 1 0 0 0;
#X connect 2 0 3 0;
#X connect 4 0 6 0;
#X connect 4 2 15 0;
#X connect 5 0 4 0;
#X connect 7 0 8 0;
#X connect 8 0 9 0;
#X connect 9 0 10 0;
#X connect 12 0 11 0;
#X connect 13 0 14 0;
#X connect 14 0 37 0;
#X connect 14 1 12 0;
#X connect 16 0 19 0;
#X connect 17 0 18 0;
#X connect 19 0 23 0;
#X connect 20 0 21 0;
#X connect 21 0 22 0;
#X connect 22 0 23 0;
#X connect 24 0 34 0;
#X connect 25 0 26 0;
#X connect 26 0 32 0;
#X connect 26 1 27 1;
#X connect 27 0 31 0;
#X connect 29 0 33 0;
#X connect 31 0 28 0;
#X connect 32 0 27 0;
#X connect 33 0 30 0;
#X connect 34 0 35 0;
#X connect 35 0 17 0;
#X connect 36 0 11 0;
#X connect 37 0 36 0;
#X connect 38 0 37 1;
#X restore 8 41 pd communication;
#X obj 189 149 nbx 5 14 -1e+37 1e+37 0 0 \$0.bla \$0.id empty 0 -8
0 10 -262144 -1 -1 0 256;
#N canvas 328 387 314 294 tpf.initialization 0;
#X obj 17 10 r \$0.id;
#X obj 17 51 b;
#X obj 17 30 moses 1;
#N canvas 270 156 457 298 protocol/version 0;
#X obj 17 54 s \$0.to.tpf;
#X obj 17 74 r \$0.from.tpf;
#X obj 17 114 unpack f f;
#X obj 74 133 == 0;
#X obj 17 154 &&;
#X obj 17 175 sel 1;
#X msg 44 195 protocol version of server does not match;
#X obj 44 215 s \$0.error;
#X msg 17 33 /protocol/version;
#X obj 17 94 routeOSC /protocol/version;
#X obj 17 11 inlet;
#X obj 17 255 outlet;
#X text 69 254 bang when OK;
#X obj 216 262 print DEBUG;
#X obj 17 134 == 2;
#X connect 1 0 9 0;
#X connect 2 0 14 0;
#X connect 2 1 3 0;
#X connect 3 0 4 1;
#X connect 4 0 5 0;
#X connect 5 0 11 0;
#X connect 5 1 6 0;
#X connect 6 0 7 0;
#X connect 8 0 0 0;
#X connect 9 0 2 0;
#X connect 10 0 8 0;
#X connect 14 0 4 0;
#X restore 17 94 pd protocol/version;
#X obj 17 207 s \$0.registered;
#X obj 174 135 r \$0.name;
#X obj 141 205 s \$0.info;
#X obj 17 140 t b b;
#X obj 141 164 symbol;
#X msg 141 184 registered name '\$1';
#N canvas 20 106 450 300 register/client 0;
#X obj 109 31 r \$0.name;
#X obj 108 52 list;
#X obj 23 12 inlet;
#X obj 23 230 outlet;
#X obj 23 119 s \$0.to.tpf;
#X obj 23 139 r \$0.from.tpf;
#X obj 23 159 routeOSC /register;
#X obj 23 203 b;
#X obj 78 251 s \$0.error;
#X obj 23 179 routeOSC /done /error /again;
#X obj 180 22 t b;
#X obj 78 228 list trim;
#X msg 23 98 /register/client \$1 \$2;
#X obj 23 55 symbol;
#X obj 23 78 list append;
#X obj 78 26 list;
#X obj 79 5 r \$0.room;
#X connect 0 0 1 0;
#X connect 1 0 14 1;
#X connect 2 0 13 0;
#X connect 5 0 6 0;
#X connect 6 0 9 0;
#X connect 7 0 3 0;
#X connect 9 0 7 0;
#X connect 9 1 11 0;
#X connect 9 2 10 0;
#X connect 10 0 13 0;
#X connect 11 0 8 0;
#X connect 12 0 4 0;
#X connect 13 0 14 0;
#X connect 14 0 12 0;
#X connect 15 0 13 1;
#X connect 16 0 15 0;
#X restore 17 119 pd register/client;
#X connect 0 0 2 0;
#X connect 1 0 3 0;
#X connect 2 1 1 0;
#X connect 3 0 10 0;
#X connect 5 0 8 1;
#X connect 7 0 4 0;
#X connect 7 1 8 0;
#X connect 8 0 9 0;
#X connect 9 0 6 0;
#X connect 10 0 7 0;
#X restore 8 62 pd tpf.initialization;
#X text 249 150 my_id;
#X obj 176 63 text define \$0.clients;
#N canvas 20 381 1109 592 params 0;
#X obj 619 83 text search \$0.clients 0;
#X obj 619 58 f;
#X obj 634 36 r \$0.id;
#X obj 619 108 text get \$0.clients;
#X obj 619 16 r \$0.refresh.client.display;
#X obj 619 128 route bang;
#X obj 30 534 s \$0.to.tpf;
#X msg 106 461 /params/begin;
#X msg 11 499 /params/end;
#X obj 30 413 list prepend /params;
#X obj 30 433 list trim;
#X obj 366 19 r \$0.from.tpf;
#X obj 366 39 routeOSC /updated/params;
#X msg 366 59 /refresh/params;
#X obj 366 78 s \$0.to.tpf;
#X obj 836 17 r \$0.from.tpf;
#X obj 836 37 routeOSC /params;
#X obj 836 57 routeOSC /end /begin;
#X obj 836 77 t b b;
#X msg 863 96 0;
#X msg 894 96 1;
#X obj 953 151 spigot;
#X obj 953 172 list;
#X obj 1009 140 loadbang;
#X msg 1009 160 8e+06;
#X obj 953 192 text set \$0.params;
#X obj 921 224 text delete \$0.params;
#X obj 894 77 t b b;
#X msg 921 203 -1;
#X obj 836 267 s \$0.updated.params;
#X obj 584 14 bng 15 250 50 0 empty empty empty 17 7 0 10 -262144 -1
-1;
#X obj 621 217 s \$0.set.params;
#X obj 11 15 r \$0.set.params;
#X obj 11 85 sel 1;
#X obj 30 129 t b b b;
#X obj 30 236 samplerate~;
#X msg 30 256 samplerate \$1;
#X obj 79 195 r \$0.bitres;
#X obj 49 196 f;
#X msg 49 214 bitres \$1;
#X obj 88 133 r \$0.blocksize;
#X obj 73 156 f;
#X msg 73 174 blocksize \$1;
#X obj 11 106 t b b b;
#X obj 329 146 r \$0.updated.params;
#X obj 356 206 t a b;
#X obj 356 226 until;
#X obj 356 246 f;
#X obj 356 266 t a a;
#X obj 394 257 + 1;
#X msg 397 227 0;
#X obj 356 186 text size \$0.params;
#X obj 356 287 text get \$0.params;
#X obj 356 307 list trim;
#X obj 426 396 t b a;
#X obj 329 166 t b b;
#X obj 329 475 f;
#X obj 329 498 s \$0.param.check;
#X obj 356 327 t a a a;
#N canvas 1275 705 441 348 bitres 0;
#X obj 23 58 t a a;
#X obj 23 113 ==;
#X obj 23 143 t a a;
#X obj 23 309 outlet;
#X obj 50 165 sel 0;
#X obj 150 60 t a a;
#X obj 23 16 inlet;
#X obj 113 133 pack f f;
#X obj 50 209 list append;
#X msg 50 230 \$1 mismatch: mandated \$2 - configured \$3;
#X obj 50 250 s \$0.error;
#X obj 23 38 route bitres;
#X obj 150 40 r \$0.bitres;
#X obj 50 189 list append bitres;
#X connect 0 0 1 0;
#X connect 0 1 7 0;
#X connect 1 0 2 0;
#X connect 2 0 3 0;
#X connect 2 1 4 0;
#X connect 4 0 13 0;
#X connect 5 0 1 1;
#X connect 5 1 7 1;
#X connect 6 0 11 0;
#X connect 7 0 8 1;
#X connect 8 0 9 0;
#X connect 9 0 10 0;
#X connect 11 0 0 0;
#X connect 12 0 5 0;
#X connect 13 0 8 0;
#X restore 356 370 pd bitres;
#N canvas 1275 705 441 348 samplerate 0;
#X obj 23 58 t a a;
#X obj 23 113 ==;
#X obj 23 143 t a a;
#X obj 23 309 outlet;
#X obj 50 165 sel 0;
#X obj 150 60 t a a;
#X obj 23 16 inlet;
#X obj 113 133 pack f f;
#X obj 50 209 list append;
#X msg 50 230 \$1 mismatch: mandated \$2 - configured \$3;
#X obj 50 250 s \$0.error;
#X obj 23 38 route samplerate;
#X obj 150 40 samplerate~;
#X obj 150 15 loadbang;
#X obj 50 189 list append samplerate;
#X connect 0 0 1 0;
#X connect 0 1 7 0;
#X connect 1 0 2 0;
#X connect 2 0 3 0;
#X connect 2 1 4 0;
#X connect 4 0 14 0;
#X connect 5 0 1 1;
#X connect 5 1 7 1;
#X connect 6 0 11 0;
#X connect 7 0 8 1;
#X connect 8 0 9 0;
#X connect 9 0 10 0;
#X connect 11 0 0 0;
#X connect 12 0 5 0;
#X connect 13 0 12 0;
#X connect 14 0 8 0;
#X restore 426 370 pd samplerate;
#X obj 525 371 s \$0.blocksize;
#X obj 525 349 route blocksize;
#X obj 356 429 &&;
#X obj 674 149 list;
#X obj 674 169 t a a;
#X obj 11 61 change;
#X obj 120 14 r \$0.connection.state;
#X obj 120 34 sel 0;
#X msg 120 54 set 0;
#X obj 506 68 r \$0.set.params;
#X obj 506 88 sel 0;
#X msg 621 193 \$3;
#X connect 0 0 3 0;
#X connect 1 0 0 0;
#X connect 2 0 1 1;
#X connect 3 0 5 0;
#X connect 4 0 1 0;
#X connect 5 1 64 0;
#X connect 7 0 6 0;
#X connect 8 0 6 0;
#X connect 9 0 10 0;
#X connect 10 0 6 0;
#X connect 11 0 12 0;
#X connect 12 0 13 0;
#X connect 13 0 14 0;
#X connect 15 0 16 0;
#X connect 16 0 17 0;
#X connect 17 0 18 0;
#X connect 17 1 27 0;
#X connect 17 2 21 0;
#X connect 18 0 29 0;
#X connect 18 1 19 0;
#X connect 19 0 21 1;
#X connect 20 0 21 1;
#X connect 21 0 22 0;
#X connect 22 0 25 0;
#X connect 23 0 24 0;
#X connect 24 0 25 1;
#X connect 27 0 20 0;
#X connect 27 1 28 0;
#X connect 28 0 26 0;
#X connect 30 0 1 0;
#X connect 32 0 66 0;
#X connect 33 0 43 0;
#X connect 34 0 35 0;
#X connect 34 1 38 0;
#X connect 34 2 41 0;
#X connect 35 0 36 0;
#X connect 36 0 9 0;
#X connect 37 0 38 1;
#X connect 38 0 39 0;
#X connect 39 0 9 0;
#X connect 40 0 41 1;
#X connect 41 0 42 0;
#X connect 42 0 9 0;
#X connect 43 0 8 0;
#X connect 43 1 34 0;
#X connect 43 2 7 0;
#X connect 44 0 55 0;
#X connect 45 0 46 0;
#X connect 45 1 50 0;
#X connect 46 0 47 0;
#X connect 47 0 48 0;
#X connect 48 0 52 0;
#X connect 48 1 49 0;
#X connect 49 0 47 1;
#X connect 50 0 47 1;
#X connect 51 0 45 0;
#X connect 52 0 53 0;
#X connect 53 0 58 0;
#X connect 54 0 63 0;
#X connect 54 1 63 1;
#X connect 55 0 56 0;
#X connect 55 1 51 0;
#X connect 56 0 57 0;
#X connect 58 0 59 0;
#X connect 58 1 60 0;
#X connect 58 2 62 0;
#X connect 59 0 63 0;
#X connect 60 0 54 0;
#X connect 62 0 61 0;
#X connect 63 0 56 1;
#X connect 64 0 65 0;
#X connect 65 0 72 0;
#X connect 66 0 33 0;
#X connect 67 0 68 0;
#X connect 68 0 69 0;
#X connect 69 0 66 0;
#X connect 70 0 71 0;
#X connect 71 0 13 0;
#X connect 72 0 31 0;
#X restore 8 102 pd params;
#X obj 176 93 text define \$0.params;
#N canvas 368 536 316 192 gui.code 0;
#N canvas 2026 859 379 223 host 0;
#X restore 8 26 pd host;
#N canvas 251 323 534 348 channels 0;
#X obj 136 277 s \$0.channels.label;
#X msg 136 252 label ch=\$1;
#X obj 190 28 r \$0.channels.nb;
#X obj 190 98 div 4;
#X obj 20 237 * 4;
#X msg 20 257 set \$1;
#X obj 20 277 s \$0.channels.nb.r;
#X obj 20 212 t a a;
#X obj 20 24 r \$0.channels;
#X obj 190 118 change -1;
#X obj 224 178 s \$0.channels;
#X obj 190 138 t b a a b;
#X obj 20 160 spigot 1;
#X msg 241 157 0;
#X msg 160 166 1;
#X obj 300 78 == 0;
#X obj 190 64 spigot 1;
#X msg 369 224 color -1 -1 \$1;
#X msg 404 181 20;
#X msg 369 181 30;
#X obj 369 126 sel 0 1;
#X obj 296 138 loadbang;
#X obj 300 26 r \$0.connection.state;
#X obj 300 46 t a a;
#X obj 300 105 sel 1;
#X connect 1 0 0 0;
#X connect 2 0 16 0;
#X connect 3 0 9 0;
#X connect 4 0 5 0;
#X connect 5 0 6 0;
#X connect 7 0 4 0;
#X connect 7 1 1 0;
#X connect 8 0 12 0;
#X connect 9 0 11 0;
#X connect 11 0 14 0;
#X connect 11 1 1 0;
#X connect 11 2 10 0;
#X connect 11 3 13 0;
#X connect 12 0 7 0;
#X connect 13 0 12 1;
#X connect 14 0 12 1;
#X connect 15 0 16 1;
#X connect 15 0 24 0;
#X connect 16 0 3 0;
#X connect 17 0 0 0;
#X connect 18 0 17 0;
#X connect 19 0 17 0;
#X connect 20 0 19 0;
#X connect 20 1 18 0;
#X connect 21 0 19 0;
#X connect 22 0 23 0;
#X connect 23 0 15 0;
#X connect 23 1 20 0;
#X connect 24 0 4 0;
#X restore 8 45 pd channels;
#N canvas 101 223 450 300 samplerate 0;
#X msg 128 121 label sr=\$1Hz;
#X obj 128 146 s \$0.sr.label;
#X obj 128 20 loadbang;
#X obj 128 40 samplerate~;
#X obj 250 88 loadbang;
#X msg 249 109 color -1 -1 20;
#X connect 0 0 1 0;
#X connect 2 0 3 0;
#X connect 3 0 0 0;
#X connect 4 0 5 0;
#X connect 5 0 1 0;
#X restore 8 64 pd samplerate;
#N canvas 963 629 691 446 blocksize 0;
#X obj 47 28 r \$0.bs.nb;
#X obj 47 108 div 4;
#X obj 47 128 t b a;
#X msg 47 148 2;
#X obj 47 171 <<;
#X obj 74 147 + 5;
#X msg 64 347 label bs=\$1;
#X obj 64 372 s \$0.bs.label;
#X obj 251 109 r \$0.blocksize;
#X obj 278 209 log;
#X obj 278 230 /;
#X obj 313 203 log;
#X msg 313 184 2;
#X obj 313 163 loadbang;
#X obj 278 250 int;
#X obj 278 270 - 5;
#X obj 278 290 * 4;
#X msg 278 313 set \$1;
#X obj 278 334 s \$0.bs.nb.r;
#X obj 251 162 t a a;
#X obj 47 193 change -1;
#X obj 47 219 t b a a b;
#X obj 251 135 spigot 1;
#X msg 98 238 0;
#X msg 47 244 1;
#X obj 81 324 s \$0.blocksize;
#X obj 150 58 == 0;
#X obj 47 48 spigot 1;
#X obj 450 211 s \$0.bs.label;
#X msg 450 178 color -1 -1 \$1;
#X msg 485 135 20;
#X msg 450 135 30;
#X obj 450 80 sel 0 1;
#X obj 377 92 loadbang;
#X obj 150 6 r \$0.connection.state;
#X obj 150 26 t a a;
#X obj 150 96 sel 1;
#X obj 278 187 f;
#X obj 81 260 t b a;
#X obj 81 281 del 500;
#X obj 81 302 f;
#X connect 0 0 27 0;
#X connect 1 0 2 0;
#X connect 2 0 3 0;
#X connect 2 1 5 0;
#X connect 3 0 4 0;
#X connect 4 0 20 0;
#X connect 5 0 4 1;
#X connect 6 0 7 0;
#X connect 8 0 22 0;
#X connect 9 0 10 0;
#X connect 10 0 14 0;
#X connect 11 0 10 1;
#X connect 12 0 11 0;
#X connect 13 0 12 0;
#X connect 14 0 15 0;
#X connect 15 0 16 0;
#X connect 16 0 17 0;
#X connect 17 0 18 0;
#X connect 19 0 6 0;
#X connect 19 1 37 0;
#X connect 20 0 21 0;
#X connect 21 0 24 0;
#X connect 21 1 6 0;
#X connect 21 2 38 0;
#X connect 21 3 23 0;
#X connect 22 0 19 0;
#X connect 23 0 22 1;
#X connect 24 0 22 1;
#X connect 26 0 27 1;
#X connect 26 0 36 0;
#X connect 27 0 1 0;
#X connect 29 0 28 0;
#X connect 30 0 29 0;
#X connect 31 0 29 0;
#X connect 32 0 31 0;
#X connect 32 1 30 0;
#X connect 33 0 31 0;
#X connect 34 0 35 0;
#X connect 35 0 26 0;
#X connect 35 1 32 0;
#X connect 36 0 37 0;
#X connect 37 0 9 0;
#X connect 38 0 39 0;
#X connect 38 1 40 1;
#X connect 39 0 40 0;
#X connect 40 0 25 0;
#X restore 8 83 pd blocksize;
#N canvas 0 43 450 300 bitres 0;
#X obj 26 76 s \$0.res.label;
#X msg 26 51 label res=\$1;
#X obj 163 30 loadbang;
#X obj 23 22 r \$0.bitres;
#X msg 163 50 color -1 -1 20;
#X connect 1 0 0 0;
#X connect 2 0 4 0;
#X connect 3 0 1 0;
#X connect 4 0 0 0;
#X restore 9 102 pd bitres;
#N canvas 255 114 593 359 queue 0;
#X obj 151 159 div 4;
#X obj 35 233 * 4;
#X msg 35 253 set \$1;
#X obj 35 208 t a a;
#X obj 151 29 r \$0.queue.nb;
#X obj 168 281 s \$0.queue.label;
#X obj 35 273 s \$0.queue.nb.r;
#X msg 168 256 label q=\$1;
#X obj 35 23 r \$0.queue;
#X obj 151 178 t b a a b;
#X obj 35 159 spigot 1;
#X msg 202 197 0;
#X msg 151 203 1;
#X obj 299 318 s \$0.queue;
#X obj 265 81 == 0;
#X obj 151 99 spigot 1;
#X msg 438 188 color -1 -1 \$1;
#X msg 473 145 20;
#X msg 438 145 30;
#X obj 438 90 sel 0 1;
#X obj 365 102 loadbang;
#X obj 265 29 r \$0.connection.state;
#X obj 265 49 t a a;
#X obj 438 221 s \$0.queue.label;
#X obj 265 111 sel 1;
#X obj 299 258 t b a;
#X obj 299 278 del 500;
#X obj 299 298 f;
#X connect 0 0 9 0;
#X connect 1 0 2 0;
#X connect 2 0 6 0;
#X connect 3 0 1 0;
#X connect 3 1 7 0;
#X connect 4 0 15 0;
#X connect 7 0 5 0;
#X connect 8 0 10 0;
#X connect 9 0 12 0;
#X connect 9 1 7 0;
#X connect 9 2 25 0;
#X connect 9 3 11 0;
#X connect 10 0 3 0;
#X connect 11 0 10 1;
#X connect 12 0 10 1;
#X connect 14 0 15 1;
#X connect 14 0 24 0;
#X connect 15 0 0 0;
#X connect 16 0 23 0;
#X connect 17 0 16 0;
#X connect 18 0 16 0;
#X connect 19 0 18 0;
#X connect 19 1 17 0;
#X connect 20 0 18 0;
#X connect 21 0 22 0;
#X connect 22 0 14 0;
#X connect 22 1 19 0;
#X connect 24 0 1 0;
#X connect 25 0 26 0;
#X connect 25 1 27 1;
#X connect 26 0 27 0;
#X connect 27 0 13 0;
#X restore 8 122 pd queue;
#N canvas 854 838 343 302 latency.switch 0;
#X obj 43 23 r \$0.latency.switch;
#X obj 136 206 s \$0.latency.switch.r;
#X msg 136 178 color \$1 \$2 \$3;
#X msg 136 149 0 0 0;
#X msg 185 149 0 0 255;
#X obj 43 57 == 0;
#X obj 43 78 t a a a;
#X obj 136 118 sel 0 1;
#X obj 185 29 loadbang;
#X msg 185 50 0;
#X obj 43 237 s \$0.latency.measurement.state;
#X connect 0 0 5 0;
#X connect 2 0 1 0;
#X connect 3 0 2 0;
#X connect 4 0 2 0;
#X connect 5 0 6 0;
#X connect 6 0 10 0;
#X connect 6 1 7 0;
#X connect 6 2 5 1;
#X connect 7 0 3 0;
#X connect 7 1 4 0;
#X connect 8 0 9 0;
#X connect 9 0 6 0;
#X restore 8 143 pd latency.switch;
#N canvas 891 526 615 188 connect 0;
#X obj 47 85 r \$0.connection.state;
#X obj 16 104 ==;
#X obj 16 125 s \$0.connect;
#X obj 16 46 t b b;
#X obj 266 31 r \$0.registered;
#X obj 184 6 r \$0.connection.state;
#X obj 477 17 r \$0.error;
#X obj 16 11 r \$0.connect.switch;
#X obj 204 138 s \$0.connect.switch.r;
#X msg 204 107 color \$1 \$2 \$3;
#X msg 477 37 255 0 0;
#X msg 266 53 0 0 255;
#X msg 203 57 0 0 0;
#X msg 123 58 192 192 192;
#X obj 407 104 loadbang;
#X obj 184 33 sel 1 0;
#X connect 0 0 1 1;
#X connect 1 0 2 0;
#X connect 3 0 1 0;
#X connect 4 0 11 0;
#X connect 5 0 15 0;
#X connect 6 0 10 0;
#X connect 7 0 3 0;
#X connect 9 0 8 0;
#X connect 10 0 9 0;
#X connect 11 0 9 0;
#X connect 12 0 9 0;
#X connect 13 0 9 0;
#X connect 14 0 12 0;
#X connect 15 0 13 0;
#X connect 15 1 12 0;
#X restore 8 7 pd connect;
#X restore 8 122 pd gui.code;
#X obj 191 203 s \$0.to.tpf;
#X obj 569 62 tgl 15 0 empty empty empty 17 7 0 10 -262144 -1 -1 0
1;
#X msg 191 183 /reset/clients;
#X obj 359 11 loadbang;
#X obj 359 31 f \$0;
#X obj 447 25 bng 15 250 50 0 empty empty empty 17 7 0 10 -262144 -1
-1;
#N canvas 765 657 450 300 manage.links 0;
#X restore 8 142 pd manage.links;
#N canvas 635 497 992 567 chat.code 0;
#X obj 52 132 s \$0.send;
#X obj 52 91 list prepend /b/tpf/chat/message;
#X obj 52 112 list trim;
#X obj 596 39 r \$0.receive;
#X obj 596 62 routeOSC /*;
#X obj 596 84 routeOSC /tpf/chat/message;
#X obj 136 27 r \$0.id;
#X obj 52 48 list append 0;
#X obj 52 69 list prepend <name>;
#X obj 199 42 r \$0.name;
#X obj 52 27 r \$0.chat.s;
#X obj 295 52 text define \$0.chat;
#X obj 690 192 loadbang;
#X obj 596 191 list;
#X msg 295 28 clear;
#X obj 635 240 text insert \$0.chat;
#X msg 690 212 0;
#X obj 615 264 text size \$0.chat;
#X obj 615 285 - 30;
#X obj 615 306 max 0;
#X obj 615 328 until;
#X obj 615 372 text delete \$0.chat;
#X obj 615 349 f 30;
#X obj 785 26 loadbang;
#X obj 785 89 s \$0.chat.buffer;
#X obj 693 325 r \$0.chat.buffer;
#X msg 596 419 totalsize \$1;
#X obj 596 213 t b b a;
#X obj 596 396 text size \$0.chat;
#X msg 785 47 80;
#X obj 103 372 s \$0.chat.r;
#X obj 104 185 r \$0.connection.state;
#X obj 104 206 sel 0 1;
#X obj 291 179 loadbang;
#X msg 103 313 set <not\$1connected>;
#X msg 233 315 set <Enter\$1your\$1message\$1here>;
#X obj 103 277 symbol;
#X obj 233 276 symbol;
#X obj 291 200 t b b;
#X msg 318 222 32;
#X obj 318 243 makefilename %c;
#X obj 309 130 bng 15 250 50 0 empty empty empty 17 7 0 10 -262144
-1 -1;
#N canvas 1136 447 521 398 wrap 0;
#X obj 17 8 inlet;
#X obj 44 345 outlet;
#X obj 17 139 list fromsymbol;
#X obj 17 182 list tosymbol;
#X msg 17 55 list \$2 \$1 \$3;
#X obj 44 302 pack s s f;
#X msg 44 323 list \$2 \$1 \$3;
#X obj 17 76 unpack s s f;
#X obj 17 217 t b a;
#X msg 17 256 symbol;
#X obj 17 30 list;
#N canvas 966 53 526 756 serialize 0;
#X obj 92 152 until;
#X obj 91 431 list store;
#X obj 91 177 f;
#X msg 144 152 0, f 2;
#X obj 92 96 t b b a a;
#X obj 207 208 list length;
#X obj 91 198 t a a;
#X obj 175 246 pack f f;
#X msg 175 267 \$2 \$1;
#X obj 175 288 -;
#X obj 175 330 max 1;
#X obj 91 364 pack f f;
#X msg 91 400 get \$1 \$2;
#X obj 92 47 inlet;
#X obj 91 458 outlet;
#X obj 131 178 + 73;
#X obj 175 309 min 73;
#X connect 0 0 2 0;
#X connect 1 0 14 0;
#X connect 1 1 0 1;
#X connect 2 0 6 0;
#X connect 2 0 15 0;
#X connect 3 0 2 1;
#X connect 4 0 0 0;
#X connect 4 1 3 0;
#X connect 4 2 5 0;
#X connect 4 3 1 1;
#X connect 5 0 7 1;
#X connect 6 0 11 0;
#X connect 6 1 7 0;
#X connect 7 0 8 0;
#X connect 8 0 9 0;
#X connect 9 0 16 0;
#X connect 10 0 11 1;
#X connect 11 0 12 0;
#X connect 12 0 1 0;
#X connect 13 0 4 0;
#X connect 15 0 2 1;
#X connect 16 0 10 0;
#X restore 18 161 pd serialize 73;
#X connect 0 0 10 0;
#X connect 2 0 11 0;
#X connect 3 0 8 0;
#X connect 4 0 7 0;
#X connect 5 0 6 0;
#X connect 6 0 1 0;
#X connect 7 0 2 0;
#X connect 7 1 5 1;
#X connect 7 2 5 2;
#X connect 8 0 9 0;
#X connect 8 1 5 0;
#X connect 9 0 5 1;
#X connect 10 0 4 0;
#X connect 11 0 3 0;
#X restore 596 161 pd wrap;
#X obj 277 438 r \$0.display.chat;
#X msg 277 459 vis 1;
#X obj 277 480 s pd-chat;
#X obj 596 444 s \$0.scb.chat.r;
#X obj 821 129 r \$0.id;
#X obj 596 123 t a a;
#X obj 794 151 sel 0;
#X obj 821 181 b;
#X obj 821 206 s \$0.new.chat.msg;
#X obj 284 345 r \$0.new.chat.msg;
#X obj 284 387 s \$0.display.chat.r;
#X msg 284 366 color 128 255 128;
#X msg 776 126 \$3;
#X obj 596 105 list;
#X connect 1 0 2 0;
#X connect 2 0 0 0;
#X connect 3 0 4 0;
#X connect 4 0 5 0;
#X connect 5 0 56 0;
#X connect 6 0 7 1;
#X connect 7 0 8 0;
#X connect 8 0 1 0;
#X connect 9 0 8 1;
#X connect 10 0 7 0;
#X connect 12 0 16 0;
#X connect 13 0 27 0;
#X connect 14 0 11 0;
#X connect 16 0 15 1;
#X connect 17 0 18 0;
#X connect 18 0 19 0;
#X connect 19 0 20 0;
#X connect 20 0 22 0;
#X connect 22 0 21 0;
#X connect 23 0 29 0;
#X connect 25 0 22 1;
#X connect 25 0 18 1;
#X connect 26 0 46 0;
#X connect 27 0 28 0;
#X connect 27 1 17 0;
#X connect 27 2 15 0;
#X connect 28 0 26 0;
#X connect 29 0 24 0;
#X connect 31 0 32 0;
#X connect 32 0 36 0;
#X connect 32 1 37 0;
#X connect 33 0 38 0;
#X connect 34 0 30 0;
#X connect 35 0 30 0;
#X connect 36 0 34 0;
#X connect 37 0 35 0;
#X connect 38 0 36 0;
#X connect 38 1 39 0;
#X connect 39 0 40 0;
#X connect 40 0 37 1;
#X connect 40 0 36 1;
#X connect 41 0 37 0;
#X connect 42 0 13 0;
#X connect 43 0 44 0;
#X connect 44 0 45 0;
#X connect 47 0 49 1;
#X connect 48 0 42 0;
#X connect 48 1 55 0;
#X connect 49 1 50 0;
#X connect 50 0 51 0;
#X connect 52 0 54 0;
#X connect 54 0 53 0;
#X connect 55 0 49 0;
#X connect 56 0 48 0;
#X restore 8 186 pd chat.code;
#N canvas 978 106 787 374 chat 0;
#X obj 9 334 cnv 15 128 22 empty empty empty 20 12 0 14 -233017 -66577
0;
#X obj 743 334 cnv 15 24 22 empty empty empty 2 12 0 14 -233017 -66577
0;
#X obj 743 10 scrollbar_24x321 \$0.scb.chat.r \$0.scb.chat.s 14;
#X obj 140 334 symbolatom_600x22 \$0 \$0.chat.s \$0.chat.r 150 340
;
#X obj 9 309 tpf-client-chatline \$0.chat \$0.scb.chat.s 0;
#X obj 9 10 tpf-client-chatline \$0.chat \$0.scb.chat.s 13;
#X obj 9 33 tpf-client-chatline \$0.chat \$0.scb.chat.s 12;
#X obj 9 56 tpf-client-chatline \$0.chat \$0.scb.chat.s 11;
#X obj 9 79 tpf-client-chatline \$0.chat \$0.scb.chat.s 10;
#X obj 9 102 tpf-client-chatline \$0.chat \$0.scb.chat.s 9;
#X obj 9 125 tpf-client-chatline \$0.chat \$0.scb.chat.s 8;
#X obj 9 148 tpf-client-chatline \$0.chat \$0.scb.chat.s 7;
#X obj 9 171 tpf-client-chatline \$0.chat \$0.scb.chat.s 6;
#X obj 9 194 tpf-client-chatline \$0.chat \$0.scb.chat.s 5;
#X obj 9 217 tpf-client-chatline \$0.chat \$0.scb.chat.s 4;
#X obj 9 240 tpf-client-chatline \$0.chat \$0.scb.chat.s 3;
#X obj 9 263 tpf-client-chatline \$0.chat \$0.scb.chat.s 2;
#X obj 9 286 tpf-client-chatline \$0.chat \$0.scb.chat.s 1;
#X restore 82 310 pd chat;
#X obj 651 62 tgl 15 0 empty empty empty 17 7 0 10 -262144 -1 -1 0
1;
#X msg 569 122 ---------------------------------;
#X obj 569 143 print -n;
#N canvas 667 381 509 572 latency.code 0;
#X obj 75 122 osc~;
#X obj 75 248 *~;
#X obj 12 51 t b b;
#X obj 75 98 vline~;
#X obj 74 379 sigmund~ -npts 4096 -hop 1024 pitch;
#X obj 74 400 mtof;
#X obj 12 451 f;
#X text 165 144 -6dB;
#X obj 74 272 lop~ 4000;
#X obj 74 302 lop~ 4000;
#X obj 74 329 lop~ 4000;
#X obj 74 359 lop~ 4000;
#X obj 90 202 dac~ 65;
#X obj 343 107 t a a;
#X obj 343 128 div 8;
#X obj 383 128 mod 8;
#X obj 343 181 pack f f;
#X msg 343 202 set \$1.channel.\$2;
#X obj 343 296 env~ 8192 8192;
#X obj 343 320 int;
#X obj 343 341 makefilename %3d;
#X msg 343 363 label \$1dB;
#X obj 343 386 s \$0.lat.ret.level;
#X obj 12 7 r \$0.latency.measurement.state;
#X obj 343 84 r \$0.lat.ret.ch;
#X obj 129 121 r \$0.latency.measurement.state;
#X obj 75 173 *~ 0;
#X obj 129 142 * 0.5;
#X msg 347 34 vis 1;
#X obj 347 13 r \$0.display.latency;
#X obj 347 55 s pd-latency;
#X obj 12 30 metro 1000;
#X obj 12 429 delay 900;
#N canvas 977 392 757 449 latency.display 0;
#X obj 35 200 int;
#X msg 35 243 label \$1ms;
#X obj 35 266 s \$0.latency.label;
#X obj 35 221 makefilename %3d;
#X obj 228 106 r \$0.latency.measurement.state;
#X msg 228 202 color -1 -1 \$1;
#X obj 228 127 - 1;
#X obj 228 176 f;
#X obj 35 22 inlet;
#X obj 35 43 t a b b;
#X obj 456 29 inlet;
#X obj 553 96 * 1.01;
#X obj 510 96 * 0.99;
#X obj 483 130 moses;
#X obj 510 152 moses;
#X obj 510 68 f;
#X obj 510 34 r \$0.lat.range.reset;
#X obj 456 75 sel 0;
#X obj 589 242 s \$0.lat.range.reset;
#X obj 562 216 t b a;
#X obj 510 243 t a b;
#X obj 537 279 f;
#X obj 588 296 + 1;
#X obj 537 304 t a a;
#X msg 562 248 0;
#X msg 537 366 0;
#X msg 582 367 1;
#X obj 127 161 f 13;
#X obj 537 392 s \$0.lat.mes.valid;
#X obj 211 265 r \$0.lat.mes.valid;
#X obj 211 286 sel 0 1;
#X msg 211 311 13;
#X msg 240 310 16;
#X obj 160 140 del 300;
#X obj 537 345 moses 20;
#X connect 0 0 3 0;
#X connect 1 0 2 0;
#X connect 3 0 1 0;
#X connect 4 0 6 0;
#X connect 5 0 2 0;
#X connect 6 0 7 0;
#X connect 7 0 5 0;
#X connect 8 0 9 0;
#X connect 9 0 0 0;
#X connect 9 1 27 0;
#X connect 9 2 33 0;
#X connect 10 0 17 0;
#X connect 11 0 14 1;
#X connect 12 0 13 1;
#X connect 13 0 19 0;
#X connect 13 1 14 0;
#X connect 14 0 20 0;
#X connect 14 1 19 0;
#X connect 15 0 12 0;
#X connect 15 0 11 0;
#X connect 16 0 15 0;
#X connect 17 1 13 0;
#X connect 19 0 24 0;
#X connect 19 1 18 0;
#X connect 20 1 21 0;
#X connect 21 0 23 0;
#X connect 22 0 21 1;
#X connect 23 0 34 0;
#X connect 23 1 22 0;
#X connect 24 0 21 0;
#X connect 25 0 28 0;
#X connect 26 0 28 0;
#X connect 27 0 5 0;
#X connect 29 0 30 0;
#X connect 30 0 31 0;
#X connect 30 1 32 0;
#X connect 31 0 27 1;
#X connect 32 0 27 1;
#X connect 33 0 7 0;
#X connect 34 0 25 0;
#X connect 34 1 26 0;
#X restore 12 525 pd latency.display;
#X obj 226 416 r \$0.latency.measurement.state;
#X obj 226 437 sel 0;
#X msg 226 458 stop;
#X obj 75 54 f;
#X msg 75 77 1000 \, 9000 \$1;
#N canvas 658 352 284 188 sample.period 0;
#X obj 91 29 loadbang;
#X msg 91 50 1;
#X obj 91 71 s \$0.lat.period.r;
#X obj 91 92 r \$0.lat.period;
#X obj 91 113 * 1000;
#X obj 91 134 outlet;
#X connect 0 0 1 0;
#X connect 1 0 2 0;
#X connect 3 0 4 0;
#X connect 4 0 5 0;
#X restore 151 39 pd sample.period;
#N canvas 658 406 284 188 sample.period 0;
#X obj 88 12 r \$0.lat.period;
#X obj 59 159 outlet;
#X obj 20 33 inlet;
#X obj 59 125 *;
#X obj 39 85 f;
#X obj 20 54 t b b a;
#X obj 88 59 / 8;
#X obj 88 33 t a a;
#X obj 147 101 * 1000;
#X obj 147 122 - 100;
#X obj 147 143 outlet;
#X connect 0 0 7 0;
#X connect 2 0 5 0;
#X connect 3 0 1 0;
#X connect 4 0 3 1;
#X connect 5 0 8 0;
#X connect 5 1 4 0;
#X connect 5 2 3 0;
#X connect 6 0 4 1;
#X connect 7 0 6 0;
#X connect 7 1 8 1;
#X connect 8 0 9 0;
#X connect 9 0 10 0;
#X restore 12 485 pd sample.period;
#X obj 343 225 r~ 1.channel.0;
#X obj 343 151 + 1;
#X connect 0 0 26 0;
#X connect 1 0 8 0;
#X connect 2 0 32 0;
#X connect 2 1 37 0;
#X connect 3 0 0 0;
#X connect 4 0 5 0;
#X connect 5 0 6 1;
#X connect 5 0 33 1;
#X connect 6 0 40 0;
#X connect 8 0 9 0;
#X connect 9 0 10 0;
#X connect 10 0 11 0;
#X connect 11 0 4 0;
#X connect 13 0 14 0;
#X connect 13 1 15 0;
#X connect 14 0 42 0;
#X connect 15 0 16 1;
#X connect 16 0 17 0;
#X connect 17 0 41 0;
#X connect 18 0 19 0;
#X connect 19 0 20 0;
#X connect 20 0 21 0;
#X connect 21 0 22 0;
#X connect 23 0 31 0;
#X connect 24 0 13 0;
#X connect 25 0 27 0;
#X connect 26 0 1 0;
#X connect 26 0 12 0;
#X connect 27 0 26 1;
#X connect 28 0 30 0;
#X connect 29 0 28 0;
#X connect 31 0 2 0;
#X connect 32 0 6 0;
#X connect 34 0 35 0;
#X connect 35 0 36 0;
#X connect 36 0 32 0;
#X connect 37 0 38 0;
#X connect 38 0 3 0;
#X connect 39 0 31 1;
#X connect 39 0 37 1;
#X connect 40 0 33 0;
#X connect 40 1 32 1;
#X connect 41 0 1 1;
#X connect 41 0 18 0;
#X connect 42 0 16 0;
#X restore 8 227 pd latency.code;
#N canvas 527 553 310 188 latency 0;
#X obj 170 78 cnv 32 70 32 empty empty empty 8 16 0 20 -1 -262144 0
;
#X obj 170 83 nbx 2 20 0 63 0 0 \$0.lat.ret.ch \$0.lat.ret.ch.r empty
0 -8 0 20 -1 -262144 -1 0 256;
#X obj 170 8 tpf-client-button32x32 \$0.latency.switch \$0.latency.switch.r
;
#X obj 7 8 cnv 32 160 32 empty \$0.button.fg ON/OFF 8 16 0 20 -233017
-1 0;
#X obj 7 78 cnv 32 160 32 empty empty RETURN/CHAN 8 16 0 20 -233017
-1 0;
#X obj 7 113 cnv 32 160 32 empty empty RETURN/LEVEL 8 16 0 20 -233017
-1 0;
#X obj 170 113 cnv 32 70 32 empty \$0.lat.ret.level \ \ 0dB 8 16 0
20 -1 -262144 0;
#X obj 7 148 cnv 32 160 32 empty empty LATENCY 8 16 0 20 -233017 -1
0;
#X obj 170 148 cnv 32 70 32 empty \$0.latency.label 0ms 8 16 0 20 -1
-1 0;
#X obj 170 43 cnv 32 70 32 empty empty empty 8 16 0 20 -1 -262144 0
;
#X obj 7 43 cnv 32 160 32 empty empty SAMPLEPERIOD 8 16 0 20 -233017
-1 0;
#X obj 170 48 nbx 2 20 1 10 0 0 \$0.lat.period \$0.lat.period.r empty
0 -8 0 20 -1 -262144 -1 1 256;
#X obj 210 43 cnv 14 14 28 empty empty s 3 16 0 20 -1 -262144 0;
#X restore 132 310 pd latency;
#N canvas 41 537 1034 543 messages.code 0;
#X obj 420 74 print TPF_ERROR;
#X msg 17 102 vis 1;
#X obj 216 28 text define \$0.msgs;
#X obj 612 264 loadbang;
#X obj 518 263 list;
#X msg 612 284 0;
#X obj 537 357 - 30;
#X obj 537 378 max 0;
#X obj 537 400 until;
#X obj 537 421 f 30;
#X obj 809 20 loadbang;
#X msg 518 491 totalsize \$1;
#X obj 518 285 t b b a;
#X obj 809 83 s \$0.msgs.buffer;
#X obj 615 397 r \$0.msgs.buffer;
#X obj 557 312 text insert \$0.msgs;
#X obj 537 336 text size \$0.msgs;
#X obj 537 444 text delete \$0.msgs;
#X obj 518 467 text size \$0.msgs;
#X obj 518 516 s \$0.scb.msgs.r;
#X obj 17 81 r \$0.display.messages;
#X obj 393 28 r \$0.error;
#X obj 518 30 r \$0.warning;
#X obj 660 27 r \$0.info;
#X obj 687 82 print TPF_INFO;
#X obj 393 49 t a a;
#X obj 518 56 t a a;
#X obj 545 81 print TPF_WARN;
#X obj 660 48 t a a;
#X msg 809 41 300;
#X obj 393 102 list prepend ERROR;
#X obj 518 105 list prepend WARNING;
#X obj 660 106 list prepend INFO;
#X obj 518 159 list split 1;
#N canvas 789 242 443 595 list2symbol 0;
#X obj 168 149 until;
#X obj 168 231 list store;
#X obj 168 174 f;
#X obj 206 175 + 1;
#X msg 222 147 0, f 2;
#X obj 168 122 t b b a;
#X msg 168 203 get \$1 1;
#X obj 166 298 list fromsymbol;
#X obj 167 253 list append;
#X msg 166 276 symbol \$1\$2;
#X obj 297 168 loadbang;
#X msg 297 199 symbol;
#X obj 166 339 list prepend append;
#X obj 166 360 list trim;
#X obj 72 394 list store;
#X obj 166 319 list append 32;
#X obj 68 64 t b b a;
#X obj 72 415 list tosymbol;
#X obj 68 43 list;
#X obj 72 436 outlet;
#X obj 68 21 inlet;
#X connect 0 0 2 0;
#X connect 1 0 8 0;
#X connect 1 1 0 1;
#X connect 2 0 3 0;
#X connect 2 0 6 0;
#X connect 3 0 2 1;
#X connect 4 0 2 1;
#X connect 5 0 0 0;
#X connect 5 1 4 0;
#X connect 5 2 1 1;
#X connect 6 0 1 0;
#X connect 7 0 15 0;
#X connect 8 0 9 0;
#X connect 9 0 7 0;
#X connect 10 0 11 0;
#X connect 11 0 8 1;
#X connect 12 0 13 0;
#X connect 13 0 14 0;
#X connect 14 0 17 0;
#X connect 15 0 12 0;
#X connect 16 0 14 1;
#X connect 16 1 14 0;
#X connect 16 2 5 0;
#X connect 17 0 19 0;
#X connect 18 0 16 0;
#X connect 20 0 18 0;
#X restore 552 183 pd list2symbol;
#X obj 518 213 list append;
#X obj 518 234 list append -1;
#X obj 393 123 t a b;
#X obj 518 126 t a b;
#X obj 660 127 t a b;
#X msg 675 195 -1;
#X msg 716 194 -2;
#X msg 743 193 -4;
#X msg 318 242 color 255 128 128;
#X obj 318 263 s \$0.display.messages.r;
#X obj 17 123 s pd-messages;
#X connect 1 0 45 0;
#X connect 3 0 5 0;
#X connect 4 0 12 0;
#X connect 5 0 15 1;
#X connect 6 0 7 0;
#X connect 7 0 8 0;
#X connect 8 0 9 0;
#X connect 9 0 17 0;
#X connect 10 0 29 0;
#X connect 11 0 19 0;
#X connect 12 0 18 0;
#X connect 12 1 16 0;
#X connect 12 2 15 0;
#X connect 14 0 9 1;
#X connect 14 0 6 1;
#X connect 16 0 6 0;
#X connect 18 0 11 0;
#X connect 20 0 1 0;
#X connect 21 0 25 0;
#X connect 22 0 26 0;
#X connect 23 0 28 0;
#X connect 25 0 30 0;
#X connect 25 1 0 0;
#X connect 26 0 31 0;
#X connect 26 1 27 0;
#X connect 28 0 32 0;
#X connect 28 1 24 0;
#X connect 29 0 13 0;
#X connect 30 0 37 0;
#X connect 31 0 38 0;
#X connect 32 0 39 0;
#X connect 33 0 35 0;
#X connect 33 1 34 0;
#X connect 34 0 35 1;
#X connect 35 0 36 0;
#X connect 36 0 4 0;
#X connect 37 0 33 0;
#X connect 37 1 40 0;
#X connect 37 1 43 0;
#X connect 38 0 33 0;
#X connect 38 1 41 0;
#X connect 39 0 33 0;
#X connect 39 1 42 0;
#X connect 40 0 36 1;
#X connect 41 0 36 1;
#X connect 42 0 36 1;
#X connect 43 0 44 0;
#X restore 8 207 pd messages.code;
#N canvas 972 502 783 348 messages 0;
#X obj 743 10 scrollbar_24x321 \$0.scb.msgs.r \$0.scb.msgs.s 14;
#X obj 9 10 tpf-client-chatline \$0.msgs \$0.scb.msgs.s 13;
#X obj 9 309 tpf-client-chatline \$0.msgs \$0.scb.msgs.s 0;
#X obj 9 33 tpf-client-chatline \$0.msgs \$0.scb.msgs.s 12;
#X obj 9 56 tpf-client-chatline \$0.msgs \$0.scb.msgs.s 11;
#X obj 9 79 tpf-client-chatline \$0.msgs \$0.scb.msgs.s 10;
#X obj 9 102 tpf-client-chatline \$0.msgs \$0.scb.msgs.s 9;
#X obj 9 125 tpf-client-chatline \$0.msgs \$0.scb.msgs.s 8;
#X obj 9 148 tpf-client-chatline \$0.msgs \$0.scb.msgs.s 7;
#X obj 9 171 tpf-client-chatline \$0.msgs \$0.scb.msgs.s 6;
#X obj 9 194 tpf-client-chatline \$0.msgs \$0.scb.msgs.s 5;
#X obj 9 217 tpf-client-chatline \$0.msgs \$0.scb.msgs.s 4;
#X obj 9 240 tpf-client-chatline \$0.msgs \$0.scb.msgs.s 3;
#X obj 9 263 tpf-client-chatline \$0.msgs \$0.scb.msgs.s 2;
#X obj 9 286 tpf-client-chatline \$0.msgs \$0.scb.msgs.s 1;
#X restore 200 310 pd messages;
#N canvas 184 692 422 154 META 0;
#X text 10 7 VERSION 1.0.0;
#X text 11 23 AUTHOR Roman Haefeli <roman.haefeli@zhdk.ch>;
#X text 11 38 AUTHOR Johannes Schütt <johannes.schütt@zhdk.ch>;
#X text 10 55 LICENSE GPL-3;
#X text 10 71 REPO_URL https://gitlab.zhdk.ch/TPF/tpf-client;
#X restore 732 15 pd META;
#X obj 8 8 declare -path iemnet -path osc -path slip -path include
;
#X text 13 277 ======;
#N canvas 150 106 631 468 settings 0;
#X obj 16 8 tpf-settings-panel \$0;
#X restore 9 310 pd settings;
#X text 563 11 PRINT DEBUG MESSAGES;
#X text 13 262 PANELS;
#X text 563 24 ====================;
#N canvas 0 106 412 168 from/to 0;
#X obj 21 17 r \$0.from.tpf;
#X obj 21 112 print FROM;
#X obj 21 83 spigot;
#X obj 120 80 spigot;
#X obj 120 20 r \$0.to.tpf;
#X obj 120 109 print TO;
#X obj 174 52 inlet;
#X connect 0 0 2 0;
#X connect 2 0 1 0;
#X connect 3 0 5 0;
#X connect 4 0 3 0;
#X connect 6 0 3 1;
#X connect 6 0 2 1;
#X restore 569 87 pd from/to;
#N canvas 0 106 436 166 send/receive 0;
#X obj 5 24 r \$0.send;
#X obj 5 95 print SEND;
#X obj 84 24 r \$0.receive;
#X obj 84 95 print RECEIVE;
#X obj 5 75 spigot;
#X obj 84 75 spigot;
#X obj 188 35 inlet;
#X connect 0 0 4 0;
#X connect 2 0 5 0;
#X connect 4 0 1 0;
#X connect 5 0 3 0;
#X connect 6 0 5 1;
#X connect 6 0 4 1;
#X restore 651 87 pd send/receive;
#N canvas 135 515 1328 300 settings.code 0;
#X msg 20 80 vis 1;
#X obj 31 57 r \$0.display.settings;
#X obj 20 101 s pd-settings;
#X obj 182 25 r \$0.host;
#X msg 182 48 set \$1;
#X obj 182 71 s \$0.set.host.r;
#X obj 182 97 r \$0.set.host;
#X obj 182 120 s \$0.host;
#X msg 292 48 set \$1;
#X obj 292 25 r \$0.room;
#X obj 292 71 s \$0.set.room.r;
#X obj 292 97 r \$0.set.room;
#X obj 292 120 s \$0.room;
#X msg 402 48 set \$1;
#X obj 402 25 r \$0.name;
#X obj 402 71 s \$0.set.name.r;
#X obj 402 97 r \$0.set.name;
#X obj 402 120 s \$0.name;
#X msg 512 48 set \$1;
#X obj 512 25 r \$0.port;
#X obj 512 71 s \$0.set.port.r;
#X obj 512 97 r \$0.set.port;
#X obj 512 120 s \$0.port;
#X msg 612 48 set \$1;
#X obj 612 25 r \$0.audioport;
#X obj 612 71 s \$0.set.audioport.r;
#X obj 612 97 r \$0.set.audioport;
#X obj 612 120 s \$0.audioport;
#X msg 742 68 set \$1;
#X obj 742 25 r \$0.blocksize;
#X obj 742 91 s \$0.set.blocksize.r;
#X obj 742 117 r \$0.set.blocksize;
#X obj 742 160 s \$0.blocksize;
#X msg 872 72 set \$1;
#X obj 872 25 r \$0.channels;
#X obj 872 95 s \$0.set.channels.r;
#X obj 872 121 r \$0.set.channels;
#X obj 872 168 s \$0.channels;
#X msg 1002 48 set \$1;
#X obj 1002 25 r \$0.queue;
#X obj 1002 71 s \$0.set.queue.r;
#X obj 1002 97 r \$0.set.queue;
#X obj 1002 120 s \$0.queue;
#X obj 1112 126 s \$0.set.samplerate.r;
#X msg 1112 103 label \$1;
#X obj 1112 25 loadbang;
#X obj 1112 48 samplerate~;
#X obj 1112 71 makefilename %d;
#N canvas 0 106 407 241 to_blocksize 0;
#X obj 70 112 pow;
#X msg 70 90 2 \$1;
#X obj 70 67 + 6;
#X obj 70 42 inlet;
#X obj 70 139 outlet;
#X connect 0 0 4 0;
#X connect 1 0 0 0;
#X connect 2 0 1 0;
#X connect 3 0 2 0;
#X restore 742 138 pd to_blocksize;
#N canvas 0 106 446 173 from_blocksize 0;
#X obj 16 84 log;
#X msg 16 59 \$1 2;
#X obj 16 108 - 6;
#X obj 16 31 inlet;
#X obj 16 133 outlet;
#X connect 0 0 2 0;
#X connect 1 0 0 0;
#X connect 2 0 4 0;
#X connect 3 0 1 0;
#X restore 742 46 pd from_blocksize;
#X obj 872 48 - 1;
#X obj 872 144 + 1;
#X obj 22 187 r \$0.name;
#X msg 22 210 label \$1;
#X obj 22 233 s \$0.name.display.r;
#X obj 211 162 r \$0.host;
#X obj 277 163 r \$0.room;
#X obj 211 210 pack s s;
#X obj 277 186 t b a;
#X msg 211 233 label \$1/\$2;
#X obj 211 256 s \$0.connection.display.r;
#X obj 20 9 r \$0.show.settings;
#X obj 20 32 sel;
#X obj 48 32 t a;
#X connect 0 0 2 0;
#X connect 1 0 0 0;
#X connect 3 0 4 0;
#X connect 4 0 5 0;
#X connect 6 0 7 0;
#X connect 8 0 10 0;
#X connect 9 0 8 0;
#X connect 11 0 12 0;
#X connect 13 0 15 0;
#X connect 14 0 13 0;
#X connect 16 0 17 0;
#X connect 18 0 20 0;
#X connect 19 0 18 0;
#X connect 21 0 22 0;
#X connect 23 0 25 0;
#X connect 24 0 23 0;
#X connect 26 0 27 0;
#X connect 28 0 30 0;
#X connect 29 0 49 0;
#X connect 31 0 48 0;
#X connect 33 0 35 0;
#X connect 34 0 50 0;
#X connect 36 0 51 0;
#X connect 38 0 40 0;
#X connect 39 0 38 0;
#X connect 41 0 42 0;
#X connect 44 0 43 0;
#X connect 45 0 46 0;
#X connect 46 0 47 0;
#X connect 47 0 44 0;
#X connect 48 0 32 0;
#X connect 49 0 28 0;
#X connect 50 0 33 0;
#X connect 51 0 37 0;
#X connect 52 0 53 0;
#X connect 53 0 54 0;
#X connect 55 0 57 0;
#X connect 56 0 58 0;
#X connect 57 0 59 0;
#X connect 58 0 57 0;
#X connect 58 1 57 1;
#X connect 59 0 60 0;
#X connect 61 0 62 0;
#X connect 62 0 0 0;
#X connect 62 1 63 0;
#X connect 63 0 62 1;
#X restore 8 164 pd settings.code;
#X msg 359 54 \; pd dsp 1 \; \$1.name symbol <yourname> \; \$1.host
symbol <servername> \; \$1.room symbol public \; \$1.port 3025 \; \$1.audioport
4460 \; \$1.channels 2 \; \$1.bitres 16 \; \$1.queue 4 \; \$1.blocksize
128 \;;
#N canvas 225 246 667 578 clients 0;
#X obj 17 9 r \$0.from.tpf;
#X obj 17 71 s \$0.to.tpf;
#X obj 15 106 r \$0.from.tpf;
#X obj 15 126 routeOSC /clients;
#X obj 15 148 routeOSC /end /begin;
#X obj 132 322 text set \$0.clients;
#X obj 169 282 loadbang;
#X msg 169 302 8e+06;
#X obj 191 232 text delete \$0.clients;
#X msg 191 211 -1;
#X obj 132 263 spigot;
#X obj 73 170 t b b;
#X msg 73 191 1;
#X msg 54 214 0;
#X obj 16 389 r \$0.connection.state;
#X obj 16 409 sel 0;
#X obj 16 429 t b b b;
#X msg 55 450 -1;
#X obj 55 475 text delete \$0.clients;
#X obj 17 29 routeOSC /updated/clients;
#X msg 17 50 /refresh/clients;
#X obj 15 170 t b b b;
#N canvas 0 106 806 345 check.assignment 0;
#X obj 15 16 inlet;
#X obj 15 256 outlet;
#X obj 15 39 t a a b, f 33;
#X obj 15 229 list append;
#X text 250 35 Set to -1 if not yet assigned;
#X text 249 17 Which tpf-client-link "owns" this peer?;
#X msg 210 205 -1;
#X obj 181 124 s \$0.intercom;
#X msg 181 99 get_link_owner \$2;
#X text 302 100 peer name;
#X obj 180 147 r \$0.intercom;
#X obj 180 170 route set_link_owner;
#X text 310 169 we except tpf-client-link id here;
#X msg 112 175 0;
#N canvas 420 364 450 300 mark.self 0;
#X obj 16 23 inlet;
#X obj 79 138 outlet;
#X obj 61 78 r \$0.id;
#X obj 16 76 route;
#X obj 16 135 outlet;
#X obj 16 106 b;
#X connect 0 0 3 0;
#X connect 2 0 3 1;
#X connect 3 0 5 0;
#X connect 3 1 1 0;
#X connect 5 0 4 0;
#X restore 112 73 pd mark.self;
#X connect 0 0 2 0;
#X connect 2 0 3 0;
#X connect 2 1 14 0;
#X connect 2 2 6 0;
#X connect 3 0 1 0;
#X connect 6 0 3 1;
#X connect 8 0 7 0;
#X connect 10 0 11 0;
#X connect 11 0 3 1;
#X connect 13 0 3 1;
#X connect 14 0 13 0;
#X connect 14 1 8 0;
#X restore 132 180 pd check.assignment;
#X obj 15 348 s \$0.intercom;
#X obj 16 524 s \$0.intercom;
#X msg 15 325 refresh_peers 1;
#X msg 16 501 refresh_peers 1;
#X connect 0 0 19 0;
#X connect 2 0 3 0;
#X connect 3 0 4 0;
#X connect 4 0 21 0;
#X connect 4 1 11 0;
#X connect 4 2 22 0;
#X connect 6 0 7 0;
#X connect 7 0 5 1;
#X connect 9 0 8 0;
#X connect 10 0 5 0;
#X connect 11 0 12 0;
#X connect 11 1 9 0;
#X connect 12 0 10 1;
#X connect 13 0 10 1;
#X connect 14 0 15 0;
#X connect 15 0 16 0;
#X connect 16 0 26 0;
#X connect 16 2 17 0;
#X connect 17 0 18 0;
#X connect 19 0 20 0;
#X connect 20 0 1 0;
#X connect 21 0 25 0;
#X connect 21 2 13 0;
#X connect 22 0 10 0;
#X connect 25 0 23 0;
#X connect 26 0 24 0;
#X restore 8 82 pd clients;
#N canvas 0 106 450 300 intercom 0;
#X obj 11 25 r \$0.intercom;
#X obj 11 88 print INTERCOM;
#X obj 11 58 spigot;
#X obj 123 33 inlet;
#X connect 0 0 2 0;
#X connect 2 0 1 0;
#X connect 3 0 2 1;
#X restore 761 87 pd intercom;
#X obj 761 62 tgl 15 0 empty empty empty 17 7 0 10 -262144 -1 -1 0
1;
#X connect 9 0 31 0;
#X connect 10 0 8 0;
#X connect 11 0 12 0;
#X connect 12 0 34 0;
#X connect 13 0 12 0;
#X connect 17 0 32 0;
#X connect 18 0 19 0;
#X connect 37 0 36 0;
#X restore 867 350 pd code;
#X obj 4 65 tpf-client-link \$0 1;
#X obj 353 38 cnv 24 32 24 empty empty RX 5 13 0 16 -228856 -1 0;
#X obj 4 38 cnv 24 32 24 empty empty TX 5 13 0 16 -228856 -1 0;
#X obj 461 38 cnv 24 70 24 empty empty DROP 5 13 0 16 -228856 -1 0
;
#X obj 534 38 cnv 24 70 24 empty empty GLITCH 5 13 0 16 -228856 -1
0;
#X obj 607 38 cnv 24 70 24 empty empty OOO 5 13 0 16 -228856 -1 0;
#X obj 764 348 namecanvas \$0.main.cnv;
#X obj 388 38 cnv 24 70 24 empty empty DELAY 5 13 0 16 -228856 -1 0
;
#X obj 680 38 cnv 24 32 24 empty empty 1 10 13 0 16 -228856 -1 0;
#X obj 715 38 cnv 24 32 24 empty empty 2 10 13 0 16 -228856 -1 0;
#X obj 750 38 cnv 24 32 24 empty empty 3 10 13 0 16 -228856 -1 0;
#X obj 785 38 cnv 24 32 24 empty empty 4 10 13 0 16 -228856 -1 0;
#X obj 820 38 cnv 24 32 24 empty empty 5 10 13 0 16 -228856 -1 0;
#X obj 855 38 cnv 24 32 24 empty empty 6 10 13 0 16 -228856 -1 0;
#X obj 890 38 cnv 24 32 24 empty empty 7 10 13 0 16 -228856 -1 0;
#X obj 925 38 cnv 24 32 24 empty empty 8 10 13 0 16 -228856 -1 0;
#X obj 680 3 tpf-client-inchannel \$0 0;
#X obj 715 3 tpf-client-inchannel \$0 1;
#X obj 750 3 tpf-client-inchannel \$0 2;
#X obj 785 3 tpf-client-inchannel \$0 3;
#X obj 820 3 tpf-client-inchannel \$0 4;
#X obj 855 3 tpf-client-inchannel \$0 5;
#X obj 890 3 tpf-client-inchannel \$0 6;
#X obj 925 3 tpf-client-inchannel \$0 7;
#X obj 135 345 tpf-client-button Chat \$0.display.chat \$0.display.chat.r
;
#X obj 4 3 tpf-client-button32x32 \$0.connect.switch \$0.connect.switch.r
;
#X obj 4 100 tpf-client-link \$0 2;
#X obj 4 135 tpf-client-link \$0 3;
#X obj 4 170 tpf-client-link \$0 4;
#X obj 4 205 tpf-client-link \$0 5;
#X obj 4 240 tpf-client-link \$0 6;
#X obj 4 275 tpf-client-link \$0 7;
#X obj 4 310 tpf-client-link \$0 8;
#X obj 925 345 tpf-client-testsignal-outchannel \$0 8 0;
#X obj 730 345 cnv 15 192 32 empty empty empty 20 12 0 14 -262144 -66577
0;
#X obj 266 345 tpf-client-button Latency \$0.display.latency;
#X obj 397 345 tpf-client-button Messages \$0.display.messages \$0.display.messages.r
;
#X obj 4 345 tpf-client-button Settings \$0.display.settings \$0.display.settings.r
;
#X obj 356 3 hsl 319 32 0 127 0 0 \$0.show.settings empty empty -2
10 0 10 -262144 -1 -1 100 1;
#X obj 353 3 cnv 15 324 32 empty \$0.connection.display.r localhost/vch
8 16 0 20 -1 -262144 0;
#X obj 42 3 hsl 306 32 0 127 0 0 \$0.show.settings empty empty -2 10
0 10 -262144 -1 -1 0 1;
#X obj 39 3 cnv 15 311 32 empty \$0.name.display.r Roman 8 16 0 20
-1 -262144 0;
