#N canvas 0 40 236 212 10;
#X obj 29 163 s pd;
#X obj 29 112 pdcontrol;
#X msg 29 85 dir;
#X obj 29 38 loadbang;
#X msg 29 138 open tpf-client.pd \$1;
#X obj 29 61 delay 0;
#X connect 1 0 4 0;
#X connect 2 0 1 0;
#X connect 3 0 5 0;
#X connect 4 0 0 0;
#X connect 5 0 2 0;
