#N canvas -6 30 236 212 10;
#X obj 56 166 s pd;
#X obj 56 115 pdcontrol;
#X msg 56 88 dir;
#X obj 29 38 loadbang;
#X obj 29 61 t b b;
#X msg 56 141 open tpf-client.pd \$1;
#X connect 1 0 5 0;
#X connect 2 0 1 0;
#X connect 3 0 4 0;
#X connect 4 1 2 0;
#X connect 5 0 0 0;
