#N canvas 0 0 967 387 10;
#X declare -lib aoo -path ./include;
#X obj 39 38 cnv 24 311 24 empty empty PEERS 5 13 0 16 #dcdcdc #000000
0;
#N canvas 0 485 993 375 code 0;
#X obj 189 149 nbx 5 14 -1e+37 1e+37 0 0 \$0.bla \$0.id empty 0 -8
0 10 #fcfcfc #000000 #000000 0 256;
#X text 249 150 my_id;
#X obj 191 203 s \$0.to.tpf;
#X obj 609 62 tgl 15 0 empty empty empty 17 7 0 10 #fcfcfc #000000
#000000 0 1;
#X msg 191 183 /reset/clients;
#X obj 359 8 loadbang;
#X obj 378 66 f \$0;
#N canvas 978 106 787 374 chat 0;
#X obj 9 334 cnv 15 128 22 empty empty empty 20 12 0 14 #e0e0e0 #404040
0;
#X obj 743 334 cnv 15 24 22 empty empty empty 2 12 0 14 #e0e0e0 #404040
0;
#X obj 743 10 scrollbar_24x321 \$0.scb.chat.r \$0.scb.chat.s 14;
#X obj 140 334 symbolatom_600x22 \$0 \$0.chat.s \$0.chat.r 150 340
;
#X obj 9 309 tpf-client-chatline \$0.chat \$0.scb.chat.s 0;
#X obj 9 10 tpf-client-chatline \$0.chat \$0.scb.chat.s 13;
#X obj 9 33 tpf-client-chatline \$0.chat \$0.scb.chat.s 12;
#X obj 9 56 tpf-client-chatline \$0.chat \$0.scb.chat.s 11;
#X obj 9 79 tpf-client-chatline \$0.chat \$0.scb.chat.s 10;
#X obj 9 102 tpf-client-chatline \$0.chat \$0.scb.chat.s 9;
#X obj 9 125 tpf-client-chatline \$0.chat \$0.scb.chat.s 8;
#X obj 9 148 tpf-client-chatline \$0.chat \$0.scb.chat.s 7;
#X obj 9 171 tpf-client-chatline \$0.chat \$0.scb.chat.s 6;
#X obj 9 194 tpf-client-chatline \$0.chat \$0.scb.chat.s 5;
#X obj 9 217 tpf-client-chatline \$0.chat \$0.scb.chat.s 4;
#X obj 9 240 tpf-client-chatline \$0.chat \$0.scb.chat.s 3;
#X obj 9 263 tpf-client-chatline \$0.chat \$0.scb.chat.s 2;
#X obj 9 286 tpf-client-chatline \$0.chat \$0.scb.chat.s 1;
#X restore 82 240 pd chat;
#X obj 691 62 tgl 15 0 empty empty empty 17 7 0 10 #fcfcfc #000000
#000000 0 1;
#X msg 609 122 ---------------------------------;
#X obj 609 143 print -n;
#N canvas 652 611 310 188 latency 0;
#X obj 170 78 cnv 32 70 32 empty empty empty 8 16 0 20 #000000 #fcfcfc
0;
#X obj 170 83 nbx 2 20 1 64 0 0 \$0.lat.ret.ch \$0.lat.ret.ch.r empty
0 -8 0 20 #000000 #fcfcfc #000000 0 256;
#X obj 170 8 tpf-client-button32x32 \$0.latency.switch \$0.latency.switch.r
;
#X obj 7 8 cnv 32 160 32 empty \$0.button.fg ON/OFF 8 16 0 20 #e0e0e0
#000000 0;
#X obj 7 78 cnv 32 160 32 empty empty RETURN/CHAN 8 16 0 20 #e0e0e0
#000000 0;
#X obj 7 113 cnv 32 160 32 empty empty RETURN/LEVEL 8 16 0 20 #e0e0e0
#000000 0;
#X obj 170 113 cnv 32 70 32 empty \$0.lat.ret.level \ 76dB 8 16 0 20
#000000 #fcfcfc 0;
#X obj 7 148 cnv 32 160 32 empty empty LATENCY 8 16 0 20 #e0e0e0 #000000
0;
#X obj 170 148 cnv 32 70 32 empty \$0.latency.label 0ms 8 16 0 20 #000000
#000000 0;
#X obj 170 43 cnv 32 70 32 empty empty empty 8 16 0 20 #000000 #fcfcfc
0;
#X obj 7 43 cnv 32 160 32 empty empty SAMPLEPERIOD 8 16 0 20 #e0e0e0
#000000 0;
#X obj 170 48 nbx 2 20 1 10 0 0 \$0.lat.period \$0.lat.period.r empty
0 -8 0 20 #000000 #fcfcfc #000000 0 256;
#X obj 210 43 cnv 14 14 28 empty empty s 3 16 0 20 #000000 #fcfcfc
0;
#X restore 132 240 pd latency;
#N canvas 972 502 783 348 messages 0;
#X obj 743 10 scrollbar_24x321 \$0.scb.msgs.r \$0.scb.msgs.s 14;
#X obj 9 10 tpf-client-chatline \$0.msgs \$0.scb.msgs.s 13;
#X obj 9 309 tpf-client-chatline \$0.msgs \$0.scb.msgs.s 0;
#X obj 9 33 tpf-client-chatline \$0.msgs \$0.scb.msgs.s 12;
#X obj 9 56 tpf-client-chatline \$0.msgs \$0.scb.msgs.s 11;
#X obj 9 79 tpf-client-chatline \$0.msgs \$0.scb.msgs.s 10;
#X obj 9 102 tpf-client-chatline \$0.msgs \$0.scb.msgs.s 9;
#X obj 9 125 tpf-client-chatline \$0.msgs \$0.scb.msgs.s 8;
#X obj 9 148 tpf-client-chatline \$0.msgs \$0.scb.msgs.s 7;
#X obj 9 171 tpf-client-chatline \$0.msgs \$0.scb.msgs.s 6;
#X obj 9 194 tpf-client-chatline \$0.msgs \$0.scb.msgs.s 5;
#X obj 9 217 tpf-client-chatline \$0.msgs \$0.scb.msgs.s 4;
#X obj 9 240 tpf-client-chatline \$0.msgs \$0.scb.msgs.s 3;
#X obj 9 263 tpf-client-chatline \$0.msgs \$0.scb.msgs.s 2;
#X obj 9 286 tpf-client-chatline \$0.msgs \$0.scb.msgs.s 1;
#X restore 200 240 pd messages;
#N canvas 184 692 422 154 META 0;
#X text 11 23 AUTHOR Roman Haefeli <roman.haefeli@zhdk.ch>;
#X text 11 38 AUTHOR Johannes Schütt <johannes.schütt@zhdk.ch>;
#X text 10 55 LICENSE GPL-3;
#X text 10 71 REPO_URL https://github.com/zhdk/tpf-client;
#X text 10 7 VERSION 2.0-alpha0;
#X restore 820 10 pd META;
#X text 13 207 ======;
#N canvas 75 106 636 523 settings 0;
#X obj 16 8 tpf-settings-panel \$0;
#X restore 9 240 pd settings;
#X text 603 11 PRINT DEBUG MESSAGES;
#X text 13 192 PANELS;
#X text 603 24 ====================;
#N canvas 0 106 412 168 from/to 0;
#X obj 21 83 spigot;
#X obj 120 80 spigot;
#X obj 174 52 inlet;
#X obj 21 17 r \$0.oscrecv;
#X obj 120 20 r \$0.oscsend;
#X obj 120 109 print OSC.SEND;
#X obj 21 112 print OSC.RECV;
#X connect 0 0 6 0;
#X connect 1 0 5 0;
#X connect 2 0 1 1;
#X connect 2 0 0 1;
#X connect 3 0 0 0;
#X connect 4 0 1 0;
#X restore 609 87 pd from/to;
#N canvas 0 106 436 166 send/receive 0;
#X obj 5 24 r \$0.send;
#X obj 5 95 print SEND;
#X obj 84 24 r \$0.receive;
#X obj 84 95 print RECEIVE;
#X obj 5 75 spigot;
#X obj 84 75 spigot;
#X obj 188 35 inlet;
#X connect 0 0 4 0;
#X connect 2 0 5 0;
#X connect 4 0 1 0;
#X connect 5 0 3 0;
#X connect 6 0 5 1;
#X connect 6 0 4 1;
#X restore 691 87 pd send/receive;
#N canvas 0 106 450 300 intercom 0;
#X obj 11 25 r \$0.intercom;
#X obj 11 88 print INTERCOM;
#X obj 11 58 spigot;
#X obj 123 33 inlet;
#X connect 0 0 2 0;
#X connect 2 0 1 0;
#X connect 3 0 2 1;
#X restore 801 87 pd intercom;
#X obj 801 62 tgl 15 0 empty empty empty 17 7 0 10 #fcfcfc #000000
#000000 0 1;
#X obj 15 48 tpf-client-guts \$0;
#X obj 415 42 r \$0.reset.s;
#X msg 359 329 \; \$1.load.settings bang \;;
#X obj 359 306 f \$0;
#X obj 8 8 declare -lib aoo -path ./include;
#X obj 359 31 t b b b;
#N canvas 593 229 380 213 port 0;
#X obj 45 122 s \$0.send;
#X obj 45 27 inlet;
#X obj 45 76 + 32768;
#X msg 45 99 port \$1;
#X obj 45 53 seeded-random 32768;
#X connect 1 0 4 0;
#X connect 2 0 3 0;
#X connect 3 0 0 0;
#X connect 4 0 2 0;
#X restore 430 20 pd port;
#X msg 378 88 \; pd dsp 1 \; \$1.name symbol <yourname> \; \$1.host
symbol <servername> \; \$1.room symbol public \; \$1.port 12043 \;
\$1.channels 2 \; \$1.codec symbol pcm \; \$1.blocksize 64 \; \$1.bitdepth
16 \; \$1.packetsize 1450 \; \$1.framesize 120 \; \$1.quality 10 \;
\$1.bitrate 96 \; \$1.signal symbol music \; \$1.usage symbol lowdelay
\;;
#X connect 3 0 19 0;
#X connect 4 0 2 0;
#X connect 5 0 28 0;
#X connect 6 0 30 0;
#X connect 8 0 20 0;
#X connect 9 0 10 0;
#X connect 22 0 21 0;
#X connect 24 0 6 0;
#X connect 26 0 25 0;
#X connect 28 0 26 0;
#X connect 28 1 6 0;
#X connect 28 2 29 0;
#X restore 621 352 pd code;
#X obj 4 65 tpf-client-link \$0 1;
#X obj 353 38 cnv 24 32 24 empty empty RX 5 13 0 16 #dcdcdc #000000
0;
#X obj 4 38 cnv 24 32 24 empty empty TX 5 13 0 16 #dcdcdc #000000 0
;
#X obj 493 38 cnv 24 184 24 empty empty FORMAT 5 13 0 16 #dcdcdc #000000
0;
#X obj 817 350 namecanvas \$0.main.cnv;
#X obj 388 38 cnv 24 102 24 empty empty PARAMS 5 13 0 16 #dcdcdc #000000
0;
#X obj 680 38 cnv 24 32 24 empty empty 1 10 13 0 16 #dcdcdc #000000
0;
#X obj 715 38 cnv 24 32 24 empty empty 2 10 13 0 16 #dcdcdc #000000
0;
#X obj 750 38 cnv 24 32 24 empty empty 3 10 13 0 16 #dcdcdc #000000
0;
#X obj 785 38 cnv 24 32 24 empty empty 4 10 13 0 16 #dcdcdc #000000
0;
#X obj 820 38 cnv 24 32 24 empty empty 5 10 13 0 16 #dcdcdc #000000
0;
#X obj 855 38 cnv 24 32 24 empty empty 6 10 13 0 16 #dcdcdc #000000
0;
#X obj 890 38 cnv 24 32 24 empty empty 7 10 13 0 16 #dcdcdc #000000
0;
#X obj 925 38 cnv 24 32 24 empty empty 8 10 13 0 16 #dcdcdc #000000
0;
#X obj 680 3 tpf-client-inchannel \$0 1;
#X obj 715 3 tpf-client-inchannel \$0 2;
#X obj 750 3 tpf-client-inchannel \$0 3;
#X obj 785 3 tpf-client-inchannel \$0 4;
#X obj 820 3 tpf-client-inchannel \$0 5;
#X obj 855 3 tpf-client-inchannel \$0 6;
#X obj 890 3 tpf-client-inchannel \$0 7;
#X obj 925 3 tpf-client-inchannel \$0 8;
#X obj 135 345 tpf-client-button Chat \$0.display.chat \$0.display.chat.r
;
#X obj 4 3 tpf-client-button32x32 \$0.connect.switch \$0.connect.switch.r
;
#X obj 4 100 tpf-client-link \$0 2;
#X obj 4 135 tpf-client-link \$0 3;
#X obj 4 170 tpf-client-link \$0 4;
#X obj 4 205 tpf-client-link \$0 5;
#X obj 4 240 tpf-client-link \$0 6;
#X obj 4 275 tpf-client-link \$0 7;
#X obj 4 310 tpf-client-link \$0 8;
#X obj 680 345 tpf-client-testsignal-outchannel \$0 8 1;
#X obj 266 345 tpf-client-button Latency \$0.display.latency;
#X obj 397 345 tpf-client-button Messages \$0.display.messages \$0.display.messages.r
;
#X obj 4 345 tpf-client-button Settings \$0.display.settings \$0.display.settings.r
;
#X obj 356 3 hsl 319 32 0 127 0 0 \$0.show.settings empty empty -2
10 0 10 #fcfcfc #000000 #000000 0 1;
#X obj 353 3 cnv 15 324 32 empty \$0.connection.display.r tpf-server.zhdk.ch/public
8 16 0 20 #000000 #fcfcfc 0;
#X obj 42 3 hsl 306 32 0 127 0 0 \$0.show.settings empty empty -2 10
0 10 #fcfcfc #000000 #000000 0 1;
#X obj 39 3 cnv 15 311 32 empty \$0.name.display.r Roman 8 16 0 20
#000000 #fcfcfc 0;
#X obj 528 345 cnv 32 149 32 empty empty empty 20 12 0 14 #e0e0e0 #404040
0;
#X obj 715 345 cnv 32 242 32 empty empty empty 20 12 0 14 #e0e0e0 #404040
0;
