#N canvas 451 240 314 246 10;
#X obj 44 61 rzero_rev~ 0;
#X obj 29 90 -~;
#X obj 29 152 sel 1;
#X obj 29 132 > 68;
#X obj 28 31 inlet~;
#X obj 29 178 outlet;
#X obj 29 111 env~ 256 256;
#X connect 0 0 1 1;
#X connect 1 0 6 0;
#X connect 2 0 5 0;
#X connect 3 0 2 0;
#X connect 4 0 1 0;
#X connect 4 0 0 0;
#X connect 6 0 3 0;
