#N canvas 331 281 494 354 10;
#X obj 21 13 inlet;
#X obj 329 82 command;
#X obj 21 33 s \$0.inlet;
#X obj 25 281 outlet;
#X obj 25 261 r \$0.outlet.0;
#X obj 298 288 outlet;
#X obj 298 268 r \$0.outlet.1;
#X obj 329 29 r \$0.command;
#X obj 368 106 s \$0.running;
#X obj 329 132 s \$0.output;
#X text 126 13 params (default):;
#N canvas 795 481 475 429 params 0;
#X obj 45 21 r \$0.inlet;
#X obj 45 41 route server portoffset numofchannels bitres clientname
;
#X obj 12 164 pack s f f f s;
#X obj 12 137 symbol;
#X msg 12 184 jacktrip -c \$1 -o \$2 -n \$3 -b \$4 --clientname \$5
;
#X obj 12 101 r \$0.start;
#X obj 12 215 s \$0.command;
#X obj 45 75 list;
#X obj 306 68 list;
#X connect 0 0 1 0;
#X connect 1 0 7 0;
#X connect 1 1 2 1;
#X connect 1 2 2 2;
#X connect 1 3 2 3;
#X connect 1 4 8 0;
#X connect 2 0 4 0;
#X connect 3 0 2 0;
#X connect 4 0 6 0;
#X connect 5 0 3 0;
#X connect 7 0 3 1;
#X connect 8 0 2 4;
#X restore 29 140 pd params;
#X obj 128 34 loadbang;
#X msg 159 55 server telematic.zhdk.ch;
#X msg 147 115 bitres 16;
#X msg 159 74 portoffset 0;
#X msg 151 94 numofchannels 2;
#X msg 137 134 clientname JackTrip;
#X obj 197 161 s \$0.inlet;
#N canvas 284 575 489 358 start/stop 0;
#X obj 9 12 r \$0.inlet;
#X obj 102 74 r \$0.running;
#X obj 9 76 b;
#X obj 56 76 b;
#X obj 9 106 f;
#X obj 56 108 f;
#X obj 9 137 sel 1;
#X obj 56 137 sel 0;
#X obj 9 200 s \$0.stop;
#X obj 79 200 s \$0.start;
#X obj 326 73 r \$0.running;
#X obj 311 93 f;
#X obj 311 113 sel 1;
#X obj 311 133 t b b;
#X obj 311 157 s \$0.stop;
#X obj 311 216 spigot;
#X obj 311 194 r \$0.running;
#X msg 400 189 1;
#X obj 311 236 sel 0;
#X obj 311 256 t b b;
#X msg 386 232 0;
#X obj 311 278 s \$0.start;
#X obj 311 56 b;
#X obj 203 112 print;
#X obj 9 32 route 0 1;
#X obj 70 31 route stop start restart;
#X connect 0 0 24 0;
#X connect 0 0 25 0;
#X connect 1 0 5 1;
#X connect 1 0 4 1;
#X connect 2 0 4 0;
#X connect 3 0 5 0;
#X connect 4 0 6 0;
#X connect 5 0 7 0;
#X connect 6 0 8 0;
#X connect 7 0 9 0;
#X connect 10 0 11 1;
#X connect 11 0 12 0;
#X connect 12 0 13 0;
#X connect 13 0 14 0;
#X connect 13 1 17 0;
#X connect 15 0 18 0;
#X connect 16 0 15 0;
#X connect 17 0 15 1;
#X connect 18 0 19 0;
#X connect 19 0 21 0;
#X connect 19 1 20 0;
#X connect 20 0 15 1;
#X connect 22 0 11 0;
#X connect 24 0 2 0;
#X connect 24 1 3 0;
#X connect 25 0 2 0;
#X connect 25 1 3 0;
#X connect 25 2 22 0;
#X restore 29 168 pd start/stop;
#N canvas 860 315 632 312 errors 0;
#X obj 11 12 r \$0.output;
#X obj 11 32 route ERROR:;
#X obj 11 52 route Peer;
#X obj 11 92 route Size;
#X obj 11 112 route is;
#X obj 11 132 route :;
#X obj 160 120 route is;
#X obj 160 140 route :;
#X obj 160 100 route Rate;
#X msg 160 175 MISMATCH SAMPLERATE \$1;
#X msg 11 176 MISMATCH BUFFERSIZE \$1;
#X obj 307 133 route is;
#X obj 307 153 route :;
#X obj 307 94 route Bit;
#X obj 307 114 route Resolution;
#X obj 11 72 route Buffer Sampling Audio;
#X msg 307 176 MISMATCH BITRES \$1;
#X obj 440 56 route Unable;
#X obj 440 76 route to;
#X obj 440 96 route connect;
#X obj 440 116 route to;
#X obj 440 136 route JACK;
#X obj 440 156 route server;
#X obj 224 282 s \$0.outlet.1;
#X msg 440 179 JACK NOT RUNNING;
#X connect 0 0 1 0;
#X connect 0 0 17 0;
#X connect 1 0 2 0;
#X connect 2 0 15 0;
#X connect 3 0 4 0;
#X connect 4 0 5 0;
#X connect 5 0 10 0;
#X connect 6 0 7 0;
#X connect 7 0 9 0;
#X connect 8 0 6 0;
#X connect 9 0 23 0;
#X connect 10 0 23 0;
#X connect 11 0 12 0;
#X connect 12 0 16 0;
#X connect 13 0 14 0;
#X connect 14 0 11 0;
#X connect 15 0 3 0;
#X connect 15 1 8 0;
#X connect 15 2 13 0;
#X connect 16 0 23 0;
#X connect 17 0 18 0;
#X connect 18 0 19 0;
#X connect 19 0 20 0;
#X connect 20 0 21 0;
#X connect 21 0 22 0;
#X connect 22 0 24 0;
#X connect 24 0 23 0;
#X restore 29 220 pd errors;
#X obj 368 57 r \$0.stop;
#N canvas 331 504 599 419 status 0;
#X obj 32 23 r \$0.output;
#X obj 32 85 route for;
#X obj 32 106 route Peer...;
#X obj 121 82 route Connection;
#X obj 121 102 route for;
#X obj 121 122 route Peer!;
#X obj 32 43 route Waiting Received UDP;
#X obj 236 127 route too;
#X obj 236 147 route long;
#X obj 236 81 route waiting is;
#X obj 282 103 route waited;
#X obj 383 175 r \$0.running;
#X obj 32 186 b;
#X obj 121 188 b;
#X obj 383 195 sel 0 1;
#X msg 32 233 WAITING_FOR_PEER;
#X msg 383 223 STOPPED;
#X msg 442 224 STARTED;
#X msg 148 250 OK;
#X msg 255 284 NO_DATA;
#X obj 207 376 s \$0.outlet.0;
#X obj 275 204 del 100;
#X obj 236 183 t b b b;
#X obj 255 262 spigot 1;
#X msg 236 206 0;
#X obj 275 224 t b b;
#X msg 302 244 1;
#X connect 0 0 6 0;
#X connect 1 0 2 0;
#X connect 2 0 12 0;
#X connect 3 0 4 0;
#X connect 4 0 5 0;
#X connect 5 0 13 0;
#X connect 6 0 1 0;
#X connect 6 1 3 0;
#X connect 6 2 9 0;
#X connect 7 0 8 0;
#X connect 8 0 22 0;
#X connect 9 0 7 0;
#X connect 9 1 10 0;
#X connect 10 0 7 0;
#X connect 11 0 14 0;
#X connect 12 0 15 0;
#X connect 13 0 18 0;
#X connect 14 0 16 0;
#X connect 14 1 17 0;
#X connect 15 0 20 0;
#X connect 16 0 20 0;
#X connect 17 0 20 0;
#X connect 18 0 20 0;
#X connect 19 0 20 0;
#X connect 21 0 25 0;
#X connect 22 0 24 0;
#X connect 22 1 23 0;
#X connect 22 2 21 0;
#X connect 23 0 19 0;
#X connect 24 0 23 1;
#X connect 25 0 18 0;
#X connect 25 1 26 0;
#X connect 26 0 23 1;
#X restore 29 196 pd status;
#X connect 0 0 2 0;
#X connect 1 0 9 0;
#X connect 1 1 8 0;
#X connect 4 0 3 0;
#X connect 6 0 5 0;
#X connect 7 0 1 0;
#X connect 12 0 13 0;
#X connect 12 0 15 0;
#X connect 12 0 16 0;
#X connect 12 0 14 0;
#X connect 12 0 17 0;
#X connect 13 0 18 0;
#X connect 14 0 18 0;
#X connect 15 0 18 0;
#X connect 16 0 18 0;
#X connect 17 0 18 0;
#X connect 21 0 1 1;
