#N canvas 174 50 1094 618 10;
#X declare -stdpath iemnet;
#X obj 249 513 udpclient;
#X obj 249 482 r \$0.to.udp;
#X obj 249 565 s \$0.from.udp;
#X obj 283 534 tgl 15 0 empty empty empty 17 7 0 10 -262144 -1 -1 1
1;
#X obj 829 122 cnv 15 220 40 empty empty empty 20 12 0 14 -233017 -66577
0;
#X text 835 144 -n;
#X obj 855 144 nbx 2 14 1 64 0 0 \$0.channels \$0.channels empty 0
-8 0 10 -204800 -1 -1 2 256;
#X obj 910 144 nbx 2 14 0 99 0 0 \$0.port.offset \$0.port.offset empty
0 -8 0 10 -204800 -1 -1 0 256;
#X text 890 144 -o;
#X text 944 144 -b;
#X text 832 126 jacktrip;
#X obj 964 144 nbx 2 14 8 32 0 0 \$0.bitres \$0.bitres empty 0 -8 0
10 -204800 -1 -1 16 256;
#X obj 263 17 loadbang;
#X obj 263 37 \$0;
#X obj 829 92 cnv 15 220 25 empty empty empty 20 12 0 14 -233017 -66577
0;
#X text 835 99 jack blocksize:;
#X obj 949 92 hradio 25 1 0 4 \$0.blocksize.s \$0.blocksize.r empty
0 -8 0 10 -204800 -4032 -1 1;
#X text 952 97 64;
#X text 974 97 128;
#X text 1000 97 256;
#X text 1024 97 512;
#X obj 829 12 cnv 15 220 25 empty empty empty 20 12 0 14 -233017 -66577
0;
#X obj 829 12 tgl 25 0 \$0.on.off \$0.on.off empty 17 7 0 10 -261234
-1 -1 1 1;
#N canvas 0 70 285 340 sender 0;
#X obj 14 137 s \$0.to.udp;
#N canvas 0 50 398 477 prepend_header 0;
#X obj 9 12 inlet;
#X obj 9 414 outlet;
#X obj 94 13 r \$0.on.off;
#X obj 94 33 sel 0;
#X msg 94 53 0;
#X obj 9 32 t a b;
#X obj 36 83 f;
#X obj 36 102 mod 65536;
#X obj 36 122 t a a;
#X obj 111 111 + 1;
#X obj 36 142 t a a;
#X obj 81 160 >> 8;
#X obj 36 161 & 255;
#X obj 36 182 pack f f;
#X obj 9 393 list prepend;
#X obj 212 104 t a a;
#X obj 257 122 >> 8;
#X obj 212 123 & 255;
#X obj 36 202 list append 0 0;
#X obj 212 144 pack f f;
#X text 158 182 seq;
#X text 145 205 buffersize;
#X obj 36 231 list append 0;
#X text 146 231 samplingrate;
#X obj 36 261 list append 0;
#X text 136 266 bit resolution;
#X obj 36 298 list append 0;
#X text 132 301 in channels;
#X obj 36 330 list append 0;
#X text 219 363 time tag;
#X text 127 334 out channels;
#X obj 36 363 list prepend 0 0 0 0 0 0 0 0;
#X obj 296 218 r \$0.bitres;
#N canvas 394 310 404 229 samplerate 0;
#X obj 17 17 r \$0.samplerate;
#X obj 18 168 outlet;
#X obj 17 45 select 22050 32000 44100 48000 88200 96000 192000;
#X msg 17 80 0;
#X msg 58 80 1;
#X msg 100 80 2;
#X msg 141 80 3;
#X msg 183 79 4;
#X msg 224 80 5;
#X msg 266 79 6;
#X connect 0 0 2 0;
#X connect 2 0 3 0;
#X connect 2 1 4 0;
#X connect 2 2 5 0;
#X connect 2 3 6 0;
#X connect 2 4 7 0;
#X connect 2 5 8 0;
#X connect 2 6 9 0;
#X connect 3 0 1 0;
#X connect 4 0 1 0;
#X connect 5 0 1 0;
#X connect 6 0 1 0;
#X connect 7 0 1 0;
#X connect 8 0 1 0;
#X connect 9 0 1 0;
#X restore 291 170 pd samplerate;
#X obj 212 23 r \$0.blocksize;
#X obj 283 279 r \$0.channels;
#X connect 0 0 5 0;
#X connect 2 0 3 0;
#X connect 3 0 4 0;
#X connect 4 0 6 1;
#X connect 5 0 14 0;
#X connect 5 1 6 0;
#X connect 6 0 7 0;
#X connect 7 0 8 0;
#X connect 8 0 10 0;
#X connect 8 1 9 0;
#X connect 9 0 6 1;
#X connect 10 0 12 0;
#X connect 10 1 11 0;
#X connect 11 0 13 1;
#X connect 12 0 13 0;
#X connect 13 0 18 0;
#X connect 14 0 1 0;
#X connect 15 0 17 0;
#X connect 15 1 16 0;
#X connect 16 0 19 1;
#X connect 17 0 19 0;
#X connect 18 0 22 0;
#X connect 19 0 18 1;
#X connect 22 0 24 0;
#X connect 24 0 26 0;
#X connect 26 0 28 0;
#X connect 28 0 31 0;
#X connect 31 0 14 1;
#X connect 32 0 24 1;
#X connect 33 0 22 1;
#X connect 34 0 15 0;
#X connect 35 0 26 1;
#X connect 35 0 28 1;
#X restore 14 88 pd prepend_header;
#X obj 14 50 inlet;
#X connect 1 0 0 0;
#X connect 2 0 1 0;
#X restore 33 509 pd sender;
#N canvas 504 50 607 637 receiver 0;
#X obj 14 11 r \$0.from.udp;
#X obj 14 32 list split 16;
#X obj 14 184 unpack f f;
#X obj 71 205 << 8;
#X obj 14 219 +;
#X obj 29 310 pack f f;
#X obj 29 329 s \$0.ringbuffer;
#N canvas 354 274 450 300 metro 0;
#X obj 13 214 metro;
#X obj 109 96 * 1000;
#X obj 109 166 /;
#X obj 13 260 outlet;
#X obj 13 36 inlet;
#X obj 109 220 *;
#X obj 165 168 r \$0.queue;
#X obj 165 188 t b a;
#X obj 13 56 del;
#X obj 67 41 inlet;
#X msg 67 98 0;
#X msg 13 97 1;
#X obj 131 118 r \$0.samplerate;
#X obj 131 138 t b a;
#X obj 109 44 r \$0.blocksize;
#X connect 0 0 3 0;
#X connect 1 0 2 0;
#X connect 2 0 0 1;
#X connect 2 0 5 0;
#X connect 4 0 8 0;
#X connect 5 0 8 1;
#X connect 6 0 7 0;
#X connect 7 0 5 0;
#X connect 7 1 5 1;
#X connect 8 0 11 0;
#X connect 9 0 10 0;
#X connect 10 0 0 0;
#X connect 11 0 0 0;
#X connect 12 0 13 0;
#X connect 13 0 2 0;
#X connect 13 1 2 1;
#X connect 14 0 1 0;
#X restore 303 371 pd metro;
#X msg 65 503 const 0;
#X obj 65 523 s \$0.ringbuffer;
#X obj 303 396 f;
#X obj 358 440 + 1;
#X obj 322 491 tabread \$0.ringbuffer;
#X obj 168 350 s \$0.sequence;
#X obj 303 441 t a a a;
#X obj 303 514 sel;
#X obj 303 416 mod 65536;
#X obj 337 577 print DROPPED_PACKET;
#N canvas 0 50 450 300 ratelimit 0;
#X obj 159 54 inlet;
#X obj 76 179 outlet;
#X obj 76 55 loadbang;
#X obj 76 75 metro 20;
#X obj 76 95 f;
#X obj 76 132 change;
#X connect 0 0 4 1;
#X connect 2 0 3 0;
#X connect 3 0 4 0;
#X connect 4 0 5 0;
#X connect 5 0 1 0;
#X restore 168 329 pd ratelimit;
#X obj 318 534 t b a a;
#X msg 14 159 \$9 \$10;
#N canvas 990 217 384 614 jtter.analysis 0;
#X obj 10 11 inlet;
#X obj 145 17 r \$0.on.off;
#X obj 10 31 t a a;
#X obj 37 63 spigot;
#X msg 112 70 0;
#X obj 56 187 realtime;
#X obj 37 83 t a b b;
#X obj 10 128 -;
#X obj 183 94 r \$0.jack.blocksize;
#X obj 183 114 t b a;
#X msg 183 134 64;
#X obj 183 154 <<;
#X obj 183 174 * 1000;
#X obj 183 244 /;
#X obj 205 196 r \$0.samplerate;
#X obj 205 216 t b a;
#X obj 10 222 *;
#X obj 10 289 -;
#X obj 10 148 t a b;
#X obj 37 360 min;
#X obj 37 380 t a a;
#X obj 10 461 max;
#X obj 10 484 t a a;
#X obj 37 400 change;
#X obj 10 505 change;
#X floatatom 10 525 10 0 0 0 - - -, f 10;
#X obj 10 339 t a a;
#X obj 133 288 r \$0.on.off;
#X obj 133 308 sel 1;
#X msg 133 328 1000;
#X msg 170 328 -10000;
#X obj 10 250 pack f f;
#X msg 10 270 \$2 \$1;
#X obj 10 309 -;
#X obj 10 438 -;
#X connect 0 0 2 0;
#X connect 1 0 3 1;
#X connect 2 0 7 0;
#X connect 2 1 3 0;
#X connect 3 0 6 0;
#X connect 4 0 3 1;
#X connect 5 0 31 1;
#X connect 6 0 7 1;
#X connect 6 1 5 0;
#X connect 6 2 4 0;
#X connect 7 0 18 0;
#X connect 8 0 9 0;
#X connect 9 0 10 0;
#X connect 9 1 11 1;
#X connect 10 0 11 0;
#X connect 11 0 12 0;
#X connect 12 0 13 0;
#X connect 13 0 16 1;
#X connect 14 0 15 0;
#X connect 15 0 13 0;
#X connect 15 1 13 1;
#X connect 16 0 31 0;
#X connect 17 0 33 0;
#X connect 18 0 16 0;
#X connect 18 1 5 1;
#X connect 19 0 20 0;
#X connect 20 0 23 0;
#X connect 20 1 19 1;
#X connect 21 0 22 0;
#X connect 22 0 24 0;
#X connect 22 1 21 1;
#X connect 23 0 34 1;
#X connect 24 0 25 0;
#X connect 26 0 34 0;
#X connect 26 1 19 0;
#X connect 27 0 28 0;
#X connect 28 0 29 0;
#X connect 28 0 30 0;
#X connect 29 0 19 1;
#X connect 30 0 21 1;
#X connect 31 0 32 0;
#X connect 32 0 17 0;
#X connect 33 0 26 0;
#X connect 34 0 21 0;
#X restore 423 330 pd jtter.analysis;
#N canvas 0 50 450 300 out.of.order.counter 0;
#X obj 30 59 t a a;
#X obj 31 87 -;
#X obj 31 113 < 0;
#X obj 31 133 sel 1;
#X obj 31 179 f;
#X obj 31 199 + 1;
#X obj 112 97 r \$0.on.off;
#X obj 112 118 sel 1;
#X msg 112 137 0;
#X obj 31 249 s \$0.outoforder;
#X msg 80 100 -1;
#X obj 30 36 inlet;
#X connect 0 0 1 1;
#X connect 0 1 1 0;
#X connect 1 0 2 0;
#X connect 2 0 3 0;
#X connect 3 0 4 0;
#X connect 4 0 5 0;
#X connect 5 0 4 1;
#X connect 5 0 9 0;
#X connect 6 0 7 0;
#X connect 7 0 8 0;
#X connect 7 0 10 0;
#X connect 8 0 4 1;
#X connect 8 0 9 0;
#X connect 10 0 1 1;
#X connect 11 0 0 0;
#X restore 261 329 pd out.of.order.counter;
#X obj 29 271 t a a;
#X obj 14 237 t a a a a a;
#N canvas 881 316 450 300 glitch.counter 0;
#X obj 24 23 inlet;
#X obj 24 43 t a a;
#X obj 24 75 -;
#X obj 24 102 > 100;
#X obj 24 122 sel 1;
#X obj 115 22 r \$0.on.off;
#X obj 115 42 sel 1;
#X msg 67 67 -1;
#X obj 24 147 f;
#X obj 24 167 + 1;
#X obj 24 189 s \$0.glitch;
#X msg 94 123 0;
#X connect 0 0 1 0;
#X connect 1 0 2 1;
#X connect 1 1 2 0;
#X connect 2 0 3 0;
#X connect 3 0 4 0;
#X connect 4 0 8 0;
#X connect 5 0 6 0;
#X connect 6 0 7 0;
#X connect 6 0 11 0;
#X connect 7 0 2 1;
#X connect 8 0 9 0;
#X connect 9 0 8 1;
#X connect 9 0 10 0;
#X connect 11 0 8 1;
#X connect 11 0 10 0;
#X restore 357 557 pd glitch.counter;
#N canvas 0 50 318 172 dropped.counter 0;
#X obj 24 74 f;
#X obj 24 94 + 1;
#X obj 24 116 s \$0.dropped;
#X obj 68 51 r \$0.on.off;
#X obj 68 71 sel 1;
#X msg 68 91 0;
#X obj 24 13 inlet;
#X connect 0 0 1 0;
#X connect 1 0 0 1;
#X connect 1 0 2 0;
#X connect 3 0 4 0;
#X connect 4 0 5 0;
#X connect 5 0 2 0;
#X connect 5 0 0 1;
#X connect 6 0 0 0;
#X restore 318 600 pd dropped.counter;
#X obj 65 546 table \$0.ringbuffer 100;
#X obj 29 290 mod 100;
#X obj 322 468 mod 100;
#X obj 51 91 outlet;
#X obj 14 455 outlet;
#N canvas 511 315 382 251 offset.compensation 0;
#X obj 121 148 spigot 1;
#X obj 121 168 t a b;
#X msg 187 156 0;
#X msg 166 123 1;
#X obj 94 129 t a a;
#X obj 94 188 -;
#X obj 94 30 inlet;
#X obj 94 232 outlet;
#X obj 139 31 r \$0.on.off;
#X obj 166 92 sel 1;
#X obj 94 76 spigot;
#X obj 139 51 t a a;
#X connect 0 0 1 0;
#X connect 1 0 5 1;
#X connect 1 1 2 0;
#X connect 2 0 0 1;
#X connect 3 0 0 1;
#X connect 4 0 5 0;
#X connect 4 1 0 0;
#X connect 5 0 7 0;
#X connect 6 0 10 0;
#X connect 8 0 11 0;
#X connect 9 0 3 0;
#X connect 10 0 4 0;
#X connect 11 0 10 1;
#X connect 11 1 9 0;
#X restore 14 381 pd offset.compensation;
#N canvas 822 377 710 558 continuous.sequence 0;
#X obj 244 181 moses 64;
#X obj 289 202 moses 192;
#X msg 289 247 0;
#X msg 340 248 1;
#X obj 289 280 change;
#X obj 289 300 sel 1;
#X obj 289 320 f;
#X obj 289 340 + 1;
#X obj 289 360 t a a;
#X msg 457 264 0;
#X obj 289 390 * 256;
#X obj 118 284 moses 128;
#X obj 118 433 +;
#X obj 169 383 +;
#X obj 211 317 sel 0;
#X obj 211 346 f;
#X obj 118 468 t a;
#X obj 118 129 t a a;
#X obj 272 82 loadbang;
#X msg 272 102 65536;
#X obj 272 130 t a a a a;
#X obj 289 157 * 0.25;
#X obj 340 180 * 0.75;
#X obj 169 258 * 0.5;
#X obj 118 16 inlet;
#X obj 118 504 outlet;
#X obj 430 175 r \$0.on.off;
#X obj 430 195 sel 1;
#X obj 430 215 t b b;
#X msg 430 241 -1;
#X text 248 19 converts incoming number stream that wraps at 65536
to continuous stream;
#X obj 289 454 mod;
#X obj 329 469 << 24;
#X obj 329 428 loadbang;
#X msg 329 448 1;
#X connect 0 1 1 0;
#X connect 1 0 2 0;
#X connect 1 1 3 0;
#X connect 2 0 4 0;
#X connect 3 0 4 0;
#X connect 4 0 5 0;
#X connect 4 0 14 0;
#X connect 5 0 6 0;
#X connect 6 0 7 0;
#X connect 7 0 8 0;
#X connect 8 0 10 0;
#X connect 8 1 6 1;
#X connect 9 0 8 0;
#X connect 9 0 15 0;
#X connect 10 0 31 0;
#X connect 11 0 12 0;
#X connect 11 1 13 0;
#X connect 12 0 16 0;
#X connect 13 0 16 0;
#X connect 14 0 15 0;
#X connect 15 0 13 1;
#X connect 16 0 25 0;
#X connect 17 0 11 0;
#X connect 17 1 0 0;
#X connect 18 0 19 0;
#X connect 19 0 20 0;
#X connect 20 0 23 0;
#X connect 20 1 21 0;
#X connect 20 2 22 0;
#X connect 20 3 10 1;
#X connect 21 0 0 1;
#X connect 22 0 1 1;
#X connect 23 0 11 1;
#X connect 24 0 17 0;
#X connect 26 0 27 0;
#X connect 27 0 28 0;
#X connect 28 0 29 0;
#X connect 28 1 9 0;
#X connect 29 0 4 0;
#X connect 31 0 15 1;
#X connect 31 0 12 1;
#X connect 32 0 31 1;
#X connect 33 0 34 0;
#X connect 34 0 32 0;
#X restore 14 353 pd continuous.sequence;
#N canvas 398 50 408 408 validate_params 0;
#X obj 11 12 inlet;
#X obj 11 363 outlet;
#X msg 98 293 1;
#N canvas 697 197 362 296 buffersize 0;
#X obj 7 20 inlet;
#X msg 17 239 0;
#X obj 17 259 outlet;
#X msg 7 42 \$11 \$12;
#X obj 7 62 unpack f f;
#X obj 64 83 << 8;
#X obj 7 108 |;
#X obj 115 102 r \$0.blocksize;
#X obj 7 154 sel;
#X obj 70 208 pack f f;
#X obj 22 177 t a b;
#X msg 70 229 blocksize mismatch: received \$1 configured \$2;
#X obj 70 249 s \$0.error;
#X connect 0 0 3 0;
#X connect 1 0 2 0;
#X connect 3 0 4 0;
#X connect 4 0 6 0;
#X connect 4 1 5 0;
#X connect 5 0 6 1;
#X connect 6 0 8 0;
#X connect 7 0 8 1;
#X connect 7 0 9 1;
#X connect 8 1 10 0;
#X connect 9 0 11 0;
#X connect 10 0 9 0;
#X connect 10 1 1 0;
#X connect 11 0 12 0;
#X restore 83 139 pd buffersize;
#N canvas 697 197 438 371 samplerate 0;
#X obj 7 20 inlet;
#X msg 49 258 0;
#X obj 49 282 outlet;
#X msg 7 46 \$13;
#X obj 7 69 sel 0 1 2 3 4 5 6;
#X msg 7 98 22050;
#X msg 46 98 32000;
#X msg 85 98 44100;
#X msg 124 98 48000;
#X msg 163 98 88200;
#X msg 202 98 96000;
#X msg 241 98 192000;
#X obj 7 142 t a;
#X obj 159 139 r \$0.samplerate;
#X obj 7 172 sel;
#X obj 22 195 t a b;
#X obj 114 227 pack f f;
#X msg 114 247 samplerate mismatch: received \$1 configured \$2;
#X obj 114 281 s \$0.error;
#X connect 0 0 3 0;
#X connect 1 0 2 0;
#X connect 3 0 4 0;
#X connect 4 0 5 0;
#X connect 4 1 6 0;
#X connect 4 2 7 0;
#X connect 4 3 8 0;
#X connect 4 4 9 0;
#X connect 4 5 10 0;
#X connect 4 6 11 0;
#X connect 5 0 12 0;
#X connect 6 0 12 0;
#X connect 7 0 12 0;
#X connect 8 0 12 0;
#X connect 9 0 12 0;
#X connect 10 0 12 0;
#X connect 11 0 12 0;
#X connect 12 0 14 0;
#X connect 13 0 14 1;
#X connect 13 0 16 1;
#X connect 14 1 15 0;
#X connect 15 0 16 0;
#X connect 15 1 1 0;
#X connect 16 0 17 0;
#X connect 17 0 18 0;
#X restore 69 162 pd samplerate;
#N canvas 697 197 387 311 bitres 0;
#X obj 7 20 inlet;
#X msg 49 239 0;
#X obj 49 263 outlet;
#X msg 7 63 \$14;
#X obj 7 139 sel;
#X obj 142 77 r \$0.bitres;
#X obj 22 165 t a b;
#X obj 97 196 pack f f;
#X msg 97 219 bitrate mismatch: received \$1 (configured \$2);
#X obj 97 257 s \$0.error;
#X connect 0 0 3 0;
#X connect 1 0 2 0;
#X connect 3 0 4 0;
#X connect 4 1 6 0;
#X connect 5 0 4 1;
#X connect 5 0 7 1;
#X connect 6 0 7 0;
#X connect 6 1 1 0;
#X connect 7 0 8 0;
#X connect 8 0 9 0;
#X restore 54 184 pd bitres;
#N canvas 697 197 412 298 inchannels 0;
#X obj 7 20 inlet;
#X msg 49 234 0;
#X obj 49 254 outlet;
#X msg 7 59 \$15;
#X obj 7 106 sel;
#X obj 148 67 r \$0.channels;
#X obj 22 135 t a b;
#X obj 103 166 pack f f;
#X msg 103 188 inchannels mismatch: received \$1 (configured \$2);
#X obj 103 214 s \$0.error;
#X connect 0 0 3 0;
#X connect 1 0 2 0;
#X connect 3 0 4 0;
#X connect 4 1 6 0;
#X connect 5 0 4 1;
#X connect 5 0 7 1;
#X connect 6 0 7 0;
#X connect 6 1 1 0;
#X connect 7 0 8 0;
#X connect 8 0 9 0;
#X restore 40 205 pd inchannels;
#X obj 11 56 t a a a a a a b;
#N canvas 697 197 412 298 outchannels 0;
#X obj 7 20 inlet;
#X msg 49 234 0;
#X obj 49 254 outlet;
#X obj 7 106 sel;
#X obj 148 67 r \$0.channels;
#X obj 22 135 t a b;
#X obj 103 166 pack f f;
#X obj 103 214 s \$0.error;
#X msg 7 59 \$16;
#X msg 103 188 outchannels mismatch: received \$1 (configured \$2)
;
#X connect 0 0 8 0;
#X connect 1 0 2 0;
#X connect 3 1 5 0;
#X connect 4 0 3 1;
#X connect 4 0 6 1;
#X connect 5 0 6 0;
#X connect 5 1 1 0;
#X connect 6 0 9 0;
#X connect 8 0 3 0;
#X connect 9 0 7 0;
#X restore 25 225 pd outchannels;
#X obj 11 319 spigot 0;
#X connect 0 0 7 0;
#X connect 2 0 9 1;
#X connect 3 0 9 1;
#X connect 4 0 9 1;
#X connect 5 0 9 1;
#X connect 6 0 9 1;
#X connect 7 0 9 0;
#X connect 7 2 6 0;
#X connect 7 3 5 0;
#X connect 7 4 4 0;
#X connect 7 5 3 0;
#X connect 7 6 2 0;
#X connect 9 0 1 0;
#X restore 14 128 pd validate_params;
#N canvas 0 50 450 300 check_payload_length 0;
#X obj 82 65 list length;
#X obj 97 111 r \$0.payload.length;
#X obj 55 17 inlet;
#X obj 55 37 t a a;
#X obj 82 145 ==;
#X obj 55 195 spigot;
#X obj 82 165 t a a;
#X obj 109 185 sel 0;
#X msg 109 224 wrong payload size \$1;
#X obj 82 85 t a a;
#X obj 109 205 f;
#X obj 109 244 s \$0.error;
#X obj 55 261 outlet;
#X connect 0 0 9 0;
#X connect 1 0 4 1;
#X connect 2 0 3 0;
#X connect 3 0 5 0;
#X connect 3 1 0 0;
#X connect 4 0 6 0;
#X connect 5 0 12 0;
#X connect 6 0 5 1;
#X connect 6 1 7 0;
#X connect 7 0 10 0;
#X connect 8 0 11 0;
#X connect 9 0 4 0;
#X connect 9 1 10 1;
#X connect 10 0 8 0;
#X restore 51 71 pd check_payload_length;
#X connect 0 0 1 0;
#X connect 1 0 34 0;
#X connect 1 1 35 0;
#X connect 2 0 4 0;
#X connect 2 1 3 0;
#X connect 3 0 4 1;
#X connect 4 0 24 0;
#X connect 5 0 6 0;
#X connect 7 0 10 0;
#X connect 8 0 9 0;
#X connect 10 0 16 0;
#X connect 11 0 10 1;
#X connect 12 0 15 1;
#X connect 14 0 15 0;
#X connect 14 1 29 0;
#X connect 14 2 11 0;
#X connect 15 1 19 0;
#X connect 16 0 14 0;
#X connect 18 0 13 0;
#X connect 19 0 26 0;
#X connect 19 1 17 0;
#X connect 19 2 25 0;
#X connect 20 0 2 0;
#X connect 23 0 28 0;
#X connect 23 1 5 1;
#X connect 24 0 33 0;
#X connect 24 1 23 0;
#X connect 24 2 18 0;
#X connect 24 3 22 0;
#X connect 24 4 21 0;
#X connect 28 0 5 0;
#X connect 29 0 12 0;
#X connect 32 0 31 0;
#X connect 33 0 32 0;
#X connect 34 0 20 0;
#X connect 35 0 30 0;
#X restore 546 22 pd receiver;
#N canvas 745 406 354 268 connection 0;
#X msg 39 189 disconnect;
#X obj 13 213 s \$0.to.udp;
#X msg 13 167 connect telematic.zhdk.ch \$1;
#X obj 13 81 f;
#X obj 52 82 r \$0.port.offset;
#X obj 13 101 + 4464;
#X obj 13 38 r \$0.on.off;
#X obj 13 61 sel 1;
#X obj 13 123 change -1;
#X obj 13 143 t a b;
#X connect 0 0 1 0;
#X connect 2 0 1 0;
#X connect 3 0 5 0;
#X connect 4 0 3 1;
#X connect 5 0 8 0;
#X connect 6 0 7 0;
#X connect 7 0 3 0;
#X connect 8 0 9 0;
#X connect 9 0 2 0;
#X connect 9 1 0 0;
#X restore 11 31 pd connection;
#X obj 966 19 nbx 5 14 0 65535 0 0 \$0.bla \$0.sequence empty 0 -8
0 10 -262130 -1 -1 7021 256;
#X text 1022 19 seq;
#X obj 1015 144 nbx 2 14 2 99 0 0 \$0.queue \$0.queue empty 0 -8 0
10 -204800 -1 -1 4 256;
#X text 995 144 -q;
#X obj 829 168 cnv 15 220 40 empty empty empty 20 12 0 14 -233017 -66577
0;
#X text 886 171 DROPPED;
#X text 939 171 OOORDER;
#X obj 887 189 nbx 4 14 -1e+37 1e+37 0 0 \$0.bla \$0.dropped empty
0 -8 0 10 -262130 -1 -1 0 256;
#X obj 940 189 nbx 4 14 -1e+37 1e+37 0 0 \$0.bla \$0.outoforder empty
0 -8 0 10 -262130 -1 -1 0 256;
#X text 834 172 GLITCH;
#X obj 835 189 nbx 4 14 -1e+37 1e+37 0 0 \$0.bla \$0.glitch empty 0
-8 0 10 -262130 -1 -1 0 256;
#X obj 829 47 cnv 15 220 40 empty empty empty 20 12 0 14 -233017 -66577
0;
#X obj 831 66 nbx 5 14 -1e+37 1e+37 0 0 \$0.bla \$0.udp.packet.size
empty 0 -8 0 10 -262130 -1 -1 528 256;
#X obj 891 66 nbx 5 14 -1e+37 1e+37 0 0 \$0.bla \$0.bandwidth empty
0 -8 0 10 -262130 -1 -1 1.644 256;
#X obj 951 66 nbx 5 14 -1e+37 1e+37 0 0 \$0.bla \$0.samplerate empty
0 -8 0 10 -262130 -1 -1 48000 256;
#X text 950 49 sr;
#N canvas 220 524 587 355 calculate.metrics 0;
#X obj 14 14 loadbang;
#X obj 14 34 samplerate~;
#X obj 14 54 s \$0.samplerate;
#X obj 410 214 r \$0.payload.length;
#X obj 410 234 + 16;
#X obj 410 254 s \$0.udp.packet.size;
#X obj 264 47 r \$0.samplerate;
#X obj 195 70 list prepend;
#X obj 195 90 /;
#X obj 230 96 r \$0.udp.packet.size;
#X obj 195 191 *;
#X obj 230 156 t b a;
#X obj 195 279 s \$0.bandwidth;
#X obj 230 116 + 20;
#X text 266 124 12 Bytes: IP HEADER;
#X text 266 138 8 Bytes: UDP HEADER;
#X obj 13 193 r \$0.on.off;
#X obj 13 260 f;
#X obj 49 259 + 1;
#X obj 13 281 s \$0.seconds;
#X obj 103 218 sel 1;
#X msg 103 238 0;
#X obj 13 233 metro 1000;
#X obj 13 213 t a a;
#X obj 195 209 * 8;
#X obj 195 232 / 1000;
#X obj 195 252 / 1000;
#X obj 431 38 r \$0.bitres;
#X obj 431 58 >> 3;
#X obj 412 113 *;
#X obj 431 78 t b a;
#X obj 412 153 *;
#X obj 444 130 t b a;
#X obj 412 176 s \$0.payload.length;
#X obj 412 16 r \$0.blocksize;
#X obj 445 110 r \$0.channels;
#X text 285 280 in Mbit/second;
#X obj 195 23 r \$0.blocksize;
#X connect 0 0 1 0;
#X connect 1 0 2 0;
#X connect 3 0 4 0;
#X connect 4 0 5 0;
#X connect 6 0 7 1;
#X connect 7 0 8 0;
#X connect 8 0 10 0;
#X connect 9 0 13 0;
#X connect 10 0 24 0;
#X connect 11 0 10 0;
#X connect 11 1 10 1;
#X connect 13 0 11 0;
#X connect 16 0 23 0;
#X connect 17 0 18 0;
#X connect 17 0 19 0;
#X connect 18 0 17 1;
#X connect 20 0 21 0;
#X connect 21 0 17 1;
#X connect 22 0 17 0;
#X connect 23 0 22 0;
#X connect 23 1 20 0;
#X connect 24 0 25 0;
#X connect 25 0 26 0;
#X connect 26 0 12 0;
#X connect 27 0 28 0;
#X connect 28 0 30 0;
#X connect 29 0 31 0;
#X connect 30 0 29 0;
#X connect 30 1 29 1;
#X connect 31 0 33 0;
#X connect 32 0 31 0;
#X connect 32 1 31 1;
#X connect 34 0 29 0;
#X connect 35 0 32 0;
#X connect 37 0 7 0;
#X restore 11 51 pd calculate.metrics;
#X obj 905 19 nbx 4 14 0 65535 0 0 \$0.bla \$0.seconds empty 0 -8 0
10 -262130 -1 -1 53 256;
#X text 854 12 start;
#X text 854 23 stop;
#X text 951 20 s;
#X text 830 49 bytes/fr;
#X text 890 49 Mb/s;
#X obj 11 91 precalculated_tables;
#X obj 14 151 inlet~;
#X msg 138 372 blocksize \$1;
#X obj 53 396 netpd-tabdump16 \$0.inbuffer;
#X obj 609 60 netpd-tabwrite16 \$0.recvbuffer;
#N canvas 251 343 359 309 gui.stuff 0;
#X obj 20 208 t b a;
#X msg 20 228 64;
#X obj 20 248 <<;
#X obj 20 188 r \$0.blocksize.s;
#X obj 20 268 s \$0.blocksize;
#X obj 22 90 log;
#X obj 22 110 /;
#X obj 75 92 log;
#X msg 75 70 2;
#X obj 75 48 loadbang;
#X obj 22 132 - 6;
#X msg 21 150 set \$1;
#X obj 21 170 s \$0.blocksize.r;
#X obj 22 19 r \$0.blocksize;
#X connect 0 0 1 0;
#X connect 0 1 2 1;
#X connect 1 0 2 0;
#X connect 2 0 4 0;
#X connect 3 0 0 0;
#X connect 5 0 6 0;
#X connect 6 0 10 0;
#X connect 7 0 6 1;
#X connect 8 0 7 0;
#X connect 9 0 8 0;
#X connect 10 0 11 0;
#X connect 11 0 12 0;
#X connect 13 0 5 0;
#X restore 11 111 pd gui.stuff;
#X obj 320 16 bng 15 250 50 0 empty empty empty 17 7 0 10 -262144 -1
-1;
#N canvas 0 50 835 214 reblocked_input 0;
#X obj 17 22 inlet~;
#X obj 618 83 block~;
#X msg 618 57 set \$1 1 1;
#X obj 11 164 bang~;
#X obj 11 190 outlet;
#X obj 618 21 r \$0.blocksize;
#X obj 17 115 tabsend~ \$0.inbuffer.0;
#X obj 67 22 inlet~;
#X obj 117 22 inlet~;
#X obj 167 22 inlet~;
#X obj 67 95 tabsend~ \$0.inbuffer.1;
#X obj 118 75 tabsend~ \$0.inbuffer.2;
#X obj 167 55 tabsend~ \$0.inbuffer.3;
#X obj 277 22 inlet~;
#X obj 327 22 inlet~;
#X obj 377 22 inlet~;
#X obj 427 22 inlet~;
#X obj 277 115 tabsend~ \$0.inbuffer.4;
#X obj 327 95 tabsend~ \$0.inbuffer.5;
#X obj 378 75 tabsend~ \$0.inbuffer.6;
#X obj 427 55 tabsend~ \$0.inbuffer.7;
#X connect 0 0 6 0;
#X connect 2 0 1 0;
#X connect 3 0 4 0;
#X connect 5 0 2 0;
#X connect 7 0 10 0;
#X connect 8 0 11 0;
#X connect 9 0 12 0;
#X connect 13 0 17 0;
#X connect 14 0 18 0;
#X connect 15 0 19 0;
#X connect 16 0 20 0;
#X restore 14 204 pd reblocked_input _ _ _ _ _ _ _ _ _ _ _ _ _ _ _
_ _ _ _ _ _;
#X obj 65 151 inlet~;
#X obj 116 151 inlet~;
#X obj 167 151 inlet~;
#X obj 218 151 inlet~;
#X obj 269 151 inlet~;
#X obj 320 151 inlet~;
#X obj 371 151 inlet~;
#X obj 138 351 r \$0.blocksize;
#N canvas 989 688 476 237 manage.buffers 0;
#X obj 15 11 r \$0.blocksize;
#X msg 15 35 resize \$1;
#X obj 75 62 s \$0.inbuffer.0;
#X obj 75 82 s \$0.inbuffer.1;
#X obj 75 102 s \$0.inbuffer.2;
#X obj 75 122 s \$0.inbuffer.3;
#X obj 75 142 s \$0.inbuffer.4;
#X obj 75 162 s \$0.inbuffer.5;
#X obj 75 182 s \$0.inbuffer.6;
#X obj 75 202 s \$0.inbuffer.7;
#X msg 231 164 resize \$1;
#X obj 231 184 s \$0.recvbuffer;
#X obj 231 16 r \$0.blocksize;
#X obj 244 37 r \$0.channels;
#X obj 244 57 t b a;
#X obj 231 82 *;
#X obj 359 83 r \$0.queue;
#X obj 231 102 t a a;
#X obj 359 103 t b a;
#X obj 359 130 *;
#X msg 359 165 resize \$1;
#X obj 359 185 s \$0.queuebuffer;
#X connect 0 0 1 0;
#X connect 1 0 2 0;
#X connect 1 0 3 0;
#X connect 1 0 4 0;
#X connect 1 0 5 0;
#X connect 1 0 6 0;
#X connect 1 0 7 0;
#X connect 1 0 8 0;
#X connect 1 0 9 0;
#X connect 10 0 11 0;
#X connect 12 0 15 0;
#X connect 13 0 14 0;
#X connect 14 0 15 0;
#X connect 14 1 15 1;
#X connect 15 0 17 0;
#X connect 16 0 18 0;
#X connect 17 0 10 0;
#X connect 17 1 19 0;
#X connect 18 0 19 0;
#X connect 18 1 19 1;
#X connect 19 0 20 0;
#X connect 20 0 21 0;
#X restore 11 71 pd manage.buffers;
#X obj 238 248 table \$0.inbuffer.0 128;
#X obj 238 268 table \$0.inbuffer.1 128;
#X obj 238 288 table \$0.inbuffer.2 128;
#X obj 238 308 table \$0.inbuffer.3 128;
#X obj 238 328 table \$0.inbuffer.4 128;
#X obj 238 348 table \$0.inbuffer.5 128;
#X obj 238 368 table \$0.inbuffer.6 128;
#X obj 238 388 table \$0.inbuffer.7 128;
#N canvas 0 50 336 248 iterate.channels 0;
#X obj 41 63 f;
#X obj 56 41 r \$0.channels;
#X obj 41 104 until;
#X obj 41 124 f;
#X obj 41 144 t a a;
#X obj 85 132 + 1;
#X obj 41 83 t a b;
#X msg 84 107 0;
#X obj 41 12 inlet;
#X obj 41 168 outlet;
#X connect 0 0 6 0;
#X connect 1 0 0 1;
#X connect 2 0 3 0;
#X connect 3 0 4 0;
#X connect 4 0 9 0;
#X connect 4 1 5 0;
#X connect 5 0 3 1;
#X connect 6 0 2 0;
#X connect 6 1 7 0;
#X connect 7 0 3 1;
#X connect 8 0 0 0;
#X restore 53 283 pd iterate.channels;
#N canvas 0 50 375 265 msg.box 0;
#X obj 17 14 inlet;
#X obj 17 75 outlet;
#X msg 17 42;
#X connect 0 0 2 0;
#X connect 2 0 1 0;
#X restore 33 483 pd msg.box;
#X obj 73 240 r \$0.on.off;
#X obj 14 239 spigot 0;
#X obj 53 307 list prepend \$0;
#X msg 53 330 set \$1.inbuffer.\$2 \, bang;
#X obj 53 421 list prepend add2;
#X obj 53 441 list trim;
#X msg 33 461 bang \, set;
#X obj 14 259 t b b b;
#X obj 14 538 s \$0.clock;
#X msg 263 57 \; \$1.channels 2 \; \$1.port.offset 0 \; \$1.bitres
16 \; \$1.blocksize 128 \; \$1.queue 4;
#X obj 674 362 table \$0.recvbuffer 256;
#X obj 573 123 mod;
#X obj 588 94 r \$0.queue;
#X obj 674 383 table \$0.queuebuffer 1024;
#X obj 592 186 array get \$0.recvbuffer;
#X obj 612 162 *;
#N canvas 0 50 317 194 frames 0;
#X obj 23 17 r \$0.blocksize;
#X obj 36 38 r \$0.channels;
#X obj 36 58 t b a;
#X obj 23 83 *;
#X obj 23 105 outlet;
#X connect 0 0 3 0;
#X connect 1 0 2 0;
#X connect 2 0 3 0;
#X connect 2 1 3 1;
#X connect 3 0 4 0;
#X restore 627 143 pd frames;
#X obj 573 143 t a b a;
#X obj 592 209 list prepend 0;
#X obj 592 230 s \$0.queuebuffer;
#X msg 638 34 blocksize \$1;
#N canvas 0 50 317 194 frames 0;
#X obj 23 17 r \$0.blocksize;
#X obj 36 38 r \$0.channels;
#X obj 36 58 t b a;
#X obj 23 83 *;
#X obj 23 105 outlet;
#X connect 0 0 3 0;
#X connect 1 0 2 0;
#X connect 2 0 3 0;
#X connect 2 1 3 1;
#X connect 3 0 4 0;
#X restore 638 15 pd frames;
#X obj 546 87 t a a;
#N canvas 1450 108 406 379 start.when.ready 0;
#X obj 44 192 spigot;
#X obj 77 113 r \$0.on.off;
#X obj 77 133 sel 1;
#X msg 77 172 1;
#X obj 44 86 b;
#X obj 77 153 t b b;
#X msg 104 195 0;
#X obj 44 218 f;
#X obj 44 238 + 1;
#X obj 44 258 t a a;
#X obj 102 221 r \$0.queue;
#X obj 102 241 / 2;
#X obj 44 282 moses;
#X obj 71 307 t b b;
#X msg 184 230 0;
#X obj 44 57 inlet;
#X obj 71 342 outlet;
#X text 23 11 We start playback after having received q/2 packets;
#X connect 0 0 7 0;
#X connect 1 0 2 0;
#X connect 2 0 5 0;
#X connect 3 0 0 1;
#X connect 4 0 0 0;
#X connect 5 0 3 0;
#X connect 5 1 6 0;
#X connect 6 0 7 1;
#X connect 7 0 8 0;
#X connect 8 0 9 0;
#X connect 9 0 12 0;
#X connect 9 1 7 1;
#X connect 10 0 11 0;
#X connect 11 0 12 1;
#X connect 12 1 13 0;
#X connect 13 0 16 0;
#X connect 13 1 14 0;
#X connect 14 0 0 1;
#X connect 15 0 4 0;
#X restore 546 252 pd start.when.ready;
#X obj 493 204 r \$0.clock;
#X obj 493 297 spigot;
#X msg 546 272 1;
#X obj 603 276 r \$0.on.off;
#X obj 603 296 sel 0;
#X msg 603 317 0;
#X obj 493 346 f;
#X obj 493 386 t a a;
#X obj 538 379 + 1;
#X obj 493 412 *;
#N canvas 0 50 317 194 frames 0;
#X obj 23 17 r \$0.blocksize;
#X obj 36 38 r \$0.channels;
#X obj 36 58 t b a;
#X obj 23 83 *;
#X obj 23 105 outlet;
#X connect 0 0 3 0;
#X connect 1 0 2 0;
#X connect 2 0 3 0;
#X connect 2 1 3 1;
#X connect 3 0 4 0;
#X restore 534 405 pd frames;
#X obj 493 366 mod;
#X obj 533 347 r \$0.queue;
#N canvas 0 50 493 290 playback_from_queuebuffer 0;
#X obj 8 259 outlet~;
#X obj 58 259 outlet~;
#X obj 108 259 outlet~;
#X obj 158 259 outlet~;
#X obj 208 259 outlet~;
#X obj 258 259 outlet~;
#X obj 308 259 outlet~;
#X obj 358 259 outlet~;
#X obj 8 14 inlet;
#N canvas 417 185 365 334 play_channel 0;
#X obj 27 220 tabplay~ \$0.queuebuffer;
#X obj 27 170 +;
#X obj 27 15 inlet;
#X obj 28 262 outlet~;
#X obj 91 17 inlet;
#X obj 153 14 r \$0.channels;
#X obj 86 103 r \$0.blocksize;
#X obj 91 70 <;
#X obj 27 97 spigot;
#X obj 27 193 pack f f;
#X obj 153 34 t b a;
#X obj 91 37 t a a;
#X obj 86 146 *;
#X obj 86 123 t b a a;
#X connect 0 0 3 0;
#X connect 1 0 9 0;
#X connect 2 0 8 0;
#X connect 4 0 11 0;
#X connect 5 0 10 0;
#X connect 6 0 13 0;
#X connect 7 0 8 1;
#X connect 8 0 1 0;
#X connect 9 0 0 0;
#X connect 10 0 7 0;
#X connect 10 1 7 1;
#X connect 11 0 7 0;
#X connect 11 1 12 0;
#X connect 12 0 1 1;
#X connect 13 0 12 0;
#X connect 13 1 12 1;
#X connect 13 2 9 1;
#X restore 8 97 pd play_channel;
#X msg 95 72 0;
#N canvas 417 185 365 334 play_channel 0;
#X obj 27 220 tabplay~ \$0.queuebuffer;
#X obj 27 170 +;
#X obj 27 15 inlet;
#X obj 28 262 outlet~;
#X obj 91 17 inlet;
#X obj 153 14 r \$0.channels;
#X obj 86 103 r \$0.blocksize;
#X obj 91 70 <;
#X obj 27 97 spigot;
#X obj 27 193 pack f f;
#X obj 153 34 t b a;
#X obj 91 37 t a a;
#X obj 86 146 *;
#X obj 86 123 t b a a;
#X connect 0 0 3 0;
#X connect 1 0 9 0;
#X connect 2 0 8 0;
#X connect 4 0 11 0;
#X connect 5 0 10 0;
#X connect 6 0 13 0;
#X connect 7 0 8 1;
#X connect 8 0 1 0;
#X connect 9 0 0 0;
#X connect 10 0 7 0;
#X connect 10 1 7 1;
#X connect 11 0 7 0;
#X connect 11 1 12 0;
#X connect 12 0 1 1;
#X connect 13 0 12 0;
#X connect 13 1 12 1;
#X connect 13 2 9 1;
#X restore 58 117 pd play_channel;
#N canvas 417 185 365 334 play_channel 0;
#X obj 27 220 tabplay~ \$0.queuebuffer;
#X obj 27 170 +;
#X obj 27 15 inlet;
#X obj 28 262 outlet~;
#X obj 91 17 inlet;
#X obj 153 14 r \$0.channels;
#X obj 86 103 r \$0.blocksize;
#X obj 91 70 <;
#X obj 27 97 spigot;
#X obj 27 193 pack f f;
#X obj 153 34 t b a;
#X obj 91 37 t a a;
#X obj 86 146 *;
#X obj 86 123 t b a a;
#X connect 0 0 3 0;
#X connect 1 0 9 0;
#X connect 2 0 8 0;
#X connect 4 0 11 0;
#X connect 5 0 10 0;
#X connect 6 0 13 0;
#X connect 7 0 8 1;
#X connect 8 0 1 0;
#X connect 9 0 0 0;
#X connect 10 0 7 0;
#X connect 10 1 7 1;
#X connect 11 0 7 0;
#X connect 11 1 12 0;
#X connect 12 0 1 1;
#X connect 13 0 12 0;
#X connect 13 1 12 1;
#X connect 13 2 9 1;
#X restore 108 137 pd play_channel;
#N canvas 417 185 365 334 play_channel 0;
#X obj 27 220 tabplay~ \$0.queuebuffer;
#X obj 27 170 +;
#X obj 27 15 inlet;
#X obj 28 262 outlet~;
#X obj 91 17 inlet;
#X obj 153 14 r \$0.channels;
#X obj 86 103 r \$0.blocksize;
#X obj 91 70 <;
#X obj 27 97 spigot;
#X obj 27 193 pack f f;
#X obj 153 34 t b a;
#X obj 91 37 t a a;
#X obj 86 146 *;
#X obj 86 123 t b a a;
#X connect 0 0 3 0;
#X connect 1 0 9 0;
#X connect 2 0 8 0;
#X connect 4 0 11 0;
#X connect 5 0 10 0;
#X connect 6 0 13 0;
#X connect 7 0 8 1;
#X connect 8 0 1 0;
#X connect 9 0 0 0;
#X connect 10 0 7 0;
#X connect 10 1 7 1;
#X connect 11 0 7 0;
#X connect 11 1 12 0;
#X connect 12 0 1 1;
#X connect 13 0 12 0;
#X connect 13 1 12 1;
#X connect 13 2 9 1;
#X restore 158 157 pd play_channel;
#N canvas 417 185 365 334 play_channel 0;
#X obj 27 220 tabplay~ \$0.queuebuffer;
#X obj 27 170 +;
#X obj 27 15 inlet;
#X obj 28 262 outlet~;
#X obj 91 17 inlet;
#X obj 153 14 r \$0.channels;
#X obj 86 103 r \$0.blocksize;
#X obj 91 70 <;
#X obj 27 97 spigot;
#X obj 27 193 pack f f;
#X obj 153 34 t b a;
#X obj 91 37 t a a;
#X obj 86 146 *;
#X obj 86 123 t b a a;
#X connect 0 0 3 0;
#X connect 1 0 9 0;
#X connect 2 0 8 0;
#X connect 4 0 11 0;
#X connect 5 0 10 0;
#X connect 6 0 13 0;
#X connect 7 0 8 1;
#X connect 8 0 1 0;
#X connect 9 0 0 0;
#X connect 10 0 7 0;
#X connect 10 1 7 1;
#X connect 11 0 7 0;
#X connect 11 1 12 0;
#X connect 12 0 1 1;
#X connect 13 0 12 0;
#X connect 13 1 12 1;
#X connect 13 2 9 1;
#X restore 208 177 pd play_channel;
#N canvas 417 185 365 334 play_channel 0;
#X obj 27 220 tabplay~ \$0.queuebuffer;
#X obj 27 170 +;
#X obj 27 15 inlet;
#X obj 28 262 outlet~;
#X obj 91 17 inlet;
#X obj 153 14 r \$0.channels;
#X obj 86 103 r \$0.blocksize;
#X obj 91 70 <;
#X obj 27 97 spigot;
#X obj 27 193 pack f f;
#X obj 153 34 t b a;
#X obj 91 37 t a a;
#X obj 86 146 *;
#X obj 86 123 t b a a;
#X connect 0 0 3 0;
#X connect 1 0 9 0;
#X connect 2 0 8 0;
#X connect 4 0 11 0;
#X connect 5 0 10 0;
#X connect 6 0 13 0;
#X connect 7 0 8 1;
#X connect 8 0 1 0;
#X connect 9 0 0 0;
#X connect 10 0 7 0;
#X connect 10 1 7 1;
#X connect 11 0 7 0;
#X connect 11 1 12 0;
#X connect 12 0 1 1;
#X connect 13 0 12 0;
#X connect 13 1 12 1;
#X connect 13 2 9 1;
#X restore 258 197 pd play_channel;
#N canvas 417 185 365 334 play_channel 0;
#X obj 27 220 tabplay~ \$0.queuebuffer;
#X obj 27 170 +;
#X obj 27 15 inlet;
#X obj 28 262 outlet~;
#X obj 91 17 inlet;
#X obj 153 14 r \$0.channels;
#X obj 86 103 r \$0.blocksize;
#X obj 91 70 <;
#X obj 27 97 spigot;
#X obj 27 193 pack f f;
#X obj 153 34 t b a;
#X obj 91 37 t a a;
#X obj 86 146 *;
#X obj 86 123 t b a a;
#X connect 0 0 3 0;
#X connect 1 0 9 0;
#X connect 2 0 8 0;
#X connect 4 0 11 0;
#X connect 5 0 10 0;
#X connect 6 0 13 0;
#X connect 7 0 8 1;
#X connect 8 0 1 0;
#X connect 9 0 0 0;
#X connect 10 0 7 0;
#X connect 10 1 7 1;
#X connect 11 0 7 0;
#X connect 11 1 12 0;
#X connect 12 0 1 1;
#X connect 13 0 12 0;
#X connect 13 1 12 1;
#X connect 13 2 9 1;
#X restore 308 217 pd play_channel;
#N canvas 417 185 365 334 play_channel 0;
#X obj 27 220 tabplay~ \$0.queuebuffer;
#X obj 27 170 +;
#X obj 27 15 inlet;
#X obj 28 262 outlet~;
#X obj 91 17 inlet;
#X obj 153 14 r \$0.channels;
#X obj 86 103 r \$0.blocksize;
#X obj 91 70 <;
#X obj 27 97 spigot;
#X obj 27 193 pack f f;
#X obj 153 34 t b a;
#X obj 91 37 t a a;
#X obj 86 146 *;
#X obj 86 123 t b a a;
#X connect 0 0 3 0;
#X connect 1 0 9 0;
#X connect 2 0 8 0;
#X connect 4 0 11 0;
#X connect 5 0 10 0;
#X connect 6 0 13 0;
#X connect 7 0 8 1;
#X connect 8 0 1 0;
#X connect 9 0 0 0;
#X connect 10 0 7 0;
#X connect 10 1 7 1;
#X connect 11 0 7 0;
#X connect 11 1 12 0;
#X connect 12 0 1 1;
#X connect 13 0 12 0;
#X connect 13 1 12 1;
#X connect 13 2 9 1;
#X restore 358 237 pd play_channel;
#X msg 145 72 1;
#X msg 195 72 2;
#X msg 245 72 3;
#X msg 295 72 4;
#X msg 345 72 5;
#X msg 395 72 6;
#X msg 445 72 7;
#X obj 270 20 loadbang;
#X connect 8 0 9 0;
#X connect 8 0 11 0;
#X connect 8 0 12 0;
#X connect 8 0 13 0;
#X connect 8 0 14 0;
#X connect 8 0 15 0;
#X connect 8 0 16 0;
#X connect 8 0 17 0;
#X connect 9 0 0 0;
#X connect 10 0 9 1;
#X connect 11 0 1 0;
#X connect 12 0 2 0;
#X connect 13 0 3 0;
#X connect 14 0 4 0;
#X connect 15 0 5 0;
#X connect 16 0 6 0;
#X connect 17 0 7 0;
#X connect 18 0 11 1;
#X connect 19 0 12 1;
#X connect 20 0 13 1;
#X connect 21 0 14 1;
#X connect 22 0 15 1;
#X connect 23 0 16 1;
#X connect 24 0 17 1;
#X connect 25 0 10 0;
#X connect 25 0 18 0;
#X connect 25 0 19 0;
#X connect 25 0 20 0;
#X connect 25 0 21 0;
#X connect 25 0 22 0;
#X connect 25 0 23 0;
#X connect 25 0 24 0;
#X restore 493 444 pd playback_from_queuebuffer _ _ _ _ _ _ _ _ _ _
_ _ _ _ _;
#X obj 493 470 outlet~;
#X obj 542 470 outlet~;
#X obj 591 470 outlet~;
#X obj 640 470 outlet~;
#X obj 690 470 outlet~;
#X obj 739 470 outlet~;
#X obj 788 470 outlet~;
#X obj 838 470 outlet~;
#X obj 444 13 inlet;
#N canvas 249 307 509 221 parse.methods 0;
#X obj 14 9 inlet;
#X obj 165 178 s \$0.channels;
#X obj 215 161 s \$0.blocksize;
#X obj 265 143 s \$0.queue;
#X obj 14 92 b;
#X obj 39 92 b;
#X msg 14 116 1;
#X msg 39 116 0;
#X obj 14 31 route 1 0;
#X obj 14 145 s \$0.on.off;
#X obj 65 56 route start stop channels blocksize queue portoffset status
;
#X obj 365 107 s \$0.print.status;
#X obj 315 125 s \$0.port.offset;
#X connect 0 0 8 0;
#X connect 4 0 6 0;
#X connect 5 0 7 0;
#X connect 6 0 9 0;
#X connect 7 0 9 0;
#X connect 8 0 4 0;
#X connect 8 1 5 0;
#X connect 8 2 10 0;
#X connect 10 0 4 0;
#X connect 10 1 5 0;
#X connect 10 2 1 0;
#X connect 10 3 2 0;
#X connect 10 4 3 0;
#X connect 10 5 12 0;
#X connect 10 6 11 0;
#X restore 444 56 pd parse.methods;
#X obj 11 11 declare -stdpath iemnet;
#X obj 922 464 outlet;
#N canvas 149 85 450 300 status_and_errors 0;
#X obj 25 264 outlet;
#X obj 25 24 r \$0.error;
#X obj 25 44 list prepend ERROR;
#X obj 25 64 list trim;
#X connect 1 0 2 0;
#X connect 2 0 3 0;
#X connect 3 0 0 0;
#X restore 922 384 pd status_and_errors;
#X connect 0 0 2 0;
#X connect 0 2 3 0;
#X connect 1 0 0 0;
#X connect 12 0 13 0;
#X connect 13 0 85 0;
#X connect 24 0 98 0;
#X connect 24 1 53 0;
#X connect 50 0 56 0;
#X connect 51 0 52 0;
#X connect 52 0 80 0;
#X connect 55 0 13 0;
#X connect 56 0 77 0;
#X connect 57 0 56 1;
#X connect 58 0 56 2;
#X connect 59 0 56 3;
#X connect 60 0 56 4;
#X connect 61 0 56 5;
#X connect 62 0 56 6;
#X connect 63 0 56 7;
#X connect 64 0 51 0;
#X connect 74 0 78 0;
#X connect 75 0 23 0;
#X connect 76 0 77 1;
#X connect 77 0 83 0;
#X connect 78 0 79 0;
#X connect 79 0 52 0;
#X connect 80 0 81 0;
#X connect 81 0 75 0;
#X connect 82 0 75 0;
#X connect 83 0 84 0;
#X connect 83 1 82 0;
#X connect 83 2 74 0;
#X connect 87 0 93 0;
#X connect 88 0 87 1;
#X connect 90 0 94 0;
#X connect 91 0 94 1;
#X connect 92 0 91 1;
#X connect 93 1 90 0;
#X connect 93 2 91 0;
#X connect 94 0 95 0;
#X connect 96 0 53 0;
#X connect 97 0 96 0;
#X connect 98 0 99 0;
#X connect 98 1 87 0;
#X connect 99 0 102 0;
#X connect 100 0 101 0;
#X connect 101 0 106 0;
#X connect 102 0 101 1;
#X connect 103 0 104 0;
#X connect 104 0 105 0;
#X connect 105 0 101 1;
#X connect 105 0 106 1;
#X connect 106 0 111 0;
#X connect 107 0 109 0;
#X connect 107 1 108 0;
#X connect 108 0 106 1;
#X connect 109 0 113 0;
#X connect 110 0 109 1;
#X connect 111 0 107 0;
#X connect 112 0 111 1;
#X connect 113 0 114 0;
#X connect 113 1 115 0;
#X connect 113 2 116 0;
#X connect 113 3 117 0;
#X connect 113 4 118 0;
#X connect 113 5 119 0;
#X connect 113 6 120 0;
#X connect 113 7 121 0;
#X connect 122 0 123 0;
#X connect 126 0 125 0;
