#N canvas 0 53 704 578 10;
#X obj 20 20 adc~ 1 2;
#X obj 20 290 dac~ 1 2;
#X obj 498 23 tgl 20 0 empty empty empty 17 7 0 10 -204786 -1 -1 0
1;
#X text 524 26 start/stop;
#X floatatom 498 63 5 1 8 0 - - -, f 5;
#X text 533 63 channels;
#X msg 498 145 blocksize \$1;
#X msg 498 114 64;
#X msg 526 114 128;
#X msg 554 114 256;
#X msg 582 114 512;
#X msg 610 114 1024;
#X floatatom 498 173 5 0 0 0 - - -, f 5;
#X floatatom 498 223 5 0 0 0 - - -, f 5;
#X text 533 173 queue size;
#X msg 498 195 queue \$1;
#X msg 498 245 portoffset \$1;
#X text 533 223 port offset;
#X msg 499 410 status;
#X obj 119 250 route ERROR STATISTICS STATUS;
#X obj 119 459 print ERROR;
#X floatatom 176 412 8 0 0 0 - - -, f 8;
#X floatatom 259 412 8 0 0 0 - - -, f 8;
#X floatatom 342 412 8 0 0 0 - - -, f 8;
#X text 174 431 dropped;
#X text 257 431 glitch;
#X text 340 431 ooo;
#X symbolatom 498 275 22 0 0 0 - - -, f 22;
#X msg 498 292 server \$1;
#X text 568 291 server;
#X obj 176 372 route dropped_count glitch_count ooo_count;
#X obj 233 324 tgl 20 0 empty empty empty 17 7 0 10 -262144 -1 -1 0
1;
#X obj 304 322 tgl 20 0 empty empty empty 17 7 0 10 -262144 -1 -1 0
1;
#X obj 20 154 jacktrip . . . . . . . . .;
#X floatatom 498 318 5 0 0 0 - - -, f 5;
#X msg 498 335 peerport \$1;
#X floatatom 498 358 5 0 0 0 - - -, f 5;
#X msg 498 375 bindport \$1;
#X msg 498 85 outchannels \$1;
#X obj 16 424 loadbang;
#X msg 16 444 dsp 1;
#X obj 16 464 s pd;
#X obj 233 295 route connected receiving inchannels;
#X obj 395 349 print STATUS;
#X floatatom 375 331 5 0 0 0 - - -, f 5;
#X symbolatom 499 435 10 0 0 0 - - -, f 10;
#X msg 499 455 enabletoken \$1;
#X msg 499 492 disabletoken;
#X connect 0 0 33 0;
#X connect 0 1 33 1;
#X connect 2 0 33 8;
#X connect 4 0 38 0;
#X connect 6 0 33 8;
#X connect 7 0 6 0;
#X connect 8 0 6 0;
#X connect 9 0 6 0;
#X connect 10 0 6 0;
#X connect 11 0 6 0;
#X connect 12 0 15 0;
#X connect 13 0 16 0;
#X connect 15 0 33 8;
#X connect 16 0 33 8;
#X connect 18 0 33 8;
#X connect 19 0 20 0;
#X connect 19 1 30 0;
#X connect 19 2 42 0;
#X connect 27 0 28 0;
#X connect 28 0 33 8;
#X connect 30 0 21 0;
#X connect 30 1 22 0;
#X connect 30 2 23 0;
#X connect 33 0 1 0;
#X connect 33 1 1 1;
#X connect 33 8 19 0;
#X connect 34 0 35 0;
#X connect 35 0 33 8;
#X connect 36 0 37 0;
#X connect 37 0 33 8;
#X connect 38 0 33 8;
#X connect 39 0 40 0;
#X connect 40 0 41 0;
#X connect 42 0 31 0;
#X connect 42 1 32 0;
#X connect 42 2 44 0;
#X connect 42 3 43 0;
#X connect 45 0 46 0;
#X connect 46 0 33 8;
#X connect 47 0 33 8;
