#N canvas 618 643 439 289 10;
#X obj 17 13 inlet;
#X obj 17 33 route float;
#X obj 80 52 route clear;
#X obj 143 110 print moving_sum;
#X obj 143 72 list prepend no method for;
#X obj 143 91 list trim;
#X obj 265 193 table \$0.values \$1;
#X obj 36 78 f;
#X obj 36 98 mod \$1;
#X obj 36 118 t a a;
#X obj 106 116 + 1;
#X obj 36 153 pack f f;
#X obj 36 184 s \$0.values;
#X obj 17 56 t b b a;
#X obj 17 211 array sum \$0.values;
#X obj 17 242 outlet;
#X connect 0 0 1 0;
#X connect 1 0 13 0;
#X connect 1 1 2 0;
#X connect 2 1 4 0;
#X connect 4 0 5 0;
#X connect 5 0 3 0;
#X connect 7 0 8 0;
#X connect 8 0 9 0;
#X connect 9 0 11 0;
#X connect 9 1 10 0;
#X connect 10 0 7 1;
#X connect 11 0 12 0;
#X connect 13 0 14 0;
#X connect 13 1 7 0;
#X connect 13 2 11 1;
#X connect 14 0 15 0;
