#N canvas 470 140 483 316 10;
#X obj 27 28 inlet~;
#X obj 27 86 *~ 32768;
#X obj 28 212 outlet~;
#X obj 124 214 outlet~;
#X obj 27 58 +~ 1;
#X obj 125 145 tabread~ TO.LSB;
#X obj 27 144 tabread~ TO.MSB;
#X connect 0 0 4 0;
#X connect 1 0 5 0;
#X connect 1 0 6 0;
#X connect 4 0 1 0;
#X connect 5 0 3 0;
#X connect 6 0 2 0;
