#N canvas 171 119 431 381 10;
#X obj 114 334 outlet;
#X obj 20 13 inlet;
#X obj 20 140 list;
#N canvas 443 388 344 105 msgbox 0;
#X obj 10 7 inlet;
#X obj 10 59 outlet;
#X msg 10 33;
#X connect 0 0 2 0;
#X connect 2 0 1 0;
#X restore 114 310 pd msgbox;
#X msg 114 282 bang \, set;
#N canvas 602 286 352 432 DSP.variant 0;
#X obj 65 138 unpack f f;
#X obj 65 158 array get \$1;
#X obj 65 178 list prepend 0;
#N canvas 529 129 378 248 DSP.processing 0;
#X obj 6 13 inlet;
#N canvas 307 284 576 264 reblock_upsampled_by_2 0;
#X obj 15 20 inlet;
#X obj 260 96 rzero_rev~ 0;
#X text 345 93 <- one sample delay;
#X obj 269 169 +~;
#X obj 268 33 inlet~ pad;
#X obj 347 35 inlet~ pad;
#X obj 268 201 tabsend~ \$0.out.segment;
#X obj 15 98 switch~ 2048 1 2;
#X obj 83 19 inlet;
#X obj 83 39 * 2;
#X msg 83 59 set \$1 1 2;
#X connect 0 0 7 0;
#X connect 1 0 3 0;
#X connect 3 0 6 0;
#X connect 4 0 1 0;
#X connect 5 0 3 1;
#X connect 8 0 9 0;
#X connect 9 0 10 0;
#X connect 10 0 7 0;
#X restore 6 194 pd reblock_upsampled_by_2;
#X obj 79 120 tabreceive~ \$0.in.segment;
#X obj 6 55 t b b;
#X obj 33 83 switch~ 1024 1 1;
#X obj 79 142 netpd-sig-to-16bit~;
#X obj 128 17 inlet;
#X obj 128 37 t a a;
#X msg 128 59 set \$1 1 1;
#X connect 0 0 3 0;
#X connect 2 0 5 0;
#X connect 3 0 1 0;
#X connect 3 1 4 0;
#X connect 5 0 1 2;
#X connect 5 1 1 3;
#X connect 6 0 7 0;
#X connect 7 0 8 0;
#X connect 7 1 1 1;
#X connect 8 0 4 0;
#X restore 45 226 pd DSP.processing;
#X msg 26 251 \$2;
#X obj 26 273 * 2;
#X obj 65 198 s \$0.in.segment;
#X obj 26 118 t a b a;
#X obj 26 293 t b a;
#X obj 26 341 list prepend add2;
#X obj 26 316 array get \$0.out.segment;
#X obj 26 363 list trim;
#X obj 26 17 inlet;
#X obj 26 383 outlet;
#X obj 211 20 inlet;
#X obj 26 89 pack 0 1024;
#X obj 89 13 inlet;
#X obj 89 45 t a a;
#X connect 0 0 1 0;
#X connect 0 1 1 1;
#X connect 1 0 2 0;
#X connect 2 0 6 0;
#X connect 4 0 5 0;
#X connect 5 0 8 0;
#X connect 7 0 4 0;
#X connect 7 1 3 0;
#X connect 7 2 0 0;
#X connect 8 0 10 0;
#X connect 8 1 10 1;
#X connect 9 0 11 0;
#X connect 10 0 9 0;
#X connect 11 0 13 0;
#X connect 12 0 15 0;
#X connect 14 0 1 2;
#X connect 15 0 7 0;
#X connect 16 0 17 0;
#X connect 17 0 15 1;
#X connect 17 1 3 1;
#X restore 141 219 pd DSP.variant;
#X obj 141 259 t a;
#X obj 20 38 route set blocksize bang;
#X obj 114 67 t b b;
#X obj 264 14 table \$0.in.segment 4096;
#X obj 264 33 table \$0.out.segment 8192;
#X connect 1 0 7 0;
#X connect 2 0 5 2;
#X connect 3 0 0 0;
#X connect 4 0 3 0;
#X connect 5 0 6 0;
#X connect 6 0 3 0;
#X connect 7 0 2 0;
#X connect 7 1 5 1;
#X connect 7 2 8 0;
#X connect 8 0 4 0;
#X connect 8 1 5 0;
