#N canvas 540 50 466 375 10;
#X obj 55 300 s \$1.symbolatom.label;
#X msg 78 272 vis_size \$1 \$2;
#X msg 55 153 vis_size 4 \$1;
#X obj 55 110 sel 0 1;
#X obj 55 132 f \$5;
#X obj 78 173 list append \$4 \$5;
#X obj 55 17 r \$1.clickarea;
#X obj 55 37 sel 0;
#X obj 112 46 t a;
#X obj 208 298 s \$1.clickarea.r;
#X msg 208 262 size 0 \$1;
#X obj 278 207 unpack f f;
#X obj 278 227 - 5;
#X obj 278 247 pack f f;
#X msg 278 268 size \$1 \$2;
#X msg 55 78 0;
#X msg 173 81 1;
#X obj 254 23 r \$2;
#X obj 254 43 t b a;
#X msg 281 65 label \$1;
#X obj 281 85 s \$1.symbolatom.label;
#X obj 55 57 t b b;
#X msg 88 80 symbol empty;
#X obj 236 159 s \$3;
#X msg 236 138 set \$1;
#X msg 236 116 symbol ...;
#X connect 1 0 0 0;
#X connect 2 0 0 0;
#X connect 3 0 4 0;
#X connect 3 1 5 0;
#X connect 4 0 2 0;
#X connect 4 0 10 0;
#X connect 5 0 1 0;
#X connect 5 0 11 0;
#X connect 6 0 7 0;
#X connect 7 0 21 0;
#X connect 7 1 8 0;
#X connect 8 0 7 1;
#X connect 10 0 9 0;
#X connect 11 0 12 0;
#X connect 11 1 13 1;
#X connect 12 0 13 0;
#X connect 13 0 14 0;
#X connect 14 0 9 0;
#X connect 15 0 3 0;
#X connect 16 0 3 0;
#X connect 17 0 18 0;
#X connect 18 0 16 0;
#X connect 18 1 19 0;
#X connect 19 0 20 0;
#X connect 21 0 15 0;
#X connect 21 1 22 0;
#X connect 21 1 25 0;
#X connect 22 0 19 0;
#X connect 24 0 23 0;
#X connect 25 0 24 0;
