#N canvas 506 203 692 468 10;
#X obj 26 429 s \$1.symbolatom.label;
#X msg 49 401 vis_size \$1 \$2;
#X msg 26 282 vis_size 4 \$1;
#X obj 26 239 sel 0 1;
#X obj 26 146 r \$1.clickarea;
#X obj 26 166 sel 0;
#X obj 83 175 t a;
#X obj 179 427 s \$1.clickarea.r;
#X msg 179 391 size 0 \$1;
#X obj 249 336 unpack f f;
#X obj 249 356 - 5;
#X obj 249 376 pack f f;
#X msg 249 397 size \$1 \$2;
#X msg 26 207 0;
#X msg 144 210 1;
#X obj 225 172 t b a;
#X msg 252 194 label \$1;
#X obj 252 214 s \$1.symbolatom.label;
#X obj 26 186 t b b;
#X msg 59 209 symbol empty;
#X msg 207 267 set \$1;
#X msg 207 245 symbol ...;
#X text 17 10 dollar1: parent dollar zero;
#X text 17 24 dollar2: top dollar zero;
#X text 17 39 dollar3: send name;
#X text 17 54 dollar4: receive name;
#X text 17 69 dollar5: gop width;
#X text 17 84 dollar6: gop height;
#X text 17 99 dollar7: click x;
#X text 17 114 dollar7: click y;
#X obj 225 152 r \$3;
#X obj 49 302 list append \$5 \$6;
#X obj 26 261 f \$6;
#X obj 207 288 s \$4;
#X obj 375 384 s pd-chat;
#X msg 375 354 mouse \$1 \$2 1 0;
#X obj 375 323 list append \$7 \$8;
#X obj 372 294 delay 10;
#X connect 1 0 0 0;
#X connect 2 0 0 0;
#X connect 3 0 32 0;
#X connect 3 1 31 0;
#X connect 4 0 5 0;
#X connect 5 0 18 0;
#X connect 5 1 6 0;
#X connect 6 0 5 1;
#X connect 8 0 7 0;
#X connect 9 0 10 0;
#X connect 9 1 11 1;
#X connect 10 0 11 0;
#X connect 11 0 12 0;
#X connect 12 0 7 0;
#X connect 13 0 3 0;
#X connect 14 0 3 0;
#X connect 15 0 14 0;
#X connect 15 1 16 0;
#X connect 16 0 17 0;
#X connect 18 0 13 0;
#X connect 18 1 19 0;
#X connect 18 1 21 0;
#X connect 18 1 37 0;
#X connect 19 0 16 0;
#X connect 20 0 33 0;
#X connect 21 0 20 0;
#X connect 30 0 15 0;
#X connect 31 0 1 0;
#X connect 31 0 9 0;
#X connect 32 0 2 0;
#X connect 32 0 8 0;
#X connect 35 0 34 0;
#X connect 36 0 35 0;
#X connect 37 0 36 0;
