#N canvas 506 427 608 378 10;
#X obj 20 20 cnv 18 100 18 empty \$0.location.label empty 4 10 0 12
-261689 -258699 0;
#X obj 121 20 cnv 18 150 18 empty \$0.status.label empty 4 10 0 12
-261689 -33289 0;
#X obj 271 20 cnv 18 248 18 empty \$0.error.label empty 4 10 0 12 -261689
-33289 0;
#N canvas 0 43 344 290 gui 0;
#N canvas 0 43 327 403 location.label 0;
#X obj 12 335 s \$0.location.label;
#X msg 12 248 label \$1;
#X msg 96 261 color 3 \$1 \$1;
#X msg 96 234 13;
#X msg 131 236 18;
#X obj 12 64 text get \$1.clients;
#X obj 12 84 route bang;
#X msg 12 193 symbol empty;
#X obj 69 103 t a a;
#X msg 69 122 symbol \$2;
#X msg 96 195 \$3;
#X obj 96 213 sel 1 0;
#X obj 12 20 r \$1.refresh.client.display;
#X obj 12 42 f \$2;
#X obj 69 142 t a a;
#X obj 96 165 s \$0.clientname;
#X connect 1 0 0 0;
#X connect 2 0 0 0;
#X connect 3 0 2 0;
#X connect 4 0 2 0;
#X connect 5 0 6 0;
#X connect 6 0 7 0;
#X connect 6 1 8 0;
#X connect 7 0 1 0;
#X connect 8 0 9 0;
#X connect 8 1 10 0;
#X connect 9 0 14 0;
#X connect 10 0 11 0;
#X connect 11 0 3 0;
#X connect 11 1 4 0;
#X connect 12 0 13 0;
#X connect 13 0 5 0;
#X connect 14 0 1 0;
#X connect 14 1 15 0;
#X restore 15 17 pd location.label;
#N canvas 250 631 958 422 status.label 0;
#X obj 12 8 r \$1.refresh.mylink.display;
#X obj 12 361 s \$0.status.label;
#X msg 12 328 label \$1;
#X msg 287 324 color \$1 12 12;
#X msg 287 280 3;
#X obj 12 55 text get \$1.clients;
#X obj 12 33 f \$2;
#X obj 12 81 route bang;
#X msg 69 103 \$1;
#X msg 12 298 symbol empty;
#X obj 12 182 t b b;
#X obj 69 144 sel -1;
#X msg 131 209 \$2;
#X obj 131 229 s \$0.portoffset;
#X obj 69 124 text search \$1.mylinks 0;
#X obj 131 190 text get \$1.mylinks;
#X msg 69 239 0;
#X msg 102 239 1;
#X obj 69 267 s \$0.startstopjacktrip;
#X obj 102 168 t b a;
#X obj 399 188 s \$0.status.label;
#X msg 399 159 label \$1;
#X msg 477 153 color \$1 12 12;
#X msg 568 126 3;
#X msg 482 125 5;
#X msg 524 126 6;
#X obj 399 20 r \$0.status;
#X obj 399 40 t a a;
#X obj 468 71 route WAITING_FOR_PEER OK NO_DATA STOPPED STARTED;
#X obj 399 84 symbol;
#X connect 0 0 6 0;
#X connect 2 0 1 0;
#X connect 3 0 1 0;
#X connect 4 0 3 0;
#X connect 5 0 7 0;
#X connect 6 0 5 0;
#X connect 7 0 10 0;
#X connect 7 1 8 0;
#X connect 8 0 14 0;
#X connect 9 0 2 0;
#X connect 10 0 9 0;
#X connect 10 1 4 0;
#X connect 11 0 16 0;
#X connect 11 1 19 0;
#X connect 12 0 13 0;
#X connect 14 0 11 0;
#X connect 15 0 12 0;
#X connect 16 0 18 0;
#X connect 17 0 18 0;
#X connect 19 0 17 0;
#X connect 19 1 15 0;
#X connect 21 0 20 0;
#X connect 22 0 20 0;
#X connect 23 0 22 0;
#X connect 24 0 22 0;
#X connect 25 0 22 0;
#X connect 26 0 27 0;
#X connect 27 0 29 0;
#X connect 27 1 28 0;
#X connect 28 0 24 0;
#X connect 28 1 25 0;
#X connect 28 2 24 0;
#X connect 28 3 23 0;
#X connect 28 4 23 0;
#X connect 29 0 21 0;
#X restore 15 45 pd status.label;
#N canvas 134 396 450 300 error.label 0;
#X obj 49 37 r \$0.error;
#X obj 49 57 list;
#X obj 187 55 loadbang;
#X msg 187 75 32;
#X obj 187 95 list tosymbol;
#X obj 49 136 list append;
#X msg 49 156 symbol \$1\$4\$2\$4\$3;
#X msg 49 187 label \$1;
#X obj 49 207 s \$0.error.label;
#X obj 229 165 r \$0.status;
#X obj 229 185 route STARTED;
#X obj 229 205 b;
#X msg 229 225 symbol empty;
#X connect 0 0 1 0;
#X connect 1 0 5 0;
#X connect 2 0 3 0;
#X connect 3 0 4 0;
#X connect 4 0 5 1;
#X connect 5 0 6 0;
#X connect 6 0 7 0;
#X connect 7 0 8 0;
#X connect 9 0 10 0;
#X connect 10 0 11 0;
#X connect 11 0 12 0;
#X connect 12 0 8 0;
#X restore 19 85 pd error.label;
#X restore 30 83 pd gui;
#N canvas 94 290 450 300 params 0;
#X obj 14 14 r \$1.updated.params;
#X obj 14 55 text size \$1.params;
#X obj 14 75 t a b;
#X obj 14 95 until;
#X obj 14 115 f;
#X obj 14 135 t a a;
#X obj 67 128 + 1;
#X msg 57 98 0;
#X obj 14 168 text get \$1.params;
#X obj 14 207 outlet;
#X connect 0 0 1 0;
#X connect 1 0 2 0;
#X connect 2 0 3 0;
#X connect 2 1 7 0;
#X connect 3 0 4 0;
#X connect 4 0 5 0;
#X connect 5 0 8 0;
#X connect 5 1 6 0;
#X connect 6 0 4 1;
#X connect 7 0 4 1;
#X connect 8 0 9 0;
#X restore 171 154 pd params;
#X obj 264 155 r \$0.portoffset;
#X msg 264 175 portoffset \$1;
#X obj 376 157 r \$0.clientname;
#X msg 376 179 clientname \$1;
#X obj 120 228 jacktrip;
#X obj 120 302 s \$0.status;
#X obj 165 272 s \$0.error;
#X obj 171 177 list trim;
#X obj 120 89 r \$0.startstopjacktrip;
#X connect 4 0 12 0;
#X connect 5 0 6 0;
#X connect 6 0 9 0;
#X connect 7 0 8 0;
#X connect 8 0 9 0;
#X connect 9 0 10 0;
#X connect 9 1 11 0;
#X connect 12 0 9 0;
#X connect 13 0 9 0;
#X coords 0 -1 1 1 500 18 2 20 20;
