#N canvas 20 301 608 378 10;
#X obj 20 20 cnv 18 100 18 empty \$0.location.label empty 4 10 0 12
-261689 -62784 0;
#X obj 272 20 cnv 18 248 18 empty \$0.error.label empty 4 10 0 12 -261689
-33289 0;
#N canvas 94 290 450 300 params 0;
#X obj 14 14 r \$1.updated.params;
#X obj 14 55 text size \$1.params;
#X obj 14 75 t a b;
#X obj 14 95 until;
#X obj 14 115 f;
#X obj 14 135 t a a;
#X obj 67 128 + 1;
#X msg 57 98 0;
#X obj 14 168 text get \$1.params;
#X obj 14 207 outlet;
#X connect 0 0 1 0;
#X connect 1 0 2 0;
#X connect 2 0 3 0;
#X connect 2 1 7 0;
#X connect 3 0 4 0;
#X connect 4 0 5 0;
#X connect 5 0 8 0;
#X connect 5 1 6 0;
#X connect 6 0 4 1;
#X connect 7 0 4 1;
#X connect 8 0 9 0;
#X restore 274 115 pd params;
#X obj 367 116 r \$0.portoffset;
#X msg 367 136 portoffset \$1;
#X obj 479 118 r \$0.clientname;
#X msg 479 140 clientname \$1;
#X obj 120 258 jacktrip;
#X obj 120 332 s \$0.status;
#X obj 165 302 s \$0.error;
#X obj 274 138 list trim;
#X msg 240 274 server telematic.zhdk.ch \, portoffset 0 \, numofchannels
2 \, bitrate 16 \, clientname ZURICH;
#X obj 496 310 bng 15 250 50 0 empty empty empty 17 7 0 10 -262144
-1 -1;
#X obj 496 330 s \$0.reset;
#X obj 88 95 r \$0.targetstate;
#X obj 88 115 sel 0 1;
#X msg 68 195 stop;
#X obj 128 158 f;
#X obj 128 178 sel 0 1;
#X msg 128 203 start;
#X msg 171 204 restart;
#X obj 68 171 del 0;
#X obj 124 20 hsl 145 18 0 1 0 0 \$0.start.button empty empty -2 -8
0 10 -262144 -1 -1 100 1;
#X obj 121 20 cnv 18 150 18 empty \$0.status.label empty 4 10 0 12
-261689 -33289 0;
#N canvas 655 469 328 336 logic 0;
#N canvas 0 43 327 403 location.label 0;
#X obj 12 335 s \$0.location.label;
#X msg 12 248 label \$1;
#X msg 96 261 color 3 \$1 \$1;
#X msg 96 234 13;
#X msg 131 236 18;
#X obj 12 64 text get \$1.clients;
#X obj 12 84 route bang;
#X msg 12 193 symbol empty;
#X obj 69 103 t a a;
#X msg 69 122 symbol \$2;
#X msg 96 195 \$3;
#X obj 96 213 sel 1 0;
#X obj 12 20 r \$1.refresh.client.display;
#X obj 12 42 f \$2;
#X obj 69 142 t a a;
#X obj 96 165 s \$0.clientname;
#X connect 1 0 0 0;
#X connect 2 0 0 0;
#X connect 3 0 2 0;
#X connect 4 0 2 0;
#X connect 5 0 6 0;
#X connect 6 0 7 0;
#X connect 6 1 8 0;
#X connect 7 0 1 0;
#X connect 8 0 9 0;
#X connect 8 1 10 0;
#X connect 9 0 14 0;
#X connect 10 0 11 0;
#X connect 11 0 3 0;
#X connect 11 1 4 0;
#X connect 12 0 13 0;
#X connect 13 0 5 0;
#X connect 14 0 1 0;
#X connect 14 1 15 0;
#X restore 15 17 pd location.label;
#N canvas 250 631 958 422 status.label 0;
#X obj 12 8 r \$1.refresh.mylink.display;
#X obj 12 361 s \$0.status.label;
#X msg 12 328 label \$1;
#X msg 287 324 color \$1 12 12;
#X msg 287 280 3;
#X obj 12 55 text get \$1.clients;
#X obj 12 33 f \$2;
#X obj 12 81 route bang;
#X msg 69 103 \$1;
#X msg 12 298 symbol empty;
#X obj 12 182 t b b;
#X obj 69 144 sel -1;
#X msg 131 209 \$2;
#X obj 131 229 s \$0.portoffset;
#X obj 69 124 text search \$1.mylinks 0;
#X obj 131 190 text get \$1.mylinks;
#X msg 69 239 0;
#X msg 102 239 1;
#X obj 102 168 t b a;
#X obj 399 188 s \$0.status.label;
#X msg 399 159 label \$1;
#X msg 477 153 color \$1 12 12;
#X msg 568 126 3;
#X msg 482 125 5;
#X msg 524 126 6;
#X obj 399 20 r \$0.status;
#X obj 399 40 t a a;
#X obj 468 71 route WAITING_FOR_PEER OK NO_DATA STOPPED STARTED;
#X obj 399 84 symbol;
#X obj 20 281 r \$0.reset;
#X obj 659 134 r \$0.reset;
#X obj 69 263 s \$0.targetstate;
#X connect 0 0 6 0;
#X connect 2 0 1 0;
#X connect 3 0 1 0;
#X connect 4 0 3 0;
#X connect 5 0 7 0;
#X connect 6 0 5 0;
#X connect 7 0 10 0;
#X connect 7 1 8 0;
#X connect 8 0 14 0;
#X connect 9 0 2 0;
#X connect 10 0 9 0;
#X connect 10 1 4 0;
#X connect 10 1 16 0;
#X connect 11 0 16 0;
#X connect 11 1 18 0;
#X connect 12 0 13 0;
#X connect 14 0 11 0;
#X connect 15 0 12 0;
#X connect 16 0 31 0;
#X connect 17 0 31 0;
#X connect 18 0 17 0;
#X connect 18 1 15 0;
#X connect 20 0 19 0;
#X connect 21 0 19 0;
#X connect 22 0 21 0;
#X connect 23 0 21 0;
#X connect 24 0 21 0;
#X connect 25 0 26 0;
#X connect 26 0 28 0;
#X connect 26 1 27 0;
#X connect 27 0 23 0;
#X connect 27 1 24 0;
#X connect 27 2 23 0;
#X connect 27 3 22 0;
#X connect 27 4 22 0;
#X connect 28 0 20 0;
#X connect 29 0 9 0;
#X connect 30 0 22 0;
#X restore 15 45 pd status.label;
#N canvas 134 396 357 308 error.label 0;
#X obj 49 37 r \$0.error;
#X obj 49 57 list;
#X obj 187 55 loadbang;
#X msg 187 75 32;
#X obj 187 95 list tosymbol;
#X obj 49 136 list append;
#X msg 49 156 symbol \$1\$4\$2\$4\$3;
#X msg 49 249 label \$1;
#X obj 49 271 s \$0.error.label;
#X obj 203 152 r \$0.status;
#X obj 203 172 route STARTED;
#X obj 203 192 b;
#X msg 203 212 symbol empty;
#X obj 232 191 r \$0.reset;
#X connect 0 0 1 0;
#X connect 1 0 5 0;
#X connect 2 0 3 0;
#X connect 3 0 4 0;
#X connect 4 0 5 1;
#X connect 5 0 6 0;
#X connect 6 0 7 0;
#X connect 7 0 8 0;
#X connect 9 0 10 0;
#X connect 10 0 11 0;
#X connect 11 0 12 0;
#X connect 12 0 7 0;
#X connect 13 0 12 0;
#X restore 19 85 pd error.label;
#N canvas 0 43 450 300 start.button 0;
#X obj 55 62 r \$0.targetstate;
#X obj 22 85 spigot;
#X obj 22 20 r \$0.start.button;
#X obj 22 40 sel 0;
#X obj 65 41 t a;
#X obj 37 117 r \$0.running;
#X obj 22 144 f;
#X obj 22 166 sel 0 1;
#X msg 22 199 start;
#X msg 63 199 stop;
#X obj 22 236 s \$0.manual.control;
#X connect 0 0 1 1;
#X connect 1 0 6 0;
#X connect 2 0 3 0;
#X connect 3 0 1 0;
#X connect 3 1 4 0;
#X connect 4 0 3 1;
#X connect 5 0 6 1;
#X connect 6 0 7 0;
#X connect 7 0 8 0;
#X connect 7 1 9 0;
#X connect 8 0 10 0;
#X connect 9 0 10 0;
#X restore 15 128 pd start.button;
#X obj 13 175 r \$1.connection.state;
#X msg 13 195 0;
#X obj 13 215 s \$0.targetstate;
#N canvas 798 572 370 200 running 0;
#X obj 15 14 r \$0.status;
#X obj 15 38 route WAITING_FOR_PEER OK NO_DATA STOPPED STARTED;
#X msg 15 103 1;
#X msg 52 104 0;
#X obj 15 145 s \$0.running;
#X connect 0 0 1 0;
#X connect 1 0 2 0;
#X connect 1 1 2 0;
#X connect 1 2 2 0;
#X connect 1 3 3 0;
#X connect 1 4 2 0;
#X connect 2 0 4 0;
#X connect 3 0 4 0;
#X restore 17 261 pd running;
#X connect 4 0 5 0;
#X connect 5 0 6 0;
#X restore 27 63 pd logic;
#X obj 143 134 r \$0.running;
#X obj 29 230 r \$0.manual.control;
#X connect 2 0 10 0;
#X connect 3 0 4 0;
#X connect 4 0 7 0;
#X connect 5 0 6 0;
#X connect 6 0 7 0;
#X connect 7 0 8 0;
#X connect 7 1 9 0;
#X connect 10 0 7 0;
#X connect 11 0 7 0;
#X connect 12 0 13 0;
#X connect 14 0 15 0;
#X connect 15 0 21 0;
#X connect 15 1 17 0;
#X connect 16 0 7 0;
#X connect 17 0 18 0;
#X connect 18 0 19 0;
#X connect 18 1 20 0;
#X connect 19 0 7 0;
#X connect 20 0 7 0;
#X connect 21 0 16 0;
#X connect 25 0 17 1;
#X connect 26 0 7 0;
#X coords 0 -1 1 1 500 18 2 20 20;
