#N canvas 509 291 444 219 10;
#X obj 32 88 route set;
#X obj 17 108 f;
#X obj 17 128 spigot;
#X msg 17 147 set \$1;
#X obj 17 44 b;
#X obj 17 24 r \$1.\$2;
#X obj 32 68 r \$1.\$2.r;
#X obj 50 107 r \$1.block.settings;
#X obj 17 168 s \$1.\$2.r;
#X obj 263 128 s \$1.\$2.r;
#X obj 263 34 r \$1.block.settings;
#X obj 263 54 sel 0 1;
#X msg 263 74 12;
#X msg 296 76 1;
#X msg 263 102 color 5 \$1 -1;
#X connect 0 0 1 1;
#X connect 1 0 2 0;
#X connect 2 0 3 0;
#X connect 3 0 8 0;
#X connect 4 0 1 0;
#X connect 5 0 4 0;
#X connect 6 0 0 0;
#X connect 7 0 2 1;
#X connect 10 0 11 0;
#X connect 11 0 12 0;
#X connect 11 1 13 0;
#X connect 12 0 14 0;
#X connect 13 0 14 0;
#X connect 14 0 9 0;
