#N canvas 77 381 719 379 10;
#X obj 529 71 bng 15 250 50 0 empty empty empty 17 7 0 10 -262144 -1
-1;
#N canvas 205 438 450 300 detect.link.peer 0;
#X obj 12 8 r \$1.refresh.mylink.display;
#X obj 12 53 text search \$1.mylinks 1;
#X obj 12 28 f;
#X obj 12 73 sel -1;
#X msg 12 137 0;
#X msg 45 140 1;
#X obj 45 253 s \$0.link;
#X obj 119 165 s \$0.peer;
#X obj 45 94 t b a;
#X obj 119 122 text get \$1.mylinks;
#X msg 119 142 \$1;
#X obj 45 202 t a a;
#X obj 17 111 r \$0.reset;
#X obj 39 28 r \$0.linkID;
#X obj 72 224 outlet;
#X obj 45 174 change -1;
#X connect 0 0 2 0;
#X connect 1 0 3 0;
#X connect 2 0 1 0;
#X connect 3 0 4 0;
#X connect 3 1 8 0;
#X connect 4 0 15 0;
#X connect 5 0 15 0;
#X connect 8 0 5 0;
#X connect 8 1 9 0;
#X connect 9 0 10 0;
#X connect 10 0 7 0;
#X connect 11 0 6 0;
#X connect 11 1 14 0;
#X connect 12 0 4 0;
#X connect 13 0 2 1;
#X connect 15 0 11 0;
#X restore 16 84 pd detect.link.peer;
#N canvas 247 142 450 300 get.peer.data 0;
#X obj 21 38 sel 1;
#X obj 21 58 f;
#X obj 53 59 r \$0.peer;
#X obj 21 90 text search \$1.clients 0;
#X obj 21 110 sel -1;
#X msg 21 242 peer data access failed;
#X obj 21 262 s \$0.error;
#X obj 54 131 text get \$1.clients;
#X obj 54 151 unpack f s f s;
#X obj 135 173 s \$0.peer.ip;
#X obj 108 196 s \$0.peer.master;
#X obj 81 217 s \$0.peer.name;
#X obj 21 18 inlet;
#X connect 0 0 1 0;
#X connect 1 0 3 0;
#X connect 2 0 1 1;
#X connect 3 0 4 0;
#X connect 4 0 5 0;
#X connect 4 1 7 0;
#X connect 5 0 6 0;
#X connect 7 0 8 0;
#X connect 8 1 11 0;
#X connect 8 2 10 0;
#X connect 8 3 9 0;
#X connect 12 0 0 0;
#X restore 16 104 pd get.peer.data;
#N canvas 277 523 882 353 gui.code 0;
#X obj 11 164 s \$0.client.label;
#X msg 11 145 label \$1;
#X obj 11 22 r \$0.peer.name;
#X obj 11 42 list append;
#X obj 91 41 r \$0.peer.ip;
#X obj 91 61 list prepend;
#X obj 179 28 loadbang;
#X obj 179 48 32;
#X obj 179 68 makefilename %c;
#X msg 91 80 symbol \$1(\$2);
#X msg 11 84 symbol \$1\$2;
#X obj 744 19 r \$0.reset;
#X msg 17 228 0;
#X obj 17 250 s \$0.startstop.r;
#X obj 811 18 r \$0.link;
#X obj 811 38 sel 0;
#X obj 744 60 s \$0.display.reset;
#X obj 84 107 r \$0.display.reset;
#X msg 84 127 symbol empty;
#X obj 17 208 r \$0.display.reset;
#X obj 196 249 s \$0.glitch.label;
#X obj 227 269 s \$0.ooo.label;
#X obj 201 160 r \$0.display.reset;
#X msg 201 180 label empty;
#X obj 334 18 r \$0.jacktrip.stats;
#X obj 334 38 route dropped_count;
#X obj 334 60 makefilename %4d;
#X msg 334 80 label \$1;
#X obj 334 100 s \$0.dropped.label;
#X obj 173 228 s \$0.dropped.label;
#X obj 514 138 r \$0.link;
#X obj 514 158 sel 1;
#X msg 514 178 0;
#X obj 464 18 r \$0.jacktrip.stats;
#X obj 464 60 makefilename %4d;
#X msg 464 80 label \$1;
#X obj 594 18 r \$0.jacktrip.stats;
#X obj 594 60 makefilename %4d;
#X msg 594 80 label \$1;
#X obj 464 38 route glitch_count;
#X obj 464 100 s \$0.glitch.label;
#X obj 594 38 route ooo_count;
#X obj 594 100 s \$0.ooo.label;
#X obj 591 210 r \$0.from.jacktrip;
#X obj 591 230 route STATISTICS;
#X obj 591 250 s \$0.jacktrip.stats;
#X obj 360 183 r \$0.from.jacktrip;
#X obj 360 203 route STATUS;
#X obj 360 223 route inchannels;
#X obj 360 243 makefilename %4d;
#X msg 360 263 label \$1;
#X obj 360 283 s \$0.channels.label;
#X obj 240 289 s \$0.channels.label;
#X connect 1 0 0 0;
#X connect 2 0 3 0;
#X connect 3 0 10 0;
#X connect 4 0 5 0;
#X connect 5 0 9 0;
#X connect 6 0 7 0;
#X connect 7 0 8 0;
#X connect 8 0 5 1;
#X connect 9 0 3 1;
#X connect 10 0 1 0;
#X connect 11 0 16 0;
#X connect 12 0 13 0;
#X connect 14 0 15 0;
#X connect 15 0 16 0;
#X connect 17 0 18 0;
#X connect 18 0 1 0;
#X connect 19 0 12 0;
#X connect 22 0 23 0;
#X connect 23 0 20 0;
#X connect 23 0 21 0;
#X connect 23 0 29 0;
#X connect 23 0 52 0;
#X connect 24 0 25 0;
#X connect 25 0 26 0;
#X connect 26 0 27 0;
#X connect 27 0 28 0;
#X connect 30 0 31 0;
#X connect 31 0 32 0;
#X connect 32 0 26 0;
#X connect 32 0 34 0;
#X connect 32 0 37 0;
#X connect 32 0 49 0;
#X connect 33 0 39 0;
#X connect 34 0 35 0;
#X connect 35 0 40 0;
#X connect 36 0 41 0;
#X connect 37 0 38 0;
#X connect 38 0 42 0;
#X connect 39 0 34 0;
#X connect 41 0 37 0;
#X connect 43 0 44 0;
#X connect 44 0 45 0;
#X connect 46 0 47 0;
#X connect 47 0 48 0;
#X connect 48 0 49 0;
#X connect 49 0 50 0;
#X connect 50 0 51 0;
#X restore 16 164 pd gui.code;
#X obj 529 110 s \$0.reset;
#X obj 540 89 r \$1.reset;
#N canvas 178 181 450 300 persistent.linkID 0;
#X obj 26 82 sel -1;
#X obj 59 104 list prepend 0;
#X obj 59 124 route 0 1;
#X obj 59 146 t a a b;
#X msg 168 146 1;
#X obj 178 169 loadbang;
#X obj 178 209 + 1;
#X obj 109 236 list prepend;
#X obj 26 14 r \$1.assign.mylink;
#X obj 109 257 s \$1.assign.mylink;
#X obj 234 23 loadbang;
#X msg 234 67 -1;
#X msg 292 65 0;
#X obj 26 41 route \$2;
#X obj 178 189 f \$2;
#X obj 292 25 r \$0.reset;
#X obj 59 213 s \$0.linkID;
#X connect 0 1 1 0;
#X connect 1 0 2 0;
#X connect 2 0 3 0;
#X connect 2 1 7 0;
#X connect 3 0 16 0;
#X connect 3 1 0 1;
#X connect 3 2 4 0;
#X connect 4 0 1 1;
#X connect 5 0 14 0;
#X connect 6 0 7 1;
#X connect 7 0 9 0;
#X connect 8 0 13 0;
#X connect 10 0 11 0;
#X connect 11 0 0 1;
#X connect 11 0 16 0;
#X connect 12 0 1 1;
#X connect 13 0 0 0;
#X connect 14 0 6 0;
#X connect 15 0 12 0;
#X connect 15 0 11 0;
#X restore 16 64 pd persistent.linkID;
#X obj 20 20 cnv 32 674 32 empty empty empty 8 16 0 20 -262144 -262144
0;
#X obj 55 20 cnv 32 311 32 empty \$0.client.label empty 8 16 0 20 -1
-262144 0;
#X obj 20 20 tgl 32 0 \$0.startstop \$0.startstop.r empty 17 7 0 10
-1 -262144 -1 0 1;
#X obj 369 20 tgl 32 0 empty \$0.receiving.r empty 17 7 0 10 -1 -262144
-1 0 1;
#X obj 477 20 cnv 32 70 32 empty \$0.dropped.label empty 8 16 0 20
-1 -262144 0;
#X obj 550 20 cnv 32 70 32 empty \$0.glitch.label empty 8 16 0 20 -1
-262144 0;
#X obj 623 20 cnv 32 70 32 empty \$0.ooo.label empty 8 16 0 20 -1 -262144
0;
#N canvas 352 90 448 520 negotiate.port 0;
#X obj 10 34 r \$1.receive;
#X obj 10 78 routeOSC /tpf/setpeerport;
#X obj 10 112 routeOSC /__;
#X obj 109 102 r \$0.linkID;
#X msg 109 122 set /\$1;
#X obj 10 142 s \$0.peer.port;
#X obj 230 36 r \$1.receive;
#X obj 230 108 routeOSC /__;
#X obj 230 80 routeOSC /tpf/requestpeerport;
#X obj 9 186 r \$0.link;
#X obj 9 207 sel 1;
#X obj 9 460 s \$1.send;
#X obj 64 279 r \$0.peer;
#X obj 49 301 f;
#X obj 94 299 r \$0.linkID;
#X obj 49 322 pack f f;
#X obj 219 293 random 28232;
#X obj 219 313 + 32768;
#X obj 219 333 s \$0.bind.port;
#X obj 49 353 list append;
#X obj 112 332 r \$0.bind.port;
#X obj 230 134 b;
#X msg 49 423 /\$1/tpf/setpeerport/\$2 \$3;
#X obj 9 378 list append;
#X obj 9 227 t b b b;
#X obj 49 256 t b;
#X msg 9 400 /\$1/tpf/requestpeerport/\$2;
#X obj 10 58 routeOSC /*;
#X obj 230 60 routeOSC /*;
#N canvas 750 196 301 279 random.seed 0;
#X obj 35 24 loadbang;
#X obj 34 96 realtime;
#X obj 35 66 t b b b;
#X obj 121 128 until;
#X obj 121 148 234.235;
#X obj 121 168 pow 9.2348;
#X obj 34 116 * 1239.29;
#X obj 34 136 int;
#X obj 34 156 mod 9877;
#X obj 34 197 outlet;
#X msg 121 105 143726;
#X msg 34 177 seed \$1;
#X connect 0 0 2 0;
#X connect 1 0 6 0;
#X connect 2 0 1 1;
#X connect 2 1 10 0;
#X connect 2 2 1 0;
#X connect 3 0 4 0;
#X connect 4 0 5 0;
#X connect 6 0 7 0;
#X connect 7 0 8 0;
#X connect 8 0 11 0;
#X connect 10 0 3 0;
#X connect 11 0 9 0;
#X restore 219 261 pd random.seed;
#X connect 0 0 27 0;
#X connect 1 0 2 0;
#X connect 2 0 5 0;
#X connect 3 0 4 0;
#X connect 4 0 2 0;
#X connect 4 0 7 0;
#X connect 6 0 28 0;
#X connect 7 0 21 0;
#X connect 8 0 7 0;
#X connect 9 0 10 0;
#X connect 10 0 24 0;
#X connect 12 0 13 1;
#X connect 13 0 15 0;
#X connect 14 0 15 1;
#X connect 15 0 19 0;
#X connect 16 0 17 0;
#X connect 17 0 18 0;
#X connect 19 0 23 1;
#X connect 19 0 22 0;
#X connect 20 0 19 1;
#X connect 21 0 25 0;
#X connect 22 0 11 0;
#X connect 23 0 26 0;
#X connect 24 0 23 0;
#X connect 24 1 25 0;
#X connect 24 2 16 0;
#X connect 25 0 13 0;
#X connect 26 0 11 0;
#X connect 27 0 1 0;
#X connect 28 0 8 0;
#X connect 29 0 16 0;
#X restore 16 124 pd negotiate.port;
#X obj 266 202 jacktrip . . . . . . . . . . . . . .;
#X obj 479 180 r \$0.to.jacktrip;
#X obj 479 225 s \$0.from.jacktrip;
#X obj 297 111 s \$0.to.jacktrip;
#X msg 297 90 status;
#X obj 297 135 r \$0.from.jacktrip;
#X obj 297 155 route STATUS;
#X obj 297 176 print STATUS;
#X msg 353 88 start;
#X msg 404 97 stop;
#N canvas 148 299 621 371 jacktrip.start.stop 0;
#X obj 25 42 r \$0.peer.port;
#X obj 25 197 pack f f;
#X obj 85 197 r \$0.bind.port;
#X obj 58 64 r \$0.link;
#X obj 25 112 spigot;
#X obj 58 84 t a a;
#X obj 85 104 sel 1;
#X obj 25 146 change;
#X msg 85 124 set -1;
#X obj 107 218 r \$0.peer.ip;
#X obj 25 217 list prepend;
#X obj 25 328 s \$0.to.jacktrip;
#X obj 175 147 s \$0.to.jacktrip;
#X obj 175 21 r \$0.link;
#X obj 175 61 sel 0;
#X msg 175 128 stop;
#X obj 337 15 r \$0.from.jacktrip;
#X obj 337 35 route STATUS;
#X obj 410 80 s \$0.receiving.r;
#X obj 337 55 route connected receiving;
#X msg 337 85 set \$1;
#X obj 337 105 s \$0.startstop.r;
#X obj 83 148 r \$0.startstop;
#X obj 83 168 sel 1;
#X obj 238 21 r \$0.startstop;
#X obj 175 84 f;
#X obj 25 166 f;
#X obj 175 106 sel 1;
#X obj 111 242 r \$0.linkID;
#X obj 111 262 + 4464;
#X obj 25 273 list append;
#X msg 25 304 server telematic.zhdk.ch \, peerport \$4 \, bindport
\$3 \, start;
#X obj 417 184 r \$1.queue;
#X obj 313 187 r \$1.channels;
#X obj 485 183 r \$1.blocksize;
#X msg 313 207 outchannels \$1;
#X msg 417 204 queue \$1;
#X msg 485 203 blocksize 128;
#X obj 313 237 s \$0.to.jacktrip;
#X connect 0 0 4 0;
#X connect 1 0 10 0;
#X connect 2 0 1 1;
#X connect 3 0 5 0;
#X connect 4 0 7 0;
#X connect 5 0 4 1;
#X connect 5 1 6 0;
#X connect 6 0 8 0;
#X connect 7 0 26 0;
#X connect 8 0 7 0;
#X connect 9 0 10 1;
#X connect 10 0 30 0;
#X connect 13 0 14 0;
#X connect 14 0 25 0;
#X connect 15 0 12 0;
#X connect 16 0 17 0;
#X connect 17 0 19 0;
#X connect 19 0 20 0;
#X connect 19 0 25 1;
#X connect 19 1 18 0;
#X connect 20 0 21 0;
#X connect 22 0 23 0;
#X connect 23 0 26 0;
#X connect 24 0 14 0;
#X connect 25 0 27 0;
#X connect 26 0 1 0;
#X connect 27 0 15 0;
#X connect 28 0 29 0;
#X connect 29 0 30 1;
#X connect 30 0 31 0;
#X connect 31 0 11 0;
#X connect 32 0 36 0;
#X connect 33 0 35 0;
#X connect 34 0 37 0;
#X connect 35 0 38 0;
#X connect 36 0 38 0;
#X connect 37 0 38 0;
#X restore 16 144 pd jacktrip.start.stop;
#X obj 404 20 cnv 32 70 32 empty \$0.channels.label empty 8 16 0 20
-1 -262144 0;
#X connect 0 0 4 0;
#X connect 1 0 2 0;
#X connect 5 0 4 0;
#X connect 15 8 17 0;
#X connect 16 0 15 8;
#X connect 19 0 18 0;
#X connect 21 0 22 0;
#X connect 23 0 18 0;
#X connect 24 0 18 0;
#X coords 0 -1 1 1 674 32 2 20 20;
