#N canvas 1492 211 735 482 10;
#X obj 46 271 r \$0.click;
#X obj 46 292 sel;
#X obj 78 293 t a;
#N canvas 1589 505 310 209 rgb2iem 0;
#X obj 14 2 inlet;
#X obj 14 23 unpack f f f;
#X obj 14 168 outlet;
#X obj 48 49 << 8;
#X obj 14 49 << 16;
#X obj 14 106 +;
#X obj 48 78 +;
#X text 93 79 converts rgb 8bit to iem colors;
#X obj 14 126 * -1;
#X obj 14 147 - 1;
#X connect 0 0 1 0;
#X connect 1 0 4 0;
#X connect 1 1 3 0;
#X connect 1 2 6 1;
#X connect 3 0 6 0;
#X connect 4 0 5 0;
#X connect 5 0 8 0;
#X connect 6 0 5 1;
#X connect 8 0 9 0;
#X connect 9 0 2 0;
#X restore 190 274 pd rgb2iem;
#X obj 190 246 route color;
#X msg 190 313 color \$1 \$1 -1;
#X obj 190 346 s \$0.front;
#X obj 20 22 vsl 32 27 0 1 0 0 \$0.click \$0.click.r empty 0 5 0 10
-262144 -1 -1 0 1;
#X obj 20 20 cnv 10 32 32 empty \$0.front empty 8 16 0 20 -233017 -1
0;
#X obj 46 322 s \$1;
#X obj 190 225 r \$2;
#X connect 0 0 1 0;
#X connect 1 0 9 0;
#X connect 1 1 2 0;
#X connect 2 0 1 1;
#X connect 3 0 5 0;
#X connect 4 0 3 0;
#X connect 5 0 6 0;
#X connect 10 0 4 0;
#X coords 0 -1 1 1 32 32 2 20 20;
