#N canvas 1214 26 959 694 10;
#X obj 170 14 r \$0.from;
#X obj 170 63 print ARDOUR_MONITOR;
#X obj 170 37 spigot 0;
#X obj 243 39 tgl 15 0 empty empty empty 17 7 0 10 #fcfcfc #000000
#000000 0 1;
#X text 748 25 format:;
#X obj 750 65 text define \$0.strips;
#N canvas 406 237 834 583 INIT 0;
#X obj 23 170 r \$0.to;
#X obj 23 325 s \$0.from;
#X obj 111 169 r \$0.connection;
#X obj 23 249 s \$0.connected;
#X obj 23 408 outlet;
#X obj 249 172 r \$0.from;
#X obj 262 36 r \$0.connected;
#X obj 603 183 r \$0.connected;
#X obj 603 206 sel 0;
#X msg 603 296 0;
#X obj 603 319 s \$0.ready;
#X obj 23 385 r \$0.ready;
#X msg 630 255 -1;
#X obj 630 278 text delete \$0.strips;
#X obj 603 232 t b b;
#X obj 262 129 s \$0.to;
#X obj 23 220 netsend -u -b;
#X obj 262 59 sel 1;
#X obj 23 275 route 35;
#X msg 395 341 \$1 name \$2;
#X msg 320 341 \$1 group \$2;
#X msg 249 341 \$1 hide \$2;
#X obj 249 371 t a;
#X obj 249 396 t a a, f 25;
#N canvas 872 739 449 447 stub 0;
#X obj 213 219 pack f s s 34;
#X msg 265 191 list 0 <unset> <unset> 0;
#X obj 186 101 t b a;
#X obj 186 258 list append;
#X obj 238 89 t a b;
#X obj 238 112 list trim;
#X obj 238 135 route group name hide;
#X obj 186 61 list split 1;
#X obj 238 161 symbol;
#X obj 284 161 symbol;
#X obj 25 394 text set \$0.strips;
#X obj 25 282 list append;
#X obj 25 308 t a a;
#X msg 52 332 \$1;
#X obj 25 8 inlet;
#X obj 25 32 t a a, f 25;
#X msg 25 55 \$1;
#X obj 25 102 sel -1;
#X obj 25 79 text search \$0.strips 0;
#X obj 52 358 - 1;
#X connect 0 0 3 1;
#X connect 1 0 0 0;
#X connect 2 0 3 0;
#X connect 2 1 0 0;
#X connect 3 0 11 1;
#X connect 4 0 5 0;
#X connect 4 1 1 0;
#X connect 5 0 6 0;
#X connect 6 0 8 0;
#X connect 6 1 9 0;
#X connect 6 2 0 3;
#X connect 7 0 2 0;
#X connect 7 1 4 0;
#X connect 8 0 0 1;
#X connect 9 0 0 2;
#X connect 11 0 12 0;
#X connect 12 0 10 0;
#X connect 12 1 13 0;
#X connect 13 0 19 0;
#X connect 14 0 15 0;
#X connect 15 0 16 0;
#X connect 15 1 7 0;
#X connect 16 0 18 0;
#X connect 17 0 11 0;
#X connect 18 0 17 0;
#X connect 19 0 10 1;
#X restore 249 421 pd stub;
#N canvas 1022 409 542 507 update 0;
#X obj 44 26 inlet;
#X obj 141 178 list split 1;
#X obj 175 203 list trim;
#X obj 175 226 route group name hide;
#X obj 239 111 text search \$0.strips 0;
#X obj 239 141 sel -1;
#X obj 44 56 t b a a, f 33;
#X obj 44 168 sel -1;
#X obj 44 142 f;
#X obj 272 165 text get \$0.strips;
#X obj 272 192 unpack f s s f;
#X obj 152 276 pack f s s f;
#X obj 165 418 text delete \$0.strips;
#X obj 77 321 list append;
#X obj 138 395 t a a;
#X obj 77 444 text insert \$0.strips;
#X obj 175 250 symbol;
#X obj 220 249 symbol;
#X msg 239 82 \$1;
#X obj 77 213 t b b a;
#X obj 77 346 t a b;
#X obj 138 371 f;
#X connect 0 0 6 0;
#X connect 1 1 2 0;
#X connect 2 0 3 0;
#X connect 3 0 16 0;
#X connect 3 1 17 0;
#X connect 3 2 11 3;
#X connect 4 0 8 1;
#X connect 4 0 5 0;
#X connect 5 1 9 0;
#X connect 6 0 8 0;
#X connect 6 1 1 0;
#X connect 6 2 18 0;
#X connect 7 1 19 0;
#X connect 8 0 7 0;
#X connect 9 0 10 0;
#X connect 10 0 11 0;
#X connect 10 1 11 1;
#X connect 10 2 11 2;
#X connect 10 3 11 3;
#X connect 11 0 13 1;
#X connect 13 0 20 0;
#X connect 14 0 15 1;
#X connect 14 1 12 0;
#X connect 16 0 11 1;
#X connect 17 0 11 2;
#X connect 18 0 4 0;
#X connect 19 0 13 0;
#X connect 19 1 11 0;
#X connect 19 2 21 1;
#X connect 20 0 15 0;
#X connect 20 1 21 0;
#X connect 21 0 14 0;
#X restore 396 420 pd update;
#X obj 23 195 oscformat;
#X obj 23 303 oscparse;
#X obj 249 221 route strip;
#X obj 249 245 route hide group name;
#X obj 249 195 list trim;
#X msg 262 95 set set_surfacestrip_types \, 513 \, set set_surface
feedback \, 17, f 63;
#X text 560 65 1: Button status for strips;
#X text 554 75 16: Enable master section feedback;
#X text 440 65 1: Audio tracks;
#X text 428 75 512: Hidden;
#X obj 301 436 r \$0.from;
#X obj 301 459 list trim;
#X obj 301 482 route session_name;
#X msg 301 505 1;
#X obj 302 531 s \$0.ready;
#X obj 249 268 unpack f f;
#X obj 249 317 pack f f;
#X obj 294 295 == 0;
#X connect 0 0 26 0;
#X connect 2 0 16 0;
#X connect 5 0 30 0;
#X connect 6 0 17 0;
#X connect 7 0 8 0;
#X connect 8 0 14 0;
#X connect 9 0 10 0;
#X connect 11 0 4 0;
#X connect 12 0 13 0;
#X connect 14 0 9 0;
#X connect 14 1 12 0;
#X connect 16 0 3 0;
#X connect 16 1 18 0;
#X connect 17 0 31 0;
#X connect 18 1 27 0;
#X connect 19 0 22 0;
#X connect 20 0 22 0;
#X connect 21 0 22 0;
#X connect 22 0 23 0;
#X connect 23 0 24 0;
#X connect 23 1 25 0;
#X connect 26 0 16 0;
#X connect 27 0 1 0;
#X connect 28 0 29 0;
#X connect 29 0 41 0;
#X connect 29 1 20 0;
#X connect 29 2 19 0;
#X connect 30 0 28 0;
#X connect 31 0 15 0;
#X connect 36 0 37 0;
#X connect 37 0 38 0;
#X connect 38 0 39 0;
#X connect 39 0 40 0;
#X connect 41 0 42 0;
#X connect 41 1 43 0;
#X connect 42 0 21 0;
#X connect 43 0 42 1;
#X restore 174 103 pd INIT;
#X floatatom 298 208 5 0 0 0 - - - 0;
#X text 337 209 num of send channels;
#X msg 298 422 /strip/hide \$1 \$2;
#X obj 298 447 s \$0.to;
#X obj 552 433 s \$0.to;
#X obj 571 377 tgl 15 0 empty empty empty 17 7 0 10 #fcfcfc #000000
#000000 0 1;
#N canvas 0 106 450 435 iterate.group 0;
#X msg 103 152 8;
#X obj 103 175 until;
#X obj 103 198 f;
#X obj 103 221 t a a;
#X obj 161 209 + 1;
#X obj 103 122 t b b a;
#X obj 103 244 t a a;
#X obj 103 343 pack f f;
#X obj 130 319 >;
#X obj 103 31 inlet;
#X obj 103 366 outlet;
#X obj 103 57 t a a;
#X msg 103 80 \$2;
#X obj 202 113 * 8;
#X obj 202 161 + 1;
#X msg 202 87 \$1;
#X obj 130 272 -;
#X obj 202 137 t a a;
#X connect 0 0 1 0;
#X connect 1 0 2 0;
#X connect 2 0 3 0;
#X connect 3 0 6 0;
#X connect 3 1 4 0;
#X connect 4 0 2 1;
#X connect 5 0 0 0;
#X connect 5 2 8 1;
#X connect 6 0 7 0;
#X connect 6 1 16 0;
#X connect 7 0 10 0;
#X connect 8 0 7 1;
#X connect 9 0 11 0;
#X connect 11 0 12 0;
#X connect 11 1 15 0;
#X connect 12 0 5 0;
#X connect 13 0 17 0;
#X connect 14 0 2 1;
#X connect 15 0 13 0;
#X connect 16 0 8 0;
#X connect 17 0 14 0;
#X connect 17 1 16 1;
#X restore 298 312 pd iterate.group;
#N canvas 0 139 372 364 filter.changes 0;
#X obj 26 109 text search \$0.strips;
#X msg 26 84 \$1;
#X obj 26 132 route -1;
#X obj 28 180 text get \$0.strips;
#X obj 26 53 t a a a, f 12;
#X msg 60 84 \$2;
#X obj 28 205 ==;
#X obj 28 228 sel 0;
#X obj 28 252 list append;
#X msg 28 156 \$1 2 1;
#X obj 26 18 inlet;
#X obj 28 275 outlet;
#X connect 0 0 2 0;
#X connect 1 0 0 0;
#X connect 2 1 9 0;
#X connect 3 0 6 0;
#X connect 4 0 1 0;
#X connect 4 1 5 0;
#X connect 4 2 8 1;
#X connect 5 0 6 1;
#X connect 6 0 7 0;
#X connect 7 0 8 0;
#X connect 8 0 11 0;
#X connect 9 0 3 0;
#X connect 10 0 4 0;
#X restore 298 340 pd filter.changes;
#X obj 298 363 t a a;
#N canvas 0 238 372 364 apply.changes 0;
#X obj 26 109 text search \$0.strips;
#X obj 26 132 route -1;
#X obj 26 18 inlet;
#X obj 26 53 unpack f f, f 12;
#X obj 32 244 text set \$0.strips;
#X obj 32 168 list prepend;
#X msg 32 195 \$1 \$2 2;
#X obj 32 218 unpack f f f;
#X connect 0 0 1 0;
#X connect 1 1 5 0;
#X connect 2 0 3 0;
#X connect 3 0 0 0;
#X connect 3 1 5 1;
#X connect 5 0 6 0;
#X connect 6 0 7 0;
#X connect 7 0 4 0;
#X connect 7 1 4 1;
#X connect 7 2 4 2;
#X restore 325 391 pd apply.changes;
#X obj 298 282 list prepend;
#X floatatom 367 250 5 0 0 0 - - - 0;
#X text 749 42 <ssid> <group> <name> <hide>;
#X msg 561 403 set strip hide \, 1 \$1;
#X msg 551 342 set strip list \, bang;
#X msg 636 386 set surface list \, bang;
#X msg 628 415 set set_surface \, bang;
#X obj 123 580 s \$0.to;
#X msg 123 554 set strip name \, 1 \$1;
#X symbolatom 123 529 10 0 0 0 - - - 0;
#X obj 270 526 tgl 15 0 empty empty empty 17 7 0 10 #fcfcfc #000000
#000000 0 1;
#X msg 270 553 set strip hide \, 1 \$1;
#X obj 270 586 s \$0.to;
#X obj 422 586 s \$0.to;
#X msg 422 553 set strip group \, 1 \$1;
#X symbolatom 422 526 10 0 0 0 - - - 0;
#X obj 12 13 inlet;
#X obj 12 36 s \$0.inlet;
#X obj 80 15 r \$0.outlet;
#X obj 80 36 outlet;
#X obj 174 131 tgl 15 0 empty empty empty 17 7 0 10 #fcfcfc #000000
#000000 0 1;
#N canvas 1094 258 462 300 connect 0;
#X obj 12 16 r \$0.inlet;
#X obj 12 39 route connect;
#X msg 31 236 connect localhost 3819;
#X msg 12 208 disconnect;
#X obj 12 262 s \$0.connection;
#X obj 12 63 sel 0 1;
#X obj 191 19 r \$0.ready;
#X msg 191 69 ready \$1;
#X obj 191 92 s \$0.outlet;
#X obj 31 86 t b b;
#X obj 73 83 r \$0.connected;
#X obj 58 111 f;
#X obj 58 134 sel 0;
#X msg 58 157 0;
#X obj 58 181 s \$0.ready;
#X obj 191 42 change -1;
#X connect 0 0 1 0;
#X connect 1 0 5 0;
#X connect 2 0 4 0;
#X connect 3 0 4 0;
#X connect 5 0 3 0;
#X connect 5 1 9 0;
#X connect 6 0 15 0;
#X connect 7 0 8 0;
#X connect 9 0 2 0;
#X connect 9 1 11 0;
#X connect 10 0 11 1;
#X connect 11 0 12 0;
#X connect 12 0 13 0;
#X connect 13 0 14 0;
#X connect 15 0 7 0;
#X restore 26 96 pd connect;
#N canvas 1330 294 395 195 session_name 0;
#X obj 13 11 r \$0.from;
#X obj 13 34 list trim;
#X obj 13 57 route session_name;
#X obj 13 80 list;
#X msg 13 103 session_name \$1;
#X obj 13 126 s \$0.outlet;
#X connect 0 0 1 0;
#X connect 1 0 2 0;
#X connect 2 0 3 0;
#X connect 3 0 4 0;
#X connect 4 0 5 0;
#X restore 26 118 pd session_name;
#N canvas 1309 515 459 411 list_groups 0;
#X obj 18 176 t a b;
#X msg 63 177 -1;
#X obj 18 225 route bang;
#X obj 18 93 until;
#X obj 18 116 f;
#X obj 18 139 t a a;
#X obj 58 125 + 1;
#X msg 58 94 0;
#X obj 75 300 sel °ö;
#X obj 165 300 t a;
#X obj 18 70 t b b b, f 14;
#X msg 185 266 symbol °ö;
#X text 245 267 <- unlikely symbol;
#X obj 18 24 r \$0.inlet;
#X obj 18 202 text get \$0.strips;
#X obj 108 356 s \$0.outlet;
#X obj 18 47 route list_groups;
#X msg 75 253 symbol \$2;
#X msg 108 330 group \$1;
#X connect 0 0 14 0;
#X connect 0 1 1 0;
#X connect 1 0 14 1;
#X connect 2 0 3 1;
#X connect 2 1 17 0;
#X connect 3 0 4 0;
#X connect 4 0 5 0;
#X connect 5 0 0 0;
#X connect 5 1 6 0;
#X connect 6 0 4 1;
#X connect 7 0 4 1;
#X connect 8 1 9 0;
#X connect 8 1 18 0;
#X connect 9 0 8 1;
#X connect 10 0 3 0;
#X connect 10 1 7 0;
#X connect 10 2 11 0;
#X connect 11 0 8 1;
#X connect 13 0 16 0;
#X connect 14 0 2 0;
#X connect 16 0 10 0;
#X connect 17 0 8 0;
#X connect 18 0 15 0;
#X restore 26 140 pd list_groups;
#N canvas 1309 515 465 380 list_strips_of_group 0;
#X obj 18 176 t a b;
#X msg 63 177 -1;
#X obj 18 225 route bang;
#X obj 18 93 until;
#X obj 18 116 f;
#X obj 18 139 t a a;
#X obj 58 125 + 1;
#X msg 58 94 0;
#X obj 18 24 r \$0.inlet;
#X obj 18 202 text get \$0.strips;
#X obj 76 304 s \$0.outlet;
#X obj 18 46 route list_strips_of_group;
#X obj 18 70 t b b a b, f 21;
#X obj 75 271 route _;
#X obj 106 145 list;
#X msg 75 248 \$2 strip \$1 \$2 \$3 \$4;
#X connect 0 0 9 0;
#X connect 0 1 1 0;
#X connect 1 0 9 1;
#X connect 2 0 3 1;
#X connect 2 1 15 0;
#X connect 3 0 4 0;
#X connect 4 0 5 0;
#X connect 5 0 0 0;
#X connect 5 1 6 0;
#X connect 6 0 4 1;
#X connect 7 0 4 1;
#X connect 8 0 11 0;
#X connect 9 0 2 0;
#X connect 11 0 12 0;
#X connect 12 0 3 0;
#X connect 12 1 7 0;
#X connect 12 2 14 0;
#X connect 13 0 10 0;
#X connect 14 0 13 1;
#X connect 15 0 13 0;
#X restore 26 163 pd list_strips_of_group;
#N canvas 1309 515 443 385 list_strips 0;
#X obj 18 176 t a b;
#X msg 63 177 -1;
#X obj 18 225 route bang;
#X obj 18 93 until;
#X obj 18 116 f;
#X obj 18 139 t a a;
#X obj 58 125 + 1;
#X msg 58 94 0;
#X obj 18 24 r \$0.inlet;
#X obj 18 202 text get \$0.strips;
#X obj 75 282 s \$0.outlet;
#X obj 18 70 t b b a b, f 21;
#X msg 75 252 strip \$1 \$2 \$3 \$4;
#X obj 18 46 route list_strips;
#X connect 0 0 9 0;
#X connect 0 1 1 0;
#X connect 1 0 9 1;
#X connect 2 0 3 1;
#X connect 2 1 12 0;
#X connect 3 0 4 0;
#X connect 4 0 5 0;
#X connect 5 0 0 0;
#X connect 5 1 6 0;
#X connect 6 0 4 1;
#X connect 7 0 4 1;
#X connect 8 0 13 0;
#X connect 9 0 2 0;
#X connect 11 0 3 0;
#X connect 11 1 7 0;
#X connect 12 0 10 0;
#X connect 13 0 11 0;
#X restore 26 187 pd list_strips;
#N canvas 1309 515 385 164 rename_strip 1;
#X obj 18 24 r \$0.inlet;
#X obj 17 97 s \$0.to;
#X obj 18 46 route rename_strip;
#X msg 17 71 set strip name \, \$1 \$2;
#X connect 0 0 2 0;
#X connect 2 0 3 0;
#X connect 3 0 1 0;
#X restore 26 210 pd rename_strip;
#N canvas 1309 515 394 215 show_strip 0;
#X obj 18 24 r \$0.inlet;
#X obj 18 168 s \$0.to;
#X obj 18 46 route show_strip;
#X obj 18 68 unpack f f;
#X obj 18 117 pack f f;
#X obj 63 95 == 0;
#X msg 18 142 set strip hide \, \$1 \$2;
#X connect 0 0 2 0;
#X connect 2 0 3 0;
#X connect 3 0 4 0;
#X connect 3 1 5 0;
#X connect 4 0 6 0;
#X connect 5 0 4 1;
#X connect 6 0 1 0;
#X restore 26 234 pd show_strip;
#N canvas 1309 515 385 164 rename_group 0;
#X obj 18 24 r \$0.inlet;
#X obj 18 97 s \$0.to;
#X obj 18 46 route rename_group;
#X msg 18 71 set strip group \, \$1 \$2 \, set strip list \, bang;
#X connect 0 0 2 0;
#X connect 2 0 3 0;
#X connect 3 0 1 0;
#X restore 26 258 pd rename_group;
#X connect 0 0 2 0;
#X connect 2 0 1 0;
#X connect 3 0 2 1;
#X connect 6 0 37 0;
#X connect 7 0 17 0;
#X connect 9 0 10 0;
#X connect 12 0 20 0;
#X connect 13 0 14 0;
#X connect 14 0 15 0;
#X connect 15 0 9 0;
#X connect 15 1 16 0;
#X connect 17 0 13 0;
#X connect 18 0 17 1;
#X connect 20 0 11 0;
#X connect 21 0 11 0;
#X connect 22 0 11 0;
#X connect 23 0 11 0;
#X connect 25 0 24 0;
#X connect 26 0 25 0;
#X connect 27 0 28 0;
#X connect 28 0 29 0;
#X connect 31 0 30 0;
#X connect 32 0 31 0;
#X connect 33 0 34 0;
#X connect 35 0 36 0;
