#N canvas 830 133 738 464 10;
#X text 596 434 2022 \, Roman Haefeli;
#X text 13 9 ardour-interface: control track names \, visibility and
groups;
#X text 13 19 ------------------------------------------------------------
;
#X obj 92 309 ardour-interface;
#X msg 92 100 connect \$1;
#X obj 92 439 print ardour-interface;
#X obj 92 72 tgl 15 0 empty empty empty 17 7 0 10 #fcfcfc #000000 #000000
0 1;
#X msg 198 72 list_groups;
#X msg 198 118 list_strips_of_group Location_B;
#X msg 198 94 list_strips;
#X msg 198 170 rename_strip 3 Saxophone;
#X msg 198 222 show_strip 3 \$1;
#X obj 92 345 t a a;
#X obj 119 368 route ready session_name;
#X obj 119 391 tgl 15 0 empty empty empty 17 7 0 10 #fcfcfc #000000
#000000 0 1;
#X obj 189 391 symbol;
#X symbolatom 189 414 31 0 0 0 - - - 0;
#X obj 198 198 tgl 15 0 empty empty empty 17 7 0 10 #fcfcfc #000000
#000000 0 1;
#X msg 198 144 rename_group 5 Location_A;
#X msg 198 272 get_strip \$1;
#X floatatom 198 248 5 0 0 0 - - - 0;
#X connect 3 0 12 0;
#X connect 4 0 3 0;
#X connect 6 0 4 0;
#X connect 7 0 3 0;
#X connect 8 0 3 0;
#X connect 9 0 3 0;
#X connect 10 0 3 0;
#X connect 11 0 3 0;
#X connect 12 0 5 0;
#X connect 12 1 13 0;
#X connect 13 0 14 0;
#X connect 13 1 15 0;
#X connect 15 0 16 0;
#X connect 17 0 11 0;
#X connect 18 0 3 0;
#X connect 19 0 3 0;
#X connect 20 0 19 0;
