#N canvas 1145 449 432 265 10;
#X obj 18 13 inlet;
#X obj 18 36 t b b a b;
#X msg 69 113 1;
#X msg 35 113 0;
#X obj 52 145 spigot 0;
#X obj 18 191 outlet;
#X obj 105 189 outlet;
#X obj 52 60 s \$1.to.\$2;
#X obj 52 84 r \$1.from.\$2;
#X text 59 192 DONE;
#X text 149 192 OUTPUT;
#X connect 0 0 1 0;
#X connect 1 0 5 0;
#X connect 1 1 3 0;
#X connect 1 2 7 0;
#X connect 1 3 2 0;
#X connect 2 0 4 1;
#X connect 3 0 4 1;
#X connect 4 0 6 0;
#X connect 8 0 4 0;
