#N canvas 646 346 402 315 10;
#X obj 44 61 rzero_rev~ 0;
#X obj 29 90 -~;
#X obj 30 233 sel 1;
#X obj 28 31 inlet~;
#X obj 30 259 outlet;
#X obj 30 192 env~ 64 64;
#X obj 29 110 hip~ 10000;
#X obj 29 130 hip~ 10000;
#X obj 29 150 hip~ 10000;
#X obj 29 170 hip~ 10000;
#X obj 30 213 > 30;
#X connect 0 0 1 1;
#X connect 1 0 6 0;
#X connect 2 0 4 0;
#X connect 3 0 1 0;
#X connect 3 0 0 0;
#X connect 5 0 10 0;
#X connect 6 0 7 0;
#X connect 7 0 8 0;
#X connect 8 0 9 0;
#X connect 9 0 5 0;
#X connect 10 0 2 0;
