#N canvas 935 178 432 469 10;
#X obj 53 185 file isfile, f 12;
#X obj 34 211 f;
#X msg 82 211 0;
#X obj 34 234 sel 1;
#X obj 34 258 symbol, f 7;
#X obj 34 116 t b a b;
#X obj 53 164 t a a;
#X msg 53 142 symbol \$1/\$2;
#X msg 34 89 list /usr/bin \$1 \, list /usr/local/bin \$1;
#X obj 96 342 outlet;
#X obj 15 295 symbol;
#X msg 102 266 symbol <NOTFOUND>;
#X obj 15 18 inlet;
#X obj 15 46 t b a b a, f 21;
#X obj 15 318 sel <NOTFOUND>;
#X msg 15 394 ERROR: \$1 not found;
#X obj 15 417 print expandpath;
#X obj 15 371 symbol, f 21;
#X connect 0 0 1 1;
#X connect 1 0 3 0;
#X connect 2 0 1 1;
#X connect 3 0 4 0;
#X connect 4 0 10 1;
#X connect 5 0 1 0;
#X connect 5 1 7 0;
#X connect 5 2 2 0;
#X connect 6 0 0 0;
#X connect 6 1 4 1;
#X connect 7 0 6 0;
#X connect 8 0 5 0;
#X connect 10 0 14 0;
#X connect 11 0 10 1;
#X connect 12 0 13 0;
#X connect 13 0 10 0;
#X connect 13 1 8 0;
#X connect 13 2 11 0;
#X connect 13 3 17 1;
#X connect 14 0 17 0;
#X connect 14 1 9 0;
#X connect 15 0 16 0;
#X connect 17 0 15 0;
