#N canvas 753 528 328 227 10;
#X obj 110 16 inlet;
#X obj 110 36 b;
#X obj 110 109 f;
#X obj 37 16 loadbang;
#X obj 37 36 metro \$1;
#X obj 110 129 + 1;
#X obj 95 154 f;
#X obj 37 56 t b b;
#X msg 183 69 0;
#X obj 95 175 outlet;
#X connect 0 0 1 0;
#X connect 1 0 2 0;
#X connect 2 0 5 0;
#X connect 3 0 4 0;
#X connect 4 0 7 0;
#X connect 5 0 2 1;
#X connect 5 0 6 1;
#X connect 6 0 9 0;
#X connect 7 0 8 0;
#X connect 7 1 6 0;
#X connect 8 0 2 1;
#X connect 8 0 6 1;
