#N canvas 0 103 702 419 10;
#N canvas 217 325 763 207 \$0.gop 0;
#X coords 0 0 120 18 120 18 2 50 50;
#X restore 50 50 pd \$0.gop;
#N canvas 0 103 689 647 create.items 0;
#X obj 43 526 s pd-\$0.gop;
#X obj 43 154 until;
#X obj 43 177 f;
#X obj 43 222 t a a;
#X obj 89 224 + 1;
#X obj 166 184 s pd-\$0.gop;
#X msg 166 160 clear;
#X obj 450 359 list store;
#X msg 450 335 get \$1 1;
#X obj 507 334 r \$0.items;
#X obj 84 69 r \$0.length;
#X obj 43 200 mod, f 14;
#X obj 43 124 t a b a b, f 21;
#X obj 43 67 f;
#X obj 16 16 r \$0.redraw;
#X obj 43 454 pack f f f f f f f f s, f 64;
#X text 50 438 id;
#X text 100 437 x;
#X text 146 437 y;
#X text 193 436 w;
#X text 240 435 h;
#X text 393 437 bgclr;
#X text 338 437 boxclr;
#X text 434 438 label;
#X obj 43 478 list prepend scalar \$0.rectangle;
#X obj 43 501 list trim;
#X obj 43 247 t a a a a a a a a a, f 64;
#X text 289 436 txtclr;
#X obj 344 347 r \$0.sel.clr;
#X obj 332 299 b;
#X obj 281 370 list append;
#X obj 332 322 list append;
#X obj 359 296 r \$0.items.clr;
#X obj 281 400 unpack f f f;
#X obj 173 372 r \$0.width;
#X obj 201 397 r \$0.height;
#X obj 16 39 t b b;
#X msg 84 153 0;
#X obj 281 274 sel -1, f 9;
#X obj 427 49 f;
#X obj 427 12 r \$0.redraw;
#X obj 461 48 r \$0.length;
#X msg 427 130 coords 0 0 \$2 \$1 \$2 \$1 2 50 50;
#X obj 427 72 *;
#X obj 441 161 s \$0.top;
#X obj 427 191 s pd-\$0.gop;
#N canvas 0 103 399 230 convert.to.symbol 0;
#X obj 69 28 loadbang;
#X msg 69 51 symbol;
#X obj 18 90 list append;
#X msg 18 113 symbol \$1\$2;
#X obj 18 44 inlet;
#X obj 18 147 outlet;
#X connect 0 0 1 0;
#X connect 1 0 2 1;
#X connect 2 0 3 0;
#X connect 3 0 5 0;
#X connect 4 0 2 0;
#X restore 450 383 pd convert.to.symbol;
#X msg 154 340 0;
#X obj 98 376 *;
#X obj 460 74 r \$0.width;
#X obj 511 104 r \$0.height;
#X obj 427 104 list prepend;
#X connect 1 0 2 0;
#X connect 2 0 11 0;
#X connect 3 0 26 0;
#X connect 3 1 4 0;
#X connect 4 0 2 1;
#X connect 6 0 5 0;
#X connect 7 0 46 0;
#X connect 8 0 7 0;
#X connect 9 0 7 1;
#X connect 10 0 13 1;
#X connect 11 0 3 0;
#X connect 12 0 1 0;
#X connect 12 1 37 0;
#X connect 12 2 11 1;
#X connect 12 3 6 0;
#X connect 13 0 12 0;
#X connect 14 0 36 0;
#X connect 15 0 24 0;
#X connect 24 0 25 0;
#X connect 25 0 0 0;
#X connect 26 0 15 0;
#X connect 26 1 48 0;
#X connect 26 2 47 0;
#X connect 26 5 38 0;
#X connect 26 8 8 0;
#X connect 28 0 30 1;
#X connect 29 0 31 0;
#X connect 30 0 33 0;
#X connect 31 0 33 0;
#X connect 32 0 31 1;
#X connect 33 0 15 5;
#X connect 33 1 15 6;
#X connect 33 2 15 7;
#X connect 34 0 15 3;
#X connect 34 0 48 1;
#X connect 35 0 15 4;
#X connect 36 1 13 0;
#X connect 37 0 2 1;
#X connect 38 0 30 0;
#X connect 38 1 29 0;
#X connect 39 0 43 0;
#X connect 40 0 39 0;
#X connect 41 0 39 1;
#X connect 42 0 45 0;
#X connect 42 0 44 0;
#X connect 43 0 51 0;
#X connect 46 0 15 8;
#X connect 47 0 15 2;
#X connect 48 0 15 1;
#X connect 49 0 43 1;
#X connect 50 0 51 1;
#X connect 51 0 42 0;
#X restore 301 106 pd create.items;
#N canvas 256 166 432 155 the.struct 0;
#X obj 11 112 outlet;
#X obj 12 12 filledpolygon bgclr boxclr 1 0 0 w 0 w h 0 h;
#X obj 11 76 struct \$0.rectangle float id float x float y float w
float h float txtclr float boxclr float bgclr symbol label;
#X obj 13 44 drawsymbol label 4 3 txtclr;
#X connect 2 0 0 0;
#X restore 301 132 pd the.struct;
#X text 483 26 arg1: sendname;
#X obj 301 34 namecanvas \$0.top;
#N canvas 189 231 432 283 methods 0;
#N canvas 0 103 391 344 items 0;
#X obj 45 192 list length;
#X obj 45 214 s \$0.length;
#X obj 62 169 s \$0.items;
#X obj 28 239 s \$0.redraw;
#X obj 11 146 t b b a a;
#X msg 12 33 args 0;
#X obj 12 56 pdcontrol;
#X obj 12 79 list split 2;
#X obj 12 10 inlet;
#X connect 0 0 1 0;
#X connect 4 1 3 0;
#X connect 4 2 0 0;
#X connect 4 3 2 0;
#X connect 5 0 6 0;
#X connect 6 0 7 0;
#X connect 7 1 4 0;
#X connect 8 0 5 0;
#X restore 17 108 pd items;
#X text 13 13 input;
#X text 261 30 output;
#N canvas 0 103 439 129 selected 0;
#X obj 30 18 r \$0.sel.value;
#X msg 30 41 selected \$1;
#X obj 30 64 s \$1;
#X connect 0 0 1 0;
#X connect 1 0 2 0;
#X restore 260 58 pd selected;
#N canvas 0 103 436 204 width 0;
#X obj 11 70 s \$0.width;
#X obj 11 42 f \$2;
#X obj 11 19 inlet;
#X connect 1 0 0 0;
#X connect 2 0 1 0;
#X restore 164 100 pd width;
#N canvas 0 103 439 174 height 0;
#X obj 14 75 s \$0.height;
#X obj 13 14 inlet;
#X msg 13 37 18;
#X connect 1 0 2 0;
#X connect 2 0 0 0;
#X restore 164 124 pd height;
#N canvas 0 103 362 166 items_* 0;
#X obj 11 69 s \$0.items.clr;
#X obj 10 7 inlet;
#X msg 9 30 555 888 888;
#X connect 1 0 2 0;
#X connect 2 0 0 0;
#X restore 164 196 pd items_*;
#N canvas 0 103 444 292 selected_* 0;
#X obj 10 77 s \$0.sel.clr;
#X obj 11 24 inlet;
#X msg 10 48 0 888 888;
#X connect 1 0 2 0;
#X connect 2 0 0 0;
#X restore 164 172 pd selected_*;
#N canvas 0 103 439 174 fontsize 0;
#X obj 12 93 s \$0.fontsize;
#X obj 11 32 inlet;
#X msg 11 55 12;
#X connect 1 0 2 0;
#X connect 2 0 0 0;
#X restore 164 148 pd fontsize;
#X obj 17 32 loadbang;
#X obj 17 55 t b b;
#N canvas 0 103 450 300 reset 0;
#X obj 20 17 r \$1;
#X obj 20 41 route reset;
#X obj 20 95 s \$0.reset;
#X obj 20 65 b;
#X connect 0 0 1 0;
#X connect 1 0 3 0;
#X connect 3 0 2 0;
#X restore 17 159 pd reset;
#N canvas 0 103 360 210 set 0;
#X obj 20 16 r \$1;
#X obj 20 39 route set;
#N canvas 0 103 399 230 convert.to.symbol 0;
#X obj 69 28 loadbang;
#X msg 69 51 symbol;
#X obj 18 90 list append;
#X msg 18 113 symbol \$1\$2;
#X obj 18 44 inlet;
#X obj 18 147 outlet;
#X connect 0 0 1 0;
#X connect 1 0 2 1;
#X connect 2 0 3 0;
#X connect 3 0 5 0;
#X connect 4 0 2 0;
#X restore 20 89 pd convert.to.symbol;
#X obj 20 62 list;
#X obj 20 118 s \$0.set;
#X connect 0 0 1 0;
#X connect 1 0 3 0;
#X connect 2 0 4 0;
#X connect 3 0 2 0;
#X restore 17 185 pd set;
#X connect 9 0 10 0;
#X connect 10 0 0 0;
#X connect 10 1 4 0;
#X connect 10 1 5 0;
#X connect 10 1 8 0;
#X connect 10 1 7 0;
#X connect 10 1 6 0;
#X restore 301 82 pd methods;
#X obj 206 306 s \$0.top;
#X msg 206 281 font \$1 100 100;
#X obj 206 257 r \$0.fontsize;
#N canvas 163 147 588 403 select 0;
#X obj 28 30 inlet;
#X obj 28 53 route click;
#X msg 28 76 \$1;
#X obj 45 245 set \$0.rectangle txtclr;
#X obj 28 274 get \$0.rectangle label;
#X obj 28 301 s \$0.sel.value;
#X obj 28 100 t a b a b;
#X obj 79 202 f;
#X obj 45 198 f;
#X obj 136 33 r \$0.sel.clr;
#X obj 173 62 r \$0.items.clr;
#X msg 173 85 \$1;
#X msg 136 58 \$1;
#X obj 79 171 spigot 0;
#X obj 180 144 t a b;
#X msg 207 170 1;
#X obj 101 146 r \$0.reset;
#X msg 369 195 traverse pd-\$1.gop;
#X obj 369 171 f \$0;
#X obj 317 237 pointer \$0.rectangle;
#X obj 317 171 until;
#X obj 317 291 get \$0.rectangle label;
#X msg 317 194 next;
#X obj 317 372 pointer;
#X obj 317 260 t a a, f 9;
#X obj 317 144 t b b a, f 18;
#X obj 317 118 r \$0.set;
#X obj 317 344 t b b;
#X obj 518 360 print;
#X obj 317 320 select bla, f 18;
#X connect 0 0 1 0;
#X connect 1 0 2 0;
#X connect 2 0 6 0;
#X connect 4 0 5 0;
#X connect 6 0 4 0;
#X connect 6 1 8 0;
#X connect 6 2 14 0;
#X connect 6 3 13 0;
#X connect 7 0 3 0;
#X connect 8 0 3 0;
#X connect 9 0 12 0;
#X connect 10 0 11 0;
#X connect 11 0 7 1;
#X connect 12 0 8 1;
#X connect 13 0 7 0;
#X connect 14 0 3 1;
#X connect 14 1 15 0;
#X connect 15 0 13 1;
#X connect 16 0 13 0;
#X connect 17 0 19 0;
#X connect 18 0 17 0;
#X connect 19 0 24 0;
#X connect 19 2 20 1;
#X connect 20 0 22 0;
#X connect 21 0 29 0;
#X connect 22 0 19 0;
#X connect 23 0 6 0;
#X connect 24 0 21 0;
#X connect 24 1 23 1;
#X connect 25 0 20 0;
#X connect 25 1 18 0;
#X connect 25 2 29 1;
#X connect 26 0 25 0;
#X connect 27 0 23 0;
#X connect 27 1 20 1;
#X connect 29 0 27 0;
#X restore 302 162 pd select;
#X msg 171 254 10;
#X msg 376 287 clear;
#X obj 376 310 s pd-\$0.gop;
#X connect 2 0 9 0;
#X connect 7 0 6 0;
#X connect 8 0 7 0;
#X connect 10 0 7 0;
#X connect 11 0 12 0;
#X coords 0 0 120 18 120 18 2 50 50;
