#N canvas 507 281 552 436 10;
#X obj 279 48 text define \$0.connections;
#X obj 279 22 r \$0.text;
#N canvas 0 0 394 214 refresh 0;
#N canvas 0 0 588 520 raw_command_output 0;
#X obj 17 86 command -b;
#X obj 106 252 list store;
#X obj 106 138 list prepend append;
#X obj 106 162 list trim;
#X obj 17 184 sel 0;
#X obj 17 212 t b b b;
#X msg 17 53 exec jack_lsp -c;
#X obj 106 433 s \$0.rawdata;
#X obj 106 395 list prepend 0;
#X obj 106 276 t a a;
#X obj 133 300 list length;
#X msg 133 324 resize \$1;
#X obj 133 348 s \$0.rawdata;
#X obj 17 22 inlet;
#X obj 17 431 outlet;
#X msg 249 251 ERROR: refreshing cache failed. Is JACK running?;
#X obj 249 323 print jack-connection-manager;
#X obj 222 345 outlet;
#X obj 222 220 t b b;
#X connect 0 0 4 0;
#X connect 0 1 2 0;
#X connect 1 0 9 0;
#X connect 2 0 3 0;
#X connect 3 0 1 0;
#X connect 4 0 5 0;
#X connect 4 1 18 0;
#X connect 5 0 14 0;
#X connect 5 1 1 1;
#X connect 5 2 1 0;
#X connect 6 0 0 0;
#X connect 8 0 7 0;
#X connect 9 0 8 0;
#X connect 9 1 10 0;
#X connect 10 0 11 0;
#X connect 11 0 12 0;
#X connect 13 0 6 0;
#X connect 15 0 16 0;
#X connect 18 0 17 0;
#X connect 18 1 15 0;
#X restore 29 118 pd raw_command_output;
#X obj 201 122 table \$0.rawdata;
#N canvas 0 0 398 439 raw_to 0;
#N canvas 0 0 542 573 parse_output 0;
#X obj 49 156 until;
#X obj 49 179 f;
#X obj 49 202 t a a;
#X obj 94 196 + 1;
#X obj 49 105 array size \$0.rawdata;
#X obj 49 130 t a b;
#X msg 96 158 0;
#X obj 245 386 list store;
#X msg 245 276 append \$1;
#X obj 245 413 list tosymbol;
#X obj 49 228 tabread \$0.rawdata;
#N canvas 0 0 216 413 detect_10_32_32_32 0;
#X obj 40 13 inlet;
#X obj 42 74 f;
#X obj 40 45 t a b a;
#X obj 44 133 f;
#X obj 42 104 t a b a;
#X obj 46 189 f;
#X obj 44 160 t a b a;
#X obj 46 223 pack f f f f;
#X obj 46 246 route 10;
#X obj 46 269 route 32;
#X obj 46 292 route 32;
#X obj 46 315 route 32;
#X obj 46 368 outlet;
#X obj 46 338 b;
#X connect 0 0 2 0;
#X connect 1 0 4 0;
#X connect 2 0 1 1;
#X connect 2 1 1 0;
#X connect 2 2 7 3;
#X connect 3 0 6 0;
#X connect 4 0 3 1;
#X connect 4 1 3 0;
#X connect 4 2 7 2;
#X connect 5 0 7 0;
#X connect 6 0 5 1;
#X connect 6 1 5 0;
#X connect 6 2 7 1;
#X connect 7 0 8 0;
#X connect 8 0 9 0;
#X connect 9 0 10 0;
#X connect 10 0 11 0;
#X connect 11 0 13 0;
#X connect 13 0 12 0;
#X restore 49 319 pd detect_10_32_32_32;
#X obj 186 319 sel 10 58;
#X obj 49 275 t a a;
#X obj 49 251 t a a a, f 66;
#X obj 442 277 sel 10 58;
#X msg 92 401 IND;
#X msg 156 401 COL;
#X msg 125 401 NEW;
#X obj 92 432 list;
#X obj 245 491 list prepend;
#X obj 30 45 t b b b;
#X obj 30 16 inlet;
#X obj 245 514 outlet;
#X connect 0 0 1 0;
#X connect 1 0 2 0;
#X connect 2 0 10 0;
#X connect 2 1 3 0;
#X connect 3 0 1 1;
#X connect 4 0 5 0;
#X connect 5 0 0 0;
#X connect 5 1 6 0;
#X connect 6 0 1 1;
#X connect 7 0 9 0;
#X connect 8 0 7 0;
#X connect 9 0 20 0;
#X connect 10 0 14 0;
#X connect 11 0 7 1;
#X connect 11 0 16 0;
#X connect 12 0 7 1;
#X connect 12 0 18 0;
#X connect 12 1 7 1;
#X connect 12 1 17 0;
#X connect 13 0 11 0;
#X connect 13 1 12 0;
#X connect 14 0 13 0;
#X connect 14 1 8 0;
#X connect 14 2 15 0;
#X connect 15 0 7 0;
#X connect 15 1 7 0;
#X connect 16 0 19 0;
#X connect 17 0 19 0;
#X connect 18 0 19 0;
#X connect 19 0 20 1;
#X connect 20 0 23 0;
#X connect 21 0 7 1;
#X connect 21 1 4 0;
#X connect 21 2 18 0;
#X connect 22 0 21 0;
#X restore 36 125 pd parse_output;
#X msg 231 186 symbol \$1;
#X obj 56 100 s \$0.text;
#X msg 56 79 clear;
#X obj 231 209 sel NEW IND COL;
#X obj 93 392 text set \$0.connections;
#X obj 36 156 t a a, f 33;
#X obj 36 277 list store;
#X obj 230 234 t b b;
#X msg 138 360 1e+06;
#X obj 93 335 t a b;
#X obj 36 300 route bang;
#X msg 36 193 append \$2;
#X obj 17 54 t b b b;
#X obj 17 230 t b b;
#X obj 17 25 inlet;
#X connect 0 0 6 0;
#X connect 1 0 4 0;
#X connect 3 0 2 0;
#X connect 4 0 8 0;
#X connect 6 0 12 0;
#X connect 6 1 1 0;
#X connect 7 0 11 0;
#X connect 8 0 7 1;
#X connect 8 1 7 0;
#X connect 9 0 5 1;
#X connect 10 0 5 0;
#X connect 10 1 9 0;
#X connect 11 1 10 0;
#X connect 12 0 7 0;
#X connect 13 0 14 0;
#X connect 13 1 0 0;
#X connect 13 2 3 0;
#X connect 14 0 7 1;
#X connect 14 1 7 0;
#X connect 15 0 13 0;
#X restore 29 149 pd raw_to text;
#X obj 29 65 route refresh;
#X obj 29 88 b;
#X obj 29 40 r \$0.inlet.0;
#X connect 0 0 2 0;
#X connect 3 0 4 0;
#X connect 4 0 0 0;
#X connect 5 0 3 0;
#X restore 23 203 pd refresh;
#N canvas 0 0 472 549 list_connections 0;
#X obj 18 253 text search \$0.connections 0 1;
#X obj 18 286 route -1, f 22;
#X obj 147 313 text get \$0.connections;
#X obj 147 340 list split 2;
#X obj 18 309 b;
#X obj 181 399 until;
#X obj 181 483 list store, f 18;
#X obj 181 428 f;
#X msg 233 398 0;
#X obj 219 427 + 2;
#X obj 181 370 t b b a, f 18;
#X msg 181 455 get \$1 2;
#X obj 18 24 r \$0.inlet.0;
#X obj 18 47 route list_connections;
#X obj 18 97 t a a, f 26;
#X obj 18 177 spigot;
#X obj 171 120 list length;
#X obj 18 70 list;
#X obj 171 143 == 2;
#X obj 171 169 sel 0;
#X msg 171 193 list_connections: wrong number of arguments;
#X obj 171 217 s \$0.error;
#X obj 18 332 s \$0.outlet.1;
#X obj 181 507 s \$0.outlet.0;
#X connect 0 0 1 0;
#X connect 1 0 4 0;
#X connect 1 1 2 0;
#X connect 2 0 3 0;
#X connect 3 1 10 0;
#X connect 4 0 22 0;
#X connect 5 0 7 0;
#X connect 6 0 23 0;
#X connect 6 1 5 1;
#X connect 7 0 11 0;
#X connect 7 0 9 0;
#X connect 8 0 7 1;
#X connect 9 0 7 1;
#X connect 10 0 5 0;
#X connect 10 1 8 0;
#X connect 10 2 6 1;
#X connect 11 0 6 0;
#X connect 12 0 13 0;
#X connect 13 0 17 0;
#X connect 14 0 15 0;
#X connect 14 1 16 0;
#X connect 15 0 0 0;
#X connect 16 0 18 0;
#X connect 17 0 14 0;
#X connect 18 0 15 1;
#X connect 18 0 19 0;
#X connect 19 0 20 0;
#X connect 20 0 21 0;
#X restore 23 227 pd list_connections;
#X obj 18 11 inlet;
#X obj 18 34 s \$0.inlet.0;
#X obj 20 96 r \$0.outlet.0;
#X obj 20 149 outlet;
#X text 25 75 DATA;
#X obj 134 150 outlet;
#X text 139 76 ERRORS;
#X obj 134 97 r \$0.outlet.1;
#N canvas 749 470 405 392 list_clients 0;
#X obj 18 202 text get \$0.connections;
#X obj 18 176 t a b;
#X msg 63 177 -1;
#X obj 18 225 route bang;
#X obj 18 24 r \$0.inlet.0;
#X obj 108 334 s \$0.outlet.0;
#X obj 18 47 route list_clients;
#X obj 18 93 until;
#X obj 18 116 f;
#X obj 18 139 t a a;
#X obj 58 125 + 1;
#X msg 58 94 0;
#X msg 75 253 symbol \$1;
#X obj 75 300 sel °ö;
#X obj 165 300 t a;
#X obj 18 70 t b b b, f 14;
#X msg 185 266 symbol °ö;
#X text 245 267 <- unlikely symbol;
#X connect 0 0 3 0;
#X connect 1 0 0 0;
#X connect 1 1 2 0;
#X connect 2 0 0 1;
#X connect 3 0 7 1;
#X connect 3 1 12 0;
#X connect 4 0 6 0;
#X connect 6 0 15 0;
#X connect 7 0 8 0;
#X connect 8 0 9 0;
#X connect 9 0 1 0;
#X connect 9 1 10 0;
#X connect 10 0 8 1;
#X connect 11 0 8 1;
#X connect 12 0 13 0;
#X connect 13 1 5 0;
#X connect 13 1 14 0;
#X connect 14 0 13 1;
#X connect 15 0 7 0;
#X connect 15 1 11 0;
#X connect 15 2 16 0;
#X connect 16 0 13 1;
#X restore 23 252 pd list_clients;
#N canvas 749 470 337 376 list_ports 0;
#X obj 18 202 text get \$0.connections;
#X obj 18 176 t a b;
#X msg 63 177 -1;
#X obj 18 225 route bang;
#X obj 18 24 r \$0.inlet.0;
#X obj 18 93 until;
#X obj 18 116 f;
#X obj 18 139 t a a;
#X obj 58 125 + 1;
#X msg 58 94 0;
#X obj 18 47 route list_ports;
#X obj 18 70 t b b a, f 14;
#X obj 75 251 list trim;
#X obj 75 275 route °ö;
#X obj 75 300 list split 1;
#X obj 75 323 s \$0.outlet.0;
#X obj 120 128 symbol;
#X connect 0 0 3 0;
#X connect 1 0 0 0;
#X connect 1 1 2 0;
#X connect 2 0 0 1;
#X connect 3 0 5 1;
#X connect 3 1 12 0;
#X connect 4 0 10 0;
#X connect 5 0 6 0;
#X connect 6 0 7 0;
#X connect 7 0 1 0;
#X connect 7 1 8 0;
#X connect 8 0 6 1;
#X connect 9 0 6 1;
#X connect 10 0 11 0;
#X connect 11 0 5 0;
#X connect 11 1 9 0;
#X connect 11 2 16 0;
#X connect 12 0 13 0;
#X connect 13 0 14 0;
#X connect 14 0 15 0;
#X connect 16 0 13 1;
#X restore 23 277 pd list_ports;
#N canvas 740 462 491 545 connect 0;
#X obj 58 24 r \$0.inlet.0;
#X obj 60 475 s \$0.outlet.0;
#X obj 58 47 route connect;
#X msg 58 379 exec jack_connect \$1:\$2 \$3:\$4;
#N canvas 0 0 410 271 validate_input 0;
#X obj 15 51 list;
#X obj 42 98 list length;
#X obj 15 74 t a a;
#X obj 15 124 list prepend;
#X obj 15 147 route 4;
#X msg 103 170 'connect' expects exactly 4 arguments;
#X obj 103 193 print jack-connection-manager;
#X obj 15 181 list;
#X obj 15 20 inlet;
#X obj 15 207 outlet;
#X connect 0 0 2 0;
#X connect 1 0 3 1;
#X connect 2 0 3 0;
#X connect 2 1 1 0;
#X connect 3 0 4 0;
#X connect 4 0 7 0;
#X connect 4 1 5 0;
#X connect 5 0 6 0;
#X connect 7 0 9 0;
#X connect 8 0 0 0;
#X restore 58 68 pd validate_input;
#X obj 58 115 list split 2, f 31;
#X obj 58 91 t a a, f 18;
#X obj 58 202 &&;
#X obj 58 238 sel 1;
#X obj 199 190 sel 0;
#X obj 199 213 list append;
#X obj 199 141 t a a;
#X obj 58 140 t a a, f 6;
#X obj 113 190 sel 0;
#X obj 113 213 list append;
#X msg 199 238 'connect': no such port: \$1 \$2;
#X obj 199 261 print jack-connection-manager;
#X obj 58 263 list append;
#N canvas 1075 550 327 234 is_connected 0;
#X obj 24 14 inlet;
#X obj 67 123 s \$0.inlet.0;
#X obj 67 145 r \$0.outlet.0;
#X obj 24 39 t b a;
#X obj 24 198 outlet;
#X obj 24 175 list append;
#X msg 67 100 is_connected \$1 \$2 \$3 \$4;
#N canvas 1042 924 374 190 suppress 0;
#X obj 25 21 inlet;
#X obj 42 154 outlet;
#X obj 59 127 s \$0.suppress;
#X msg 59 103 0;
#X obj 25 98 f;
#X obj 25 44 t b a b b;
#X obj 76 70 f;
#X obj 91 46 r \$0.suppress;
#X connect 0 0 5 0;
#X connect 3 0 2 0;
#X connect 4 0 2 0;
#X connect 5 0 4 0;
#X connect 5 1 1 0;
#X connect 5 2 3 0;
#X connect 5 3 6 0;
#X connect 6 0 4 1;
#X connect 7 0 6 1;
#X restore 67 75 pd suppress;
#X connect 0 0 3 0;
#X connect 2 0 5 1;
#X connect 3 0 5 0;
#X connect 3 1 7 0;
#X connect 5 0 4 0;
#X connect 6 0 1 0;
#X connect 7 0 6 0;
#X restore 58 288 pd is_connected;
#X obj 58 311 sel 0;
#X obj 58 335 list append;
#X obj 58 358 t a a;
#N canvas 1075 550 327 234 port_exists 0;
#N canvas 1042 924 374 190 suppress 0;
#X obj 25 21 inlet;
#X obj 42 154 outlet;
#X obj 59 127 s \$0.suppress;
#X msg 59 103 0;
#X obj 25 98 f;
#X obj 25 44 t b a b b;
#X obj 76 70 f;
#X obj 91 46 r \$0.suppress;
#X connect 0 0 5 0;
#X connect 3 0 2 0;
#X connect 4 0 2 0;
#X connect 5 0 4 0;
#X connect 5 1 1 0;
#X connect 5 2 3 0;
#X connect 5 3 6 0;
#X connect 6 0 4 1;
#X connect 7 0 6 1;
#X restore 67 75 pd suppress;
#X obj 24 14 inlet;
#X msg 67 100 port_exists \$1 \$2;
#X obj 67 123 s \$0.inlet.0;
#X obj 67 145 r \$0.outlet.0;
#X obj 24 42 t b a;
#X obj 24 198 outlet;
#X obj 24 175 list append;
#X connect 0 0 2 0;
#X connect 1 0 5 0;
#X connect 2 0 3 0;
#X connect 4 0 7 1;
#X connect 5 0 7 0;
#X connect 5 1 0 0;
#X connect 7 0 6 0;
#X restore 199 165 pd port_exists;
#N canvas 1075 550 327 234 port_exists 0;
#N canvas 1042 924 374 190 suppress 0;
#X obj 25 21 inlet;
#X obj 42 154 outlet;
#X obj 59 127 s \$0.suppress;
#X msg 59 103 0;
#X obj 25 98 f;
#X obj 25 44 t b a b b;
#X obj 76 70 f;
#X obj 91 46 r \$0.suppress;
#X connect 0 0 5 0;
#X connect 3 0 2 0;
#X connect 4 0 2 0;
#X connect 5 0 4 0;
#X connect 5 1 1 0;
#X connect 5 2 3 0;
#X connect 5 3 6 0;
#X connect 6 0 4 1;
#X connect 7 0 6 1;
#X restore 67 75 pd suppress;
#X obj 24 14 inlet;
#X msg 67 100 port_exists \$1 \$2;
#X obj 67 123 s \$0.inlet.0;
#X obj 67 145 r \$0.outlet.0;
#X obj 24 42 t b a;
#X obj 24 198 outlet;
#X obj 24 175 list append;
#X connect 0 0 2 0;
#X connect 1 0 5 0;
#X connect 2 0 3 0;
#X connect 4 0 7 1;
#X connect 5 0 7 0;
#X connect 5 1 0 0;
#X connect 7 0 6 0;
#X restore 58 165 pd port_exists;
#X obj 58 425 s \$0.fifo;
#N canvas 1261 621 358 393 update_connections_cache 0;
#X obj 30 24 inlet;
#X obj 30 107 list split 2;
#X obj 30 136 text search \$0.connections 0 1;
#X obj 102 266 list append;
#X obj 63 186 t a a a;
#X obj 82 212 text delete \$0.connections;
#X obj 63 286 t b a;
#X obj 63 336 text insert \$0.connections;
#X obj 63 309 list append;
#X obj 30 47 t a a;
#X msg 57 71 list \$3 \$4 \$1 \$2;
#X obj 30 159 sel -1;
#X obj 102 239 text get \$0.connections;
#X connect 0 0 9 0;
#X connect 1 0 2 0;
#X connect 1 1 3 1;
#X connect 2 0 11 0;
#X connect 3 0 8 1;
#X connect 4 0 6 0;
#X connect 4 1 5 0;
#X connect 4 2 12 0;
#X connect 6 0 8 0;
#X connect 6 1 7 1;
#X connect 8 0 7 0;
#X connect 9 0 1 0;
#X connect 9 1 10 0;
#X connect 10 0 1 0;
#X connect 11 1 4 0;
#X connect 12 0 3 0;
#X restore 223 350 pd update_connections_cache;
#X connect 0 0 2 0;
#X connect 2 0 4 0;
#X connect 3 0 24 0;
#X connect 4 0 6 0;
#X connect 5 0 12 0;
#X connect 5 1 11 0;
#X connect 6 0 5 0;
#X connect 6 1 17 1;
#X connect 6 1 20 1;
#X connect 7 0 8 0;
#X connect 8 0 17 0;
#X connect 9 0 10 0;
#X connect 10 0 15 0;
#X connect 11 0 22 0;
#X connect 11 1 10 1;
#X connect 12 0 23 0;
#X connect 12 1 14 1;
#X connect 13 0 14 0;
#X connect 14 0 15 0;
#X connect 15 0 16 0;
#X connect 17 0 18 0;
#X connect 18 0 19 0;
#X connect 19 0 20 0;
#X connect 20 0 21 0;
#X connect 21 0 3 0;
#X connect 21 1 25 0;
#X connect 22 0 9 0;
#X connect 22 0 7 1;
#X connect 23 0 7 0;
#X connect 23 0 13 0;
#X restore 23 299 pd connect;
#N canvas 749 470 335 223 port_exists 0;
#X obj 18 24 r \$0.inlet.0;
#X obj 18 164 s \$0.outlet.0;
#X obj 18 47 route port_exists;
#X obj 18 95 text search \$0.connections 0 1;
#X obj 18 117 sel -1;
#X msg 18 140 0;
#X msg 51 143 1;
#N canvas 0 0 410 271 validate_input 0;
#X obj 15 51 list;
#X obj 42 98 list length;
#X obj 15 74 t a a;
#X obj 15 124 list prepend;
#X obj 103 193 print jack-connection-manager;
#X obj 15 181 list;
#X obj 15 20 inlet;
#X obj 15 207 outlet;
#X obj 15 147 route 2;
#X msg 103 170 'port_exists' expects exactly 2 arguments;
#X connect 0 0 2 0;
#X connect 1 0 3 1;
#X connect 2 0 3 0;
#X connect 2 1 1 0;
#X connect 3 0 8 0;
#X connect 5 0 7 0;
#X connect 6 0 0 0;
#X connect 8 0 5 0;
#X connect 8 1 9 0;
#X connect 9 0 4 0;
#X restore 18 72 pd validate_input;
#X connect 0 0 2 0;
#X connect 2 0 7 0;
#X connect 3 0 4 0;
#X connect 4 0 5 0;
#X connect 4 1 6 0;
#X connect 5 0 1 0;
#X connect 6 0 1 0;
#X connect 7 0 3 0;
#X restore 23 323 pd port_exists;
#N canvas 792 462 348 560 is_connected 0;
#X obj 18 24 r \$0.inlet.0;
#X obj 18 47 route is_connected;
#N canvas 0 0 410 271 validate_input 0;
#X obj 15 51 list;
#X obj 42 98 list length;
#X obj 15 74 t a a;
#X obj 15 124 list prepend;
#X obj 15 147 route 4;
#X obj 103 193 print jack-connection-manager;
#X obj 15 181 list;
#X obj 15 20 inlet;
#X obj 15 207 outlet;
#X msg 103 170 'is_connected' expects exactly 4 arguments;
#X connect 0 0 2 0;
#X connect 1 0 3 1;
#X connect 2 0 3 0;
#X connect 2 1 1 0;
#X connect 3 0 4 0;
#X connect 4 0 6 0;
#X connect 4 1 9 0;
#X connect 6 0 8 0;
#X connect 7 0 0 0;
#X connect 9 0 5 0;
#X restore 18 72 pd validate_input;
#X obj 18 119 list split 2, f 31;
#N canvas 1075 550 327 234 port_exists 0;
#N canvas 1042 924 374 190 suppress 0;
#X obj 25 21 inlet;
#X obj 42 154 outlet;
#X obj 59 127 s \$0.suppress;
#X msg 59 103 0;
#X obj 25 98 f;
#X obj 25 44 t b a b b;
#X obj 76 70 f;
#X obj 91 46 r \$0.suppress;
#X connect 0 0 5 0;
#X connect 3 0 2 0;
#X connect 4 0 2 0;
#X connect 5 0 4 0;
#X connect 5 1 1 0;
#X connect 5 2 3 0;
#X connect 5 3 6 0;
#X connect 6 0 4 1;
#X connect 7 0 6 1;
#X restore 67 75 pd suppress;
#X obj 24 14 inlet;
#X msg 67 100 port_exists \$1 \$2;
#X obj 67 123 s \$0.inlet.0;
#X obj 67 145 r \$0.outlet.0;
#X obj 24 42 t b a;
#X obj 24 198 outlet;
#X obj 24 175 list append;
#X connect 0 0 2 0;
#X connect 1 0 5 0;
#X connect 2 0 3 0;
#X connect 4 0 7 1;
#X connect 5 0 7 0;
#X connect 5 1 0 0;
#X connect 7 0 6 0;
#X restore 67 170 pd port_exists;
#X obj 18 95 t a a, f 11;
#X obj 67 194 &&;
#X obj 67 218 sel 1;
#X obj 67 242 list append;
#X obj 18 473 f;
#X obj 18 496 s \$0.outlet.0;
#N canvas 1075 550 266 266 list_connections 0;
#X obj 24 14 inlet;
#X obj 61 117 s \$0.inlet.0;
#X obj 61 139 r \$0.outlet.0;
#X obj 61 219 outlet;
#X msg 61 94 list_connections \$1 \$2;
#X obj 24 71 t b a b, f 13;
#X obj 61 194 spigot;
#X msg 99 172 1;
#X msg 24 167 0;
#N canvas 1042 924 374 190 suppress 0;
#X obj 25 21 inlet;
#X obj 42 154 outlet;
#X obj 59 127 s \$0.suppress;
#X msg 59 103 0;
#X obj 25 98 f;
#X obj 25 44 t b a b b;
#X obj 76 70 f;
#X obj 91 46 r \$0.suppress;
#X connect 0 0 5 0;
#X connect 3 0 2 0;
#X connect 4 0 2 0;
#X connect 5 0 4 0;
#X connect 5 1 1 0;
#X connect 5 2 3 0;
#X connect 5 3 6 0;
#X connect 6 0 4 1;
#X connect 7 0 6 1;
#X restore 24 41 pd suppress;
#X connect 0 0 9 0;
#X connect 2 0 6 0;
#X connect 4 0 1 0;
#X connect 5 0 8 0;
#X connect 5 1 4 0;
#X connect 5 2 7 0;
#X connect 6 0 3 0;
#X connect 7 0 6 1;
#X connect 8 0 6 1;
#X connect 9 0 5 0;
#X restore 67 301 pd list_connections;
#X obj 18 144 t b a b, f 17;
#X msg 222 384 0;
#X obj 67 351 sel _;
#X msg 67 374 1;
#X msg 94 373 0;
#X obj 67 324 unpack s s;
#X obj 148 326 unpack s s;
#X obj 125 354 sel _;
#X msg 125 377 1;
#X msg 152 376 0;
#X obj 100 429 t a;
#X obj 67 429 max;
#X obj 67 404 &&;
#X obj 67 274 list split 2, f 31;
#N canvas 1075 550 327 234 port_exists 0;
#N canvas 1042 924 374 190 suppress 0;
#X obj 25 21 inlet;
#X obj 42 154 outlet;
#X obj 59 127 s \$0.suppress;
#X msg 59 103 0;
#X obj 25 98 f;
#X obj 25 44 t b a b b;
#X obj 76 70 f;
#X obj 91 46 r \$0.suppress;
#X connect 0 0 5 0;
#X connect 3 0 2 0;
#X connect 4 0 2 0;
#X connect 5 0 4 0;
#X connect 5 1 1 0;
#X connect 5 2 3 0;
#X connect 5 3 6 0;
#X connect 6 0 4 1;
#X connect 7 0 6 1;
#X restore 67 75 pd suppress;
#X obj 24 14 inlet;
#X msg 67 100 port_exists \$1 \$2;
#X obj 67 123 s \$0.inlet.0;
#X obj 67 145 r \$0.outlet.0;
#X obj 24 42 t b a;
#X obj 24 198 outlet;
#X obj 24 175 list append;
#X connect 0 0 2 0;
#X connect 1 0 5 0;
#X connect 2 0 3 0;
#X connect 4 0 7 1;
#X connect 5 0 7 0;
#X connect 5 1 0 0;
#X connect 7 0 6 0;
#X restore 160 173 pd port_exists;
#X connect 0 0 1 0;
#X connect 1 0 2 0;
#X connect 2 0 5 0;
#X connect 3 0 12 0;
#X connect 3 1 26 0;
#X connect 4 0 6 0;
#X connect 5 0 3 0;
#X connect 5 1 8 1;
#X connect 6 0 7 0;
#X connect 7 0 8 0;
#X connect 7 1 9 1;
#X connect 8 0 25 0;
#X connect 9 0 10 0;
#X connect 11 0 17 0;
#X connect 12 0 9 0;
#X connect 12 1 4 0;
#X connect 12 2 13 0;
#X connect 13 0 9 1;
#X connect 13 0 23 1;
#X connect 14 0 15 0;
#X connect 14 1 16 0;
#X connect 15 0 24 0;
#X connect 16 0 24 0;
#X connect 17 0 14 0;
#X connect 17 1 19 0;
#X connect 18 0 14 1;
#X connect 18 1 19 1;
#X connect 19 0 20 0;
#X connect 19 1 21 0;
#X connect 20 0 24 1;
#X connect 21 0 24 1;
#X connect 22 0 23 1;
#X connect 23 0 22 0;
#X connect 23 0 9 1;
#X connect 24 0 23 0;
#X connect 25 0 11 0;
#X connect 25 1 18 0;
#X connect 26 0 6 1;
#X restore 23 347 pd is_connected;
#X obj 20 119 spigot 1;
#X obj 134 119 spigot 1;
#X obj 193 119 r \$0.suppress;
#X obj 295 123 loadbang;
#X msg 295 146 1;
#X obj 295 169 s \$0.suppress;
#N canvas 844 341 455 524 command_fifo 0;
#X obj 95 182 command;
#X obj 95 128 fifo;
#X obj 95 104 spigot 1;
#X msg 140 82 0;
#X obj 95 156 list trim;
#X obj 95 262 t b a;
#X msg 191 119 1;
#X obj 47 159 del 0;
#X obj 139 264 print jack-connection-manager;
#X obj 139 239 list trim;
#X obj 58 15 r \$0.fifo;
#X obj 122 297 sel 0;
#X obj 176 352 list append;
#X obj 58 45 t b b a a, f 19;
#X obj 239 324 route exec;
#X obj 176 378 list prepend ERROR: command failed:;
#X obj 176 401 list trim;
#X obj 176 426 print jack-connection-manager;
#X obj 139 216 list prepend STDERR:;
#X obj 149 320 t b b;
#X obj 149 452 s \$0.outlet.1;
#X connect 0 0 5 0;
#X connect 0 2 18 0;
#X connect 1 0 4 0;
#X connect 1 1 6 0;
#X connect 2 0 1 0;
#X connect 3 0 2 1;
#X connect 4 0 0 0;
#X connect 5 0 7 0;
#X connect 5 1 11 0;
#X connect 6 0 2 1;
#X connect 7 0 1 0;
#X connect 9 0 8 0;
#X connect 10 0 13 0;
#X connect 11 1 19 0;
#X connect 12 0 15 0;
#X connect 13 0 3 0;
#X connect 13 1 2 0;
#X connect 13 2 1 1;
#X connect 13 3 14 0;
#X connect 14 0 12 1;
#X connect 15 0 16 0;
#X connect 16 0 17 0;
#X connect 18 0 9 0;
#X connect 19 0 20 0;
#X connect 19 1 12 0;
#X restore 23 397 pd command_fifo;
#N canvas 740 462 491 545 disconnect 0;
#X obj 58 24 r \$0.inlet.0;
#X obj 60 475 s \$0.outlet.0;
#N canvas 0 0 410 271 validate_input 0;
#X obj 15 51 list;
#X obj 42 98 list length;
#X obj 15 74 t a a;
#X obj 15 124 list prepend;
#X obj 15 147 route 4;
#X msg 103 170 'connect' expects exactly 4 arguments;
#X obj 103 193 print jack-connection-manager;
#X obj 15 181 list;
#X obj 15 20 inlet;
#X obj 15 207 outlet;
#X connect 0 0 2 0;
#X connect 1 0 3 1;
#X connect 2 0 3 0;
#X connect 2 1 1 0;
#X connect 3 0 4 0;
#X connect 4 0 7 0;
#X connect 4 1 5 0;
#X connect 5 0 6 0;
#X connect 7 0 9 0;
#X connect 8 0 0 0;
#X restore 58 68 pd validate_input;
#X obj 58 115 list split 2, f 31;
#X obj 58 91 t a a, f 18;
#X obj 58 202 &&;
#X obj 58 238 sel 1;
#X obj 199 190 sel 0;
#X obj 199 213 list append;
#X obj 199 141 t a a;
#X obj 58 140 t a a, f 6;
#X obj 113 190 sel 0;
#X obj 113 213 list append;
#X obj 199 261 print jack-connection-manager;
#X obj 58 263 list append;
#N canvas 1075 550 327 234 is_connected 0;
#X obj 24 14 inlet;
#X obj 67 123 s \$0.inlet.0;
#X obj 67 145 r \$0.outlet.0;
#X obj 24 39 t b a;
#X obj 24 198 outlet;
#X obj 24 175 list append;
#X msg 67 100 is_connected \$1 \$2 \$3 \$4;
#N canvas 1042 924 374 190 suppress 0;
#X obj 25 21 inlet;
#X obj 42 154 outlet;
#X obj 59 127 s \$0.suppress;
#X msg 59 103 0;
#X obj 25 98 f;
#X obj 25 44 t b a b b;
#X obj 76 70 f;
#X obj 91 46 r \$0.suppress;
#X connect 0 0 5 0;
#X connect 3 0 2 0;
#X connect 4 0 2 0;
#X connect 5 0 4 0;
#X connect 5 1 1 0;
#X connect 5 2 3 0;
#X connect 5 3 6 0;
#X connect 6 0 4 1;
#X connect 7 0 6 1;
#X restore 67 75 pd suppress;
#X connect 0 0 3 0;
#X connect 2 0 5 1;
#X connect 3 0 5 0;
#X connect 3 1 7 0;
#X connect 5 0 4 0;
#X connect 6 0 1 0;
#X connect 7 0 6 0;
#X restore 58 288 pd is_connected;
#X obj 58 335 list append;
#X obj 58 358 t a a;
#N canvas 1075 550 327 234 port_exists 0;
#N canvas 1042 924 374 190 suppress 0;
#X obj 25 21 inlet;
#X obj 42 154 outlet;
#X obj 59 127 s \$0.suppress;
#X msg 59 103 0;
#X obj 25 98 f;
#X obj 25 44 t b a b b;
#X obj 76 70 f;
#X obj 91 46 r \$0.suppress;
#X connect 0 0 5 0;
#X connect 3 0 2 0;
#X connect 4 0 2 0;
#X connect 5 0 4 0;
#X connect 5 1 1 0;
#X connect 5 2 3 0;
#X connect 5 3 6 0;
#X connect 6 0 4 1;
#X connect 7 0 6 1;
#X restore 67 75 pd suppress;
#X obj 24 14 inlet;
#X msg 67 100 port_exists \$1 \$2;
#X obj 67 123 s \$0.inlet.0;
#X obj 67 145 r \$0.outlet.0;
#X obj 24 42 t b a;
#X obj 24 198 outlet;
#X obj 24 175 list append;
#X connect 0 0 2 0;
#X connect 1 0 5 0;
#X connect 2 0 3 0;
#X connect 4 0 7 1;
#X connect 5 0 7 0;
#X connect 5 1 0 0;
#X connect 7 0 6 0;
#X restore 199 165 pd port_exists;
#N canvas 1075 550 327 234 port_exists 0;
#N canvas 1042 924 374 190 suppress 0;
#X obj 25 21 inlet;
#X obj 42 154 outlet;
#X obj 59 127 s \$0.suppress;
#X msg 59 103 0;
#X obj 25 98 f;
#X obj 25 44 t b a b b;
#X obj 76 70 f;
#X obj 91 46 r \$0.suppress;
#X connect 0 0 5 0;
#X connect 3 0 2 0;
#X connect 4 0 2 0;
#X connect 5 0 4 0;
#X connect 5 1 1 0;
#X connect 5 2 3 0;
#X connect 5 3 6 0;
#X connect 6 0 4 1;
#X connect 7 0 6 1;
#X restore 67 75 pd suppress;
#X obj 24 14 inlet;
#X msg 67 100 port_exists \$1 \$2;
#X obj 67 123 s \$0.inlet.0;
#X obj 67 145 r \$0.outlet.0;
#X obj 24 42 t b a;
#X obj 24 198 outlet;
#X obj 24 175 list append;
#X connect 0 0 2 0;
#X connect 1 0 5 0;
#X connect 2 0 3 0;
#X connect 4 0 7 1;
#X connect 5 0 7 0;
#X connect 5 1 0 0;
#X connect 7 0 6 0;
#X restore 58 165 pd port_exists;
#X obj 58 425 s \$0.fifo;
#N canvas 1261 621 392 733 update_connections_cache 0;
#X obj 30 24 inlet;
#X obj 30 107 list split 2;
#X obj 30 47 t a a;
#X msg 57 71 list \$3 \$4 \$1 \$2;
#N canvas 1075 550 266 266 list_connections 0;
#X obj 24 14 inlet;
#X obj 61 117 s \$0.inlet.0;
#X obj 61 139 r \$0.outlet.0;
#X obj 61 219 outlet;
#X msg 61 94 list_connections \$1 \$2;
#X obj 24 71 t b a b, f 13;
#X obj 61 194 spigot;
#X msg 99 172 1;
#X msg 24 167 0;
#N canvas 1042 924 374 190 suppress 0;
#X obj 25 21 inlet;
#X obj 42 154 outlet;
#X obj 59 127 s \$0.suppress;
#X msg 59 103 0;
#X obj 25 98 f;
#X obj 25 44 t b a b b;
#X obj 76 70 f;
#X obj 91 46 r \$0.suppress;
#X connect 0 0 5 0;
#X connect 3 0 2 0;
#X connect 4 0 2 0;
#X connect 5 0 4 0;
#X connect 5 1 1 0;
#X connect 5 2 3 0;
#X connect 5 3 6 0;
#X connect 6 0 4 1;
#X connect 7 0 6 1;
#X restore 24 41 pd suppress;
#X connect 0 0 9 0;
#X connect 2 0 6 0;
#X connect 4 0 1 0;
#X connect 5 0 8 0;
#X connect 5 1 4 0;
#X connect 5 2 7 0;
#X connect 6 0 3 0;
#X connect 7 0 6 1;
#X connect 8 0 6 1;
#X connect 9 0 5 0;
#X restore 74 186 pd list_connections;
#X msg 87 11 list system playback_1 netpd output_1;
#N canvas 1773 725 252 207 port_compare 0;
#X obj 30 21 inlet;
#X obj 30 48 unpack s s;
#X obj 105 49 unpack s s;
#X obj 30 81 sel _;
#X msg 30 104 1;
#X msg 57 104 0;
#X obj 109 82 sel _;
#X msg 109 105 1;
#X msg 136 105 0;
#X obj 30 131 &&;
#X obj 105 23 inlet;
#X obj 30 158 outlet;
#X connect 0 0 1 0;
#X connect 1 0 3 0;
#X connect 1 1 6 0;
#X connect 2 0 3 1;
#X connect 2 1 6 1;
#X connect 3 0 4 0;
#X connect 3 1 5 0;
#X connect 4 0 9 0;
#X connect 5 0 9 0;
#X connect 6 0 7 0;
#X connect 6 1 8 0;
#X connect 7 0 9 1;
#X connect 8 0 9 1;
#X connect 9 0 11 0;
#X connect 10 0 2 0;
#X restore 74 234 pd port_compare;
#X obj 74 209 t a a, f 11;
#X obj 74 257 list append;
#X obj 74 283 route 0;
#X obj 75 385 list store;
#X obj 74 306 list;
#X obj 30 157 t a a b, f 16;
#X obj 30 408 list append;
#X obj 30 356 t a b;
#X msg 74 329 append \$1 \$2;
#X obj 30 431 t a a, f 16;
#X msg 30 454 list \$1 \$2;
#X obj 30 476 text search \$0.connections 0 1;
#X obj 30 502 sel -1;
#X msg 30 668 disconnect: impossible error detected;
#X obj 30 691 print jack-connection-manager;
#X obj 63 526 t a a;
#X obj 90 550 text delete \$0.connections;
#X obj 63 630 text insert \$0.connections;
#X obj 63 576 t b a;
#X obj 63 602 list append;
#X connect 0 0 2 0;
#X connect 1 0 12 0;
#X connect 1 1 6 1;
#X connect 2 0 1 0;
#X connect 2 1 3 0;
#X connect 3 0 1 0;
#X connect 4 0 7 0;
#X connect 5 0 2 0;
#X connect 6 0 8 0;
#X connect 7 0 6 0;
#X connect 7 1 8 1;
#X connect 8 0 9 0;
#X connect 9 0 11 0;
#X connect 10 0 13 1;
#X connect 11 0 15 0;
#X connect 12 0 14 0;
#X connect 12 1 4 0;
#X connect 12 2 10 1;
#X connect 13 0 16 0;
#X connect 14 0 13 0;
#X connect 14 1 10 0;
#X connect 15 0 10 0;
#X connect 16 0 17 0;
#X connect 16 1 26 1;
#X connect 17 0 18 0;
#X connect 18 0 19 0;
#X connect 19 0 20 0;
#X connect 19 1 22 0;
#X connect 20 0 21 0;
#X connect 22 0 25 0;
#X connect 22 1 23 0;
#X connect 25 0 26 0;
#X connect 25 1 24 1;
#X connect 26 0 24 0;
#X restore 223 350 pd update_connections_cache;
#X obj 58 47 route disconnect;
#X msg 199 238 'disconnect': no such port: \$1 \$2;
#X obj 58 311 sel 1;
#X msg 58 379 exec jack_disconnect \$1:\$2 \$3:\$4;
#X connect 0 0 22 0;
#X connect 2 0 4 0;
#X connect 3 0 10 0;
#X connect 3 1 9 0;
#X connect 4 0 3 0;
#X connect 4 1 14 1;
#X connect 4 1 16 1;
#X connect 5 0 6 0;
#X connect 6 0 14 0;
#X connect 7 0 8 0;
#X connect 8 0 23 0;
#X connect 9 0 18 0;
#X connect 9 1 8 1;
#X connect 10 0 19 0;
#X connect 10 1 12 1;
#X connect 11 0 12 0;
#X connect 12 0 23 0;
#X connect 14 0 15 0;
#X connect 15 0 24 0;
#X connect 16 0 17 0;
#X connect 17 0 25 0;
#X connect 17 1 21 0;
#X connect 18 0 7 0;
#X connect 18 0 5 1;
#X connect 19 0 5 0;
#X connect 19 0 11 0;
#X connect 22 0 2 0;
#X connect 23 0 13 0;
#X connect 24 0 16 0;
#X connect 25 0 20 0;
#X restore 23 372 pd disconnect;
#X connect 1 0 0 0;
#X connect 4 0 5 0;
#X connect 6 0 17 0;
#X connect 11 0 18 0;
#X connect 17 0 7 0;
#X connect 18 0 9 0;
#X connect 19 0 18 1;
#X connect 19 0 17 1;
#X connect 20 0 21 0;
#X connect 21 0 22 0;
