#N canvas 507 281 552 405 10;
#X obj 279 48 text define \$0.connections;
#X obj 279 22 r \$0.text;
#N canvas 0 0 394 214 refresh 0;
#N canvas 0 0 466 520 raw_command_output 0;
#X obj 17 86 command -b;
#X obj 106 252 list store;
#X obj 106 138 list prepend append;
#X obj 106 162 list trim;
#X obj 17 184 sel 0;
#X obj 17 212 t b b b;
#X msg 17 53 exec jack_lsp -c;
#X obj 106 433 s \$0.rawdata;
#X obj 106 395 list prepend 0;
#X obj 106 276 t a a;
#X obj 133 300 list length;
#X msg 133 324 resize \$1;
#X obj 133 348 s \$0.rawdata;
#X obj 17 22 inlet;
#X obj 17 431 outlet;
#X connect 0 0 4 0;
#X connect 0 1 2 0;
#X connect 1 0 9 0;
#X connect 2 0 3 0;
#X connect 3 0 1 0;
#X connect 4 0 5 0;
#X connect 5 0 14 0;
#X connect 5 1 1 1;
#X connect 5 2 1 0;
#X connect 6 0 0 0;
#X connect 8 0 7 0;
#X connect 9 0 8 0;
#X connect 9 1 10 0;
#X connect 10 0 11 0;
#X connect 11 0 12 0;
#X connect 13 0 6 0;
#X restore 29 118 pd raw_command_output;
#X obj 201 122 table \$0.rawdata;
#N canvas 0 0 398 439 raw_to 0;
#N canvas 0 0 542 573 parse_output 0;
#X obj 49 156 until;
#X obj 49 179 f;
#X obj 49 202 t a a;
#X obj 94 196 + 1;
#X obj 49 105 array size \$0.rawdata;
#X obj 49 130 t a b;
#X msg 96 158 0;
#X obj 245 386 list store;
#X msg 245 276 append \$1;
#X obj 245 413 list tosymbol;
#X obj 49 228 tabread \$0.rawdata;
#N canvas 0 0 216 413 detect_10_32_32_32 0;
#X obj 40 13 inlet;
#X obj 42 74 f;
#X obj 40 45 t a b a;
#X obj 44 133 f;
#X obj 42 104 t a b a;
#X obj 46 189 f;
#X obj 44 160 t a b a;
#X obj 46 223 pack f f f f;
#X obj 46 246 route 10;
#X obj 46 269 route 32;
#X obj 46 292 route 32;
#X obj 46 315 route 32;
#X obj 46 368 outlet;
#X obj 46 338 b;
#X connect 0 0 2 0;
#X connect 1 0 4 0;
#X connect 2 0 1 1;
#X connect 2 1 1 0;
#X connect 2 2 7 3;
#X connect 3 0 6 0;
#X connect 4 0 3 1;
#X connect 4 1 3 0;
#X connect 4 2 7 2;
#X connect 5 0 7 0;
#X connect 6 0 5 1;
#X connect 6 1 5 0;
#X connect 6 2 7 1;
#X connect 7 0 8 0;
#X connect 8 0 9 0;
#X connect 9 0 10 0;
#X connect 10 0 11 0;
#X connect 11 0 13 0;
#X connect 13 0 12 0;
#X restore 49 319 pd detect_10_32_32_32;
#X obj 186 319 sel 10 58;
#X obj 49 275 t a a;
#X obj 49 251 t a a a, f 66;
#X obj 442 277 sel 10 58;
#X msg 92 401 IND;
#X msg 156 401 COL;
#X msg 125 401 NEW;
#X obj 92 432 list;
#X obj 245 491 list prepend;
#X obj 30 45 t b b b;
#X obj 30 16 inlet;
#X obj 245 514 outlet;
#X connect 0 0 1 0;
#X connect 1 0 2 0;
#X connect 2 0 10 0;
#X connect 2 1 3 0;
#X connect 3 0 1 1;
#X connect 4 0 5 0;
#X connect 5 0 0 0;
#X connect 5 1 6 0;
#X connect 6 0 1 1;
#X connect 7 0 9 0;
#X connect 8 0 7 0;
#X connect 9 0 20 0;
#X connect 10 0 14 0;
#X connect 11 0 7 1;
#X connect 11 0 16 0;
#X connect 12 0 7 1;
#X connect 12 0 18 0;
#X connect 12 1 7 1;
#X connect 12 1 17 0;
#X connect 13 0 11 0;
#X connect 13 1 12 0;
#X connect 14 0 13 0;
#X connect 14 1 8 0;
#X connect 14 2 15 0;
#X connect 15 0 7 0;
#X connect 15 1 7 0;
#X connect 16 0 19 0;
#X connect 17 0 19 0;
#X connect 18 0 19 0;
#X connect 19 0 20 1;
#X connect 20 0 23 0;
#X connect 21 0 7 1;
#X connect 21 1 4 0;
#X connect 21 2 18 0;
#X connect 22 0 21 0;
#X restore 36 125 pd parse_output;
#X msg 231 186 symbol \$1;
#X obj 56 100 s \$0.text;
#X msg 56 79 clear;
#X obj 231 209 sel NEW IND COL;
#X obj 93 392 text set \$0.connections;
#X obj 36 156 t a a, f 33;
#X obj 36 277 list store;
#X obj 230 234 t b b;
#X msg 138 360 1e+06;
#X obj 93 335 t a b;
#X obj 36 300 route bang;
#X msg 36 193 append \$2;
#X obj 17 54 t b b b;
#X obj 17 230 t b b;
#X obj 17 25 inlet;
#X connect 0 0 6 0;
#X connect 1 0 4 0;
#X connect 3 0 2 0;
#X connect 4 0 8 0;
#X connect 6 0 12 0;
#X connect 6 1 1 0;
#X connect 7 0 11 0;
#X connect 8 0 7 1;
#X connect 8 1 7 0;
#X connect 9 0 5 1;
#X connect 10 0 5 0;
#X connect 10 1 9 0;
#X connect 11 1 10 0;
#X connect 12 0 7 0;
#X connect 13 0 14 0;
#X connect 13 1 0 0;
#X connect 13 2 3 0;
#X connect 14 0 7 1;
#X connect 14 1 7 0;
#X connect 15 0 13 0;
#X restore 29 149 pd raw_to text;
#X obj 29 65 route refresh;
#X obj 29 88 b;
#X obj 29 40 r \$0.inlet.0;
#X connect 0 0 2 0;
#X connect 3 0 4 0;
#X connect 4 0 0 0;
#X connect 5 0 3 0;
#X restore 23 173 pd refresh;
#N canvas 0 0 472 549 list_connections 0;
#X obj 18 253 text search \$0.connections 0 1;
#X obj 18 286 route -1, f 22;
#X obj 147 313 text get \$0.connections;
#X obj 147 340 list split 2;
#X obj 18 309 b;
#X obj 181 399 until;
#X obj 181 483 list store, f 18;
#X obj 181 428 f;
#X msg 233 398 0;
#X obj 219 427 + 2;
#X obj 181 370 t b b a, f 18;
#X msg 181 455 get \$1 2;
#X obj 18 24 r \$0.inlet.0;
#X obj 18 47 route list_connections;
#X obj 18 97 t a a, f 26;
#X obj 18 177 spigot;
#X obj 171 120 list length;
#X obj 18 70 list;
#X obj 171 143 == 2;
#X obj 171 169 sel 0;
#X msg 171 193 list_connections: wrong number of arguments;
#X obj 171 217 s \$0.error;
#X obj 18 332 s \$0.outlet.1;
#X obj 181 507 s \$0.outlet.0;
#X connect 0 0 1 0;
#X connect 1 0 4 0;
#X connect 1 1 2 0;
#X connect 2 0 3 0;
#X connect 3 1 10 0;
#X connect 4 0 22 0;
#X connect 5 0 7 0;
#X connect 6 0 23 0;
#X connect 6 1 5 1;
#X connect 7 0 11 0;
#X connect 7 0 9 0;
#X connect 8 0 7 1;
#X connect 9 0 7 1;
#X connect 10 0 5 0;
#X connect 10 1 8 0;
#X connect 10 2 6 1;
#X connect 11 0 6 0;
#X connect 12 0 13 0;
#X connect 13 0 17 0;
#X connect 14 0 15 0;
#X connect 14 1 16 0;
#X connect 15 0 0 0;
#X connect 16 0 18 0;
#X connect 17 0 14 0;
#X connect 18 0 15 1;
#X connect 18 0 19 0;
#X connect 19 0 20 0;
#X connect 20 0 21 0;
#X restore 23 197 pd list_connections;
#X obj 18 11 inlet;
#X obj 18 34 s \$0.inlet.0;
#X obj 20 96 r \$0.outlet.0;
#X obj 20 119 outlet;
#X text 25 75 DATA;
#X obj 134 120 outlet;
#X text 139 76 ERRORS;
#X obj 134 97 r \$0.outlet.1;
#N canvas 749 470 405 392 list_clients 0;
#X obj 18 202 text get \$0.connections;
#X obj 18 176 t a b;
#X msg 63 177 -1;
#X obj 18 225 route bang;
#X obj 18 24 r \$0.inlet.0;
#X obj 108 334 s \$0.outlet.0;
#X obj 18 47 route list_clients;
#X obj 18 93 until;
#X obj 18 116 f;
#X obj 18 139 t a a;
#X obj 58 125 + 1;
#X msg 58 94 0;
#X msg 75 253 symbol \$1;
#X obj 75 300 sel °ö;
#X obj 165 300 t a;
#X obj 18 70 t b b b, f 14;
#X msg 185 266 symbol °ö;
#X text 245 267 <- unlikely symbol;
#X connect 0 0 3 0;
#X connect 1 0 0 0;
#X connect 1 1 2 0;
#X connect 2 0 0 1;
#X connect 3 0 7 1;
#X connect 3 1 12 0;
#X connect 4 0 6 0;
#X connect 6 0 15 0;
#X connect 7 0 8 0;
#X connect 8 0 9 0;
#X connect 9 0 1 0;
#X connect 9 1 10 0;
#X connect 10 0 8 1;
#X connect 11 0 8 1;
#X connect 12 0 13 0;
#X connect 13 1 5 0;
#X connect 13 1 14 0;
#X connect 14 0 13 1;
#X connect 15 0 7 0;
#X connect 15 1 11 0;
#X connect 15 2 16 0;
#X connect 16 0 13 1;
#X restore 23 222 pd list_clients;
#N canvas 749 470 337 376 list_ports 0;
#X obj 18 202 text get \$0.connections;
#X obj 18 176 t a b;
#X msg 63 177 -1;
#X obj 18 225 route bang;
#X obj 18 24 r \$0.inlet.0;
#X obj 18 93 until;
#X obj 18 116 f;
#X obj 18 139 t a a;
#X obj 58 125 + 1;
#X msg 58 94 0;
#X obj 18 47 route list_ports;
#X obj 18 70 t b b a, f 14;
#X obj 75 251 list trim;
#X obj 75 275 route °ö;
#X obj 75 300 list split 1;
#X obj 75 323 s \$0.outlet.0;
#X obj 120 128 symbol;
#X connect 0 0 3 0;
#X connect 1 0 0 0;
#X connect 1 1 2 0;
#X connect 2 0 0 1;
#X connect 3 0 5 1;
#X connect 3 1 12 0;
#X connect 4 0 10 0;
#X connect 5 0 6 0;
#X connect 6 0 7 0;
#X connect 7 0 1 0;
#X connect 7 1 8 0;
#X connect 8 0 6 1;
#X connect 9 0 6 1;
#X connect 10 0 11 0;
#X connect 11 0 5 0;
#X connect 11 1 9 0;
#X connect 11 2 16 0;
#X connect 12 0 13 0;
#X connect 13 0 14 0;
#X connect 14 0 15 0;
#X connect 16 0 13 1;
#X restore 23 247 pd list_ports;
#X connect 1 0 0 0;
#X connect 4 0 5 0;
#X connect 6 0 7 0;
#X connect 11 0 9 0;
