#N canvas 702 266 435 428 10;
#X obj 23 8 inlet;
#X obj 23 373 outlet~;
#X obj 93 230 lrshift~ 1;
#X obj 123 284 clip~ 0 1;
#X text 61 230 MSB;
#X obj 92 309 -~;
#X obj 123 309 *~ 256;
#X obj 123 259 -~ 127;
#X obj 23 284 /~ 32768;
#X obj 23 309 +~;
#X obj 92 334 /~ 128;
#X text 38 261 LSB;
#X obj 23 195 tabplay~ \$1.queuebuffer;
#X obj 64 31 * 2;
#X obj 64 54 * \$2;
#X obj 23 84 +;
#X obj 68 121 * 2;
#X obj 23 148 pack f f;
#X obj 240 178 switch~;
#X obj 240 126 > \$2;
#X obj 240 102 r \$1.in.channels;
#X obj 68 98 r \$1.in.blocksize;
#X obj 64 8 r \$1.in.blocksize;
#X connect 0 0 15 0;
#X connect 2 0 7 0;
#X connect 2 0 5 0;
#X connect 3 0 6 0;
#X connect 5 0 10 0;
#X connect 6 0 5 1;
#X connect 7 0 3 0;
#X connect 8 0 9 0;
#X connect 9 0 1 0;
#X connect 10 0 9 1;
#X connect 12 0 2 0;
#X connect 12 0 8 0;
#X connect 13 0 14 0;
#X connect 14 0 15 1;
#X connect 15 0 17 0;
#X connect 16 0 17 1;
#X connect 17 0 12 0;
#X connect 19 0 18 0;
#X connect 20 0 19 0;
#X connect 21 0 16 0;
#X connect 22 0 13 0;
