#N canvas 317 178 481 519 10;
#X obj 23 268 +~;
#X obj 23 240 lrshift~ -1;
#X text 107 240 MSB;
#X obj 24 23 inlet~ pad;
#X obj 240 178 switch~;
#X obj 23 471 tabwrite~ \$1.encbuffer;
#X obj 101 381 * 2;
#X msg 59 435 start \$1;
#X obj 59 409 f;
#X obj 240 102 r \$1.out.channels;
#X obj 240 126 > \$2;
#X obj 101 404 * \$2;
#X obj 23 85 netpd-sig-to-16bit~;
#X obj 101 358 r \$1.out.blocksize;
#X obj 59 326 r \$1.out.clock;
#X connect 0 0 5 0;
#X connect 1 0 0 0;
#X connect 3 0 12 0;
#X connect 6 0 11 0;
#X connect 7 0 5 0;
#X connect 8 0 7 0;
#X connect 9 0 10 0;
#X connect 10 0 4 0;
#X connect 11 0 8 1;
#X connect 12 0 1 0;
#X connect 12 1 0 1;
#X connect 13 0 6 0;
#X connect 14 0 8 0;
