#N canvas 154 152 1178 618 10;
#X declare -path iemnet;
#X obj 249 482 r \$0.to.udp;
#X obj 324 549 s \$0.from.udp;
#X obj 214 4 loadbang;
#X obj 214 24 \$0;
#N canvas 520 121 607 637 receiver 0;
#X obj 14 11 r \$0.from.udp;
#X obj 14 154 list split 16;
#X obj 14 304 unpack f f;
#X obj 71 325 << 8;
#X obj 14 339 +;
#X msg 14 279 \$9 \$10;
#N canvas 990 217 384 614 jtter.analysis 0;
#X obj 10 11 inlet;
#X obj 145 17 r \$0.on.off;
#X obj 10 31 t a a;
#X obj 37 63 spigot;
#X msg 112 70 0;
#X obj 56 187 realtime;
#X obj 37 83 t a b b;
#X obj 10 128 -;
#X obj 183 94 r \$0.jack.blocksize;
#X obj 183 114 t b a;
#X msg 183 134 64;
#X obj 183 154 <<;
#X obj 183 174 * 1000;
#X obj 183 244 /;
#X obj 205 196 r \$0.samplerate;
#X obj 205 216 t b a;
#X obj 10 222 *;
#X obj 10 289 -;
#X obj 10 148 t a b;
#X obj 37 360 min;
#X obj 37 380 t a a;
#X obj 10 461 max;
#X obj 10 484 t a a;
#X obj 37 400 change;
#X obj 10 505 change;
#X floatatom 10 525 10 0 0 0 - - -;
#X obj 10 339 t a a;
#X obj 133 288 r \$0.on.off;
#X obj 133 308 sel 1;
#X msg 133 328 1000;
#X msg 170 328 -10000;
#X obj 10 250 pack f f;
#X msg 10 270 \$2 \$1;
#X obj 10 309 -;
#X obj 10 438 -;
#X connect 0 0 2 0;
#X connect 1 0 3 1;
#X connect 2 0 7 0;
#X connect 2 1 3 0;
#X connect 3 0 6 0;
#X connect 4 0 3 1;
#X connect 5 0 31 1;
#X connect 6 0 7 1;
#X connect 6 1 5 0;
#X connect 6 2 4 0;
#X connect 7 0 18 0;
#X connect 8 0 9 0;
#X connect 9 0 10 0;
#X connect 9 1 11 1;
#X connect 10 0 11 0;
#X connect 11 0 12 0;
#X connect 12 0 13 0;
#X connect 13 0 16 1;
#X connect 14 0 15 0;
#X connect 15 0 13 0;
#X connect 15 1 13 1;
#X connect 16 0 31 0;
#X connect 17 0 33 0;
#X connect 18 0 16 0;
#X connect 18 1 5 1;
#X connect 19 0 20 0;
#X connect 20 0 23 0;
#X connect 20 1 19 1;
#X connect 21 0 22 0;
#X connect 22 0 24 0;
#X connect 22 1 21 1;
#X connect 23 0 34 1;
#X connect 24 0 25 0;
#X connect 26 0 34 0;
#X connect 26 1 19 0;
#X connect 27 0 28 0;
#X connect 28 0 29 0;
#X connect 28 0 30 0;
#X connect 29 0 19 1;
#X connect 30 0 21 1;
#X connect 31 0 32 0;
#X connect 32 0 17 0;
#X connect 33 0 26 0;
#X connect 34 0 21 0;
#X restore 423 430 pd jtter.analysis;
#X obj 14 406 t a a a a a;
#X obj 158 269 outlet;
#X obj 14 535 outlet;
#X obj 14 64 spigot;
#N canvas 35 71 450 300 check_payload_length 0;
#X obj 82 65 list length;
#X obj 55 17 inlet;
#X obj 55 37 t a a;
#X msg 109 194 wrong payload size \$1;
#X obj 109 214 s \$0.error;
#X obj 55 280 outlet;
#X obj 177 80 *;
#X obj 82 108 ==;
#X obj 82 128 t a a;
#X obj 109 152 sel 0;
#X obj 109 172 f;
#X obj 82 85 t a a;
#X obj 82 234 change -1;
#X obj 82 254 outlet;
#X obj 177 23 r \$0.in.channels;
#X obj 232 77 r \$0.bitres;
#X obj 232 97 >> 3;
#X obj 232 117 t b a;
#X obj 192 60 t b a;
#X obj 177 100 *;
#X obj 192 40 r \$0.in.blocksize;
#X connect 0 0 11 0;
#X connect 1 0 2 0;
#X connect 2 0 5 0;
#X connect 2 1 0 0;
#X connect 3 0 4 0;
#X connect 6 0 19 0;
#X connect 7 0 8 0;
#X connect 8 0 12 0;
#X connect 8 1 9 0;
#X connect 9 0 10 0;
#X connect 10 0 3 0;
#X connect 11 0 7 0;
#X connect 11 1 10 1;
#X connect 12 0 13 0;
#X connect 14 0 6 0;
#X connect 15 0 16 0;
#X connect 16 0 17 0;
#X connect 17 0 19 0;
#X connect 17 1 19 1;
#X connect 18 0 6 0;
#X connect 18 1 6 1;
#X connect 19 0 7 1;
#X connect 20 0 18 0;
#X restore 158 174 pd check_payload_length;
#N canvas 398 106 408 408 validate_params 0;
#X obj 11 12 inlet;
#X obj 11 363 outlet;
#X msg 98 293 1;
#N canvas 697 197 438 371 samplerate 0;
#X obj 7 20 inlet;
#X msg 49 298 0;
#X obj 49 322 outlet;
#X msg 7 46 \$13;
#X obj 7 109 sel 0 1 2 3 4 5 6;
#X msg 7 138 22050;
#X msg 46 138 32000;
#X msg 85 138 44100;
#X msg 124 138 48000;
#X msg 163 138 88200;
#X msg 202 138 96000;
#X msg 241 138 192000;
#X obj 7 182 t a;
#X obj 159 179 r \$0.samplerate;
#X obj 7 212 sel;
#X obj 22 235 t a b;
#X obj 114 267 pack f f;
#X msg 114 287 samplerate mismatch: received \$1 configured \$2;
#X obj 114 321 s \$0.error;
#X obj 7 69 change -1;
#X connect 0 0 3 0;
#X connect 1 0 2 0;
#X connect 3 0 19 0;
#X connect 4 0 5 0;
#X connect 4 1 6 0;
#X connect 4 2 7 0;
#X connect 4 3 8 0;
#X connect 4 4 9 0;
#X connect 4 5 10 0;
#X connect 4 6 11 0;
#X connect 5 0 12 0;
#X connect 6 0 12 0;
#X connect 7 0 12 0;
#X connect 8 0 12 0;
#X connect 9 0 12 0;
#X connect 10 0 12 0;
#X connect 11 0 12 0;
#X connect 12 0 14 0;
#X connect 13 0 14 1;
#X connect 13 0 16 1;
#X connect 14 1 15 0;
#X connect 15 0 16 0;
#X connect 15 1 1 0;
#X connect 16 0 17 0;
#X connect 17 0 18 0;
#X connect 19 0 4 0;
#X restore 69 162 pd samplerate;
#N canvas 697 197 387 311 bitres 0;
#X obj 7 20 inlet;
#X msg 49 239 0;
#X obj 49 263 outlet;
#X msg 7 63 \$14;
#X obj 7 139 sel;
#X obj 142 77 r \$0.bitres;
#X obj 22 165 t a b;
#X obj 97 196 pack f f;
#X msg 97 219 bitrate mismatch: received \$1 (configured \$2);
#X obj 97 257 s \$0.error;
#X obj 7 86 change -1;
#X connect 0 0 3 0;
#X connect 1 0 2 0;
#X connect 3 0 10 0;
#X connect 4 1 6 0;
#X connect 5 0 4 1;
#X connect 5 0 7 1;
#X connect 6 0 7 0;
#X connect 6 1 1 0;
#X connect 7 0 8 0;
#X connect 8 0 9 0;
#X connect 10 0 4 0;
#X restore 54 184 pd bitres;
#N canvas 1060 205 402 258 inchannels 0;
#X obj 7 20 inlet;
#X msg 46 193 0;
#X obj 46 213 outlet;
#X msg 7 42 \$15;
#X obj 73 172 s \$0.error;
#X msg 73 146 inchannels mismatch: received \$1 (max 8);
#X obj 7 100 moses 9;
#X obj 46 124 t b a;
#X obj 135 211 outlet;
#X obj 7 66 change -1;
#X obj 145 43 inlet;
#X msg 145 81 set -1;
#X connect 0 0 3 0;
#X connect 1 0 2 0;
#X connect 3 0 9 0;
#X connect 5 0 4 0;
#X connect 6 0 8 0;
#X connect 6 1 7 0;
#X connect 7 0 1 0;
#X connect 7 1 5 0;
#X connect 9 0 6 0;
#X connect 10 0 11 0;
#X connect 11 0 9 0;
#X restore 40 205 pd inchannels;
#N canvas 697 197 412 298 outchannels 0;
#X obj 7 20 inlet;
#X msg 49 234 0;
#X obj 49 254 outlet;
#X obj 7 106 sel;
#X obj 148 67 r \$0.out.channels;
#X obj 22 135 t a b;
#X obj 103 166 pack f f;
#X obj 103 214 s \$0.error;
#X msg 7 59 \$16;
#X msg 103 188 outchannels mismatch: received \$1 (configured \$2)
;
#X connect 0 0 8 0;
#X connect 1 0 2 0;
#X connect 3 1 5 0;
#X connect 4 0 3 1;
#X connect 4 0 6 1;
#X connect 5 0 6 0;
#X connect 5 1 1 0;
#X connect 6 0 9 0;
#X connect 8 0 3 0;
#X connect 9 0 7 0;
#X restore 25 225 pd outchannels;
#X obj 11 318 f;
#X obj 11 56 t b a a a a a b;
#X obj 173 282 s \$0.in.channels;
#N canvas 697 230 362 296 blocksize 0;
#X obj 7 20 inlet;
#X msg 7 42 \$11 \$12;
#X obj 7 62 unpack f f;
#X obj 64 83 << 8;
#X obj 7 108 |;
#X obj 7 154 change -1;
#X obj 7 182 outlet;
#X obj 191 40 inlet;
#X msg 191 78 set -1;
#X connect 0 0 1 0;
#X connect 1 0 2 0;
#X connect 2 0 4 0;
#X connect 2 1 3 0;
#X connect 3 0 4 1;
#X connect 4 0 5 0;
#X connect 5 0 6 0;
#X connect 7 0 8 0;
#X connect 8 0 5 0;
#X restore 83 86 pd blocksize;
#X obj 124 130 s \$0.in.blocksize;
#X obj 224 22 r \$0.connected;
#X obj 224 45 sel 0;
#X text 264 46 reset;
#X connect 0 0 8 0;
#X connect 2 0 7 1;
#X connect 3 0 7 1;
#X connect 4 0 7 1;
#X connect 5 0 7 1;
#X connect 5 1 9 0;
#X connect 7 0 1 0;
#X connect 8 0 7 0;
#X connect 8 2 5 0;
#X connect 8 3 4 0;
#X connect 8 4 3 0;
#X connect 8 5 10 0;
#X connect 8 6 2 0;
#X connect 10 0 11 0;
#X connect 12 0 13 0;
#X connect 13 0 10 1;
#X connect 13 0 5 1;
#X restore 41 126 pd validate_params;
#N canvas 270 132 710 558 continuous_sequence 0;
#X obj 244 181 moses 64;
#X obj 289 202 moses 192;
#X msg 289 247 0;
#X msg 340 248 1;
#X obj 289 280 change;
#X obj 289 300 sel 1;
#X obj 289 320 f;
#X obj 289 340 + 1;
#X obj 289 360 t a a;
#X msg 457 264 0;
#X obj 289 390 * 256;
#X obj 118 284 moses 128;
#X obj 118 433 +;
#X obj 169 383 +;
#X obj 211 317 sel 0;
#X obj 211 346 f;
#X obj 118 468 t a;
#X obj 118 129 t a a;
#X obj 272 82 loadbang;
#X msg 272 102 65536;
#X obj 272 130 t a a a a;
#X obj 289 157 * 0.25;
#X obj 340 180 * 0.75;
#X obj 169 258 * 0.5;
#X obj 118 16 inlet;
#X obj 118 504 outlet;
#X obj 430 195 sel 1;
#X obj 430 215 t b b;
#X msg 430 241 -1;
#X text 248 19 converts incoming number stream that wraps at 65536
to continuous stream;
#X obj 289 454 mod;
#X obj 329 469 << 24;
#X obj 329 428 loadbang;
#X msg 329 448 1;
#X obj 430 175 r \$0.connected;
#X floatatom 275 502 10 0 0 0 - - -;
#X floatatom 460 390 10 0 0 0 - - -;
#X floatatom 207 484 5 0 0 0 - - -;
#X connect 0 1 1 0;
#X connect 1 0 2 0;
#X connect 1 1 3 0;
#X connect 2 0 4 0;
#X connect 3 0 4 0;
#X connect 4 0 5 0;
#X connect 4 0 14 0;
#X connect 5 0 6 0;
#X connect 6 0 7 0;
#X connect 7 0 8 0;
#X connect 8 0 10 0;
#X connect 8 1 6 1;
#X connect 9 0 8 0;
#X connect 9 0 15 0;
#X connect 10 0 30 0;
#X connect 11 0 12 0;
#X connect 11 1 13 0;
#X connect 12 0 16 0;
#X connect 13 0 16 0;
#X connect 14 0 15 0;
#X connect 15 0 13 1;
#X connect 16 0 25 0;
#X connect 17 0 11 0;
#X connect 17 1 0 0;
#X connect 18 0 19 0;
#X connect 19 0 20 0;
#X connect 20 0 23 0;
#X connect 20 1 21 0;
#X connect 20 2 22 0;
#X connect 20 3 10 1;
#X connect 21 0 0 1;
#X connect 22 0 1 1;
#X connect 23 0 11 1;
#X connect 24 0 17 0;
#X connect 26 0 27 0;
#X connect 27 0 28 0;
#X connect 27 1 9 0;
#X connect 28 0 4 0;
#X connect 30 0 15 1;
#X connect 30 0 12 1;
#X connect 30 0 35 0;
#X connect 31 0 30 1;
#X connect 32 0 33 0;
#X connect 33 0 31 0;
#X connect 34 0 26 0;
#X connect 36 0 12 1;
#X restore 14 372 pd continuous_sequence;
#N canvas 511 348 365 277 offset_compensation 0;
#X obj 121 148 spigot 1;
#X obj 121 168 t a b;
#X msg 187 156 0;
#X msg 166 123 1;
#X obj 94 129 t a a;
#X obj 94 188 -;
#X obj 94 30 inlet;
#X obj 94 232 outlet;
#X obj 166 92 sel 1;
#X obj 94 76 spigot;
#X obj 139 51 t a a;
#X obj 139 31 r \$0.connected;
#X connect 0 0 1 0;
#X connect 1 0 5 1;
#X connect 1 1 2 0;
#X connect 2 0 0 1;
#X connect 3 0 0 1;
#X connect 4 0 5 0;
#X connect 4 1 0 0;
#X connect 5 0 7 0;
#X connect 6 0 9 0;
#X connect 8 0 3 0;
#X connect 9 0 4 0;
#X connect 10 0 9 1;
#X connect 10 1 8 0;
#X connect 11 0 10 0;
#X restore 14 501 pd offset_compensation;
#N canvas 0 106 450 300 out_of_order_counter 0;
#X obj 30 59 t a a;
#X obj 31 87 -;
#X obj 31 113 < 0;
#X obj 31 133 sel 1;
#X obj 31 179 f;
#X obj 31 199 + 1;
#X obj 112 118 sel 1;
#X msg 112 137 0;
#X obj 31 249 s \$0.outoforder;
#X msg 80 100 -1;
#X obj 30 36 inlet;
#X obj 112 97 r \$0.connected;
#X connect 0 0 1 1;
#X connect 0 1 1 0;
#X connect 1 0 2 0;
#X connect 2 0 3 0;
#X connect 3 0 4 0;
#X connect 4 0 5 0;
#X connect 5 0 4 1;
#X connect 5 0 8 0;
#X connect 6 0 7 0;
#X connect 6 0 9 0;
#X connect 7 0 4 1;
#X connect 7 0 8 0;
#X connect 9 0 1 1;
#X connect 10 0 0 0;
#X connect 11 0 6 0;
#X restore 61 448 pd out_of_order_counter;
#X obj 47 32 r \$0.on.off;
#X obj 14 84 t a a;
#X obj 41 105 list split 16;
#X obj 158 239 spigot;
#X obj 14 223 spigot;
#X obj 293 200 &&;
#X obj 250 336 print SEQ.RECV;
#X obj 250 309 spigot;
#X obj 283 284 r \$0.DEBUG;
#X connect 0 0 10 0;
#X connect 1 0 20 0;
#X connect 1 1 11 0;
#X connect 2 0 4 0;
#X connect 2 1 3 0;
#X connect 3 0 4 1;
#X connect 4 0 13 0;
#X connect 5 0 2 0;
#X connect 7 0 14 0;
#X connect 7 3 15 0;
#X connect 7 4 6 0;
#X connect 10 0 17 0;
#X connect 11 0 19 0;
#X connect 11 1 21 0;
#X connect 12 0 21 1;
#X connect 13 0 23 0;
#X connect 13 0 7 0;
#X connect 14 0 9 0;
#X connect 16 0 10 1;
#X connect 17 0 1 0;
#X connect 17 1 18 0;
#X connect 18 0 12 0;
#X connect 19 0 8 0;
#X connect 20 0 5 0;
#X connect 21 0 19 1;
#X connect 21 0 20 1;
#X connect 23 0 22 0;
#X connect 24 0 23 1;
#X restore 546 12 pd receiver;
#X f 30;
#N canvas 625 289 590 390 connection 0;
#X msg 119 228 disconnect;
#X obj 13 303 s \$0.to.udp;
#X obj 13 8 r \$0.on.off;
#X obj 13 31 sel 1 0;
#X obj 103 112 r \$0.bind.port;
#X obj 99 46 r \$0.peer.port;
#X obj 13 102 list prepend;
#X obj 99 82 r \$0.server;
#X msg 13 169 connect \$1 \$2 \$3;
#X obj 13 132 list append;
#X obj 13 75 f;
#X connect 0 0 1 0;
#X connect 2 0 3 0;
#X connect 3 0 10 0;
#X connect 3 1 0 0;
#X connect 4 0 9 1;
#X connect 5 0 10 1;
#X connect 6 0 9 0;
#X connect 7 0 6 1;
#X connect 8 0 1 0;
#X connect 9 0 8 0;
#X connect 10 0 6 0;
#X restore 11 31 pd connection;
#N canvas 220 524 587 355 calculate.metrics 0;
#X obj 410 214 r \$0.payload.length;
#X obj 410 234 + 16;
#X obj 410 254 s \$0.udp.packet.size;
#X obj 264 47 r \$0.samplerate;
#X obj 195 70 list prepend;
#X obj 195 90 /;
#X obj 230 96 r \$0.udp.packet.size;
#X obj 195 191 *;
#X obj 230 156 t b a;
#X obj 195 279 s \$0.bandwidth;
#X obj 230 116 + 20;
#X text 266 124 12 Bytes: IP HEADER;
#X text 266 138 8 Bytes: UDP HEADER;
#X obj 13 193 r \$0.on.off;
#X obj 13 260 f;
#X obj 49 259 + 1;
#X obj 13 281 s \$0.seconds;
#X obj 103 218 sel 1;
#X msg 103 238 0;
#X obj 13 233 metro 1000;
#X obj 13 213 t a a;
#X obj 195 209 * 8;
#X obj 195 232 / 1000;
#X obj 195 252 / 1000;
#X obj 431 38 r \$0.bitres;
#X obj 431 58 >> 3;
#X obj 412 113 *;
#X obj 431 78 t b a;
#X obj 412 153 *;
#X obj 444 130 t b a;
#X obj 412 176 s \$0.payload.length;
#X obj 445 110 r \$0.out.channels;
#X text 285 280 in Mbit/second;
#X obj 412 16 r \$0.out.blocksize;
#X obj 195 23 r \$0.out.blocksize;
#X connect 0 0 1 0;
#X connect 1 0 2 0;
#X connect 3 0 4 1;
#X connect 4 0 5 0;
#X connect 5 0 7 0;
#X connect 6 0 10 0;
#X connect 7 0 21 0;
#X connect 8 0 7 0;
#X connect 8 1 7 1;
#X connect 10 0 8 0;
#X connect 13 0 20 0;
#X connect 14 0 15 0;
#X connect 14 0 16 0;
#X connect 15 0 14 1;
#X connect 17 0 18 0;
#X connect 18 0 14 1;
#X connect 19 0 14 0;
#X connect 20 0 19 0;
#X connect 20 1 17 0;
#X connect 21 0 22 0;
#X connect 22 0 23 0;
#X connect 23 0 9 0;
#X connect 24 0 25 0;
#X connect 25 0 27 0;
#X connect 26 0 28 0;
#X connect 27 0 26 0;
#X connect 27 1 26 1;
#X connect 28 0 30 0;
#X connect 29 0 28 0;
#X connect 29 1 28 1;
#X connect 31 0 29 0;
#X connect 33 0 26 0;
#X connect 34 0 4 0;
#X restore 11 51 pd calculate.metrics;
#X obj 14 151 inlet~;
#N canvas 251 343 359 309 gui.stuff 0;
#X obj 20 208 t b a;
#X msg 20 228 64;
#X obj 20 248 <<;
#X obj 20 188 r \$0.blocksize.s;
#X obj 20 268 s \$0.blocksize;
#X obj 22 90 log;
#X obj 22 110 /;
#X obj 75 92 log;
#X msg 75 70 2;
#X obj 75 48 loadbang;
#X obj 22 132 - 6;
#X msg 21 150 set \$1;
#X obj 21 170 s \$0.blocksize.r;
#X obj 22 19 r \$0.blocksize;
#X connect 0 0 1 0;
#X connect 0 1 2 1;
#X connect 1 0 2 0;
#X connect 2 0 4 0;
#X connect 3 0 0 0;
#X connect 5 0 6 0;
#X connect 6 0 10 0;
#X connect 7 0 6 1;
#X connect 8 0 7 0;
#X connect 9 0 8 0;
#X connect 10 0 11 0;
#X connect 11 0 12 0;
#X connect 13 0 5 0;
#X restore 11 120 pd gui.stuff;
#X obj 271 3 bng 15 250 50 0 empty empty empty 17 7 0 10 -262144 -1
-1;
#N canvas 458 224 564 423 reblocked_input 0;
#X obj 8 211 bang~;
#X obj 110 16 inlet~ pad;
#X obj 110 40 jacktrip-encode-channel \$0 0;
#X obj 360 26 r \$0.connected;
#X obj 120 66 inlet~ pad;
#X obj 130 116 inlet~ pad;
#X obj 140 166 inlet~ pad;
#X obj 150 216 inlet~ pad;
#X obj 160 266 inlet~ pad;
#X obj 170 316 inlet~ pad;
#X obj 180 366 inlet~ pad;
#X obj 120 90 jacktrip-encode-channel \$0 1;
#X obj 130 140 jacktrip-encode-channel \$0 2;
#X obj 140 190 jacktrip-encode-channel \$0 3;
#X obj 150 240 jacktrip-encode-channel \$0 4;
#X obj 160 290 jacktrip-encode-channel \$0 5;
#X obj 170 340 jacktrip-encode-channel \$0 6;
#X obj 180 390 jacktrip-encode-channel \$0 7;
#X obj 8 366 outlet;
#X obj 35 233 r \$0.out.blocksize;
#X obj 360 113 switch~ 128 1 2;
#X obj 35 256 / 64;
#X obj 8 271 f;
#X obj 8 294 mod 1;
#X obj 8 317 t a a;
#X obj 71 298 + 1;
#X obj 8 340 sel 0;
#X connect 0 0 22 0;
#X connect 1 0 2 0;
#X connect 3 0 20 0;
#X connect 4 0 11 0;
#X connect 5 0 12 0;
#X connect 6 0 13 0;
#X connect 7 0 14 0;
#X connect 8 0 15 0;
#X connect 9 0 16 0;
#X connect 10 0 17 0;
#X connect 19 0 21 0;
#X connect 21 0 23 1;
#X connect 22 0 23 0;
#X connect 23 0 24 0;
#X connect 24 0 26 0;
#X connect 24 1 25 0;
#X connect 25 0 22 1;
#X connect 26 0 18 0;
#X restore 14 204 pd reblocked_input _ _ _ _ _ _ _ _ _ _ _ _ _ _ _
_ _ _ _ _ _;
#X obj 65 151 inlet~;
#X obj 116 151 inlet~;
#X obj 167 151 inlet~;
#X obj 218 151 inlet~;
#X obj 269 151 inlet~;
#X obj 320 151 inlet~;
#X obj 371 151 inlet~;
#X obj 565 89 mod;
#X obj 646 170 *;
#N canvas 0 172 317 194 frames 0;
#X obj 36 58 t b a;
#X obj 23 83 *;
#X obj 23 152 outlet;
#X obj 36 38 r \$0.in.channels;
#X obj 23 106 * 2;
#X obj 23 17 r \$0.in.blocksize;
#X connect 0 0 1 0;
#X connect 0 1 1 1;
#X connect 1 0 4 0;
#X connect 3 0 0 0;
#X connect 4 0 2 0;
#X connect 5 0 1 0;
#X restore 661 143 pd frames;
#N canvas 885 106 406 379 start.when.ready 0;
#X obj 44 192 spigot;
#X obj 77 133 sel 1;
#X msg 77 172 1;
#X obj 44 86 b;
#X obj 77 153 t b b;
#X msg 104 195 0;
#X obj 44 218 f;
#X obj 44 238 + 1;
#X obj 44 258 t a a;
#X obj 102 221 r \$0.queue;
#X obj 102 241 / 2;
#X obj 44 282 moses;
#X obj 71 307 t b b;
#X msg 184 230 0;
#X obj 44 57 inlet;
#X obj 71 342 outlet;
#X text 23 11 We start playback after having received q/2 packets;
#X obj 77 113 r \$0.connected;
#X connect 0 0 6 0;
#X connect 1 0 4 0;
#X connect 2 0 0 1;
#X connect 3 0 0 0;
#X connect 4 0 2 0;
#X connect 4 1 5 0;
#X connect 5 0 6 1;
#X connect 6 0 7 0;
#X connect 7 0 8 0;
#X connect 8 0 11 0;
#X connect 8 1 6 1;
#X connect 9 0 10 0;
#X connect 10 0 11 1;
#X connect 11 1 12 0;
#X connect 12 0 15 0;
#X connect 12 1 13 0;
#X connect 13 0 0 1;
#X connect 14 0 3 0;
#X connect 17 0 1 0;
#X restore 546 269 pd start.when.ready;
#X obj 493 319 spigot;
#X msg 546 293 1;
#X obj 603 316 sel 0;
#X msg 603 337 0;
#X obj 493 366 f;
#X obj 493 409 t a a;
#X obj 538 399 + 1;
#X obj 493 486 *;
#N canvas 0 172 317 194 frames 0;
#X obj 36 58 t b a;
#X obj 23 83 *;
#X obj 23 145 outlet;
#X obj 36 38 r \$0.in.channels;
#X obj 23 106 * 2;
#X obj 23 17 r \$0.in.blocksize;
#X connect 0 0 1 0;
#X connect 0 1 1 1;
#X connect 1 0 4 0;
#X connect 3 0 0 0;
#X connect 4 0 2 0;
#X connect 5 0 1 0;
#X restore 524 486 pd frames;
#X obj 493 386 mod;
#N canvas 91 107 949 413 playback_from_queuebuffer 0;
#X obj 8 259 outlet~;
#X obj 58 259 outlet~;
#X obj 108 259 outlet~;
#X obj 158 259 outlet~;
#X obj 208 259 outlet~;
#X obj 258 259 outlet~;
#X obj 308 259 outlet~;
#X obj 358 259 outlet~;
#X obj 357 19 inlet;
#X obj 8 55 jacktrip-decode-channel \$0 0;
#X obj 58 79 jacktrip-decode-channel \$0 1;
#X obj 107 106 jacktrip-decode-channel \$0 2;
#X obj 158 132 jacktrip-decode-channel \$0 3;
#X obj 209 155 jacktrip-decode-channel \$0 4;
#X obj 257 177 jacktrip-decode-channel \$0 5;
#X obj 308 199 jacktrip-decode-channel \$0 6;
#X obj 357 223 jacktrip-decode-channel \$0 7;
#X obj 534 17 r \$0.connected;
#X obj 629 336 s \$0.in.clock;
#X obj 629 153 bang~;
#X obj 656 198 / 64;
#X obj 629 213 f;
#X obj 629 251 mod 1;
#X obj 629 274 t a a;
#X obj 692 255 + 1;
#X obj 656 175 r \$0.in.blocksize;
#X obj 534 52 switch~ 128 1 2;
#X obj 629 309 sel 0;
#X obj 550 92 r \$0.skip;
#X obj 550 115 f;
#X obj 550 138 mod 2;
#X obj 550 161 t a a;
#X obj 601 154 + 1;
#X obj 550 184 sel 0;
#X connect 8 0 9 0;
#X connect 8 0 10 0;
#X connect 8 0 11 0;
#X connect 8 0 12 0;
#X connect 8 0 13 0;
#X connect 8 0 14 0;
#X connect 8 0 15 0;
#X connect 8 0 16 0;
#X connect 9 0 0 0;
#X connect 10 0 1 0;
#X connect 11 0 2 0;
#X connect 12 0 3 0;
#X connect 13 0 4 0;
#X connect 14 0 5 0;
#X connect 15 0 6 0;
#X connect 16 0 7 0;
#X connect 17 0 26 0;
#X connect 19 0 21 0;
#X connect 20 0 22 1;
#X connect 21 0 22 0;
#X connect 22 0 23 0;
#X connect 23 0 27 0;
#X connect 23 1 24 0;
#X connect 24 0 21 1;
#X connect 25 0 20 0;
#X connect 27 0 18 0;
#X connect 28 0 29 0;
#X connect 29 0 30 0;
#X connect 30 0 31 0;
#X connect 31 0 33 0;
#X connect 31 1 32 0;
#X connect 32 0 29 1;
#X connect 33 0 21 0;
#X restore 493 518 pd playback_from_queuebuffer _ _ _ _ _ _ _ _ _ _
_ _ _ _ _;
#X obj 493 544 outlet~;
#X obj 542 544 outlet~;
#X obj 591 544 outlet~;
#X obj 640 544 outlet~;
#X obj 690 544 outlet~;
#X obj 739 544 outlet~;
#X obj 788 544 outlet~;
#X obj 838 544 outlet~;
#X obj 436 13 inlet;
#N canvas 239 357 1087 269 parse.methods 0;
#X obj 14 9 inlet;
#X obj 39 137 b;
#X msg 14 168 1;
#X msg 39 168 0;
#X obj 14 31 route 1 0;
#X obj 14 197 s \$0.on.off;
#X obj 575 78 s \$0.print.status;
#N canvas 520 249 416 280 blocksize 0;
#X obj 34 35 inlet;
#X obj 34 151 f;
#X obj 34 190 change -1;
#X obj 79 35 r \$0.on.off;
#X obj 79 55 == 0;
#X obj 79 75 t a a;
#X obj 34 55 t b a;
#X obj 106 97 sel 1;
#X obj 34 233 s \$0.out.blocksize;
#X obj 63 152 r \$0.out.blocksize;
#X obj 34 102 spigot 1;
#X connect 0 0 6 0;
#X connect 1 0 2 0;
#X connect 2 0 8 0;
#X connect 3 0 4 0;
#X connect 4 0 5 0;
#X connect 5 0 10 1;
#X connect 5 1 7 0;
#X connect 6 0 10 0;
#X connect 6 1 1 1;
#X connect 7 0 1 0;
#X connect 9 0 1 1;
#X connect 10 0 1 0;
#X restore 216 132 pd blocksize;
#N canvas 446 207 397 358 queue 0;
#X obj 34 34 inlet;
#X obj 34 151 f;
#X obj 34 190 change -1;
#X obj 79 35 r \$0.on.off;
#X obj 79 55 == 0;
#X obj 79 75 t a a;
#X obj 34 265 s \$0.queue;
#X obj 111 153 r \$0.queue;
#X obj 106 97 sel 1;
#X connect 0 0 1 0;
#X connect 1 0 2 0;
#X connect 2 0 6 0;
#X connect 3 0 4 0;
#X connect 4 0 5 0;
#X connect 5 1 8 0;
#X connect 7 0 1 1;
#X connect 8 0 1 0;
#X restore 267 112 pd queue;
#N canvas 415 544 292 173 portoffset 0;
#X obj 28 27 inlet;
#X obj 28 77 s \$0.port.offset;
#X connect 0 0 1 0;
#X restore 393 132 pd portoffset;
#N canvas 163 216 416 280 server 0;
#X obj 34 35 inlet;
#X obj 79 35 r \$0.on.off;
#X obj 34 102 spigot 1;
#X obj 79 75 t a a;
#X obj 34 55 t b a;
#X obj 180 168 r \$0.server;
#X obj 34 221 s \$0.server;
#X obj 180 188 symbol;
#X obj 34 151 symbol;
#X obj 68 130 symbol;
#X obj 79 55 == 0;
#X obj 106 97 sel 1;
#X connect 0 0 4 0;
#X connect 1 0 10 0;
#X connect 2 0 8 0;
#X connect 3 0 2 1;
#X connect 3 1 11 0;
#X connect 4 0 2 0;
#X connect 4 1 9 0;
#X connect 5 0 7 0;
#X connect 7 0 8 1;
#X connect 8 0 6 0;
#X connect 9 0 8 1;
#X connect 10 0 3 0;
#X connect 11 0 8 0;
#X restore 317 87 pd server;
#N canvas 415 382 416 280 bindport 0;
#X obj 34 35 inlet;
#X obj 34 190 change -1;
#X obj 79 35 r \$0.on.off;
#X obj 79 55 == 0;
#X obj 34 102 spigot 1;
#X obj 79 75 t a a;
#X obj 34 55 t b a;
#X obj 34 221 s \$0.bind.port;
#X obj 90 153 r \$0.bind.port;
#X obj 34 151 f;
#X obj 173 77 + 4464;
#X obj 173 57 r \$0.port.offset;
#X obj 106 97 sel 1;
#X connect 0 0 6 0;
#X connect 1 0 7 0;
#X connect 2 0 3 0;
#X connect 3 0 5 0;
#X connect 4 0 9 0;
#X connect 5 0 4 1;
#X connect 5 1 12 0;
#X connect 6 0 4 0;
#X connect 6 1 9 1;
#X connect 8 0 9 1;
#X connect 9 0 1 0;
#X connect 10 0 6 0;
#X connect 11 0 10 0;
#X connect 12 0 9 0;
#X restore 453 113 pd bindport;
#N canvas 415 382 416 280 peerport 0;
#X obj 34 35 inlet;
#X obj 34 151 f;
#X obj 34 190 change -1;
#X obj 79 35 r \$0.on.off;
#X obj 79 55 == 0;
#X obj 34 102 spigot 1;
#X obj 79 75 t a a;
#X obj 34 55 t b a;
#X obj 66 152 r \$0.peer.port;
#X obj 34 221 s \$0.peer.port;
#X obj 173 77 + 4464;
#X obj 173 57 r \$0.port.offset;
#X obj 106 97 sel 1;
#X connect 0 0 7 0;
#X connect 1 0 2 0;
#X connect 2 0 9 0;
#X connect 3 0 4 0;
#X connect 4 0 6 0;
#X connect 5 0 1 0;
#X connect 6 0 5 1;
#X connect 6 1 12 0;
#X connect 7 0 5 0;
#X connect 7 1 1 1;
#X connect 8 0 1 1;
#X connect 10 0 7 0;
#X connect 11 0 10 0;
#X connect 12 0 1 0;
#X restore 514 96 pd peerport;
#X obj 65 56 route start stop outchannels blocksize queue server;
#X obj 393 56 route portoffset bindport peerport status;
#N canvas 619 106 416 280 outchannels 0;
#X obj 34 35 inlet;
#X obj 34 151 f;
#X obj 34 190 change -1;
#X obj 79 35 r \$0.on.off;
#X obj 79 55 == 0;
#X obj 34 102 spigot 1;
#X obj 79 75 t a a;
#X obj 34 239 s \$0.out.channels;
#X obj 75 151 r \$0.out.channels;
#X obj 34 55 t b a;
#X obj 106 97 sel 1;
#X connect 0 0 9 0;
#X connect 1 0 2 0;
#X connect 2 0 7 0;
#X connect 3 0 4 0;
#X connect 4 0 6 0;
#X connect 5 0 1 0;
#X connect 6 0 5 1;
#X connect 6 1 10 0;
#X connect 8 0 1 1;
#X connect 9 0 5 0;
#X connect 9 1 1 1;
#X connect 10 0 1 0;
#X restore 166 152 pd outchannels;
#X obj 702 56 route enabletoken disabletoken;
#N canvas 825 657 524 340 enable/disabletoken 0;
#X obj 246 36 inlet;
#X obj 32 34 inlet;
#X msg 246 63 0;
#X msg 32 97 1;
#X obj 32 63 t b a;
#X obj 73 96 symbol;
#X obj 32 193 s \$0.token.enable;
#X obj 73 123 route symbol;
#X obj 73 149 s \$0.token.symbol;
#X connect 0 0 2 0;
#X connect 1 0 4 0;
#X connect 2 0 6 0;
#X connect 3 0 6 0;
#X connect 4 0 3 0;
#X connect 4 1 5 0;
#X connect 5 0 7 0;
#X connect 7 0 8 0;
#X restore 702 118 pd enable/disabletoken;
#X obj 14 109 t b b, f 15;
#X obj 101 182 samplerate~;
#X obj 101 202 s \$0.samplerate;
#X connect 0 0 4 0;
#X connect 1 0 3 0;
#X connect 2 0 5 0;
#X connect 3 0 5 0;
#X connect 4 0 18 0;
#X connect 4 1 1 0;
#X connect 4 2 13 0;
#X connect 13 0 18 0;
#X connect 13 1 1 0;
#X connect 13 2 15 0;
#X connect 13 3 7 0;
#X connect 13 4 8 0;
#X connect 13 5 10 0;
#X connect 13 6 14 0;
#X connect 14 0 9 0;
#X connect 14 1 11 0;
#X connect 14 2 12 0;
#X connect 14 3 6 0;
#X connect 14 4 16 0;
#X connect 16 0 17 0;
#X connect 16 1 17 1;
#X connect 18 0 2 0;
#X connect 18 1 19 0;
#X connect 19 0 20 0;
#X restore 436 56 pd parse.methods;
#X obj 912 352 outlet;
#N canvas 149 106 840 329 status_and_errors 0;
#X obj 25 264 outlet;
#X obj 25 24 r \$0.error;
#X obj 25 44 list prepend ERROR;
#X obj 25 64 list trim;
#X obj 161 135 list prepend STATISTICS;
#X obj 161 155 list trim;
#N canvas 678 486 457 357 dropped_and_glitch 0;
#X obj 34 18 r \$0.dropped;
#X obj 34 116 f;
#X obj 34 136 + 1;
#X obj 34 156 t a a;
#X obj 284 110 sel 1;
#X msg 284 130 0;
#X obj 284 90 r \$0.on.off;
#X obj 160 115 del 50;
#X obj 160 92 b;
#X obj 34 38 t b b;
#X obj 160 136 f;
#X obj 160 156 + 1;
#X obj 160 176 t a a;
#X obj 34 315 outlet;
#X msg 34 256 dropped_count \$1;
#X msg 160 252 glitch_count \$1;
#X connect 0 0 9 0;
#X connect 1 0 2 0;
#X connect 2 0 3 0;
#X connect 3 0 14 0;
#X connect 3 1 1 1;
#X connect 4 0 5 0;
#X connect 5 0 3 0;
#X connect 5 0 12 0;
#X connect 6 0 4 0;
#X connect 7 0 10 0;
#X connect 8 0 7 0;
#X connect 9 0 1 0;
#X connect 9 1 8 0;
#X connect 10 0 11 0;
#X connect 11 0 12 0;
#X connect 12 0 15 0;
#X connect 12 1 10 1;
#X connect 14 0 13 0;
#X connect 15 0 13 0;
#X restore 161 25 pd dropped_and_glitch;
#X obj 177 48 r \$0.outoforder;
#X msg 177 68 ooo_count \$1;
#N canvas 506 110 382 466 status 0;
#X obj 121 153 r \$0.out.channels;
#X obj 65 337 r \$0.queue;
#X obj 23 23 r \$0.print.status;
#X obj 165 445 outlet;
#X obj 65 247 f;
#X obj 37 337 f;
#X msg 37 357 queue \$1;
#X obj 107 111 f;
#X msg 107 131 blocksize \$1;
#X obj 93 154 f;
#X obj 149 68 r \$0.samplerate;
#X obj 122 67 f;
#X msg 122 87 samplerate \$1;
#X obj 98 380 r \$0.server;
#X msg 23 402 server \$1;
#X obj 23 382 symbol;
#X obj 98 400 symbol;
#X obj 93 246 r \$0.peer.port;
#X msg 65 267 peerport \$1;
#X obj 51 295 f;
#X obj 79 296 r \$0.bind.port;
#X msg 51 315 bindport \$1;
#X msg 93 174 outchannels \$1;
#X obj 23 43 t b b b b b b b b;
#X obj 79 204 f;
#X obj 110 203 r \$0.in.channels;
#X msg 79 224 inchannels \$1;
#X obj 133 111 r \$0.out.blocksize;
#X obj 214 333 r \$0.in.blocksize;
#X msg 214 357 inblocksize \$1;
#X connect 0 0 9 1;
#X connect 1 0 5 1;
#X connect 2 0 23 0;
#X connect 4 0 18 0;
#X connect 5 0 6 0;
#X connect 6 0 3 0;
#X connect 7 0 8 0;
#X connect 8 0 3 0;
#X connect 9 0 22 0;
#X connect 10 0 11 1;
#X connect 11 0 12 0;
#X connect 12 0 3 0;
#X connect 13 0 16 0;
#X connect 14 0 3 0;
#X connect 15 0 14 0;
#X connect 16 0 15 1;
#X connect 17 0 4 1;
#X connect 18 0 3 0;
#X connect 19 0 21 0;
#X connect 20 0 19 1;
#X connect 21 0 3 0;
#X connect 22 0 3 0;
#X connect 23 0 15 0;
#X connect 23 1 5 0;
#X connect 23 2 19 0;
#X connect 23 3 4 0;
#X connect 23 4 24 0;
#X connect 23 5 9 0;
#X connect 23 6 7 0;
#X connect 23 7 11 0;
#X connect 24 0 26 0;
#X connect 25 0 24 0;
#X connect 26 0 3 0;
#X connect 27 0 7 1;
#X connect 28 0 29 0;
#X connect 29 0 3 0;
#X restore 376 26 pd status;
#X obj 376 131 list prepend STATUS;
#X obj 376 151 list trim;
#X obj 446 28 r \$0.connected;
#X msg 446 48 connected \$1;
#N canvas 676 395 400 267 receiving 0;
#X obj 18 20 r \$0.received;
#X obj 18 40 t b b;
#X msg 47 81 1;
#X obj 18 60 del 30;
#X msg 18 80 0;
#X msg 18 127 receiving \$1;
#X obj 18 104 change -1;
#X obj 144 33 r \$0.on.off;
#X obj 18 197 outlet;
#X obj 144 53 sel 0;
#X msg 144 73 stop;
#X connect 0 0 1 0;
#X connect 1 0 3 0;
#X connect 1 1 2 0;
#X connect 2 0 6 0;
#X connect 3 0 4 0;
#X connect 4 0 6 0;
#X connect 5 0 8 0;
#X connect 6 0 5 0;
#X connect 7 0 9 0;
#X connect 9 0 10 0;
#X connect 9 0 4 0;
#X connect 10 0 3 0;
#X restore 542 30 pd receiving;
#X connect 1 0 2 0;
#X connect 2 0 3 0;
#X connect 3 0 0 0;
#X connect 4 0 5 0;
#X connect 5 0 0 0;
#X connect 6 0 4 0;
#X connect 7 0 8 0;
#X connect 8 0 4 0;
#X connect 9 0 10 0;
#X connect 10 0 11 0;
#X connect 11 0 0 0;
#X connect 12 0 13 0;
#X connect 13 0 10 0;
#X connect 14 0 10 0;
#X restore 912 272 pd status_and_errors;
#N canvas 958 209 454 490 update_queuestate 0;
#X obj 13 15 inlet;
#X obj 86 339 outlet;
#X obj 13 70 tabread \$0.queuestate;
#X obj 86 162 f;
#X msg 105 294 \$1 1;
#X obj 105 314 s \$0.queuestate;
#X obj 228 43 sel 1;
#X msg 228 63 const 0;
#X obj 228 83 s \$0.queuestate;
#X obj 170 185 r \$0.received;
#X obj 86 183 t a a a;
#X obj 125 205 pack f f;
#X obj 125 232 s \$0.queueseqno;
#X obj 13 99 sel 1;
#X obj 13 47 t a a;
#X obj 228 23 r \$0.on.off;
#X obj 86 133 b;
#X obj 13 400 f;
#X obj 28 373 r \$0.received;
#X obj 13 432 spigot;
#X obj 13 455 print TOO.EARLY;
#X obj 68 427 r \$0.DEBUG;
#X connect 0 0 14 0;
#X connect 2 0 13 0;
#X connect 3 0 10 0;
#X connect 4 0 5 0;
#X connect 6 0 7 0;
#X connect 7 0 8 0;
#X connect 9 0 11 1;
#X connect 10 0 1 0;
#X connect 10 1 4 0;
#X connect 10 2 11 0;
#X connect 11 0 12 0;
#X connect 13 0 17 0;
#X connect 13 1 16 0;
#X connect 14 0 2 0;
#X connect 14 1 3 1;
#X connect 15 0 6 0;
#X connect 16 0 3 0;
#X connect 17 0 19 0;
#X connect 18 0 17 1;
#X connect 19 0 20 0;
#X connect 21 0 19 1;
#X restore 565 109 pd update_queuestate;
#N canvas 816 106 572 618 check_queuestate 0;
#X obj 13 15 inlet;
#X obj 13 554 outlet;
#X obj 13 48 t a a;
#X obj 13 70 tabread \$0.queuestate;
#X obj 13 165 f;
#X obj 155 446 s \$0.dropped;
#X obj 153 268 tabread \$0.queueseqno;
#X obj 32 429 s \$0.queuestate;
#X msg 32 400 \$1 0;
#X obj 13 271 t a a a;
#X obj 155 331 f;
#X obj 155 351 + 1;
#X obj 155 371 t a a, f 9;
#X obj 13 136 sel 1 0;
#X obj 288 454 s \$0.playindex;
#X obj 13 109 t a a;
#X obj 217 162 change -1;
#X obj 217 184 sel 0;
#X obj 217 204 s \$0.skip;
#X obj 297 267 print SKIP;
#X obj 153 291 t a a a a;
#X obj 297 245 spigot 0;
#X obj 306 326 spigot 0;
#X obj 306 348 print SEQ.PLAY;
#X obj 378 188 r \$0.DEBUG;
#N canvas 930 335 263 318 delay 0;
#X obj 32 75 r \$0.in.blocksize;
#X obj 32 101 - 64;
#X obj 32 123 * 1000;
#X obj 32 146 t a b;
#X obj 32 194 /, f 4;
#X obj 59 169 samplerate~;
#X obj 15 224 del;
#X obj 15 35 t b a;
#X obj 15 5 inlet;
#X obj 15 256 f, f 9;
#X obj 15 279 outlet;
#X connect 0 0 1 0;
#X connect 1 0 2 0;
#X connect 2 0 3 0;
#X connect 3 0 4 0;
#X connect 3 1 5 0;
#X connect 4 0 6 1;
#X connect 5 0 4 1;
#X connect 6 0 9 0;
#X connect 7 0 6 0;
#X connect 7 1 9 1;
#X connect 8 0 7 0;
#X connect 9 0 10 0;
#X restore 32 352 pd delay;
#X connect 0 0 2 0;
#X connect 2 0 3 0;
#X connect 2 1 4 1;
#X connect 3 0 15 0;
#X connect 4 0 9 0;
#X connect 6 0 20 0;
#X connect 8 0 7 0;
#X connect 9 0 1 0;
#X connect 9 1 25 0;
#X connect 9 2 6 0;
#X connect 10 0 11 0;
#X connect 11 0 12 0;
#X connect 12 0 5 0;
#X connect 12 1 10 1;
#X connect 12 1 14 0;
#X connect 13 0 4 0;
#X connect 13 1 10 0;
#X connect 15 0 13 0;
#X connect 15 1 16 0;
#X connect 16 0 17 0;
#X connect 17 0 18 0;
#X connect 17 0 21 0;
#X connect 20 1 10 1;
#X connect 20 2 14 0;
#X connect 20 3 22 0;
#X connect 21 0 19 0;
#X connect 22 0 23 0;
#X connect 24 0 21 1;
#X connect 24 0 22 1;
#X connect 25 0 8 0;
#X restore 493 431 pd check_queuestate;
#X obj 546 43 t a a a;
#X obj 585 64 s \$0.received;
#X obj 416 306 r \$0.skip;
#X obj 249 577 s \$0.connected;
#X obj 603 293 r \$0.connected;
#N canvas 349 185 452 356 token 0;
#X obj 36 173 list fromsymbol;
#X obj 36 242 s \$0.to.udp;
#X obj 36 22 r \$0.connected;
#X obj 36 43 sel 1;
#X obj 36 85 f;
#X obj 71 86 r \$0.token.enable;
#X obj 93 148 r \$0.token.symbol;
#X obj 36 64 del 0;
#X obj 36 108 sel 1;
#X obj 36 149 symbol;
#X obj 36 194 list prepend 32;
#X obj 36 215 list prepend;
#X obj 165 184 loadbang;
#X msg 165 205 symbol _TOKEN;
#X obj 165 226 list fromsymbol;
#X connect 0 0 10 0;
#X connect 2 0 3 0;
#X connect 3 0 7 0;
#X connect 4 0 8 0;
#X connect 5 0 4 1;
#X connect 6 0 9 1;
#X connect 7 0 4 0;
#X connect 8 0 9 0;
#X connect 9 0 0 0;
#X connect 10 0 11 0;
#X connect 11 0 1 0;
#X connect 12 0 13 0;
#X connect 13 0 14 0;
#X connect 14 0 11 1;
#X restore 11 95 pd token;
#X obj 11 11 declare -path iemnet;
#X obj 678 442 table \$0.queuebuffer 6.5536e+06;
#X obj 883 134 s \$0.DEBUG;
#X obj 883 101 tgl 20 0 empty empty empty 17 7 0 10 -262144 -1 -1 0
1;
#X obj 239 248 table \$0.encbuffer 32768;
#X text 292 271 8 * 4096 * 2;
#X text 227 283 max channels * max blocksize * 16bit;
#X obj 14 447 array get \$0.encbuffer;
#X obj 14 401 t b a;
#X msg 14 424 0;
#X obj 14 510 s \$0.to.udp;
#N canvas 0 103 398 477 prepend_header 0;
#X obj 9 12 inlet;
#X obj 9 414 outlet;
#X obj 94 13 r \$0.on.off;
#X obj 94 33 sel 0;
#X msg 94 53 0;
#X obj 9 32 t a b;
#X obj 36 83 f;
#X obj 36 102 mod 65536;
#X obj 36 122 t a a;
#X obj 111 111 + 1;
#X obj 36 142 t a a;
#X obj 81 160 >> 8;
#X obj 36 161 & 255;
#X obj 36 182 pack f f;
#X obj 9 393 list prepend;
#X obj 212 104 t a a;
#X obj 257 122 >> 8;
#X obj 212 123 & 255;
#X obj 36 202 list append 0 0;
#X obj 212 144 pack f f;
#X text 158 182 seq;
#X text 145 205 buffersize;
#X obj 36 231 list append 0;
#X text 146 231 samplingrate;
#X obj 36 261 list append 0;
#X text 136 266 bit resolution;
#X obj 36 298 list append 0;
#X text 132 301 in channels;
#X obj 36 330 list append 0;
#X text 219 363 time tag;
#X text 127 334 out channels;
#X obj 36 363 list prepend 0 0 0 0 0 0 0 0;
#X obj 296 218 r \$0.bitres;
#N canvas 394 310 404 229 samplerate 0;
#X obj 17 17 r \$0.samplerate;
#X obj 18 168 outlet;
#X obj 17 45 select 22050 32000 44100 48000 88200 96000 192000;
#X msg 17 80 0;
#X msg 58 80 1;
#X msg 100 80 2;
#X msg 141 80 3;
#X msg 183 79 4;
#X msg 224 80 5;
#X msg 266 79 6;
#X connect 0 0 2 0;
#X connect 2 0 3 0;
#X connect 2 1 4 0;
#X connect 2 2 5 0;
#X connect 2 3 6 0;
#X connect 2 4 7 0;
#X connect 2 5 8 0;
#X connect 2 6 9 0;
#X connect 3 0 1 0;
#X connect 4 0 1 0;
#X connect 5 0 1 0;
#X connect 6 0 1 0;
#X connect 7 0 1 0;
#X connect 8 0 1 0;
#X connect 9 0 1 0;
#X restore 291 170 pd samplerate;
#X obj 283 279 r \$0.out.channels;
#X obj 212 23 r \$0.out.blocksize;
#X connect 0 0 5 0;
#X connect 2 0 3 0;
#X connect 3 0 4 0;
#X connect 4 0 6 1;
#X connect 5 0 14 0;
#X connect 5 1 6 0;
#X connect 6 0 7 0;
#X connect 7 0 8 0;
#X connect 8 0 10 0;
#X connect 8 1 9 0;
#X connect 9 0 6 1;
#X connect 10 0 12 0;
#X connect 10 1 11 0;
#X connect 11 0 13 1;
#X connect 12 0 13 0;
#X connect 13 0 18 0;
#X connect 14 0 1 0;
#X connect 15 0 17 0;
#X connect 15 1 16 0;
#X connect 16 0 19 1;
#X connect 17 0 19 0;
#X connect 18 0 22 0;
#X connect 19 0 18 1;
#X connect 22 0 24 0;
#X connect 24 0 26 0;
#X connect 26 0 28 0;
#X connect 28 0 31 0;
#X connect 31 0 14 1;
#X connect 32 0 24 1;
#X connect 33 0 22 1;
#X connect 34 0 26 1;
#X connect 34 0 28 1;
#X connect 35 0 15 0;
#X restore 14 481 pd prepend_header;
#X obj 45 325 r \$0.out.channels;
#X obj 14 324 f;
#X obj 14 352 *;
#X obj 14 377 * 2;
#X obj 678 371 table \$0.queueseqno 200;
#X obj 678 391 table \$0.queuestate 200;
#X text 874 453 max blocksize * max channels * max q * 2 bytes;
#X text 874 437 4096 * 8 * 100 * 2;
#X obj 531 367 r \$0.queue;
#X obj 600 89 r \$0.queue;
#X obj 565 197 list append, f 27;
#X obj 565 130 t b a;
#X text 731 25 payload;
#X text 550 27 seq;
#X obj 221 338 r \$0.connected;
#X obj 221 361 del 0;
#X msg 221 388 0 \, 1;
#X msg 221 411 dsp \$1;
#X obj 221 434 s pd;
#X msg 214 44 \; \$1.out.channels 2 \; \$1.port.offset 0 \; \$1.bitres
16 \; \$1.out.blocksize 128 \; \$1.queue 4 \; \$1.server telematic.zhdk.ch
;
#X obj 46 352 r \$0.out.blocksize;
#X obj 14 227 s \$0.out.clock;
#X obj 14 261 r \$0.out.clock;
#X obj 461 237 r \$0.in.clock;
#X obj 565 246 array set \$0.queuebuffer;
#X obj 461 260 del 0.5;
#X obj 249 513 netsend -u -b;
#X connect 0 0 91 0;
#X connect 2 0 3 0;
#X connect 3 0 84 0;
#X connect 4 0 47 0;
#X connect 4 1 75 1;
#X connect 7 0 10 0;
#X connect 9 0 3 0;
#X connect 10 0 86 0;
#X connect 11 0 10 1;
#X connect 12 0 10 2;
#X connect 13 0 10 3;
#X connect 14 0 10 4;
#X connect 15 0 10 5;
#X connect 16 0 10 6;
#X connect 17 0 10 7;
#X connect 18 0 45 0;
#X connect 19 0 89 1;
#X connect 20 0 19 1;
#X connect 21 0 23 0;
#X connect 22 0 26 0;
#X connect 23 0 22 1;
#X connect 24 0 25 0;
#X connect 25 0 22 1;
#X connect 25 0 26 1;
#X connect 26 0 31 0;
#X connect 27 0 46 0;
#X connect 27 1 28 0;
#X connect 28 0 26 1;
#X connect 29 0 32 0;
#X connect 30 0 29 1;
#X connect 31 0 27 0;
#X connect 32 0 33 0;
#X connect 32 1 34 0;
#X connect 32 2 35 0;
#X connect 32 3 36 0;
#X connect 32 4 37 0;
#X connect 32 5 38 0;
#X connect 32 6 39 0;
#X connect 32 7 40 0;
#X connect 41 0 42 0;
#X connect 44 0 43 0;
#X connect 45 0 76 0;
#X connect 46 0 29 0;
#X connect 47 0 21 0;
#X connect 47 1 18 0;
#X connect 47 2 48 0;
#X connect 49 0 26 0;
#X connect 51 0 24 0;
#X connect 56 0 55 0;
#X connect 60 0 64 0;
#X connect 61 0 62 0;
#X connect 61 1 60 1;
#X connect 62 0 60 0;
#X connect 64 0 63 0;
#X connect 65 0 66 1;
#X connect 66 0 67 0;
#X connect 67 0 68 0;
#X connect 68 0 61 0;
#X connect 73 0 31 1;
#X connect 74 0 18 1;
#X connect 75 0 89 0;
#X connect 76 0 75 0;
#X connect 76 1 19 0;
#X connect 79 0 80 0;
#X connect 80 0 81 0;
#X connect 81 0 82 0;
#X connect 82 0 83 0;
#X connect 85 0 67 1;
#X connect 87 0 66 0;
#X connect 88 0 90 0;
#X connect 90 0 22 0;
#X connect 91 0 50 0;
#X connect 91 1 1 0;
