#N canvas 300 50 435 461 10;
#X obj 13 13 inlet;
#X obj 13 419 s \$1;
#N canvas 604 358 455 515 DSP.variant 0;
#N canvas 645 426 437 362 DSP.processing 0;
#X obj 17 17 inlet;
#X obj 16 283 netpd-16bit-to-sig~;
#X obj 56 90 switch~ 1024 1 1;
#X obj 17 134 samplerate~;
#X obj 17 154 / 1024;
#X obj 17 177 phasor~;
#X obj 16 208 *~ 2048;
#X obj 17 234 +~ 1;
#X obj 16 312 tabsend~ \$0.out.buffer;
#X obj 17 67 t b b b;
#X msg 73 159 0;
#X obj 146 257 tabread~ \$0.buffer;
#X obj 17 258 tabread~ \$0.buffer;
#X obj 153 13 inlet;
#X text 203 12 blocksize;
#X obj 153 34 t a a a;
#X msg 153 61 set \$1 1 1;
#X obj 192 99 * 2;
#X connect 0 0 9 0;
#X connect 1 0 8 0;
#X connect 3 0 4 0;
#X connect 4 0 5 0;
#X connect 5 0 6 0;
#X connect 6 0 7 0;
#X connect 6 0 11 0;
#X connect 7 0 12 0;
#X connect 9 0 3 0;
#X connect 9 1 10 0;
#X connect 9 2 2 0;
#X connect 10 0 5 1;
#X connect 11 0 1 1;
#X connect 12 0 1 0;
#X connect 13 0 15 0;
#X connect 15 0 16 0;
#X connect 15 1 4 1;
#X connect 15 2 17 0;
#X connect 16 0 2 0;
#X connect 17 0 6 1;
#X restore 41 212 pd DSP.processing;
#X obj 22 107 t a b a;
#X obj 22 235 t a a;
#X obj 22 327 array get \$0.out.buffer;
#X msg 91 255 \$1;
#X msg 22 256 \$2;
#X obj 22 305 t b a;
#X obj 22 354 list prepend;
#X obj 22 278 * 0.5;
#X obj 91 275 * 0.5;
#X obj 22 16 inlet;
#X obj 22 382 outlet;
#X obj 225 14 inlet;
#X obj 225 57 * 2;
#X obj 22 79 pack 0 f;
#X obj 225 34 t a a;
#X text 267 13 blocksize;
#X connect 1 0 2 0;
#X connect 1 1 0 0;
#X connect 2 0 5 0;
#X connect 2 1 4 0;
#X connect 3 0 7 0;
#X connect 4 0 9 0;
#X connect 5 0 8 0;
#X connect 6 0 3 0;
#X connect 6 1 3 1;
#X connect 7 0 11 0;
#X connect 8 0 6 0;
#X connect 9 0 7 1;
#X connect 10 0 14 0;
#X connect 12 0 15 0;
#X connect 13 0 14 1;
#X connect 14 0 1 0;
#X connect 15 0 13 0;
#X connect 15 1 0 1;
#X restore 124 373 pd DSP.variant;
#X obj 259 34 table \$0.buffer 8192;
#X obj 259 57 table \$0.out.buffer 4096;
#X obj 13 35 route set blocksize;
#X obj 151 98 list length;
#X obj 124 66 t a a;
#X obj 190 132 * 2;
#X obj 151 174 t a a;
#X obj 124 206 spigot;
#X obj 151 154 == 2048;
#X obj 192 201 sel 0;
#X obj 192 244 print netpd-tabwrite16;
#X msg 192 223 error: not matching current blocksize;
#X obj 124 239 t b a;
#X obj 151 274 list prepend 0;
#X obj 151 294 s \$0.buffer;
#X connect 0 0 5 0;
#X connect 2 0 1 0;
#X connect 5 0 1 0;
#X connect 5 1 2 1;
#X connect 5 1 8 0;
#X connect 5 2 7 0;
#X connect 6 0 11 0;
#X connect 7 0 10 0;
#X connect 7 1 6 0;
#X connect 8 0 11 1;
#X connect 9 0 10 1;
#X connect 9 1 12 0;
#X connect 10 0 15 0;
#X connect 11 0 9 0;
#X connect 12 0 14 0;
#X connect 14 0 13 0;
#X connect 15 0 2 0;
#X connect 15 1 16 0;
#X connect 16 0 17 0;
