#N canvas 558 160 733 522 10;
#X obj 468 480 s \$0.down.label;
#X obj 292 469 s \$0.up.label;
#X obj 594 201 s \$0.number.label;
#X msg 594 176 label \$1;
#X obj 594 152 makefilename %2d;
#X obj 65 116 r \$0.up;
#X obj 116 115 r \$0.down;
#X msg 468 400 symbol #000000;
#X msg 468 452 color #ffffff #ffffff \$1;
#X msg 487 426 symbol #c0c0c0;
#X obj 65 235 f, f 8;
#X msg 65 143 -1;
#X msg 116 143 1;
#X obj 65 264 +, f 5;
#X obj 65 207 t b a;
#X obj 224 96 r \$1;
#X obj 381 249 unpack f f, f 16;
#X obj 65 290 s \$0.num;
#X obj 594 128 r \$0.num;
#X obj 459 275 r \$0.num;
#X obj 459 304 !=;
#X obj 365 276 r \$0.num;
#X obj 365 305 !=;
#X obj 65 173 spigot;
#X obj 116 170 spigot;
#X msg 292 387 symbol #000000;
#X msg 292 439 color #ffffff #ffffff \$1;
#X msg 311 412 symbol #c0c0c0;
#X obj 292 349 sel 1 0;
#X obj 468 372 sel 1 0;
#X obj 110 209 r \$0.num;
#X obj 224 142 route set range, f 28;
#X obj 20 20 cnv 31 39 31 empty \$0.number.label \ 1 2 16 0 30 #ffffff
#000000 0;
#X obj 60 20 bng 15 250 50 0 \$0.up empty empty 17 7 0 10 #fcfcfc #000000
#000000;
#X obj 60 35 bng 15 250 50 0 \$0.down empty empty 17 7 0 10 #fcfcfc
#000000 #000000;
#X obj 60 20 cnv 8 15 15 empty \$0.up.label ▲ 3 7 0 20 #ffffff #c0c0c0
0;
#X obj 60 36 cnv 8 15 15 empty \$0.down.label ▼ 3 7 0 20 #ffffff
#c0c0c0 0;
#X obj 306 175 t b a, f 13;
#X obj 253 224 r \$0.num;
#X obj 224 224 f;
#X obj 224 294 min;
#X obj 224 317 max;
#X obj 224 344 s \$0.num;
#X obj 273 8 loadbang;
#X obj 86 355 r \$0.num;
#X obj 86 385 change 0;
#X obj 86 412 s \$1;
#X msg 273 59 range \$1 \$2 \, set \$3;
#X obj 273 31 list append \$2 \$3 \$4;
#X connect 3 0 2 0;
#X connect 4 0 3 0;
#X connect 5 0 11 0;
#X connect 6 0 12 0;
#X connect 7 0 8 0;
#X connect 8 0 0 0;
#X connect 9 0 8 0;
#X connect 10 0 13 0;
#X connect 11 0 23 0;
#X connect 12 0 24 0;
#X connect 13 0 17 0;
#X connect 14 0 10 0;
#X connect 14 1 13 1;
#X connect 15 0 31 0;
#X connect 16 0 22 1;
#X connect 16 0 41 1;
#X connect 16 1 20 1;
#X connect 16 1 40 1;
#X connect 18 0 4 0;
#X connect 19 0 20 0;
#X connect 20 0 24 1;
#X connect 20 0 29 0;
#X connect 21 0 22 0;
#X connect 22 0 23 1;
#X connect 22 0 28 0;
#X connect 23 0 14 0;
#X connect 24 0 14 0;
#X connect 25 0 26 0;
#X connect 26 0 1 0;
#X connect 27 0 26 0;
#X connect 28 0 25 0;
#X connect 28 1 27 0;
#X connect 29 0 7 0;
#X connect 29 1 9 0;
#X connect 30 0 10 1;
#X connect 31 0 39 0;
#X connect 31 1 37 0;
#X connect 37 0 39 0;
#X connect 37 1 16 0;
#X connect 38 0 39 1;
#X connect 39 0 40 0;
#X connect 40 0 41 0;
#X connect 41 0 42 0;
#X connect 43 0 48 0;
#X connect 44 0 45 0;
#X connect 45 0 46 0;
#X connect 47 0 31 0;
#X connect 48 0 47 0;
#X coords 0 -1 1 1 55 31 2 20 20;
