#N canvas 824 351 1232 549 10;
#X obj 14 52 unpack s f s f, f 44;
#X obj 22 166 netreceive -u -b;
#X msg 22 138 listen \$1;
#X obj 22 189 list prepend;
#X obj 22 235 list trim;
#X obj 135 191 route _;
#X obj 169 252 netsend -u -b;
#X obj 257 138 pack s f, f 12;
#X msg 257 161 disconnect \, connect \$1 \$2;
#X obj 22 212 list prepend to;
#X obj 135 166 route from;
#X obj 135 214 list split 1;
#X text 221 213 Remove byte count from blob message;
#X obj 20 300 osc-bridge-display \$0;
#X obj 701 314 s \$0.config;
#X obj 14 23 r \$0.config;
#X obj 22 258 s \$1.bridge.bus;
#X obj 973 44 route fetch_settings;
#X obj 797 45 route restore_settings;
#X obj 797 91 route \$2;
#X obj 973 21 r \$1.intercom;
#X obj 973 180 s \$1.intercom;
#X obj 797 22 r \$1.intercom;
#X obj 973 157 list trim;
#X obj 973 134 list prepend save_settings oscbridge \$2;
#X obj 1132 86 r \$0.config;
#X obj 973 67 b;
#X obj 973 112 list append empty 0 emtpy 0;
#X obj 797 68 route oscbridge;
#X obj 797 114 list;
#X obj 831 221 unpack s f s f;
#X obj 831 412 s \$0.channel.r;
#X obj 858 339 s \$0.bindport.r;
#X obj 885 314 s \$0.sendhost.r;
#X obj 912 246 s \$0.sendport.r;
#X obj 701 291 spigot 1;
#X obj 797 137 t b b a b;
#X msg 848 160 0;
#X msg 814 160 1;
#X obj 814 185 t a;
#X obj 885 269 select empty;
#X msg 885 292 symbol;
#X obj 831 361 select empty;
#X msg 831 385 symbol;
#N canvas 1346 173 529 395 recv.from.gui 0;
#X obj 100 20 r \$0.channel.s;
#X obj 132 93 r \$0.bindport.s;
#X obj 176 115 r \$0.sendhost.s;
#X obj 223 194 r \$0.sendport.s;
#X obj 20 292 pack s f s f, f 16;
#X obj 132 117 t b a;
#X obj 176 188 t b a;
#X obj 223 218 t b a;
#X obj 20 349 outlet;
#X obj 20 13 inlet;
#X obj 20 36 b;
#X obj 387 68 loadbang;
#X msg 387 93 symbol;
#X obj 100 44 select _;
#X msg 100 67 symbol empty;
#X obj 100 90 t a;
#X obj 176 139 select _;
#X msg 176 162 symbol empty;
#X connect 0 0 13 0;
#X connect 1 0 5 0;
#X connect 2 0 16 0;
#X connect 3 0 7 0;
#X connect 4 0 8 0;
#X connect 5 0 4 0;
#X connect 5 1 4 1;
#X connect 6 0 4 0;
#X connect 6 1 4 2;
#X connect 7 0 4 0;
#X connect 7 1 4 3;
#X connect 9 0 10 0;
#X connect 10 0 4 0;
#X connect 11 0 12 0;
#X connect 12 0 13 1;
#X connect 12 0 16 1;
#X connect 13 0 14 0;
#X connect 13 1 15 0;
#X connect 14 0 15 0;
#X connect 15 0 4 0;
#X connect 16 0 17 0;
#X connect 16 1 6 0;
#X connect 17 0 6 0;
#X restore 701 261 pd recv.from.gui;
#X obj 252 90 select empty;
#X text 543 67 reset;
#X msg 541 94 list empty 0 empty 0;
#X obj 135 143 r \$1.bridge.bus;
#N canvas 1725 383 675 502 gui.code 1;
#X obj 35 341 s \$0.bg;
#X msg 40 277 color \$1 0;
#X msg 121 249 6;
#X msg 40 250 10;
#X msg 93 248 3;
#X obj 93 221 sel 0 1;
#X obj 40 226 del 500;
#X obj 40 199 t b a;
#X obj 40 117 r \$0.gui.snd;
#X obj 54 140 r \$0.gui.rcv;
#X msg 40 172 0;
#X obj 253 327 s \$0.up.lbl;
#X msg 253 302 color 10 10 \$1;
#X msg 253 275 symbol #BBBBBB;
#X obj 253 18 r \$0.gui.snd;
#X msg 280 229 symbol #0077FF;
#X msg 299 208 symbol #00BB00;
#X obj 272 88 oscparse;
#X obj 253 41 t b a b;
#X msg 292 66 0;
#X msg 272 111 1;
#X obj 253 139 f;
#X obj 280 185 sel 0 1;
#X obj 253 251 del 200;
#X obj 253 162 t b a;
#X msg 403 302 color 10 10 \$1;
#X msg 403 275 symbol #BBBBBB;
#X msg 430 229 symbol #0077FF;
#X msg 449 208 symbol #00BB00;
#X obj 422 88 oscparse;
#X obj 403 41 t b a b;
#X msg 442 66 0;
#X msg 422 111 1;
#X obj 403 139 f;
#X obj 430 185 sel 0 1;
#X obj 403 251 del 200;
#X obj 403 162 t b a;
#X obj 403 18 r \$0.gui.rcv;
#X obj 403 327 s \$0.down.lbl;
#X connect 2 0 1 0;
#X connect 3 0 1 0;
#X connect 4 0 1 0;
#X connect 5 0 4 0;
#X connect 5 1 2 0;
#X connect 6 0 3 0;
#X connect 7 0 6 0;
#X connect 7 1 5 0;
#X connect 8 0 10 0;
#X connect 9 0 10 0;
#X connect 10 0 7 0;
#X connect 12 0 11 0;
#X connect 13 0 12 0;
#X connect 14 0 18 0;
#X connect 15 0 12 0;
#X connect 16 0 12 0;
#X connect 17 0 20 0;
#X connect 18 0 21 0;
#X connect 18 1 17 0;
#X connect 18 2 19 0;
#X connect 19 0 21 1;
#X connect 20 0 21 1;
#X connect 21 0 24 0;
#X connect 22 0 15 0;
#X connect 22 1 16 0;
#X connect 23 0 13 0;
#X connect 24 0 23 0;
#X connect 24 1 22 0;
#X connect 25 0 38 0;
#X connect 26 0 25 0;
#X connect 27 0 25 0;
#X connect 28 0 25 0;
#X connect 29 0 32 0;
#X connect 30 0 33 0;
#X connect 30 1 29 0;
#X connect 30 2 31 0;
#X connect 31 0 33 1;
#X connect 32 0 33 1;
#X connect 33 0 36 0;
#X connect 34 0 27 0;
#X connect 34 1 28 0;
#X connect 35 0 26 0;
#X connect 36 0 35 0;
#X connect 36 1 34 0;
#X connect 37 0 30 0;
#X restore 565 424 pd gui.code;
#X obj 263 250 s \$0.gui.rcv;
#X obj 128 276 s \$0.gui.snd;
#X connect 0 0 3 1;
#X connect 0 0 5 1;
#X connect 0 1 2 0;
#X connect 0 2 45 0;
#X connect 0 3 7 1;
#X connect 1 0 3 0;
#X connect 1 0 51 0;
#X connect 2 0 1 0;
#X connect 3 0 9 0;
#X connect 4 0 16 0;
#X connect 5 0 11 0;
#X connect 7 0 8 0;
#X connect 8 0 6 0;
#X connect 9 0 4 0;
#X connect 10 0 5 0;
#X connect 11 1 6 0;
#X connect 11 1 50 0;
#X connect 15 0 0 0;
#X connect 17 0 26 0;
#X connect 18 0 28 0;
#X connect 19 0 29 0;
#X connect 20 0 17 0;
#X connect 22 0 18 0;
#X connect 23 0 21 0;
#X connect 24 0 23 0;
#X connect 25 0 27 1;
#X connect 26 0 27 0;
#X connect 27 0 24 0;
#X connect 28 0 19 0;
#X connect 29 0 36 0;
#X connect 30 0 42 0;
#X connect 30 1 32 0;
#X connect 30 2 40 0;
#X connect 30 3 34 0;
#X connect 35 0 14 0;
#X connect 36 0 44 0;
#X connect 36 1 38 0;
#X connect 36 2 30 0;
#X connect 36 3 37 0;
#X connect 37 0 39 0;
#X connect 38 0 39 0;
#X connect 39 0 35 1;
#X connect 40 0 41 0;
#X connect 40 1 33 0;
#X connect 41 0 33 0;
#X connect 42 0 43 0;
#X connect 42 1 31 0;
#X connect 43 0 31 0;
#X connect 44 0 35 0;
#X connect 45 1 7 0;
#X connect 47 0 30 0;
#X connect 48 0 10 0;
#X coords 0 -1 1 1 598 30 1 20 300;
