#N canvas 790 734 1253 445 10;
#X obj 14 82 unpack s f s f, f 44;
#X obj 22 166 netreceive -u -b;
#X msg 22 138 listen \$1;
#X obj 22 189 list prepend;
#X obj 22 235 list trim;
#X obj 135 191 route _;
#X obj 169 252 netsend -u -b;
#X obj 209 111 pack s f, f 12;
#X msg 209 134 disconnect \, connect \$1 \$2;
#X obj 135 143 r \$1.bus;
#X obj 22 212 list prepend to;
#X obj 135 166 route from;
#X obj 135 214 list split 1;
#X text 221 213 Remove byte count from blob message;
#X obj 20 300 osc-bridge-display \$0;
#X obj 469 29 r \$0.channel.s;
#X obj 487 51 r \$0.bindport.s;
#X obj 529 77 r \$0.sendhost.s;
#X obj 569 103 r \$0.sendport.s;
#X obj 469 185 pack s f s f, f 16;
#X obj 487 75 t b a;
#X obj 529 103 t b a;
#X obj 569 127 t b a;
#X obj 469 231 s \$0.config;
#X obj 14 23 r \$0.config;
#X obj 22 258 s \$1.bridge.bus;
#X obj 973 44 route fetch_settings;
#X obj 797 45 route restore_settings;
#X obj 797 91 route \$2;
#X obj 973 21 r \$1.intercom;
#X obj 973 180 s \$1.intercom;
#X obj 797 22 r \$1.intercom;
#X obj 973 157 list trim;
#X obj 973 134 list prepend save_settings oscbridge \$2;
#X obj 1132 86 r \$0.config;
#X obj 973 67 b;
#X obj 973 112 list append empty 0 emtpy 0;
#X obj 797 68 route oscbridge;
#X obj 797 114 list;
#X obj 831 221 unpack s f s f;
#X obj 831 322 s \$0.channel.r;
#X obj 858 296 s \$0.bindport.r;
#X obj 885 267 s \$0.sendhost.r;
#X obj 912 245 s \$0.sendport.r;
#X obj 469 208 spigot 1;
#X obj 797 137 t b b a b;
#X msg 848 160 0;
#X msg 814 160 1;
#X obj 814 185 t a;
#X connect 0 0 3 1;
#X connect 0 0 5 1;
#X connect 0 1 2 0;
#X connect 0 2 7 0;
#X connect 0 3 7 1;
#X connect 1 0 3 0;
#X connect 2 0 1 0;
#X connect 3 0 10 0;
#X connect 4 0 25 0;
#X connect 5 0 12 0;
#X connect 7 0 8 0;
#X connect 8 0 6 0;
#X connect 9 0 11 0;
#X connect 10 0 4 0;
#X connect 11 0 5 0;
#X connect 12 1 6 0;
#X connect 15 0 19 0;
#X connect 16 0 20 0;
#X connect 17 0 21 0;
#X connect 18 0 22 0;
#X connect 19 0 44 0;
#X connect 20 0 19 0;
#X connect 20 1 19 1;
#X connect 21 0 19 0;
#X connect 21 1 19 2;
#X connect 22 0 19 0;
#X connect 22 1 19 3;
#X connect 24 0 0 0;
#X connect 26 0 35 0;
#X connect 27 0 37 0;
#X connect 28 0 38 0;
#X connect 29 0 26 0;
#X connect 31 0 27 0;
#X connect 32 0 30 0;
#X connect 33 0 32 0;
#X connect 34 0 36 1;
#X connect 35 0 36 0;
#X connect 36 0 33 0;
#X connect 37 0 28 0;
#X connect 38 0 45 0;
#X connect 39 0 40 0;
#X connect 39 1 41 0;
#X connect 39 2 42 0;
#X connect 39 3 43 0;
#X connect 44 0 23 0;
#X connect 45 0 19 0;
#X connect 45 1 47 0;
#X connect 45 2 39 0;
#X connect 45 3 46 0;
#X connect 46 0 48 0;
#X connect 47 0 48 0;
#X connect 48 0 44 1;
#X coords 0 -1 1 1 598 30 1 20 300;
