#N canvas 623 634 681 345 10;
#X obj 14 11 loadbang;
#X obj 14 34 \$2;
#X obj 14 82 unpack s f s f, f 94;
#X obj 73 151 netreceive -u -b;
#X msg 73 123 listen \$1;
#X obj 73 174 list prepend;
#X obj 73 220 list trim;
#X obj 257 175 route _;
#X obj 291 236 netsend -u -b;
#X obj 388 118 pack s f, f 31;
#X msg 388 141 disconnect \, connect \$1 \$2;
#X obj 14 58 text get \$1;
#X obj 73 243 s \$1.bus;
#X obj 257 127 r \$1.bus;
#X obj 179 14 r \$1.bus;
#X obj 179 37 route reload;
#X obj 179 60 b;
#X obj 73 197 list prepend to;
#X obj 257 150 route from;
#X obj 257 198 list split 1;
#X text 343 197 Remove byte count from blob message;
#X connect 0 0 1 0;
#X connect 1 0 11 0;
#X connect 2 0 5 1;
#X connect 2 0 7 1;
#X connect 2 1 4 0;
#X connect 2 2 9 0;
#X connect 2 3 9 1;
#X connect 3 0 5 0;
#X connect 4 0 3 0;
#X connect 5 0 17 0;
#X connect 6 0 12 0;
#X connect 7 0 19 0;
#X connect 9 0 10 0;
#X connect 10 0 8 0;
#X connect 11 0 2 0;
#X connect 13 0 18 0;
#X connect 14 0 15 0;
#X connect 15 0 16 0;
#X connect 16 0 1 0;
#X connect 17 0 6 0;
#X connect 18 0 7 0;
#X connect 19 1 8 0;
