#N canvas 790 734 1133 425 10;
#X obj 14 82 unpack s f s f, f 94;
#X obj 73 151 netreceive -u -b;
#X msg 73 123 listen \$1;
#X obj 73 174 list prepend;
#X obj 73 220 list trim;
#X obj 257 175 route _;
#X obj 291 236 netsend -u -b;
#X obj 388 118 pack s f, f 31;
#X msg 388 141 disconnect \, connect \$1 \$2;
#X obj 73 243 s \$1.bus;
#X obj 257 127 r \$1.bus;
#X obj 73 197 list prepend to;
#X obj 257 150 route from;
#X obj 257 198 list split 1;
#X text 343 197 Remove byte count from blob message;
#X obj 20 300 osc-bridge-display \$0;
#X obj 802 91 r \$0.channel.s;
#X obj 820 113 r \$0.bindport.s;
#X obj 862 139 r \$0.sendhost.s;
#X obj 902 165 r \$0.sendport.s;
#X obj 802 247 pack s f s f, f 16;
#X obj 820 137 t b a;
#X obj 862 165 t b a;
#X obj 902 189 t b a;
#X obj 802 276 s \$0.config;
#X obj 14 23 r \$0.config;
#X connect 0 0 3 1;
#X connect 0 0 5 1;
#X connect 0 1 2 0;
#X connect 0 2 7 0;
#X connect 0 3 7 1;
#X connect 1 0 3 0;
#X connect 2 0 1 0;
#X connect 3 0 11 0;
#X connect 4 0 9 0;
#X connect 5 0 13 0;
#X connect 7 0 8 0;
#X connect 8 0 6 0;
#X connect 10 0 12 0;
#X connect 11 0 4 0;
#X connect 12 0 5 0;
#X connect 13 1 6 0;
#X connect 16 0 20 0;
#X connect 17 0 21 0;
#X connect 18 0 22 0;
#X connect 19 0 23 0;
#X connect 20 0 24 0;
#X connect 21 0 20 0;
#X connect 21 1 20 1;
#X connect 22 0 20 0;
#X connect 22 1 20 2;
#X connect 23 0 20 0;
#X connect 23 1 20 3;
#X connect 25 0 0 0;
#X coords 0 -1 1 1 598 30 1 20 300;
