#N canvas 824 351 1232 482 10;
#X obj 19 91 unpack s f s f, f 44;
#X obj 22 206 netreceive -u -b;
#X msg 22 178 listen \$1;
#X obj 22 289 list prepend;
#X obj 22 335 list trim;
#X obj 175 251 route _;
#X obj 209 382 netsend -u -b;
#X obj 262 149 pack s f, f 12;
#X msg 262 172 disconnect \, connect \$1 \$2;
#X obj 22 312 list prepend to;
#X obj 175 226 route from;
#X obj 175 274 list split 1;
#X text 261 273 Remove byte count from blob message;
#X obj 20 20 osc-bridge-display \$0;
#X obj 701 314 s \$0.config;
#X obj 19 65 r \$0.config;
#X obj 22 358 s \$1.bridge.bus;
#X obj 973 44 route fetch_settings;
#X obj 797 45 route restore_settings;
#X obj 797 91 route \$2;
#X obj 973 21 r \$1.intercom;
#X obj 973 180 s \$1.intercom;
#X obj 797 22 r \$1.intercom;
#X obj 973 157 list trim;
#X obj 973 134 list prepend save_settings oscbridge \$2;
#X obj 1132 86 r \$0.config;
#X obj 973 67 b;
#X obj 797 68 route oscbridge;
#X obj 797 114 list;
#X obj 831 221 unpack s f s f;
#X obj 831 412 s \$0.channel.r;
#X obj 858 339 s \$0.bindport.r;
#X obj 885 314 s \$0.sendhost.r;
#X obj 912 246 s \$0.sendport.r;
#X obj 701 291 spigot 1;
#X obj 797 137 t b b a b;
#X msg 848 160 0;
#X msg 814 160 1;
#X obj 814 185 t a;
#X obj 885 269 select empty;
#X msg 885 292 symbol;
#X obj 831 361 select empty;
#X msg 831 385 symbol;
#N canvas 1346 173 529 395 recv.from.gui 0;
#X obj 100 20 r \$0.channel.s;
#X obj 132 93 r \$0.bindport.s;
#X obj 176 115 r \$0.sendhost.s;
#X obj 223 194 r \$0.sendport.s;
#X obj 20 292 pack s f s f, f 16;
#X obj 132 117 t b a;
#X obj 176 188 t b a;
#X obj 223 218 t b a;
#X obj 20 349 outlet;
#X obj 20 13 inlet;
#X obj 20 36 b;
#X obj 387 68 loadbang;
#X msg 387 93 symbol;
#X obj 100 44 select _;
#X msg 100 67 symbol empty;
#X obj 100 90 t a;
#X obj 176 139 select _;
#X msg 176 162 symbol empty;
#X connect 0 0 13 0;
#X connect 1 0 5 0;
#X connect 2 0 16 0;
#X connect 3 0 7 0;
#X connect 4 0 8 0;
#X connect 5 0 4 0;
#X connect 5 1 4 1;
#X connect 6 0 4 0;
#X connect 6 1 4 2;
#X connect 7 0 4 0;
#X connect 7 1 4 3;
#X connect 9 0 10 0;
#X connect 10 0 4 0;
#X connect 11 0 12 0;
#X connect 12 0 13 1;
#X connect 12 0 16 1;
#X connect 13 0 14 0;
#X connect 13 1 15 0;
#X connect 14 0 15 0;
#X connect 15 0 4 0;
#X connect 16 0 17 0;
#X connect 16 1 6 0;
#X connect 17 0 6 0;
#X restore 701 261 pd recv.from.gui;
#X obj 193 124 select empty;
#X msg 638 85 list empty 0 empty 0;
#X obj 175 203 r \$1.bridge.bus;
#N canvas 1414 324 837 588 gui.code 0;
#X obj 38 245 s \$0.bg;
#X msg 43 181 color \$1 0;
#X msg 126 151 6;
#X msg 43 154 10;
#X msg 96 152 3;
#X obj 96 125 sel 0 1;
#X obj 43 130 del 500;
#X obj 43 103 t b a;
#X obj 43 21 r \$0.gui.snd;
#X obj 57 44 r \$0.gui.rcv;
#X msg 43 76 0;
#X obj 253 327 s \$0.up.lbl;
#X msg 253 302 color 10 10 \$1;
#X msg 253 275 symbol #BBBBBB;
#X obj 253 18 r \$0.gui.snd;
#X msg 280 229 symbol #0077FF;
#X msg 299 208 symbol #00BB00;
#X obj 253 41 t b a b;
#X msg 292 66 0;
#X obj 253 139 f;
#X obj 280 185 sel 0 1;
#X obj 253 251 del 200;
#X obj 253 162 t b a;
#X msg 403 302 color 10 10 \$1;
#X msg 403 275 symbol #BBBBBB;
#X msg 430 229 symbol #0077FF;
#X msg 449 208 symbol #00BB00;
#X obj 403 41 t b a b;
#X msg 442 66 0;
#X obj 403 139 f;
#X obj 430 185 sel 0 1;
#X obj 403 251 del 200;
#X obj 403 162 t b a;
#X obj 403 18 r \$0.gui.rcv;
#X obj 403 327 s \$0.down.lbl;
#X obj 598 40 r \$0.reset.click;
#X obj 652 62 t a;
#X obj 624 159 s \$0.reset.label;
#X msg 624 130 color 10 0 11;
#X msg 678 101 color 11 0 10;
#X obj 624 102 del 100;
#X obj 598 294 s \$0.reset;
#X obj 598 63 sel 0;
#N canvas 1488 630 1285 582 print.messages 0;
#X obj 828 68 t a;
#X msg 897 197 color 10 0 11;
#X msg 916 171 color 11 0 10;
#X obj 774 69 sel 0;
#X obj 774 46 r \$0.print.click;
#X obj 774 93 ==;
#X obj 813 94 t a;
#X obj 774 119 t a a, f 21;
#X obj 897 146 sel 0 1;
#X obj 897 226 s \$0.print.label;
#X obj 366 102 oscparse;
#X msg 366 150 1;
#X obj 615 110 oscparse;
#X msg 615 144 1;
#X obj 347 38 inlet;
#X obj 366 188 outlet;
#X obj 598 42 inlet;
#X obj 615 169 outlet;
#X obj 413 168 list split;
#N canvas 789 242 443 595 list2symbol 0;
#X obj 168 149 until;
#X obj 168 231 list store;
#X obj 168 174 f;
#X obj 206 175 + 1;
#X msg 222 147 0, f 2;
#X obj 168 122 t b b a;
#X msg 168 203 get \$1 1;
#X obj 166 298 list fromsymbol;
#X obj 167 253 list append;
#X msg 166 276 symbol \$1\$2;
#X obj 297 168 loadbang;
#X obj 166 339 list prepend append;
#X obj 166 360 list trim;
#X obj 72 394 list store;
#X obj 68 64 t b b a;
#X obj 72 415 list tosymbol;
#X obj 68 43 list;
#X obj 72 436 outlet;
#X obj 68 21 inlet;
#X msg 297 199 symbol /;
#X connect 0 0 2 0;
#X connect 1 0 8 0;
#X connect 1 1 0 1;
#X connect 2 0 3 0;
#X connect 2 0 6 0;
#X connect 3 0 2 1;
#X connect 4 0 2 1;
#X connect 5 0 0 0;
#X connect 5 1 4 0;
#X connect 5 2 1 1;
#X connect 6 0 1 0;
#X connect 7 0 11 0;
#X connect 8 0 9 0;
#X connect 9 0 7 0;
#X connect 10 0 19 0;
#X connect 11 0 12 0;
#X connect 12 0 13 0;
#X connect 13 0 15 0;
#X connect 14 0 13 1;
#X connect 14 1 13 0;
#X connect 14 2 5 0;
#X connect 15 0 17 0;
#X connect 16 0 14 0;
#X connect 18 0 16 0;
#X connect 19 0 8 1;
#X restore 413 247 pd list2symbol;
#X obj 413 294 list append;
#X msg 413 270 symbol /\$1;
#X obj 518 316 r \$0.config;
#X obj 410 376 list prepend;
#X msg 518 339 symbol [\$1];
#X obj 410 402 list prepend ▲;
#X obj 410 457 s \$1.info;
#X obj 410 425 list trim;
#X msg 443 93 symbol ▲;
#X msg 694 107 symbol ▼;
#X obj 413 217 spigot, f 46;
#X obj 347 68 t a a b;
#X obj 292 178 spigot 1;
#X msg 334 152 0;
#X obj 598 68 t a a b;
#X obj 533 162 spigot 1;
#X msg 586 136 0;
#X obj 185 286 t a;
#X obj 185 350 list length;
#X msg 185 379 [DATA | Length: \$1 bytes];
#X obj 186 325 spigot, f 14;
#X msg 682 66 1;
#X msg 444 64 1;
#X obj 207 53 r \$0.muteout;
#X obj 207 76 == 0;
#X obj 936 438 == 0;
#X obj 936 415 r \$0.mutein;
#X obj 238 232 spigot 1;
#X obj 390 137 spigot 1;
#X obj 494 131 spigot 1;
#X obj 473 192 spigot 1;
#X connect 0 0 3 1;
#X connect 1 0 9 0;
#X connect 2 0 9 0;
#X connect 3 0 5 0;
#X connect 3 1 0 0;
#X connect 4 0 3 0;
#X connect 5 0 6 0;
#X connect 5 0 7 0;
#X connect 6 0 5 1;
#X connect 7 0 30 1;
#X connect 7 0 40 1;
#X connect 7 1 8 0;
#X connect 8 0 1 0;
#X connect 8 1 2 0;
#X connect 10 0 11 0;
#X connect 10 0 33 0;
#X connect 10 0 48 0;
#X connect 10 1 18 1;
#X connect 11 0 15 0;
#X connect 12 0 13 0;
#X connect 12 0 36 0;
#X connect 12 0 49 0;
#X connect 12 1 18 1;
#X connect 13 0 17 0;
#X connect 14 0 31 0;
#X connect 16 0 34 0;
#X connect 18 0 30 0;
#X connect 18 1 20 1;
#X connect 19 0 21 0;
#X connect 20 0 23 0;
#X connect 21 0 20 0;
#X connect 22 0 24 0;
#X connect 23 0 25 0;
#X connect 24 0 23 1;
#X connect 25 0 27 0;
#X connect 27 0 26 0;
#X connect 28 0 25 1;
#X connect 29 0 25 1;
#X connect 30 0 19 0;
#X connect 31 0 32 0;
#X connect 31 1 10 0;
#X connect 31 2 28 0;
#X connect 31 2 42 0;
#X connect 32 0 47 0;
#X connect 33 0 32 1;
#X connect 34 0 35 0;
#X connect 34 1 12 0;
#X connect 34 2 29 0;
#X connect 34 2 41 0;
#X connect 35 0 50 0;
#X connect 36 0 35 1;
#X connect 37 0 40 0;
#X connect 38 0 39 0;
#X connect 39 0 23 0;
#X connect 40 0 38 0;
#X connect 41 0 35 1;
#X connect 42 0 32 1;
#X connect 43 0 44 0;
#X connect 44 0 47 1;
#X connect 44 0 48 1;
#X connect 45 0 49 1;
#X connect 45 0 50 1;
#X connect 46 0 45 0;
#X connect 47 0 37 0;
#X connect 48 0 18 0;
#X connect 49 0 18 0;
#X connect 50 0 37 0;
#X restore 272 90 pd print.messages;
#X f 25;
#X msg 28 516 color 10 0 11;
#X msg 47 495 color 11 0 10;
#X obj 28 545 s \$0.mutein.label;
#X msg 221 514 color 10 0 11;
#X msg 240 491 color 11 0 10;
#X obj 221 543 s \$0.muteout.label;
#X obj 82 380 t a;
#X obj 28 381 sel 0;
#X obj 28 358 r \$0.mutein.click;
#X obj 28 404 ==;
#X obj 63 405 t a;
#X obj 28 470 sel 0 1;
#X obj 275 371 t a;
#X obj 221 372 sel 0;
#X obj 221 395 ==;
#X obj 256 396 t a;
#X obj 221 467 sel 0 1;
#X obj 221 349 r \$0.muteout.click;
#X obj 28 437 t a a;
#X obj 73 437 s \$0.mutein;
#X obj 221 431 t a a;
#X obj 272 430 s \$0.muteout;
#X connect 2 0 1 0;
#X connect 3 0 1 0;
#X connect 4 0 1 0;
#X connect 5 0 4 0;
#X connect 5 1 2 0;
#X connect 6 0 3 0;
#X connect 7 0 6 0;
#X connect 7 1 5 0;
#X connect 8 0 10 0;
#X connect 9 0 10 0;
#X connect 10 0 7 0;
#X connect 12 0 11 0;
#X connect 13 0 12 0;
#X connect 14 0 17 0;
#X connect 15 0 12 0;
#X connect 16 0 12 0;
#X connect 17 0 19 0;
#X connect 17 1 43 0;
#X connect 17 2 18 0;
#X connect 18 0 19 1;
#X connect 19 0 22 0;
#X connect 20 0 15 0;
#X connect 20 1 16 0;
#X connect 21 0 13 0;
#X connect 22 0 21 0;
#X connect 22 1 20 0;
#X connect 23 0 34 0;
#X connect 24 0 23 0;
#X connect 25 0 23 0;
#X connect 26 0 23 0;
#X connect 27 0 29 0;
#X connect 27 1 43 1;
#X connect 27 2 28 0;
#X connect 28 0 29 1;
#X connect 29 0 32 0;
#X connect 30 0 25 0;
#X connect 30 1 26 0;
#X connect 31 0 24 0;
#X connect 32 0 31 0;
#X connect 32 1 30 0;
#X connect 33 0 27 0;
#X connect 35 0 42 0;
#X connect 36 0 42 1;
#X connect 38 0 37 0;
#X connect 39 0 37 0;
#X connect 40 0 38 0;
#X connect 42 0 39 0;
#X connect 42 0 40 0;
#X connect 42 0 41 0;
#X connect 42 1 36 0;
#X connect 43 0 19 1;
#X connect 43 1 29 1;
#X connect 44 0 46 0;
#X connect 45 0 46 0;
#X connect 47 0 49 0;
#X connect 48 0 49 0;
#X connect 50 0 51 1;
#X connect 51 0 53 0;
#X connect 51 1 50 0;
#X connect 52 0 51 0;
#X connect 53 0 54 0;
#X connect 53 0 62 0;
#X connect 54 0 53 1;
#X connect 55 0 44 0;
#X connect 55 1 45 0;
#X connect 56 0 57 1;
#X connect 57 0 58 0;
#X connect 57 1 56 0;
#X connect 58 0 59 0;
#X connect 58 0 64 0;
#X connect 59 0 58 1;
#X connect 60 0 47 0;
#X connect 60 1 48 0;
#X connect 61 0 57 0;
#X connect 62 0 55 0;
#X connect 62 1 63 0;
#X connect 64 0 60 0;
#X connect 64 1 65 0;
#X restore 565 423 pd gui.code;
#X obj 221 302 s \$0.gui.rcv;
#X obj 30 229 s \$0.gui.snd;
#X obj 973 112 list append empty 0 empty 0;
#X obj 638 55 r \$0.reset;
#X obj 209 328 spigot 1;
#X obj 22 261 spigot 1;
#X obj 105 254 r \$0.muteout;
#X obj 105 277 == 0;
#X obj 309 326 == 0;
#X obj 309 303 r \$0.mutein;
#X connect 0 0 3 1;
#X connect 0 0 5 1;
#X connect 0 1 2 0;
#X connect 0 2 44 0;
#X connect 0 3 7 1;
#X connect 1 0 49 0;
#X connect 1 0 53 0;
#X connect 2 0 1 0;
#X connect 3 0 9 0;
#X connect 4 0 16 0;
#X connect 5 0 11 0;
#X connect 7 0 8 0;
#X connect 8 0 6 0;
#X connect 9 0 4 0;
#X connect 10 0 5 0;
#X connect 11 1 48 0;
#X connect 11 1 52 0;
#X connect 15 0 0 0;
#X connect 17 0 26 0;
#X connect 18 0 27 0;
#X connect 19 0 28 0;
#X connect 20 0 17 0;
#X connect 22 0 18 0;
#X connect 23 0 21 0;
#X connect 24 0 23 0;
#X connect 25 0 50 1;
#X connect 26 0 50 0;
#X connect 27 0 19 0;
#X connect 28 0 35 0;
#X connect 29 0 41 0;
#X connect 29 1 31 0;
#X connect 29 2 39 0;
#X connect 29 3 33 0;
#X connect 34 0 14 0;
#X connect 35 0 43 0;
#X connect 35 1 37 0;
#X connect 35 2 29 0;
#X connect 35 3 36 0;
#X connect 36 0 38 0;
#X connect 37 0 38 0;
#X connect 38 0 34 1;
#X connect 39 0 40 0;
#X connect 39 1 32 0;
#X connect 40 0 32 0;
#X connect 41 0 42 0;
#X connect 41 1 30 0;
#X connect 42 0 30 0;
#X connect 43 0 34 0;
#X connect 44 1 7 0;
#X connect 45 0 35 0;
#X connect 46 0 10 0;
#X connect 50 0 24 0;
#X connect 51 0 45 0;
#X connect 52 0 6 0;
#X connect 53 0 3 0;
#X connect 54 0 55 0;
#X connect 55 0 53 1;
#X connect 56 0 52 1;
#X connect 57 0 56 0;
#X coords 0 -1 1 1 598 30 1 20 20;
