#N canvas 57 35 522 503 10;
#X obj 38 82 file normalize;
#X msg 38 48 symbol ~;
#X obj 38 113 file split;
#X msg 227 200 symbol \$1;
#X obj 227 219 list fromsymbol;
#X msg 227 242 \$2;
#X msg 227 282 symbol Windows;
#X msg 186 43 symbol C:/Users/rhaefeli;
#X msg 194 65 symbol /Users/romac;
#X msg 187 88 symbol /home/roman;
#X msg 105 255 symbol Linux;
#X msg 38 274 symbol macOS;
#X obj 227 262 sel 58;
#X obj 38 135 list trim;
#X obj 38 156 route /, f 32;
#X obj 227 179 list;
#X msg 38 202 symbol \$1;
#X obj 38 178 list;
#X msg 315 93 symbol /root;
#X obj 38 228 sel Users home root;
#X msg 141 297 symbol _undetected_;
#X msg 241 120 symbol /sdjlkf;
#X obj 38 346 outlet;
#X obj 38 6 inlet;
#X obj 38 27 b;
#X connect 0 0 2 0;
#X connect 1 0 0 0;
#X connect 2 0 13 0;
#X connect 3 0 4 0;
#X connect 4 0 5 0;
#X connect 5 0 12 0;
#X connect 6 0 22 0;
#X connect 7 0 2 0;
#X connect 8 0 2 0;
#X connect 9 0 2 0;
#X connect 10 0 22 0;
#X connect 11 0 22 0;
#X connect 12 0 6 0;
#X connect 13 0 14 0;
#X connect 14 0 17 0;
#X connect 14 1 15 0;
#X connect 15 0 3 0;
#X connect 16 0 19 0;
#X connect 17 0 16 0;
#X connect 18 0 2 0;
#X connect 19 0 11 0;
#X connect 19 1 10 0;
#X connect 19 2 10 0;
#X connect 19 3 20 0;
#X connect 20 0 22 0;
#X connect 21 0 2 0;
#X connect 23 0 24 0;
#X connect 24 0 1 0;
