#N canvas 747 274 450 300 10;
#N canvas 277 198 348 267 generate_msb 0;
#X obj 19 17 inlet;
#X obj 36 65 switch~ 256 1 1;
#N canvas 537 407 450 300 upsampled_by_256 0;
#X obj 12 21 inlet;
#X obj 12 63 switch~ 65536 1 256;
#X obj 205 24 inlet~ hold;
#X obj 204 55 tabsend~ TO.MSB;
#X connect 0 0 1 0;
#X connect 2 0 3 0;
#X restore 19 226 pd upsampled_by_256;
#X obj 53 115 samplerate~;
#X obj 53 135 / 256;
#X obj 53 155 phasor~;
#X obj 53 175 *~ 256;
#X msg 92 133 0.5;
#X obj 19 37 t b b b b;
#X connect 0 0 8 0;
#X connect 3 0 4 0;
#X connect 4 0 5 0;
#X connect 5 0 6 0;
#X connect 6 0 2 1;
#X connect 7 0 5 1;
#X connect 8 0 2 0;
#X connect 8 1 1 0;
#X connect 8 2 3 0;
#X connect 8 3 7 0;
#X restore 41 162 pd generate_msb;
#N canvas 31 236 311 243 generate_lsb 0;
#X obj 11 12 inlet;
#X obj 11 65 switch~ 65536 1 1;
#X obj 38 90 samplerate~;
#X obj 38 110 / 256;
#X obj 38 136 phasor~;
#X obj 38 156 *~ 256;
#X obj 11 32 t b b;
#X obj 38 176 tabsend~ TO.LSB;
#X connect 0 0 6 0;
#X connect 2 0 3 0;
#X connect 3 0 4 0;
#X connect 4 0 5 0;
#X connect 5 0 7 0;
#X connect 6 0 1 0;
#X connect 6 1 2 0;
#X restore 14 191 pd generate_lsb;
#X obj 17 232 table TO.MSB 65536;
#X obj 17 250 table TO.LSB 65536;
#N canvas 470 226 348 267 generate_msb 0;
#X obj 19 17 inlet;
#X obj 36 65 switch~ 256 1 1;
#X obj 53 115 samplerate~;
#X obj 53 135 / 256;
#X obj 53 155 phasor~;
#X msg 92 133 0.5;
#X obj 19 37 t b b b b;
#X obj 53 175 *~ 65536;
#X obj 53 198 tabsend~ FROM.MSB;
#X connect 0 0 6 0;
#X connect 2 0 3 0;
#X connect 3 0 4 0;
#X connect 4 0 7 0;
#X connect 5 0 4 1;
#X connect 6 1 1 0;
#X connect 6 2 2 0;
#X connect 6 3 5 0;
#X connect 7 0 8 0;
#X restore 256 158 pd generate_msb;
#X obj 259 211 table FROM.MSB 256;
#X obj 14 135 t b b b;
#X obj 14 10 loadbang;
#X obj 14 30 t b b;
#X msg 41 54 dsp 1;
#X obj 41 74 s pd;
#X connect 6 0 1 0;
#X connect 6 1 0 0;
#X connect 6 2 4 0;
#X connect 7 0 8 0;
#X connect 8 0 6 0;
#X connect 8 1 9 0;
#X connect 9 0 10 0;
