#N canvas 861 257 934 643 10;
#X obj 10 12 vsl 24 316 0 1 0 0 \$0.handle.s \$0.handle.r empty 0 20
0 10 -262144 -1 -1 0 1;
#X obj 129 105 r \$0.handle.s;
#X obj 739 194 s \$0.handle.r;
#X obj 10 10 cnv 15 24 321 empty empty empty 4 12 0 14 -228856 -1 0
;
#X obj 10 10 cnv 2 24 321 empty \$0.handle.gui empty 4 12 0 14 -162280
-1 0;
#X obj 640 52 loadbang;
#X obj 640 73 f \$3;
#X obj 304 173 f;
#X obj 203 532 s \$0.handle.gui;
#X msg 203 494 pos 10 \$1;
#X msg 323 337 vis_size 24 \$1;
#X obj 333 134 t b a;
#X obj 304 194 /;
#X obj 304 216 min 1;
#X obj 304 238 * 321;
#X obj 304 259 max 5;
#X msg 333 106 1;
#X floatatom 610 140 5 0 0 0 - - -, f 5;
#X obj 333 85 moses 1;
#X obj 304 280 int;
#X obj 203 467 + 10;
#X obj 176 345 max 0;
#X obj 130 296 * 321;
#X msg 252 332 321 \$1;
#X obj 252 353 -;
#X obj 203 424 list prepend;
#X obj 203 445 -;
#X obj 252 374 t a a;
#X obj 176 376 min;
#X obj 168 150 sel 0;
#X obj 208 151 f;
#X obj 176 397 t a a;
#X obj 129 127 t a a a;
#X obj 111 381 / 321;
#X obj 168 172 f;
#X obj 130 152 -;
#X obj 130 216 f;
#X obj 130 241 + 1;
#X obj 130 191 t b a;
#X obj 130 262 t a a;
#X msg 341 425 321 \$1;
#X obj 630 8 r \$1;
#X obj 630 29 route displaysize;
#X obj 630 102 s \$0.displaysize;
#X obj 760 52 loadbang;
#X obj 750 8 r \$1;
#X obj 750 29 route totalsize;
#X obj 757 130 s \$0.totalsize;
#X obj 760 73 f \$4;
#X obj 304 37 r \$0.displaysize;
#X obj 333 62 r \$0.totalsize;
#X obj 616 172 s \$0.totalsize;
#X obj 471 303 r \$0.displaysize;
#X obj 452 282 r \$0.totalsize;
#X obj 452 349 -;
#X obj 471 324 t b a;
#X obj 671 136 bng 15 250 50 0 empty empty empty 17 7 0 10 -262144
-1 -1;
#X obj 452 373 max 0;
#X msg 392 415 321 \$1;
#X obj 392 436 -;
#X obj 341 446 -;
#X obj 341 467 -;
#X obj 304 301 t a a a a;
#X obj 392 459 /;
#X obj 341 494 /;
#X obj 341 544 int;
#X obj 341 522 + 0.5;
#X obj 648 278 r \$1;
#X obj 648 299 route setpos;
#X obj 648 343 max 0;
#X obj 648 367 min;
#X floatatom 648 398 5 0 0 0 - - -, f 5;
#X floatatom 713 262 5 0 0 0 - - -, f 5;
#X obj 648 320 int;
#X msg 739 162 0;
#X obj 341 610 s \$2;
#X msg 341 576 pos \$1;
#X obj 750 100 t b a;
#X connect 1 0 32 0;
#X connect 5 0 6 0;
#X connect 6 0 43 0;
#X connect 7 0 12 0;
#X connect 9 0 8 0;
#X connect 10 0 8 0;
#X connect 11 0 7 0;
#X connect 11 1 12 1;
#X connect 12 0 13 0;
#X connect 13 0 14 0;
#X connect 14 0 15 0;
#X connect 15 0 19 0;
#X connect 16 0 11 0;
#X connect 17 0 51 0;
#X connect 18 0 16 0;
#X connect 18 1 11 0;
#X connect 19 0 62 0;
#X connect 20 0 9 0;
#X connect 21 0 28 0;
#X connect 22 0 21 0;
#X connect 23 0 24 0;
#X connect 24 0 27 0;
#X connect 25 0 26 0;
#X connect 26 0 20 0;
#X connect 26 0 40 0;
#X connect 27 0 28 1;
#X connect 27 1 25 1;
#X connect 28 0 31 0;
#X connect 29 0 34 0;
#X connect 29 1 30 0;
#X connect 30 0 29 1;
#X connect 31 0 33 0;
#X connect 31 1 25 0;
#X connect 32 0 35 1;
#X connect 32 1 35 0;
#X connect 32 2 29 0;
#X connect 33 0 34 1;
#X connect 34 0 36 1;
#X connect 35 0 38 0;
#X connect 36 0 37 0;
#X connect 37 0 39 0;
#X connect 38 0 36 0;
#X connect 38 1 37 1;
#X connect 39 0 22 0;
#X connect 39 1 36 1;
#X connect 40 0 60 0;
#X connect 41 0 42 0;
#X connect 42 0 43 0;
#X connect 44 0 48 0;
#X connect 45 0 46 0;
#X connect 46 0 77 0;
#X connect 48 0 77 0;
#X connect 49 0 7 0;
#X connect 50 0 18 0;
#X connect 52 0 55 0;
#X connect 53 0 54 0;
#X connect 54 0 57 0;
#X connect 55 0 54 0;
#X connect 55 1 54 1;
#X connect 56 0 6 0;
#X connect 57 0 63 1;
#X connect 57 0 70 1;
#X connect 58 0 59 0;
#X connect 59 0 63 0;
#X connect 60 0 61 0;
#X connect 61 0 64 0;
#X connect 62 0 23 0;
#X connect 62 1 10 0;
#X connect 62 2 61 1;
#X connect 62 3 58 0;
#X connect 63 0 64 1;
#X connect 64 0 66 0;
#X connect 65 0 76 0;
#X connect 66 0 65 0;
#X connect 67 0 68 0;
#X connect 68 0 73 0;
#X connect 69 0 70 0;
#X connect 70 0 71 0;
#X connect 72 0 73 0;
#X connect 73 0 69 0;
#X connect 74 0 2 0;
#X connect 76 0 75 0;
#X connect 77 0 74 0;
#X connect 77 1 47 0;
#X coords 0 -1 1 1 24 321 2 10 10;
