#N canvas 384 447 395 278 10;
#X obj 234 186 pow 345.23;
#X obj 234 117 until;
#X obj 170 122 realtime;
#X obj 215 54 t b b b;
#X obj 234 140 random 239402;
#X obj 234 163 * 1.90249;
#X msg 234 91 1e+06;
#X obj 170 145 * 1111;
#X msg 170 170 seed \$1;
#X obj 61 207 random \$1;
#X obj 60 229 outlet;
#X obj 215 18 loadbang;
#X obj 61 98 inlet;
#X obj 112 149 inlet;
#X connect 1 0 4 0;
#X connect 2 0 7 0;
#X connect 3 0 2 1;
#X connect 3 1 6 0;
#X connect 3 2 2 0;
#X connect 4 0 5 0;
#X connect 5 0 0 0;
#X connect 6 0 1 0;
#X connect 7 0 8 0;
#X connect 8 0 9 0;
#X connect 9 0 10 0;
#X connect 11 0 3 0;
#X connect 12 0 9 0;
#X connect 13 0 9 1;
