#N canvas 174 129 431 381 10;
#X obj 71 328 outlet;
#X obj 20 13 inlet;
#X obj 20 38 route set;
#X obj 20 140 list;
#X obj 71 61 t b a;
#N canvas 443 388 344 105 msgbox 0;
#X obj 10 7 inlet;
#X obj 10 59 outlet;
#X msg 10 33;
#X connect 0 0 2 0;
#X connect 2 0 1 0;
#X restore 71 304 pd msgbox;
#X msg 71 276 bang \, set;
#X obj 264 14 table \$0.in.segment 1024;
#X obj 264 33 table \$0.out.segment 2048;
#N canvas 0 43 341 417 MSG.variant 0;
#X obj 29 115 until;
#X obj 29 139 f;
#X obj 29 163 t a a;
#X obj 78 156 + 1;
#X obj 29 338 pack f f;
#X msg 29 360 add2 \$1 \$2;
#X obj 29 41 t a a;
#X msg 29 68 \$2;
#X msg 56 68 \$1;
#X obj 29 189 tabread \$1;
#X obj 29 264 t a a;
#X obj 29 290 >> 8;
#X obj 64 291 & 255;
#X obj 29 312 mod 256;
#X obj 29 240 * 32768;
#X obj 29 213 clip -1 0.99997;
#X obj 29 14 inlet;
#X obj 29 386 outlet;
#X obj 195 35 inlet;
#X msg 195 152 set \$1;
#X connect 0 0 1 0;
#X connect 1 0 2 0;
#X connect 2 0 9 0;
#X connect 2 1 3 0;
#X connect 3 0 1 1;
#X connect 4 0 5 0;
#X connect 5 0 17 0;
#X connect 6 0 7 0;
#X connect 6 1 8 0;
#X connect 7 0 0 0;
#X connect 8 0 1 1;
#X connect 9 0 15 0;
#X connect 10 0 11 0;
#X connect 10 1 12 0;
#X connect 11 0 13 0;
#X connect 12 0 4 1;
#X connect 13 0 4 0;
#X connect 14 0 10 0;
#X connect 15 0 14 0;
#X connect 16 0 6 0;
#X connect 18 0 19 0;
#X connect 19 0 9 0;
#X restore 98 200 pd MSG.variant;
#X obj 98 253 t a;
#X connect 1 0 2 0;
#X connect 2 0 3 0;
#X connect 2 1 4 0;
#X connect 3 0 9 1;
#X connect 4 0 6 0;
#X connect 4 1 9 0;
#X connect 5 0 0 0;
#X connect 6 0 5 0;
#X connect 9 0 10 0;
#X connect 10 0 5 0;
