#N canvas 312 43 433 472 10;
#X obj 13 13 inlet;
#X obj 98 256 list length;
#X obj 13 419 s \$1;
#X obj 13 35 route set;
#X obj 64 57 list split 1;
#X obj 149 100 array size \$0.in.buffer;
#X obj 159 190 array size \$0.in.buffer;
#X obj 98 78 t a a a b;
#X obj 132 171 moses;
#X obj 149 120 + 1;
#X obj 115 213 list prepend 0;
#X obj 115 233 s \$0.in.buffer;
#X obj 64 281 pack f f;
#X obj 259 34 table \$0.buffer 2048;
#X obj 259 57 table \$0.out.buffer 1024;
#X obj 259 13 table \$0.in.buffer 2048;
#X obj 132 145 list length;
#N canvas 0 43 302 540 MSG.variant 0;
#X obj 15 11 inlet;
#X obj 15 494 outlet;
#X obj 32 126 until;
#X obj 32 151 f;
#X obj 100 166 + 2;
#X obj 32 173 t a a a;
#X obj 51 195 + 1;
#N canvas 307 165 395 306 msg 0;
#X obj 23 17 inlet;
#X msg 23 39;
#X obj 23 249 outlet;
#X connect 0 0 1 0;
#X connect 1 0 2 0;
#X restore 15 472 pd msg;
#X msg 32 424 add2 \$1;
#X obj 15 97 t b a b b;
#X msg 15 446 bang \, set;
#X obj 15 75 >> 1;
#X obj 32 333 +;
#X obj 32 352 / 32768;
#X obj 32 312 << 8;
#X msg 72 126 0;
#X obj 15 32 t a a;
#X msg 15 52 \$2;
#X msg 213 207 \$1;
#X obj 51 218 tabread \$0.in.buffer;
#X obj 32 239 tabread \$0.in.buffer;
#X obj 32 372 - 1;
#X obj 32 263 - 128;
#X obj 32 285 mod 256;
#X connect 0 0 16 0;
#X connect 2 0 3 0;
#X connect 3 0 5 0;
#X connect 4 0 3 1;
#X connect 5 0 20 0;
#X connect 5 1 6 0;
#X connect 5 2 4 0;
#X connect 6 0 19 0;
#X connect 7 0 1 0;
#X connect 8 0 7 0;
#X connect 9 0 10 0;
#X connect 9 1 2 0;
#X connect 9 2 15 0;
#X connect 10 0 7 0;
#X connect 11 0 9 0;
#X connect 12 0 13 0;
#X connect 13 0 21 0;
#X connect 14 0 12 0;
#X connect 15 0 3 1;
#X connect 16 0 17 0;
#X connect 16 1 18 0;
#X connect 17 0 11 0;
#X connect 18 0 8 0;
#X connect 19 0 12 1;
#X connect 20 0 22 0;
#X connect 21 0 8 0;
#X connect 22 0 23 0;
#X connect 23 0 14 0;
#X restore 65 351 pd MSG.variant;
#X connect 0 0 3 0;
#X connect 1 0 12 1;
#X connect 3 0 2 0;
#X connect 3 1 4 0;
#X connect 4 0 12 0;
#X connect 4 1 7 0;
#X connect 5 0 9 0;
#X connect 7 0 1 0;
#X connect 7 1 10 0;
#X connect 7 2 16 0;
#X connect 7 3 5 0;
#X connect 8 1 6 0;
#X connect 9 0 8 1;
#X connect 10 0 11 0;
#X connect 12 0 17 0;
#X connect 16 0 8 0;
#X connect 17 0 2 0;
