#N canvas 366 148 450 562 10;
#X obj 112 221 + 48;
#X obj 112 256 moses 58;
#X obj 157 283 + 7;
#X obj 157 306 moses 91;
#X obj 202 328 + 6;
#X obj 202 352 moses 123;
#X obj 112 198 random 62;
#X msg 112 401 append \$1;
#X obj 54 445 list store, f 20;
#X obj 54 119 t b a b, f 20;
#X obj 112 171 until;
#X obj 112 148 min 30;
#X obj 171 421 t a;
#X obj 54 468 list tosymbol;
#X obj 54 17 inlet;
#X obj 54 40 route bang;
#X obj 54 93 f \$1;
#X obj 285 205 timer;
#X obj 111 65 route length reseed;
#X msg 285 228 seed \$1;
#X obj 312 155 sel 0;
#X obj 312 178 t b b;
#X msg 365 164 1;
#X msg 312 132 0;
#X obj 54 67 t b b;
#X obj 54 491 outlet;
#X connect 0 0 1 0;
#X connect 1 0 7 0;
#X connect 1 1 2 0;
#X connect 2 0 3 0;
#X connect 3 0 7 0;
#X connect 3 1 4 0;
#X connect 4 0 5 0;
#X connect 5 0 7 0;
#X connect 6 0 0 0;
#X connect 7 0 8 0;
#X connect 8 0 13 0;
#X connect 9 0 8 0;
#X connect 9 1 11 0;
#X connect 9 2 12 0;
#X connect 10 0 6 0;
#X connect 11 0 10 0;
#X connect 12 0 8 1;
#X connect 13 0 25 0;
#X connect 14 0 15 0;
#X connect 15 0 24 0;
#X connect 15 1 18 0;
#X connect 16 0 9 0;
#X connect 17 0 19 0;
#X connect 18 0 16 1;
#X connect 18 1 21 0;
#X connect 19 0 6 0;
#X connect 20 0 21 0;
#X connect 21 0 17 1;
#X connect 21 1 22 0;
#X connect 22 0 20 1;
#X connect 23 0 20 0;
#X connect 24 0 16 0;
#X connect 24 1 23 0;
