#N canvas 275 300 656 549 16;
#X symbolatom 147 66 30 0 0 0 - #1.set.host.r #1.set.host;
#X symbolatom 147 96 30 0 0 0 - #1.set.room.r #1.set.room;
#X symbolatom 147 126 30 0 0 0 - #1.set.name.r #1.set.name;
#X text 70 67 server:;
#X text 88 96 room:;
#X text 88 126 name:;
#X floatatom 147 156 6 1 65535 0 - #1.set.port.r #1.set.port;
#X text 88 156 port:;
#X text 89 296 64;
#X text 89 316 128;
#X text 89 336 256;
#X text 89 356 512;
#X text 89 376 1024;
#X text 89 396 2048;
#X text 89 416 4096;
#X obj 67 297 vradio 20 1 0 7 \$1.set.blocksize \$1.set.blocksize.r
empty 0 -8 0 10 -262144 -1 -1 1;
#X text 65 271 blocksize:;
#X text 208 271 send channels:;
#X text 364 271 1;
#X floatatom 366 299 5 1 300 0 - #1.set.recvbuf.r #1.set.recvbuf;
#X floatatom 147 186 6 1 65535 0 - #1.set.audioport.r #1.set.audioport
;
#X text 34 186 audio port:;
#X text 34 237 AUDIO PARAMETERS:;
#X text 34 27 CONNECTION PARAMETERS:;
#X obj 361 362 cnv 15 80 20 empty \$1.set.samplerate.r 44100 4 10 0
16 -262144 -1 0;
#X text 238 360 samplerate:;
#X obj 220 428 cnv 15 370 25 empty \$1.notification.label empty 2 12
0 17 -262144 -128992 0;
#X obj 350 477 tpf-client-button Save\ to \$1.save.to.s \$1.save.to.r
;
#X obj 219 477 tpf-client-button Load\ from \$1.load.from.s \$1.load.from.r
;
#X obj 481 477 tpf-client-button Save \$1.save.s \$1.save.r;
#X text 278 330 bitres:;
#X text 364 330 16;
#X text 228 300 recv buffer:;
#X obj 88 477 tpf-client-button Reset \$1.reset.s \$1.reset.r;
#X coords 0 -1 1 1 600 500 2 20 20;
