#N struct 1092.rectangle float id float x float y float w float h float txtclr float boxclr float bgclr symbol label;
#N struct 1094.rectangle float id float x float y float w float h float txtclr float boxclr float bgclr symbol label;
#N canvas 759 126 862 518 10;
#X declare -path mediasettings;
#X obj 676 8 declare -path mediasettings;
#X obj 6 84 cnv 19 50 24 empty empty IN 5 12 0 16 #e0e0e0 #000000 0;
#X obj 6 118 cnv 19 50 24 empty empty OUT 5 12 0 16 #e0e0e0 #000000 0;
#X obj 558 84 cnv 10 12 24 empty empty empty 5 12 0 20 #e0e0e0 #000000 0;
#X obj 558 118 cnv 10 12 24 empty empty empty 5 12 0 20 #e0e0e0 #000000 0;
#N canvas 1802 443 450 300 \$0.gop 0;
#X obj 100 100 nbx 2 24 0 64 0 0 \$0.out.ch.s \$0.out.ch.r empty 0 -10 0 20 #ffffff #aaaaaa #000000 0 256;
#X obj 101 101 cnv 10 11 22 empty empty empty 20 12 0 12 #ffffff #404040 0;
#X obj 142 101 cnv 7 7 7 empty empty empty 20 12 0 12 #ffffff #404040 0;
#X coords 0 -1 1 1 50 24 2 100 100;
#X restore 571 118 pd \$0.gop;
#N canvas 1802 443 450 300 \$0.gop 0;
#X obj 100 100 nbx 2 24 0 64 0 0 \$0.in.ch.s \$0.in.ch.r empty 0 14 0 20 #ffffff #aaaaaa #000000 0 256;
#X obj 101 101 cnv 10 11 22 empty empty empty 20 12 0 12 #ffffff #404040 0;
#X obj 142 101 cnv 7 7 7 empty empty empty 20 12 0 12 #ffffff #404040 0;
#X coords 0 -1 1 1 50 24 2 100 100;
#X restore 571 84 pd \$0.gop;
#X obj 622 84 cnv 19 28 24 empty empty CH 5 12 0 16 #e0e0e0 #000000 0;
#X obj 498 46 hsl 19 24 0 127 0 0 \$0.callback.check \$0.callback.check ✓ -2 12 0 40 #ffffff #ffffff #000000 0 1;
#X obj 520 46 cnv 19 130 24 empty empty Use\ callbacks 5 12 0 16 #e0e0e0 #000000 0;
#N canvas 1802 443 450 300 \$0.gop 0;
#X obj 100 100 nbx 4 24 0 2048 0 0 \$0.audiobuf.s \$0.audiobuf.r empty 0 -10 0 20 #ffffff #aaaaaa #aaaaaa 0 256;
#X obj 101 101 cnv 10 11 22 empty empty empty 20 12 0 12 #ffffff #404040 0;
#X obj 176 101 cnv 7 7 7 empty empty empty 20 12 0 12 #ffffff #404040 0;
#X coords 0 -1 1 1 84 24 2 100 100;
#X restore 289 46 pd \$0.gop;
#X obj 374 46 cnv 19 110 24 empty empty ms\ (buffer) 5 12 0 16 #e0e0e0 #000000 0;
#X obj 6 10 cnv 19 644 24 empty empty Audio\ Backend\ Settings 5 12 0 20 #7c7c7c #ffffff 0;
#X obj 11 47 hsl 75 24 0 127 0 0 \$0.be.jack.click empty empty -2 -10 0 12 #fcfcfc #000000 #000000 0 1;
#X obj 92 47 hsl 185 24 0 127 0 0 \$0.be.coreaudio.click empty empty -2 -10 0 12 #fcfcfc #000000 #000000 0 1;
#X obj 8 47 cnv 19 80 24 empty \$0.be.jack.label JACK✓ 5 12 0 20 #e0e0e0 #b00000 0;
#X obj 89 47 cnv 19 190 24 empty \$0.be.coreaudio.label CoreAudio/ALSA 5 12 0 20 #f0f0f0 #aaaaaa 0;
#X obj 57 84 tpf-gui-dropdown \$0.audio.in.drop 500 24 16 0 0 777 0 686 787;
#X obj 57 118 tpf-gui-dropdown \$0.audio.out.drop 500 24 16 0 0 777 0 686 787;
#X obj 622 118 cnv 19 28 24 empty empty CH 5 12 0 16 #e0e0e0 #000000 0;
#N canvas 1221 516 456 299 callback 0;
#X obj 7 31 route float;
#X obj 7 54 sel 0;
#X obj 7 76 ==;
#X obj 50 54 t a;
#X msg 7 188 symbol ✓;
#X obj 7 146 sel 1 0;
#X msg 26 168 symbol empty;
#X msg 7 211 label \$1;
#X obj 7 8 r \$0.callback.check;
#X obj 7 234 s \$0.callback.check;
#X obj 35 75 r \$1.be.callback;
#X obj 7 101 s \$1.be.callback;
#X obj 7 123 r \$1.be.callback;
#X connect 0 0 1 0;
#X connect 1 0 2 0;
#X connect 1 1 3 0;
#X connect 2 0 11 0;
#X connect 3 0 1 1;
#X connect 4 0 7 0;
#X connect 5 0 4 0;
#X connect 5 1 6 0;
#X connect 6 0 7 0;
#X connect 7 0 9 0;
#X connect 8 0 0 0;
#X connect 10 0 2 1;
#X connect 12 0 5 0;
#X restore 676 64 pd callback;
#N canvas 1092 518 456 299 audiobuf 0;
#X obj 10 102 s \$1.be.audiobuf;
#X obj 243 24 r \$1.be.audiobuf;
#X obj 81 50 r \$1.be.callback;
#X obj 243 265 s \$0.audiobuf.r;
#X msg 243 238 set \$1;
#X obj 10 22 r \$0.audiobuf.s;
#X obj 10 74 spigot 1;
#X obj 81 74 == 0;
#X obj 321 66 r \$1.be.callback;
#X obj 243 144 list prepend;
#X obj 243 168 route 0 1;
#X msg 273 192 0;
#X obj 243 96 f;
#X obj 321 92 t b a;
#X obj 9 263 s \$0.audiobuf.r;
#X obj 9 131 r \$1.be.callback;
#X msg 32 184 list #ffffff #000000;
#X msg 9 205 list #ffffff #aaaaaa;
#X msg 9 236 color \$1 \$2;
#X obj 9 155 sel 1 0;
#X connect 1 0 12 0;
#X connect 2 0 7 0;
#X connect 4 0 3 0;
#X connect 5 0 6 0;
#X connect 6 0 0 0;
#X connect 7 0 6 1;
#X connect 8 0 13 0;
#X connect 9 0 10 0;
#X connect 10 0 4 0;
#X connect 10 1 11 0;
#X connect 11 0 4 0;
#X connect 12 0 9 0;
#X connect 13 0 12 0;
#X connect 13 1 9 1;
#X connect 15 0 19 0;
#X connect 16 0 18 0;
#X connect 17 0 18 0;
#X connect 18 0 14 0;
#X connect 19 0 17 0;
#X connect 19 1 16 0;
#X restore 676 88 pd audiobuf;
#N canvas 1092 518 565 381 input.channels 0;
#X msg 243 317 set \$1;
#X obj 10 74 spigot 1;
#X obj 81 74 == 0;
#X obj 243 223 list prepend;
#X obj 243 247 route 0 1;
#X obj 243 175 f;
#X obj 321 171 t b a;
#X msg 41 245 list #ffffff #000000;
#X msg 18 266 list #ffffff #aaaaaa;
#X msg 18 297 color \$1 \$2;
#X obj 18 216 sel 1 0;
#X obj 243 344 s \$0.in.ch.r;
#X obj 10 22 r \$0.in.ch.s;
#X obj 18 324 s \$0.in.ch.r;
#X obj 10 102 s \$1.be.input.channels;
#X obj 243 24 r \$1.be.input.channels;
#X obj 321 46 r \$1.be.type;
#X obj 321 90 select JACK;
#X msg 321 114 1;
#X msg 395 114 0;
#X obj 371 227 r \$0.jack.channels;
#X obj 268 292 f;
#X msg 371 250 \$1;
#X obj 268 271 b;
#X connect 0 0 11 0;
#X connect 1 0 14 0;
#X connect 2 0 1 1;
#X connect 3 0 4 0;
#X connect 4 0 0 0;
#X connect 4 1 23 0;
#X connect 5 0 3 0;
#X connect 6 0 5 0;
#X connect 6 1 3 1;
#X connect 6 1 2 0;
#X connect 6 1 10 0;
#X connect 7 0 9 0;
#X connect 8 0 9 0;
#X connect 9 0 13 0;
#X connect 10 0 8 0;
#X connect 10 1 7 0;
#X connect 12 0 1 0;
#X connect 15 0 5 0;
#X connect 16 0 17 0;
#X connect 17 0 18 0;
#X connect 17 1 19 0;
#X connect 18 0 6 0;
#X connect 19 0 6 0;
#X connect 20 0 22 0;
#X connect 21 0 0 0;
#X connect 22 0 21 1;
#X connect 23 0 21 0;
#X restore 676 112 pd input.channels;
#N canvas 1092 518 565 381 output.channels 0;
#X msg 243 317 set \$1;
#X obj 10 74 spigot 1;
#X obj 81 74 == 0;
#X obj 243 223 list prepend;
#X obj 243 247 route 0 1;
#X obj 243 175 f;
#X obj 321 171 t b a;
#X msg 41 245 list #ffffff #000000;
#X msg 18 266 list #ffffff #aaaaaa;
#X msg 18 297 color \$1 \$2;
#X obj 18 216 sel 1 0;
#X obj 321 46 r \$1.be.type;
#X obj 321 90 select JACK;
#X msg 321 114 1;
#X msg 395 114 0;
#X obj 10 22 r \$0.out.ch.s;
#X obj 10 102 s \$1.be.output.channels;
#X obj 18 324 s \$0.out.ch.r;
#X obj 243 24 r \$1.be.output.channels;
#X obj 243 344 s \$0.out.ch.r;
#X obj 371 227 r \$0.jack.channels;
#X obj 268 293 f;
#X msg 371 250 \$2;
#X obj 268 270 b;
#X connect 0 0 19 0;
#X connect 1 0 16 0;
#X connect 2 0 1 1;
#X connect 3 0 4 0;
#X connect 4 0 0 0;
#X connect 4 1 23 0;
#X connect 5 0 3 0;
#X connect 6 0 5 0;
#X connect 6 1 3 1;
#X connect 6 1 2 0;
#X connect 6 1 10 0;
#X connect 7 0 9 0;
#X connect 8 0 9 0;
#X connect 9 0 17 0;
#X connect 10 0 8 0;
#X connect 10 1 7 0;
#X connect 11 0 12 0;
#X connect 12 0 13 0;
#X connect 12 1 14 0;
#X connect 13 0 6 0;
#X connect 14 0 6 0;
#X connect 15 0 1 0;
#X connect 18 0 5 0;
#X connect 20 0 22 0;
#X connect 21 0 0 0;
#X connect 22 0 21 1;
#X connect 23 0 21 0;
#X restore 676 137 pd output.channels;
#N canvas 508 61 476 416 type 0;
#X obj 9 13 r \$0.be.jack.click;
#X obj 146 10 r \$0.be.coreaudio.click;
#X obj 146 34 sel 0;
#X obj 191 35 t a;
#X obj 9 36 sel 0;
#X obj 54 37 t a;
#X msg 9 60 symbol JACK;
#X msg 146 58 symbol CoreAudio;
#X obj 19 155 select JACK;
#X msg 19 200 symbol JACK✓;
#X msg 93 180 symbol JACK;
#X obj 19 350 s \$0.be.jack.label;
#X msg 19 247 label \$1;
#X msg 248 251 label \$1;
#X obj 248 159 select CoreAudio;
#X obj 248 358 s \$0.be.coreaudio.label;
#X msg 248 209 symbol CoreAudio/ALSA✓;
#X msg 322 186 symbol CoreAudio/ALSA;
#X msg 93 267 list #f0f0f0 #aaaaaa;
#X msg 68 318 color \$1 #000000 \$2;
#X msg 294 278 list #f0f0f0 #aaaaaa;
#X msg 269 329 color \$1 #000000 \$2;
#X msg 67 291 list #e0e0e0 #b00000;
#X msg 268 302 list #e0e0e0 #b00000;
#X obj 9 86 s \$1.be.type;
#X obj 19 130 r \$1.be.type;
#X obj 248 129 r \$1.be.type;
#X connect 0 0 4 0;
#X connect 1 0 2 0;
#X connect 2 0 7 0;
#X connect 2 1 3 0;
#X connect 3 0 2 1;
#X connect 4 0 6 0;
#X connect 4 1 5 0;
#X connect 5 0 4 1;
#X connect 6 0 24 0;
#X connect 7 0 24 0;
#X connect 8 0 9 0;
#X connect 8 0 22 0;
#X connect 8 1 10 0;
#X connect 8 1 18 0;
#X connect 9 0 12 0;
#X connect 10 0 12 0;
#X connect 12 0 11 0;
#X connect 13 0 15 0;
#X connect 14 0 16 0;
#X connect 14 0 23 0;
#X connect 14 1 17 0;
#X connect 14 1 20 0;
#X connect 16 0 13 0;
#X connect 17 0 13 0;
#X connect 18 0 19 0;
#X connect 19 0 11 0;
#X connect 20 0 21 0;
#X connect 21 0 15 0;
#X connect 22 0 19 0;
#X connect 23 0 21 0;
#X connect 25 0 8 0;
#X connect 26 0 14 0;
#X restore 676 162 pd type;
#N canvas 102 99 947 342 devices 0;
#X obj 20 40 r \$1.be.type;
#X obj 20 70 select JACK;
#X obj 20 181 s \$0.audio.in.drop;
#X obj 29 158 s \$0.audio.out.drop;
#X obj 67 282 text define \$0.indev;
#X obj 75 259 text define \$0.outdev;
#X msg 67 233 clear;
#X obj 20 93 t b b b;
#X msg 20 119 items JACK \, setlabel JACK;
#N canvas 604 439 507 439 enumerate.devices 0;
#X obj 100 137 audiosettings;
#X obj 100 162 route device;
#X obj 100 186 route in out;
#X obj 59 245 route devices;
#X msg 58 277 append \$2;
#X obj 58 303 list store;
#X obj 15 239 t b b;
#X obj 58 401 s \$0.audio.in.drop;
#X obj 58 376 list trim;
#X obj 58 342 list prepend items;
#X obj 243 240 route devices;
#X msg 242 265 append \$2;
#X obj 242 298 list store;
#X obj 242 371 list trim;
#X obj 242 337 list prepend items;
#X obj 242 396 s \$0.audio.out.drop;
#X obj 128 319 text set \$0.indev;
#X msg 166 295 1e+06;
#X msg 392 291 1e+06;
#X obj 354 315 text set \$0.outdev;
#X obj 128 271 t a b;
#X obj 354 267 t a b;
#X obj 56 44 t b b;
#X obj 57 11 inlet;
#X msg 100 93 listdevices;
#X connect 0 0 1 0;
#X connect 1 0 2 0;
#X connect 2 0 3 0;
#X connect 2 1 10 0;
#X connect 3 1 4 0;
#X connect 3 1 20 0;
#X connect 4 0 5 0;
#X connect 5 0 9 0;
#X connect 6 0 5 1;
#X connect 6 0 12 1;
#X connect 6 1 5 0;
#X connect 6 1 12 0;
#X connect 8 0 7 0;
#X connect 9 0 8 0;
#X connect 10 1 11 0;
#X connect 10 1 21 0;
#X connect 11 0 12 0;
#X connect 12 0 14 0;
#X connect 13 0 15 0;
#X connect 14 0 13 0;
#X connect 17 0 16 1;
#X connect 18 0 19 1;
#X connect 20 0 16 0;
#X connect 20 1 17 0;
#X connect 21 0 19 0;
#X connect 21 1 18 0;
#X connect 22 0 6 0;
#X connect 22 1 24 0;
#X connect 23 0 22 0;
#X connect 24 0 0 0;
#X restore 243 123 pd enumerate.devices;
#X obj 224 97 t b b b;
#X obj 224 209 list append empty;
#X obj 282 162 r \$1.be.input.device;
#X obj 415 164 r \$1.be.output.device;
#X obj 224 170 t b b;
#X obj 224 149 del 0;
#X obj 346 212 list append empty;
#X obj 224 266 s \$0.audio.in.drop;
#X obj 346 267 s \$0.audio.out.drop;
#X msg 224 239 setlabel \$1;
#X msg 346 238 setlabel \$1;
#X text 24 14 JACK;
#X text 222 17 CoreAudio / ALSA;
#X obj 565 218 s \$0.audio.in.drop;
#X obj 592 196 s \$0.audio.out.drop;
#X obj 565 173 t a a;
#X msg 604 136 items_background_color 887 \, items_box_color 665 \, selected_background_color 888;
#X obj 604 113 loadbang;
#X msg 565 91 selected_text_color \$1;
#X msg 628 56 0;
#X msg 565 57 555;
#X obj 565 12 r \$1.be.type;
#X obj 565 34 select JACK;
#X obj 224 44 inlet;
#X connect 0 0 1 0;
#X connect 1 0 7 0;
#X connect 6 0 4 0;
#X connect 6 0 5 0;
#X connect 7 0 8 0;
#X connect 7 2 6 0;
#X connect 8 0 2 0;
#X connect 8 0 3 0;
#X connect 10 0 15 0;
#X connect 10 1 9 0;
#X connect 10 2 6 0;
#X connect 11 0 19 0;
#X connect 12 0 11 1;
#X connect 13 0 16 1;
#X connect 14 0 11 0;
#X connect 14 1 16 0;
#X connect 15 0 14 0;
#X connect 16 0 20 0;
#X connect 19 0 17 0;
#X connect 20 0 18 0;
#X connect 25 0 23 0;
#X connect 25 1 24 0;
#X connect 26 0 25 0;
#X connect 27 0 26 0;
#X connect 28 0 25 0;
#X connect 29 0 28 0;
#X connect 30 0 28 0;
#X connect 31 0 32 0;
#X connect 32 0 30 0;
#X connect 32 1 29 0;
#X connect 33 0 10 0;
#X restore 700 277 pd devices;
#N canvas 1475 182 547 548 device.selection 0;
#X obj 8 14 r \$0.audio.in.drop;
#X obj 8 38 route selected;
#X obj 8 62 list;
#X obj 8 249 text search \$0.indev 1;
#X obj 211 48 route selected;
#X obj 211 72 list;
#X obj 211 24 r \$0.audio.out.drop;
#X obj 211 249 text search \$0.outdev 1;
#X msg 8 421 params @input \$1 \$2;
#X msg 211 413 params @output \$1 \$2;
#X obj 8 87 spigot 1;
#X obj 211 96 spigot 1;
#X obj 446 30 r \$1.be.type;
#X obj 446 53 select JACK;
#X msg 446 76 0;
#X msg 480 75 1;
#X obj 446 99 t a;
#X obj 276 298 change 0;
#X obj 8 112 s \$1.be.input.device;
#X obj 211 119 s \$1.be.output.device;
#X obj 8 161 r \$1.be.input.device;
#X obj 211 162 r \$1.be.output.device;
#X obj 211 271 sel -1;
#X obj 211 296 t a b;
#X obj 73 308 change 0;
#X obj 8 281 sel -1;
#X obj 8 306 t a b;
#X obj 146 111 inlet;
#N canvas 607 181 358 217 when.ready 0;
#X obj 54 24 inlet;
#X obj 25 99 list append;
#X obj 25 74 t b b;
#X obj 25 142 spigot 0;
#X msg 70 120 1;
#X obj 7 22 inlet;
#X obj 25 167 outlet;
#X connect 0 0 2 0;
#X connect 1 0 3 0;
#X connect 2 0 1 0;
#X connect 2 1 4 0;
#X connect 3 0 6 0;
#X connect 4 0 3 1;
#X connect 5 0 1 1;
#X connect 5 0 3 0;
#X restore 8 215 pd when.ready;
#N canvas 607 181 358 217 when.ready 0;
#X obj 54 24 inlet;
#X obj 25 99 list append;
#X obj 25 74 t b b;
#X obj 25 142 spigot 0;
#X msg 70 120 1;
#X obj 7 22 inlet;
#X obj 25 167 outlet;
#X connect 0 0 2 0;
#X connect 1 0 3 0;
#X connect 2 0 1 0;
#X connect 2 1 4 0;
#X connect 3 0 6 0;
#X connect 4 0 3 1;
#X connect 5 0 1 1;
#X connect 5 0 3 0;
#X restore 211 212 pd when.ready;
#X obj 73 285 r \$1.be.input.channels;
#X obj 276 275 r \$1.be.output.channels;
#N canvas 607 181 358 217 when.ready 0;
#X obj 54 24 inlet;
#X obj 25 99 list append;
#X obj 25 74 t b b;
#X obj 25 142 spigot 0;
#X msg 70 120 1;
#X obj 7 22 inlet;
#X obj 25 167 outlet;
#X connect 0 0 2 0;
#X connect 1 0 3 0;
#X connect 2 0 1 0;
#X connect 2 1 4 0;
#X connect 3 0 6 0;
#X connect 4 0 3 1;
#X connect 5 0 1 1;
#X connect 5 0 3 0;
#X restore 276 332 pd when.ready;
#X obj 211 383 pack f f;
#X obj 276 355 t b a;
#N canvas 607 181 358 217 when.ready 0;
#X obj 54 24 inlet;
#X obj 25 99 list append;
#X obj 25 74 t b b;
#X obj 25 142 spigot 0;
#X msg 70 120 1;
#X obj 7 22 inlet;
#X obj 25 167 outlet;
#X connect 0 0 2 0;
#X connect 1 0 3 0;
#X connect 2 0 1 0;
#X connect 2 1 4 0;
#X connect 3 0 6 0;
#X connect 4 0 3 1;
#X connect 5 0 1 1;
#X connect 5 0 3 0;
#X restore 73 341 pd when.ready;
#X obj 8 392 pack f f;
#X obj 73 364 t b a;
#X obj 8 184 symbol;
#X obj 211 185 symbol;
#X obj 146 134 t b b;
#X obj 8 482 s \$0.to.audiosettings;
#X obj 8 458 t a;
#X connect 0 0 1 0;
#X connect 1 0 2 0;
#X connect 2 0 10 0;
#X connect 3 0 25 0;
#X connect 4 0 5 0;
#X connect 5 0 11 0;
#X connect 6 0 4 0;
#X connect 7 0 22 0;
#X connect 8 0 42 0;
#X connect 9 0 42 0;
#X connect 10 0 18 0;
#X connect 11 0 19 0;
#X connect 12 0 13 0;
#X connect 13 0 14 0;
#X connect 13 1 15 0;
#X connect 14 0 16 0;
#X connect 15 0 16 0;
#X connect 16 0 11 1;
#X connect 16 0 10 1;
#X connect 17 0 32 0;
#X connect 20 0 38 0;
#X connect 21 0 39 0;
#X connect 22 1 23 0;
#X connect 23 0 33 0;
#X connect 23 1 32 1;
#X connect 24 0 35 0;
#X connect 25 1 26 0;
#X connect 26 0 36 0;
#X connect 26 1 35 1;
#X connect 27 0 40 0;
#X connect 28 0 3 0;
#X connect 29 0 7 0;
#X connect 30 0 24 0;
#X connect 31 0 17 0;
#X connect 32 0 34 0;
#X connect 33 0 9 0;
#X connect 34 0 33 0;
#X connect 34 1 33 1;
#X connect 35 0 37 0;
#X connect 36 0 8 0;
#X connect 37 0 36 0;
#X connect 37 1 36 1;
#X connect 38 0 28 0;
#X connect 39 0 29 0;
#X connect 40 0 28 1;
#X connect 40 0 29 1;
#X connect 40 1 38 0;
#X connect 40 1 39 0;
#X connect 42 0 41 0;
#X restore 673 300 pd device.selection;
#N canvas 934 49 584 622 start.backend 0;
#X obj 169 148 r \$1.maxrows;
#X obj 124 125 r \$1.maxchannels;
#X obj 124 176 pack f f;
#X msg 167 223 \$1 \$2;
#X obj 167 246 *;
#X obj 167 269 + 1;
#X msg 124 299 \$1;
#X obj 124 199 t a a b, f 15;
#X text 127 105 set input and output channels for JACK;
#X obj 167 296 min 128;
#X msg 37 233 driver jack;
#X obj 109 370 f;
#X obj 109 394 spigot 0;
#X obj 37 281 t b a;
#X msg 154 371 1;
#X obj 109 334 t b b, f 8;
#X obj 139 468 r \$1.be.audiobuf;
#X obj 147 519 r \$1.be.callback;
#X obj 37 36 r \$1.be.type;
#X obj 109 417 pack f f, f 10;
#X msg 139 492 params @advance \$1;
#X obj 37 165 select JACK;
#X msg 109 442 params @input 0 \$1 @output 0 \$2;
#X obj 117 36 r \$1.start.audio.backend;
#X obj 396 233 t b b;
#X obj 396 307 outlet;
#N canvas 607 181 358 217 when.ready 0;
#X obj 54 24 inlet;
#X obj 25 99 list append;
#X obj 25 74 t b b;
#X obj 25 142 spigot 0;
#X msg 70 120 1;
#X obj 7 22 inlet;
#X obj 25 167 outlet;
#X connect 0 0 2 0;
#X connect 1 0 3 0;
#X connect 2 0 1 0;
#X connect 2 1 4 0;
#X connect 3 0 6 0;
#X connect 4 0 3 1;
#X connect 5 0 1 1;
#X connect 5 0 3 0;
#X restore 37 74 pd when.ready;
#X obj 64 581 s \$0.to.audiosettings;
#X obj 423 281 s \$0.to.audiosettings;
#X msg 423 258 driver ALSA;
#X msg 147 544 params @callback \$1;
#X obj 252 343 pack f f;
#X obj 252 366 s \$0.jack.channels;
#X connect 0 0 2 1;
#X connect 1 0 2 0;
#X connect 2 0 7 0;
#X connect 3 0 4 0;
#X connect 4 0 5 0;
#X connect 5 0 9 0;
#X connect 6 0 11 1;
#X connect 6 0 31 0;
#X connect 7 0 6 0;
#X connect 7 1 3 0;
#X connect 9 0 19 1;
#X connect 9 0 31 1;
#X connect 10 0 13 0;
#X connect 11 0 12 0;
#X connect 12 0 19 0;
#X connect 13 0 15 0;
#X connect 13 1 27 0;
#X connect 14 0 12 1;
#X connect 15 0 11 0;
#X connect 15 1 14 0;
#X connect 16 0 20 0;
#X connect 17 0 30 0;
#X connect 18 0 26 0;
#X connect 19 0 22 0;
#X connect 20 0 27 0;
#X connect 21 0 10 0;
#X connect 21 1 24 0;
#X connect 22 0 27 0;
#X connect 23 0 26 1;
#X connect 24 0 25 0;
#X connect 24 1 29 0;
#X connect 26 0 21 0;
#X connect 29 0 28 0;
#X connect 30 0 27 0;
#X connect 31 0 32 0;
#X restore 673 232 pd start.backend;
#X obj 673 255 t b b;
#N canvas 1442 336 396 199 audiosettings 0;
#X obj 11 12 r \$0.to.audiosettings;
#X obj 11 62 t a a;
#X obj 11 123 audiosettings;
#N canvas 910 229 450 300 suppress.callback.on.changes 0;
#X obj 20 34 inlet;
#X obj 84 237 outlet;
#X obj 35 84 r \$1.be.callback;
#X obj 20 57 t b a b, f 22;
#X obj 20 109 f;
#X msg 149 169 params @callback \$1;
#X msg 149 109 0;
#X connect 0 0 3 0;
#X connect 2 0 4 1;
#X connect 3 0 4 0;
#X connect 3 1 1 0;
#X connect 3 2 6 0;
#X connect 4 0 5 0;
#X connect 5 0 1 0;
#X connect 6 0 5 0;
#X restore 11 37 pd suppress.callback.on.changes;
#X obj 38 95 print AUDIOSETTINGS;
#X connect 0 0 3 0;
#X connect 1 0 2 0;
#X connect 3 0 1 0;
#X restore 673 327 pd audiosettings;
#N canvas 1292 574 381 120 backend.label 0;
#X obj 44 72 s \$1.backend.label;
#X msg 44 49 label Using\\\ \$1;
#X obj 44 23 r \$1.be.type;
#X connect 1 0 0 0;
#X connect 2 0 1 0;
#X restore 676 186 pd backend.label;
#X connect 27 0 28 0;
#X connect 28 0 26 0;
#X connect 28 1 25 0;
#X coords 0 -1 1 1 660 480 2 0 0;
