#N canvas 211 155 345 444 10;
#X obj 20 20 cnv 32 32 32 empty \$0.led.r \$2 21 10 0 14 -233017 -262144
0;
#X obj 68 385 s \$0.led.r;
#X msg 68 365 color \$1 0 30;
#X obj 68 154 max 0;
#X obj 68 245 << 8;
#X obj 68 271 * -1;
#X obj 68 292 - 1;
#X obj 68 222 * 255;
#X obj 68 132 - 30;
#X obj 68 176 min 40;
#X obj 68 198 / 40;
#X obj 68 62 env~ 1024 1024;
#X obj 189 88 r \$1.channels;
#X obj 228 158 switch~;
#X obj 189 108 > \$2;
#X msg 188 232 10;
#X obj 189 209 sel 0;
#X obj 68 329 change 11;
#X obj 198 9 loadbang;
#X obj 198 29 f \$2;
#X msg 198 69 set \$1;
#X obj 69 38 adc~;
#X obj 198 49 + 1;
#X obj 189 131 t a a a;
#X obj 68 85 spigot;
#X connect 2 0 1 0;
#X connect 3 0 9 0;
#X connect 4 0 5 0;
#X connect 5 0 6 0;
#X connect 6 0 17 0;
#X connect 7 0 4 0;
#X connect 8 0 3 0;
#X connect 9 0 10 0;
#X connect 10 0 7 0;
#X connect 11 0 24 0;
#X connect 12 0 14 0;
#X connect 14 0 23 0;
#X connect 15 0 17 0;
#X connect 16 0 15 0;
#X connect 17 0 2 0;
#X connect 18 0 19 0;
#X connect 19 0 22 0;
#X connect 20 0 21 0;
#X connect 21 0 11 0;
#X connect 22 0 20 0;
#X connect 23 0 16 0;
#X connect 23 1 24 1;
#X connect 23 2 13 0;
#X connect 24 0 8 0;
#X coords 0 -1 1 1 32 32 2 20 20;
