#N canvas 817 26 409 236 10;
#N canvas 345 162 994 772 peer.assignment 0;
#X obj 8 50 loadbang;
#X msg 8 73 symbol empty;
#X text 7 15 === init peer ===;
#X obj 8 96 s \$3.peer.name;
#X obj 600 45 r \$3.swap.request;
#X obj 625 67 r \$3.peer.name;
#X obj 600 141 s \$1.intercom;
#X text 593 16 === swap peer link ===;
#X text 725 45 ----- REQUEST ---------;
#X obj 601 174 r \$1.intercom;
#X obj 601 197 route peer_swap_request;
#X obj 601 257 route \$2;
#X obj 601 220 spigot;
#X msg 670 326 \$2;
#X obj 716 295 r \$3.peer.name;
#X obj 670 395 s \$1.intercom;
#X text 715 174 ----- HANDLE REQUEST ---------;
#X text 713 275 ----- RESPONSE ---------;
#X obj 867 464 s \$3.peer.name;
#X text 715 507 ----- HANDLE RESPONSE ---------;
#X msg 867 441 symbol \$1;
#X obj 601 280 list;
#X obj 601 510 r \$1.intercom;
#X obj 601 533 route peer_swap_response;
#X obj 601 556 route \$2;
#X obj 814 654 s \$3.peer.name;
#X obj 181 49 r \$1.intercom;
#X obj 181 72 route peer_reclaim;
#X obj 181 95 list;
#X msg 208 164 peer_reclaimed;
#X obj 208 187 s \$1.intercom;
#X obj 9 122 loadbang;
#X obj 9 168 s \$3.peer.state;
#X msg 9 145 0;
#X text 12 192 states:;
#X text 12 202 =======;
#X text 12 222 0: offline;
#X text 12 242 1: online;
#X obj 219 118 r \$3.peer.name;
#X obj 181 118 sel -;
#X obj 181 232 s \$3.peer.state;
#X obj 181 141 t b b;
#X msg 181 208 1;
#X obj 346 48 r \$1.intercom;
#X obj 346 71 route peer_new;
#X obj 392 166 r \$3.peer.name;
#X obj 346 193 sel empty, f 23;
#X obj 346 115 list;
#X obj 373 240 symbol;
#X obj 346 216 t b b;
#X obj 373 263 s \$3.peer.name;
#X obj 346 310 s \$3.peer.state;
#X msg 346 286 1;
#X text 181 16 === reclaim ==========;
#X text 347 17 === grab ================;
#X obj 346 94 route \$2;
#X obj 346 138 t b a, f 12;
#X obj 346 167 symbol;
#X obj 481 221 b;
#X obj 481 248 symbol;
#X obj 481 271 t b a;
#X obj 481 294 f \$2;
#X obj 481 317 + 1;
#X obj 481 340 list append;
#X msg 481 363 peer_new \$1 \$2;
#X obj 481 386 s \$1.intercom;
#X text 203 375 === leave ==========;
#X obj 207 401 r \$1.intercom;
#X obj 207 424 route peer_leave;
#X obj 221 617 r \$1.intercom;
#X obj 221 640 route peer_leave_all;
#X obj 221 685 s \$3.peer.state;
#X msg 221 662 0;
#X obj 207 475 route -;
#X obj 246 449 r \$3.peer.name;
#X obj 207 571 s \$3.peer.state;
#X msg 207 548 0;
#X obj 717 65 r \$3.peer.state;
#X obj 807 295 r \$3.peer.state;
#X msg 765 439 \$3;
#X obj 765 462 s \$3.peer.state;
#X obj 601 579 list;
#X msg 814 632 symbol \$1;
#X msg 717 631 \$2;
#X obj 717 654 s \$3.peer.state;
#X obj 601 303 t a a a, f 12;
#X obj 394 459 r \$3.client.reset;
#X obj 394 482 sel;
#X obj 423 483 t a;
#X obj 394 505 f;
#X obj 423 505 r \$3.peer.state;
#X obj 394 528 sel 0;
#X text 396 427 === reset ==========;
#X msg 393 659 symbol empty;
#X obj 393 682 s \$3.peer.name;
#X obj 394 576 del 300;
#X msg 394 610 0;
#X obj 394 551 t b b b;
#X msg 478 580 1;
#X obj 433 627 t a b;
#X obj 433 604 spigot 0;
#X obj 207 499 t a b;
#X obj 234 548 s \$0.remove.by.address;
#X msg 234 523 1;
#X text 12 262 2: streaming;
#X obj 817 65 r \$3.recvbuf;
#X obj 896 64 r \$3.delay;
#X text 742 136 dst peername src state recvb del;
#X msg 600 118 peer_swap_request \$1 \$2 \$3 \$4 \$5 \$6;
#X obj 600 95 pack f s \$2 f f f;
#X obj 670 349 pack f s f f f, f 16;
#X obj 773 321 r \$3.recvbuf;
#X obj 852 320 r \$3.delay;
#X msg 670 372 peer_swap_response \$1 \$2 \$3 \$4 \$5;
#X obj 601 603 t a a a a, f 36;
#X text 771 393 dst peername state recvb del;
#X msg 672 629 \$3;
#X msg 601 626 \$4;
#X obj 672 679 s \$3.recvbuf;
#X obj 601 651 s \$3.delay;
#X obj 601 415 t a a a a, f 47;
#X msg 677 438 \$4;
#X obj 677 461 s \$3.recvbuf;
#X msg 601 438 \$5;
#X obj 601 461 s \$3.delay;
#X obj 17 322 r \$3.aoo.link.status;
#X obj 17 398 s \$3.peer.state;
#X msg 17 375 2;
#X obj 18 430 r \$3.aoo.link.status;
#X obj 18 454 sel 0;
#X obj 18 477 f;
#X obj 57 486 r \$3.peer.state;
#X obj 18 500 sel 2;
#X msg 18 523 1;
#X obj 18 549 s \$3.peer.state;
#X obj 17 346 sel 7;
#X obj 669 221 r \$3.aoo.link.status;
#X obj 669 244 sel 5 6 7;
#X msg 669 267 0;
#X msg 698 268 1;
#X connect 0 0 1 0;
#X connect 1 0 3 0;
#X connect 4 0 109 0;
#X connect 5 0 109 1;
#X connect 9 0 10 0;
#X connect 10 0 12 0;
#X connect 11 0 21 0;
#X connect 12 0 11 0;
#X connect 13 0 110 0;
#X connect 14 0 110 1;
#X connect 20 0 18 0;
#X connect 21 0 85 0;
#X connect 22 0 23 0;
#X connect 23 0 24 0;
#X connect 24 0 81 0;
#X connect 26 0 27 0;
#X connect 27 0 28 0;
#X connect 28 0 39 0;
#X connect 29 0 30 0;
#X connect 31 0 33 0;
#X connect 33 0 32 0;
#X connect 38 0 39 1;
#X connect 39 0 41 0;
#X connect 41 0 42 0;
#X connect 41 1 29 0;
#X connect 42 0 40 0;
#X connect 43 0 44 0;
#X connect 44 0 55 0;
#X connect 45 0 57 1;
#X connect 46 0 49 0;
#X connect 46 1 58 0;
#X connect 47 0 56 0;
#X connect 48 0 50 0;
#X connect 49 0 52 0;
#X connect 49 1 48 0;
#X connect 52 0 51 0;
#X connect 55 0 47 0;
#X connect 56 0 57 0;
#X connect 56 1 48 1;
#X connect 56 1 59 1;
#X connect 57 0 46 0;
#X connect 58 0 59 0;
#X connect 59 0 60 0;
#X connect 60 0 61 0;
#X connect 60 1 63 1;
#X connect 61 0 62 0;
#X connect 62 0 63 0;
#X connect 63 0 64 0;
#X connect 64 0 65 0;
#X connect 67 0 68 0;
#X connect 68 0 73 0;
#X connect 69 0 70 0;
#X connect 70 0 72 0;
#X connect 72 0 71 0;
#X connect 73 0 101 0;
#X connect 74 0 73 1;
#X connect 76 0 75 0;
#X connect 77 0 109 3;
#X connect 78 0 110 2;
#X connect 79 0 80 0;
#X connect 81 0 114 0;
#X connect 82 0 25 0;
#X connect 83 0 84 0;
#X connect 85 0 120 0;
#X connect 85 2 13 0;
#X connect 86 0 87 0;
#X connect 87 0 89 0;
#X connect 87 1 88 0;
#X connect 88 0 87 1;
#X connect 89 0 91 0;
#X connect 90 0 89 1;
#X connect 91 0 97 0;
#X connect 93 0 94 0;
#X connect 95 0 96 0;
#X connect 96 0 100 1;
#X connect 97 0 95 0;
#X connect 97 1 98 0;
#X connect 97 2 100 0;
#X connect 98 0 100 1;
#X connect 99 0 93 0;
#X connect 99 1 96 0;
#X connect 100 0 99 0;
#X connect 101 0 76 0;
#X connect 101 1 103 0;
#X connect 103 0 102 0;
#X connect 105 0 109 4;
#X connect 106 0 109 5;
#X connect 108 0 6 0;
#X connect 109 0 108 0;
#X connect 110 0 113 0;
#X connect 111 0 110 3;
#X connect 112 0 110 4;
#X connect 113 0 15 0;
#X connect 114 0 117 0;
#X connect 114 1 116 0;
#X connect 114 2 83 0;
#X connect 114 3 82 0;
#X connect 116 0 118 0;
#X connect 117 0 119 0;
#X connect 120 0 123 0;
#X connect 120 1 121 0;
#X connect 120 2 79 0;
#X connect 120 3 20 0;
#X connect 121 0 122 0;
#X connect 123 0 124 0;
#X connect 125 0 135 0;
#X connect 127 0 126 0;
#X connect 128 0 129 0;
#X connect 129 0 130 0;
#X connect 130 0 132 0;
#X connect 131 0 130 1;
#X connect 132 0 133 0;
#X connect 133 0 134 0;
#X connect 135 0 127 0;
#X connect 136 0 137 0;
#X connect 137 0 138 0;
#X connect 137 1 138 0;
#X connect 137 2 138 0;
#X connect 137 3 139 0;
#X connect 138 0 12 1;
#X connect 139 0 12 1;
#X restore 13 42 pd peer.assignment;
#N canvas 373 371 1365 668 aoo.start.stop 0;
#X obj 25 70 r \$3.aoo.link.status;
#X obj 265 68 r \$3.tx.switch.s;
#X obj 293 91 r \$3.aoo.link.status;
#X obj 265 91 f;
#X obj 265 588 s \$3.aoo.link.status;
#X msg 265 566 0;
#X obj 265 148 t b b;
#X obj 265 545 del 0;
#X obj 265 114 sel 1 3 4 5 7;
#X obj 292 198 s \$0.to.peer;
#X obj 292 221 r \$0.from.peer;
#X obj 292 245 route stop;
#X obj 495 170 sel 0;
#X obj 495 148 r \$3.peer.state;
#X obj 523 194 r \$3.aoo.link.status;
#X obj 495 194 f;
#X text 26 29 ==== start streaming ============;
#X text 258 30 ==== stop streaming ============;
#X msg 292 174 dest stop \, bang;
#X obj 738 162 s \$3.receiving;
#X obj 728 409 s \$3.inchannels;
#X obj 495 217 sel 0;
#X obj 738 67 r \$3.from.aoo.r;
#X obj 728 304 r \$3.from.aoo.r;
#X text 733 32 ==== detect receiving ======;
#X text 730 268 ==== detect received channels ======;
#X obj 110 201 r \$3.peer.name;
#X obj 110 227 r \$3.peer.id;
#X obj 25 227 list append;
#X obj 110 174 r \$1.room;
#X obj 25 200 list append;
#X obj 25 174 symbol;
#X msg 44 301 add \$1 \$2 \$3;
#X obj 28 515 s \$3.to.aoo.r;
#X msg 28 492 port \$1;
#X obj 28 446 r \$1.send;
#X obj 28 469 route port;
#X obj 25 94 sel 7;
#X obj 52 140 s \$0.set.format;
#X obj 25 117 t b b;
#X obj 44 332 s \$1.to.aoo.s;
#X obj 520 242 b;
#X obj 64 276 s \$0.start;
#X obj 558 493 s \$1.to.aoo.s;
#X obj 549 531 r \$1.from.aoo.s;
#X obj 684 541 r \$1.to.aoo.s;
#X obj 684 600 print TO__AOO_SND_\$2;
#X msg 558 469 list_sinks;
#X obj 891 537 r \$3.from.aoo.r;
#X obj 1026 535 r \$3.to.aoo.r;
#X obj 1026 608 print TO__AOO_RCV_\$2;
#X obj 891 605 print FRM_AOO_RCV_\$2;
#X obj 652 492 s \$3.to.aoo.r;
#X msg 652 468 list_sources;
#X obj 549 599 print FRM_AOO_SND_\$2;
#X obj 549 565 spigot;
#X obj 684 571 spigot;
#X obj 891 571 spigot;
#X obj 1026 572 spigot;
#X obj 813 512 tgl 15 0 empty empty empty 17 7 0 10 #fcfcfc #000000 #000000 0 1;
#X obj 1188 572 spigot;
#X obj 1188 535 r \$1.receive;
#X obj 1188 608 print CLIENT_RCV;
#N canvas 903 638 450 300 disconnect.by.name 0;
#X obj 16 13 inlet;
#X obj 91 109 r \$3.peer.name;
#X obj 95 134 r \$3.peer.id;
#X obj 16 86 symbol;
#X obj 61 86 r \$1.room;
#X obj 16 109 list append;
#X obj 16 136 list append;
#X msg 16 164 remove \$1 \$2 \$3;
#X obj 16 194 s \$1.to.aoo.s;
#X connect 0 0 3 0;
#X connect 1 0 5 1;
#X connect 2 0 6 1;
#X connect 3 0 5 0;
#X connect 4 0 3 1;
#X connect 5 0 6 0;
#X connect 6 0 7 0;
#X connect 7 0 8 0;
#X restore 317 383 pd disconnect.by.name;
#X obj 25 251 t a a b;
#X obj 334 474 r \$3.peer.name;
#X obj 290 473 symbol;
#X msg 290 496 [\$1] sending stopped;
#X obj 290 519 s \$1.info;
#X obj 265 279 t b b, f 8;
#X obj 319 310 r \$3.aoo.link.status;
#X obj 290 309 f;
#X obj 290 332 sel 7;
#X obj 290 355 t b b;
#X obj 738 90 route state;
#X obj 738 113 list;
#X msg 738 136 \$4;
#X obj 728 337 route format;
#X obj 728 360 list;
#X msg 728 383 \$5;
#X connect 0 0 37 0;
#X connect 1 0 3 0;
#X connect 2 0 3 1;
#X connect 3 0 8 0;
#X connect 5 0 4 0;
#X connect 6 0 69 0;
#X connect 6 1 18 0;
#X connect 7 0 5 0;
#X connect 8 0 6 0;
#X connect 8 1 6 0;
#X connect 8 2 6 0;
#X connect 8 3 6 0;
#X connect 8 4 6 0;
#X connect 10 0 11 0;
#X connect 11 0 69 0;
#X connect 12 0 15 0;
#X connect 13 0 12 0;
#X connect 14 0 15 1;
#X connect 15 0 21 0;
#X connect 18 0 9 0;
#X connect 21 1 41 0;
#X connect 22 0 74 0;
#X connect 23 0 77 0;
#X connect 26 0 30 1;
#X connect 27 0 28 1;
#X connect 28 0 64 0;
#X connect 29 0 31 1;
#X connect 30 0 28 0;
#X connect 31 0 30 0;
#X connect 32 0 40 0;
#X connect 34 0 33 0;
#X connect 35 0 36 0;
#X connect 36 0 34 0;
#X connect 37 0 39 0;
#X connect 39 0 31 0;
#X connect 39 1 38 0;
#X connect 41 0 69 0;
#X connect 44 0 55 0;
#X connect 45 0 56 0;
#X connect 47 0 43 0;
#X connect 48 0 57 0;
#X connect 49 0 58 0;
#X connect 53 0 52 0;
#X connect 55 0 54 0;
#X connect 56 0 46 0;
#X connect 57 0 51 0;
#X connect 58 0 50 0;
#X connect 59 0 56 1;
#X connect 59 0 55 1;
#X connect 59 0 57 1;
#X connect 59 0 58 1;
#X connect 59 0 60 1;
#X connect 60 0 62 0;
#X connect 61 0 60 0;
#X connect 64 1 32 0;
#X connect 64 2 42 0;
#X connect 65 0 66 1;
#X connect 66 0 67 0;
#X connect 67 0 68 0;
#X connect 69 0 7 0;
#X connect 69 1 71 0;
#X connect 70 0 71 1;
#X connect 71 0 72 0;
#X connect 72 0 73 0;
#X connect 73 0 66 0;
#X connect 73 1 63 0;
#X connect 74 0 75 0;
#X connect 75 0 76 0;
#X connect 76 0 19 0;
#X connect 77 0 78 0;
#X connect 78 0 79 0;
#X connect 79 0 20 0;
#X restore 13 90 pd aoo.start.stop;
#X obj 237 24 loadbang;
#X msg 237 79 0;
#X obj 237 102 s \$3.aoo.link.status;
#X obj 245 50 r \$3.reset;
#N canvas 189 473 513 313 peer.com 0;
#X obj 297 59 r \$1.origin;
#X obj 235 32 r \$1.oscrecv;
#X obj 19 216 s \$1.oscsend;
#X obj 19 49 route dest;
#X obj 88 66 r \$3.peer.name;
#X obj 19 119 list prepend;
#X obj 88 91 list append tpf link;
#X obj 19 142 list prepend dest;
#X obj 19 165 list trim;
#X obj 46 88 list;
#X obj 132 143 r \$3.peer.state;
#X obj 132 167 > 0;
#X obj 19 190 spigot;
#X msg 297 82 symbol \$2;
#X obj 297 139 select ---;
#X obj 354 108 r \$3.peer.name;
#X msg 297 162 1;
#X msg 354 164 0;
#X obj 235 193 spigot;
#X obj 235 216 route tpf;
#X obj 235 239 route link;
#X obj 19 26 r \$0.to.peer;
#X obj 235 262 s \$0.from.peer;
#X connect 0 0 13 0;
#X connect 1 0 18 0;
#X connect 3 0 5 0;
#X connect 3 1 9 0;
#X connect 4 0 6 0;
#X connect 5 0 7 0;
#X connect 6 0 5 1;
#X connect 7 0 8 0;
#X connect 8 0 12 0;
#X connect 9 0 12 0;
#X connect 10 0 11 0;
#X connect 11 0 12 1;
#X connect 12 0 2 0;
#X connect 13 0 14 0;
#X connect 14 0 16 0;
#X connect 14 1 17 0;
#X connect 15 0 14 1;
#X connect 16 0 18 1;
#X connect 17 0 18 1;
#X connect 18 0 19 0;
#X connect 19 0 20 0;
#X connect 20 0 22 0;
#X connect 21 0 3 0;
#X restore 13 19 pd peer.com;
#N canvas 315 150 712 536 info 0;
#X obj 21 26 r \$3.from.aoo.r;
#X obj 100 309 s \$1.info;
#X obj 259 152 list;
#X msg 259 175 symbol \$2;
#X obj 100 261 list prepend, f 15;
#X obj 55 234 route pcm opus;
#X obj 55 457 s \$1.info;
#X obj 55 334 list prepend, f 15;
#X msg 100 286 [\$1] receiving opus format: ch=\$2 | fs=\$3 | sr=\$4 | type=\$5;
#X obj 55 357 t a a;
#X msg 118 361 \$5;
#X obj 118 384 * 8;
#X obj 55 407 list append;
#X msg 55 434 [\$1] receiving pcm format: ch=\$2 | bs=\$3 | sr=\$4 | \$6bit;
#X obj 55 189 list append;
#X obj 55 211 list trim;
#X obj 55 76 route start format stop;
#X obj 318 331 b;
#X obj 318 401 s \$1.info;
#X msg 318 378 [\$1] receiving stopped;
#X obj 466 209 s \$1.info;
#X obj 481 82 r \$3.peer.name;
#X obj 433 81 symbol;
#X obj 433 115 text search \$1.peer.address;
#X obj 433 138 sel -1;
#X obj 466 163 text get \$1.peer.address;
#X obj 433 33 r \$3.aoo.link.status;
#X obj 433 56 sel 7;
#X msg 466 186 [\$1] peer address: \$2 \$3;
#X obj 407 354 r \$3.peer.name;
#X obj 318 354 symbol, f 13;
#X obj 94 155 list split 3;
#X obj 55 104 t b a;
#X text 325 175 peer nanme;
#X connect 0 0 16 0;
#X connect 2 0 3 0;
#X connect 3 0 4 1;
#X connect 3 0 7 1;
#X connect 4 0 8 0;
#X connect 5 0 7 0;
#X connect 5 1 4 0;
#X connect 7 0 9 0;
#X connect 8 0 1 0;
#X connect 9 0 12 0;
#X connect 9 1 10 0;
#X connect 10 0 11 0;
#X connect 11 0 12 1;
#X connect 12 0 13 0;
#X connect 13 0 6 0;
#X connect 14 0 15 0;
#X connect 15 0 5 0;
#X connect 16 0 32 0;
#X connect 16 1 31 0;
#X connect 16 2 17 0;
#X connect 17 0 30 0;
#X connect 19 0 18 0;
#X connect 21 0 22 1;
#X connect 22 0 23 0;
#X connect 23 0 24 0;
#X connect 24 1 25 0;
#X connect 25 0 28 0;
#X connect 26 0 27 0;
#X connect 27 0 22 0;
#X connect 28 0 20 0;
#X connect 29 0 30 1;
#X connect 30 0 19 0;
#X connect 31 1 14 1;
#X connect 32 0 14 0;
#X connect 32 1 2 0;
#X restore 13 115 pd info;
#N canvas 32 529 1272 378 init.connection 0;
#X obj 23 182 s \$3.aoo.link.status;
#X obj 23 132 del 0;
#X msg 23 154 5;
#X obj 468 58 r \$3.tx.switch.s;
#X obj 493 81 r \$3.aoo.link.status;
#X obj 468 81 f;
#X obj 468 159 f;
#X obj 468 181 sel 1;
#X obj 468 202 t b b, f 11;
#X obj 468 305 s \$3.aoo.link.status;
#X obj 468 228 del 0;
#X obj 468 104 sel 6;
#X msg 468 282 7;
#X obj 760 169 r \$3.aoo.link.status;
#X obj 735 169 f;
#X obj 735 192 sel 5;
#X obj 735 213 f;
#X obj 735 257 s \$3.aoo.link.status;
#X msg 735 235 7;
#N canvas 58 279 755 431 deal.with.race.condition 0;
#X obj 52 85 r \$3.aoo.link.status;
#X obj 27 85 f;
#X obj 27 168 sel 0 4;
#X obj 27 193 f;
#X obj 27 215 sel 1;
#X obj 27 329 s \$3.aoo.link.status;
#X msg 27 308 6;
#X obj 27 18 inlet;
#X obj 223 155 f;
#X obj 223 177 sel 1;
#X obj 223 130 sel 5;
#X obj 223 225 s \$3.aoo.link.status;
#X msg 223 204 7;
#X text 354 17 When both clients initiatate a connection simultaneously \, their requests cross each other and we want to establish a connecction immediately without confirmation (before we dealt with that situation \, both clients flashed blue happily waiting for confirmation).;
#X obj 250 155 r \$3.peer.state;
#X obj 54 193 r \$3.peer.state;
#X connect 0 0 1 1;
#X connect 1 0 2 0;
#X connect 2 0 3 0;
#X connect 2 1 3 0;
#X connect 2 2 10 0;
#X connect 3 0 4 0;
#X connect 4 0 6 0;
#X connect 6 0 5 0;
#X connect 7 0 1 0;
#X connect 8 0 9 0;
#X connect 9 0 12 0;
#X connect 10 0 8 0;
#X connect 10 1 8 0;
#X connect 12 0 11 0;
#X connect 14 0 8 1;
#X connect 15 0 3 1;
#X restore 258 172 pd deal.with.race.condition;
#X obj 92 153 s \$0.to.peer;
#X obj 23 81 t b b, f 12;
#X obj 92 106 f \$2, f 5;
#X obj 258 57 r \$0.from.peer;
#X obj 258 81 route initiate;
#X obj 285 148 s \$3.peer.id;
#X obj 258 124 t b a;
#X obj 531 228 f \$2;
#X obj 531 276 s \$0.to.peer;
#X obj 735 58 r \$0.from.peer;
#X obj 735 82 route confirm;
#X obj 762 148 s \$3.peer.id;
#X obj 735 124 t b a;
#X obj 762 213 r \$3.peer.state;
#X text 35 18 1) SEND INIT;
#X text 250 19 2) HANDLE INIT REQUEST;
#X text 465 20 3) CONFIRM;
#X text 732 20 4) HANDLE CONFIRMATION;
#X obj 495 159 r \$3.peer.state;
#X text 973 80 0 = reset;
#X text 974 158 4 = aborted;
#X text 974 179 5 = waiting for peer (p2p);
#X text 975 198 6 = waiting for user (p2p);
#X text 975 219 7 = connected (p2p);
#X text 971 36 aoo.link.status;
#X text 971 49 ===============;
#X msg 92 128 dest initiate \, \$1;
#X text 973 100 1 = waiting for peer (proxy) NOT USED;
#X text 973 120 2 = waiting for user (proxy) NOT USED;
#X text 975 141 3 = connected (proxy) NOT USED;
#X obj 23 60 r \$3.initiate;
#X msg 531 254 dest confirm \, \$1;
#N canvas 629 531 386 229 autoconfirm 0;
#X obj 34 83 r \$1.autoconfirm;
#X obj 19 24 r \$3.aoo.link.status;
#X obj 19 47 sel 6;
#X obj 19 109 f;
#X obj 19 133 sel 1;
#X obj 19 156 del 100;
#X obj 19 179 outlet;
#X connect 0 0 3 1;
#X connect 1 0 2 0;
#X connect 2 0 3 0;
#X connect 3 0 4 0;
#X connect 4 0 5 0;
#X connect 5 0 6 0;
#X restore 487 132 pd autoconfirm;
#X connect 1 0 2 0;
#X connect 2 0 0 0;
#X connect 3 0 5 0;
#X connect 4 0 5 1;
#X connect 5 0 11 0;
#X connect 6 0 7 0;
#X connect 7 0 8 0;
#X connect 8 0 10 0;
#X connect 8 1 27 0;
#X connect 10 0 12 0;
#X connect 11 0 6 0;
#X connect 12 0 9 0;
#X connect 13 0 14 1;
#X connect 14 0 15 0;
#X connect 15 0 16 0;
#X connect 16 0 18 0;
#X connect 18 0 17 0;
#X connect 21 0 1 0;
#X connect 21 1 22 0;
#X connect 22 0 46 0;
#X connect 23 0 24 0;
#X connect 24 0 26 0;
#X connect 26 0 19 0;
#X connect 26 1 25 0;
#X connect 27 0 51 0;
#X connect 29 0 30 0;
#X connect 30 0 32 0;
#X connect 32 0 14 0;
#X connect 32 1 31 0;
#X connect 33 0 16 1;
#X connect 38 0 6 1;
#X connect 46 0 20 0;
#X connect 50 0 21 0;
#X connect 51 0 28 0;
#X connect 52 0 6 0;
#X restore 13 65 pd init.connection;
#N canvas 959 195 377 299 gui.code 0;
#X obj 41 215 r \$3.reset;
#X obj 108 234 sel 0;
#X obj 41 256 s \$3.display.reset;
#N canvas 653 155 906 588 tx.button 0;
#X obj 47 429 s \$3.tx.switch.r;
#X msg 47 400 color \$1 \$2 \$3;
#X msg 47 348 0 0 0;
#X obj 47 60 r \$3.aoo.link.status;
#X obj 242 41 r \$3.display.reset;
#X obj 47 88 t a a a a a;
#X msg 101 349 224 224 224;
#X msg 185 351 0 0 255;
#X msg 274 195 0;
#X obj 214 257 spigot;
#X obj 214 142 r \$3.blink.clock;
#X obj 214 278 sel 0 1;
#X msg 239 189 1;
#X msg 389 193 0;
#X obj 335 261 spigot;
#X obj 335 146 r \$3.blink.clock;
#X obj 335 282 sel 0 1;
#X msg 360 193 1;
#X msg 261 354 255 255 0;
#X obj 603 363 r \$3.tx.switch.s;
#X obj 631 386 r \$3.aoo.link.status;
#X obj 603 386 f;
#X obj 603 409 sel 0;
#X obj 603 435 f;
#X obj 603 457 sel 1;
#X obj 239 210 t a a;
#X obj 630 435 r \$3.peer.state;
#X obj 631 482 r \$3.aoo.link.status;
#X obj 603 482 f;
#X obj 603 505 sel 0;
#X text 638 78 0 = reset;
#X text 639 156 4 = aborted;
#X text 639 177 5 = waiting for peer (p2p);
#X text 640 196 6 = waiting for user (p2p);
#X text 640 217 7 = connected (p2p);
#X text 636 34 aoo.link.status;
#X text 636 47 ===============;
#X text 638 118 2 = waiting for user (proxy) NOT USED;
#X text 638 98 1 = waiting for peer (proxy) NOT USED;
#X text 640 139 3 = connected (proxy) NOT USED;
#X obj 240 168 sel 5;
#X obj 360 172 sel 6;
#X obj 47 136 select 0 4 7;
#X obj 603 528 s \$3.initiate;
#X connect 1 0 0 0;
#X connect 2 0 1 0;
#X connect 3 0 5 0;
#X connect 4 0 2 0;
#X connect 5 0 42 0;
#X connect 5 3 40 0;
#X connect 5 4 41 0;
#X connect 6 0 1 0;
#X connect 7 0 1 0;
#X connect 8 0 9 1;
#X connect 9 0 11 0;
#X connect 10 0 9 0;
#X connect 11 0 2 0;
#X connect 11 1 7 0;
#X connect 12 0 25 0;
#X connect 13 0 14 1;
#X connect 14 0 16 0;
#X connect 15 0 14 0;
#X connect 16 0 2 0;
#X connect 16 1 18 0;
#X connect 17 0 14 1;
#X connect 18 0 1 0;
#X connect 19 0 21 0;
#X connect 20 0 21 1;
#X connect 21 0 22 0;
#X connect 22 0 23 0;
#X connect 23 0 24 0;
#X connect 24 0 28 0;
#X connect 25 0 9 0;
#X connect 25 1 9 1;
#X connect 26 0 23 1;
#X connect 27 0 28 1;
#X connect 28 0 29 0;
#X connect 29 0 43 0;
#X connect 40 0 12 0;
#X connect 40 1 8 0;
#X connect 41 0 17 0;
#X connect 41 1 13 0;
#X connect 42 0 2 0;
#X connect 42 1 6 0;
#X connect 42 2 7 0;
#X restore 15 73 pd tx.button;
#X obj 150 46 metro 500;
#X obj 150 67 == 0;
#X obj 150 88 t a a;
#X obj 150 18 loadbang;
#X obj 150 112 s \$3.blink.clock;
#N canvas 625 406 499 363 rx.button 0;
#X obj 16 71 sel 0 1, f 31;
#X obj 106 297 s \$3.rx.switch.r;
#X msg 106 274 color \$1 \$2 \$3;
#X obj 175 143 r \$3.display.reset;
#X msg 175 192 0 0 0;
#X obj 193 165 loadbang;
#X obj 246 56 r \$3.aoo.link.status;
#X msg 43 188 224 224 224;
#X msg 107 212 0 0 255;
#X obj 16 50 r \$3.receiving;
#X obj 16 117 f;
#X obj 16 140 sel 0;
#X obj 24 96 t b a;
#X obj 246 79 sel 7;
#X msg 246 102 1;
#X msg 273 102 0;
#X connect 0 0 10 0;
#X connect 0 1 8 0;
#X connect 2 0 1 0;
#X connect 3 0 4 0;
#X connect 4 0 2 0;
#X connect 5 0 4 0;
#X connect 6 0 13 0;
#X connect 7 0 2 0;
#X connect 8 0 2 0;
#X connect 9 0 0 0;
#X connect 10 0 11 0;
#X connect 11 0 4 0;
#X connect 11 1 7 0;
#X connect 12 0 10 0;
#X connect 12 1 10 1;
#X connect 13 0 14 0;
#X connect 13 1 15 0;
#X connect 14 0 12 0;
#X connect 15 0 12 0;
#X restore 15 99 pd rx.button;
#N canvas 347 761 450 300 delay.nb 0;
#X obj 45 170 s \$3.delay.nb.r;
#X msg 45 144 color -1 \$1 -1;
#X msg 45 72 -1;
#X msg 81 76 0;
#X obj 45 17 r \$3.peer.ready;
#X obj 45 38 sel 0 1;
#X obj 81 97 t a a;
#X obj 228 74 s \$3.delay;
#X obj 228 44 r \$3.delay.nb.s;
#X connect 1 0 0 0;
#X connect 2 0 1 0;
#X connect 3 0 6 0;
#X connect 4 0 5 0;
#X connect 5 0 2 0;
#X connect 5 1 3 0;
#X connect 6 0 1 0;
#X connect 6 1 0 0;
#X connect 8 0 7 0;
#X restore 14 124 pd delay.nb;
#N canvas 339 360 431 345 peer.name 0;
#X obj 11 74 s \$3.client.label;
#X msg 11 46 label \$1;
#X obj 11 22 r \$3.peer.name;
#X obj 12 207 s \$3.client.label;
#X msg 12 179 color -1 -1 \$1;
#X msg 12 153 1;
#X msg 51 155 0;
#X msg 127 41 label empty;
#X obj 12 104 r \$3.peer.state;
#X obj 12 128 sel 0 1 2;
#X connect 1 0 0 0;
#X connect 2 0 1 0;
#X connect 4 0 3 0;
#X connect 5 0 4 0;
#X connect 6 0 4 0;
#X connect 7 0 0 0;
#X connect 8 0 9 0;
#X connect 9 0 5 0;
#X connect 9 1 6 0;
#X connect 9 2 6 0;
#X restore 17 18 pd peer.name;
#N canvas 428 518 691 325 arrow.up.down 0;
#X obj 12 16 r \$3.arrow.up;
#X obj 12 39 sel 0;
#X obj 54 40 t a;
#X obj 250 289 s \$3.arrow.up.r;
#X msg 250 249 color -1 -1 \$1;
#X msg 250 221 12;
#X msg 281 220 1;
#X obj 223 32 r \$3.peer.name;
#X obj 223 55 select empty;
#X msg 223 78 0;
#X msg 292 78 1;
#X obj 223 147 &&;
#X obj 330 91 t b a;
#X obj 223 103 t a;
#X obj 250 195 sel 0 1;
#X obj 12 63 f \$2;
#X obj 12 86 - 1;
#X obj 100 238 s \$3.swap.request;
#X obj 100 40 sel 0;
#X obj 142 41 t a;
#X obj 100 64 f \$2;
#X obj 100 17 r \$3.arrow.down;
#X obj 100 87 + 1;
#X obj 352 289 s \$3.arrow.down.r;
#X obj 223 170 t a a;
#X obj 100 148 spigot;
#X obj 330 17 r \$3.aoo.link.status;
#X obj 330 40 sel 0 4;
#X msg 330 63 1;
#X msg 369 63 0;
#X connect 0 0 1 0;
#X connect 1 0 15 0;
#X connect 1 1 2 0;
#X connect 2 0 1 1;
#X connect 4 0 3 0;
#X connect 4 0 23 0;
#X connect 5 0 4 0;
#X connect 6 0 4 0;
#X connect 7 0 8 0;
#X connect 8 0 9 0;
#X connect 8 1 10 0;
#X connect 9 0 13 0;
#X connect 10 0 13 0;
#X connect 11 0 24 0;
#X connect 12 0 11 0;
#X connect 12 1 11 1;
#X connect 13 0 11 0;
#X connect 14 0 5 0;
#X connect 14 1 6 0;
#X connect 15 0 16 0;
#X connect 16 0 25 0;
#X connect 18 0 20 0;
#X connect 18 1 19 0;
#X connect 19 0 18 1;
#X connect 20 0 22 0;
#X connect 21 0 18 0;
#X connect 22 0 25 0;
#X connect 24 0 25 1;
#X connect 24 1 14 0;
#X connect 25 0 17 0;
#X connect 26 0 27 0;
#X connect 27 0 28 0;
#X connect 27 1 28 0;
#X connect 27 2 29 0;
#X connect 28 0 12 0;
#X connect 29 0 12 0;
#X restore 16 46 pd arrow.up.down;
#X obj 108 214 r \$3.peer.state;
#N canvas 156 619 335 187 gop.expand 0;
#X obj 13 20 r \$3.expand;
#X msg 13 70 32 \$1;
#X msg 13 95 coords 0 0 \$2 \$1 \$2 \$1 2 20 20;
#X obj 13 44 + 674;
#X obj 13 120 s \$1.\$2.link;
#X connect 0 0 3 0;
#X connect 1 0 2 0;
#X connect 2 0 4 0;
#X connect 3 0 1 0;
#X restore 14 148 pd gop.expand;
#X obj 137 163 bng 15 250 50 0 empty empty empty 17 7 0 10 #fcfcfc #000000 #000000;
#X connect 0 0 2 0;
#X connect 1 0 2 0;
#X connect 4 0 5 0;
#X connect 5 0 6 0;
#X connect 6 0 8 0;
#X connect 6 1 5 1;
#X connect 7 0 4 0;
#X connect 13 0 1 0;
#X connect 15 0 2 0;
#X restore 13 140 pd gui.code;
#N canvas 647 337 1154 483 persist.params 0;
#X obj 281 79 r \$3.peer.name;
#X obj 238 79 symbol;
#X obj 13 29 route fetch_settings;
#X obj 13 277 route restore_settings;
#X obj 13 323 route \$2;
#X obj 13 442 s \$3.peer.name;
#X obj 13 6 r \$1.intercom;
#X obj 13 220 s \$1.intercom;
#X obj 13 254 r \$1.intercom;
#X obj 152 87 r \$3.recvbuf;
#X obj 43 78 r \$3.delay;
#X obj 60 420 s \$3.recvbuf;
#X obj 107 398 s \$3.delay;
#X obj 13 173 list prepend save_settings peer \$2;
#X obj 238 102 select empty;
#X obj 13 52 t b b b, f 38;
#X obj 125 84 f;
#X obj 13 78 f;
#X obj 13 101 sel 0;
#X obj 13 300 route peer;
#X msg 13 124 delay \$1;
#X msg 125 130 recvbuf \$1;
#X msg 238 128 name \$1;
#X obj 13 347 route name recvbuf delay;
#X obj 13 369 symbol;
#X obj 396 57 loadbang;
#X obj 394 296 t b b b, f 17;
#X msg 493 329 symbol empty;
#X obj 493 362 s \$3.peer.name;
#X obj 443 391 s \$3.recvbuf;
#X obj 394 417 s \$3.delay;
#X msg 394 323 0;
#X obj 13 196 list trim;
#X obj 625 53 r \$3.client.reset;
#X obj 625 76 sel;
#X obj 654 77 t a;
#X obj 625 99 f;
#X obj 654 99 r \$3.peer.state;
#X obj 625 122 sel 0;
#X obj 625 170 del 300;
#X msg 625 204 0;
#X obj 625 145 t b b b;
#X msg 709 174 1;
#X obj 664 198 spigot 0;
#X obj 664 221 t b b;
#X obj 468 55 r \$1.reset.s;
#X text 617 24 === reset by double-click =====;
#X text 466 22 === reset buton =====;
#X obj 468 82 f;
#X obj 497 82 r \$3.peer.state;
#X obj 468 105 sel 0;
#X obj 586 379 r \$1.send;
#X obj 586 402 route port;
#X obj 586 425 b;
#X text 664 376 <- make sure to init recvbuf after aoo_receive~ creation \, but before preset loading.;
#X msg 443 361 5;
#X obj 125 107 sel 5;
#X connect 0 0 1 1;
#X connect 1 0 14 0;
#X connect 2 0 15 0;
#X connect 3 0 19 0;
#X connect 4 0 23 0;
#X connect 6 0 2 0;
#X connect 8 0 3 0;
#X connect 9 0 16 1;
#X connect 10 0 17 1;
#X connect 13 0 32 0;
#X connect 14 1 22 0;
#X connect 15 0 17 0;
#X connect 15 1 16 0;
#X connect 15 2 1 0;
#X connect 16 0 56 0;
#X connect 17 0 18 0;
#X connect 18 1 20 0;
#X connect 19 0 4 0;
#X connect 20 0 13 0;
#X connect 21 0 13 0;
#X connect 22 0 13 0;
#X connect 23 0 24 0;
#X connect 23 1 11 0;
#X connect 23 2 12 0;
#X connect 24 0 5 0;
#X connect 25 0 26 0;
#X connect 26 0 31 0;
#X connect 26 1 55 0;
#X connect 26 2 27 0;
#X connect 27 0 28 0;
#X connect 31 0 30 0;
#X connect 32 0 7 0;
#X connect 33 0 34 0;
#X connect 34 0 36 0;
#X connect 34 1 35 0;
#X connect 35 0 34 1;
#X connect 36 0 38 0;
#X connect 37 0 36 1;
#X connect 38 0 41 0;
#X connect 39 0 40 0;
#X connect 40 0 43 1;
#X connect 41 0 39 0;
#X connect 41 1 42 0;
#X connect 41 2 43 0;
#X connect 42 0 43 1;
#X connect 43 0 44 0;
#X connect 44 0 26 0;
#X connect 44 1 40 0;
#X connect 45 0 48 0;
#X connect 48 0 50 0;
#X connect 49 0 48 1;
#X connect 50 0 26 0;
#X connect 51 0 52 0;
#X connect 52 0 53 0;
#X connect 53 0 55 0;
#X connect 55 0 29 0;
#X connect 56 1 21 0;
#X restore 13 165 pd persist.params;
#N canvas 1098 422 712 264 peer.name.advertize 0;
#X obj 22 20 r \$1.intercom;
#X obj 200 16 r \$3.peer.name;
#X obj 22 86 b;
#X obj 22 109 symbol;
#X obj 22 64 route \$2;
#X obj 22 41 route peer_get_name;
#X obj 22 136 list prepend peer_name \$2;
#X obj 22 159 list trim;
#X obj 22 182 s \$1.intercom;
#X obj 200 65 sel _ksdlfajlk;
#X obj 304 64 t a;
#X obj 281 117 f \$2;
#X msg 281 140 peer_name_refreshed \$1;
#X obj 281 166 s \$1.intercom;
#X obj 281 92 b;
#X obj 200 39 t a a;
#X obj 476 18 r \$1.intercom;
#X obj 476 108 b;
#X obj 476 153 list trim;
#X obj 476 176 s \$1.intercom;
#X obj 476 39 route peer_get_id;
#X obj 476 86 select _;
#X obj 534 85 r \$3.peer.name;
#X obj 476 130 list prepend peer_id \$2;
#X obj 476 62 list;
#X connect 0 0 5 0;
#X connect 1 0 15 0;
#X connect 2 0 3 0;
#X connect 3 0 6 0;
#X connect 4 0 2 0;
#X connect 5 0 4 0;
#X connect 6 0 7 0;
#X connect 7 0 8 0;
#X connect 9 1 10 0;
#X connect 9 1 14 0;
#X connect 10 0 9 1;
#X connect 11 0 12 0;
#X connect 12 0 13 0;
#X connect 14 0 11 0;
#X connect 15 0 9 0;
#X connect 15 1 3 1;
#X connect 16 0 20 0;
#X connect 17 0 23 0;
#X connect 18 0 19 0;
#X connect 20 0 24 0;
#X connect 21 0 17 0;
#X connect 22 0 21 1;
#X connect 23 0 18 0;
#X connect 24 0 21 0;
#X restore 13 190 pd peer.name.advertize;
#X connect 2 0 3 0;
#X connect 3 0 4 0;
#X connect 5 0 3 0;
