#N canvas 677 626 1022 150 10;
#X obj 20 20 cnv 32 953 32 empty empty empty 8 16 0 20 #fcfcfc #fcfcfc
0;
#X obj 20 20 tpf-client-button32x32 \$0.tx.switch.s \$0.tx.switch.r
;
#X obj 369 20 tpf-client-button32x32 \$0.rx.switch.s \$0.rx.switch.r
;
#X obj 350 22 vsl 16 11 0 127 0 0 \$0.arrow.up \$0.arrow.up.r ▲ 5
4 0 14 #000000 #000000 #202020 0 1;
#X obj 350 39 vsl 16 10 0 127 0 0 \$0.arrow.down \$0.arrow.down.r ▼
5 5 0 14 #000000 #000000 #202020 0 1;
#X obj 58 20 hsl 290 32 0 127 0 0 \$0.client.reset empty empty -2 -8
0 10 #fcfcfc #000000 #000000 0 1;
#X obj 55 20 cnv 32 295 32 empty \$0.client.label empty 8 16 0 20 #000000
#a0a0a0 0;
#X obj 23 87 tpf-client-link-guts \$1 \$2 \$0;
#X obj 404 20 tpf-client-link-panel \$1 \$2 \$0;
#N canvas 871 912 450 300 \$0.channels.gop 0;
#X obj 20 200 cnv 15 279 32 empty empty empty 20 12 0 14 #ffffff #404040
0;
#X obj 22 200 tpf-client-outchannel \$0 \$2 1;
#X obj 57 200 tpf-client-outchannel \$0 \$2 2;
#X obj 92 200 tpf-client-outchannel \$0 \$2 3;
#X obj 127 200 tpf-client-outchannel \$0 \$2 4;
#X obj 162 200 tpf-client-outchannel \$0 \$2 5;
#X obj 197 200 tpf-client-outchannel \$0 \$2 6;
#X obj 232 200 tpf-client-outchannel \$0 \$2 7;
#X obj 267 200 tpf-client-outchannel \$0 \$2 8;
#X obj 243 89 s \$0.from.aoo.r;
#X obj 18 19 r \$0.to.aoo.r;
#X obj 18 58 aoo_receive~ 0 \$2 8, f 38;
#X connect 10 0 11 0;
#X connect 11 0 1 0;
#X connect 11 1 2 0;
#X connect 11 2 3 0;
#X connect 11 3 4 0;
#X connect 11 4 5 0;
#X connect 11 5 6 0;
#X connect 11 6 7 0;
#X connect 11 7 8 0;
#X connect 11 8 9 0;
#X coords 0 -1 1 1 279 32 2 20 200;
#X restore 694 20 pd \$0.channels.gop;
#X coords 0 -1 1 1 953 32 2 20 20;
