#N canvas 0 103 403 242 10;
#N canvas 277 523 1094 427 gui.code 0;
#X obj 744 19 r \$3.reset;
#X obj 811 38 sel 0;
#X obj 744 60 s \$3.display.reset;
#X obj 621 297 s \$3.glitch.label;
#X obj 652 317 s \$3.ooo.label;
#X obj 626 208 r \$3.display.reset;
#X msg 626 228 label empty;
#X obj 334 60 makefilename %4d;
#X msg 334 80 label \$1;
#X obj 334 100 s \$3.dropped.label;
#X obj 598 276 s \$3.dropped.label;
#X msg 514 178 0;
#X obj 464 60 makefilename %4d;
#X msg 464 80 label \$1;
#X obj 594 60 makefilename %4d;
#X msg 594 80 label \$1;
#X obj 464 100 s \$3.glitch.label;
#X obj 594 100 s \$3.ooo.label;
#X obj 285 165 route inchannels;
#X obj 285 185 makefilename %4d;
#X msg 285 205 label \$1;
#X obj 285 225 s \$3.channels.label;
#X obj 665 337 s \$3.channels.label;
#N canvas 653 155 906 588 tx.button 0;
#X obj 47 429 s \$3.tx.switch.r;
#X msg 47 400 color \$1 \$2 \$3;
#X msg 47 348 0 0 0;
#X obj 47 60 r \$3.aoo.link.status;
#X obj 242 41 r \$3.display.reset;
#X obj 47 88 t a a a a a;
#X msg 101 349 224 224 224;
#X msg 185 351 0 0 255;
#X msg 274 195 0;
#X obj 214 257 spigot;
#X obj 214 142 r \$3.blink.clock;
#X obj 214 278 sel 0 1;
#X msg 239 189 1;
#X msg 389 193 0;
#X obj 335 261 spigot;
#X obj 335 146 r \$3.blink.clock;
#X obj 335 282 sel 0 1;
#X msg 360 193 1;
#X msg 261 354 255 255 0;
#X obj 603 363 r \$3.tx.switch.s;
#X obj 631 386 r \$3.aoo.link.status;
#X obj 603 386 f;
#X obj 603 409 sel 0;
#X obj 603 435 f;
#X obj 603 457 sel 1;
#X obj 239 210 t a a;
#X obj 630 435 r \$3.peer.state;
#X obj 631 482 r \$3.aoo.link.status;
#X obj 603 482 f;
#X obj 603 505 sel 0;
#X text 638 78 0 = reset;
#X text 639 156 4 = aborted;
#X text 639 177 5 = waiting for peer (p2p);
#X text 640 196 6 = waiting for user (p2p);
#X text 640 217 7 = connected (p2p);
#X text 636 34 aoo.link.status;
#X text 636 47 ===============;
#X text 638 118 2 = waiting for user (proxy) NOT USED;
#X text 638 98 1 = waiting for peer (proxy) NOT USED;
#X text 640 139 3 = connected (proxy) NOT USED;
#X obj 240 168 sel 5;
#X obj 360 172 sel 6;
#X obj 47 136 select 0 4 7;
#X obj 603 528 s \$3.initiate;
#X connect 1 0 0 0;
#X connect 2 0 1 0;
#X connect 3 0 5 0;
#X connect 4 0 2 0;
#X connect 5 0 42 0;
#X connect 5 3 40 0;
#X connect 5 4 41 0;
#X connect 6 0 1 0;
#X connect 7 0 1 0;
#X connect 8 0 9 1;
#X connect 9 0 11 0;
#X connect 10 0 9 0;
#X connect 11 0 2 0;
#X connect 11 1 7 0;
#X connect 12 0 25 0;
#X connect 13 0 14 1;
#X connect 14 0 16 0;
#X connect 15 0 14 0;
#X connect 16 0 2 0;
#X connect 16 1 18 0;
#X connect 17 0 14 1;
#X connect 18 0 1 0;
#X connect 19 0 21 0;
#X connect 20 0 21 1;
#X connect 21 0 22 0;
#X connect 22 0 23 0;
#X connect 23 0 24 0;
#X connect 24 0 28 0;
#X connect 25 0 9 0;
#X connect 25 1 9 1;
#X connect 26 0 23 1;
#X connect 27 0 28 1;
#X connect 28 0 29 0;
#X connect 29 0 43 0;
#X connect 40 0 12 0;
#X connect 40 1 8 0;
#X connect 41 0 17 0;
#X connect 41 1 13 0;
#X connect 42 0 2 0;
#X connect 42 1 6 0;
#X connect 42 2 7 0;
#X restore 15 73 pd tx.button;
#X obj 805 138 metro 500;
#X obj 805 159 == 0;
#X obj 805 180 t a a;
#X obj 805 110 loadbang;
#X obj 805 204 s \$3.blink.clock;
#X obj 514 127 r \$3.aoo.link.status;
#X obj 514 148 sel 3;
#N canvas 625 406 491 361 rx.button 0;
#X obj 16 76 sel 0 1;
#X obj 16 269 s \$3.rx.switch.r;
#X msg 16 246 color \$1 \$2 \$3;
#X obj 278 141 r \$3.display.reset;
#X msg 278 190 0 0 0;
#X obj 296 163 loadbang;
#X obj 31 103 r \$3.aoo.link.status;
#X obj 16 128 f;
#X obj 16 155 sel 0;
#X obj 86 140 sel 0;
#X msg 16 190 224 224 224;
#X obj 147 188 list append;
#X obj 167 55 r \$3.aoo.link.status;
#X msg 168 113 0 0 255;
#X obj 16 55 r \$3.receiving;
#X obj 167 80 sel 7;
#X connect 0 0 7 0;
#X connect 0 1 11 0;
#X connect 2 0 1 0;
#X connect 3 0 4 0;
#X connect 4 0 2 0;
#X connect 5 0 4 0;
#X connect 6 0 7 1;
#X connect 6 0 9 0;
#X connect 7 0 8 0;
#X connect 8 1 10 0;
#X connect 9 0 4 0;
#X connect 10 0 2 0;
#X connect 11 0 2 0;
#X connect 12 0 15 0;
#X connect 13 0 11 1;
#X connect 14 0 0 0;
#X connect 15 0 13 0;
#X restore 15 99 pd rx.button;
#N canvas 347 761 450 300 delay.nb 0;
#X obj 45 170 s \$3.delay.nb.r;
#X msg 45 144 color -1 \$1 -1;
#X msg 45 72 -1;
#X msg 81 76 0;
#X obj 45 17 r \$3.peer.ready;
#X obj 45 38 sel 0 1;
#X obj 81 97 t a a;
#X obj 228 74 s \$3.delay;
#X obj 228 44 r \$3.delay.nb.s;
#X connect 1 0 0 0;
#X connect 2 0 1 0;
#X connect 3 0 6 0;
#X connect 4 0 5 0;
#X connect 5 0 2 0;
#X connect 5 1 3 0;
#X connect 6 0 1 0;
#X connect 6 1 0 0;
#X connect 8 0 7 0;
#X restore 14 124 pd delay.nb;
#N canvas 339 360 431 345 peer.name 0;
#X obj 11 74 s \$3.client.label;
#X msg 11 46 label \$1;
#X obj 11 22 r \$3.peer.name;
#X obj 12 207 s \$3.client.label;
#X msg 12 179 color -1 -1 \$1;
#X msg 12 153 1;
#X msg 51 155 0;
#X msg 127 41 label empty;
#X obj 12 104 r \$3.peer.state;
#X obj 12 128 sel 0 1 2;
#X connect 1 0 0 0;
#X connect 2 0 1 0;
#X connect 4 0 3 0;
#X connect 5 0 4 0;
#X connect 6 0 4 0;
#X connect 7 0 0 0;
#X connect 8 0 9 0;
#X connect 9 0 5 0;
#X connect 9 1 6 0;
#X connect 9 2 6 0;
#X restore 17 18 pd peer.name;
#N canvas 428 518 482 325 arrow.up.down 0;
#X obj 12 16 r \$3.arrow.up;
#X obj 12 39 sel 0;
#X obj 54 40 t a;
#X obj 250 289 s \$3.arrow.up.r;
#X msg 250 249 color -1 -1 \$1;
#X msg 250 221 12;
#X msg 281 220 1;
#X obj 223 32 r \$3.peer.name;
#X obj 223 55 select empty;
#X msg 223 78 0;
#X msg 292 78 1;
#X obj 223 147 &&;
#X obj 330 91 t b a;
#X obj 223 103 t a;
#X obj 250 195 sel 0 1;
#X obj 12 63 f \$2;
#X obj 12 86 - 1;
#X obj 100 238 s \$3.swap.request;
#X obj 100 40 sel 0;
#X obj 142 41 t a;
#X obj 100 64 f \$2;
#X obj 100 17 r \$3.arrow.down;
#X obj 100 87 + 1;
#X obj 352 289 s \$3.arrow.down.r;
#X obj 223 170 t a a;
#X obj 100 148 spigot;
#X obj 330 57 != 2;
#X obj 330 31 r \$3.peer.state;
#X connect 0 0 1 0;
#X connect 1 0 15 0;
#X connect 1 1 2 0;
#X connect 2 0 1 1;
#X connect 4 0 3 0;
#X connect 4 0 23 0;
#X connect 5 0 4 0;
#X connect 6 0 4 0;
#X connect 7 0 8 0;
#X connect 8 0 9 0;
#X connect 8 1 10 0;
#X connect 9 0 13 0;
#X connect 10 0 13 0;
#X connect 11 0 24 0;
#X connect 12 0 11 0;
#X connect 12 1 11 1;
#X connect 13 0 11 0;
#X connect 14 0 5 0;
#X connect 14 1 6 0;
#X connect 15 0 16 0;
#X connect 16 0 25 0;
#X connect 18 0 20 0;
#X connect 18 1 19 0;
#X connect 19 0 18 1;
#X connect 20 0 22 0;
#X connect 21 0 18 0;
#X connect 22 0 25 0;
#X connect 24 0 25 1;
#X connect 24 1 14 0;
#X connect 25 0 17 0;
#X connect 26 0 12 0;
#X connect 27 0 26 0;
#X restore 16 46 pd arrow.up.down;
#X obj 811 18 r \$3.peer.state;
#X connect 0 0 2 0;
#X connect 1 0 2 0;
#X connect 5 0 6 0;
#X connect 6 0 3 0;
#X connect 6 0 4 0;
#X connect 6 0 10 0;
#X connect 6 0 22 0;
#X connect 7 0 8 0;
#X connect 8 0 9 0;
#X connect 11 0 7 0;
#X connect 11 0 12 0;
#X connect 11 0 14 0;
#X connect 11 0 19 0;
#X connect 12 0 13 0;
#X connect 13 0 16 0;
#X connect 14 0 15 0;
#X connect 15 0 17 0;
#X connect 18 0 19 0;
#X connect 19 0 20 0;
#X connect 20 0 21 0;
#X connect 24 0 25 0;
#X connect 25 0 26 0;
#X connect 26 0 28 0;
#X connect 26 1 25 1;
#X connect 27 0 24 0;
#X connect 29 0 30 0;
#X connect 30 0 11 0;
#X connect 35 0 1 0;
#X restore 13 140 pd gui.code;
#N canvas 295 122 994 772 peer.assignment 0;
#X obj 8 50 loadbang;
#X msg 8 73 symbol empty;
#X text 7 15 === init peer ===;
#X obj 8 96 s \$3.peer.name;
#X obj 600 45 r \$3.swap.request;
#X obj 625 67 r \$3.peer.name;
#X obj 600 141 s \$1.intercom;
#X text 593 16 === swap peer link ===;
#X text 725 45 ----- REQUEST ---------;
#X obj 601 174 r \$1.intercom;
#X obj 601 197 route peer_swap_request;
#X obj 601 257 route \$2;
#X obj 601 220 spigot;
#X msg 670 326 \$2;
#X obj 716 325 r \$3.peer.name;
#X obj 670 395 s \$1.intercom;
#X text 715 174 ----- HANDLE REQUEST ---------;
#X text 713 305 ----- RESPONSE ---------;
#X obj 635 441 s \$3.peer.name;
#X text 715 507 ----- HANDLE RESPONSE ---------;
#X msg 635 418 symbol \$1;
#X obj 601 280 list;
#X obj 601 510 r \$1.intercom;
#X obj 601 533 route peer_swap_response;
#X obj 601 556 route \$2;
#X obj 633 654 s \$3.peer.name;
#X obj 46 365 r \$3.peer.name;
#X obj 13 392 symbol;
#X obj 13 339 route fetch_settings;
#X obj 13 362 b;
#X obj 13 415 list prepend \$2;
#X msg 13 440 save_settings peer_name \$1 \$2;
#X obj 12 518 route restore_settings;
#X obj 12 541 route peer_name;
#X obj 12 564 route \$2;
#X obj 12 587 symbol;
#X obj 12 610 s \$3.peer.name;
#X obj 13 316 r \$1.intercom;
#X obj 13 466 s \$1.intercom;
#X obj 12 495 r \$1.intercom;
#X obj 181 49 r \$1.intercom;
#X obj 181 72 route peer_reclaim;
#X obj 181 95 list;
#X msg 208 164 peer_reclaimed;
#X obj 208 187 s \$1.intercom;
#X obj 9 122 loadbang;
#X obj 9 168 s \$3.peer.state;
#X msg 9 145 0;
#X text 12 192 states:;
#X text 12 202 =======;
#X text 12 222 0: offline;
#X text 12 242 1: online;
#X text 12 262 0: streaming;
#X obj 219 118 r \$3.peer.name;
#X obj 181 118 sel -;
#X obj 181 232 s \$3.peer.state;
#X obj 181 141 t b b;
#X msg 181 208 1;
#X obj 346 48 r \$1.intercom;
#X obj 346 71 route peer_new;
#X obj 392 166 r \$3.peer.name;
#X obj 346 193 sel empty, f 23;
#X obj 346 115 list;
#X obj 373 240 symbol;
#X obj 346 216 t b b;
#X obj 373 263 s \$3.peer.name;
#X obj 346 310 s \$3.peer.state;
#X msg 346 286 1;
#X text 181 16 === reclaim ==========;
#X text 347 17 === grab ================;
#X obj 346 94 route \$2;
#X obj 346 138 t b a, f 12;
#X obj 346 167 symbol;
#X obj 481 221 b;
#X obj 481 248 symbol;
#X obj 481 271 t b a;
#X obj 481 294 f \$2;
#X obj 481 317 + 1;
#X obj 481 340 list append;
#X msg 481 363 peer_new \$1 \$2;
#X obj 481 386 s \$1.intercom;
#X text 218 427 === leave ==========;
#X obj 222 453 r \$1.intercom;
#X obj 222 476 route peer_leave;
#X obj 221 617 r \$1.intercom;
#X obj 221 640 route peer_leave_all;
#X obj 221 685 s \$3.peer.state;
#X msg 221 662 0;
#X obj 222 529 route -;
#X obj 261 503 r \$3.peer.name;
#X obj 222 575 s \$3.peer.state;
#X msg 222 552 0;
#X obj 600 95 pack f s \$2 f;
#X obj 690 93 r \$3.peer.state;
#X text 782 117 dst peername src state;
#X obj 669 221 r \$3.peer.state;
#X obj 669 244 != 2;
#X obj 807 325 r \$3.peer.state;
#X obj 670 349 pack f s f, f 16;
#X msg 670 372 peer_swap_response \$1 \$2 \$3;
#X text 842 373 dst peername state;
#X msg 601 441 \$3;
#X obj 601 464 s \$3.peer.state;
#X obj 601 579 list;
#X obj 601 602 t a a;
#X msg 633 632 symbol \$1;
#X msg 601 655 \$2;
#X obj 601 678 s \$3.peer.state;
#X msg 600 118 peer_swap_request \$1 \$2 \$3 \$4;
#X obj 601 303 t a a a, f 12;
#X obj 394 459 r \$3.client.reset;
#X obj 394 482 sel;
#X obj 423 483 t a;
#X obj 394 505 f;
#X obj 423 505 r \$3.peer.state;
#X obj 394 528 sel 0;
#X text 396 427 === reset ==========;
#X msg 393 659 symbol empty;
#X obj 393 682 s \$3.peer.name;
#X obj 394 576 del 300;
#X msg 394 610 0;
#X obj 394 551 t b b b;
#X msg 478 580 1;
#X obj 433 627 t a b;
#X obj 433 604 spigot 0;
#X connect 0 0 1 0;
#X connect 1 0 3 0;
#X connect 4 0 92 0;
#X connect 5 0 92 1;
#X connect 9 0 10 0;
#X connect 10 0 12 0;
#X connect 11 0 21 0;
#X connect 12 0 11 0;
#X connect 13 0 98 0;
#X connect 14 0 98 1;
#X connect 20 0 18 0;
#X connect 21 0 109 0;
#X connect 22 0 23 0;
#X connect 23 0 24 0;
#X connect 24 0 103 0;
#X connect 26 0 27 1;
#X connect 27 0 30 0;
#X connect 28 0 29 0;
#X connect 29 0 27 0;
#X connect 30 0 31 0;
#X connect 31 0 38 0;
#X connect 32 0 33 0;
#X connect 33 0 34 0;
#X connect 34 0 35 0;
#X connect 35 0 36 0;
#X connect 37 0 28 0;
#X connect 39 0 32 0;
#X connect 40 0 41 0;
#X connect 41 0 42 0;
#X connect 42 0 54 0;
#X connect 43 0 44 0;
#X connect 45 0 47 0;
#X connect 47 0 46 0;
#X connect 53 0 54 1;
#X connect 54 0 56 0;
#X connect 56 0 57 0;
#X connect 56 1 43 0;
#X connect 57 0 55 0;
#X connect 58 0 59 0;
#X connect 59 0 70 0;
#X connect 60 0 72 1;
#X connect 61 0 64 0;
#X connect 61 1 73 0;
#X connect 62 0 71 0;
#X connect 63 0 65 0;
#X connect 64 0 67 0;
#X connect 64 1 63 0;
#X connect 67 0 66 0;
#X connect 70 0 62 0;
#X connect 71 0 72 0;
#X connect 71 1 63 1;
#X connect 71 1 74 1;
#X connect 72 0 61 0;
#X connect 73 0 74 0;
#X connect 74 0 75 0;
#X connect 75 0 76 0;
#X connect 75 1 78 1;
#X connect 76 0 77 0;
#X connect 77 0 78 0;
#X connect 78 0 79 0;
#X connect 79 0 80 0;
#X connect 82 0 83 0;
#X connect 83 0 88 0;
#X connect 84 0 85 0;
#X connect 85 0 87 0;
#X connect 87 0 86 0;
#X connect 88 0 91 0;
#X connect 89 0 88 1;
#X connect 91 0 90 0;
#X connect 92 0 108 0;
#X connect 93 0 92 3;
#X connect 95 0 96 0;
#X connect 96 0 12 1;
#X connect 97 0 98 2;
#X connect 98 0 99 0;
#X connect 99 0 15 0;
#X connect 101 0 102 0;
#X connect 103 0 104 0;
#X connect 104 0 106 0;
#X connect 104 1 105 0;
#X connect 105 0 25 0;
#X connect 106 0 107 0;
#X connect 108 0 6 0;
#X connect 109 0 101 0;
#X connect 109 1 20 0;
#X connect 109 2 13 0;
#X connect 110 0 111 0;
#X connect 111 0 113 0;
#X connect 111 1 112 0;
#X connect 112 0 111 1;
#X connect 113 0 115 0;
#X connect 114 0 113 1;
#X connect 115 0 121 0;
#X connect 117 0 118 0;
#X connect 119 0 120 0;
#X connect 120 0 124 1;
#X connect 121 0 119 0;
#X connect 121 1 122 0;
#X connect 121 2 124 0;
#X connect 122 0 124 1;
#X connect 123 0 117 0;
#X connect 123 1 120 0;
#X connect 124 0 123 0;
#X restore 13 42 pd peer.assignment;
#N canvas 198 310 986 580 aoo.start.stop 0;
#X obj 25 70 r \$3.aoo.link.status;
#X obj 355 68 r \$3.tx.switch.s;
#X obj 383 91 r \$3.aoo.link.status;
#X obj 355 91 f;
#X obj 355 528 s \$3.aoo.link.status;
#X msg 355 506 0;
#X obj 355 148 t b b;
#X obj 355 485 del 0;
#X obj 355 114 sel 1 3 4 5 7;
#X obj 382 198 s \$0.to.peer;
#X obj 382 221 r \$0.from.peer;
#X obj 382 245 route stop;
#X obj 355 319 t b b b, f 13;
#X obj 455 296 r \$0.destination;
#X obj 392 368 list append;
#X msg 392 417 remove \$1 \$2 \$3;
#X obj 495 170 sel 0;
#X obj 495 148 r \$3.peer.state;
#X obj 523 194 r \$3.aoo.link.status;
#X obj 495 194 f;
#X text 26 29 ==== start streaming ============;
#X text 348 30 ==== stop streaming ============;
#X obj 455 319 t b a;
#X msg 455 343 1;
#X obj 392 346 spigot;
#X obj 392 391 t a b;
#X msg 480 385 0;
#X msg 430 448 stop;
#X msg 382 174 dest stop \, bang;
#X obj 772 185 s \$3.receiving;
#X obj 762 478 s \$3.inchannels;
#X obj 495 217 sel 0;
#X obj 392 472 s \$3.to.aoo.s;
#X obj 738 67 r \$3.from.aoo.r;
#X obj 728 304 r \$3.from.aoo.r;
#X text 733 32 ==== detect receiving ======;
#X text 730 268 ==== detect received channels ======;
#X obj 495 241 t b b;
#X msg 573 276 remove;
#X obj 573 298 s \$3.to.aoo.s;
#X obj 738 90 route event;
#X obj 738 113 list split 3;
#X obj 772 136 list trim;
#X obj 772 159 route state;
#X obj 728 337 route event;
#X obj 728 360 list split 3;
#X obj 762 383 list trim;
#X obj 762 406 route format;
#X obj 762 429 list;
#X msg 762 452 \$2;
#X msg 25 358 start;
#X obj 110 201 r \$3.peer.name;
#X obj 110 227 r \$3.peer.id;
#X obj 25 227 list append;
#X obj 110 174 r \$1.room;
#X obj 25 200 list append;
#X obj 25 174 symbol;
#X obj 25 251 t a a;
#X obj 52 276 s \$0.destination;
#X msg 25 305 add \$1 \$2 \$3;
#X obj 25 389 s \$3.to.aoo.s;
#X obj 25 328 t b a b, f 15;
#X obj 144 400 s \$3.to.aoo.s;
#X obj 132 421 s \$3.to.aoo.r;
#X msg 132 378 port \$1;
#X obj 147 308 r \$1.send;
#X obj 147 331 route port;
#X obj 132 355 f;
#X obj 25 94 sel 7;
#X obj 52 140 s \$0.set.format;
#X obj 25 117 t b b;
#X floatatom 864 411 5 0 0 0 - - -;
#X connect 0 0 68 0;
#X connect 1 0 3 0;
#X connect 2 0 3 1;
#X connect 3 0 8 0;
#X connect 5 0 4 0;
#X connect 6 0 12 0;
#X connect 6 1 28 0;
#X connect 7 0 5 0;
#X connect 8 0 6 0;
#X connect 8 1 6 0;
#X connect 8 2 6 0;
#X connect 8 3 6 0;
#X connect 8 4 6 0;
#X connect 10 0 11 0;
#X connect 11 0 12 0;
#X connect 12 0 7 0;
#X connect 12 1 24 0;
#X connect 12 2 27 0;
#X connect 13 0 22 0;
#X connect 14 0 25 0;
#X connect 15 0 32 0;
#X connect 16 0 19 0;
#X connect 17 0 16 0;
#X connect 18 0 19 1;
#X connect 19 0 31 0;
#X connect 22 0 23 0;
#X connect 22 1 14 1;
#X connect 23 0 24 1;
#X connect 24 0 14 0;
#X connect 25 0 15 0;
#X connect 25 1 26 0;
#X connect 26 0 24 1;
#X connect 27 0 32 0;
#X connect 28 0 9 0;
#X connect 31 1 37 0;
#X connect 33 0 40 0;
#X connect 34 0 44 0;
#X connect 37 0 38 0;
#X connect 37 1 12 0;
#X connect 38 0 39 0;
#X connect 40 0 41 0;
#X connect 41 1 42 0;
#X connect 42 0 43 0;
#X connect 43 0 29 0;
#X connect 44 0 45 0;
#X connect 45 1 46 0;
#X connect 46 0 47 0;
#X connect 47 0 48 0;
#X connect 48 0 49 0;
#X connect 49 0 30 0;
#X connect 50 0 60 0;
#X connect 51 0 55 1;
#X connect 52 0 53 1;
#X connect 53 0 57 0;
#X connect 54 0 56 1;
#X connect 55 0 53 0;
#X connect 56 0 55 0;
#X connect 57 0 59 0;
#X connect 57 1 58 0;
#X connect 59 0 61 0;
#X connect 61 0 50 0;
#X connect 61 1 60 0;
#X connect 61 2 67 0;
#X connect 64 0 63 0;
#X connect 64 0 62 0;
#X connect 65 0 66 0;
#X connect 66 0 67 1;
#X connect 67 0 64 0;
#X connect 68 0 70 0;
#X connect 70 0 56 0;
#X connect 70 1 69 0;
#X connect 71 0 30 0;
#X restore 13 90 pd aoo.start.stop;
#X obj 237 24 loadbang;
#X msg 237 79 0;
#X obj 237 102 s \$3.aoo.link.status;
#X obj 245 50 r \$3.reset;
#N canvas 189 473 513 313 peer.com 0;
#X obj 297 59 r \$1.origin;
#X obj 235 32 r \$1.oscrecv;
#X obj 19 216 s \$1.oscsend;
#X obj 19 49 route dest;
#X obj 88 66 r \$3.peer.name;
#X obj 19 119 list prepend;
#X obj 88 91 list append tpf link;
#X obj 19 142 list prepend dest;
#X obj 19 165 list trim;
#X obj 46 88 list;
#X obj 132 143 r \$3.peer.state;
#X obj 132 167 > 0;
#X obj 19 190 spigot;
#X msg 297 82 symbol \$2;
#X obj 297 139 select ---;
#X obj 354 108 r \$3.peer.name;
#X msg 297 162 1;
#X msg 354 164 0;
#X obj 235 193 spigot;
#X obj 235 216 route tpf;
#X obj 235 239 route link;
#X obj 19 26 r \$0.to.peer;
#X obj 235 262 s \$0.from.peer;
#X connect 0 0 13 0;
#X connect 1 0 18 0;
#X connect 3 0 5 0;
#X connect 3 1 9 0;
#X connect 4 0 6 0;
#X connect 5 0 7 0;
#X connect 6 0 5 1;
#X connect 7 0 8 0;
#X connect 8 0 12 0;
#X connect 9 0 12 0;
#X connect 10 0 11 0;
#X connect 11 0 12 1;
#X connect 12 0 2 0;
#X connect 13 0 14 0;
#X connect 14 0 16 0;
#X connect 14 1 17 0;
#X connect 15 0 14 1;
#X connect 16 0 18 1;
#X connect 17 0 18 1;
#X connect 18 0 19 0;
#X connect 19 0 20 0;
#X connect 20 0 22 0;
#X connect 21 0 3 0;
#X restore 13 19 pd peer.com;
#N canvas 315 150 622 347 info 0;
#X obj 12 11 r \$3.from.aoo.s;
#X obj 311 26 r \$3.from.aoo.r;
#X obj 12 57 list;
#X obj 12 80 list append;
#X obj 12 34 route sink_add format;
#X obj 73 59 list;
#X obj 12 128 s \$1.info;
#X obj 311 49 route source_format;
#X obj 311 72 list;
#X obj 311 118 s \$1.info;
#X msg 311 95 [\$2] receiving \$5 channels: codec=\$4\\\, sr=\$7;
#X msg 12 103 [\$2] sending \$5 channels: codec=\$4\\\, sr=\$7;
#X obj 17 166 r \$3.from.aoo.s;
#X obj 318 164 r \$3.from.aoo.r;
#X obj 318 187 route source_remove;
#X obj 17 189 route sink_remove;
#X obj 17 212 list;
#X msg 17 235 [\$2] disconnected;
#X obj 17 258 s \$1.info;
#X connect 0 0 4 0;
#X connect 1 0 7 0;
#X connect 2 0 3 0;
#X connect 3 0 11 0;
#X connect 4 0 2 0;
#X connect 4 1 5 0;
#X connect 5 0 3 1;
#X connect 7 0 8 0;
#X connect 8 0 10 0;
#X connect 10 0 9 0;
#X connect 11 0 6 0;
#X connect 12 0 15 0;
#X connect 13 0 14 0;
#X connect 15 0 16 0;
#X connect 16 0 17 0;
#X connect 17 0 18 0;
#X restore 12 165 pd info;
#N canvas 32 529 1272 378 init.connection 0;
#X obj 23 182 s \$3.aoo.link.status;
#X obj 23 132 del 0;
#X msg 23 154 5;
#X obj 468 58 r \$3.tx.switch.s;
#X obj 493 81 r \$3.aoo.link.status;
#X obj 468 81 f;
#X obj 468 129 f;
#X obj 468 151 sel 1;
#X obj 468 172 t b b, f 11;
#X obj 468 275 s \$3.aoo.link.status;
#X obj 468 198 del 0;
#X obj 468 104 sel 6;
#X msg 468 252 7;
#X obj 760 169 r \$3.aoo.link.status;
#X obj 735 169 f;
#X obj 735 192 sel 5;
#X obj 735 213 f;
#X obj 735 257 s \$3.aoo.link.status;
#X msg 735 235 7;
#N canvas 58 279 755 431 deal.with.race.condition 0;
#X obj 52 85 r \$3.aoo.link.status;
#X obj 27 85 f;
#X obj 27 168 sel 0 4;
#X obj 27 193 f;
#X obj 27 215 sel 1;
#X obj 27 329 s \$3.aoo.link.status;
#X msg 27 308 6;
#X obj 27 18 inlet;
#X obj 223 155 f;
#X obj 223 177 sel 1;
#X obj 223 130 sel 5;
#X obj 223 225 s \$3.aoo.link.status;
#X msg 223 204 7;
#X text 354 17 When both clients initiatate a connection simultaneously
\, their requests cross each other and we want to establish a connecction
immediately without confirmation (before we dealt with that situation
\, both clients flashed blue happily waiting for confirmation).;
#X obj 250 155 r \$3.peer.state;
#X obj 54 193 r \$3.peer.state;
#X connect 0 0 1 1;
#X connect 1 0 2 0;
#X connect 2 0 3 0;
#X connect 2 1 3 0;
#X connect 2 2 10 0;
#X connect 3 0 4 0;
#X connect 4 0 6 0;
#X connect 6 0 5 0;
#X connect 7 0 1 0;
#X connect 8 0 9 0;
#X connect 9 0 12 0;
#X connect 10 0 8 0;
#X connect 10 1 8 0;
#X connect 12 0 11 0;
#X connect 14 0 8 1;
#X connect 15 0 3 1;
#X restore 258 172 pd deal.with.race.condition;
#X obj 92 153 s \$0.to.peer;
#X obj 23 81 t b b, f 12;
#X obj 92 106 f \$2, f 5;
#X obj 258 57 r \$0.from.peer;
#X obj 258 81 route initiate;
#X obj 285 148 s \$3.peer.id;
#X obj 258 124 t b a;
#X obj 531 198 f \$2;
#X obj 531 246 s \$0.to.peer;
#X msg 531 224 dest confirm p2p \, \$1;
#X obj 735 58 r \$0.from.peer;
#X obj 735 82 route confirm;
#X obj 735 102 route p2p;
#X obj 762 148 s \$3.peer.id;
#X obj 735 124 t b a;
#X obj 762 213 r \$3.peer.state;
#X text 35 18 1) SEND INIT;
#X text 250 19 2) HANDLE INIT REQUEST;
#X text 465 20 3) CONFIRM;
#X text 732 20 4) HANDLE CONFIRMATION;
#X obj 495 129 r \$3.peer.state;
#X text 973 80 0 = reset;
#X text 974 158 4 = aborted;
#X text 974 179 5 = waiting for peer (p2p);
#X text 975 198 6 = waiting for user (p2p);
#X text 975 219 7 = connected (p2p);
#X text 971 36 aoo.link.status;
#X text 971 49 ===============;
#X msg 92 128 dest initiate \, \$1;
#X text 973 100 1 = waiting for peer (proxy) NOT USED;
#X text 973 120 2 = waiting for user (proxy) NOT USED;
#X text 975 141 3 = connected (proxy) NOT USED;
#X obj 23 60 r \$3.initiate;
#X connect 1 0 2 0;
#X connect 2 0 0 0;
#X connect 3 0 5 0;
#X connect 4 0 5 1;
#X connect 5 0 11 0;
#X connect 6 0 7 0;
#X connect 7 0 8 0;
#X connect 8 0 10 0;
#X connect 8 1 27 0;
#X connect 10 0 12 0;
#X connect 11 0 6 0;
#X connect 12 0 9 0;
#X connect 13 0 14 1;
#X connect 14 0 15 0;
#X connect 15 0 16 0;
#X connect 16 0 18 0;
#X connect 18 0 17 0;
#X connect 21 0 1 0;
#X connect 21 1 22 0;
#X connect 22 0 48 0;
#X connect 23 0 24 0;
#X connect 24 0 26 0;
#X connect 26 0 19 0;
#X connect 26 1 25 0;
#X connect 27 0 29 0;
#X connect 29 0 28 0;
#X connect 30 0 31 0;
#X connect 31 0 32 0;
#X connect 32 0 34 0;
#X connect 34 0 14 0;
#X connect 34 1 33 0;
#X connect 35 0 16 1;
#X connect 40 0 6 1;
#X connect 48 0 20 0;
#X connect 52 0 21 0;
#X restore 13 65 pd init.connection;
#N canvas 0 103 621 461 format 0;
#X obj 143 83 r \$1.channels;
#X obj 230 83 r \$1.blocksize;
#X obj 65 108 pack f f f, f 28;
#X obj 65 83 samplerate~;
#X text 122 59 ==== set format ==================;
#X msg 65 132 format pcm \$2 \$3 \$1 2;
#X text 200 131 ch bs sr bd;
#X obj 65 155 s \$3.to.aoo.s;
#X obj 65 26 r \$0.set.format;
#X obj 7 334 s \$3.to.aoo.s;
#X floatatom 108 216 5 0 0 0 - - -;
#X floatatom 204 233 10 0 0 0 - - -;
#X msg 9 286 format pcm 2 \$1 44100 2;
#N canvas 543 103 887 643 format 0;
#X msg 194 194 48000;
#X obj 105 171 nbx 5 14 -1e+37 1e+37 0 0 empty empty empty 0 -8 0 10
#fcfcfc #000000 #000000 0 256;
#X obj 183 171 nbx 5 14 -1e+37 1e+37 0 0 empty empty empty 0 -8 0 10
#fcfcfc #000000 #000000 0 256;
#X text 177 148 samplerate;
#X obj 499 135 nbx 5 14 -1e+37 1e+37 0 0 empty empty empty 0 -8 0 10
#fcfcfc #000000 #000000 320 256;
#X obj 501 371 nbx 5 14 0 10 0 0 empty empty empty 0 -8 0 10 #fcfcfc
#000000 #000000 10 256;
#X msg 49 489 format opus;
#X text 139 489 all arguments are optional!;
#X text 496 310 complexity (0 - 10);
#X text 497 456 signal type;
#X msg 500 503 auto;
#X msg 542 503 music;
#X msg 592 503 voice;
#X text 100 149 blocksize;
#X msg 199 221 24000;
#X text 497 333 higher values give better quality but need more CPU
power. the default is 9, f 38;
#X msg 204 249 16000;
#X msg 208 277 12000;
#X msg 215 303 8000;
#X obj 37 172 nbx 5 14 -1e+37 1e+37 0 0 empty empty empty 0 -8 0 10
#fcfcfc #000000 #000000 2 256;
#X text 31 149 channels;
#X text 570 134 NOTE: this is the *total* bitrate!;
#X text 31 23 Opus codec (compressed);
#X text 31 50 Opus is a low latency codec explicitly designed for streaming
audio over the internet \, see http://opus-codec.org/, f 63;
#X text 30 86 It offers good audio quality even at low data rates and
does packet loss concealment to hide the effects of packet loss in
unreliable networks., f 61;
#X text 264 149 application type;
#X msg 274 179 audio;
#X msg 281 215 voip;
#X msg 286 253 lowdelay;
#X msg 116 194 120;
#X msg 123 221 240;
#X msg 126 249 480;
#X msg 132 276 960;
#X msg 137 303 1920;
#X msg 52 405 format opus <nchannels> <blocksize> <samplerate> <application>
, f 37;
#X text 54 540 (here we only specify the blocksize and application
type), f 58;
#X text 359 246 optimize for low latency, f 13;
#X text 326 174 high fidelity (default), f 15;
#X text 327 209 optimize for VoIP applications, f 18;
#X msg 664 261 codec_get bitrate;
#X text 663 237 get current bitrate;
#X text 665 371 get current complexity;
#X msg 656 395 codec_get complexity;
#X text 659 544 get current signal type;
#X msg 499 251 codec_set bitrate \$1;
#X obj 274 313 symbol;
#X obj 36 373 pack 2 480 48000 s, f 39;
#X obj 105 340 t b a;
#X obj 183 340 t b a;
#X obj 274 342 t b a;
#X msg 501 396 codec_set complexity \$1;
#X obj 500 536 symbol;
#X msg 500 563 codec_set signal \$1;
#X msg 661 571 codec_get signal;
#X text 497 63 NOTE: you must first set the format to "opus"!;
#X text 498 113 bitrate (kbit/s);
#X msg 36 454 format opus \$1 \$2 \$3 \$4;
#X obj 332 313 loadbang;
#X msg 332 337 symbol audio;
#X text 57 518 you can skip individual arguments with "_";
#X msg 56 566 format opus _ 240 _ lowdelay;
#X text 495 35 Additional codec parameters;
#X text 496 81 parameters are reset with each [format( message!;
#X msg 516 213 symbol max;
#X msg 508 184 symbol auto;
#X text 509 157 64 kbit/s per channel is considered transparent.;
#X text 600 183 use automatic bitrate;
#X text 600 213 use maximum bitrate;
#X text 497 477 optimize for music or speech \, or use auto mode;
#X obj 35 602 s \$3.to.aoo.s;
#X obj 499 288 s \$3.to.aoo.s;
#X obj 501 430 s \$3.to.aoo.s;
#X obj 496 617 s \$3.to.aoo.s;
#X connect 0 0 48 0;
#X connect 1 0 47 0;
#X connect 2 0 48 0;
#X connect 4 0 44 0;
#X connect 5 0 50 0;
#X connect 6 0 69 0;
#X connect 10 0 51 0;
#X connect 11 0 51 0;
#X connect 12 0 51 0;
#X connect 14 0 48 0;
#X connect 16 0 48 0;
#X connect 17 0 48 0;
#X connect 18 0 48 0;
#X connect 19 0 46 0;
#X connect 26 0 45 0;
#X connect 27 0 45 0;
#X connect 28 0 45 0;
#X connect 29 0 47 0;
#X connect 30 0 47 0;
#X connect 31 0 47 0;
#X connect 32 0 47 0;
#X connect 33 0 47 0;
#X connect 39 0 70 0;
#X connect 42 0 71 0;
#X connect 44 0 70 0;
#X connect 45 0 49 0;
#X connect 46 0 56 0;
#X connect 47 0 46 0;
#X connect 47 1 46 1;
#X connect 48 0 46 0;
#X connect 48 1 46 2;
#X connect 49 0 46 0;
#X connect 49 1 46 3;
#X connect 50 0 71 0;
#X connect 51 0 52 0;
#X connect 52 0 72 0;
#X connect 53 0 72 0;
#X connect 56 0 69 0;
#X connect 57 0 58 0;
#X connect 58 0 46 3;
#X connect 60 0 69 0;
#X connect 63 0 44 0;
#X connect 64 0 44 0;
#X restore 305 343 pd format opus;
#X obj 478 178 r \$3.to.aoo.s;
#X obj 480 231 print FROM;
#X obj 424 325 route bitrate;
#X obj 424 348 print BITRATE;
#X obj 424 302 route codec_get;
#X connect 0 0 2 1;
#X connect 1 0 2 2;
#X connect 2 0 5 0;
#X connect 3 0 2 0;
#X connect 5 0 7 0;
#X connect 8 0 3 0;
#X connect 10 0 12 0;
#X connect 11 0 12 0;
#X connect 12 0 9 0;
#X connect 14 0 15 0;
#X connect 14 0 18 0;
#X connect 16 0 17 0;
#X connect 18 0 16 0;
#X restore 13 115 pd format;
#X connect 3 0 4 0;
#X connect 4 0 5 0;
#X connect 6 0 4 0;
