#N canvas 0 103 406 243 10;
#N canvas 277 523 1094 427 gui.code 0;
#X obj 744 19 r \$3.reset;
#X obj 811 38 sel 0;
#X obj 744 60 s \$3.display.reset;
#X obj 621 297 s \$3.glitch.label;
#X obj 652 317 s \$3.ooo.label;
#X obj 626 208 r \$3.display.reset;
#X msg 626 228 label empty;
#X obj 334 60 makefilename %4d;
#X msg 334 80 label \$1;
#X obj 334 100 s \$3.dropped.label;
#X obj 598 276 s \$3.dropped.label;
#X msg 514 178 0;
#X obj 464 60 makefilename %4d;
#X msg 464 80 label \$1;
#X obj 594 60 makefilename %4d;
#X msg 594 80 label \$1;
#X obj 464 100 s \$3.glitch.label;
#X obj 594 100 s \$3.ooo.label;
#X obj 285 165 route inchannels;
#X obj 285 185 makefilename %4d;
#X msg 285 205 label \$1;
#X obj 285 225 s \$3.channels.label;
#X obj 665 337 s \$3.channels.label;
#N canvas 653 155 946 796 tx.button 0;
#X obj 47 429 s \$3.tx.switch.r;
#X msg 47 400 color \$1 \$2 \$3;
#X msg 47 348 0 0 0;
#X msg 183 210 1;
#X msg 212 210 0;
#X obj 158 278 spigot;
#X obj 158 163 r \$3.blink.clock;
#X obj 158 299 sel 0 1;
#X msg 322 210 0;
#X obj 268 278 spigot;
#X obj 268 163 r \$3.blink.clock;
#X obj 268 299 sel 0 1;
#X msg 293 210 1;
#X obj 47 60 r \$3.aoo.link.status;
#X obj 242 41 r \$3.display.reset;
#X obj 47 88 t a a a a a;
#X msg 226 354 224 224 224;
#X msg 95 350 128 0 255;
#X msg 308 356 0 0 255;
#X msg 442 210 0;
#X obj 388 278 spigot;
#X obj 388 163 r \$3.blink.clock;
#X obj 388 299 sel 0 1;
#X msg 413 210 1;
#X msg 545 210 0;
#X obj 491 278 spigot;
#X obj 491 163 r \$3.blink.clock;
#X obj 491 299 sel 0 1;
#X msg 516 210 1;
#X msg 155 350 0 255 0;
#X msg 367 356 255 255 0;
#X obj 603 363 r \$3.tx.switch.s;
#X obj 631 386 r \$3.aoo.link.status;
#X obj 603 386 f;
#X obj 603 409 sel 0;
#X obj 603 597 del 300;
#X msg 641 572 stop;
#X obj 603 482 f;
#X obj 688 488 + 1;
#X obj 603 504 t a a;
#X obj 603 528 sel 0 1;
#X obj 622 550 t b b b;
#X msg 707 525 0;
#X obj 603 618 t b b;
#X obj 603 435 f;
#X obj 603 457 sel 1;
#X obj 176 235 t a a;
#X obj 413 231 t a a;
#X obj 631 652 r \$3.aoo.link.status;
#X obj 603 652 f;
#X obj 603 675 sel 0;
#X obj 630 435 r \$3.peer.state;
#X obj 790 616 r \$3.aoo.link.status;
#X obj 762 616 f;
#X obj 762 639 sel 0;
#X text 638 78 0 = reset;
#X text 639 156 4 = aborted;
#X text 640 139 3 = connected (stun);
#X text 638 98 1 = waiting for peer (proxy);
#X text 638 118 2 = waiting for user (proxy);
#X text 639 177 5 = waiting for peer (p2p);
#X text 640 196 6 = waiting for user (p2p);
#X text 640 217 7 = connected (p2p);
#X text 636 34 aoo.link.status;
#X text 636 47 ===============;
#X obj 603 700 s \$3.initiate.proxy;
#X obj 762 662 s \$3.initiate.p2p;
#X obj 183 189 sel 5;
#X obj 293 189 sel 6;
#X obj 414 189 sel 1;
#X obj 516 189 sel 2;
#X obj 47 136 select 0 7 4 3;
#X connect 1 0 0 0;
#X connect 2 0 1 0;
#X connect 3 0 46 0;
#X connect 4 0 5 1;
#X connect 5 0 7 0;
#X connect 6 0 5 0;
#X connect 7 0 2 0;
#X connect 7 1 17 0;
#X connect 8 0 9 1;
#X connect 9 0 11 0;
#X connect 10 0 9 0;
#X connect 11 0 2 0;
#X connect 11 1 29 0;
#X connect 12 0 9 1;
#X connect 13 0 15 0;
#X connect 14 0 2 0;
#X connect 15 0 71 0;
#X connect 15 1 67 0;
#X connect 15 2 68 0;
#X connect 15 3 69 0;
#X connect 15 4 70 0;
#X connect 16 0 1 0;
#X connect 17 0 1 0;
#X connect 18 0 1 0;
#X connect 19 0 20 1;
#X connect 20 0 22 0;
#X connect 21 0 20 0;
#X connect 22 0 2 0;
#X connect 22 1 18 0;
#X connect 23 0 47 0;
#X connect 24 0 25 1;
#X connect 25 0 27 0;
#X connect 26 0 25 0;
#X connect 27 0 2 0;
#X connect 27 1 30 0;
#X connect 28 0 25 1;
#X connect 29 0 1 0;
#X connect 30 0 1 0;
#X connect 31 0 33 0;
#X connect 32 0 33 1;
#X connect 33 0 34 0;
#X connect 34 0 44 0;
#X connect 35 0 43 0;
#X connect 36 0 35 0;
#X connect 37 0 39 0;
#X connect 38 0 37 1;
#X connect 39 0 40 0;
#X connect 39 1 38 0;
#X connect 40 0 35 0;
#X connect 40 0 18 0;
#X connect 40 1 41 0;
#X connect 41 0 53 0;
#X connect 41 1 36 0;
#X connect 41 2 42 0;
#X connect 42 0 37 1;
#X connect 43 0 49 0;
#X connect 43 1 42 0;
#X connect 44 0 45 0;
#X connect 45 0 37 0;
#X connect 46 0 5 0;
#X connect 46 1 5 1;
#X connect 47 0 20 0;
#X connect 47 1 20 1;
#X connect 48 0 49 1;
#X connect 49 0 50 0;
#X connect 50 0 65 0;
#X connect 51 0 44 1;
#X connect 52 0 53 1;
#X connect 53 0 54 0;
#X connect 54 0 66 0;
#X connect 67 0 3 0;
#X connect 67 1 4 0;
#X connect 68 0 12 0;
#X connect 68 1 8 0;
#X connect 69 0 23 0;
#X connect 69 1 19 0;
#X connect 70 0 28 0;
#X connect 70 1 24 0;
#X connect 71 0 2 0;
#X connect 71 1 17 0;
#X connect 71 2 16 0;
#X connect 71 3 18 0;
#X restore 15 73 pd tx.button;
#X obj 805 138 metro 500;
#X obj 805 159 == 0;
#X obj 805 180 t a a;
#X obj 805 110 loadbang;
#X obj 805 204 s \$3.blink.clock;
#X obj 514 127 r \$3.aoo.link.status;
#X obj 514 148 sel 3;
#N canvas 625 406 491 361 rx.button 0;
#X obj 16 76 sel 0 1;
#X obj 16 269 s \$3.rx.switch.r;
#X msg 16 246 color \$1 \$2 \$3;
#X obj 278 141 r \$3.display.reset;
#X msg 278 190 0 0 0;
#X obj 296 163 loadbang;
#X obj 31 103 r \$3.aoo.link.status;
#X obj 16 128 f;
#X obj 16 155 sel 0;
#X obj 86 140 sel 0;
#X msg 16 190 224 224 224;
#X obj 147 188 list append;
#X msg 167 108 128 0 255;
#X obj 167 55 r \$3.aoo.link.status;
#X msg 239 112 0 0 255;
#X obj 16 55 r \$3.receiving;
#X obj 167 80 sel 7 3;
#X connect 0 0 7 0;
#X connect 0 1 11 0;
#X connect 2 0 1 0;
#X connect 3 0 4 0;
#X connect 4 0 2 0;
#X connect 5 0 4 0;
#X connect 6 0 7 1;
#X connect 6 0 9 0;
#X connect 7 0 8 0;
#X connect 8 1 10 0;
#X connect 9 0 4 0;
#X connect 10 0 2 0;
#X connect 11 0 2 0;
#X connect 12 0 11 1;
#X connect 13 0 16 0;
#X connect 14 0 11 1;
#X connect 15 0 0 0;
#X connect 16 0 12 0;
#X connect 16 1 14 0;
#X restore 15 99 pd rx.button;
#N canvas 347 761 450 300 delay.nb 0;
#X obj 45 170 s \$3.delay.nb.r;
#X msg 45 144 color -1 \$1 -1;
#X msg 45 72 -1;
#X msg 81 76 0;
#X obj 45 17 r \$3.peer.ready;
#X obj 45 38 sel 0 1;
#X obj 81 97 t a a;
#X obj 228 74 s \$3.delay;
#X obj 228 44 r \$3.delay.nb.s;
#X connect 1 0 0 0;
#X connect 2 0 1 0;
#X connect 3 0 6 0;
#X connect 4 0 5 0;
#X connect 5 0 2 0;
#X connect 5 1 3 0;
#X connect 6 0 1 0;
#X connect 6 1 0 0;
#X connect 8 0 7 0;
#X restore 14 124 pd delay.nb;
#N canvas 339 360 431 345 peer.name 0;
#X obj 11 74 s \$3.client.label;
#X msg 11 46 label \$1;
#X obj 11 22 r \$3.peer.name;
#X obj 12 207 s \$3.client.label;
#X msg 12 179 color -1 -1 \$1;
#X msg 12 153 1;
#X msg 51 155 0;
#X msg 127 41 label empty;
#X obj 12 104 r \$3.peer.state;
#X obj 12 128 sel 0 1 2;
#X connect 1 0 0 0;
#X connect 2 0 1 0;
#X connect 4 0 3 0;
#X connect 5 0 4 0;
#X connect 6 0 4 0;
#X connect 7 0 0 0;
#X connect 8 0 9 0;
#X connect 9 0 5 0;
#X connect 9 1 6 0;
#X connect 9 2 6 0;
#X restore 17 18 pd peer.name;
#N canvas 428 518 482 325 arrow.up.down 0;
#X obj 12 16 r \$3.arrow.up;
#X obj 12 39 sel 0;
#X obj 54 40 t a;
#X obj 250 289 s \$3.arrow.up.r;
#X msg 250 249 color -1 -1 \$1;
#X msg 250 221 12;
#X msg 281 220 1;
#X obj 223 32 r \$3.peer.name;
#X obj 223 55 select empty;
#X msg 223 78 0;
#X msg 292 78 1;
#X obj 223 147 &&;
#X obj 330 91 t b a;
#X obj 223 103 t a;
#X obj 250 195 sel 0 1;
#X obj 12 63 f \$2;
#X obj 12 86 - 1;
#X obj 100 238 s \$3.swap.request;
#X obj 100 40 sel 0;
#X obj 142 41 t a;
#X obj 100 64 f \$2;
#X obj 100 17 r \$3.arrow.down;
#X obj 100 87 + 1;
#X obj 352 289 s \$3.arrow.down.r;
#X obj 223 170 t a a;
#X obj 100 148 spigot;
#X obj 330 57 != 2;
#X obj 330 31 r \$3.peer.state;
#X connect 0 0 1 0;
#X connect 1 0 15 0;
#X connect 1 1 2 0;
#X connect 2 0 1 1;
#X connect 4 0 3 0;
#X connect 4 0 23 0;
#X connect 5 0 4 0;
#X connect 6 0 4 0;
#X connect 7 0 8 0;
#X connect 8 0 9 0;
#X connect 8 1 10 0;
#X connect 9 0 13 0;
#X connect 10 0 13 0;
#X connect 11 0 24 0;
#X connect 12 0 11 0;
#X connect 12 1 11 1;
#X connect 13 0 11 0;
#X connect 14 0 5 0;
#X connect 14 1 6 0;
#X connect 15 0 16 0;
#X connect 16 0 25 0;
#X connect 18 0 20 0;
#X connect 18 1 19 0;
#X connect 19 0 18 1;
#X connect 20 0 22 0;
#X connect 21 0 18 0;
#X connect 22 0 25 0;
#X connect 24 0 25 1;
#X connect 24 1 14 0;
#X connect 25 0 17 0;
#X connect 26 0 12 0;
#X connect 27 0 26 0;
#X restore 16 46 pd arrow.up.down;
#X obj 811 18 r \$3.peer.state;
#X connect 0 0 2 0;
#X connect 1 0 2 0;
#X connect 5 0 6 0;
#X connect 6 0 3 0;
#X connect 6 0 4 0;
#X connect 6 0 10 0;
#X connect 6 0 22 0;
#X connect 7 0 8 0;
#X connect 8 0 9 0;
#X connect 11 0 7 0;
#X connect 11 0 12 0;
#X connect 11 0 14 0;
#X connect 11 0 19 0;
#X connect 12 0 13 0;
#X connect 13 0 16 0;
#X connect 14 0 15 0;
#X connect 15 0 17 0;
#X connect 18 0 19 0;
#X connect 19 0 20 0;
#X connect 20 0 21 0;
#X connect 24 0 25 0;
#X connect 25 0 26 0;
#X connect 26 0 28 0;
#X connect 26 1 25 1;
#X connect 27 0 24 0;
#X connect 29 0 30 0;
#X connect 30 0 11 0;
#X connect 35 0 1 0;
#X restore 13 137 pd gui.code;
#N canvas 295 122 994 772 peer.assignment 0;
#X obj 8 50 loadbang;
#X msg 8 73 symbol empty;
#X text 7 15 === init peer ===;
#X obj 8 96 s \$3.peer.name;
#X obj 600 45 r \$3.swap.request;
#X obj 625 67 r \$3.peer.name;
#X obj 600 141 s \$1.intercom;
#X text 593 16 === swap peer link ===;
#X text 725 45 ----- REQUEST ---------;
#X obj 601 174 r \$1.intercom;
#X obj 601 197 route peer_swap_request;
#X obj 601 257 route \$2;
#X obj 601 220 spigot;
#X msg 670 326 \$2;
#X obj 716 325 r \$3.peer.name;
#X obj 670 395 s \$1.intercom;
#X text 715 174 ----- HANDLE REQUEST ---------;
#X text 713 305 ----- RESPONSE ---------;
#X obj 635 441 s \$3.peer.name;
#X text 715 507 ----- HANDLE RESPONSE ---------;
#X msg 635 418 symbol \$1;
#X obj 601 280 list;
#X obj 601 510 r \$1.intercom;
#X obj 601 533 route peer_swap_response;
#X obj 601 556 route \$2;
#X obj 633 654 s \$3.peer.name;
#X obj 46 365 r \$3.peer.name;
#X obj 13 392 symbol;
#X obj 13 339 route fetch_settings;
#X obj 13 362 b;
#X obj 13 415 list prepend \$2;
#X msg 13 440 save_settings peer_name \$1 \$2;
#X obj 12 518 route restore_settings;
#X obj 12 541 route peer_name;
#X obj 12 564 route \$2;
#X obj 12 587 symbol;
#X obj 12 610 s \$3.peer.name;
#X obj 13 316 r \$1.intercom;
#X obj 13 466 s \$1.intercom;
#X obj 12 495 r \$1.intercom;
#X obj 181 49 r \$1.intercom;
#X obj 181 72 route peer_reclaim;
#X obj 181 95 list;
#X msg 208 164 peer_reclaimed;
#X obj 208 187 s \$1.intercom;
#X obj 9 122 loadbang;
#X obj 9 168 s \$3.peer.state;
#X msg 9 145 0;
#X text 12 192 states:;
#X text 12 202 =======;
#X text 12 222 0: offline;
#X text 12 242 1: online;
#X text 12 262 0: streaming;
#X obj 219 118 r \$3.peer.name;
#X obj 181 118 sel -;
#X obj 181 232 s \$3.peer.state;
#X obj 181 141 t b b;
#X msg 181 208 1;
#X obj 346 48 r \$1.intercom;
#X obj 346 71 route peer_new;
#X obj 392 166 r \$3.peer.name;
#X obj 346 193 sel empty, f 23;
#X obj 346 115 list;
#X obj 373 240 symbol;
#X obj 346 216 t b b;
#X obj 373 263 s \$3.peer.name;
#X obj 346 310 s \$3.peer.state;
#X msg 346 286 1;
#X text 181 16 === reclaim ==========;
#X text 347 17 === grab ================;
#X obj 346 94 route \$2;
#X obj 346 138 t b a, f 12;
#X obj 346 167 symbol;
#X obj 481 221 b;
#X obj 481 248 symbol;
#X obj 481 271 t b a;
#X obj 481 294 f \$2;
#X obj 481 317 + 1;
#X obj 481 340 list append;
#X msg 481 363 peer_new \$1 \$2;
#X obj 481 386 s \$1.intercom;
#X text 218 427 === leave ==========;
#X obj 222 453 r \$1.intercom;
#X obj 222 476 route peer_leave;
#X obj 221 617 r \$1.intercom;
#X obj 221 640 route peer_leave_all;
#X obj 221 685 s \$3.peer.state;
#X msg 221 662 0;
#X obj 222 529 route -;
#X obj 261 503 r \$3.peer.name;
#X obj 222 575 s \$3.peer.state;
#X msg 222 552 0;
#X obj 600 95 pack f s \$2 f;
#X obj 690 93 r \$3.peer.state;
#X text 782 117 dst peername src state;
#X obj 669 221 r \$3.peer.state;
#X obj 669 244 != 2;
#X obj 807 325 r \$3.peer.state;
#X obj 670 349 pack f s f, f 16;
#X msg 670 372 peer_swap_response \$1 \$2 \$3;
#X text 842 373 dst peername state;
#X msg 601 441 \$3;
#X obj 601 464 s \$3.peer.state;
#X obj 601 579 list;
#X obj 601 602 t a a;
#X msg 633 632 symbol \$1;
#X msg 601 655 \$2;
#X obj 601 678 s \$3.peer.state;
#X msg 600 118 peer_swap_request \$1 \$2 \$3 \$4;
#X obj 601 303 t a a a, f 12;
#X obj 394 459 r \$3.client.reset;
#X obj 394 482 sel;
#X obj 423 483 t a;
#X obj 394 505 f;
#X obj 423 505 r \$3.peer.state;
#X obj 394 528 sel 0;
#X text 396 427 === reset ==========;
#X msg 393 659 symbol empty;
#X obj 393 682 s \$3.peer.name;
#X obj 394 576 del 300;
#X msg 394 610 0;
#X obj 394 551 t b b b;
#X msg 478 580 1;
#X obj 433 627 t a b;
#X obj 433 604 spigot 0;
#X connect 0 0 1 0;
#X connect 1 0 3 0;
#X connect 4 0 92 0;
#X connect 5 0 92 1;
#X connect 9 0 10 0;
#X connect 10 0 12 0;
#X connect 11 0 21 0;
#X connect 12 0 11 0;
#X connect 13 0 98 0;
#X connect 14 0 98 1;
#X connect 20 0 18 0;
#X connect 21 0 109 0;
#X connect 22 0 23 0;
#X connect 23 0 24 0;
#X connect 24 0 103 0;
#X connect 26 0 27 1;
#X connect 27 0 30 0;
#X connect 28 0 29 0;
#X connect 29 0 27 0;
#X connect 30 0 31 0;
#X connect 31 0 38 0;
#X connect 32 0 33 0;
#X connect 33 0 34 0;
#X connect 34 0 35 0;
#X connect 35 0 36 0;
#X connect 37 0 28 0;
#X connect 39 0 32 0;
#X connect 40 0 41 0;
#X connect 41 0 42 0;
#X connect 42 0 54 0;
#X connect 43 0 44 0;
#X connect 45 0 47 0;
#X connect 47 0 46 0;
#X connect 53 0 54 1;
#X connect 54 0 56 0;
#X connect 56 0 57 0;
#X connect 56 1 43 0;
#X connect 57 0 55 0;
#X connect 58 0 59 0;
#X connect 59 0 70 0;
#X connect 60 0 72 1;
#X connect 61 0 64 0;
#X connect 61 1 73 0;
#X connect 62 0 71 0;
#X connect 63 0 65 0;
#X connect 64 0 67 0;
#X connect 64 1 63 0;
#X connect 67 0 66 0;
#X connect 70 0 62 0;
#X connect 71 0 72 0;
#X connect 71 1 63 1;
#X connect 71 1 74 1;
#X connect 72 0 61 0;
#X connect 73 0 74 0;
#X connect 74 0 75 0;
#X connect 75 0 76 0;
#X connect 75 1 78 1;
#X connect 76 0 77 0;
#X connect 77 0 78 0;
#X connect 78 0 79 0;
#X connect 79 0 80 0;
#X connect 82 0 83 0;
#X connect 83 0 88 0;
#X connect 84 0 85 0;
#X connect 85 0 87 0;
#X connect 87 0 86 0;
#X connect 88 0 91 0;
#X connect 89 0 88 1;
#X connect 91 0 90 0;
#X connect 92 0 108 0;
#X connect 93 0 92 3;
#X connect 95 0 96 0;
#X connect 96 0 12 1;
#X connect 97 0 98 2;
#X connect 98 0 99 0;
#X connect 99 0 15 0;
#X connect 101 0 102 0;
#X connect 103 0 104 0;
#X connect 104 0 106 0;
#X connect 104 1 105 0;
#X connect 105 0 25 0;
#X connect 106 0 107 0;
#X connect 108 0 6 0;
#X connect 109 0 101 0;
#X connect 109 1 20 0;
#X connect 109 2 13 0;
#X connect 110 0 111 0;
#X connect 111 0 113 0;
#X connect 111 1 112 0;
#X connect 112 0 111 1;
#X connect 113 0 115 0;
#X connect 114 0 113 1;
#X connect 115 0 121 0;
#X connect 117 0 118 0;
#X connect 119 0 120 0;
#X connect 120 0 124 1;
#X connect 121 0 119 0;
#X connect 121 1 122 0;
#X connect 121 2 124 0;
#X connect 122 0 124 1;
#X connect 123 0 117 0;
#X connect 123 1 120 0;
#X connect 124 0 123 0;
#X restore 13 42 pd peer.assignment;
#N canvas 200 148 992 604 aoo.start.stop 0;
#X obj 142 153 r \$1.channels;
#X obj 229 153 r \$1.blocksize;
#X obj 25 70 r \$3.aoo.link.status;
#X obj 355 68 r \$3.tx.switch.s;
#X obj 383 91 r \$3.aoo.link.status;
#X obj 355 91 f;
#X obj 355 528 s \$3.aoo.link.status;
#X msg 355 506 0;
#X obj 355 148 t b b;
#X obj 355 485 del 0;
#X obj 64 122 sel 3 7;
#X obj 355 114 sel 1 3 4 5 7;
#X obj 64 178 pack f f f, f 28;
#X obj 64 153 samplerate~;
#X obj 382 198 s \$0.to.peer;
#X obj 382 221 r \$0.from.peer;
#X obj 382 245 route stop;
#X text 121 129 ==== set format ==================;
#X obj 355 319 t b b b, f 13;
#X obj 455 296 r \$0.destination;
#X obj 392 368 list append;
#X msg 392 417 remove \$1 \$2 \$3;
#X obj 495 170 sel 0;
#X obj 495 148 r \$3.peer.state;
#X obj 523 194 r \$3.aoo.link.status;
#X obj 495 194 f;
#X text 26 29 ==== start streaming ============;
#X text 348 30 ==== stop streaming ============;
#X obj 455 319 t b a;
#X msg 455 343 1;
#X obj 392 346 spigot;
#X obj 392 391 t a b;
#X msg 480 385 0;
#X msg 430 448 stop;
#X msg 382 174 dest stop \, bang;
#X msg 64 202 format pcm \$2 \$3 \$1 2;
#X text 199 201 ch bs sr bd;
#X obj 738 90 route source_state;
#X obj 738 113 list;
#X msg 738 136 \$4;
#X obj 738 163 s \$3.receiving;
#X obj 728 350 list;
#X obj 728 327 route source_format;
#X msg 728 373 \$5;
#X obj 728 396 s \$3.inchannels;
#X obj 495 217 sel 0;
#X obj 392 472 s \$3.to.aoo.s;
#X obj 64 225 s \$3.to.aoo.s;
#X obj 738 67 r \$3.from.aoo.r;
#X obj 728 304 r \$3.from.aoo.r;
#X text 733 32 ==== detect receiving ======;
#X text 730 268 ==== detect received channels ======;
#X obj 25 98 t a a a;
#N canvas 0 103 450 342 start.p2p 0;
#X msg 20 230 start;
#X obj 105 73 r \$3.peer.name;
#X obj 105 99 r \$3.peer.id;
#X obj 20 99 list append;
#X obj 105 46 r \$1.room;
#X obj 20 72 list append;
#X obj 20 46 symbol;
#X obj 20 123 t a a;
#X obj 47 148 s \$0.destination;
#X msg 20 177 add \$1 \$2 \$3;
#X obj 20 261 s \$3.to.aoo.s;
#X obj 20 13 inlet;
#X obj 20 200 t b a b, f 15;
#X msg 152 229 port 33012;
#X obj 164 251 s \$3.to.aoo.s;
#X obj 152 272 s \$3.to.aoo.r;
#X connect 0 0 10 0;
#X connect 1 0 5 1;
#X connect 2 0 3 1;
#X connect 3 0 7 0;
#X connect 4 0 6 1;
#X connect 5 0 3 0;
#X connect 6 0 5 0;
#X connect 7 0 9 0;
#X connect 7 1 8 0;
#X connect 9 0 12 0;
#X connect 11 0 6 0;
#X connect 12 0 0 0;
#X connect 12 1 10 0;
#X connect 12 2 13 0;
#X connect 13 0 15 0;
#X connect 13 0 14 0;
#X restore 65 308 pd start.p2p;
#X obj 25 273 sel 3 7, f 14;
#N canvas 119 173 997 467 start.proxy 0;
#X msg 20 270 start;
#X msg 20 210 add \$1 \$2 \$3;
#X obj 20 301 s \$3.to.aoo.s;
#X obj 20 13 inlet;
#X obj 276 305 s \$3.to.aoo.s;
#X obj 264 326 s \$3.to.aoo.r;
#X obj 20 240 t b a b, f 15;
#X msg 264 283 port \$1;
#X obj 473 208 r \$0.token;
#X obj 111 93 r \$1.host;
#X obj 111 116 r \$1.audioport;
#X obj 111 139 r \$3.peer.id;
#X obj 20 93 symbol;
#X obj 20 116 list append;
#X obj 20 139 list append;
#X obj 20 163 t a a;
#X obj 47 188 s \$0.destination;
#X obj 427 398 netsend -u -b;
#X obj 427 263 list fromsymbol;
#X obj 427 286 list prepend send;
#X obj 427 309 list trim;
#X msg 366 340 disconnect;
#X obj 366 179 t b b a, f 21;
#X obj 347 127 t a a b;
#X msg 427 236 symbol _TOKEN\\\ \$1;
#X obj 427 208 symbol;
#X obj 543 273 r \$1.host;
#X obj 549 295 r \$1.audioport;
#X obj 489 321 pack f s f;
#X msg 489 346 connect \$2 \$3 \$1;
#X msg 386 150 0;
#X obj 20 54 t b b, f 55;
#X text 285 15 ==== send token and set port ===============================
;
#X text 62 17 ==== start connection ========;
#N canvas 0 103 412 180 random.bind.port 0;
#X obj 16 11 inlet;
#X obj 16 143 outlet;
#X obj 16 36 t b b;
#X obj 16 94 random 32768;
#X obj 16 117 + 32768;
#N canvas 0 103 340 255 seed 0;
#X obj 21 146 timer;
#X msg 21 169 seed \$1;
#X obj 48 96 sel 0;
#X obj 48 119 t b b;
#X msg 101 105 1;
#X msg 48 73 0;
#X obj 48 34 inlet;
#X obj 21 192 outlet;
#X connect 0 0 1 0;
#X connect 1 0 7 0;
#X connect 2 0 3 0;
#X connect 3 0 0 1;
#X connect 3 1 4 0;
#X connect 4 0 2 1;
#X connect 5 0 2 0;
#X connect 6 0 5 0;
#X restore 43 62 pd seed;
#X connect 0 0 2 0;
#X connect 2 0 3 0;
#X connect 2 1 5 0;
#X connect 3 0 4 0;
#X connect 4 0 1 0;
#X connect 5 0 3 0;
#X restore 347 86 pd random.bind.port;
#X connect 0 0 2 0;
#X connect 1 0 6 0;
#X connect 3 0 31 0;
#X connect 6 0 0 0;
#X connect 6 1 2 0;
#X connect 7 0 5 0;
#X connect 7 0 4 0;
#X connect 8 0 25 1;
#X connect 9 0 12 1;
#X connect 10 0 13 1;
#X connect 11 0 14 1;
#X connect 12 0 13 0;
#X connect 13 0 14 0;
#X connect 14 0 15 0;
#X connect 15 0 1 0;
#X connect 15 1 16 0;
#X connect 18 0 19 0;
#X connect 19 0 20 0;
#X connect 20 0 17 0;
#X connect 21 0 17 0;
#X connect 22 0 21 0;
#X connect 22 1 25 0;
#X connect 22 2 28 0;
#X connect 23 0 7 0;
#X connect 23 1 22 0;
#X connect 23 2 30 0;
#X connect 24 0 18 0;
#X connect 25 0 24 0;
#X connect 26 0 28 1;
#X connect 27 0 28 2;
#X connect 28 0 29 0;
#X connect 29 0 17 0;
#X connect 30 0 7 0;
#X connect 31 0 12 0;
#X connect 31 1 34 0;
#X connect 34 0 23 0;
#X restore 25 339 pd start.proxy;
#X obj 495 241 t b b;
#X msg 573 276 remove;
#X obj 573 298 s \$3.to.aoo.s;
#X connect 0 0 12 1;
#X connect 1 0 12 2;
#X connect 2 0 52 0;
#X connect 3 0 5 0;
#X connect 4 0 5 1;
#X connect 5 0 11 0;
#X connect 7 0 6 0;
#X connect 8 0 18 0;
#X connect 8 1 34 0;
#X connect 9 0 7 0;
#X connect 10 0 13 0;
#X connect 10 1 13 0;
#X connect 11 0 8 0;
#X connect 11 1 8 0;
#X connect 11 2 8 0;
#X connect 11 3 8 0;
#X connect 11 4 8 0;
#X connect 12 0 35 0;
#X connect 13 0 12 0;
#X connect 15 0 16 0;
#X connect 16 0 18 0;
#X connect 18 0 9 0;
#X connect 18 1 30 0;
#X connect 18 2 33 0;
#X connect 19 0 28 0;
#X connect 20 0 31 0;
#X connect 21 0 46 0;
#X connect 22 0 25 0;
#X connect 23 0 22 0;
#X connect 24 0 25 1;
#X connect 25 0 45 0;
#X connect 28 0 29 0;
#X connect 28 1 20 1;
#X connect 29 0 30 1;
#X connect 30 0 20 0;
#X connect 31 0 21 0;
#X connect 31 1 32 0;
#X connect 32 0 30 1;
#X connect 33 0 46 0;
#X connect 34 0 14 0;
#X connect 35 0 47 0;
#X connect 37 0 38 0;
#X connect 38 0 39 0;
#X connect 39 0 40 0;
#X connect 41 0 43 0;
#X connect 42 0 41 0;
#X connect 43 0 44 0;
#X connect 45 1 56 0;
#X connect 48 0 37 0;
#X connect 49 0 42 0;
#X connect 52 0 54 0;
#X connect 52 2 10 0;
#X connect 54 0 55 0;
#X connect 54 1 53 0;
#X connect 56 0 57 0;
#X connect 56 1 18 0;
#X connect 57 0 58 0;
#X restore 13 113 pd aoo.start.stop;
#X obj 237 24 loadbang;
#X msg 237 79 0;
#X obj 237 102 s \$3.aoo.link.status;
#X obj 245 50 r \$3.reset;
#N canvas 189 473 513 313 peer.com 0;
#X obj 297 59 r \$1.origin;
#X obj 235 32 r \$1.oscrecv;
#X obj 19 216 s \$1.oscsend;
#X obj 19 49 route dest;
#X obj 88 66 r \$3.peer.name;
#X obj 19 119 list prepend;
#X obj 88 91 list append tpf link;
#X obj 19 142 list prepend dest;
#X obj 19 165 list trim;
#X obj 46 88 list;
#X obj 132 143 r \$3.peer.state;
#X obj 132 167 > 0;
#X obj 19 190 spigot;
#X msg 297 82 symbol \$2;
#X obj 297 139 select ---;
#X obj 354 108 r \$3.peer.name;
#X msg 297 162 1;
#X msg 354 164 0;
#X obj 235 193 spigot;
#X obj 235 216 route tpf;
#X obj 235 239 route link;
#X obj 19 26 r \$0.to.peer;
#X obj 235 262 s \$0.from.peer;
#X connect 0 0 13 0;
#X connect 1 0 18 0;
#X connect 3 0 5 0;
#X connect 3 1 9 0;
#X connect 4 0 6 0;
#X connect 5 0 7 0;
#X connect 6 0 5 1;
#X connect 7 0 8 0;
#X connect 8 0 12 0;
#X connect 9 0 12 0;
#X connect 10 0 11 0;
#X connect 11 0 12 1;
#X connect 12 0 2 0;
#X connect 13 0 14 0;
#X connect 14 0 16 0;
#X connect 14 1 17 0;
#X connect 15 0 14 1;
#X connect 16 0 18 1;
#X connect 17 0 18 1;
#X connect 18 0 19 0;
#X connect 19 0 20 0;
#X connect 20 0 22 0;
#X connect 21 0 3 0;
#X restore 13 19 pd peer.com;
#N canvas 0 426 1272 378 init.p2p.connection 0;
#X obj 23 182 s \$3.aoo.link.status;
#X obj 23 132 del 0;
#X msg 23 154 5;
#X obj 468 58 r \$3.tx.switch.s;
#X obj 493 81 r \$3.aoo.link.status;
#X obj 468 81 f;
#X obj 468 129 f;
#X obj 468 151 sel 1;
#X obj 468 172 t b b, f 11;
#X obj 468 275 s \$3.aoo.link.status;
#X obj 468 198 del 0;
#X obj 468 104 sel 6;
#X msg 468 252 7;
#X obj 760 169 r \$3.aoo.link.status;
#X obj 735 169 f;
#X obj 735 192 sel 5;
#X obj 735 213 f;
#X obj 735 257 s \$3.aoo.link.status;
#X msg 735 235 7;
#N canvas 58 279 755 431 deal.with.race.condition 0;
#X obj 52 85 r \$3.aoo.link.status;
#X obj 27 85 f;
#X obj 27 168 sel 0 4;
#X obj 27 193 f;
#X obj 27 215 sel 1;
#X obj 27 329 s \$3.aoo.link.status;
#X msg 27 308 6;
#X obj 27 18 inlet;
#X obj 223 155 f;
#X obj 223 177 sel 1;
#X obj 223 130 sel 5;
#X obj 223 225 s \$3.aoo.link.status;
#X msg 223 204 7;
#X text 354 17 When both clients initiatate a connection simultaneously
\, their requests cross each other and we want to establish a connecction
immediately without confirmation (before we dealt with that situation
\, both clients flashed blue happily waiting for confirmation).;
#X obj 250 155 r \$3.peer.state;
#X obj 54 193 r \$3.peer.state;
#X connect 0 0 1 1;
#X connect 1 0 2 0;
#X connect 2 0 3 0;
#X connect 2 1 3 0;
#X connect 2 2 10 0;
#X connect 3 0 4 0;
#X connect 4 0 6 0;
#X connect 6 0 5 0;
#X connect 7 0 1 0;
#X connect 8 0 9 0;
#X connect 9 0 12 0;
#X connect 10 0 8 0;
#X connect 10 1 8 0;
#X connect 12 0 11 0;
#X connect 14 0 8 1;
#X connect 15 0 3 1;
#X restore 258 172 pd deal.with.race.condition;
#X obj 92 153 s \$0.to.peer;
#X obj 23 81 t b b, f 12;
#X obj 92 106 f \$2, f 5;
#X msg 92 129 dest initiate p2p \, \$1;
#X obj 258 57 r \$0.from.peer;
#X obj 258 81 route initiate;
#X obj 258 101 route p2p;
#X obj 285 148 s \$3.peer.id;
#X obj 258 124 t b a;
#X obj 531 198 f \$2;
#X obj 531 246 s \$0.to.peer;
#X msg 531 224 dest confirm p2p \, \$1;
#X obj 735 58 r \$0.from.peer;
#X obj 735 82 route confirm;
#X obj 735 102 route p2p;
#X obj 762 148 s \$3.peer.id;
#X obj 735 124 t b a;
#X obj 762 213 r \$3.peer.state;
#X text 35 18 1) SEND INIT;
#X text 250 19 2) HANDLE INIT REQUEST;
#X text 465 20 3) CONFIRM;
#X text 732 20 4) HANDLE CONFIRMATION;
#X obj 495 129 r \$3.peer.state;
#X obj 23 60 r \$3.initiate.p2p;
#X text 973 80 0 = reset;
#X text 974 158 4 = aborted;
#X text 975 141 3 = connected (stun);
#X text 973 100 1 = waiting for peer (proxy);
#X text 973 120 2 = waiting for user (proxy);
#X text 974 179 5 = waiting for peer (p2p);
#X text 975 198 6 = waiting for user (p2p);
#X text 975 219 7 = connected (p2p);
#X text 971 36 aoo.link.status;
#X text 971 49 ===============;
#X connect 1 0 2 0;
#X connect 2 0 0 0;
#X connect 3 0 5 0;
#X connect 4 0 5 1;
#X connect 5 0 11 0;
#X connect 6 0 7 0;
#X connect 7 0 8 0;
#X connect 8 0 10 0;
#X connect 8 1 29 0;
#X connect 10 0 12 0;
#X connect 11 0 6 0;
#X connect 12 0 9 0;
#X connect 13 0 14 1;
#X connect 14 0 15 0;
#X connect 15 0 16 0;
#X connect 16 0 18 0;
#X connect 18 0 17 0;
#X connect 21 0 1 0;
#X connect 21 1 22 0;
#X connect 22 0 23 0;
#X connect 23 0 20 0;
#X connect 24 0 25 0;
#X connect 25 0 26 0;
#X connect 26 0 28 0;
#X connect 28 0 19 0;
#X connect 28 1 27 0;
#X connect 29 0 31 0;
#X connect 31 0 30 0;
#X connect 32 0 33 0;
#X connect 33 0 34 0;
#X connect 34 0 36 0;
#X connect 36 0 14 0;
#X connect 36 1 35 0;
#X connect 37 0 16 1;
#X connect 42 0 6 1;
#X connect 43 0 21 0;
#X restore 13 89 pd init.p2p.connection;
#N canvas 0 426 1272 378 init.proxy.connection 0;
#X obj 23 232 s \$3.aoo.link.status;
#X obj 23 182 del 0;
#X obj 468 58 r \$3.tx.switch.s;
#X obj 493 81 r \$3.aoo.link.status;
#X obj 468 81 f;
#X obj 468 129 f;
#X obj 468 151 sel 1;
#X obj 468 172 t b b, f 11;
#X obj 468 275 s \$3.aoo.link.status;
#X obj 468 198 del 0;
#X obj 760 169 r \$3.aoo.link.status;
#X obj 735 169 f;
#X obj 735 213 f;
#X obj 735 257 s \$3.aoo.link.status;
#N canvas 58 279 755 431 deal.with.race.condition 0;
#X obj 52 85 r \$3.aoo.link.status;
#X obj 27 85 f;
#X obj 27 168 sel 0 4;
#X obj 27 193 f;
#X obj 27 215 sel 1;
#X obj 27 329 s \$3.aoo.link.status;
#X obj 27 18 inlet;
#X obj 223 155 f;
#X obj 223 177 sel 1;
#X obj 223 130 sel 5;
#X obj 223 225 s \$3.aoo.link.status;
#X text 354 17 When both clients initiatate a connection simultaneously
\, their requests cross each other and we want to establish a connecction
immediately without confirmation (before we dealt with that situation
\, both clients flashed blue happily waiting for confirmation).;
#X obj 250 155 r \$3.peer.state;
#X obj 54 193 r \$3.peer.state;
#X msg 27 308 2;
#X msg 223 204 3;
#X connect 0 0 1 1;
#X connect 1 0 2 0;
#X connect 2 0 3 0;
#X connect 2 1 3 0;
#X connect 2 2 9 0;
#X connect 3 0 4 0;
#X connect 4 0 14 0;
#X connect 6 0 1 0;
#X connect 7 0 8 0;
#X connect 8 0 15 0;
#X connect 9 0 7 0;
#X connect 9 1 7 0;
#X connect 12 0 7 1;
#X connect 13 0 3 1;
#X connect 14 0 5 0;
#X connect 15 0 10 0;
#X restore 258 233 pd deal.with.race.condition;
#X obj 75 203 s \$0.to.peer;
#X obj 75 107 f \$2, f 5;
#X obj 258 57 r \$0.from.peer;
#X obj 258 81 route initiate;
#X obj 285 209 s \$3.peer.id;
#X obj 258 144 t b a;
#X obj 531 198 f \$2;
#X obj 531 246 s \$0.to.peer;
#X obj 735 58 r \$0.from.peer;
#X obj 735 82 route confirm;
#X obj 762 148 s \$3.peer.id;
#X obj 735 124 t b a;
#X obj 762 213 r \$3.peer.state;
#X text 35 18 1) SEND INIT;
#X text 250 19 2) HANDLE INIT REQUEST;
#X text 465 20 3) CONFIRM;
#X text 732 20 4) HANDLE CONFIRMATION;
#X obj 495 129 r \$3.peer.state;
#X text 973 80 0 = reset;
#X text 974 158 4 = aborted;
#X text 975 141 3 = connected (stun);
#X text 973 100 1 = waiting for peer (proxy);
#X text 973 120 2 = waiting for user (proxy);
#X text 974 179 5 = waiting for peer (p2p);
#X text 975 198 6 = waiting for user (p2p);
#X text 975 219 7 = connected (p2p);
#X text 971 36 aoo.link.status;
#X text 971 49 ===============;
#X obj 23 60 r \$3.initiate.proxy;
#X msg 23 204 1;
#X obj 258 101 route proxy;
#X obj 468 104 sel 2;
#X msg 468 252 3;
#X msg 531 224 dest confirm proxy \, \$1;
#X obj 735 102 route proxy;
#X obj 735 192 sel 1;
#X msg 735 235 3;
#X obj 128 106 token-generator 20;
#X obj 23 81 t b b b, f 18;
#X obj 75 150 pack f s;
#X obj 128 129 t a a;
#X obj 155 153 s \$0.token;
#X obj 258 124 list;
#X obj 285 165 unpack f s;
#X obj 342 187 s \$0.token;
#X msg 75 179 dest initiate proxy \, \$1 \$2;
#X connect 1 0 44 0;
#X connect 2 0 4 0;
#X connect 3 0 4 1;
#X connect 4 0 46 0;
#X connect 5 0 6 0;
#X connect 6 0 7 0;
#X connect 7 0 9 0;
#X connect 7 1 21 0;
#X connect 9 0 47 0;
#X connect 10 0 11 1;
#X connect 11 0 50 0;
#X connect 12 0 51 0;
#X connect 16 0 54 0;
#X connect 17 0 18 0;
#X connect 18 0 45 0;
#X connect 20 0 14 0;
#X connect 20 1 58 0;
#X connect 21 0 48 0;
#X connect 23 0 24 0;
#X connect 24 0 49 0;
#X connect 26 0 11 0;
#X connect 26 1 25 0;
#X connect 27 0 12 1;
#X connect 32 0 5 1;
#X connect 43 0 53 0;
#X connect 44 0 0 0;
#X connect 45 0 57 0;
#X connect 46 0 5 0;
#X connect 47 0 8 0;
#X connect 48 0 22 0;
#X connect 49 0 26 0;
#X connect 50 0 12 0;
#X connect 51 0 13 0;
#X connect 52 0 55 0;
#X connect 53 0 1 0;
#X connect 53 1 16 0;
#X connect 53 2 52 0;
#X connect 54 0 60 0;
#X connect 55 0 54 1;
#X connect 55 1 56 0;
#X connect 57 0 20 0;
#X connect 58 0 19 0;
#X connect 58 1 59 0;
#X connect 60 0 15 0;
#X restore 13 65 pd init.proxy.connection;
#N canvas 315 150 622 347 info 0;
#X obj 12 11 r \$3.from.aoo.s;
#X obj 311 26 r \$3.from.aoo.r;
#X obj 12 57 list;
#X obj 12 80 list append;
#X obj 12 34 route sink_add format;
#X obj 73 59 list;
#X obj 12 128 s \$1.info;
#X obj 311 49 route source_format;
#X obj 311 72 list;
#X obj 311 118 s \$1.info;
#X msg 311 95 [\$2] receiving \$5 channels: codec=\$4\\\, sr=\$7;
#X msg 12 103 [\$2] sending \$5 channels: codec=\$4\\\, sr=\$7;
#X obj 17 166 r \$3.from.aoo.s;
#X obj 318 164 r \$3.from.aoo.r;
#X obj 318 187 route source_remove;
#X obj 17 189 route sink_remove;
#X obj 17 212 list;
#X msg 17 235 [\$2] disconnected;
#X obj 17 258 s \$1.info;
#X connect 0 0 4 0;
#X connect 1 0 7 0;
#X connect 2 0 3 0;
#X connect 3 0 11 0;
#X connect 4 0 2 0;
#X connect 4 1 5 0;
#X connect 5 0 3 1;
#X connect 7 0 8 0;
#X connect 8 0 10 0;
#X connect 10 0 9 0;
#X connect 11 0 6 0;
#X connect 12 0 15 0;
#X connect 13 0 14 0;
#X connect 15 0 16 0;
#X connect 16 0 17 0;
#X connect 17 0 18 0;
#X restore 12 162 pd info;
#X connect 3 0 4 0;
#X connect 4 0 5 0;
#X connect 6 0 4 0;
