#N canvas 1123 388 715 471 10;
#X obj 20 20 cnv 32 32 32 empty \$0.led.r 129 7 10 0 14 #e0e0e0 #fcfcfc
0;
#X obj 25 326 s \$0.led.r;
#X msg 25 306 color \$1 0 30;
#X obj 25 225 << 8;
#X obj 25 246 * -1;
#X obj 25 267 - 1;
#X obj 225 275 s \$0.led.r;
#X msg 225 255 label \$1;
#X obj 198 162 + \$3;
#X obj 87 96 loadbang;
#X obj 25 70 r \$1.latency.measurement.state;
#X msg 87 120 0;
#X obj 25 202 * 255;
#X msg 25 177 1;
#X obj 25 156 sel 1 0;
#X msg 104 196 10;
#X obj 198 140 * \$2;
#X obj 198 117 r \$1.maxchannels;
#X obj 225 230 makefilename %3d;
#X obj 198 304 s \$1.latency.outchannel;
#X obj 198 185 t a a;
#X connect 2 0 1 0;
#X connect 3 0 4 0;
#X connect 4 0 5 0;
#X connect 5 0 2 0;
#X connect 7 0 6 0;
#X connect 8 0 20 0;
#X connect 9 0 11 0;
#X connect 10 0 14 0;
#X connect 11 0 14 0;
#X connect 12 0 3 0;
#X connect 13 0 12 0;
#X connect 14 0 13 0;
#X connect 14 1 15 0;
#X connect 15 0 2 0;
#X connect 16 0 8 0;
#X connect 17 0 16 0;
#X connect 18 0 7 0;
#X connect 20 0 19 0;
#X connect 20 1 18 0;
#X coords 0 -1 1 1 32 32 2 20 20;
