#N canvas 27 243 1022 479 10;
#X obj 529 71 bng 15 250 50 0 empty empty empty 17 7 0 10 -262144 -1
-1;
#X obj 529 110 s \$0.reset;
#X obj 540 89 r \$1.reset;
#X obj 20 20 cnv 32 953 32 empty empty empty 8 16 0 20 -262144 -262144
0;
#X obj 550 20 cnv 32 70 32 empty \$0.glitch.label \ \ 11 8 16 0 20
-1 -262144 0;
#X obj 623 20 cnv 32 70 32 empty \$0.ooo.label \ \ \ 0 8 16 0 20 -1
-262144 0;
#X obj 15 284 jacktrip . . . . . . . . . . . . . .;
#X obj 228 262 r \$0.to.jacktrip;
#X obj 228 304 s \$0.from.jacktrip;
#X obj 297 111 s \$0.to.jacktrip;
#X msg 297 74 status;
#X obj 297 135 r \$0.from.jacktrip;
#X obj 297 155 route STATUS;
#X obj 297 176 print STATUS;
#X msg 342 74 start;
#X msg 381 74 stop;
#X obj 404 20 cnv 32 70 32 empty \$0.channels.label \ \ \ 2 8 16 0
20 -1 -262144 0;
#X obj 16 212 adc~ 1 2 3 4 5 6 7 8;
#N canvas 178 270 307 328 set.out.channels 0;
#X obj 31 25 loadbang;
#X msg 31 45 8;
#X obj 48 87 until;
#X obj 48 107 f;
#X obj 48 127 + 1;
#X obj 48 147 t a a;
#N canvas 0 43 327 184 msgbox 0;
#X obj 42 21 inlet;
#X msg 42 41;
#X obj 42 61 outlet;
#X connect 0 0 1 0;
#X connect 1 0 2 0;
#X restore 31 256 pd msgbox;
#X msg 31 229 bang \, set;
#X msg 125 204 add2 set;
#X obj 100 121 f \$2;
#X obj 100 171 * 8;
#X obj 48 167 +;
#X msg 48 190 add2 \$1;
#X obj 31 65 t b a b b;
#X obj 31 276 outlet;
#X obj 100 144 - 1;
#X connect 0 0 1 0;
#X connect 1 0 13 0;
#X connect 2 0 3 0;
#X connect 3 0 4 0;
#X connect 4 0 5 0;
#X connect 5 0 11 0;
#X connect 5 1 3 1;
#X connect 6 0 14 0;
#X connect 7 0 6 0;
#X connect 8 0 6 0;
#X connect 9 0 15 0;
#X connect 10 0 11 1;
#X connect 11 0 12 0;
#X connect 12 0 6 0;
#X connect 13 0 7 0;
#X connect 13 1 2 0;
#X connect 13 2 9 0;
#X connect 13 3 8 0;
#X connect 15 0 10 0;
#X restore 384 234 pd set.out.channels;
#X obj 696 20 tpf-client-outchannel \$0 \$2 0;
#X obj 433 416 dac~ 1 2 3 4 5 6 7 8;
#X obj 731 20 tpf-client-outchannel \$0 \$2 1;
#X obj 766 20 tpf-client-outchannel \$0 \$2 2;
#X obj 801 20 tpf-client-outchannel \$0 \$2 3;
#X obj 836 20 tpf-client-outchannel \$0 \$2 4;
#X obj 871 20 tpf-client-outchannel \$0 \$2 5;
#X obj 906 20 tpf-client-outchannel \$0 \$2 6;
#X obj 941 20 tpf-client-outchannel \$0 \$2 7;
#X obj 20 20 tpf-client-button32x32 \$0.tx.switch.s \$0.tx.switch.r
;
#X obj 369 20 tpf-client-button32x32 \$0.rx.switch.s \$0.rx.switch.r
;
#X obj 828 140 loadbang;
#X obj 828 214 s \$0.udp.link.status;
#X msg 828 191 0;
#X obj 836 162 r \$0.reset;
#X obj 404 25 nbx 4 20 0 9999 0 0 \$0.delay.nb.s \$0.delay.nb.r empty
0 -8 0 20 -1 -262144 -1 0 256;
#X obj 475 20 cnv 10 10 32 empty empty empty 20 12 0 14 -262144 -66577
0;
#X obj 477 20 cnv 32 70 32 empty \$0.dropped.label \ 321 8 16 0 20
-1 -262144 0;
#N canvas 459 427 652 267 delay- 0;
#X obj 512 46 r \$0.delay;
#X obj 24 57 inlet~;
#X obj 24 157 outlet~;
#X obj 74 57 inlet~;
#X obj 74 157 outlet~;
#X obj 124 57 inlet~;
#X obj 124 157 outlet~;
#X obj 174 57 inlet~;
#X obj 174 157 outlet~;
#X obj 224 57 inlet~;
#X obj 224 157 outlet~;
#X obj 274 57 inlet~;
#X obj 274 157 outlet~;
#X obj 324 57 inlet~;
#X obj 324 157 outlet~;
#X obj 374 57 inlet~;
#X obj 374 157 outlet~;
#N canvas 0 53 607 309 delwrites_tilde.........................................
0;
#X obj 24 57 inlet~;
#X obj 74 57 inlet~;
#X obj 124 57 inlet~;
#X obj 174 57 inlet~;
#X obj 224 57 inlet~;
#X obj 274 57 inlet~;
#X obj 324 57 inlet~;
#X obj 374 57 inlet~;
#X obj 24 225 delwrite~ \$0.adel.0 10000;
#X obj 74 205 delwrite~ \$0.adel.1 10000;
#X obj 124 185 delwrite~ \$0.adel.2 10000;
#X obj 174 165 delwrite~ \$0.adel.3 10000;
#X obj 224 225 delwrite~ \$0.adel.4 10000;
#X obj 273 205 delwrite~ \$0.adel.5 10000;
#X obj 325 185 delwrite~ \$0.adel.6 10000;
#X obj 374 165 delwrite~ \$0.adel.7 10000;
#X obj 41 272 outlet~;
#X connect 0 0 8 0;
#X connect 1 0 9 0;
#X connect 2 0 10 0;
#X connect 3 0 11 0;
#X connect 4 0 12 0;
#X connect 5 0 13 0;
#X connect 6 0 14 0;
#X connect 7 0 15 0;
#X restore 24 88 pd delwrites_tilde.........................................
;
#N canvas 0 53 597 274 delwrites_tilde.........................................
0;
#X obj 24 27 inlet~;
#X obj 24 187 outlet~;
#X obj 74 187 outlet~;
#X obj 124 187 outlet~;
#X obj 174 187 outlet~;
#X obj 224 187 outlet~;
#X obj 274 187 outlet~;
#X obj 324 187 outlet~;
#X obj 374 187 outlet~;
#X obj 24 85 delread~ \$0.adel.0 0;
#X obj 74 105 delread~ \$0.adel.1 0;
#X obj 124 125 delread~ \$0.adel.2 0;
#X obj 175 145 delread~ \$0.adel.3 0;
#X obj 224 85 delread~ \$0.adel.4 0;
#X obj 273 105 delread~ \$0.adel.5 0;
#X obj 325 125 delread~ \$0.adel.6 0;
#X obj 374 145 delread~ \$0.adel.7 0;
#X obj 452 16 inlet;
#X connect 9 0 1 0;
#X connect 10 0 2 0;
#X connect 11 0 3 0;
#X connect 12 0 4 0;
#X connect 13 0 5 0;
#X connect 14 0 6 0;
#X connect 15 0 7 0;
#X connect 16 0 8 0;
#X connect 17 0 9 0;
#X connect 17 0 10 0;
#X connect 17 0 11 0;
#X connect 17 0 12 0;
#X connect 17 0 13 0;
#X connect 17 0 14 0;
#X connect 17 0 15 0;
#X connect 17 0 16 0;
#X restore 24 127 pd delwrites_tilde.........................................
;
#X connect 0 0 18 1;
#X connect 1 0 17 0;
#X connect 3 0 17 1;
#X connect 5 0 17 2;
#X connect 7 0 17 3;
#X connect 9 0 17 4;
#X connect 11 0 17 5;
#X connect 13 0 17 6;
#X connect 15 0 17 7;
#X connect 17 0 18 0;
#X connect 18 0 2 0;
#X connect 18 1 4 0;
#X connect 18 2 6 0;
#X connect 18 3 8 0;
#X connect 18 4 10 0;
#X connect 18 5 12 0;
#X connect 18 6 14 0;
#X connect 18 7 16 0;
#X restore 15 319 pd delay- - - - - - - - - - - -;
#X obj 15 434 s~ \$2.channel.0;
#X obj 41 414 s~ \$2.channel.1;
#X obj 68 394 s~ \$2.channel.2;
#X obj 94 374 s~ \$2.channel.3;
#X obj 121 434 s~ \$2.channel.4;
#X obj 148 414 s~ \$2.channel.5;
#X obj 174 394 s~ \$2.channel.6;
#X obj 201 374 s~ \$2.channel.7;
#X obj 433 253 r~ \$2.channel.0;
#X obj 449 273 r~ \$2.channel.1;
#X obj 466 293 r~ \$2.channel.2;
#X obj 483 313 r~ \$2.channel.3;
#X obj 499 333 r~ \$2.channel.4;
#X obj 516 353 r~ \$2.channel.5;
#X obj 533 373 r~ \$2.channel.6;
#X obj 550 393 r~ \$2.channel.7;
#X obj 350 22 vsl 16 11 0 127 0 0 \$0.arrow.up \$0.arrow.up.r ▲ 5
4 0 14 -1 -1 -166441 0 1;
#X obj 350 39 vsl 16 10 0 127 0 0 \$0.arrow.down \$0.arrow.down.r ▼
5 5 0 14 -1 -1 -166441 0 1;
#X obj 58 20 hsl 290 32 0 127 0 0 \$0.client.reset empty empty -2 -8
0 10 -262144 -1 -1 0 1;
#X obj 55 20 cnv 32 295 32 empty \$0.client.label Michael 8 16 0 20
-1 -262144 0;
#X obj 23 87 tpf-client-link-guts \$1 \$2 \$0;
#X obj 641 170 r \$0.from.jacktrip;
#X obj 641 193 route STATUS;
#X obj 641 216 route connected;
#X obj 641 268 switch~;
#X connect 0 0 1 0;
#X connect 2 0 1 0;
#X connect 6 0 37 0;
#X connect 6 1 37 1;
#X connect 6 2 37 2;
#X connect 6 3 37 3;
#X connect 6 4 37 4;
#X connect 6 5 37 5;
#X connect 6 6 37 6;
#X connect 6 7 37 7;
#X connect 6 8 8 0;
#X connect 7 0 6 8;
#X connect 10 0 9 0;
#X connect 12 0 13 0;
#X connect 14 0 9 0;
#X connect 15 0 9 0;
#X connect 17 0 6 0;
#X connect 17 1 6 1;
#X connect 17 2 6 2;
#X connect 17 3 6 3;
#X connect 17 4 6 4;
#X connect 17 5 6 5;
#X connect 17 6 6 6;
#X connect 17 7 6 7;
#X connect 18 0 20 0;
#X connect 30 0 32 0;
#X connect 32 0 31 0;
#X connect 33 0 32 0;
#X connect 37 0 38 0;
#X connect 37 1 39 0;
#X connect 37 2 40 0;
#X connect 37 3 41 0;
#X connect 37 4 42 0;
#X connect 37 5 43 0;
#X connect 37 6 44 0;
#X connect 37 7 45 0;
#X connect 46 0 20 0;
#X connect 47 0 20 1;
#X connect 48 0 20 2;
#X connect 49 0 20 3;
#X connect 50 0 20 4;
#X connect 51 0 20 5;
#X connect 52 0 20 6;
#X connect 53 0 20 7;
#X connect 59 0 60 0;
#X connect 60 0 61 0;
#X connect 61 0 62 0;
#X coords 0 -1 1 1 953 32 2 20 20;
