#N struct 1045.rectangle float id float x float y float w float h float
txtclr float boxclr float bgclr symbol label;
#N struct 1046.rectangle float id float x float y float w float h float
txtclr float boxclr float bgclr symbol label;
#N struct 1047.rectangle float id float x float y float w float h float
txtclr float boxclr float bgclr symbol label;
#N struct 1048.rectangle float id float x float y float w float h float
txtclr float boxclr float bgclr symbol label;
#N struct 1049.rectangle float id float x float y float w float h float
txtclr float boxclr float bgclr symbol label;
#N struct 1050.rectangle float id float x float y float w float h float
txtclr float boxclr float bgclr symbol label;
#N struct 1051.rectangle float id float x float y float w float h float
txtclr float boxclr float bgclr symbol label;
#N struct 1052.rectangle float id float x float y float w float h float
txtclr float boxclr float bgclr symbol label;
#N struct 1053.rectangle float id float x float y float w float h float
txtclr float boxclr float bgclr symbol label;
#N canvas 265 292 659 665 16;
#X symbolatom 147 66 30 0 0 0 - #1.host.gui #1.host 0;
#X symbolatom 147 96 30 0 0 0 - #1.room.gui #1.room 0;
#X symbolatom 147 126 30 0 0 0 - #1.name.gui #1.name 0;
#X text 70 67 server:;
#X text 88 96 room:;
#X text 88 126 name:;
#X floatatom 147 156 6 1 65535 0 - #1.port.gui #1.port 0;
#X text 88 156 port:;
#X text 30 33 CONNECTION PARAMETERS:;
#X obj 220 428 cnv 15 370 25 empty \$1.notification.label empty 2 12
0 17 #fcfcfc #7c7c7c 0;
#X obj 350 597 tpf-client-button Save\ to \$1.save.to.s \$1.save.to.r
;
#X obj 219 597 tpf-client-button Load\ from \$1.load.from.s \$1.load.from.r
;
#X obj 481 597 tpf-client-button Save \$1.save.s \$1.save.r;
#X obj 88 597 tpf-client-button Reset \$1.reset.s \$1.reset.r;
#X obj 31 224 tpf-audio-params-panel \$1;
#X text 31 193 AUDIO PARAMETERS:;
#X text 31 483 LAYOUT:;
#X floatatom 197 516 6 1 64 0 - #1.maxchannels.gui.r #1.maxchannels.gui.s
0;
#X text 31 516 channels per row:;
#X floatatom 197 546 6 1 64 0 - #1.maxrows.gui.r #1.maxrows.gui.s 0
;
#X text 139 547 rows:;
#X text 273 531 (effective after restart);
#X coords 0 -1 1 1 600 620 2 20 20;
