#N canvas 975 359 558 296 10;
#N canvas 470 103 983 554 communication 0;
#X msg 63 190 disconnect;
#X obj 44 20 r \$1.connect;
#X obj 44 40 sel 1 0;
#X obj 44 101 symbol;
#X obj 77 72 r \$1.host;
#N canvas 0 139 377 257 msgs 0;
#X obj 42 17 r \$1.connection.state;
#X obj 42 38 sel 1 0;
#X obj 118 53 r \$1.host;
#X obj 41 89 symbol;
#X obj 91 92 symbol;
#X obj 45 215 s \$1.info;
#X msg 37 176 connected to '\$1:\$2';
#X msg 209 175 disconnected from '\$1:\$2';
#X obj 38 149 list append;
#X obj 209 144 list append;
#X obj 210 63 r \$1.port;
#X connect 0 0 1 0;
#X connect 1 0 3 0;
#X connect 1 1 4 0;
#X connect 2 0 3 1;
#X connect 2 0 4 1;
#X connect 3 0 8 0;
#X connect 4 0 9 0;
#X connect 6 0 5 0;
#X connect 7 0 5 0;
#X connect 8 0 6 0;
#X connect 9 0 7 0;
#X connect 10 0 8 1;
#X connect 10 0 9 1;
#X restore 21 509 pd msgs;
#X obj 113 100 r \$1.port;
#X obj 69 391 s \$1.connection.state;
#X obj 135 319 s \$1.origin;
#N canvas 838 489 296 241 keep_alive_DISABLED 0;
#X obj 6 16 r \$1.connection.state;
#X obj 25 99 del 1000;
#X obj 6 39 sel 0 1;
#X msg 6 68 stop;
#X obj 6 128 metro 60000;
#X msg 6 151 /s/server/dummy;
#X obj 6 175 s \$1.send;
#X connect 1 0 4 0;
#X connect 2 0 3 0;
#X connect 2 1 1 0;
#X connect 3 0 1 0;
#X connect 3 0 4 0;
#X connect 4 0 5 0;
#X connect 5 0 6 0;
#X restore 383 514 pd keep_alive_DISABLED;
#X obj 88 344 s \$1.receive;
#X obj 42 265 r \$1.send;
#X obj 182 99 r \$1.name;
#X obj 251 99 r \$1.room;
#X obj 44 135 pack s f s s, f 35;
#X msg 44 164 connect \$1 \$2 \$3 _ \$4 _;
#X text 198 165 <- setting user and group password to '_'.;
#X obj 42 446 s \$1.registered;
#X obj 44 211 s \$1.send;
#X obj 42 422 sel 1;
#X obj 42 366 t a a;
#X obj 254 244 r \$1.registered;
#X obj 254 320 s \$1.info;
#X obj 298 273 r \$1.name;
#X obj 366 274 r \$1.room;
#X msg 254 296 registered name '\$1';
#X obj 254 273 symbol;
#X obj 441 251 r \$1.receive;
#X obj 441 275 route group_join;
#X msg 441 320 joined room '\$1';
#X obj 441 344 s \$1.info;
#X obj 441 298 list;
#X obj 692 332 r \$1.receive;
#X obj 692 355 route list;
#X obj 692 378 oscparse;
#X obj 692 424 s \$1.oscrecv;
#X obj 633 26 r \$1.oscsend;
#X obj 690 247 oscformat;
#X obj 690 270 s \$1.send;
#X obj 840 186 list append;
#X obj 903 151 r \$1.room;
#X obj 771 266 s \$1.send;
#X obj 692 401 list trim;
#X obj 633 49 route dest;
#X obj 633 72 list;
#X obj 633 95 t a a;
#X msg 771 129 symbol \$1;
#X obj 633 137 list split 1;
#X obj 667 188 list prepend set;
#X obj 667 211 list trim;
#X obj 690 106 list;
#X msg 840 220 target \$2 \$1;
#X obj 771 153 sel _all, f 12;
#X obj 771 187 symbol;
#X msg 771 220 target \$1;
#X obj 799 316 spigot;
#X msg 845 289 1;
#X msg 880 289 0;
#X obj 690 73 route list symbol float bang;
#X obj 42 292 tpf-aoo-client .;
#X connect 0 0 18 0;
#X connect 1 0 2 0;
#X connect 2 0 3 0;
#X connect 2 1 0 0;
#X connect 3 0 14 0;
#X connect 4 0 3 1;
#X connect 6 0 14 1;
#X connect 11 0 59 0;
#X connect 12 0 14 2;
#X connect 13 0 14 3;
#X connect 14 0 15 0;
#X connect 15 0 18 0;
#X connect 19 0 17 0;
#X connect 20 0 19 0;
#X connect 20 1 7 0;
#X connect 21 0 26 0;
#X connect 23 0 26 1;
#X connect 25 0 22 0;
#X connect 26 0 25 0;
#X connect 27 0 28 0;
#X connect 28 0 31 0;
#X connect 29 0 30 0;
#X connect 31 0 29 0;
#X connect 32 0 33 0;
#X connect 33 0 34 0;
#X connect 34 0 42 0;
#X connect 36 0 43 0;
#X connect 37 0 38 0;
#X connect 37 0 55 0;
#X connect 39 0 51 0;
#X connect 40 0 39 1;
#X connect 40 0 53 1;
#X connect 42 0 35 0;
#X connect 43 0 44 0;
#X connect 43 1 58 0;
#X connect 44 0 45 0;
#X connect 45 0 47 0;
#X connect 45 1 46 0;
#X connect 46 0 52 0;
#X connect 47 1 48 0;
#X connect 48 0 49 0;
#X connect 49 0 37 0;
#X connect 50 0 37 0;
#X connect 51 0 41 0;
#X connect 52 0 53 0;
#X connect 52 0 56 0;
#X connect 52 1 39 0;
#X connect 52 1 57 0;
#X connect 53 0 54 0;
#X connect 54 0 41 0;
#X connect 55 0 34 0;
#X connect 56 0 55 1;
#X connect 57 0 55 1;
#X connect 58 0 50 0;
#X connect 58 1 50 0;
#X connect 58 2 50 0;
#X connect 58 3 50 0;
#X connect 59 0 20 0;
#X connect 59 1 10 0;
#X connect 59 2 8 0;
#X restore 8 11 pd communication;
#N canvas 0 365 1109 592 params 0;
#X obj 619 133 text search \$1.clients 0;
#X obj 619 108 f;
#X obj 634 86 r \$1.id;
#X obj 619 158 text get \$1.clients;
#X obj 619 178 route bang;
#X obj 30 534 s \$1.to.tpf;
#X msg 106 461 /params/begin;
#X msg 11 499 /params/end;
#X obj 30 413 list prepend /params;
#X obj 30 433 list trim;
#X obj 366 19 r \$1.from.tpf;
#X obj 366 39 routeOSC /updated/params;
#X msg 366 59 /refresh/params;
#X obj 366 78 s \$1.to.tpf;
#X obj 836 17 r \$1.from.tpf;
#X obj 836 37 routeOSC /params;
#X obj 836 57 routeOSC /end /begin;
#X obj 836 77 t b b;
#X msg 863 96 0;
#X msg 894 96 1;
#X obj 953 151 spigot;
#X obj 953 172 list;
#X obj 1009 140 loadbang;
#X msg 1009 160 8e+06;
#X obj 953 192 text set \$1.params;
#X obj 921 224 text delete \$1.params;
#X obj 894 77 t b b;
#X msg 921 203 -1;
#X obj 836 267 s \$1.updated.params;
#X obj 674 266 s \$1.set.params;
#X obj 11 15 r \$1.set.params;
#X obj 11 85 sel 1;
#X obj 30 326 samplerate~;
#X msg 30 346 samplerate \$1;
#X obj 97 282 r \$1.bitres;
#X obj 67 283 f;
#X msg 67 301 bitres \$1;
#X obj 11 106 t b b b;
#X obj 329 146 r \$1.updated.params;
#X obj 356 206 t a b;
#X obj 356 226 until;
#X obj 356 246 f;
#X obj 356 266 t a a;
#X obj 394 257 + 1;
#X msg 397 227 0;
#X obj 356 186 text size \$1.params;
#X obj 356 287 text get \$1.params;
#X obj 356 307 list trim;
#X obj 426 396 t b a;
#X obj 329 166 t b b;
#X obj 329 475 f;
#N canvas 1275 705 441 348 bitres 0;
#X obj 23 58 t a a;
#X obj 23 113 ==;
#X obj 23 143 t a a;
#X obj 23 309 outlet;
#X obj 50 165 sel 0;
#X obj 150 60 t a a;
#X obj 23 16 inlet;
#X obj 113 133 pack f f;
#X obj 50 209 list append;
#X msg 50 230 \$1 mismatch: mandated \$2 - configured \$3;
#X obj 50 250 s \$1.error;
#X obj 23 38 route bitres;
#X obj 150 40 r \$1.bitres;
#X obj 50 189 list append bitres;
#X connect 0 0 1 0;
#X connect 0 1 7 0;
#X connect 1 0 2 0;
#X connect 2 0 3 0;
#X connect 2 1 4 0;
#X connect 4 0 13 0;
#X connect 5 0 1 1;
#X connect 5 1 7 1;
#X connect 6 0 11 0;
#X connect 7 0 8 1;
#X connect 8 0 9 0;
#X connect 9 0 10 0;
#X connect 11 0 0 0;
#X connect 12 0 5 0;
#X connect 13 0 8 0;
#X restore 356 370 pd bitres;
#N canvas 1255 689 441 348 samplerate 0;
#X obj 23 143 ==;
#X obj 23 173 t a a;
#X obj 23 309 outlet;
#X obj 50 195 sel 0;
#X obj 110 105 t a a;
#X obj 23 16 inlet;
#X obj 113 163 pack f f;
#X obj 50 239 list append;
#X msg 50 260 \$1 mismatch: mandated \$2 - configured \$3;
#X obj 50 280 s \$1.error;
#X obj 23 38 route samplerate;
#X obj 110 85 samplerate~;
#X obj 50 219 list append samplerate;
#X obj 23 58 t a a b, f 15;
#X connect 0 0 1 0;
#X connect 1 0 2 0;
#X connect 1 1 3 0;
#X connect 3 0 12 0;
#X connect 4 0 0 1;
#X connect 4 1 6 1;
#X connect 5 0 10 0;
#X connect 6 0 7 1;
#X connect 7 0 8 0;
#X connect 8 0 9 0;
#X connect 10 0 13 0;
#X connect 11 0 4 0;
#X connect 12 0 7 0;
#X connect 13 0 0 0;
#X connect 13 1 6 0;
#X connect 13 2 11 0;
#X restore 426 370 pd samplerate;
#X obj 356 429 &&, f 13;
#X obj 674 199 list;
#X obj 674 219 t a a;
#X obj 11 61 change;
#X obj 120 14 r \$1.connection.state;
#X obj 120 34 sel 0;
#X msg 120 54 set 0;
#X obj 506 68 r \$1.set.params;
#X obj 506 88 sel 0;
#X msg 674 242 \$3;
#X obj 619 17 r \$1.intercom;
#X obj 619 40 route refresh_peers;
#X obj 619 63 sel 1;
#X obj 162 143 r \$1.client_version;
#X obj 30 129 t b b b b, f 19;
#X msg 141 190 client_version \$1;
#X obj 141 165 list;
#X obj 356 453 &&, f 26;
#N canvas 688 579 441 348 client_version 0;
#X obj 23 85 t a a;
#X obj 23 309 outlet;
#X obj 156 74 t a a;
#X obj 23 16 inlet;
#X obj 88 201 list append;
#X obj 88 242 s \$1.error;
#X obj 23 38 route client_version;
#X obj 156 22 r \$1.client_version;
#X obj 88 181 list append client_version;
#X obj 113 133 pack s s;
#X obj 156 45 symbol;
#X obj 23 61 symbol;
#X obj 23 113 sel _;
#X msg 23 136 1;
#X msg 50 152 0;
#X obj 88 155 b;
#X msg 88 222 \$1 mismatch: mandated \$2 - having \$3;
#X connect 0 0 12 0;
#X connect 0 1 9 0;
#X connect 2 0 12 1;
#X connect 2 1 9 1;
#X connect 3 0 6 0;
#X connect 4 0 16 0;
#X connect 6 0 11 0;
#X connect 7 0 10 0;
#X connect 8 0 4 0;
#X connect 9 0 4 1;
#X connect 10 0 2 0;
#X connect 11 0 0 0;
#X connect 12 0 13 0;
#X connect 12 1 14 0;
#X connect 12 1 15 0;
#X connect 13 0 1 0;
#X connect 14 0 1 0;
#X connect 15 0 8 0;
#X connect 16 0 5 0;
#X restore 516 370 pd client_version;
#X obj 515 399 t b a;
#X msg 329 500 param_check \$1;
#X obj 329 523 s \$1.intercom;
#X obj 356 327 t a a a, f 22;
#X connect 0 0 3 0;
#X connect 1 0 0 0;
#X connect 2 0 1 1;
#X connect 3 0 4 0;
#X connect 4 1 54 0;
#X connect 6 0 5 0;
#X connect 7 0 5 0;
#X connect 8 0 9 0;
#X connect 9 0 5 0;
#X connect 10 0 11 0;
#X connect 11 0 12 0;
#X connect 12 0 13 0;
#X connect 14 0 15 0;
#X connect 15 0 16 0;
#X connect 16 0 17 0;
#X connect 16 1 26 0;
#X connect 16 2 20 0;
#X connect 17 0 28 0;
#X connect 17 1 18 0;
#X connect 18 0 20 1;
#X connect 19 0 20 1;
#X connect 20 0 21 0;
#X connect 21 0 24 0;
#X connect 22 0 23 0;
#X connect 23 0 24 1;
#X connect 26 0 19 0;
#X connect 26 1 27 0;
#X connect 27 0 25 0;
#X connect 30 0 56 0;
#X connect 31 0 37 0;
#X connect 32 0 33 0;
#X connect 33 0 8 0;
#X connect 34 0 35 1;
#X connect 35 0 36 0;
#X connect 36 0 8 0;
#X connect 37 0 7 0;
#X connect 37 1 67 0;
#X connect 37 2 6 0;
#X connect 38 0 49 0;
#X connect 39 0 40 0;
#X connect 39 1 44 0;
#X connect 40 0 41 0;
#X connect 41 0 42 0;
#X connect 42 0 46 0;
#X connect 42 1 43 0;
#X connect 43 0 41 1;
#X connect 44 0 41 1;
#X connect 45 0 39 0;
#X connect 46 0 47 0;
#X connect 47 0 75 0;
#X connect 48 0 53 0;
#X connect 48 1 53 1;
#X connect 49 0 50 0;
#X connect 49 1 45 0;
#X connect 50 0 73 0;
#X connect 51 0 53 0;
#X connect 52 0 48 0;
#X connect 53 0 70 0;
#X connect 54 0 55 0;
#X connect 55 0 62 0;
#X connect 56 0 31 0;
#X connect 57 0 58 0;
#X connect 58 0 59 0;
#X connect 59 0 56 0;
#X connect 60 0 61 0;
#X connect 61 0 12 0;
#X connect 62 0 29 0;
#X connect 63 0 64 0;
#X connect 64 0 65 0;
#X connect 65 0 1 0;
#X connect 66 0 69 1;
#X connect 67 0 32 0;
#X connect 67 1 35 0;
#X connect 67 3 69 0;
#X connect 68 0 8 0;
#X connect 69 0 68 0;
#X connect 70 0 50 1;
#X connect 71 0 72 0;
#X connect 72 0 53 0;
#X connect 72 1 70 1;
#X connect 73 0 74 0;
#X connect 75 0 51 0;
#X connect 75 1 52 0;
#X connect 75 2 71 0;
#X restore 8 87 pd params;
#N canvas 348 652 316 192 gui.code 0;
#N canvas 2026 859 379 223 host 0;
#X restore 8 26 pd host;
#N canvas 241 315 534 348 channels 0;
#X obj 136 277 s \$1.channels.label;
#X msg 136 252 4;
#X obj 190 28 r \$1.channels.nb;
#X obj 190 98 div 4;
#X obj 20 237 * 4;
#X msg 20 257 set \$1;
#X obj 20 277 s \$1.channels.nb.r;
#X obj 20 212 t a a;
#X obj 20 24 r \$1.channels;
#X obj 190 118 change -1;
#X obj 224 178 s \$1.channels;
#X obj 190 138 t b a a b;
#X obj 20 160 spigot 1;
#X msg 241 157 0;
#X msg 160 166 1;
#X obj 300 78 == 0;
#X obj 190 64 spigot 1;
#X msg 369 224 color -1 -1 \$1;
#X msg 404 181 20;
#X msg 369 181 30;
#X obj 369 126 sel 0 1;
#X obj 296 138 loadbang;
#X obj 300 26 r \$1.connection.state;
#X obj 300 46 t a a;
#X obj 300 105 sel 1;
#X connect 1 0 0 0;
#X connect 2 0 16 0;
#X connect 3 0 9 0;
#X connect 4 0 5 0;
#X connect 5 0 6 0;
#X connect 7 0 4 0;
#X connect 7 1 1 0;
#X connect 8 0 12 0;
#X connect 9 0 11 0;
#X connect 11 0 14 0;
#X connect 11 1 1 0;
#X connect 11 2 10 0;
#X connect 11 3 13 0;
#X connect 12 0 7 0;
#X connect 13 0 12 1;
#X connect 14 0 12 1;
#X connect 15 0 16 1;
#X connect 15 0 24 0;
#X connect 16 0 3 0;
#X connect 17 0 0 0;
#X connect 18 0 17 0;
#X connect 19 0 17 0;
#X connect 20 0 19 0;
#X connect 20 1 18 0;
#X connect 21 0 19 0;
#X connect 22 0 23 0;
#X connect 23 0 15 0;
#X connect 23 1 20 0;
#X connect 24 0 4 0;
#X restore 8 45 pd channels;
#N canvas 67 191 444 300 samplerate 0;
#X obj 22 166 s \$1.set.samplerate.r;
#X msg 22 143 label \$1;
#X obj 22 25 loadbang;
#X obj 22 73 samplerate~;
#X obj 22 120 makefilename %d;
#X obj 22 96 change;
#X obj 22 48 metro 1000;
#X connect 1 0 0 0;
#X connect 2 0 6 0;
#X connect 3 0 5 0;
#X connect 4 0 1 0;
#X connect 5 0 4 0;
#X connect 6 0 3 0;
#X restore 8 64 pd samplerate;
#N canvas 963 629 691 446 blocksize 0;
#X obj 47 28 r \$1.bs.nb;
#X obj 47 108 div 4;
#X obj 47 128 t b a;
#X msg 47 148 2;
#X obj 47 171 <<;
#X obj 74 147 + 5;
#X msg 64 347 label bs=\$1;
#X obj 64 372 s \$1.bs.label;
#X obj 251 109 r \$1.blocksize;
#X obj 278 209 log;
#X obj 278 230 /;
#X obj 313 203 log;
#X msg 313 184 2;
#X obj 313 163 loadbang;
#X obj 278 250 int;
#X obj 278 270 - 5;
#X obj 278 290 * 4;
#X msg 278 313 set \$1;
#X obj 278 334 s \$1.bs.nb.r;
#X obj 251 162 t a a;
#X obj 47 193 change -1;
#X obj 47 219 t b a a b;
#X obj 251 135 spigot 1;
#X msg 98 238 0;
#X msg 47 244 1;
#X obj 81 324 s \$1.blocksize;
#X obj 150 58 == 0;
#X obj 47 48 spigot 1;
#X obj 450 211 s \$1.bs.label;
#X msg 450 178 color -1 -1 \$1;
#X msg 485 135 20;
#X msg 450 135 30;
#X obj 450 80 sel 0 1;
#X obj 377 92 loadbang;
#X obj 150 6 r \$1.connection.state;
#X obj 150 26 t a a;
#X obj 150 96 sel 1;
#X obj 278 187 f;
#X obj 81 260 t b a;
#X obj 81 281 del 500;
#X obj 81 302 f;
#X connect 0 0 27 0;
#X connect 1 0 2 0;
#X connect 2 0 3 0;
#X connect 2 1 5 0;
#X connect 3 0 4 0;
#X connect 4 0 20 0;
#X connect 5 0 4 1;
#X connect 6 0 7 0;
#X connect 8 0 22 0;
#X connect 9 0 10 0;
#X connect 10 0 14 0;
#X connect 11 0 10 1;
#X connect 12 0 11 0;
#X connect 13 0 12 0;
#X connect 14 0 15 0;
#X connect 15 0 16 0;
#X connect 16 0 17 0;
#X connect 17 0 18 0;
#X connect 19 0 6 0;
#X connect 19 1 37 0;
#X connect 20 0 21 0;
#X connect 21 0 24 0;
#X connect 21 1 6 0;
#X connect 21 2 38 0;
#X connect 21 3 23 0;
#X connect 22 0 19 0;
#X connect 23 0 22 1;
#X connect 24 0 22 1;
#X connect 26 0 27 1;
#X connect 26 0 36 0;
#X connect 27 0 1 0;
#X connect 29 0 28 0;
#X connect 30 0 29 0;
#X connect 31 0 29 0;
#X connect 32 0 31 0;
#X connect 32 1 30 0;
#X connect 33 0 31 0;
#X connect 34 0 35 0;
#X connect 35 0 26 0;
#X connect 35 1 32 0;
#X connect 36 0 37 0;
#X connect 37 0 9 0;
#X connect 38 0 39 0;
#X connect 38 1 40 1;
#X connect 39 0 40 0;
#X connect 40 0 25 0;
#X restore 8 83 pd blocksize;
#N canvas 0 43 450 300 bitres 0;
#X obj 26 76 s \$1.res.label;
#X msg 26 51 label res=\$1;
#X obj 163 30 loadbang;
#X obj 23 22 r \$1.bitres;
#X msg 163 50 color -1 -1 20;
#X connect 1 0 0 0;
#X connect 2 0 4 0;
#X connect 3 0 1 0;
#X connect 4 0 0 0;
#X restore 9 102 pd bitres;
#N canvas 255 114 593 359 queue 0;
#X obj 151 159 div 4;
#X obj 35 233 * 4;
#X msg 35 253 set \$1;
#X obj 35 208 t a a;
#X obj 151 29 r \$1.queue.nb;
#X obj 168 281 s \$1.queue.label;
#X obj 35 273 s \$1.queue.nb.r;
#X msg 168 256 label q=\$1;
#X obj 35 23 r \$1.queue;
#X obj 151 178 t b a a b;
#X obj 35 159 spigot 1;
#X msg 202 197 0;
#X msg 151 203 1;
#X obj 299 318 s \$1.queue;
#X obj 265 81 == 0;
#X obj 151 99 spigot 1;
#X msg 438 188 color -1 -1 \$1;
#X msg 473 145 20;
#X msg 438 145 30;
#X obj 438 90 sel 0 1;
#X obj 365 102 loadbang;
#X obj 265 29 r \$1.connection.state;
#X obj 265 49 t a a;
#X obj 438 221 s \$1.queue.label;
#X obj 265 111 sel 1;
#X obj 299 258 t b a;
#X obj 299 278 del 500;
#X obj 299 298 f;
#X connect 0 0 9 0;
#X connect 1 0 2 0;
#X connect 2 0 6 0;
#X connect 3 0 1 0;
#X connect 3 1 7 0;
#X connect 4 0 15 0;
#X connect 7 0 5 0;
#X connect 8 0 10 0;
#X connect 9 0 12 0;
#X connect 9 1 7 0;
#X connect 9 2 25 0;
#X connect 9 3 11 0;
#X connect 10 0 3 0;
#X connect 11 0 10 1;
#X connect 12 0 10 1;
#X connect 14 0 15 1;
#X connect 14 0 24 0;
#X connect 15 0 0 0;
#X connect 16 0 23 0;
#X connect 17 0 16 0;
#X connect 18 0 16 0;
#X connect 19 0 18 0;
#X connect 19 1 17 0;
#X connect 20 0 18 0;
#X connect 21 0 22 0;
#X connect 22 0 14 0;
#X connect 22 1 19 0;
#X connect 24 0 1 0;
#X connect 25 0 26 0;
#X connect 25 1 27 1;
#X connect 26 0 27 0;
#X connect 27 0 13 0;
#X restore 8 122 pd queue;
#N canvas 854 838 343 302 latency.switch 0;
#X obj 43 23 r \$1.latency.switch;
#X obj 136 206 s \$1.latency.switch.r;
#X msg 136 178 color \$1 \$2 \$3;
#X msg 136 149 0 0 0;
#X msg 185 149 0 0 255;
#X obj 43 57 == 0;
#X obj 43 78 t a a a;
#X obj 136 118 sel 0 1;
#X obj 185 29 loadbang;
#X msg 185 50 0;
#X obj 43 237 s \$1.latency.measurement.state;
#X connect 0 0 5 0;
#X connect 2 0 1 0;
#X connect 3 0 2 0;
#X connect 4 0 2 0;
#X connect 5 0 6 0;
#X connect 6 0 10 0;
#X connect 6 1 7 0;
#X connect 6 2 5 1;
#X connect 7 0 3 0;
#X connect 7 1 4 0;
#X connect 8 0 9 0;
#X connect 9 0 6 0;
#X restore 8 143 pd latency.switch;
#N canvas 881 518 615 188 connect 0;
#X obj 47 85 r \$1.connection.state;
#X obj 16 104 ==;
#X obj 16 125 s \$1.connect;
#X obj 16 46 t b b;
#X obj 266 31 r \$1.registered;
#X obj 184 6 r \$1.connection.state;
#X obj 477 17 r \$1.error;
#X obj 16 11 r \$1.connect.switch;
#X obj 204 138 s \$1.connect.switch.r;
#X msg 204 107 color \$1 \$2 \$3;
#X msg 477 37 255 0 0;
#X msg 266 53 0 0 255;
#X msg 203 57 0 0 0;
#X msg 123 58 192 192 192;
#X obj 407 104 loadbang;
#X obj 184 33 sel 1 0;
#X connect 0 0 1 1;
#X connect 1 0 2 0;
#X connect 3 0 1 0;
#X connect 4 0 11 0;
#X connect 5 0 15 0;
#X connect 6 0 10 0;
#X connect 7 0 3 0;
#X connect 9 0 8 0;
#X connect 10 0 9 0;
#X connect 11 0 9 0;
#X connect 12 0 9 0;
#X connect 13 0 9 0;
#X connect 14 0 12 0;
#X connect 15 0 13 0;
#X connect 15 1 12 0;
#X restore 8 7 pd connect;
#X restore 8 112 pd gui.code;
#N canvas 472 277 992 567 chat.code 0;
#X obj 52 52 list prepend <name>;
#X obj 163 28 r \$1.name;
#X obj 52 27 r \$1.chat.s;
#X obj 295 52 text define \$1.chat;
#X obj 690 242 loadbang;
#X obj 596 241 list;
#X msg 295 28 clear;
#X obj 635 290 text insert \$1.chat;
#X msg 690 262 0;
#X obj 615 314 text size \$1.chat;
#X obj 615 335 - 30;
#X obj 615 356 max 0;
#X obj 615 378 until;
#X obj 615 422 text delete \$1.chat;
#X obj 615 399 f 30;
#X obj 785 26 loadbang;
#X obj 785 89 s \$1.chat.buffer;
#X obj 693 375 r \$1.chat.buffer;
#X msg 596 469 totalsize \$1;
#X obj 596 263 t b b a;
#X obj 596 446 text size \$1.chat;
#X msg 785 47 80;
#X obj 103 372 s \$1.chat.r;
#X obj 104 185 r \$1.connection.state;
#X obj 104 206 sel 0 1;
#X obj 291 179 loadbang;
#X msg 103 313 set <not\$1connected>;
#X msg 233 315 set <Enter\$1your\$1message\$1here>;
#X obj 103 277 symbol;
#X obj 233 276 symbol;
#X obj 291 200 t b b;
#X msg 318 222 32;
#X obj 318 243 makefilename %c;
#X obj 309 130 bng 15 250 50 0 empty empty empty 17 7 0 10 #fcfcfc
#000000 #000000;
#N canvas 1136 447 521 398 wrap 0;
#X obj 17 8 inlet;
#X obj 44 345 outlet;
#X obj 17 139 list fromsymbol;
#X obj 17 182 list tosymbol;
#X msg 17 55 list \$2 \$1 \$3;
#X obj 44 302 pack s s f;
#X msg 44 323 list \$2 \$1 \$3;
#X obj 17 76 unpack s s f;
#X obj 17 217 t b a;
#X msg 17 256 symbol;
#X obj 17 30 list;
#N canvas 966 53 526 756 serialize 0;
#X obj 92 152 until;
#X obj 91 431 list store;
#X obj 91 177 f;
#X msg 144 152 0, f 2;
#X obj 92 96 t b b a a;
#X obj 207 208 list length;
#X obj 91 198 t a a;
#X obj 175 246 pack f f;
#X msg 175 267 \$2 \$1;
#X obj 175 288 -;
#X obj 175 330 max 1;
#X obj 91 364 pack f f;
#X msg 91 400 get \$1 \$2;
#X obj 92 47 inlet;
#X obj 91 458 outlet;
#X obj 131 178 + 73;
#X obj 175 309 min 73;
#X connect 0 0 2 0;
#X connect 1 0 14 0;
#X connect 1 1 0 1;
#X connect 2 0 6 0;
#X connect 2 0 15 0;
#X connect 3 0 2 1;
#X connect 4 0 0 0;
#X connect 4 1 3 0;
#X connect 4 2 5 0;
#X connect 4 3 1 1;
#X connect 5 0 7 1;
#X connect 6 0 11 0;
#X connect 6 1 7 0;
#X connect 7 0 8 0;
#X connect 8 0 9 0;
#X connect 9 0 16 0;
#X connect 10 0 11 1;
#X connect 11 0 12 0;
#X connect 12 0 1 0;
#X connect 13 0 4 0;
#X connect 15 0 2 1;
#X connect 16 0 10 0;
#X restore 18 161 pd serialize 73;
#X connect 0 0 10 0;
#X connect 2 0 11 0;
#X connect 3 0 8 0;
#X connect 4 0 7 0;
#X connect 5 0 6 0;
#X connect 6 0 1 0;
#X connect 7 0 2 0;
#X connect 7 1 5 1;
#X connect 7 2 5 2;
#X connect 8 0 9 0;
#X connect 8 1 5 0;
#X connect 9 0 5 1;
#X connect 10 0 4 0;
#X connect 11 0 3 0;
#X restore 596 219 pd wrap;
#X obj 277 438 r \$1.display.chat;
#X msg 277 459 vis 1;
#X obj 277 480 s pd-chat;
#X obj 596 494 s \$1.scb.chat.r;
#X obj 821 181 b;
#X obj 821 206 s \$1.new.chat.msg;
#X obj 284 345 r \$1.new.chat.msg;
#X obj 284 387 s \$1.display.chat.r;
#X msg 284 366 color 128 255 128;
#X obj 596 115 list;
#X obj 596 19 r \$1.oscrecv;
#X obj 596 42 route tpf;
#X obj 596 64 route chat;
#X obj 596 87 route message;
#X obj 52 123 s \$1.oscsend;
#X obj 52 75 t a b;
#X msg 79 97 dest _all tpf chat message;
#X obj 821 129 r \$1.name;
#X msg 724 121 symbol \$1;
#X obj 794 151 sel /;
#X obj 596 143 t a a a;
#N canvas 0 103 374 311 generate_id 0;
#X obj 21 4 inlet;
#X msg 21 29 symbol \$1;
#X obj 21 56 list fromsymbol;
#N canvas 0 103 375 321 serial 0;
#X obj 73 169 until;
#X obj 86 252 list store;
#X obj 88 122 t b b l;
#X obj 73 194 f;
#X obj 111 195 + 1;
#X msg 130 169 0, f 2;
#X msg 73 225 get \$1 1;
#X obj 93 81 inlet;
#X msg 73 144 5;
#X obj 86 275 outlet;
#X connect 0 0 3 0;
#X connect 1 0 9 0;
#X connect 1 1 0 1;
#X connect 2 0 8 0;
#X connect 2 1 5 0;
#X connect 2 2 1 1;
#X connect 3 0 4 0;
#X connect 3 0 6 0;
#X connect 4 0 3 1;
#X connect 5 0 3 1;
#X connect 6 0 1 0;
#X connect 7 0 2 0;
#X connect 8 0 0 0;
#X restore 91 113 pd serial;
#X obj 21 80 t b a b, f 24;
#X obj 91 160 f;
#X obj 91 136 t b a;
#X obj 91 182 +;
#X msg 162 138 0;
#X obj 91 205 t a a;
#X obj 21 226 f;
#X obj 21 249 mod 256;
#X obj 21 272 outlet;
#X connect 0 0 1 0;
#X connect 1 0 2 0;
#X connect 2 0 4 0;
#X connect 3 0 6 0;
#X connect 4 0 10 0;
#X connect 4 1 3 0;
#X connect 4 2 8 0;
#X connect 5 0 7 0;
#X connect 6 0 5 0;
#X connect 6 1 7 1;
#X connect 7 0 9 0;
#X connect 8 0 5 1;
#X connect 9 0 10 1;
#X connect 9 1 5 1;
#X connect 10 0 11 0;
#X connect 11 0 12 0;
#X restore 615 165 pd generate_id;
#X obj 596 194 list append;
#X connect 0 0 50 0;
#X connect 1 0 0 1;
#X connect 2 0 0 0;
#X connect 4 0 8 0;
#X connect 5 0 19 0;
#X connect 6 0 3 0;
#X connect 8 0 7 1;
#X connect 9 0 10 0;
#X connect 10 0 11 0;
#X connect 11 0 12 0;
#X connect 12 0 14 0;
#X connect 14 0 13 0;
#X connect 15 0 21 0;
#X connect 17 0 14 1;
#X connect 17 0 10 1;
#X connect 18 0 38 0;
#X connect 19 0 20 0;
#X connect 19 1 9 0;
#X connect 19 2 7 0;
#X connect 20 0 18 0;
#X connect 21 0 16 0;
#X connect 23 0 24 0;
#X connect 24 0 28 0;
#X connect 24 1 29 0;
#X connect 25 0 30 0;
#X connect 26 0 22 0;
#X connect 27 0 22 0;
#X connect 28 0 26 0;
#X connect 29 0 27 0;
#X connect 30 0 28 0;
#X connect 30 1 31 0;
#X connect 31 0 32 0;
#X connect 32 0 29 1;
#X connect 32 0 28 1;
#X connect 33 0 29 0;
#X connect 34 0 5 0;
#X connect 35 0 36 0;
#X connect 36 0 37 0;
#X connect 39 0 40 0;
#X connect 41 0 43 0;
#X connect 43 0 42 0;
#X connect 44 0 55 0;
#X connect 45 0 46 0;
#X connect 46 0 47 0;
#X connect 47 0 48 0;
#X connect 48 0 44 0;
#X connect 50 0 49 0;
#X connect 50 1 51 0;
#X connect 51 0 49 0;
#X connect 52 0 54 1;
#X connect 53 0 54 0;
#X connect 54 1 39 0;
#X connect 55 0 57 0;
#X connect 55 1 56 0;
#X connect 55 2 53 0;
#X connect 56 0 57 1;
#X connect 57 0 34 0;
#X restore 8 192 pd chat.code;
#N canvas 667 381 509 572 latency.code 0;
#X obj 75 122 osc~;
#X obj 75 248 *~;
#X obj 12 51 t b b;
#X obj 75 98 vline~;
#X obj 74 379 sigmund~ -npts 4096 -hop 1024 pitch;
#X obj 74 400 mtof;
#X obj 12 451 f;
#X text 165 144 -6dB;
#X obj 74 272 lop~ 4000;
#X obj 74 302 lop~ 4000;
#X obj 74 329 lop~ 4000;
#X obj 74 359 lop~ 4000;
#X obj 90 202 dac~ 65;
#X obj 343 107 t a a;
#X obj 343 128 div 8;
#X obj 383 128 mod 8;
#X obj 343 181 pack f f;
#X msg 343 202 set \$1.channel.\$2;
#X obj 343 296 env~ 8192 8192;
#X obj 343 320 int;
#X obj 343 341 makefilename %3d;
#X msg 343 363 label \$1dB;
#X obj 343 386 s \$1.lat.ret.level;
#X obj 12 7 r \$1.latency.measurement.state;
#X obj 343 84 r \$1.lat.ret.ch;
#X obj 129 121 r \$1.latency.measurement.state;
#X obj 75 173 *~ 0;
#X obj 129 142 * 0.5;
#X msg 347 34 vis 1;
#X obj 347 13 r \$1.display.latency;
#X obj 347 55 s pd-latency;
#X obj 12 30 metro 1000;
#X obj 12 429 delay 900;
#N canvas 977 392 757 449 latency.display 0;
#X obj 35 200 int;
#X msg 35 243 label \$1ms;
#X obj 35 266 s \$1.latency.label;
#X obj 35 221 makefilename %3d;
#X obj 228 106 r \$1.latency.measurement.state;
#X msg 228 202 color -1 -1 \$1;
#X obj 228 127 - 1;
#X obj 228 176 f;
#X obj 35 22 inlet;
#X obj 35 43 t a b b;
#X obj 456 29 inlet;
#X obj 553 96 * 1.01;
#X obj 510 96 * 0.99;
#X obj 483 130 moses;
#X obj 510 152 moses;
#X obj 510 68 f;
#X obj 510 34 r \$1.lat.range.reset;
#X obj 456 75 sel 0;
#X obj 589 242 s \$1.lat.range.reset;
#X obj 562 216 t b a;
#X obj 510 243 t a b;
#X obj 537 279 f;
#X obj 588 296 + 1;
#X obj 537 304 t a a;
#X msg 562 248 0;
#X msg 537 366 0;
#X msg 582 367 1;
#X obj 127 161 f 13;
#X obj 537 392 s \$1.lat.mes.valid;
#X obj 211 265 r \$1.lat.mes.valid;
#X obj 211 286 sel 0 1;
#X msg 211 311 13;
#X msg 240 310 16;
#X obj 160 140 del 300;
#X obj 537 345 moses 20;
#X connect 0 0 3 0;
#X connect 1 0 2 0;
#X connect 3 0 1 0;
#X connect 4 0 6 0;
#X connect 5 0 2 0;
#X connect 6 0 7 0;
#X connect 7 0 5 0;
#X connect 8 0 9 0;
#X connect 9 0 0 0;
#X connect 9 1 27 0;
#X connect 9 2 33 0;
#X connect 10 0 17 0;
#X connect 11 0 14 1;
#X connect 12 0 13 1;
#X connect 13 0 19 0;
#X connect 13 1 14 0;
#X connect 14 0 20 0;
#X connect 14 1 19 0;
#X connect 15 0 12 0;
#X connect 15 0 11 0;
#X connect 16 0 15 0;
#X connect 17 1 13 0;
#X connect 19 0 24 0;
#X connect 19 1 18 0;
#X connect 20 1 21 0;
#X connect 21 0 23 0;
#X connect 22 0 21 1;
#X connect 23 0 34 0;
#X connect 23 1 22 0;
#X connect 24 0 21 0;
#X connect 25 0 28 0;
#X connect 26 0 28 0;
#X connect 27 0 5 0;
#X connect 29 0 30 0;
#X connect 30 0 31 0;
#X connect 30 1 32 0;
#X connect 31 0 27 1;
#X connect 32 0 27 1;
#X connect 33 0 7 0;
#X connect 34 0 25 0;
#X connect 34 1 26 0;
#X restore 12 525 pd latency.display;
#X obj 226 416 r \$1.latency.measurement.state;
#X obj 226 437 sel 0;
#X msg 226 458 stop;
#X obj 75 54 f;
#X msg 75 77 1000 \, 9000 \$1;
#N canvas 658 352 284 188 sample.period 0;
#X obj 91 29 loadbang;
#X msg 91 50 1;
#X obj 91 71 s \$1.lat.period.r;
#X obj 91 92 r \$1.lat.period;
#X obj 91 113 * 1000;
#X obj 91 134 outlet;
#X connect 0 0 1 0;
#X connect 1 0 2 0;
#X connect 3 0 4 0;
#X connect 4 0 5 0;
#X restore 151 39 pd sample.period;
#N canvas 658 406 284 188 sample.period 0;
#X obj 88 12 r \$1.lat.period;
#X obj 59 159 outlet;
#X obj 20 33 inlet;
#X obj 59 125 *;
#X obj 39 85 f;
#X obj 20 54 t b b a;
#X obj 88 59 / 8;
#X obj 88 33 t a a;
#X obj 147 101 * 1000;
#X obj 147 122 - 100;
#X obj 147 143 outlet;
#X connect 0 0 7 0;
#X connect 2 0 5 0;
#X connect 3 0 1 0;
#X connect 4 0 3 1;
#X connect 5 0 8 0;
#X connect 5 1 4 0;
#X connect 5 2 3 0;
#X connect 6 0 4 1;
#X connect 7 0 6 0;
#X connect 7 1 8 1;
#X connect 8 0 9 0;
#X connect 9 0 10 0;
#X restore 12 485 pd sample.period;
#X obj 343 225 r~ 1.channel.0;
#X obj 343 151 + 1;
#X connect 0 0 26 0;
#X connect 1 0 8 0;
#X connect 2 0 32 0;
#X connect 2 1 37 0;
#X connect 3 0 0 0;
#X connect 4 0 5 0;
#X connect 5 0 6 1;
#X connect 5 0 33 1;
#X connect 6 0 40 0;
#X connect 8 0 9 0;
#X connect 9 0 10 0;
#X connect 10 0 11 0;
#X connect 11 0 4 0;
#X connect 13 0 14 0;
#X connect 13 1 15 0;
#X connect 14 0 42 0;
#X connect 15 0 16 1;
#X connect 16 0 17 0;
#X connect 17 0 41 0;
#X connect 18 0 19 0;
#X connect 19 0 20 0;
#X connect 20 0 21 0;
#X connect 21 0 22 0;
#X connect 23 0 31 0;
#X connect 24 0 13 0;
#X connect 25 0 27 0;
#X connect 26 0 1 0;
#X connect 26 0 12 0;
#X connect 27 0 26 1;
#X connect 28 0 30 0;
#X connect 29 0 28 0;
#X connect 31 0 2 0;
#X connect 32 0 6 0;
#X connect 34 0 35 0;
#X connect 35 0 36 0;
#X connect 36 0 32 0;
#X connect 37 0 38 0;
#X connect 38 0 3 0;
#X connect 39 0 31 1;
#X connect 39 0 37 1;
#X connect 40 0 33 0;
#X connect 40 1 32 1;
#X connect 41 0 1 1;
#X connect 41 0 18 0;
#X connect 42 0 16 0;
#X restore 8 242 pd latency.code;
#N canvas 41 537 1034 543 messages.code 0;
#X obj 420 74 print TPF_ERROR;
#X msg 17 102 vis 1;
#X obj 216 28 text define \$1.msgs;
#X obj 612 264 loadbang;
#X obj 518 263 list;
#X msg 612 284 0;
#X obj 537 357 - 30;
#X obj 537 378 max 0;
#X obj 537 400 until;
#X obj 537 421 f 30;
#X obj 809 20 loadbang;
#X msg 518 491 totalsize \$1;
#X obj 518 285 t b b a;
#X obj 809 83 s \$1.msgs.buffer;
#X obj 615 397 r \$1.msgs.buffer;
#X obj 557 312 text insert \$1.msgs;
#X obj 537 336 text size \$1.msgs;
#X obj 537 444 text delete \$1.msgs;
#X obj 518 467 text size \$1.msgs;
#X obj 518 516 s \$1.scb.msgs.r;
#X obj 17 81 r \$1.display.messages;
#X obj 393 28 r \$1.error;
#X obj 518 30 r \$1.warning;
#X obj 660 27 r \$1.info;
#X obj 687 82 print TPF_INFO;
#X obj 393 49 t a a;
#X obj 518 56 t a a;
#X obj 545 81 print TPF_WARN;
#X obj 660 48 t a a;
#X msg 809 41 300;
#X obj 393 102 list prepend ERROR;
#X obj 518 105 list prepend WARNING;
#X obj 660 106 list prepend INFO;
#X obj 518 159 list split 1;
#N canvas 789 242 443 595 list2symbol 0;
#X obj 168 149 until;
#X obj 168 231 list store;
#X obj 168 174 f;
#X obj 206 175 + 1;
#X msg 222 147 0, f 2;
#X obj 168 122 t b b a;
#X msg 168 203 get \$1 1;
#X obj 166 298 list fromsymbol;
#X obj 167 253 list append;
#X msg 166 276 symbol \$1\$2;
#X obj 297 168 loadbang;
#X msg 297 199 symbol;
#X obj 166 339 list prepend append;
#X obj 166 360 list trim;
#X obj 72 394 list store;
#X obj 166 319 list append 32;
#X obj 68 64 t b b a;
#X obj 72 415 list tosymbol;
#X obj 68 43 list;
#X obj 72 436 outlet;
#X obj 68 21 inlet;
#X connect 0 0 2 0;
#X connect 1 0 8 0;
#X connect 1 1 0 1;
#X connect 2 0 3 0;
#X connect 2 0 6 0;
#X connect 3 0 2 1;
#X connect 4 0 2 1;
#X connect 5 0 0 0;
#X connect 5 1 4 0;
#X connect 5 2 1 1;
#X connect 6 0 1 0;
#X connect 7 0 15 0;
#X connect 8 0 9 0;
#X connect 9 0 7 0;
#X connect 10 0 11 0;
#X connect 11 0 8 1;
#X connect 12 0 13 0;
#X connect 13 0 14 0;
#X connect 14 0 17 0;
#X connect 15 0 12 0;
#X connect 16 0 14 1;
#X connect 16 1 14 0;
#X connect 16 2 5 0;
#X connect 17 0 19 0;
#X connect 18 0 16 0;
#X connect 20 0 18 0;
#X restore 552 183 pd list2symbol;
#X obj 518 213 list append;
#X obj 518 234 list append -1;
#X obj 393 123 t a b;
#X obj 518 126 t a b;
#X obj 660 127 t a b;
#X msg 675 195 -1;
#X msg 716 194 -2;
#X msg 743 193 -4;
#X msg 318 242 color 255 128 128;
#X obj 318 263 s \$1.display.messages.r;
#X obj 17 123 s pd-messages;
#X connect 1 0 45 0;
#X connect 3 0 5 0;
#X connect 4 0 12 0;
#X connect 5 0 15 1;
#X connect 6 0 7 0;
#X connect 7 0 8 0;
#X connect 8 0 9 0;
#X connect 9 0 17 0;
#X connect 10 0 29 0;
#X connect 11 0 19 0;
#X connect 12 0 18 0;
#X connect 12 1 16 0;
#X connect 12 2 15 0;
#X connect 14 0 9 1;
#X connect 14 0 6 1;
#X connect 16 0 6 0;
#X connect 18 0 11 0;
#X connect 20 0 1 0;
#X connect 21 0 25 0;
#X connect 22 0 26 0;
#X connect 23 0 28 0;
#X connect 25 0 30 0;
#X connect 25 1 0 0;
#X connect 26 0 31 0;
#X connect 26 1 27 0;
#X connect 28 0 32 0;
#X connect 28 1 24 0;
#X connect 29 0 13 0;
#X connect 30 0 37 0;
#X connect 31 0 38 0;
#X connect 32 0 39 0;
#X connect 33 0 35 0;
#X connect 33 1 34 0;
#X connect 34 0 35 1;
#X connect 35 0 36 0;
#X connect 36 0 4 0;
#X connect 37 0 33 0;
#X connect 37 1 40 0;
#X connect 37 1 43 0;
#X connect 38 0 33 0;
#X connect 38 1 41 0;
#X connect 39 0 33 0;
#X connect 39 1 42 0;
#X connect 40 0 36 1;
#X connect 41 0 36 1;
#X connect 42 0 36 1;
#X connect 43 0 44 0;
#X restore 8 217 pd messages.code;
#N canvas 219 132 984 405 settings.code 0;
#X msg 20 80 vis 1;
#X obj 31 57 r \$1.display.settings;
#X obj 20 101 s pd-settings;
#X obj 22 132 r \$1.name;
#X msg 22 155 label \$1;
#X obj 22 178 s \$1.name.display.r;
#X obj 22 219 r \$1.host;
#X obj 88 220 r \$1.room;
#X obj 22 267 pack s s;
#X obj 88 243 t b a;
#X msg 22 290 label \$1/\$2;
#X obj 22 313 s \$1.connection.display.r;
#X obj 20 9 r \$1.show.settings;
#X obj 20 32 sel;
#X obj 48 32 t a;
#X msg 624 205 label Save*;
#X obj 624 229 s \$1.save.r;
#N canvas 518 290 636 555 save.settings 0;
#X obj 11 17 r \$1.save.s;
#X msg 11 167 label Save;
#X obj 11 190 s \$1.save.r;
#X msg 248 315 fetch_settings;
#X obj 248 338 s \$1.intercom;
#X obj 248 361 r \$1.intercom;
#X obj 248 385 route save_settings;
#X obj 248 420 t a;
#X msg 358 217 clear;
#X obj 248 469 text set \$1.settings;
#X obj 248 443 list;
#X obj 307 416 loadbang;
#X msg 307 439 1e+15;
#X obj 11 40 t b b;
#X obj 139 191 t b a b b b, f 37;
#X msg 193 233 write -c \$1;
#X obj 193 263 outlet;
#X obj 335 18 r \$1.save.to.s;
#X obj 335 67 savepanel;
#X msg 38 75 symbol ../default_settings.cnf;
#X msg 335 44 symbol ..;
#X connect 0 0 13 0;
#X connect 1 0 2 0;
#X connect 3 0 4 0;
#X connect 5 0 6 0;
#X connect 6 0 7 0;
#X connect 7 0 10 0;
#X connect 8 0 16 0;
#X connect 10 0 9 0;
#X connect 11 0 12 0;
#X connect 12 0 9 1;
#X connect 13 0 1 0;
#X connect 13 1 19 0;
#X connect 14 1 15 0;
#X connect 14 2 3 0;
#X connect 14 4 8 0;
#X connect 15 0 16 0;
#X connect 17 0 20 0;
#X connect 18 0 14 0;
#X connect 19 0 14 0;
#X connect 20 0 18 0;
#X restore 427 16 pd save.settings;
#N canvas 0 106 645 562 load.settings 0;
#X obj 26 30 r \$1.load.settings;
#X obj 137 218 outlet;
#X msg 190 156 clear;
#X msg 137 178 read -c \$1;
#X obj 85 127 t b a b, f 18;
#X obj 85 362 text get \$1.settings;
#X obj 85 245 text size \$1.settings;
#X obj 85 291 until;
#X obj 85 268 t a b, f 8;
#X obj 85 314 f;
#X msg 130 292 0;
#X obj 85 337 t a a;
#X obj 134 330 + 1;
#X obj 85 411 list trim;
#X obj 85 443 s \$1.intercom;
#X obj 325 40 r \$1.load.from.s;
#X obj 325 91 openpanel;
#X msg 325 66 symbol ..;
#X msg 26 53 symbol ../default_settings.cnf;
#X obj 85 388 list prepend restore_settings;
#X connect 0 0 18 0;
#X connect 2 0 1 0;
#X connect 3 0 1 0;
#X connect 4 0 6 0;
#X connect 4 1 3 0;
#X connect 4 2 2 0;
#X connect 5 0 19 0;
#X connect 6 0 8 0;
#X connect 7 0 9 0;
#X connect 8 0 7 0;
#X connect 8 1 10 0;
#X connect 9 0 11 0;
#X connect 10 0 9 1;
#X connect 11 0 5 0;
#X connect 11 1 12 0;
#X connect 12 0 9 1;
#X connect 13 0 14 0;
#X connect 15 0 17 0;
#X connect 16 0 4 0;
#X connect 17 0 16 0;
#X connect 18 0 4 0;
#X connect 19 0 13 0;
#X restore 470 53 pd load.settings;
#X obj 427 97 text define \$1.settings;
#X obj 624 109 r \$1.intercom;
#X obj 426 127 r \$1.reset.s;
#X msg 426 150 reset;
#X obj 426 173 s \$1.intercom;
#X obj 195 50 tpf-settings-param \$1 host;
#X obj 195 71 tpf-settings-param \$1 room;
#X obj 195 91 tpf-settings-param \$1 name;
#X obj 195 111 tpf-settings-param \$1 port;
#X obj 195 131 tpf-settings-param \$1 channels;
#X obj 195 151 tpf-settings-param \$1 recvbuf;
#X obj 195 171 tpf-settings-param \$1 samplerate;
#X obj 195 191 tpf-settings-param \$1 codec;
#X obj 195 211 tpf-settings-param \$1 blocksize;
#X obj 195 231 tpf-settings-param \$1 bitdepth;
#X obj 195 251 tpf-settings-param \$1 packetsize;
#X obj 195 271 tpf-settings-param \$1 framesize;
#X obj 195 291 tpf-settings-param \$1 quality;
#X obj 195 311 tpf-settings-param \$1 bitrate;
#X obj 195 331 tpf-settings-param \$1 signal;
#X obj 195 351 tpf-settings-param \$1 usage;
#X obj 195 14 r \$1.intercom;
#X obj 624 132 route peer_swap_response modified_flag;
#X connect 0 0 2 0;
#X connect 1 0 0 0;
#X connect 3 0 4 0;
#X connect 4 0 5 0;
#X connect 6 0 8 0;
#X connect 7 0 9 0;
#X connect 8 0 10 0;
#X connect 9 0 8 0;
#X connect 9 1 8 1;
#X connect 10 0 11 0;
#X connect 12 0 13 0;
#X connect 13 0 0 0;
#X connect 13 1 14 0;
#X connect 14 0 13 1;
#X connect 15 0 16 0;
#X connect 17 0 19 0;
#X connect 18 0 19 0;
#X connect 20 0 41 0;
#X connect 21 0 22 0;
#X connect 22 0 23 0;
#X connect 24 0 25 0;
#X connect 25 0 26 0;
#X connect 26 0 27 0;
#X connect 27 0 28 0;
#X connect 28 0 29 0;
#X connect 29 0 30 0;
#X connect 30 0 31 0;
#X connect 31 0 32 0;
#X connect 32 0 33 0;
#X connect 33 0 34 0;
#X connect 34 0 35 0;
#X connect 35 0 36 0;
#X connect 36 0 37 0;
#X connect 37 0 38 0;
#X connect 38 0 39 0;
#X connect 40 0 24 0;
#X connect 41 0 15 0;
#X connect 41 1 15 0;
#X restore 8 137 pd settings.code;
#N canvas 220 217 559 377 peers 0;
#X obj 23 22 r \$1.receive;
#X obj 23 45 route peer_join;
#X obj 209 27 r \$1.receive;
#X obj 209 50 route peer_leave;
#X obj 23 69 list;
#X msg 23 92 symbol \$2;
#X msg 87 143 peer_reclaim \$1;
#X obj 87 170 s \$1.intercom;
#X obj 23 118 t a a b, f 22;
#X msg 156 244 1;
#X obj 23 272 spigot 0;
#X obj 68 198 r \$1.intercom;
#X obj 68 221 route peer_reclaimed;
#X msg 68 244 0;
#X msg 23 297 peer_new 1 \$1;
#X obj 23 323 s \$1.intercom;
#X obj 209 75 list;
#X msg 209 102 peer_leave \$2;
#X obj 209 129 s \$1.intercom;
#X obj 346 27 r \$1.connection.state;
#X obj 346 50 sel 0;
#X msg 346 73 peer_leave_all;
#X obj 346 99 s \$1.intercom;
#X connect 0 0 1 0;
#X connect 1 0 4 0;
#X connect 2 0 3 0;
#X connect 3 0 16 0;
#X connect 4 0 5 0;
#X connect 5 0 8 0;
#X connect 6 0 7 0;
#X connect 8 0 10 0;
#X connect 8 1 6 0;
#X connect 8 2 9 0;
#X connect 9 0 10 1;
#X connect 10 0 14 0;
#X connect 11 0 12 0;
#X connect 12 0 13 0;
#X connect 13 0 10 1;
#X connect 14 0 15 0;
#X connect 16 0 17 0;
#X connect 17 0 18 0;
#X connect 19 0 20 0;
#X connect 20 0 21 0;
#X connect 21 0 22 0;
#X restore 8 35 pd peers;
#X obj 296 22 adc~ 1 2 3 4 5 6 7 8, f 35;
#X obj 296 113 s \$1.from.aoo.s;
#X obj 306 50 r \$1.to.aoo.s;
#X obj 296 82 aoo_send~ 0 0 8, f 35;
#N canvas 0 103 526 531 format.code 0;
#X obj 21 408 r \$1.packetsize;
#N canvas 0 103 422 444 pcm.format 0;
#X obj 63 64 r \$1.channels;
#X obj 80 108 r \$1.blocksize;
#X text 191 375 ch bs sr bd;
#X obj 190 155 r \$1.bitdepth;
#X obj 190 178 / 8;
#X obj 52 257 pack f f f f, f 28;
#X obj 52 234 f;
#X obj 135 132 r \$1.samplerate;
#X obj 80 131 t b a;
#X obj 135 158 t b a;
#X obj 52 207 del 0;
#X obj 63 87 t b a;
#X obj 190 201 t b a;
#X obj 11 14 r \$1.codec;
#X obj 11 40 t a a;
#X obj 11 73 sel pcm;
#X obj 52 348 spigot 0;
#X obj 97 288 sel pcm;
#X msg 97 313 1;
#X msg 136 314 0;
#X msg 52 376 format pcm \$1 \$2 \$3 \$4;
#X obj 52 399 outlet;
#X connect 0 0 11 0;
#X connect 1 0 8 0;
#X connect 3 0 4 0;
#X connect 4 0 12 0;
#X connect 5 0 16 0;
#X connect 6 0 5 0;
#X connect 7 0 9 0;
#X connect 8 0 10 0;
#X connect 8 1 5 1;
#X connect 9 0 10 0;
#X connect 9 1 5 2;
#X connect 10 0 6 0;
#X connect 11 0 10 0;
#X connect 11 1 6 1;
#X connect 12 0 10 0;
#X connect 12 1 5 3;
#X connect 13 0 14 0;
#X connect 14 0 15 0;
#X connect 14 1 17 0;
#X connect 15 0 10 0;
#X connect 16 0 20 0;
#X connect 17 0 18 0;
#X connect 17 1 19 0;
#X connect 18 0 16 1;
#X connect 19 0 16 1;
#X connect 20 0 21 0;
#X restore 14 29 pd pcm.format;
#N canvas 0 103 422 444 opus.format 0;
#X obj 63 64 r \$1.channels;
#X obj 52 234 f;
#X obj 135 132 r \$1.samplerate;
#X obj 80 131 t b a;
#X obj 135 158 t b a;
#X obj 52 207 del 0;
#X obj 63 87 t b a;
#X obj 190 181 t b a;
#X obj 11 14 r \$1.codec;
#X obj 11 40 t a a;
#X obj 52 348 spigot 0;
#X msg 97 313 1;
#X msg 136 314 0;
#X obj 52 399 outlet;
#X text 203 375 ch fs sr us;
#X obj 190 155 r \$1.usage;
#X obj 52 257 pack f f f s, f 28;
#X obj 11 72 sel opus;
#X obj 97 288 sel opus;
#X obj 80 108 r \$1.framesize;
#X msg 52 376 format opus \$1 \$2 \$3 \$4;
#X connect 0 0 6 0;
#X connect 1 0 16 0;
#X connect 2 0 4 0;
#X connect 3 0 5 0;
#X connect 3 1 16 1;
#X connect 4 0 5 0;
#X connect 4 1 16 2;
#X connect 5 0 1 0;
#X connect 6 0 5 0;
#X connect 6 1 1 1;
#X connect 7 0 5 0;
#X connect 7 1 16 3;
#X connect 8 0 9 0;
#X connect 9 0 17 0;
#X connect 9 1 18 0;
#X connect 10 0 20 0;
#X connect 11 0 10 1;
#X connect 12 0 10 1;
#X connect 15 0 7 0;
#X connect 16 0 10 0;
#X connect 17 0 5 0;
#X connect 18 0 11 0;
#X connect 18 1 12 0;
#X connect 19 0 3 0;
#X connect 20 0 13 0;
#X restore 124 30 pd opus.format;
#X obj 148 116 r \$1.quality;
#X obj 328 47 r \$1.bitrate;
#X obj 243 121 r \$1.signal;
#X obj 306 173 list;
#X obj 328 146 t b a;
#X msg 306 198 bitrate \$1;
#X obj 223 146 symbol;
#X msg 223 169 signal \$1;
#X obj 124 148 f;
#X msg 124 171 complexity \$1;
#X obj 124 237 list prepend codec_set;
#X obj 124 260 list trim;
#X obj 124 53 t b b b a, f 27;
#X obj 124 319 spigot 0;
#X obj 283 77 t b a;
#X msg 282 283 1;
#X obj 14 52 t a b;
#X msg 41 262 0;
#X msg 21 431 packetsize \$1;
#X obj 328 70 *;
#X obj 410 52 r \$1.channels;
#X obj 410 75 t b a;
#X obj 14 342 s \$1.to.aoo.s;
#X obj 124 344 s \$1.to.aoo.s;
#X obj 21 457 s \$1.to.aoo.s;
#X obj 310 99 s \$1.to.aoo.s;
#X obj 416 480 s \$3.to.aoo.s;
#X obj 416 432 r \$1.send;
#X obj 416 455 route port;
#X connect 0 0 21 0;
#X connect 1 0 19 0;
#X connect 2 0 15 0;
#X connect 3 0 11 0;
#X connect 4 0 22 0;
#X connect 5 0 9 0;
#X connect 6 0 8 0;
#X connect 7 0 6 0;
#X connect 7 1 6 1;
#X connect 8 0 13 0;
#X connect 9 0 10 0;
#X connect 10 0 13 0;
#X connect 11 0 12 0;
#X connect 12 0 13 0;
#X connect 13 0 14 0;
#X connect 14 0 16 0;
#X connect 15 0 11 0;
#X connect 15 1 9 0;
#X connect 15 2 6 0;
#X connect 15 3 17 0;
#X connect 16 0 26 0;
#X connect 17 0 18 0;
#X connect 17 1 28 0;
#X connect 18 0 16 1;
#X connect 19 0 25 0;
#X connect 19 1 20 0;
#X connect 20 0 16 1;
#X connect 21 0 27 0;
#X connect 22 0 7 0;
#X connect 23 0 24 0;
#X connect 24 0 22 0;
#X connect 24 1 22 1;
#X connect 30 0 31 0;
#X connect 31 0 29 0;
#X restore 8 164 pd format.code;
#X obj 291 167 r \$1.to.aoo.s;
#X obj 291 190 print AOO.SEND;
#X connect 8 0 11 0;
#X connect 8 1 11 1;
#X connect 8 2 11 2;
#X connect 8 3 11 3;
#X connect 8 4 11 4;
#X connect 8 5 11 5;
#X connect 8 6 11 6;
#X connect 8 7 11 7;
#X connect 10 0 11 0;
#X connect 11 0 9 0;
#X connect 13 0 14 0;
