#N struct 1092.rectangle float id float x float y float w float h float txtclr float boxclr float bgclr symbol label;
#N struct 1094.rectangle float id float x float y float w float h float txtclr float boxclr float bgclr symbol label;
#N canvas 759 126 1704 1172 12;
#X declare -path mediasettings;
#X obj 1407 31 declare -path mediasettings;
#X obj 968 815 audiosettings;
#X obj 968 840 route device;
#X obj 968 864 route in out;
#X obj 968 918 route devices;
#X msg 967 950 append \$2;
#X obj 967 976 list store;
#X obj 924 912 t b b;
#X obj 967 1074 s \$0.audio.in.drop;
#X obj 967 1049 list trim;
#X obj 967 1015 list prepend items;
#X obj 1111 918 route devices;
#X msg 1110 943 append \$2;
#X obj 1110 976 list store;
#X obj 1110 1049 list trim;
#X obj 1110 1015 list prepend items;
#X obj 1110 1074 s \$0.audio.out.drop;
#X obj 735 29 r \$0.audio.in.drop;
#X obj 735 53 route selected;
#X obj 1111 856 text define \$0.indev;
#X obj 1111 880 text define \$0.outdev;
#X obj 839 1022 text set \$0.indev;
#X msg 877 998 1e+06;
#X msg 1260 969 1e+06;
#X obj 1222 993 text set \$0.outdev;
#X obj 839 974 t a b;
#X obj 1222 945 t a b;
#X obj 735 77 list;
#X obj 735 103 text search \$0.indev 1;
#X obj 735 268 audiosettings;
#X obj 938 63 route selected;
#X obj 938 87 list;
#X obj 938 39 r \$0.audio.out.drop;
#X obj 938 113 text search \$0.outdev 1;
#X msg 1158 794 clear;
#X msg 1157 823 clear;
#X obj 6 84 cnv 19 50 24 empty empty IN 5 12 0 16 #e0e0e0 #000000 0;
#X obj 6 118 cnv 19 50 24 empty empty OUT 5 12 0 16 #e0e0e0 #000000 0;
#X obj 558 84 cnv 10 12 24 empty empty empty 5 12 0 20 #e0e0e0 #000000 0;
#X obj 558 118 cnv 10 12 24 empty empty empty 5 12 0 20 #e0e0e0 #000000 0;
#N canvas 1802 443 450 300 \$0.gop 0;
#X obj 100 100 nbx 2 24 0 64 0 0 \$0.out.ch.s \$0.out.ch.r empty 0 -10 0 20 #ffffff #000000 #000000 0 256;
#X obj 101 101 cnv 10 11 22 empty empty empty 20 12 0 12 #ffffff #404040 0;
#X obj 142 101 cnv 7 7 7 empty empty empty 20 12 0 12 #ffffff #404040 0;
#X coords 0 -1 1 1 50 24 2 100 100;
#X restore 571 118 pd \$0.gop;
#N canvas 1802 443 450 300 \$0.gop 0;
#X obj 100 100 nbx 2 24 0 64 0 0 \$0.in.ch.s \$0.in.ch.r empty 0 14 0 20 #ffffff #000000 #000000 0 256;
#X obj 101 101 cnv 10 11 22 empty empty empty 20 12 0 12 #ffffff #404040 0;
#X obj 142 101 cnv 7 7 7 empty empty empty 20 12 0 12 #ffffff #404040 0;
#X coords 0 -1 1 1 50 24 2 100 100;
#X restore 571 84 pd \$0.gop;
#X msg 968 771 params @callback 0 \, driver ALSA \, listdevices;
#X obj 622 84 cnv 19 28 24 empty empty CH 5 12 0 16 #e0e0e0 #000000 0;
#X obj 809 145 r \$0.in.ch.s;
#X obj 735 176 list append;
#X msg 735 208 params @input \$1 \$2;
#X msg 938 211 params @output \$1 \$2;
#X obj 938 179 list append;
#X obj 1012 148 r \$0.out.ch.s;
#X obj 498 46 hsl 19 24 0 127 0 0 \$0.callback.check \$0.callback.check empty -2 12 0 40 #ffffff #ffffff #000000 0 1;
#X obj 520 46 cnv 19 130 24 empty empty Use\ callbacks 5 12 0 16 #e0e0e0 #000000 0;
#X obj 924 722 t b b b;
#N canvas 1802 443 450 300 \$0.gop 0;
#X obj 100 100 nbx 4 24 0 2048 0 0 \$0.audiobuf.s \$0.audiobuf.r empty 0 -10 0 20 #ffffff #000000 #aaaaaa 0 256;
#X obj 101 101 cnv 10 11 22 empty empty empty 20 12 0 12 #ffffff #404040 0;
#X obj 176 101 cnv 7 7 7 empty empty empty 20 12 0 12 #ffffff #404040 0;
#X coords 0 -1 1 1 84 24 2 100 100;
#X restore 289 46 pd \$0.gop;
#X obj 374 46 cnv 19 110 24 empty empty ms\ (buffer) 5 12 0 16 #e0e0e0 #000000 0;
#X obj 6 10 cnv 19 644 24 empty empty Audio\ Backend\ Settings 5 12 0 20 #7c7c7c #ffffff 0;
#X obj 924 682 loadbang;
#X obj 982 603 bng 19 250 50 0 empty empty empty 0 -10 0 12 #fcfcfc #000000 #000000;
#X obj 11 47 hsl 75 24 0 127 0 0 \$0.be.jack.click empty empty -2 -10 0 12 #fcfcfc #000000 #000000 0 1;
#X obj 92 47 hsl 185 24 0 127 0 0 \$0.be.coreaudio.click empty empty -2 -10 0 12 #fcfcfc #000000 #000000 0 1;
#X obj 8 47 cnv 19 80 24 empty \$0.be.jack.label JACK 5 12 0 20 #f0f0f0 #aaaaaa 0;
#X obj 89 47 cnv 19 190 24 empty \$0.be.coreaudio.label CoreAudio/ALSA✓ 5 12 0 20 #e0e0e0 #b00000 0;
#X obj 1370 259 r \$0.be.jack.click;
#X obj 1507 256 r \$0.be.coreaudio.click;
#X obj 1507 280 sel 0;
#X obj 1552 281 t a;
#X obj 1370 282 sel 0;
#X obj 1415 283 t a;
#X msg 1370 306 symbol JACK;
#X msg 1507 304 symbol CoreAudio;
#X obj 1216 428 select JACK;
#X msg 1216 473 symbol JACK✓;
#X msg 1290 453 symbol JACK;
#X obj 1216 623 s \$0.be.jack.label;
#X msg 1216 520 label \$1;
#X msg 1445 524 label \$1;
#X obj 1445 432 select CoreAudio;
#X obj 1445 631 s \$0.be.coreaudio.label;
#X msg 1445 482 symbol CoreAudio/ALSA✓;
#X msg 1519 459 symbol CoreAudio/ALSA;
#X msg 1290 540 list #f0f0f0 #aaaaaa;
#X msg 1265 591 color \$1 #000000 \$2;
#X msg 1491 551 list #f0f0f0 #aaaaaa;
#X msg 1466 602 color \$1 #000000 \$2;
#X msg 1264 564 list #e0e0e0 #b00000;
#X msg 1465 575 list #e0e0e0 #b00000;
#X obj 57 84 tpf-gui-dropdown \$0.audio.in.drop 500 24 16 0 0 777 0 686 787;
#X obj 57 118 tpf-gui-dropdown \$0.audio.out.drop 500 24 16 0 0 777 0 686 787;
#X obj 622 118 cnv 19 28 24 empty empty CH 5 12 0 16 #e0e0e0 #000000 0;
#X obj 1370 332 s \$1.be.type;
#X obj 1216 403 r \$1.be.type;
#X obj 1445 402 r \$1.be.type;
#N canvas 1221 516 456 299 callback 0;
#X obj 7 31 route float;
#X obj 7 54 sel 0;
#X obj 7 76 ==;
#X obj 50 54 t a;
#X msg 7 188 symbol ✓;
#X obj 7 146 sel 1 0;
#X msg 26 168 symbol empty;
#X msg 7 211 label \$1;
#X obj 7 8 r \$0.callback.check;
#X obj 7 234 s \$0.callback.check;
#X obj 35 75 r \$1.be.callback;
#X obj 7 101 s \$1.be.callback;
#X obj 7 123 r \$1.be.callback;
#X connect 0 0 1 0;
#X connect 1 0 2 0;
#X connect 1 1 3 0;
#X connect 2 0 11 0;
#X connect 3 0 1 1;
#X connect 4 0 7 0;
#X connect 5 0 4 0;
#X connect 5 1 6 0;
#X connect 6 0 7 0;
#X connect 7 0 9 0;
#X connect 8 0 0 0;
#X connect 10 0 2 1;
#X connect 12 0 5 0;
#X restore 712 343 pd callback;
#N canvas 1092 518 456 299 audiobuf 0;
#X obj 10 102 s \$1.be.audiobuf;
#X obj 243 24 r \$1.be.audiobuf;
#X obj 81 50 r \$1.be.callback;
#X obj 243 265 s \$0.audiobuf.r;
#X msg 243 238 set \$1;
#X obj 10 22 r \$0.audiobuf.s;
#X obj 10 74 spigot 1;
#X obj 81 74 == 0;
#X obj 321 66 r \$1.be.callback;
#X obj 243 144 list prepend;
#X obj 243 168 route 0 1;
#X msg 273 192 0;
#X obj 243 96 f;
#X obj 321 92 t b a;
#X obj 9 263 s \$0.audiobuf.r;
#X obj 9 131 r \$1.be.callback;
#X msg 32 184 list #ffffff #000000;
#X msg 9 205 list #ffffff #aaaaaa;
#X msg 9 236 color \$1 \$2;
#X obj 9 155 sel 1 0;
#X connect 1 0 12 0;
#X connect 2 0 7 0;
#X connect 4 0 3 0;
#X connect 5 0 6 0;
#X connect 6 0 0 0;
#X connect 7 0 6 1;
#X connect 8 0 13 0;
#X connect 9 0 10 0;
#X connect 10 0 4 0;
#X connect 10 1 11 0;
#X connect 11 0 4 0;
#X connect 12 0 9 0;
#X connect 13 0 12 0;
#X connect 13 1 9 1;
#X connect 15 0 19 0;
#X connect 16 0 18 0;
#X connect 17 0 18 0;
#X connect 18 0 14 0;
#X connect 19 0 17 0;
#X connect 19 1 16 0;
#X restore 712 367 pd audiobuf;
#N canvas 1092 518 565 381 input.channels 0;
#X msg 243 317 set \$1;
#X obj 10 74 spigot 1;
#X obj 81 74 == 0;
#X obj 243 223 list prepend;
#X obj 243 247 route 0 1;
#X msg 273 271 0;
#X obj 243 175 f;
#X obj 321 171 t b a;
#X msg 41 245 list #ffffff #000000;
#X msg 18 266 list #ffffff #aaaaaa;
#X msg 18 297 color \$1 \$2;
#X obj 18 216 sel 1 0;
#X obj 243 344 s \$0.in.ch.r;
#X obj 10 22 r \$0.in.ch.s;
#X obj 18 324 s \$0.in.ch.r;
#X obj 10 102 s \$1.be.input.channels;
#X obj 243 24 r \$1.be.input.channels;
#X obj 321 66 r \$1.be.type;
#X obj 321 90 select JACK;
#X msg 321 114 1;
#X msg 395 114 0;
#X connect 0 0 12 0;
#X connect 1 0 15 0;
#X connect 2 0 1 1;
#X connect 3 0 4 0;
#X connect 4 0 0 0;
#X connect 4 1 5 0;
#X connect 5 0 0 0;
#X connect 6 0 3 0;
#X connect 7 0 6 0;
#X connect 7 1 3 1;
#X connect 7 1 2 0;
#X connect 7 1 11 0;
#X connect 8 0 10 0;
#X connect 9 0 10 0;
#X connect 10 0 14 0;
#X connect 11 0 9 0;
#X connect 11 1 8 0;
#X connect 13 0 1 0;
#X connect 16 0 6 0;
#X connect 17 0 18 0;
#X connect 18 0 19 0;
#X connect 18 1 20 0;
#X connect 19 0 7 0;
#X connect 20 0 7 0;
#X restore 712 391 pd input.channels;
#N canvas 1092 518 565 381 output.channels 0;
#X msg 243 317 set \$1;
#X obj 10 74 spigot 1;
#X obj 81 74 == 0;
#X obj 243 223 list prepend;
#X obj 243 247 route 0 1;
#X msg 273 271 0;
#X obj 243 175 f;
#X obj 321 171 t b a;
#X msg 41 245 list #ffffff #000000;
#X msg 18 266 list #ffffff #aaaaaa;
#X msg 18 297 color \$1 \$2;
#X obj 18 216 sel 1 0;
#X obj 321 66 r \$1.be.type;
#X obj 321 90 select JACK;
#X msg 321 114 1;
#X msg 395 114 0;
#X obj 10 22 r \$0.out.ch.s;
#X obj 10 102 s \$1.be.output.channels;
#X obj 18 324 s \$0.out.ch.r;
#X obj 243 24 r \$1.be.output.channels;
#X obj 243 344 s \$0.out.ch.r;
#X connect 0 0 20 0;
#X connect 1 0 17 0;
#X connect 2 0 1 1;
#X connect 3 0 4 0;
#X connect 4 0 0 0;
#X connect 4 1 5 0;
#X connect 5 0 0 0;
#X connect 6 0 3 0;
#X connect 7 0 6 0;
#X connect 7 1 3 1;
#X connect 7 1 2 0;
#X connect 7 1 11 0;
#X connect 8 0 10 0;
#X connect 9 0 10 0;
#X connect 10 0 18 0;
#X connect 11 0 9 0;
#X connect 11 1 8 0;
#X connect 12 0 13 0;
#X connect 13 0 14 0;
#X connect 13 1 15 0;
#X connect 14 0 7 0;
#X connect 15 0 7 0;
#X connect 16 0 1 0;
#X connect 19 0 6 0;
#X restore 712 416 pd output.channels;
#X connect 1 0 2 0;
#X connect 2 0 3 0;
#X connect 3 0 4 0;
#X connect 3 1 11 0;
#X connect 4 1 5 0;
#X connect 4 1 25 0;
#X connect 5 0 6 0;
#X connect 6 0 10 0;
#X connect 7 0 6 1;
#X connect 7 0 13 1;
#X connect 7 1 6 0;
#X connect 7 1 13 0;
#X connect 9 0 8 0;
#X connect 10 0 9 0;
#X connect 11 1 12 0;
#X connect 11 1 26 0;
#X connect 12 0 13 0;
#X connect 13 0 15 0;
#X connect 14 0 16 0;
#X connect 15 0 14 0;
#X connect 17 0 18 0;
#X connect 18 0 27 0;
#X connect 22 0 21 1;
#X connect 23 0 24 1;
#X connect 25 0 21 0;
#X connect 25 1 22 0;
#X connect 26 0 24 0;
#X connect 26 1 23 0;
#X connect 27 0 28 0;
#X connect 28 0 45 0;
#X connect 30 0 31 0;
#X connect 31 0 33 0;
#X connect 32 0 30 0;
#X connect 33 0 48 0;
#X connect 34 0 19 0;
#X connect 35 0 20 0;
#X connect 42 0 1 0;
#X connect 44 0 45 1;
#X connect 45 0 46 0;
#X connect 46 0 29 0;
#X connect 47 0 29 0;
#X connect 48 0 47 0;
#X connect 49 0 48 1;
#X connect 52 0 7 0;
#X connect 52 1 42 0;
#X connect 52 2 34 0;
#X connect 52 2 35 0;
#X connect 56 0 52 0;
#X connect 57 0 52 0;
#X connect 62 0 66 0;
#X connect 63 0 64 0;
#X connect 64 0 69 0;
#X connect 64 1 65 0;
#X connect 65 0 64 1;
#X connect 66 0 68 0;
#X connect 66 1 67 0;
#X connect 67 0 66 1;
#X connect 68 0 89 0;
#X connect 69 0 89 0;
#X connect 70 0 71 0;
#X connect 70 0 84 0;
#X connect 70 1 72 0;
#X connect 70 1 80 0;
#X connect 71 0 74 0;
#X connect 72 0 74 0;
#X connect 74 0 73 0;
#X connect 75 0 77 0;
#X connect 76 0 78 0;
#X connect 76 0 85 0;
#X connect 76 1 79 0;
#X connect 76 1 82 0;
#X connect 78 0 75 0;
#X connect 79 0 75 0;
#X connect 80 0 81 0;
#X connect 81 0 73 0;
#X connect 82 0 83 0;
#X connect 83 0 77 0;
#X connect 84 0 81 0;
#X connect 85 0 83 0;
#X connect 90 0 70 0;
#X connect 91 0 76 0;
#X coords 0 -1 1 1 660 480 2 0 0;
