#N canvas 235 450 531 205 10;
#N canvas 225 837 463 313 \$0.gop 0;
#X obj 20 200 tpf-client-outchannel \$3 \$2 1;
#X obj 55 200 tpf-client-outchannel \$3 \$2 2;
#X obj 90 200 tpf-client-outchannel \$3 \$2 3;
#X obj 125 200 tpf-client-outchannel \$3 \$2 4;
#X obj 160 200 tpf-client-outchannel \$3 \$2 5;
#X obj 195 200 tpf-client-outchannel \$3 \$2 6;
#X obj 230 200 tpf-client-outchannel \$3 \$2 7;
#X obj 265 200 tpf-client-outchannel \$3 \$2 8;
#X obj 18 58 aoo_receive~ 0 \$2 8, f 38;
#X obj 18 19 r \$3.to.aoo.r;
#X obj 243 89 s \$3.from.aoo.r;
#X connect 8 0 0 0;
#X connect 8 1 1 0;
#X connect 8 2 2 0;
#X connect 8 3 3 0;
#X connect 8 4 4 0;
#X connect 8 5 5 0;
#X connect 8 6 6 0;
#X connect 8 7 7 0;
#X connect 8 8 10 0;
#X connect 9 0 8 0;
#X coords 0 -1 1 1 279 32 2 20 200;
#X restore 20 20 pd \$0.gop;
#X coords 0 -1 1 1 279 32 2 20 20;
