#N canvas 955 30 439 342 10;
#N canvas 470 103 983 554 communication 0;
#X msg 63 190 disconnect;
#X obj 44 20 r \$1.connect;
#X obj 44 40 sel 1 0;
#X obj 44 101 symbol;
#X obj 77 72 r \$1.host;
#N canvas 0 139 377 257 msgs 0;
#X obj 42 17 r \$1.connection.state;
#X obj 42 38 sel 1 0;
#X obj 118 53 r \$1.host;
#X obj 41 89 symbol;
#X obj 91 92 symbol;
#X obj 45 215 s \$1.info;
#X msg 37 176 connected to '\$1:\$2';
#X msg 209 175 disconnected from '\$1:\$2';
#X obj 38 149 list append;
#X obj 209 144 list append;
#X obj 210 63 r \$1.port;
#X connect 0 0 1 0;
#X connect 1 0 3 0;
#X connect 1 1 4 0;
#X connect 2 0 3 1;
#X connect 2 0 4 1;
#X connect 3 0 8 0;
#X connect 4 0 9 0;
#X connect 6 0 5 0;
#X connect 7 0 5 0;
#X connect 8 0 6 0;
#X connect 9 0 7 0;
#X connect 10 0 8 1;
#X connect 10 0 9 1;
#X restore 21 509 pd msgs;
#X obj 113 100 r \$1.port;
#X obj 69 391 s \$1.connection.state;
#X obj 135 319 s \$1.origin;
#N canvas 838 489 296 241 keep_alive_DISABLED 0;
#X obj 6 16 r \$1.connection.state;
#X obj 25 99 del 1000;
#X obj 6 39 sel 0 1;
#X msg 6 68 stop;
#X obj 6 128 metro 60000;
#X msg 6 151 /s/server/dummy;
#X obj 6 175 s \$1.send;
#X connect 1 0 4 0;
#X connect 2 0 3 0;
#X connect 2 1 1 0;
#X connect 3 0 1 0;
#X connect 3 0 4 0;
#X connect 4 0 5 0;
#X connect 5 0 6 0;
#X restore 383 514 pd keep_alive_DISABLED;
#X obj 88 344 s \$1.receive;
#X obj 42 265 r \$1.send;
#X obj 182 99 r \$1.name;
#X obj 251 99 r \$1.room;
#X obj 44 135 pack s f s s, f 35;
#X msg 44 164 connect \$1 \$2 \$3 _ \$4 _;
#X text 198 165 <- setting user and group password to '_'.;
#X obj 42 446 s \$1.registered;
#X obj 44 211 s \$1.send;
#X obj 42 422 sel 1;
#X obj 42 366 t a a;
#X obj 254 244 r \$1.registered;
#X obj 254 320 s \$1.info;
#X obj 298 273 r \$1.name;
#X obj 366 274 r \$1.room;
#X msg 254 296 registered name '\$1';
#X obj 254 273 symbol;
#X obj 441 251 r \$1.receive;
#X obj 441 275 route group_join;
#X msg 441 320 joined room '\$1';
#X obj 441 344 s \$1.info;
#X obj 441 298 list;
#X obj 692 332 r \$1.receive;
#X obj 692 355 route list;
#X obj 692 378 oscparse;
#X obj 692 424 s \$1.oscrecv;
#X obj 633 26 r \$1.oscsend;
#X obj 690 247 oscformat;
#X obj 690 270 s \$1.send;
#X obj 840 186 list append;
#X obj 903 151 r \$1.room;
#X obj 771 266 s \$1.send;
#X obj 692 401 list trim;
#X obj 633 49 route dest;
#X obj 633 72 list;
#X obj 633 95 t a a;
#X msg 771 129 symbol \$1;
#X obj 633 137 list split 1;
#X obj 667 188 list prepend set;
#X obj 667 211 list trim;
#X obj 690 106 list;
#X msg 840 220 target \$2 \$1;
#X obj 771 153 sel _all, f 12;
#X obj 771 187 symbol;
#X msg 771 220 target \$1;
#X obj 799 316 spigot;
#X msg 845 289 1;
#X msg 880 289 0;
#X obj 690 73 route list symbol float bang;
#X obj 42 292 tpf-aoo-client .;
#X connect 0 0 18 0;
#X connect 1 0 2 0;
#X connect 2 0 3 0;
#X connect 2 1 0 0;
#X connect 3 0 14 0;
#X connect 4 0 3 1;
#X connect 6 0 14 1;
#X connect 11 0 59 0;
#X connect 12 0 14 2;
#X connect 13 0 14 3;
#X connect 14 0 15 0;
#X connect 15 0 18 0;
#X connect 19 0 17 0;
#X connect 20 0 19 0;
#X connect 20 1 7 0;
#X connect 21 0 26 0;
#X connect 23 0 26 1;
#X connect 25 0 22 0;
#X connect 26 0 25 0;
#X connect 27 0 28 0;
#X connect 28 0 31 0;
#X connect 29 0 30 0;
#X connect 31 0 29 0;
#X connect 32 0 33 0;
#X connect 33 0 34 0;
#X connect 34 0 42 0;
#X connect 36 0 43 0;
#X connect 37 0 38 0;
#X connect 37 0 55 0;
#X connect 39 0 51 0;
#X connect 40 0 39 1;
#X connect 40 0 53 1;
#X connect 42 0 35 0;
#X connect 43 0 44 0;
#X connect 43 1 58 0;
#X connect 44 0 45 0;
#X connect 45 0 47 0;
#X connect 45 1 46 0;
#X connect 46 0 52 0;
#X connect 47 1 48 0;
#X connect 48 0 49 0;
#X connect 49 0 37 0;
#X connect 50 0 37 0;
#X connect 51 0 41 0;
#X connect 52 0 53 0;
#X connect 52 0 56 0;
#X connect 52 1 39 0;
#X connect 52 1 57 0;
#X connect 53 0 54 0;
#X connect 54 0 41 0;
#X connect 55 0 34 0;
#X connect 56 0 55 1;
#X connect 57 0 55 1;
#X connect 58 0 50 0;
#X connect 58 1 50 0;
#X connect 58 2 50 0;
#X connect 58 3 50 0;
#X connect 59 0 20 0;
#X connect 59 1 10 0;
#X connect 59 2 8 0;
#X restore 8 70 pd communication;
#N canvas 1016 264 316 272 gui.code 0;
#N canvas 2026 859 379 223 host 0;
#X restore 8 26 pd host;
#N canvas 854 838 343 302 latency.switch 0;
#X obj 43 23 r \$1.latency.switch;
#X obj 136 206 s \$1.latency.switch.r;
#X msg 136 178 color \$1 \$2 \$3;
#X msg 136 149 0 0 0;
#X msg 185 149 0 0 255;
#X obj 43 57 == 0;
#X obj 43 78 t a a a;
#X obj 136 118 sel 0 1;
#X obj 185 29 loadbang;
#X msg 185 50 0;
#X obj 43 237 s \$1.latency.measurement.state;
#X connect 0 0 5 0;
#X connect 2 0 1 0;
#X connect 3 0 2 0;
#X connect 4 0 2 0;
#X connect 5 0 6 0;
#X connect 6 0 10 0;
#X connect 6 1 7 0;
#X connect 6 2 5 1;
#X connect 7 0 3 0;
#X connect 7 1 4 0;
#X connect 8 0 9 0;
#X connect 9 0 6 0;
#X restore 9 49 pd latency.switch;
#N canvas 881 518 615 188 connect 0;
#X obj 47 85 r \$1.connection.state;
#X obj 16 104 ==;
#X obj 16 125 s \$1.connect;
#X obj 16 46 t b b;
#X obj 266 31 r \$1.registered;
#X obj 184 6 r \$1.connection.state;
#X obj 477 17 r \$1.error;
#X obj 16 11 r \$1.connect.switch;
#X obj 204 138 s \$1.connect.switch.r;
#X msg 204 107 color \$1 \$2 \$3;
#X msg 477 37 255 0 0;
#X msg 266 53 0 0 255;
#X msg 203 57 0 0 0;
#X msg 123 58 192 192 192;
#X obj 407 104 loadbang;
#X obj 184 33 sel 1 0;
#X connect 0 0 1 1;
#X connect 1 0 2 0;
#X connect 3 0 1 0;
#X connect 4 0 11 0;
#X connect 5 0 15 0;
#X connect 6 0 10 0;
#X connect 7 0 3 0;
#X connect 9 0 8 0;
#X connect 10 0 9 0;
#X connect 11 0 9 0;
#X connect 12 0 9 0;
#X connect 13 0 9 0;
#X connect 14 0 12 0;
#X connect 15 0 13 0;
#X connect 15 1 12 0;
#X restore 8 7 pd connect;
#N canvas 1072 549 450 300 show.code 0;
#X obj 33 22 r \$1.show.code;
#X obj 33 45 sel;
#X obj 77 48 t a;
#X obj 146 29 keyname;
#X obj 146 54 pack f s;
#X msg 146 79 \$2 \$1;
#X obj 146 102 route Shift_L;
#X obj 33 103 spigot;
#X msg 33 130 vis 1;
#X obj 33 153 s pd-\$1.code;
#X connect 0 0 1 0;
#X connect 1 0 7 0;
#X connect 1 1 2 0;
#X connect 2 0 1 1;
#X connect 3 0 4 0;
#X connect 3 1 4 1;
#X connect 4 0 5 0;
#X connect 5 0 6 0;
#X connect 6 0 7 1;
#X connect 7 0 8 0;
#X connect 8 0 9 0;
#X restore 9 70 pd show.code;
#N canvas 1384 26 450 300 suppress.artefacts 0;
#X obj 72 69 r \$1.channels.gui;
#X msg 72 204 map 0 \, map 1;
#X obj 72 227 s pd-settings;
#X obj 95 101 r \$1.codec.gui;
#X obj 72 157 b;
#X obj 73 181 del 40;
#X connect 0 0 4 0;
#X connect 1 0 2 0;
#X connect 3 0 4 0;
#X connect 4 0 5 0;
#X connect 5 0 1 0;
#X restore 9 94 pd suppress.artefacts;
#X restore 8 130 pd gui.code;
#N canvas 472 277 992 567 chat.code 0;
#X obj 52 52 list prepend <name>;
#X obj 163 28 r \$1.name;
#X obj 52 27 r \$1.chat.s;
#X obj 295 52 text define \$1.chat;
#X obj 690 242 loadbang;
#X obj 596 241 list;
#X msg 295 28 clear;
#X obj 635 290 text insert \$1.chat;
#X msg 690 262 0;
#X obj 615 314 text size \$1.chat;
#X obj 615 335 - 30;
#X obj 615 356 max 0;
#X obj 615 378 until;
#X obj 615 422 text delete \$1.chat;
#X obj 615 399 f 30;
#X obj 785 26 loadbang;
#X obj 785 89 s \$1.chat.buffer;
#X obj 693 375 r \$1.chat.buffer;
#X msg 596 469 totalsize \$1;
#X obj 596 263 t b b a;
#X obj 596 446 text size \$1.chat;
#X msg 785 47 80;
#X obj 103 372 s \$1.chat.r;
#X obj 104 185 r \$1.connection.state;
#X obj 104 206 sel 0 1;
#X obj 291 179 loadbang;
#X msg 103 313 set <not\$1connected>;
#X msg 233 315 set <Enter\$1your\$1message\$1here>;
#X obj 103 277 symbol;
#X obj 233 276 symbol;
#X obj 291 200 t b b;
#X msg 318 222 32;
#X obj 318 243 makefilename %c;
#X obj 309 130 bng 15 250 50 0 empty empty empty 17 7 0 10 #fcfcfc
#000000 #000000;
#N canvas 1136 447 521 398 wrap 0;
#X obj 17 8 inlet;
#X obj 44 345 outlet;
#X obj 17 139 list fromsymbol;
#X obj 17 182 list tosymbol;
#X msg 17 55 list \$2 \$1 \$3;
#X obj 44 302 pack s s f;
#X msg 44 323 list \$2 \$1 \$3;
#X obj 17 76 unpack s s f;
#X obj 17 217 t b a;
#X msg 17 256 symbol;
#X obj 17 30 list;
#N canvas 966 53 526 756 serialize 0;
#X obj 92 152 until;
#X obj 91 431 list store;
#X obj 91 177 f;
#X msg 144 152 0, f 2;
#X obj 92 96 t b b a a;
#X obj 207 208 list length;
#X obj 91 198 t a a;
#X obj 175 246 pack f f;
#X msg 175 267 \$2 \$1;
#X obj 175 288 -;
#X obj 175 330 max 1;
#X obj 91 364 pack f f;
#X msg 91 400 get \$1 \$2;
#X obj 92 47 inlet;
#X obj 91 458 outlet;
#X obj 131 178 + 73;
#X obj 175 309 min 73;
#X connect 0 0 2 0;
#X connect 1 0 14 0;
#X connect 1 1 0 1;
#X connect 2 0 6 0;
#X connect 2 0 15 0;
#X connect 3 0 2 1;
#X connect 4 0 0 0;
#X connect 4 1 3 0;
#X connect 4 2 5 0;
#X connect 4 3 1 1;
#X connect 5 0 7 1;
#X connect 6 0 11 0;
#X connect 6 1 7 0;
#X connect 7 0 8 0;
#X connect 8 0 9 0;
#X connect 9 0 16 0;
#X connect 10 0 11 1;
#X connect 11 0 12 0;
#X connect 12 0 1 0;
#X connect 13 0 4 0;
#X connect 15 0 2 1;
#X connect 16 0 10 0;
#X restore 18 161 pd serialize 73;
#X connect 0 0 10 0;
#X connect 2 0 11 0;
#X connect 3 0 8 0;
#X connect 4 0 7 0;
#X connect 5 0 6 0;
#X connect 6 0 1 0;
#X connect 7 0 2 0;
#X connect 7 1 5 1;
#X connect 7 2 5 2;
#X connect 8 0 9 0;
#X connect 8 1 5 0;
#X connect 9 0 5 1;
#X connect 10 0 4 0;
#X connect 11 0 3 0;
#X restore 596 219 pd wrap;
#X obj 277 438 r \$1.display.chat;
#X msg 277 459 vis 1;
#X obj 277 480 s pd-chat;
#X obj 596 494 s \$1.scb.chat.r;
#X obj 821 181 b;
#X obj 821 206 s \$1.new.chat.msg;
#X obj 284 345 r \$1.new.chat.msg;
#X obj 284 387 s \$1.display.chat.r;
#X msg 284 366 color 128 255 128;
#X obj 596 115 list;
#X obj 596 19 r \$1.oscrecv;
#X obj 596 42 route tpf;
#X obj 596 64 route chat;
#X obj 596 87 route message;
#X obj 52 123 s \$1.oscsend;
#X obj 52 75 t a b;
#X msg 79 97 dest _all tpf chat message;
#X obj 821 129 r \$1.name;
#X msg 724 121 symbol \$1;
#X obj 794 151 sel /;
#X obj 596 143 t a a a;
#N canvas 0 103 374 311 generate_id 0;
#X obj 21 4 inlet;
#X msg 21 29 symbol \$1;
#X obj 21 56 list fromsymbol;
#N canvas 0 103 375 321 serial 0;
#X obj 73 169 until;
#X obj 86 252 list store;
#X obj 88 122 t b b l;
#X obj 73 194 f;
#X obj 111 195 + 1;
#X msg 130 169 0, f 2;
#X msg 73 225 get \$1 1;
#X obj 93 81 inlet;
#X msg 73 144 5;
#X obj 86 275 outlet;
#X connect 0 0 3 0;
#X connect 1 0 9 0;
#X connect 1 1 0 1;
#X connect 2 0 8 0;
#X connect 2 1 5 0;
#X connect 2 2 1 1;
#X connect 3 0 4 0;
#X connect 3 0 6 0;
#X connect 4 0 3 1;
#X connect 5 0 3 1;
#X connect 6 0 1 0;
#X connect 7 0 2 0;
#X connect 8 0 0 0;
#X restore 91 113 pd serial;
#X obj 21 80 t b a b, f 24;
#X obj 91 160 f;
#X obj 91 136 t b a;
#X obj 91 182 +;
#X msg 162 138 0;
#X obj 91 205 t a a;
#X obj 21 226 f;
#X obj 21 249 mod 256;
#X obj 21 272 outlet;
#X connect 0 0 1 0;
#X connect 1 0 2 0;
#X connect 2 0 4 0;
#X connect 3 0 6 0;
#X connect 4 0 10 0;
#X connect 4 1 3 0;
#X connect 4 2 8 0;
#X connect 5 0 7 0;
#X connect 6 0 5 0;
#X connect 6 1 7 1;
#X connect 7 0 9 0;
#X connect 8 0 5 1;
#X connect 9 0 10 1;
#X connect 9 1 5 1;
#X connect 10 0 11 0;
#X connect 11 0 12 0;
#X restore 615 165 pd generate_id;
#X obj 596 194 list append;
#X connect 0 0 50 0;
#X connect 1 0 0 1;
#X connect 2 0 0 0;
#X connect 4 0 8 0;
#X connect 5 0 19 0;
#X connect 6 0 3 0;
#X connect 8 0 7 1;
#X connect 9 0 10 0;
#X connect 10 0 11 0;
#X connect 11 0 12 0;
#X connect 12 0 14 0;
#X connect 14 0 13 0;
#X connect 15 0 21 0;
#X connect 17 0 14 1;
#X connect 17 0 10 1;
#X connect 18 0 38 0;
#X connect 19 0 20 0;
#X connect 19 1 9 0;
#X connect 19 2 7 0;
#X connect 20 0 18 0;
#X connect 21 0 16 0;
#X connect 23 0 24 0;
#X connect 24 0 28 0;
#X connect 24 1 29 0;
#X connect 25 0 30 0;
#X connect 26 0 22 0;
#X connect 27 0 22 0;
#X connect 28 0 26 0;
#X connect 29 0 27 0;
#X connect 30 0 28 0;
#X connect 30 1 31 0;
#X connect 31 0 32 0;
#X connect 32 0 29 1;
#X connect 32 0 28 1;
#X connect 33 0 29 0;
#X connect 34 0 5 0;
#X connect 35 0 36 0;
#X connect 36 0 37 0;
#X connect 39 0 40 0;
#X connect 41 0 43 0;
#X connect 43 0 42 0;
#X connect 44 0 55 0;
#X connect 45 0 46 0;
#X connect 46 0 47 0;
#X connect 47 0 48 0;
#X connect 48 0 44 0;
#X connect 50 0 49 0;
#X connect 50 1 51 0;
#X connect 51 0 49 0;
#X connect 52 0 54 1;
#X connect 53 0 54 0;
#X connect 54 1 39 0;
#X connect 55 0 57 0;
#X connect 55 1 56 0;
#X connect 55 2 53 0;
#X connect 56 0 57 1;
#X connect 57 0 34 0;
#X restore 8 220 pd chat.code;
#N canvas 667 381 623 572 latency.code 0;
#X obj 75 122 osc~;
#X obj 75 248 *~;
#X obj 12 51 t b b;
#X obj 75 98 vline~;
#X obj 74 379 sigmund~ -npts 4096 -hop 1024 pitch;
#X obj 74 400 mtof;
#X obj 12 451 f;
#X text 165 144 -6dB;
#X obj 74 272 lop~ 4000;
#X obj 74 302 lop~ 4000;
#X obj 74 329 lop~ 4000;
#X obj 74 359 lop~ 4000;
#X obj 112 221 dac~ 65;
#X obj 343 107 t a a;
#X obj 343 128 div 8;
#X obj 383 128 mod 8;
#X obj 343 181 pack f f;
#X msg 343 202 set \$1.channel.\$2;
#X obj 343 296 env~ 8192 8192;
#X obj 343 320 int;
#X obj 343 341 makefilename %3d;
#X msg 343 363 label \$1dB;
#X obj 343 386 s \$1.lat.ret.level;
#X obj 12 7 r \$1.latency.measurement.state;
#X obj 343 63 r \$1.lat.ret.ch;
#X obj 129 121 r \$1.latency.measurement.state;
#X obj 75 173 *~ 0;
#X obj 129 142 * 0.5;
#X msg 312 507 vis 1;
#X obj 312 486 r \$1.display.latency;
#X obj 312 530 s pd-latency;
#X obj 12 30 metro 1000;
#X obj 12 429 delay 900;
#N canvas 977 392 757 449 latency.display 0;
#X obj 35 200 int;
#X msg 35 243 label \$1ms;
#X obj 35 266 s \$1.latency.label;
#X obj 35 221 makefilename %3d;
#X obj 228 106 r \$1.latency.measurement.state;
#X msg 228 202 color -1 -1 \$1;
#X obj 228 127 - 1;
#X obj 228 176 f;
#X obj 35 22 inlet;
#X obj 35 43 t a b b;
#X obj 456 29 inlet;
#X obj 553 96 * 1.01;
#X obj 510 96 * 0.99;
#X obj 483 130 moses;
#X obj 510 152 moses;
#X obj 510 68 f;
#X obj 510 34 r \$1.lat.range.reset;
#X obj 456 75 sel 0;
#X obj 589 242 s \$1.lat.range.reset;
#X obj 562 216 t b a;
#X obj 510 243 t a b;
#X obj 537 279 f;
#X obj 588 296 + 1;
#X obj 537 304 t a a;
#X msg 562 248 0;
#X msg 537 366 0;
#X msg 582 367 1;
#X obj 127 161 f 13;
#X obj 537 392 s \$1.lat.mes.valid;
#X obj 211 265 r \$1.lat.mes.valid;
#X obj 211 286 sel 0 1;
#X msg 211 311 13;
#X msg 240 310 16;
#X obj 160 140 del 300;
#X obj 537 345 moses 20;
#X connect 0 0 3 0;
#X connect 1 0 2 0;
#X connect 3 0 1 0;
#X connect 4 0 6 0;
#X connect 5 0 2 0;
#X connect 6 0 7 0;
#X connect 7 0 5 0;
#X connect 8 0 9 0;
#X connect 9 0 0 0;
#X connect 9 1 27 0;
#X connect 9 2 33 0;
#X connect 10 0 17 0;
#X connect 11 0 14 1;
#X connect 12 0 13 1;
#X connect 13 0 19 0;
#X connect 13 1 14 0;
#X connect 14 0 20 0;
#X connect 14 1 19 0;
#X connect 15 0 12 0;
#X connect 15 0 11 0;
#X connect 16 0 15 0;
#X connect 17 1 13 0;
#X connect 19 0 24 0;
#X connect 19 1 18 0;
#X connect 20 1 21 0;
#X connect 21 0 23 0;
#X connect 22 0 21 1;
#X connect 23 0 34 0;
#X connect 23 1 22 0;
#X connect 24 0 21 0;
#X connect 25 0 28 0;
#X connect 26 0 28 0;
#X connect 27 0 5 0;
#X connect 29 0 30 0;
#X connect 30 0 31 0;
#X connect 30 1 32 0;
#X connect 31 0 27 1;
#X connect 32 0 27 1;
#X connect 33 0 7 0;
#X connect 34 0 25 0;
#X connect 34 1 26 0;
#X restore 12 525 pd latency.display;
#X obj 226 416 r \$1.latency.measurement.state;
#X obj 226 437 sel 0;
#X msg 226 458 stop;
#X obj 75 54 f;
#X msg 75 77 1000 \, 9000 \$1;
#N canvas 658 352 284 188 sample.period 0;
#X obj 91 29 loadbang;
#X msg 91 50 1;
#X obj 91 71 s \$1.lat.period.r;
#X obj 91 92 r \$1.lat.period;
#X obj 91 113 * 1000;
#X obj 91 134 outlet;
#X connect 0 0 1 0;
#X connect 1 0 2 0;
#X connect 3 0 4 0;
#X connect 4 0 5 0;
#X restore 151 39 pd sample.period;
#N canvas 658 406 284 188 sample.period 0;
#X obj 88 12 r \$1.lat.period;
#X obj 59 159 outlet;
#X obj 20 33 inlet;
#X obj 59 125 *;
#X obj 39 85 f;
#X obj 20 54 t b b a;
#X obj 88 59 / 8;
#X obj 88 33 t a a;
#X obj 147 101 * 1000;
#X obj 147 122 - 100;
#X obj 147 143 outlet;
#X connect 0 0 7 0;
#X connect 2 0 5 0;
#X connect 3 0 1 0;
#X connect 4 0 3 1;
#X connect 5 0 8 0;
#X connect 5 1 4 0;
#X connect 5 2 3 0;
#X connect 6 0 4 1;
#X connect 7 0 6 0;
#X connect 7 1 8 1;
#X connect 8 0 9 0;
#X connect 9 0 10 0;
#X restore 12 485 pd sample.period;
#X obj 343 151 + 1;
#X obj 201 226 s~ 0.channel.0;
#X obj 343 225 r~ 0.channel.0;
#X obj 383 151 + 1;
#X obj 343 86 - 1;
#X obj 156 174 r \$1.latency.outchannel;
#X msg 156 197 set \$1;
#X obj 426 93 r \$1.maxchannels;
#X obj 473 213 s \$1.lat.ret.ch.r;
#X obj 473 141 r \$1.latency.outchannel;
#X obj 473 164 - 1;
#X msg 473 188 range 1 \$1;
#X connect 0 0 26 0;
#X connect 1 0 8 0;
#X connect 2 0 32 0;
#X connect 2 1 37 0;
#X connect 3 0 0 0;
#X connect 4 0 5 0;
#X connect 5 0 6 1;
#X connect 5 0 33 1;
#X connect 6 0 40 0;
#X connect 8 0 9 0;
#X connect 9 0 10 0;
#X connect 10 0 11 0;
#X connect 11 0 4 0;
#X connect 13 0 14 0;
#X connect 13 1 15 0;
#X connect 14 0 41 0;
#X connect 15 0 44 0;
#X connect 16 0 17 0;
#X connect 17 0 43 0;
#X connect 18 0 19 0;
#X connect 19 0 20 0;
#X connect 20 0 21 0;
#X connect 21 0 22 0;
#X connect 23 0 31 0;
#X connect 24 0 45 0;
#X connect 25 0 27 0;
#X connect 26 0 1 0;
#X connect 26 0 12 0;
#X connect 27 0 26 1;
#X connect 28 0 30 0;
#X connect 29 0 28 0;
#X connect 31 0 2 0;
#X connect 32 0 6 0;
#X connect 34 0 35 0;
#X connect 35 0 36 0;
#X connect 36 0 32 0;
#X connect 37 0 38 0;
#X connect 38 0 3 0;
#X connect 39 0 31 1;
#X connect 39 0 37 1;
#X connect 40 0 33 0;
#X connect 40 1 32 1;
#X connect 41 0 16 0;
#X connect 43 0 1 1;
#X connect 43 0 18 0;
#X connect 44 0 16 1;
#X connect 45 0 13 0;
#X connect 46 0 47 0;
#X connect 47 0 12 0;
#X connect 48 0 15 1;
#X connect 48 0 14 1;
#X connect 50 0 51 0;
#X connect 51 0 52 0;
#X connect 52 0 49 0;
#X restore 8 280 pd latency.code;
#N canvas 41 537 1034 543 messages.code 0;
#X obj 420 74 print TPF_ERROR;
#X msg 17 102 vis 1;
#X obj 216 28 text define \$1.msgs;
#X obj 612 264 loadbang;
#X obj 518 263 list;
#X msg 612 284 0;
#X obj 537 357 - 30;
#X obj 537 378 max 0;
#X obj 537 400 until;
#X obj 537 421 f 30;
#X obj 809 20 loadbang;
#X msg 518 491 totalsize \$1;
#X obj 518 285 t b b a;
#X obj 809 83 s \$1.msgs.buffer;
#X obj 615 397 r \$1.msgs.buffer;
#X obj 557 312 text insert \$1.msgs;
#X obj 537 336 text size \$1.msgs;
#X obj 537 444 text delete \$1.msgs;
#X obj 518 467 text size \$1.msgs;
#X obj 518 516 s \$1.scb.msgs.r;
#X obj 17 81 r \$1.display.messages;
#X obj 393 28 r \$1.error;
#X obj 518 30 r \$1.warning;
#X obj 660 27 r \$1.info;
#X obj 687 82 print TPF_INFO;
#X obj 393 49 t a a;
#X obj 518 56 t a a;
#X obj 545 81 print TPF_WARN;
#X obj 660 48 t a a;
#X msg 809 41 300;
#X obj 393 102 list prepend ERROR;
#X obj 518 105 list prepend WARNING;
#X obj 660 106 list prepend INFO;
#X obj 518 159 list split 1;
#N canvas 789 242 443 595 list2symbol 0;
#X obj 168 149 until;
#X obj 168 231 list store;
#X obj 168 174 f;
#X obj 206 175 + 1;
#X msg 222 147 0, f 2;
#X obj 168 122 t b b a;
#X msg 168 203 get \$1 1;
#X obj 166 298 list fromsymbol;
#X obj 167 253 list append;
#X msg 166 276 symbol \$1\$2;
#X obj 297 168 loadbang;
#X msg 297 199 symbol;
#X obj 166 339 list prepend append;
#X obj 166 360 list trim;
#X obj 72 394 list store;
#X obj 166 319 list append 32;
#X obj 68 64 t b b a;
#X obj 72 415 list tosymbol;
#X obj 68 43 list;
#X obj 72 436 outlet;
#X obj 68 21 inlet;
#X connect 0 0 2 0;
#X connect 1 0 8 0;
#X connect 1 1 0 1;
#X connect 2 0 3 0;
#X connect 2 0 6 0;
#X connect 3 0 2 1;
#X connect 4 0 2 1;
#X connect 5 0 0 0;
#X connect 5 1 4 0;
#X connect 5 2 1 1;
#X connect 6 0 1 0;
#X connect 7 0 15 0;
#X connect 8 0 9 0;
#X connect 9 0 7 0;
#X connect 10 0 11 0;
#X connect 11 0 8 1;
#X connect 12 0 13 0;
#X connect 13 0 14 0;
#X connect 14 0 17 0;
#X connect 15 0 12 0;
#X connect 16 0 14 1;
#X connect 16 1 14 0;
#X connect 16 2 5 0;
#X connect 17 0 19 0;
#X connect 18 0 16 0;
#X connect 20 0 18 0;
#X restore 552 183 pd list2symbol;
#X obj 518 213 list append;
#X obj 518 234 list append -1;
#X obj 393 123 t a b;
#X obj 518 126 t a b;
#X obj 660 127 t a b;
#X msg 675 195 -1;
#X msg 716 194 -2;
#X msg 743 193 -4;
#X msg 318 242 color 255 128 128;
#X obj 318 263 s \$1.display.messages.r;
#X obj 17 123 s pd-messages;
#X connect 1 0 45 0;
#X connect 3 0 5 0;
#X connect 4 0 12 0;
#X connect 5 0 15 1;
#X connect 6 0 7 0;
#X connect 7 0 8 0;
#X connect 8 0 9 0;
#X connect 9 0 17 0;
#X connect 10 0 29 0;
#X connect 11 0 19 0;
#X connect 12 0 18 0;
#X connect 12 1 16 0;
#X connect 12 2 15 0;
#X connect 14 0 9 1;
#X connect 14 0 6 1;
#X connect 16 0 6 0;
#X connect 18 0 11 0;
#X connect 20 0 1 0;
#X connect 21 0 25 0;
#X connect 22 0 26 0;
#X connect 23 0 28 0;
#X connect 25 0 30 0;
#X connect 25 1 0 0;
#X connect 26 0 31 0;
#X connect 26 1 27 0;
#X connect 28 0 32 0;
#X connect 28 1 24 0;
#X connect 29 0 13 0;
#X connect 30 0 37 0;
#X connect 31 0 38 0;
#X connect 32 0 39 0;
#X connect 33 0 35 0;
#X connect 33 1 34 0;
#X connect 34 0 35 1;
#X connect 35 0 36 0;
#X connect 36 0 4 0;
#X connect 37 0 33 0;
#X connect 37 1 40 0;
#X connect 37 1 43 0;
#X connect 38 0 33 0;
#X connect 38 1 41 0;
#X connect 39 0 33 0;
#X connect 39 1 42 0;
#X connect 40 0 36 1;
#X connect 41 0 36 1;
#X connect 42 0 36 1;
#X connect 43 0 44 0;
#X restore 8 250 pd messages.code;
#N canvas 219 132 984 405 settings.code 0;
#X msg 20 80 vis 1;
#X obj 31 57 r \$1.display.settings;
#X obj 20 101 s pd-settings;
#X obj 22 132 r \$1.name;
#X msg 22 155 label \$1;
#X obj 22 178 s \$1.name.display.r;
#X obj 22 219 r \$1.host;
#X obj 88 220 r \$1.room;
#X obj 22 267 pack s s;
#X obj 88 243 t b a;
#X msg 22 290 label \$1/\$2;
#X obj 22 313 s \$1.connection.display.r;
#X obj 20 9 r \$1.show.settings;
#X obj 20 32 sel;
#X obj 48 32 t a;
#X msg 458 298 label Save*;
#X obj 458 322 s \$1.save.r;
#N canvas 518 290 522 552 save.settings 0;
#X obj 11 17 r \$1.save.s;
#X msg 11 167 label Save;
#X obj 11 190 s \$1.save.r;
#X msg 248 315 fetch_settings;
#X obj 248 372 s \$1.intercom;
#X obj 248 395 r \$1.intercom;
#X obj 248 419 route save_settings;
#X msg 358 217 clear;
#X obj 248 503 text set \$1.settings;
#X obj 248 477 list;
#X obj 307 450 loadbang;
#X msg 307 473 1e+15;
#X obj 11 40 t b b;
#X obj 139 191 t b a b b b, f 37;
#X msg 193 233 write -c \$1;
#X obj 193 263 outlet;
#X obj 335 18 r \$1.save.to.s;
#X obj 335 67 savepanel;
#X msg 38 75 symbol ../default_settings.cnf;
#X msg 335 44 symbol ..;
#X obj 248 339 t a a;
#X obj 88 384 outlet;
#X connect 0 0 12 0;
#X connect 1 0 2 0;
#X connect 3 0 20 0;
#X connect 5 0 6 0;
#X connect 6 0 9 0;
#X connect 7 0 15 0;
#X connect 9 0 8 0;
#X connect 10 0 11 0;
#X connect 11 0 8 1;
#X connect 12 0 1 0;
#X connect 12 1 18 0;
#X connect 13 1 14 0;
#X connect 13 2 3 0;
#X connect 13 4 7 0;
#X connect 14 0 15 0;
#X connect 16 0 19 0;
#X connect 17 0 13 0;
#X connect 18 0 13 0;
#X connect 19 0 17 0;
#X connect 20 0 4 0;
#X connect 20 1 21 0;
#X restore 334 8 pd save.settings;
#N canvas 20 259 533 498 load.settings 0;
#X obj 58 27 r \$1.load.settings;
#X obj 58 333 text get \$1.settings;
#X obj 58 262 until;
#X obj 58 239 t a b, f 8;
#X obj 58 285 f;
#X msg 103 263 0;
#X obj 58 308 t a a;
#X obj 107 301 + 1;
#X obj 58 382 list trim;
#X obj 85 436 s \$1.intercom;
#X obj 283 23 r \$1.load.from.s;
#X obj 310 95 openpanel;
#X msg 310 70 symbol ..;
#X msg 85 74 symbol ../default_settings.cnf;
#X obj 58 359 list prepend restore_settings;
#X obj 58 405 t a a;
#X obj 58 461 outlet;
#X obj 58 50 t b b;
#X obj 58 144 f;
#X obj 85 97 s \$0.load.settings.file;
#X obj 84 118 r \$0.settings.file.size;
#X obj 283 46 t b b;
#X obj 283 169 f;
#X obj 310 122 s \$0.load.settings.file;
#X obj 309 143 r \$0.settings.file.size;
#X connect 0 0 17 0;
#X connect 1 0 14 0;
#X connect 2 0 4 0;
#X connect 3 0 2 0;
#X connect 3 1 5 0;
#X connect 4 0 6 0;
#X connect 5 0 4 1;
#X connect 6 0 1 0;
#X connect 6 1 7 0;
#X connect 7 0 4 1;
#X connect 8 0 15 0;
#X connect 10 0 21 0;
#X connect 11 0 23 0;
#X connect 12 0 11 0;
#X connect 13 0 19 0;
#X connect 14 0 8 0;
#X connect 15 0 16 0;
#X connect 15 1 9 0;
#X connect 17 0 18 0;
#X connect 17 1 13 0;
#X connect 18 0 3 0;
#X connect 20 0 18 1;
#X connect 21 0 22 0;
#X connect 21 1 12 0;
#X connect 22 0 3 0;
#X connect 24 0 22 1;
#X restore 444 8 pd load.settings;
#X obj 427 97 text define \$1.settings;
#X obj 458 243 r \$1.intercom;
#X obj 426 127 r \$1.reset.s;
#X msg 426 150 reset;
#X obj 426 173 s \$1.intercom;
#X obj 195 50 tpf-settings-param \$1 host;
#X obj 195 71 tpf-settings-param \$1 room;
#X obj 195 91 tpf-settings-param \$1 name;
#X obj 195 111 tpf-settings-param \$1 port;
#X obj 195 131 tpf-settings-param \$1 channels;
#X obj 195 151 tpf-settings-param \$1 codec;
#X obj 195 171 tpf-settings-param \$1 blocksize;
#X obj 195 191 tpf-settings-param \$1 bitdepth;
#X obj 195 211 tpf-settings-param \$1 packetsize;
#X obj 195 231 tpf-settings-param \$1 framesize;
#X obj 195 251 tpf-settings-param \$1 quality;
#X obj 195 271 tpf-settings-param \$1 bitrate;
#X obj 195 291 tpf-settings-param \$1 signal;
#X obj 195 311 tpf-settings-param \$1 usage;
#X obj 458 266 route peer_swap_response modified_flag;
#X msg 784 74 clear;
#X msg 731 96 read -c \$1;
#X obj 679 45 t b a b, f 18;
#X obj 679 163 text size \$1.settings;
#X obj 679 186 s \$0.settings.file.size;
#X obj 679 11 r \$0.load.settings.file;
#X obj 731 124 t a;
#X connect 0 0 2 0;
#X connect 1 0 0 0;
#X connect 3 0 4 0;
#X connect 4 0 5 0;
#X connect 6 0 8 0;
#X connect 7 0 9 0;
#X connect 8 0 10 0;
#X connect 9 0 8 0;
#X connect 9 1 8 1;
#X connect 10 0 11 0;
#X connect 12 0 13 0;
#X connect 13 0 0 0;
#X connect 13 1 14 0;
#X connect 14 0 13 1;
#X connect 15 0 16 0;
#X connect 17 0 24 0;
#X connect 17 1 19 0;
#X connect 18 0 24 0;
#X connect 20 0 38 0;
#X connect 21 0 22 0;
#X connect 22 0 23 0;
#X connect 24 0 25 0;
#X connect 25 0 26 0;
#X connect 26 0 27 0;
#X connect 27 0 28 0;
#X connect 28 0 29 0;
#X connect 29 0 30 0;
#X connect 30 0 31 0;
#X connect 31 0 32 0;
#X connect 32 0 33 0;
#X connect 33 0 34 0;
#X connect 34 0 35 0;
#X connect 35 0 36 0;
#X connect 36 0 37 0;
#X connect 38 0 15 0;
#X connect 38 1 15 0;
#X connect 39 0 45 0;
#X connect 40 0 45 0;
#X connect 41 0 42 0;
#X connect 41 1 40 0;
#X connect 41 2 39 0;
#X connect 42 0 43 0;
#X connect 44 0 41 0;
#X connect 45 0 19 0;
#X restore 8 160 pd settings.code;
#N canvas 220 217 559 377 peers 0;
#X obj 23 22 r \$1.receive;
#X obj 23 45 route peer_join;
#X obj 209 27 r \$1.receive;
#X obj 209 50 route peer_leave;
#X obj 23 69 list;
#X msg 23 92 symbol \$2;
#X msg 87 143 peer_reclaim \$1;
#X obj 87 170 s \$1.intercom;
#X obj 23 118 t a a b, f 22;
#X msg 156 244 1;
#X obj 23 272 spigot 0;
#X obj 68 198 r \$1.intercom;
#X obj 68 221 route peer_reclaimed;
#X msg 68 244 0;
#X msg 23 297 peer_new 1 \$1;
#X obj 23 323 s \$1.intercom;
#X obj 209 75 list;
#X msg 209 102 peer_leave \$2;
#X obj 209 129 s \$1.intercom;
#X obj 346 27 r \$1.connection.state;
#X obj 346 50 sel 0;
#X msg 346 73 peer_leave_all;
#X obj 346 99 s \$1.intercom;
#X connect 0 0 1 0;
#X connect 1 0 4 0;
#X connect 2 0 3 0;
#X connect 3 0 16 0;
#X connect 4 0 5 0;
#X connect 5 0 8 0;
#X connect 6 0 7 0;
#X connect 8 0 10 0;
#X connect 8 1 6 0;
#X connect 8 2 9 0;
#X connect 9 0 10 1;
#X connect 10 0 14 0;
#X connect 11 0 12 0;
#X connect 12 0 13 0;
#X connect 13 0 10 1;
#X connect 14 0 15 0;
#X connect 16 0 17 0;
#X connect 17 0 18 0;
#X connect 19 0 20 0;
#X connect 20 0 21 0;
#X connect 21 0 22 0;
#X restore 8 100 pd peers;
#N canvas 814 162 691 497 format.code 0;
#X obj 21 408 r \$1.packetsize;
#N canvas 0 103 422 444 pcm.format 0;
#X obj 63 64 r \$1.channels;
#X obj 80 108 r \$1.blocksize;
#X text 191 375 ch bs sr bd;
#X obj 190 155 r \$1.bitdepth;
#X obj 190 178 / 8;
#X obj 52 257 pack f f f f, f 28;
#X obj 52 234 f;
#X obj 80 131 t b a;
#X obj 135 158 t b a;
#X obj 52 207 del 0;
#X obj 63 87 t b a;
#X obj 190 201 t b a;
#X obj 11 14 r \$1.codec;
#X obj 11 73 sel pcm;
#X obj 52 348 spigot 0;
#X obj 97 288 sel pcm;
#X msg 97 313 1;
#X msg 136 314 0;
#X msg 52 376 format pcm \$1 \$2 \$3 \$4;
#X obj 52 399 outlet;
#X obj 135 132 samplerate~;
#X obj 11 40 t a a b;
#X connect 0 0 10 0;
#X connect 1 0 7 0;
#X connect 3 0 4 0;
#X connect 4 0 11 0;
#X connect 5 0 14 0;
#X connect 6 0 5 0;
#X connect 7 0 9 0;
#X connect 7 1 5 1;
#X connect 8 0 9 0;
#X connect 8 1 5 2;
#X connect 9 0 6 0;
#X connect 10 0 9 0;
#X connect 10 1 6 1;
#X connect 11 0 9 0;
#X connect 11 1 5 3;
#X connect 12 0 21 0;
#X connect 13 0 9 0;
#X connect 14 0 18 0;
#X connect 15 0 16 0;
#X connect 15 1 17 0;
#X connect 16 0 14 1;
#X connect 17 0 14 1;
#X connect 18 0 19 0;
#X connect 20 0 8 0;
#X connect 21 0 13 0;
#X connect 21 1 15 0;
#X connect 21 2 20 0;
#X restore 14 29 pd pcm.format;
#N canvas 0 103 422 444 opus.format 0;
#X obj 63 64 r \$1.channels;
#X obj 52 234 f;
#X obj 80 131 t b a;
#X obj 135 158 t b a;
#X obj 52 207 del 0;
#X obj 63 87 t b a;
#X obj 190 181 t b a;
#X obj 11 14 r \$1.codec;
#X obj 52 348 spigot 0;
#X msg 97 313 1;
#X msg 136 314 0;
#X obj 52 399 outlet;
#X text 203 375 ch fs sr us;
#X obj 190 155 r \$1.usage;
#X obj 52 257 pack f f f s, f 28;
#X obj 11 72 sel opus;
#X obj 97 288 sel opus;
#X obj 80 108 r \$1.framesize;
#X msg 52 376 format opus \$1 \$2 \$3 \$4;
#X obj 11 40 t a a b;
#X obj 135 132 samplerate~;
#X connect 0 0 5 0;
#X connect 1 0 14 0;
#X connect 2 0 4 0;
#X connect 2 1 14 1;
#X connect 3 0 4 0;
#X connect 3 1 14 2;
#X connect 4 0 1 0;
#X connect 5 0 4 0;
#X connect 5 1 1 1;
#X connect 6 0 4 0;
#X connect 6 1 14 3;
#X connect 7 0 19 0;
#X connect 8 0 18 0;
#X connect 9 0 8 1;
#X connect 10 0 8 1;
#X connect 13 0 6 0;
#X connect 14 0 8 0;
#X connect 15 0 4 0;
#X connect 16 0 9 0;
#X connect 16 1 10 0;
#X connect 17 0 2 0;
#X connect 18 0 11 0;
#X connect 19 0 15 0;
#X connect 19 1 16 0;
#X connect 19 2 20 0;
#X connect 20 0 3 0;
#X restore 124 30 pd opus.format;
#X obj 148 116 r \$1.quality;
#X obj 426 29 r \$1.bitrate;
#X obj 243 121 r \$1.signal;
#X obj 404 236 list;
#X obj 426 209 t b a;
#X msg 404 261 bitrate \$1;
#X obj 223 146 symbol;
#X msg 223 169 signal \$1;
#X obj 124 148 f;
#X msg 124 171 complexity \$1;
#X obj 124 237 list prepend codec_set;
#X obj 124 260 list trim;
#X obj 124 53 t b b b a, f 27;
#X obj 124 319 spigot 0;
#X obj 283 77 t b a;
#X msg 282 283 1;
#X obj 14 52 t a b;
#X msg 41 262 0;
#X obj 426 178 *;
#X obj 524 30 r \$1.channels;
#X obj 438 150 t b a;
#X obj 14 342 s \$1.to.aoo.s;
#X obj 124 344 s \$1.to.aoo.s;
#X obj 21 457 s \$1.to.aoo.s;
#X obj 310 99 s \$1.to.aoo.s;
#X obj 373 324 r \$1.send;
#X obj 373 347 route port;
#X obj 373 395 s \$1.to.aoo.s;
#X msg 373 370 port \$1;
#X msg 21 431 packetsize \$1 \, start;
#X obj 426 52 route float;
#X obj 489 75 t a b;
#X obj 426 75 t a b;
#X obj 450 127 spigot;
#X msg 516 98 0;
#X msg 453 98 1;
#X connect 0 0 32 0;
#X connect 1 0 19 0;
#X connect 2 0 15 0;
#X connect 3 0 11 0;
#X connect 4 0 33 0;
#X connect 5 0 9 0;
#X connect 6 0 8 0;
#X connect 7 0 6 0;
#X connect 7 1 6 1;
#X connect 8 0 13 0;
#X connect 9 0 10 0;
#X connect 10 0 13 0;
#X connect 11 0 12 0;
#X connect 12 0 13 0;
#X connect 13 0 14 0;
#X connect 14 0 16 0;
#X connect 15 0 11 0;
#X connect 15 1 9 0;
#X connect 15 2 6 0;
#X connect 15 3 17 0;
#X connect 16 0 25 0;
#X connect 17 0 18 0;
#X connect 17 1 27 0;
#X connect 18 0 16 1;
#X connect 19 0 24 0;
#X connect 19 1 20 0;
#X connect 20 0 16 1;
#X connect 21 0 7 0;
#X connect 22 0 36 0;
#X connect 23 0 21 0;
#X connect 23 1 21 1;
#X connect 28 0 29 0;
#X connect 29 0 31 0;
#X connect 31 0 30 0;
#X connect 32 0 26 0;
#X connect 33 0 35 0;
#X connect 33 1 34 0;
#X connect 34 0 7 0;
#X connect 34 1 37 0;
#X connect 35 0 21 0;
#X connect 35 1 38 0;
#X connect 36 0 23 0;
#X connect 37 0 36 1;
#X connect 38 0 36 1;
#X restore 8 190 pd format.code;
#N canvas 0 103 315 313 info 0;
#X obj 12 57 list;
#X obj 12 80 list append;
#X obj 73 59 list;
#X obj 12 128 s \$1.info;
#X obj 17 212 list;
#X obj 17 259 s \$1.info;
#X obj 12 11 r \$1.from.aoo.s;
#X obj 17 166 r \$1.from.aoo.s;
#X obj 12 34 route add format;
#X obj 17 189 route remove;
#X msg 17 235 [\$2] sending stopped;
#X msg 12 103 [\$2] sending started;
#X connect 0 0 1 0;
#X connect 1 0 11 0;
#X connect 2 0 1 1;
#X connect 4 0 10 0;
#X connect 6 0 8 0;
#X connect 7 0 9 0;
#X connect 8 0 0 0;
#X connect 8 1 2 0;
#X connect 9 0 4 0;
#X connect 10 0 5 0;
#X connect 11 0 3 0;
#X restore 8 310 pd info;
#N canvas 599 265 402 449 init 0;
#N canvas 593 229 380 213 port 0;
#X obj 45 27 inlet;
#X obj 45 76 + 32768;
#X msg 45 99 port \$1;
#X obj 45 53 seeded-random 32768;
#X obj 45 122 s \$1.send;
#X connect 0 0 3 0;
#X connect 1 0 2 0;
#X connect 2 0 4 0;
#X connect 3 0 1 0;
#X restore 51 99 pd port;
#X msg 34 171 \; pd dsp 1 \; \$1.name symbol <yourname> \; \$1.host
symbol <servername> \; \$1.room symbol public \; \$1.port 12043 \;
\$1.channels 2 \; \$1.codec symbol pcm \; \$1.blocksize 64 \; \$1.bitdepth
16 \; \$1.packetsize 1450 \; \$1.framesize 120 \; \$1.quality 10 \;
\$1.bitrate 96 \; \$1.signal symbol music \; \$1.usage symbol lowdelay
\;;
#X obj 17 49 t b b b b;
#X obj 17 16 r \$1.init;
#X obj 68 74 s \$1.load.layout;
#X obj 34 149 f \$1;
#X obj 17 399 s \$1.load.settings;
#X obj 45 122 r \$1.reset.s;
#X connect 2 0 6 0;
#X connect 2 1 5 0;
#X connect 2 2 0 0;
#X connect 2 3 4 0;
#X connect 3 0 2 0;
#X connect 5 0 1 0;
#X connect 7 0 5 0;
#X restore 8 10 pd init;
#N canvas 836 123 1186 692 layout 0;
#X obj 354 71 r \$1.maxrows;
#X obj 444 346 s \$1.main.cnv;
#X obj 417 118 t a b;
#X obj 417 141 until;
#X obj 417 164 f;
#X obj 483 178 + 1;
#X msg 456 142 0;
#X obj 417 187 t a a a;
#X obj 417 215 * 35;
#X obj 417 238 + 65;
#X obj 450 226 + 1;
#X obj 450 250 list prepend \$1;
#X obj 417 273 list append;
#X text 491 274 y parentID instance;
#X msg 444 318 obj 4 \$1 tpf-client-link \$2 \$3;
#X obj 355 358 * 35;
#X obj 355 381 + 65;
#X obj 354 94 t a a, f 11;
#X obj 382 513 s \$1.main.cnv;
#X obj 355 411 list append \$1;
#X obj 417 296 t a a;
#X msg 417 369 \; \$2.\$3.link loadbang;
#X msg 355 536 \; \$2.panels loadbang;
#X obj 355 465 t a a;
#X obj 53 406 text get \$1.settings;
#X obj 53 335 until;
#X obj 53 358 f;
#X msg 98 336 0;
#X obj 53 381 t a a;
#X obj 102 374 + 1;
#X obj 53 429 list trim;
#X obj 53 452 route layout;
#X obj 31 206 t b a;
#X obj 31 255 t b a, f 17;
#X obj 31 282 f;
#X obj 53 482 route symbol;
#X obj 170 425 t a a;
#X msg 197 474 symbol \$1.\$2;
#X obj 197 451 list prepend \$1;
#X obj 31 591 send;
#X text 21 18 make sure to load maxrow \, maxchannels before anything
else:;
#X obj 31 46 r \$1.load.layout;
#X msg 58 96 symbol ../default_settings.cnf;
#X obj 31 72 t b b;
#X obj 31 166 f;
#X obj 58 119 s \$0.load.settings.file;
#X obj 57 140 r \$0.settings.file.size;
#X msg 31 232 maxrows 8 \, maxchannels 8;
#X obj 170 288 list;
#X obj 170 311 unpack s f;
#X obj 31 308 t b a b, f 8;
#X obj 31 515 f;
#X text 189 231 default values;
#X obj 31 540 max 1;
#X obj 31 563 min 64;
#X obj 716 110 r \$1.maxrows;
#X obj 663 84 r \$1.maxchannels;
#X obj 663 107 * 35;
#X obj 716 134 * 35;
#X obj 663 269 s \$1.main.cnv;
#X msg 663 241 setbounds 0 0 \$1 \$2 \, vis 0 \, vis 1;
#X obj 663 135 + 683;
#X obj 716 159 + 103;
#X obj 663 215 pack f f;
#X text 657 44 Set main window size;
#X obj 355 439 list append;
#X obj 355 322 t a a;
#X msg 382 489 obj 4 \$1 tpf-client-panels \$2 \$3;
#X obj 719 387 r \$1.maxrows;
#X obj 674 364 r \$1.maxchannels;
#X obj 674 415 pack f f;
#X msg 717 462 \$1 \$2;
#X obj 717 485 *;
#X obj 717 508 + 1;
#X msg 674 495 \$1;
#X msg 674 616 audio-dialog 0 -1 -1 -1 \$1 0 0 0 0 -1 -1 -1 \$2 0 0
0 44100 25 0 256;
#X obj 674 568 pack f f;
#X obj 674 438 t a a b, f 15;
#X obj 761 504 samplerate~;
#X obj 674 591 list append;
#X obj 674 652 s pd;
#X text 677 339 set input and output channels for JACK;
#X obj 717 535 min 128;
#X connect 0 0 17 0;
#X connect 2 0 3 0;
#X connect 2 1 6 0;
#X connect 3 0 4 0;
#X connect 4 0 7 0;
#X connect 5 0 4 1;
#X connect 6 0 4 1;
#X connect 7 0 8 0;
#X connect 7 1 10 0;
#X connect 7 2 5 0;
#X connect 8 0 9 0;
#X connect 9 0 12 0;
#X connect 10 0 11 0;
#X connect 11 0 12 1;
#X connect 12 0 20 0;
#X connect 14 0 1 0;
#X connect 15 0 16 0;
#X connect 16 0 19 0;
#X connect 17 0 66 0;
#X connect 17 1 2 0;
#X connect 19 0 65 0;
#X connect 20 0 21 0;
#X connect 20 1 14 0;
#X connect 23 0 22 0;
#X connect 23 1 67 0;
#X connect 24 0 30 0;
#X connect 25 0 26 0;
#X connect 26 0 28 0;
#X connect 27 0 26 1;
#X connect 28 0 24 0;
#X connect 28 1 29 0;
#X connect 29 0 26 1;
#X connect 30 0 31 0;
#X connect 31 0 35 0;
#X connect 32 0 47 0;
#X connect 32 1 34 1;
#X connect 33 0 34 0;
#X connect 33 1 48 0;
#X connect 34 0 50 0;
#X connect 35 0 51 1;
#X connect 36 0 35 1;
#X connect 36 1 38 0;
#X connect 37 0 39 1;
#X connect 38 0 37 0;
#X connect 41 0 43 0;
#X connect 42 0 45 0;
#X connect 43 0 44 0;
#X connect 43 1 42 0;
#X connect 44 0 32 0;
#X connect 46 0 44 1;
#X connect 47 0 33 0;
#X connect 48 0 49 0;
#X connect 49 0 36 0;
#X connect 49 1 51 1;
#X connect 50 0 51 0;
#X connect 50 1 25 0;
#X connect 50 2 27 0;
#X connect 51 0 53 0;
#X connect 53 0 54 0;
#X connect 54 0 39 0;
#X connect 55 0 58 0;
#X connect 56 0 57 0;
#X connect 57 0 61 0;
#X connect 58 0 62 0;
#X connect 60 0 59 0;
#X connect 61 0 63 0;
#X connect 62 0 63 1;
#X connect 63 0 60 0;
#X connect 65 0 23 0;
#X connect 66 0 15 0;
#X connect 66 1 65 1;
#X connect 67 0 18 0;
#X connect 68 0 70 1;
#X connect 69 0 70 0;
#X connect 70 0 77 0;
#X connect 71 0 72 0;
#X connect 72 0 73 0;
#X connect 73 0 82 0;
#X connect 74 0 76 0;
#X connect 75 0 80 0;
#X connect 76 0 79 0;
#X connect 77 0 74 0;
#X connect 77 1 71 0;
#X connect 77 2 78 0;
#X connect 78 0 79 1;
#X connect 79 0 75 0;
#X connect 82 0 76 1;
#X restore 8 40 pd layout;
