#N canvas 907 540 719 510 10;
#X obj 20 20 cnv 8 289 32 empty empty empty 20 12 0 14 -1 -66577 0
;
#X obj 128 20 cnv 15 100 16 empty \$0.format.label format=opus 3 9
0 12 -1 -1 0;
#X obj 229 20 cnv 15 80 16 empty \$0.fs.bs.label fs=120 3 9 0 12 -1
-1 0;
#X obj 229 36 cnv 15 80 16 empty \$0.sr.label sr=48000 3 9 0 12 -1
-1 0;
#X obj 128 36 cnv 15 100 16 empty \$0.type.bd.label type=lowdelay 3
9 0 12 -1 -1 0;
#X obj 123 20 cnv 1 1 32 empty empty empty 0 12 0 14 -262144 -66577
0;
#X obj 20 20 cnv 16 100 16 empty \$0.recvbuf.label recvbuf: 3 9 0 12
-1 -1 0;
#X obj 80 20 nbx 3 14 2 999 0 0 \$0.recvbuf.s \$0.recvbuf.r empty 0
-8 0 12 -1 -1 -1 962 256;
#X obj 20 36 cnv 16 100 16 empty \$0.delay.label delay: 3 9 0 12 -1
-1 0;
#X obj 80 36 nbx 3 14 0 999 0 0 \$0.delay.s \$0.delay.r empty 0 -8
0 12 -1 -1 -1 32 256;
#X obj 81 20 cnv 4 6 32 empty empty empty 0 12 0 14 -1 -66577 0;
#X obj 26 441 s \$0.recvbuf.label;
#X obj 19 464 s \$0.delay.label;
#X obj 38 396 s \$0.recvbuf.r;
#X obj 33 417 s \$0.delay.r;
#X msg 55 321 symbol #ffffff;
#X msg 19 346 symbol #000000;
#X msg 19 376 color #000 \$1 \$1;
#X obj 187 385 s \$0.format.label;
#X obj 182 407 s \$0.type.bd.label;
#X obj 173 433 s \$0.fs.bs.label;
#X obj 160 456 s \$0.sr.label;
#X msg 160 335 symbol #000000;
#X msg 160 363 color #000 \$1 \$1;
#X msg 189 311 symbol #e0e0e0;
#X obj 36 259 sel 0 1;
#X obj 64 81 r \$3.from.aoo.r;
#X obj 64 104 route event;
#X obj 64 127 list split 3;
#X obj 98 151 list trim;
#X obj 98 174 route start stop format;
#X msg 36 221 1;
#X msg 71 223 0;
#X obj 393 241 list;
#X obj 393 264 t a a a a, f 35;
#X obj 393 470 s \$0.format.label;
#X obj 462 415 s \$0.type.bd.label;
#X obj 531 368 s \$0.fs.bs.label;
#X obj 600 315 s \$0.sr.label;
#X msg 393 445 label format=\$1;
#X msg 462 392 label type=\$5;
#X msg 531 344 label fs=\$3;
#X msg 600 288 label sr=\$4;
#X connect 15 0 17 0;
#X connect 16 0 17 0;
#X connect 17 0 11 0;
#X connect 17 0 12 0;
#X connect 17 0 13 0;
#X connect 17 0 14 0;
#X connect 22 0 23 0;
#X connect 23 0 18 0;
#X connect 23 0 19 0;
#X connect 23 0 20 0;
#X connect 23 0 21 0;
#X connect 24 0 23 0;
#X connect 25 0 16 0;
#X connect 25 0 22 0;
#X connect 25 1 15 0;
#X connect 25 1 24 0;
#X connect 26 0 27 0;
#X connect 27 0 28 0;
#X connect 28 1 29 0;
#X connect 29 0 30 0;
#X connect 30 0 31 0;
#X connect 30 1 32 0;
#X connect 30 2 33 0;
#X connect 31 0 25 0;
#X connect 32 0 25 0;
#X connect 33 0 34 0;
#X connect 34 0 39 0;
#X connect 34 1 40 0;
#X connect 34 2 41 0;
#X connect 34 3 42 0;
#X connect 39 0 35 0;
#X connect 40 0 36 0;
#X connect 41 0 37 0;
#X connect 42 0 38 0;
#X coords 0 -1 1 1 289 32 2 20 20;
