#N canvas 46 321 675 274 10;
#N canvas 1434 543 423 156 \$0.gop 0;
#X coords 0 0 279 59 279 59 2 20 20;
#X restore 20 20 pd \$0.gop;
#N canvas 957 26 679 538 dynamic.creation 0;
#X obj 135 141 t a b a, f 11;
#X obj 135 187 until;
#X obj 135 210 f;
#X obj 213 219 + 1;
#X msg 167 164 0;
#X obj 135 261 * 35;
#X obj 135 284 + 20;
#X obj 135 335 list prepend;
#X obj 135 233 t a a a;
#X obj 168 284 + 1;
#X obj 135 309 pack f f;
#X obj 135 394 s pd-\$0.gop;
#X obj 245 209 s pd-\$0.gop;
#X msg 245 179 clear;
#X obj 26 74 t b a a, f 37;
#X msg 26 283 loadbang;
#X obj 26 24 inlet;
#X obj 26 51 list prepend \$1;
#X msg 135 164 \$2;
#X obj 26 385 s pd-\$0.gop;
#X msg 135 362 obj \$3 20 tpf-client-inchannel \$1 \$4;
#X connect 0 0 18 0;
#X connect 0 1 4 0;
#X connect 0 2 7 1;
#X connect 1 0 2 0;
#X connect 2 0 8 0;
#X connect 3 0 2 1;
#X connect 4 0 2 1;
#X connect 5 0 6 0;
#X connect 6 0 10 0;
#X connect 7 0 20 0;
#X connect 8 0 5 0;
#X connect 8 1 9 0;
#X connect 8 2 3 0;
#X connect 9 0 10 1;
#X connect 10 0 7 0;
#X connect 13 0 12 0;
#X connect 14 0 15 0;
#X connect 14 1 0 0;
#X connect 14 2 13 0;
#X connect 15 0 19 0;
#X connect 16 0 17 0;
#X connect 17 0 14 0;
#X connect 18 0 1 0;
#X connect 20 0 11 0;
#X restore 49 193 pd dynamic.creation;
#N canvas 933 439 407 297 gop.resize 0;
#X obj 30 26 inlet;
#X obj 30 235 s pd-\$0.gop;
#X obj 40 215 s \$0.top;
#X obj 30 62 * 35;
#X obj 30 85 - 1;
#X msg 30 190 coords 0 0 \$2 \$1 \$2 \$1 2 20 20;
#X msg 30 165 59 \$1;
#X connect 0 0 3 0;
#X connect 3 0 4 0;
#X connect 4 0 6 0;
#X connect 5 0 2 0;
#X connect 5 0 1 0;
#X connect 6 0 5 0;
#X restore 69 170 pd gop.resize;
#X obj 96 95 namecanvas \$0.top;
#X obj 266 193 s pd-\$0.gop;
#X msg 266 134 clear;
#N canvas 633 417 740 509 dynamic.creation.aoo 0;
#X obj 151 201 until;
#X obj 151 224 f;
#X obj 229 233 + 1;
#X msg 184 178 0;
#X obj 151 247 t a a a;
#X obj 26 24 inlet;
#X obj 26 51 list prepend \$1;
#X msg 151 178 \$2;
#X obj 245 209 s pd-\$0.aoo;
#X obj 135 407 s pd-\$0.aoo;
#X obj 135 326 list store;
#X msg 151 296 append \$1;
#X msg 363 257 clear;
#X obj 355 289 s pd-\$0.aoo;
#X msg 245 146 clear \, obj 20 20 r \$1.to.aoo.s \, obj 20 80 aoo_send~
0 0 \$2 \, obj 20 110 s \$1.from.aoo.s \, connect 0 0 1 0 \, connect
1 0 2 0;
#X obj 135 141 t b a b b, f 10;
#X obj 151 272 + 1;
#X obj 135 372 list trim;
#X obj 135 349 list prepend obj 30 50 adc~;
#X obj 26 167 until;
#X obj 26 190 f;
#X obj 80 202 + 1;
#X msg 59 144 0;
#X obj 26 213 t a a a;
#X msg 26 144 \$2;
#X obj 26 74 t a a a, f 37;
#X obj 26 118 t a a;
#X obj 26 454 s pd-\$0.aoo;
#X msg 26 428 connect 3 \$1 1 \$1;
#X connect 0 0 1 0;
#X connect 1 0 4 0;
#X connect 2 0 1 1;
#X connect 3 0 1 1;
#X connect 4 0 16 0;
#X connect 4 2 2 0;
#X connect 5 0 6 0;
#X connect 6 0 25 0;
#X connect 7 0 0 0;
#X connect 10 0 18 0;
#X connect 11 0 10 0;
#X connect 12 0 13 0;
#X connect 14 0 8 0;
#X connect 15 0 10 0;
#X connect 15 1 7 0;
#X connect 15 2 3 0;
#X connect 15 3 10 1;
#X connect 16 0 11 0;
#X connect 17 0 9 0;
#X connect 18 0 17 0;
#X connect 19 0 20 0;
#X connect 20 0 23 0;
#X connect 21 0 20 1;
#X connect 22 0 20 1;
#X connect 23 0 28 0;
#X connect 23 2 21 0;
#X connect 24 0 19 0;
#X connect 25 0 26 0;
#X connect 25 1 15 0;
#X connect 25 2 14 0;
#X connect 26 0 24 0;
#X connect 26 1 22 0;
#X connect 28 0 27 0;
#X restore 30 218 pd dynamic.creation.aoo;
#X obj 30 146 t a a a;
#N canvas 1479 600 450 300 \$0.aoo 0;
#X restore 217 97 pd \$0.aoo;
#X obj 276 170 s pd-\$0.aoo;
#X obj 30 118 r \$1.maxchannels;
#X connect 5 0 4 0;
#X connect 5 0 9 0;
#X connect 7 0 6 0;
#X connect 7 1 1 0;
#X connect 7 2 2 0;
#X connect 10 0 7 0;
#X coords 0 0 279 59 279 59 2 20 20;
