#N canvas 46 321 558 238 10;
#N canvas 1434 543 423 156 \$0.gop 0;
#X coords 0 0 279 59 279 59 2 20 20;
#X restore 20 20 pd \$0.gop;
#X obj 30 96 loadbang;
#N canvas 957 26 679 538 dynamic.creation 0;
#X obj 135 141 t a b a, f 11;
#X obj 135 187 until;
#X obj 135 210 f;
#X obj 213 219 + 1;
#X msg 167 164 0;
#X obj 135 261 * 35;
#X obj 135 284 + 20;
#X obj 135 335 list prepend;
#X obj 135 233 t a a a;
#X obj 168 284 + 1;
#X obj 135 309 pack f f;
#X obj 135 394 s pd-\$0.gop;
#X obj 245 209 s pd-\$0.gop;
#X msg 245 179 clear;
#X obj 26 74 t b a a, f 37;
#X msg 26 283 loadbang;
#X obj 26 24 inlet;
#X obj 26 51 list prepend \$1;
#X msg 135 164 \$2;
#X obj 26 385 s pd-\$0.gop;
#X msg 135 362 obj \$3 20 tpf-client-inchannel \$1 \$4;
#X connect 0 0 18 0;
#X connect 0 1 4 0;
#X connect 0 2 7 1;
#X connect 1 0 2 0;
#X connect 2 0 8 0;
#X connect 3 0 2 1;
#X connect 4 0 2 1;
#X connect 5 0 6 0;
#X connect 6 0 10 0;
#X connect 7 0 20 0;
#X connect 8 0 5 0;
#X connect 8 1 9 0;
#X connect 8 2 3 0;
#X connect 9 0 10 1;
#X connect 10 0 7 0;
#X connect 13 0 12 0;
#X connect 14 0 15 0;
#X connect 14 1 0 0;
#X connect 14 2 13 0;
#X connect 15 0 19 0;
#X connect 16 0 17 0;
#X connect 17 0 14 0;
#X connect 18 0 1 0;
#X connect 20 0 11 0;
#X restore 30 194 pd dynamic.creation;
#N canvas 933 439 407 297 gop.resize 0;
#X obj 30 26 inlet;
#X obj 30 235 s pd-\$0.gop;
#X obj 40 215 s \$0.top;
#X obj 30 62 * 35;
#X obj 30 85 - 1;
#X msg 30 190 coords 0 0 \$2 \$1 \$2 \$1 2 20 20;
#X msg 30 165 59 \$1;
#X connect 0 0 3 0;
#X connect 3 0 4 0;
#X connect 4 0 6 0;
#X connect 5 0 2 0;
#X connect 5 0 1 0;
#X connect 6 0 5 0;
#X restore 57 170 pd gop.resize;
#X obj 30 146 t a a;
#X obj 96 95 namecanvas \$0.top;
#X msg 30 123 8;
#X obj 266 164 s pd-\$0.gop;
#X msg 266 134 clear;
#X connect 1 0 6 0;
#X connect 4 0 2 0;
#X connect 4 1 3 0;
#X connect 6 0 4 0;
#X connect 8 0 7 0;
#X coords 0 0 279 59 279 59 2 20 20;
