#N canvas 0 103 420 264 10;
#N canvas 470 106 664 577 communication 1;
#X obj 9 38 packOSC;
#X obj 9 17 r \$1.send;
#X obj 9 58 slipenc 16384;
#X obj 9 78 s \$1.to;
#X obj 9 157 tcpclient;
#X obj 9 133 r \$1.to;
#X obj 9 344 s \$1.from;
#X obj 9 389 r \$1.from;
#X obj 9 409 slipdec 16384;
#X obj 9 429 unpackOSC;
#X obj 9 455 s \$1.receive;
#X obj 141 153 s \$1.to;
#X msg 160 130 disconnect;
#X obj 141 17 r \$1.connect;
#X obj 141 37 sel 1 0;
#X obj 43 320 s \$1.connection.state;
#X obj 405 185 r \$1.receive;
#X msg 405 100 /s/server/socket;
#X obj 405 121 s \$1.send;
#X obj 405 205 routeOSC /s/server/socket;
#X obj 414 228 r \$1.connection.state;
#X obj 414 248 sel 0;
#X msg 414 268 0;
#X obj 405 293 s \$1.id;
#X obj 405 35 r \$1.connection.state;
#X obj 405 344 r \$1.to.tpf;
#X obj 405 364 list split 1;
#X obj 405 404 list append;
#X obj 405 444 s \$1.send;
#X obj 405 470 r \$1.receive;
#X obj 405 512 s \$1.from.tpf;
#X obj 405 424 list trim;
#X msg 405 384 symbol /s/tpf\$1;
#X obj 405 492 routeOSC /s/tpf;
#X obj 405 55 sel 1;
#X obj 405 75 del 100;
#X obj 141 58 symbol;
#X obj 192 58 r \$1.host;
#N canvas 0 139 377 257 msgs 0;
#X obj 42 17 r \$1.connection.state;
#X obj 42 38 sel 1 0;
#X obj 118 53 r \$1.host;
#X obj 41 89 symbol;
#X obj 91 92 symbol;
#X obj 45 215 s \$1.info;
#X msg 37 176 connected to '\$1:\$2';
#X msg 209 175 disconnected from '\$1:\$2';
#X obj 38 149 list append;
#X obj 209 144 list append;
#X obj 210 63 r \$1.port;
#X connect 0 0 1 0;
#X connect 1 0 3 0;
#X connect 1 1 4 0;
#X connect 2 0 3 1;
#X connect 2 0 4 1;
#X connect 3 0 8 0;
#X connect 4 0 9 0;
#X connect 6 0 5 0;
#X connect 7 0 5 0;
#X connect 8 0 6 0;
#X connect 9 0 7 0;
#X connect 10 0 8 1;
#X connect 10 0 9 1;
#X restore 21 509 pd msgs;
#N canvas 0 215 296 241 keep_alive 0;
#X obj 6 16 r \$1.connection.state;
#X obj 25 99 del 1000;
#X obj 6 39 sel 0 1;
#X msg 6 68 stop;
#X obj 6 128 metro 60000;
#X msg 6 151 /s/server/dummy;
#X obj 6 175 s \$1.send;
#X connect 0 0 2 0;
#X connect 1 0 4 0;
#X connect 2 0 3 0;
#X connect 2 1 1 0;
#X connect 3 0 1 0;
#X connect 3 0 4 0;
#X connect 4 0 5 0;
#X connect 5 0 6 0;
#X restore 180 320 pd keep_alive;
#X obj 60 179 route local_address;
#X obj 60 202 route IPv4;
#X obj 60 225 list split 4;
#X obj 60 248 list prepend local_address;
#X obj 60 271 list trim;
#X obj 60 294 s \$1.intercom;
#X obj 141 83 list append;
#X obj 217 82 r \$1.port;
#X msg 141 109 connect \$1 \$2;
#X connect 0 0 2 0;
#X connect 1 0 0 0;
#X connect 2 0 3 0;
#X connect 4 0 6 0;
#X connect 4 2 15 0;
#X connect 4 3 40 0;
#X connect 5 0 4 0;
#X connect 7 0 8 0;
#X connect 8 0 9 0;
#X connect 9 0 10 0;
#X connect 12 0 11 0;
#X connect 13 0 14 0;
#X connect 14 0 36 0;
#X connect 14 1 12 0;
#X connect 16 0 19 0;
#X connect 17 0 18 0;
#X connect 19 0 23 0;
#X connect 20 0 21 0;
#X connect 21 0 22 0;
#X connect 22 0 23 0;
#X connect 24 0 34 0;
#X connect 25 0 26 0;
#X connect 26 0 32 0;
#X connect 26 1 27 1;
#X connect 27 0 31 0;
#X connect 29 0 33 0;
#X connect 31 0 28 0;
#X connect 32 0 27 0;
#X connect 33 0 30 0;
#X connect 34 0 35 0;
#X connect 35 0 17 0;
#X connect 36 0 46 0;
#X connect 37 0 36 1;
#X connect 40 0 41 0;
#X connect 41 0 42 0;
#X connect 42 0 43 0;
#X connect 43 0 44 0;
#X connect 44 0 45 0;
#X connect 46 0 48 0;
#X connect 47 0 46 1;
#X connect 48 0 11 0;
#X restore 8 11 pd communication;
#N canvas 318 676 314 294 tpf.initialization 0;
#X obj 17 10 r \$1.id;
#X obj 17 51 b;
#X obj 17 30 moses 1;
#N canvas 270 156 457 298 protocol/version 0;
#X obj 17 54 s \$1.to.tpf;
#X obj 17 74 r \$1.from.tpf;
#X obj 17 114 unpack f f;
#X obj 17 154 &&;
#X obj 17 175 sel 1;
#X msg 44 195 protocol version of server does not match;
#X obj 44 215 s \$1.error;
#X msg 17 33 /protocol/version;
#X obj 17 94 routeOSC /protocol/version;
#X obj 17 11 inlet;
#X obj 17 255 outlet;
#X text 69 254 bang when OK;
#X obj 17 134 == 1;
#X obj 74 133 == 1;
#X connect 1 0 8 0;
#X connect 2 0 12 0;
#X connect 2 1 13 0;
#X connect 3 0 4 0;
#X connect 4 0 10 0;
#X connect 4 1 5 0;
#X connect 5 0 6 0;
#X connect 7 0 0 0;
#X connect 8 0 2 0;
#X connect 9 0 7 0;
#X connect 12 0 3 0;
#X connect 13 0 3 1;
#X restore 17 94 pd protocol/version;
#X obj 17 207 s \$1.registered;
#X obj 174 135 r \$1.name;
#X obj 141 205 s \$1.info;
#X obj 17 140 t b b;
#X obj 141 164 symbol;
#X msg 141 184 registered name '\$1';
#N canvas 20 106 450 300 register/client 0;
#X obj 109 31 r \$1.name;
#X obj 108 52 list;
#X obj 23 12 inlet;
#X obj 23 230 outlet;
#X obj 23 119 s \$1.to.tpf;
#X obj 23 139 r \$1.from.tpf;
#X obj 23 159 routeOSC /register;
#X obj 23 203 b;
#X obj 78 251 s \$1.error;
#X obj 23 179 routeOSC /done /error /again;
#X obj 180 22 t b;
#X obj 78 228 list trim;
#X msg 23 98 /register/client \$1 \$2;
#X obj 23 55 symbol;
#X obj 23 78 list append;
#X obj 78 26 list;
#X obj 79 5 r \$1.room;
#X connect 0 0 1 0;
#X connect 1 0 14 1;
#X connect 2 0 13 0;
#X connect 5 0 6 0;
#X connect 6 0 9 0;
#X connect 7 0 3 0;
#X connect 9 0 7 0;
#X connect 9 1 11 0;
#X connect 9 2 10 0;
#X connect 10 0 13 0;
#X connect 11 0 8 0;
#X connect 12 0 4 0;
#X connect 13 0 14 0;
#X connect 14 0 12 0;
#X connect 15 0 13 1;
#X connect 16 0 15 0;
#X restore 17 119 pd register/client;
#X connect 0 0 2 0;
#X connect 1 0 3 0;
#X connect 2 1 1 0;
#X connect 3 0 10 0;
#X connect 5 0 8 1;
#X connect 7 0 4 0;
#X connect 7 1 8 0;
#X connect 8 0 9 0;
#X connect 9 0 6 0;
#X connect 10 0 7 0;
#X restore 8 36 pd tpf.initialization;
#N canvas 0 365 1109 592 params 0;
#X obj 619 133 text search \$1.clients 0;
#X obj 619 108 f;
#X obj 634 86 r \$1.id;
#X obj 619 158 text get \$1.clients;
#X obj 619 178 route bang;
#X obj 30 534 s \$1.to.tpf;
#X msg 106 461 /params/begin;
#X msg 11 499 /params/end;
#X obj 30 413 list prepend /params;
#X obj 30 433 list trim;
#X obj 366 19 r \$1.from.tpf;
#X obj 366 39 routeOSC /updated/params;
#X msg 366 59 /refresh/params;
#X obj 366 78 s \$1.to.tpf;
#X obj 836 17 r \$1.from.tpf;
#X obj 836 37 routeOSC /params;
#X obj 836 57 routeOSC /end /begin;
#X obj 836 77 t b b;
#X msg 863 96 0;
#X msg 894 96 1;
#X obj 953 151 spigot;
#X obj 953 172 list;
#X obj 1009 140 loadbang;
#X msg 1009 160 8e+06;
#X obj 953 192 text set \$1.params;
#X obj 921 224 text delete \$1.params;
#X obj 894 77 t b b;
#X msg 921 203 -1;
#X obj 836 267 s \$1.updated.params;
#X obj 674 266 s \$1.set.params;
#X obj 11 15 r \$1.set.params;
#X obj 11 85 sel 1;
#X obj 30 326 samplerate~;
#X msg 30 346 samplerate \$1;
#X obj 97 282 r \$1.bitres;
#X obj 67 283 f;
#X msg 67 301 bitres \$1;
#X obj 11 106 t b b b;
#X obj 329 146 r \$1.updated.params;
#X obj 356 206 t a b;
#X obj 356 226 until;
#X obj 356 246 f;
#X obj 356 266 t a a;
#X obj 394 257 + 1;
#X msg 397 227 0;
#X obj 356 186 text size \$1.params;
#X obj 356 287 text get \$1.params;
#X obj 356 307 list trim;
#X obj 426 396 t b a;
#X obj 329 166 t b b;
#X obj 329 475 f;
#N canvas 1275 705 441 348 bitres 0;
#X obj 23 58 t a a;
#X obj 23 113 ==;
#X obj 23 143 t a a;
#X obj 23 309 outlet;
#X obj 50 165 sel 0;
#X obj 150 60 t a a;
#X obj 23 16 inlet;
#X obj 113 133 pack f f;
#X obj 50 209 list append;
#X msg 50 230 \$1 mismatch: mandated \$2 - configured \$3;
#X obj 50 250 s \$1.error;
#X obj 23 38 route bitres;
#X obj 150 40 r \$1.bitres;
#X obj 50 189 list append bitres;
#X connect 0 0 1 0;
#X connect 0 1 7 0;
#X connect 1 0 2 0;
#X connect 2 0 3 0;
#X connect 2 1 4 0;
#X connect 4 0 13 0;
#X connect 5 0 1 1;
#X connect 5 1 7 1;
#X connect 6 0 11 0;
#X connect 7 0 8 1;
#X connect 8 0 9 0;
#X connect 9 0 10 0;
#X connect 11 0 0 0;
#X connect 12 0 5 0;
#X connect 13 0 8 0;
#X restore 356 370 pd bitres;
#N canvas 1255 689 441 348 samplerate 0;
#X obj 23 143 ==;
#X obj 23 173 t a a;
#X obj 23 309 outlet;
#X obj 50 195 sel 0;
#X obj 110 105 t a a;
#X obj 23 16 inlet;
#X obj 113 163 pack f f;
#X obj 50 239 list append;
#X msg 50 260 \$1 mismatch: mandated \$2 - configured \$3;
#X obj 50 280 s \$1.error;
#X obj 23 38 route samplerate;
#X obj 110 85 samplerate~;
#X obj 50 219 list append samplerate;
#X obj 23 58 t a a b, f 15;
#X connect 0 0 1 0;
#X connect 1 0 2 0;
#X connect 1 1 3 0;
#X connect 3 0 12 0;
#X connect 4 0 0 1;
#X connect 4 1 6 1;
#X connect 5 0 10 0;
#X connect 6 0 7 1;
#X connect 7 0 8 0;
#X connect 8 0 9 0;
#X connect 10 0 13 0;
#X connect 11 0 4 0;
#X connect 12 0 7 0;
#X connect 13 0 0 0;
#X connect 13 1 6 0;
#X connect 13 2 11 0;
#X restore 426 370 pd samplerate;
#X obj 356 429 &&, f 13;
#X obj 674 199 list;
#X obj 674 219 t a a;
#X obj 11 61 change;
#X obj 120 14 r \$1.connection.state;
#X obj 120 34 sel 0;
#X msg 120 54 set 0;
#X obj 506 68 r \$1.set.params;
#X obj 506 88 sel 0;
#X msg 674 242 \$3;
#X obj 619 17 r \$1.intercom;
#X obj 619 40 route refresh_peers;
#X obj 619 63 sel 1;
#X obj 162 143 r \$1.client_version;
#X obj 30 129 t b b b b, f 19;
#X msg 141 190 client_version \$1;
#X obj 141 165 list;
#X obj 356 453 &&, f 26;
#N canvas 688 579 441 348 client_version 0;
#X obj 23 85 t a a;
#X obj 23 309 outlet;
#X obj 156 74 t a a;
#X obj 23 16 inlet;
#X obj 88 201 list append;
#X obj 88 242 s \$1.error;
#X obj 23 38 route client_version;
#X obj 156 22 r \$1.client_version;
#X obj 88 181 list append client_version;
#X obj 113 133 pack s s;
#X obj 156 45 symbol;
#X obj 23 61 symbol;
#X obj 23 113 sel _;
#X msg 23 136 1;
#X msg 50 152 0;
#X obj 88 155 b;
#X msg 88 222 \$1 mismatch: mandated \$2 - having \$3;
#X connect 0 0 12 0;
#X connect 0 1 9 0;
#X connect 2 0 12 1;
#X connect 2 1 9 1;
#X connect 3 0 6 0;
#X connect 4 0 16 0;
#X connect 6 0 11 0;
#X connect 7 0 10 0;
#X connect 8 0 4 0;
#X connect 9 0 4 1;
#X connect 10 0 2 0;
#X connect 11 0 0 0;
#X connect 12 0 13 0;
#X connect 12 1 14 0;
#X connect 12 1 15 0;
#X connect 13 0 1 0;
#X connect 14 0 1 0;
#X connect 15 0 8 0;
#X connect 16 0 5 0;
#X restore 516 370 pd client_version;
#X obj 515 399 t b a;
#X msg 329 500 param_check \$1;
#X obj 329 523 s \$1.intercom;
#X obj 356 327 t a a a, f 22;
#X connect 0 0 3 0;
#X connect 1 0 0 0;
#X connect 2 0 1 1;
#X connect 3 0 4 0;
#X connect 4 1 54 0;
#X connect 6 0 5 0;
#X connect 7 0 5 0;
#X connect 8 0 9 0;
#X connect 9 0 5 0;
#X connect 10 0 11 0;
#X connect 11 0 12 0;
#X connect 12 0 13 0;
#X connect 14 0 15 0;
#X connect 15 0 16 0;
#X connect 16 0 17 0;
#X connect 16 1 26 0;
#X connect 16 2 20 0;
#X connect 17 0 28 0;
#X connect 17 1 18 0;
#X connect 18 0 20 1;
#X connect 19 0 20 1;
#X connect 20 0 21 0;
#X connect 21 0 24 0;
#X connect 22 0 23 0;
#X connect 23 0 24 1;
#X connect 26 0 19 0;
#X connect 26 1 27 0;
#X connect 27 0 25 0;
#X connect 30 0 56 0;
#X connect 31 0 37 0;
#X connect 32 0 33 0;
#X connect 33 0 8 0;
#X connect 34 0 35 1;
#X connect 35 0 36 0;
#X connect 36 0 8 0;
#X connect 37 0 7 0;
#X connect 37 1 67 0;
#X connect 37 2 6 0;
#X connect 38 0 49 0;
#X connect 39 0 40 0;
#X connect 39 1 44 0;
#X connect 40 0 41 0;
#X connect 41 0 42 0;
#X connect 42 0 46 0;
#X connect 42 1 43 0;
#X connect 43 0 41 1;
#X connect 44 0 41 1;
#X connect 45 0 39 0;
#X connect 46 0 47 0;
#X connect 47 0 75 0;
#X connect 48 0 53 0;
#X connect 48 1 53 1;
#X connect 49 0 50 0;
#X connect 49 1 45 0;
#X connect 50 0 73 0;
#X connect 51 0 53 0;
#X connect 52 0 48 0;
#X connect 53 0 70 0;
#X connect 54 0 55 0;
#X connect 55 0 62 0;
#X connect 56 0 31 0;
#X connect 57 0 58 0;
#X connect 58 0 59 0;
#X connect 59 0 56 0;
#X connect 60 0 61 0;
#X connect 61 0 12 0;
#X connect 62 0 29 0;
#X connect 63 0 64 0;
#X connect 64 0 65 0;
#X connect 65 0 1 0;
#X connect 66 0 69 1;
#X connect 67 0 32 0;
#X connect 67 1 35 0;
#X connect 67 3 69 0;
#X connect 68 0 8 0;
#X connect 69 0 68 0;
#X connect 70 0 50 1;
#X connect 71 0 72 0;
#X connect 72 0 53 0;
#X connect 72 1 70 1;
#X connect 73 0 74 0;
#X connect 75 0 51 0;
#X connect 75 1 52 0;
#X connect 75 2 71 0;
#X restore 8 87 pd params;
#N canvas 348 652 316 192 gui.code 0;
#N canvas 2026 859 379 223 host 0;
#X restore 8 26 pd host;
#N canvas 241 315 534 348 channels 0;
#X obj 136 277 s \$1.channels.label;
#X msg 136 252 label ch=\$1;
#X obj 190 28 r \$1.channels.nb;
#X obj 190 98 div 4;
#X obj 20 237 * 4;
#X msg 20 257 set \$1;
#X obj 20 277 s \$1.channels.nb.r;
#X obj 20 212 t a a;
#X obj 20 24 r \$1.channels;
#X obj 190 118 change -1;
#X obj 224 178 s \$1.channels;
#X obj 190 138 t b a a b;
#X obj 20 160 spigot 1;
#X msg 241 157 0;
#X msg 160 166 1;
#X obj 300 78 == 0;
#X obj 190 64 spigot 1;
#X msg 369 224 color -1 -1 \$1;
#X msg 404 181 20;
#X msg 369 181 30;
#X obj 369 126 sel 0 1;
#X obj 296 138 loadbang;
#X obj 300 26 r \$1.connection.state;
#X obj 300 46 t a a;
#X obj 300 105 sel 1;
#X connect 1 0 0 0;
#X connect 2 0 16 0;
#X connect 3 0 9 0;
#X connect 4 0 5 0;
#X connect 5 0 6 0;
#X connect 7 0 4 0;
#X connect 7 1 1 0;
#X connect 8 0 12 0;
#X connect 9 0 11 0;
#X connect 11 0 14 0;
#X connect 11 1 1 0;
#X connect 11 2 10 0;
#X connect 11 3 13 0;
#X connect 12 0 7 0;
#X connect 13 0 12 1;
#X connect 14 0 12 1;
#X connect 15 0 16 1;
#X connect 15 0 24 0;
#X connect 16 0 3 0;
#X connect 17 0 0 0;
#X connect 18 0 17 0;
#X connect 19 0 17 0;
#X connect 20 0 19 0;
#X connect 20 1 18 0;
#X connect 21 0 19 0;
#X connect 22 0 23 0;
#X connect 23 0 15 0;
#X connect 23 1 20 0;
#X connect 24 0 4 0;
#X restore 8 45 pd channels;
#N canvas 67 191 444 300 samplerate 0;
#X obj 22 166 s \$1.set.samplerate.r;
#X msg 22 143 label \$1;
#X obj 22 25 loadbang;
#X obj 22 73 samplerate~;
#X obj 22 120 makefilename %d;
#X obj 22 96 change;
#X obj 22 48 metro 1000;
#X connect 1 0 0 0;
#X connect 2 0 6 0;
#X connect 3 0 5 0;
#X connect 4 0 1 0;
#X connect 5 0 4 0;
#X connect 6 0 3 0;
#X restore 8 64 pd samplerate;
#N canvas 963 629 691 446 blocksize 0;
#X obj 47 28 r \$1.bs.nb;
#X obj 47 108 div 4;
#X obj 47 128 t b a;
#X msg 47 148 2;
#X obj 47 171 <<;
#X obj 74 147 + 5;
#X msg 64 347 label bs=\$1;
#X obj 64 372 s \$1.bs.label;
#X obj 251 109 r \$1.blocksize;
#X obj 278 209 log;
#X obj 278 230 /;
#X obj 313 203 log;
#X msg 313 184 2;
#X obj 313 163 loadbang;
#X obj 278 250 int;
#X obj 278 270 - 5;
#X obj 278 290 * 4;
#X msg 278 313 set \$1;
#X obj 278 334 s \$1.bs.nb.r;
#X obj 251 162 t a a;
#X obj 47 193 change -1;
#X obj 47 219 t b a a b;
#X obj 251 135 spigot 1;
#X msg 98 238 0;
#X msg 47 244 1;
#X obj 81 324 s \$1.blocksize;
#X obj 150 58 == 0;
#X obj 47 48 spigot 1;
#X obj 450 211 s \$1.bs.label;
#X msg 450 178 color -1 -1 \$1;
#X msg 485 135 20;
#X msg 450 135 30;
#X obj 450 80 sel 0 1;
#X obj 377 92 loadbang;
#X obj 150 6 r \$1.connection.state;
#X obj 150 26 t a a;
#X obj 150 96 sel 1;
#X obj 278 187 f;
#X obj 81 260 t b a;
#X obj 81 281 del 500;
#X obj 81 302 f;
#X connect 0 0 27 0;
#X connect 1 0 2 0;
#X connect 2 0 3 0;
#X connect 2 1 5 0;
#X connect 3 0 4 0;
#X connect 4 0 20 0;
#X connect 5 0 4 1;
#X connect 6 0 7 0;
#X connect 8 0 22 0;
#X connect 9 0 10 0;
#X connect 10 0 14 0;
#X connect 11 0 10 1;
#X connect 12 0 11 0;
#X connect 13 0 12 0;
#X connect 14 0 15 0;
#X connect 15 0 16 0;
#X connect 16 0 17 0;
#X connect 17 0 18 0;
#X connect 19 0 6 0;
#X connect 19 1 37 0;
#X connect 20 0 21 0;
#X connect 21 0 24 0;
#X connect 21 1 6 0;
#X connect 21 2 38 0;
#X connect 21 3 23 0;
#X connect 22 0 19 0;
#X connect 23 0 22 1;
#X connect 24 0 22 1;
#X connect 26 0 27 1;
#X connect 26 0 36 0;
#X connect 27 0 1 0;
#X connect 29 0 28 0;
#X connect 30 0 29 0;
#X connect 31 0 29 0;
#X connect 32 0 31 0;
#X connect 32 1 30 0;
#X connect 33 0 31 0;
#X connect 34 0 35 0;
#X connect 35 0 26 0;
#X connect 35 1 32 0;
#X connect 36 0 37 0;
#X connect 37 0 9 0;
#X connect 38 0 39 0;
#X connect 38 1 40 1;
#X connect 39 0 40 0;
#X connect 40 0 25 0;
#X restore 8 83 pd blocksize;
#N canvas 0 43 450 300 bitres 0;
#X obj 26 76 s \$1.res.label;
#X msg 26 51 label res=\$1;
#X obj 163 30 loadbang;
#X obj 23 22 r \$1.bitres;
#X msg 163 50 color -1 -1 20;
#X connect 1 0 0 0;
#X connect 2 0 4 0;
#X connect 3 0 1 0;
#X connect 4 0 0 0;
#X restore 9 102 pd bitres;
#N canvas 255 114 593 359 queue 0;
#X obj 151 159 div 4;
#X obj 35 233 * 4;
#X msg 35 253 set \$1;
#X obj 35 208 t a a;
#X obj 151 29 r \$1.queue.nb;
#X obj 168 281 s \$1.queue.label;
#X obj 35 273 s \$1.queue.nb.r;
#X msg 168 256 label q=\$1;
#X obj 35 23 r \$1.queue;
#X obj 151 178 t b a a b;
#X obj 35 159 spigot 1;
#X msg 202 197 0;
#X msg 151 203 1;
#X obj 299 318 s \$1.queue;
#X obj 265 81 == 0;
#X obj 151 99 spigot 1;
#X msg 438 188 color -1 -1 \$1;
#X msg 473 145 20;
#X msg 438 145 30;
#X obj 438 90 sel 0 1;
#X obj 365 102 loadbang;
#X obj 265 29 r \$1.connection.state;
#X obj 265 49 t a a;
#X obj 438 221 s \$1.queue.label;
#X obj 265 111 sel 1;
#X obj 299 258 t b a;
#X obj 299 278 del 500;
#X obj 299 298 f;
#X connect 0 0 9 0;
#X connect 1 0 2 0;
#X connect 2 0 6 0;
#X connect 3 0 1 0;
#X connect 3 1 7 0;
#X connect 4 0 15 0;
#X connect 7 0 5 0;
#X connect 8 0 10 0;
#X connect 9 0 12 0;
#X connect 9 1 7 0;
#X connect 9 2 25 0;
#X connect 9 3 11 0;
#X connect 10 0 3 0;
#X connect 11 0 10 1;
#X connect 12 0 10 1;
#X connect 14 0 15 1;
#X connect 14 0 24 0;
#X connect 15 0 0 0;
#X connect 16 0 23 0;
#X connect 17 0 16 0;
#X connect 18 0 16 0;
#X connect 19 0 18 0;
#X connect 19 1 17 0;
#X connect 20 0 18 0;
#X connect 21 0 22 0;
#X connect 22 0 14 0;
#X connect 22 1 19 0;
#X connect 24 0 1 0;
#X connect 25 0 26 0;
#X connect 25 1 27 1;
#X connect 26 0 27 0;
#X connect 27 0 13 0;
#X restore 8 122 pd queue;
#N canvas 854 838 343 302 latency.switch 0;
#X obj 43 23 r \$1.latency.switch;
#X obj 136 206 s \$1.latency.switch.r;
#X msg 136 178 color \$1 \$2 \$3;
#X msg 136 149 0 0 0;
#X msg 185 149 0 0 255;
#X obj 43 57 == 0;
#X obj 43 78 t a a a;
#X obj 136 118 sel 0 1;
#X obj 185 29 loadbang;
#X msg 185 50 0;
#X obj 43 237 s \$1.latency.measurement.state;
#X connect 0 0 5 0;
#X connect 2 0 1 0;
#X connect 3 0 2 0;
#X connect 4 0 2 0;
#X connect 5 0 6 0;
#X connect 6 0 10 0;
#X connect 6 1 7 0;
#X connect 6 2 5 1;
#X connect 7 0 3 0;
#X connect 7 1 4 0;
#X connect 8 0 9 0;
#X connect 9 0 6 0;
#X restore 8 143 pd latency.switch;
#N canvas 881 518 615 188 connect 0;
#X obj 47 85 r \$1.connection.state;
#X obj 16 104 ==;
#X obj 16 125 s \$1.connect;
#X obj 16 46 t b b;
#X obj 266 31 r \$1.registered;
#X obj 184 6 r \$1.connection.state;
#X obj 477 17 r \$1.error;
#X obj 16 11 r \$1.connect.switch;
#X obj 204 138 s \$1.connect.switch.r;
#X msg 204 107 color \$1 \$2 \$3;
#X msg 477 37 255 0 0;
#X msg 266 53 0 0 255;
#X msg 203 57 0 0 0;
#X msg 123 58 192 192 192;
#X obj 407 104 loadbang;
#X obj 184 33 sel 1 0;
#X connect 0 0 1 1;
#X connect 1 0 2 0;
#X connect 3 0 1 0;
#X connect 4 0 11 0;
#X connect 5 0 15 0;
#X connect 6 0 10 0;
#X connect 7 0 3 0;
#X connect 9 0 8 0;
#X connect 10 0 9 0;
#X connect 11 0 9 0;
#X connect 12 0 9 0;
#X connect 13 0 9 0;
#X connect 14 0 12 0;
#X connect 15 0 13 0;
#X connect 15 1 12 0;
#X restore 8 7 pd connect;
#X restore 8 112 pd gui.code;
#N canvas 635 497 992 567 chat.code 0;
#X obj 52 132 s \$1.send;
#X obj 52 91 list prepend /b/tpf/chat/message;
#X obj 52 112 list trim;
#X obj 596 39 r \$1.receive;
#X obj 596 62 routeOSC /*;
#X obj 596 84 routeOSC /tpf/chat/message;
#X obj 136 27 r \$1.id;
#X obj 52 48 list append 0;
#X obj 52 69 list prepend <name>;
#X obj 199 42 r \$1.name;
#X obj 52 27 r \$1.chat.s;
#X obj 295 52 text define \$1.chat;
#X obj 690 192 loadbang;
#X obj 596 191 list;
#X msg 295 28 clear;
#X obj 635 240 text insert \$1.chat;
#X msg 690 212 0;
#X obj 615 264 text size \$1.chat;
#X obj 615 285 - 30;
#X obj 615 306 max 0;
#X obj 615 328 until;
#X obj 615 372 text delete \$1.chat;
#X obj 615 349 f 30;
#X obj 785 26 loadbang;
#X obj 785 89 s \$1.chat.buffer;
#X obj 693 325 r \$1.chat.buffer;
#X msg 596 419 totalsize \$1;
#X obj 596 213 t b b a;
#X obj 596 396 text size \$1.chat;
#X msg 785 47 80;
#X obj 103 372 s \$1.chat.r;
#X obj 104 185 r \$1.connection.state;
#X obj 104 206 sel 0 1;
#X obj 291 179 loadbang;
#X msg 103 313 set <not\$1connected>;
#X msg 233 315 set <Enter\$1your\$1message\$1here>;
#X obj 103 277 symbol;
#X obj 233 276 symbol;
#X obj 291 200 t b b;
#X msg 318 222 32;
#X obj 318 243 makefilename %c;
#X obj 309 130 bng 15 250 50 0 empty empty empty 17 7 0 10 -262144
-1 -1;
#N canvas 1136 447 521 398 wrap 0;
#X obj 17 8 inlet;
#X obj 44 345 outlet;
#X obj 17 139 list fromsymbol;
#X obj 17 182 list tosymbol;
#X msg 17 55 list \$2 \$1 \$3;
#X obj 44 302 pack s s f;
#X msg 44 323 list \$2 \$1 \$3;
#X obj 17 76 unpack s s f;
#X obj 17 217 t b a;
#X msg 17 256 symbol;
#X obj 17 30 list;
#N canvas 966 53 526 756 serialize 0;
#X obj 92 152 until;
#X obj 91 431 list store;
#X obj 91 177 f;
#X msg 144 152 0, f 2;
#X obj 92 96 t b b a a;
#X obj 207 208 list length;
#X obj 91 198 t a a;
#X obj 175 246 pack f f;
#X msg 175 267 \$2 \$1;
#X obj 175 288 -;
#X obj 175 330 max 1;
#X obj 91 364 pack f f;
#X msg 91 400 get \$1 \$2;
#X obj 92 47 inlet;
#X obj 91 458 outlet;
#X obj 131 178 + 73;
#X obj 175 309 min 73;
#X connect 0 0 2 0;
#X connect 1 0 14 0;
#X connect 1 1 0 1;
#X connect 2 0 6 0;
#X connect 2 0 15 0;
#X connect 3 0 2 1;
#X connect 4 0 0 0;
#X connect 4 1 3 0;
#X connect 4 2 5 0;
#X connect 4 3 1 1;
#X connect 5 0 7 1;
#X connect 6 0 11 0;
#X connect 6 1 7 0;
#X connect 7 0 8 0;
#X connect 8 0 9 0;
#X connect 9 0 16 0;
#X connect 10 0 11 1;
#X connect 11 0 12 0;
#X connect 12 0 1 0;
#X connect 13 0 4 0;
#X connect 15 0 2 1;
#X connect 16 0 10 0;
#X restore 18 161 pd serialize 73;
#X connect 0 0 10 0;
#X connect 2 0 11 0;
#X connect 3 0 8 0;
#X connect 4 0 7 0;
#X connect 5 0 6 0;
#X connect 6 0 1 0;
#X connect 7 0 2 0;
#X connect 7 1 5 1;
#X connect 7 2 5 2;
#X connect 8 0 9 0;
#X connect 8 1 5 0;
#X connect 9 0 5 1;
#X connect 10 0 4 0;
#X connect 11 0 3 0;
#X restore 596 161 pd wrap;
#X obj 277 438 r \$1.display.chat;
#X msg 277 459 vis 1;
#X obj 277 480 s pd-chat;
#X obj 596 444 s \$1.scb.chat.r;
#X obj 821 129 r \$1.id;
#X obj 596 123 t a a;
#X obj 794 151 sel 0;
#X obj 821 181 b;
#X obj 821 206 s \$1.new.chat.msg;
#X obj 284 345 r \$1.new.chat.msg;
#X obj 284 387 s \$1.display.chat.r;
#X msg 284 366 color 128 255 128;
#X msg 776 126 \$3;
#X obj 596 105 list;
#X connect 1 0 2 0;
#X connect 2 0 0 0;
#X connect 3 0 4 0;
#X connect 4 0 5 0;
#X connect 5 0 56 0;
#X connect 6 0 7 1;
#X connect 7 0 8 0;
#X connect 8 0 1 0;
#X connect 9 0 8 1;
#X connect 10 0 7 0;
#X connect 12 0 16 0;
#X connect 13 0 27 0;
#X connect 14 0 11 0;
#X connect 16 0 15 1;
#X connect 17 0 18 0;
#X connect 18 0 19 0;
#X connect 19 0 20 0;
#X connect 20 0 22 0;
#X connect 22 0 21 0;
#X connect 23 0 29 0;
#X connect 25 0 22 1;
#X connect 25 0 18 1;
#X connect 26 0 46 0;
#X connect 27 0 28 0;
#X connect 27 1 17 0;
#X connect 27 2 15 0;
#X connect 28 0 26 0;
#X connect 29 0 24 0;
#X connect 31 0 32 0;
#X connect 32 0 36 0;
#X connect 32 1 37 0;
#X connect 33 0 38 0;
#X connect 34 0 30 0;
#X connect 35 0 30 0;
#X connect 36 0 34 0;
#X connect 37 0 35 0;
#X connect 38 0 36 0;
#X connect 38 1 39 0;
#X connect 39 0 40 0;
#X connect 40 0 37 1;
#X connect 40 0 36 1;
#X connect 41 0 37 0;
#X connect 42 0 13 0;
#X connect 43 0 44 0;
#X connect 44 0 45 0;
#X connect 47 0 49 1;
#X connect 48 0 42 0;
#X connect 48 1 55 0;
#X connect 49 1 50 0;
#X connect 50 0 51 0;
#X connect 52 0 54 0;
#X connect 54 0 53 0;
#X connect 55 0 49 0;
#X connect 56 0 48 0;
#X restore 8 162 pd chat.code;
#N canvas 667 381 509 572 latency.code 0;
#X obj 75 122 osc~;
#X obj 75 248 *~;
#X obj 12 51 t b b;
#X obj 75 98 vline~;
#X obj 74 379 sigmund~ -npts 4096 -hop 1024 pitch;
#X obj 74 400 mtof;
#X obj 12 451 f;
#X text 165 144 -6dB;
#X obj 74 272 lop~ 4000;
#X obj 74 302 lop~ 4000;
#X obj 74 329 lop~ 4000;
#X obj 74 359 lop~ 4000;
#X obj 90 202 dac~ 65;
#X obj 343 107 t a a;
#X obj 343 128 div 8;
#X obj 383 128 mod 8;
#X obj 343 181 pack f f;
#X msg 343 202 set \$1.channel.\$2;
#X obj 343 296 env~ 8192 8192;
#X obj 343 320 int;
#X obj 343 341 makefilename %3d;
#X msg 343 363 label \$1dB;
#X obj 343 386 s \$1.lat.ret.level;
#X obj 12 7 r \$1.latency.measurement.state;
#X obj 343 84 r \$1.lat.ret.ch;
#X obj 129 121 r \$1.latency.measurement.state;
#X obj 75 173 *~ 0;
#X obj 129 142 * 0.5;
#X msg 347 34 vis 1;
#X obj 347 13 r \$1.display.latency;
#X obj 347 55 s pd-latency;
#X obj 12 30 metro 1000;
#X obj 12 429 delay 900;
#N canvas 977 392 757 449 latency.display 0;
#X obj 35 200 int;
#X msg 35 243 label \$1ms;
#X obj 35 266 s \$1.latency.label;
#X obj 35 221 makefilename %3d;
#X obj 228 106 r \$1.latency.measurement.state;
#X msg 228 202 color -1 -1 \$1;
#X obj 228 127 - 1;
#X obj 228 176 f;
#X obj 35 22 inlet;
#X obj 35 43 t a b b;
#X obj 456 29 inlet;
#X obj 553 96 * 1.01;
#X obj 510 96 * 0.99;
#X obj 483 130 moses;
#X obj 510 152 moses;
#X obj 510 68 f;
#X obj 510 34 r \$1.lat.range.reset;
#X obj 456 75 sel 0;
#X obj 589 242 s \$1.lat.range.reset;
#X obj 562 216 t b a;
#X obj 510 243 t a b;
#X obj 537 279 f;
#X obj 588 296 + 1;
#X obj 537 304 t a a;
#X msg 562 248 0;
#X msg 537 366 0;
#X msg 582 367 1;
#X obj 127 161 f 13;
#X obj 537 392 s \$1.lat.mes.valid;
#X obj 211 265 r \$1.lat.mes.valid;
#X obj 211 286 sel 0 1;
#X msg 211 311 13;
#X msg 240 310 16;
#X obj 160 140 del 300;
#X obj 537 345 moses 20;
#X connect 0 0 3 0;
#X connect 1 0 2 0;
#X connect 3 0 1 0;
#X connect 4 0 6 0;
#X connect 5 0 2 0;
#X connect 6 0 7 0;
#X connect 7 0 5 0;
#X connect 8 0 9 0;
#X connect 9 0 0 0;
#X connect 9 1 27 0;
#X connect 9 2 33 0;
#X connect 10 0 17 0;
#X connect 11 0 14 1;
#X connect 12 0 13 1;
#X connect 13 0 19 0;
#X connect 13 1 14 0;
#X connect 14 0 20 0;
#X connect 14 1 19 0;
#X connect 15 0 12 0;
#X connect 15 0 11 0;
#X connect 16 0 15 0;
#X connect 17 1 13 0;
#X connect 19 0 24 0;
#X connect 19 1 18 0;
#X connect 20 1 21 0;
#X connect 21 0 23 0;
#X connect 22 0 21 1;
#X connect 23 0 34 0;
#X connect 23 1 22 0;
#X connect 24 0 21 0;
#X connect 25 0 28 0;
#X connect 26 0 28 0;
#X connect 27 0 5 0;
#X connect 29 0 30 0;
#X connect 30 0 31 0;
#X connect 30 1 32 0;
#X connect 31 0 27 1;
#X connect 32 0 27 1;
#X connect 33 0 7 0;
#X connect 34 0 25 0;
#X connect 34 1 26 0;
#X restore 12 525 pd latency.display;
#X obj 226 416 r \$1.latency.measurement.state;
#X obj 226 437 sel 0;
#X msg 226 458 stop;
#X obj 75 54 f;
#X msg 75 77 1000 \, 9000 \$1;
#N canvas 658 352 284 188 sample.period 0;
#X obj 91 29 loadbang;
#X msg 91 50 1;
#X obj 91 71 s \$1.lat.period.r;
#X obj 91 92 r \$1.lat.period;
#X obj 91 113 * 1000;
#X obj 91 134 outlet;
#X connect 0 0 1 0;
#X connect 1 0 2 0;
#X connect 3 0 4 0;
#X connect 4 0 5 0;
#X restore 151 39 pd sample.period;
#N canvas 658 406 284 188 sample.period 0;
#X obj 88 12 r \$1.lat.period;
#X obj 59 159 outlet;
#X obj 20 33 inlet;
#X obj 59 125 *;
#X obj 39 85 f;
#X obj 20 54 t b b a;
#X obj 88 59 / 8;
#X obj 88 33 t a a;
#X obj 147 101 * 1000;
#X obj 147 122 - 100;
#X obj 147 143 outlet;
#X connect 0 0 7 0;
#X connect 2 0 5 0;
#X connect 3 0 1 0;
#X connect 4 0 3 1;
#X connect 5 0 8 0;
#X connect 5 1 4 0;
#X connect 5 2 3 0;
#X connect 6 0 4 1;
#X connect 7 0 6 0;
#X connect 7 1 8 1;
#X connect 8 0 9 0;
#X connect 9 0 10 0;
#X restore 12 485 pd sample.period;
#X obj 343 225 r~ 1.channel.0;
#X obj 343 151 + 1;
#X connect 0 0 26 0;
#X connect 1 0 8 0;
#X connect 2 0 32 0;
#X connect 2 1 37 0;
#X connect 3 0 0 0;
#X connect 4 0 5 0;
#X connect 5 0 6 1;
#X connect 5 0 33 1;
#X connect 6 0 40 0;
#X connect 8 0 9 0;
#X connect 9 0 10 0;
#X connect 10 0 11 0;
#X connect 11 0 4 0;
#X connect 13 0 14 0;
#X connect 13 1 15 0;
#X connect 14 0 42 0;
#X connect 15 0 16 1;
#X connect 16 0 17 0;
#X connect 17 0 41 0;
#X connect 18 0 19 0;
#X connect 19 0 20 0;
#X connect 20 0 21 0;
#X connect 21 0 22 0;
#X connect 23 0 31 0;
#X connect 24 0 13 0;
#X connect 25 0 27 0;
#X connect 26 0 1 0;
#X connect 26 0 12 0;
#X connect 27 0 26 1;
#X connect 28 0 30 0;
#X connect 29 0 28 0;
#X connect 31 0 2 0;
#X connect 32 0 6 0;
#X connect 34 0 35 0;
#X connect 35 0 36 0;
#X connect 36 0 32 0;
#X connect 37 0 38 0;
#X connect 38 0 3 0;
#X connect 39 0 31 1;
#X connect 39 0 37 1;
#X connect 40 0 33 0;
#X connect 40 1 32 1;
#X connect 41 0 1 1;
#X connect 41 0 18 0;
#X connect 42 0 16 0;
#X restore 8 212 pd latency.code;
#N canvas 41 537 1034 543 messages.code 0;
#X obj 420 74 print TPF_ERROR;
#X msg 17 102 vis 1;
#X obj 216 28 text define \$1.msgs;
#X obj 612 264 loadbang;
#X obj 518 263 list;
#X msg 612 284 0;
#X obj 537 357 - 30;
#X obj 537 378 max 0;
#X obj 537 400 until;
#X obj 537 421 f 30;
#X obj 809 20 loadbang;
#X msg 518 491 totalsize \$1;
#X obj 518 285 t b b a;
#X obj 809 83 s \$1.msgs.buffer;
#X obj 615 397 r \$1.msgs.buffer;
#X obj 557 312 text insert \$1.msgs;
#X obj 537 336 text size \$1.msgs;
#X obj 537 444 text delete \$1.msgs;
#X obj 518 467 text size \$1.msgs;
#X obj 518 516 s \$1.scb.msgs.r;
#X obj 17 81 r \$1.display.messages;
#X obj 393 28 r \$1.error;
#X obj 518 30 r \$1.warning;
#X obj 660 27 r \$1.info;
#X obj 687 82 print TPF_INFO;
#X obj 393 49 t a a;
#X obj 518 56 t a a;
#X obj 545 81 print TPF_WARN;
#X obj 660 48 t a a;
#X msg 809 41 300;
#X obj 393 102 list prepend ERROR;
#X obj 518 105 list prepend WARNING;
#X obj 660 106 list prepend INFO;
#X obj 518 159 list split 1;
#N canvas 789 242 443 595 list2symbol 0;
#X obj 168 149 until;
#X obj 168 231 list store;
#X obj 168 174 f;
#X obj 206 175 + 1;
#X msg 222 147 0, f 2;
#X obj 168 122 t b b a;
#X msg 168 203 get \$1 1;
#X obj 166 298 list fromsymbol;
#X obj 167 253 list append;
#X msg 166 276 symbol \$1\$2;
#X obj 297 168 loadbang;
#X msg 297 199 symbol;
#X obj 166 339 list prepend append;
#X obj 166 360 list trim;
#X obj 72 394 list store;
#X obj 166 319 list append 32;
#X obj 68 64 t b b a;
#X obj 72 415 list tosymbol;
#X obj 68 43 list;
#X obj 72 436 outlet;
#X obj 68 21 inlet;
#X connect 0 0 2 0;
#X connect 1 0 8 0;
#X connect 1 1 0 1;
#X connect 2 0 3 0;
#X connect 2 0 6 0;
#X connect 3 0 2 1;
#X connect 4 0 2 1;
#X connect 5 0 0 0;
#X connect 5 1 4 0;
#X connect 5 2 1 1;
#X connect 6 0 1 0;
#X connect 7 0 15 0;
#X connect 8 0 9 0;
#X connect 9 0 7 0;
#X connect 10 0 11 0;
#X connect 11 0 8 1;
#X connect 12 0 13 0;
#X connect 13 0 14 0;
#X connect 14 0 17 0;
#X connect 15 0 12 0;
#X connect 16 0 14 1;
#X connect 16 1 14 0;
#X connect 16 2 5 0;
#X connect 17 0 19 0;
#X connect 18 0 16 0;
#X connect 20 0 18 0;
#X restore 552 183 pd list2symbol;
#X obj 518 213 list append;
#X obj 518 234 list append -1;
#X obj 393 123 t a b;
#X obj 518 126 t a b;
#X obj 660 127 t a b;
#X msg 675 195 -1;
#X msg 716 194 -2;
#X msg 743 193 -4;
#X msg 318 242 color 255 128 128;
#X obj 318 263 s \$1.display.messages.r;
#X obj 17 123 s pd-messages;
#X connect 1 0 45 0;
#X connect 3 0 5 0;
#X connect 4 0 12 0;
#X connect 5 0 15 1;
#X connect 6 0 7 0;
#X connect 7 0 8 0;
#X connect 8 0 9 0;
#X connect 9 0 17 0;
#X connect 10 0 29 0;
#X connect 11 0 19 0;
#X connect 12 0 18 0;
#X connect 12 1 16 0;
#X connect 12 2 15 0;
#X connect 14 0 9 1;
#X connect 14 0 6 1;
#X connect 16 0 6 0;
#X connect 18 0 11 0;
#X connect 20 0 1 0;
#X connect 21 0 25 0;
#X connect 22 0 26 0;
#X connect 23 0 28 0;
#X connect 25 0 30 0;
#X connect 25 1 0 0;
#X connect 26 0 31 0;
#X connect 26 1 27 0;
#X connect 28 0 32 0;
#X connect 28 1 24 0;
#X connect 29 0 13 0;
#X connect 30 0 37 0;
#X connect 31 0 38 0;
#X connect 32 0 39 0;
#X connect 33 0 35 0;
#X connect 33 1 34 0;
#X connect 34 0 35 1;
#X connect 35 0 36 0;
#X connect 36 0 4 0;
#X connect 37 0 33 0;
#X connect 37 1 40 0;
#X connect 37 1 43 0;
#X connect 38 0 33 0;
#X connect 38 1 41 0;
#X connect 39 0 33 0;
#X connect 39 1 42 0;
#X connect 40 0 36 1;
#X connect 41 0 36 1;
#X connect 42 0 36 1;
#X connect 43 0 44 0;
#X restore 8 187 pd messages.code;
#N canvas 239 148 1155 532 settings.code 0;
#X msg 20 80 vis 1;
#X obj 31 57 r \$1.display.settings;
#X obj 20 101 s pd-settings;
#X obj 182 25 r \$1.host;
#X msg 182 48 set \$1;
#X obj 182 71 s \$1.set.host.r;
#X obj 182 97 r \$1.set.host;
#X obj 182 120 s \$1.host;
#X msg 292 48 set \$1;
#X obj 292 25 r \$1.room;
#X obj 292 71 s \$1.set.room.r;
#X obj 292 97 r \$1.set.room;
#X obj 292 120 s \$1.room;
#X msg 402 48 set \$1;
#X obj 402 25 r \$1.name;
#X obj 402 71 s \$1.set.name.r;
#X obj 402 97 r \$1.set.name;
#X obj 402 120 s \$1.name;
#X msg 512 48 set \$1;
#X obj 512 25 r \$1.port;
#X obj 512 71 s \$1.set.port.r;
#X obj 512 97 r \$1.set.port;
#X obj 512 120 s \$1.port;
#X msg 612 48 set \$1;
#X obj 612 25 r \$1.audioport;
#X obj 612 71 s \$1.set.audioport.r;
#X obj 612 97 r \$1.set.audioport;
#X obj 612 120 s \$1.audioport;
#X msg 742 68 set \$1;
#X obj 742 25 r \$1.blocksize;
#X obj 742 91 s \$1.set.blocksize.r;
#X obj 742 117 r \$1.set.blocksize;
#X obj 742 160 s \$1.blocksize;
#X msg 872 72 set \$1;
#X obj 872 25 r \$1.channels;
#X obj 872 95 s \$1.set.channels.r;
#X obj 872 121 r \$1.set.channels;
#X obj 872 250 s \$1.channels;
#X msg 1002 48 set \$1;
#N canvas 0 106 407 241 to_blocksize 0;
#X obj 70 112 pow;
#X msg 70 90 2 \$1;
#X obj 70 67 + 6;
#X obj 70 42 inlet;
#X obj 70 139 outlet;
#X connect 0 0 4 0;
#X connect 1 0 0 0;
#X connect 2 0 1 0;
#X connect 3 0 2 0;
#X restore 742 138 pd to_blocksize;
#N canvas 0 106 446 173 from_blocksize 0;
#X obj 16 84 log;
#X msg 16 59 \$1 2;
#X obj 16 108 - 6;
#X obj 16 31 inlet;
#X obj 16 133 outlet;
#X connect 0 0 2 0;
#X connect 1 0 0 0;
#X connect 2 0 4 0;
#X connect 3 0 1 0;
#X restore 742 46 pd from_blocksize;
#X obj 872 48 - 1;
#X obj 872 144 + 1;
#X obj 22 187 r \$1.name;
#X msg 22 210 label \$1;
#X obj 22 233 s \$1.name.display.r;
#X obj 139 159 r \$1.host;
#X obj 205 160 r \$1.room;
#X obj 139 207 pack s s;
#X obj 205 183 t b a;
#X msg 139 230 label \$1/\$2;
#X obj 139 253 s \$1.connection.display.r;
#X obj 20 9 r \$1.show.settings;
#X obj 20 32 sel;
#X obj 48 32 t a;
#N canvas 0 106 421 264 change_detected 0;
#X obj 138 8 r \$1.set.host;
#X obj 137 30 r \$1.set.room;
#X obj 137 52 r \$1.set.name;
#X obj 137 75 r \$1.set.port;
#X obj 137 98 r \$1.set.audioport;
#X obj 137 120 r \$1.set.channels;
#X obj 13 96 b;
#X obj 13 181 outlet;
#X connect 0 0 6 0;
#X connect 1 0 6 0;
#X connect 2 0 6 0;
#X connect 3 0 6 0;
#X connect 4 0 6 0;
#X connect 5 0 6 0;
#X connect 6 0 7 0;
#X restore 328 166 pd change_detected;
#X obj 447 170 r \$1.connection.state;
#X msg 328 219 1;
#X obj 328 289 change -1;
#X obj 872 190 spigot 1;
#X obj 872 223 f;
#X obj 940 146 r \$1.connection.state;
#X obj 940 193 ==;
#X obj 940 169 t a a;
#X obj 347 399 s \$1.notification.label;
#X msg 328 361 label empty;
#X obj 328 312 sel 0 1;
#X obj 872 167 t a a;
#X msg 347 339 label reconnect\ to\ apply\ new\ settings;
#X obj 920 220 r \$1.channels;
#X obj 328 242 list prepend;
#X obj 328 265 route 1;
#X obj 447 230 sel 0;
#X msg 447 253 0;
#X msg 497 294 label Save*;
#X obj 497 318 s \$1.save.r;
#X obj 328 190 t b b, f 9;
#N canvas 518 290 636 555 save.settings 0;
#X obj 11 17 r \$1.save.s;
#X msg 11 167 label Save;
#N canvas 642 190 1154 738 fetch.settings 0;
#X obj 30 9 inlet;
#X obj 30 33 t b b b b b b b b;
#X msg 445 60 host \$1;
#X msg 407 134 room \$1;
#X msg 387 204 name \$1;
#X msg 321 281 port \$1;
#X msg 258 356 audioport \$1;
#X msg 190 434 channels \$1;
#X msg 136 510 blocksize \$1;
#X obj 385 653 outlet;
#X obj 508 17 r \$1.host;
#X obj 445 39 list append;
#X obj 470 88 r \$1.room;
#X obj 407 112 list append;
#X obj 450 158 r \$1.name;
#X obj 387 181 list append;
#X obj 384 235 r \$1.port;
#X obj 321 257 list append;
#X obj 258 333 list append;
#X obj 321 309 r \$1.audioport;
#X obj 253 386 r \$1.channels;
#X obj 190 409 list append;
#X obj 199 463 r \$1.blocksize;
#X obj 136 486 list append;
#X obj 91 561 list append;
#X obj 154 536 r \$1.recvbuf;
#X msg 91 585 recvbuf \$1;
#X connect 0 0 1 0;
#X connect 1 0 24 0;
#X connect 1 1 23 0;
#X connect 1 2 21 0;
#X connect 1 3 18 0;
#X connect 1 4 17 0;
#X connect 1 5 15 0;
#X connect 1 6 13 0;
#X connect 1 7 11 0;
#X connect 2 0 9 0;
#X connect 3 0 9 0;
#X connect 4 0 9 0;
#X connect 5 0 9 0;
#X connect 6 0 9 0;
#X connect 7 0 9 0;
#X connect 8 0 9 0;
#X connect 10 0 11 1;
#X connect 11 0 2 0;
#X connect 12 0 13 1;
#X connect 13 0 3 0;
#X connect 14 0 15 1;
#X connect 15 0 4 0;
#X connect 16 0 17 1;
#X connect 17 0 5 0;
#X connect 18 0 6 0;
#X connect 19 0 18 1;
#X connect 20 0 21 1;
#X connect 21 0 7 0;
#X connect 22 0 23 1;
#X connect 23 0 8 0;
#X connect 24 0 26 0;
#X connect 25 0 24 1;
#X connect 26 0 9 0;
#X restore 303 295 pd fetch.settings;
#X obj 11 190 s \$1.save.r;
#X msg 248 315 fetch_settings;
#X obj 248 338 s \$1.intercom;
#X obj 248 361 r \$1.intercom;
#X obj 248 385 route save_settings;
#X obj 248 420 t a;
#X msg 358 217 clear;
#X obj 248 469 text set \$1.settings;
#X obj 248 443 list;
#X obj 307 416 loadbang;
#X msg 307 439 1e+15;
#X obj 11 40 t b b;
#X obj 139 191 t b a b b b, f 37;
#X msg 193 233 write -c \$1;
#X obj 193 263 outlet;
#X obj 335 18 r \$1.save.to.s;
#X obj 335 67 savepanel;
#X msg 38 75 symbol ../default_settings.cnf;
#X msg 335 44 symbol ..;
#X connect 0 0 14 0;
#X connect 1 0 3 0;
#X connect 2 0 8 0;
#X connect 4 0 5 0;
#X connect 6 0 7 0;
#X connect 7 0 8 0;
#X connect 8 0 11 0;
#X connect 9 0 17 0;
#X connect 11 0 10 0;
#X connect 12 0 13 0;
#X connect 13 0 10 1;
#X connect 14 0 1 0;
#X connect 14 1 20 0;
#X connect 15 1 16 0;
#X connect 15 2 4 0;
#X connect 15 3 2 0;
#X connect 15 4 9 0;
#X connect 16 0 17 0;
#X connect 18 0 21 0;
#X connect 19 0 15 0;
#X connect 20 0 15 0;
#X connect 21 0 19 0;
#X restore 24 313 pd save.settings;
#N canvas 0 106 645 562 load.settings 0;
#X obj 26 30 r \$1.load.settings;
#X obj 137 218 outlet;
#X msg 190 156 clear;
#X msg 137 178 read -c \$1;
#X obj 85 127 t b a b, f 18;
#X obj 85 362 text get \$1.settings;
#X obj 85 245 text size \$1.settings;
#X obj 85 291 until;
#X obj 85 268 t a b, f 8;
#X obj 85 314 f;
#X msg 130 292 0;
#X obj 85 337 t a a;
#X obj 134 330 + 1;
#X obj 85 385 list trim;
#X obj 85 480 list trim;
#X obj 85 512 s \$1.intercom;
#X obj 370 433 list;
#X obj 370 456 t a a, f 17;
#X obj 404 532 s;
#X obj 469 479 list prepend \$1;
#X msg 469 502 symbol \$1.\$2;
#X obj 370 479 list split 1;
#X obj 325 40 r \$1.load.from.s;
#X obj 325 91 openpanel;
#X msg 325 66 symbol ..;
#X msg 26 53 symbol ../default_settings.cnf;
#X obj 85 408 route peer_name mixer, f 48;
#X obj 85 431 list prepend peer_name;
#X obj 227 431 list prepend mixer;
#X obj 85 457 list prepend restore_settings;
#X connect 0 0 25 0;
#X connect 2 0 1 0;
#X connect 3 0 1 0;
#X connect 4 0 6 0;
#X connect 4 1 3 0;
#X connect 4 2 2 0;
#X connect 5 0 13 0;
#X connect 6 0 8 0;
#X connect 7 0 9 0;
#X connect 8 0 7 0;
#X connect 8 1 10 0;
#X connect 9 0 11 0;
#X connect 10 0 9 1;
#X connect 11 0 5 0;
#X connect 11 1 12 0;
#X connect 12 0 9 1;
#X connect 13 0 26 0;
#X connect 14 0 15 0;
#X connect 16 0 17 0;
#X connect 17 0 21 0;
#X connect 17 1 19 0;
#X connect 19 0 20 0;
#X connect 20 0 18 1;
#X connect 21 1 18 0;
#X connect 22 0 24 0;
#X connect 23 0 4 0;
#X connect 24 0 23 0;
#X connect 25 0 4 0;
#X connect 26 0 27 0;
#X connect 26 1 28 0;
#X connect 26 2 16 0;
#X connect 27 0 29 0;
#X connect 28 0 29 0;
#X connect 29 0 14 0;
#X restore 67 350 pd load.settings;
#X obj 24 394 text define \$1.settings;
#X obj 967 193 sel 0;
#X obj 497 198 r \$1.intercom;
#X obj 497 221 route peer_swap_response;
#X obj 23 424 r \$1.reset.s;
#X msg 23 447 reset;
#X obj 23 470 s \$1.intercom;
#X obj 504 247 r \$1.set.blocksize;
#X obj 1002 25 r \$1.recvbuf;
#X obj 1002 71 s \$1.set.recvbuf.r;
#X obj 1002 97 r \$1.set.recvbuf;
#X obj 1002 120 s \$1.recvbuf;
#X obj 511 271 r \$1.set.recvbuf;
#X connect 0 0 2 0;
#X connect 1 0 0 0;
#X connect 3 0 4 0;
#X connect 4 0 5 0;
#X connect 6 0 7 0;
#X connect 8 0 10 0;
#X connect 9 0 8 0;
#X connect 11 0 12 0;
#X connect 13 0 15 0;
#X connect 14 0 13 0;
#X connect 16 0 17 0;
#X connect 18 0 20 0;
#X connect 19 0 18 0;
#X connect 21 0 22 0;
#X connect 23 0 25 0;
#X connect 24 0 23 0;
#X connect 26 0 27 0;
#X connect 28 0 30 0;
#X connect 29 0 40 0;
#X connect 31 0 39 0;
#X connect 33 0 35 0;
#X connect 34 0 41 0;
#X connect 36 0 42 0;
#X connect 38 0 88 0;
#X connect 39 0 32 0;
#X connect 40 0 28 0;
#X connect 41 0 33 0;
#X connect 42 0 67 0;
#X connect 43 0 44 0;
#X connect 44 0 45 0;
#X connect 46 0 48 0;
#X connect 47 0 49 0;
#X connect 48 0 50 0;
#X connect 49 0 48 0;
#X connect 49 1 48 1;
#X connect 50 0 51 0;
#X connect 52 0 53 0;
#X connect 53 0 0 0;
#X connect 53 1 54 0;
#X connect 54 0 53 1;
#X connect 55 0 76 0;
#X connect 56 0 70 1;
#X connect 56 0 72 0;
#X connect 57 0 70 0;
#X connect 58 0 66 0;
#X connect 59 0 60 0;
#X connect 60 0 37 0;
#X connect 61 0 63 0;
#X connect 62 0 59 1;
#X connect 63 0 62 0;
#X connect 63 1 80 0;
#X connect 65 0 64 0;
#X connect 66 0 65 0;
#X connect 66 1 68 0;
#X connect 67 0 59 0;
#X connect 67 1 60 1;
#X connect 68 0 64 0;
#X connect 69 0 60 1;
#X connect 70 0 71 0;
#X connect 71 0 58 0;
#X connect 72 0 73 0;
#X connect 73 0 58 0;
#X connect 74 0 75 0;
#X connect 76 0 57 0;
#X connect 76 1 74 0;
#X connect 77 0 79 0;
#X connect 78 0 79 0;
#X connect 80 0 60 0;
#X connect 81 0 82 0;
#X connect 82 0 74 0;
#X connect 83 0 84 0;
#X connect 84 0 85 0;
#X connect 86 0 74 0;
#X connect 87 0 38 0;
#X connect 89 0 90 0;
#X connect 91 0 74 0;
#X restore 8 137 pd settings.code;
#N canvas 215 238 667 578 clients 0;
#X obj 17 9 r \$1.from.tpf;
#X obj 17 71 s \$1.to.tpf;
#X obj 15 106 r \$1.from.tpf;
#X obj 15 126 routeOSC /clients;
#X obj 15 148 routeOSC /end /begin;
#X obj 132 322 text set \$1.clients;
#X obj 169 282 loadbang;
#X msg 169 302 8e+06;
#X obj 191 232 text delete \$1.clients;
#X msg 191 211 -1;
#X obj 132 263 spigot;
#X obj 73 170 t b b;
#X msg 73 191 1;
#X msg 54 214 0;
#X obj 16 389 r \$1.connection.state;
#X obj 16 409 sel 0;
#X obj 16 429 t b b b;
#X msg 55 450 -1;
#X obj 55 475 text delete \$1.clients;
#X obj 17 29 routeOSC /updated/clients;
#X msg 17 50 /refresh/clients;
#X obj 15 170 t b b b;
#N canvas 0 106 806 345 check.assignment 0;
#X obj 15 16 inlet;
#X obj 15 256 outlet;
#X obj 15 39 t a a b, f 33;
#X obj 15 229 list append;
#X text 250 35 Set to -1 if not yet assigned;
#X text 249 17 Which tpf-client-link "owns" this peer?;
#X msg 210 205 -1;
#X obj 181 124 s \$1.intercom;
#X msg 181 99 get_link_owner \$2;
#X text 302 100 peer name;
#X obj 180 147 r \$1.intercom;
#X obj 180 170 route set_link_owner;
#X text 310 169 we except tpf-client-link id here;
#X msg 112 175 0;
#N canvas 420 364 450 300 mark.self 0;
#X obj 16 23 inlet;
#X obj 79 138 outlet;
#X obj 61 78 r \$1.id;
#X obj 16 76 route;
#X obj 16 135 outlet;
#X obj 16 106 b;
#X connect 0 0 3 0;
#X connect 2 0 3 1;
#X connect 3 0 5 0;
#X connect 3 1 1 0;
#X connect 5 0 4 0;
#X restore 112 73 pd mark.self;
#X connect 0 0 2 0;
#X connect 2 0 3 0;
#X connect 2 1 14 0;
#X connect 2 2 6 0;
#X connect 3 0 1 0;
#X connect 6 0 3 1;
#X connect 8 0 7 0;
#X connect 10 0 11 0;
#X connect 11 0 3 1;
#X connect 13 0 3 1;
#X connect 14 0 13 0;
#X connect 14 1 8 0;
#X restore 132 180 pd check.assignment;
#X obj 15 348 s \$1.intercom;
#X obj 16 524 s \$1.intercom;
#X msg 15 325 refresh_peers 1;
#X msg 16 501 refresh_peers 1;
#X connect 0 0 19 0;
#X connect 2 0 3 0;
#X connect 3 0 4 0;
#X connect 4 0 21 0;
#X connect 4 1 11 0;
#X connect 4 2 22 0;
#X connect 6 0 7 0;
#X connect 7 0 5 1;
#X connect 9 0 8 0;
#X connect 10 0 5 0;
#X connect 11 0 12 0;
#X connect 11 1 9 0;
#X connect 12 0 10 1;
#X connect 13 0 10 1;
#X connect 14 0 15 0;
#X connect 15 0 16 0;
#X connect 16 0 26 0;
#X connect 16 2 17 0;
#X connect 17 0 18 0;
#X connect 19 0 20 0;
#X connect 20 0 1 0;
#X connect 21 0 25 0;
#X connect 21 2 13 0;
#X connect 22 0 10 0;
#X connect 25 0 23 0;
#X connect 26 0 24 0;
#X restore 8 62 pd clients;
