#N canvas 325 189 693 342 10;
#X obj 14 16 inlet;
#X obj 14 253 outlet;
#X obj 396 143 route selected;
#X obj 396 24 r \$1.\$2;
#X obj 396 94 s \$1.\$2.gui;
#X obj 396 120 r \$1.\$2.gui;
#X obj 396 192 s \$1.\$2;
#X msg 396 71 set \$1;
#X obj 104 93 r \$1.\$2;
#X obj 41 126 list append;
#X obj 41 149 list prepend \$2;
#X obj 41 172 list prepend save_settings;
#X obj 41 195 list trim;
#X obj 41 71 route fetch_settings;
#X obj 41 94 b;
#X obj 14 39 t a a a, f 34;
#X obj 215 65 route restore_settings;
#X obj 215 88 route \$2;
#X obj 396 166 list;
#X obj 215 139 s \$1.\$2;
#X obj 215 113 list;
#X obj 41 218 s \$1.intercom;
#X connect 0 0 15 0;
#X connect 2 0 18 0;
#X connect 3 0 7 0;
#X connect 5 0 2 0;
#X connect 7 0 4 0;
#X connect 8 0 9 1;
#X connect 9 0 10 0;
#X connect 10 0 11 0;
#X connect 11 0 12 0;
#X connect 12 0 21 0;
#X connect 13 0 14 0;
#X connect 14 0 9 0;
#X connect 15 0 1 0;
#X connect 15 1 13 0;
#X connect 15 2 16 0;
#X connect 16 0 17 0;
#X connect 17 0 20 0;
#X connect 18 0 6 0;
#X connect 20 0 19 0;
