#N struct 1078.rectangle float id float x float y float w float h float
txtclr float boxclr float bgclr symbol label;
#N struct 1079.rectangle float id float x float y float w float h float
txtclr float boxclr float bgclr symbol label;
#N struct 1080.rectangle float id float x float y float w float h float
txtclr float boxclr float bgclr symbol label;
#N struct 1081.rectangle float id float x float y float w float h float
txtclr float boxclr float bgclr symbol label;
#N struct 1082.rectangle float id float x float y float w float h float
txtclr float boxclr float bgclr symbol label;
#N struct 1083.rectangle float id float x float y float w float h float
txtclr float boxclr float bgclr symbol label;
#N struct 1084.rectangle float id float x float y float w float h float
txtclr float boxclr float bgclr symbol label;
#N canvas 814 26 474 385 10;
#N canvas 457 95 1089 563 communication 0;
#X msg 62 189 disconnect;
#X obj 44 20 r \$1.connect;
#X obj 44 40 sel 1 0;
#X obj 44 101 symbol;
#X obj 77 72 r \$1.host;
#N canvas 0 139 377 257 msgs 0;
#X obj 42 17 r \$1.connection.state;
#X obj 42 38 sel 1 0;
#X obj 118 53 r \$1.host;
#X obj 41 89 symbol;
#X obj 91 92 symbol;
#X obj 45 215 s \$1.info;
#X msg 37 176 connected to '\$1:\$2';
#X msg 209 175 disconnected from '\$1:\$2';
#X obj 38 149 list append;
#X obj 209 144 list append;
#X obj 210 63 r \$1.port;
#X connect 0 0 1 0;
#X connect 1 0 3 0;
#X connect 1 1 4 0;
#X connect 2 0 3 1;
#X connect 2 0 4 1;
#X connect 3 0 8 0;
#X connect 4 0 9 0;
#X connect 6 0 5 0;
#X connect 7 0 5 0;
#X connect 8 0 6 0;
#X connect 9 0 7 0;
#X connect 10 0 8 1;
#X connect 10 0 9 1;
#X restore 21 509 pd msgs;
#X obj 95 107 r \$1.port;
#X obj 42 371 s \$1.connection.state;
#X obj 135 319 s \$1.origin;
#N canvas 838 489 296 241 keep_alive_DISABLED 0;
#X obj 6 16 r \$1.connection.state;
#X obj 25 99 del 1000;
#X obj 6 39 sel 0 1;
#X msg 6 68 stop;
#X obj 6 128 metro 60000;
#X msg 6 151 /s/server/dummy;
#X obj 6 175 s \$1.send;
#X connect 1 0 4 0;
#X connect 2 0 3 0;
#X connect 2 1 1 0;
#X connect 3 0 1 0;
#X connect 3 0 4 0;
#X connect 4 0 5 0;
#X connect 5 0 6 0;
#X restore 383 514 pd keep_alive_DISABLED;
#X obj 88 344 s \$1.receive;
#X obj 42 265 r \$1.send;
#X obj 248 67 r \$1.name;
#X obj 277 90 r \$1.room;
#X obj 44 211 s \$1.send;
#X obj 254 304 r \$1.registered;
#X obj 254 380 s \$1.info;
#X obj 298 333 r \$1.name;
#X msg 254 356 registered name '\$1';
#X obj 254 333 symbol;
#X obj 441 311 r \$1.receive;
#X obj 441 335 route group_join;
#X msg 441 380 joined room '\$1';
#X obj 441 404 s \$1.info;
#X obj 441 358 list;
#X obj 687 411 r \$1.receive;
#X obj 687 434 route list;
#X obj 687 457 oscparse;
#X obj 687 503 s \$1.oscrecv;
#X obj 591 19 r \$1.oscsend;
#X obj 690 287 oscformat;
#X obj 690 373 s \$1.send;
#X obj 888 233 list append;
#X obj 951 198 r \$1.room;
#X obj 687 480 list trim;
#X obj 591 65 list;
#X obj 591 88 t a a;
#X msg 771 169 symbol \$1;
#X obj 591 130 list split 1;
#X obj 667 228 list prepend set;
#X obj 667 251 list trim;
#X obj 690 146 list;
#X msg 888 267 target \$2 \$1;
#X obj 771 227 symbol;
#X msg 771 260 target \$1;
#X obj 837 416 spigot;
#X msg 869 356 1;
#X msg 896 357 0;
#X obj 690 113 route list symbol float bang;
#X obj 42 292 tpf-aoo-client .;
#X obj 591 42 route dest format;
#X obj 640 66 list prepend format;
#X obj 640 89 list trim;
#X obj 771 193 sel _all _others, f 20;
#X obj 690 350 spigot 0;
#X obj 735 324 r \$1.connection.state;
#X obj 44 135 pack s f, f 9;
#X msg 44 164 connect \$1 \$2;
#X obj 174 516 s \$1.registered;
#X obj 202 45 sel 1;
#X obj 202 19 r \$1.connection.state;
#X obj 202 68 symbol;
#X obj 202 91 list append;
#X msg 202 133 group_join \$2 _ \$1 _;
#X text 198 185 setting user and group password to '_'.;
#X obj 202 158 s \$1.send;
#X obj 367 21 r \$1.receive;
#X obj 367 45 route group_join;
#X obj 367 68 list;
#X msg 367 91 \$2;
#X obj 367 137 s \$1.registered;
#X obj 464 68 r \$1.name;
#X obj 420 68 symbol;
#X obj 420 115 s \$1.error;
#X msg 420 91 registering name '\$1' failed;
#X obj 367 114 sel 1 0;
#X connect 0 0 14 0;
#X connect 1 0 2 0;
#X connect 2 0 3 0;
#X connect 2 1 0 0;
#X connect 3 0 56 0;
#X connect 4 0 3 1;
#X connect 6 0 56 1;
#X connect 11 0 49 0;
#X connect 12 0 61 1;
#X connect 13 0 62 1;
#X connect 15 0 19 0;
#X connect 17 0 19 1;
#X connect 18 0 16 0;
#X connect 19 0 18 0;
#X connect 20 0 21 0;
#X connect 21 0 24 0;
#X connect 22 0 23 0;
#X connect 24 0 22 0;
#X connect 25 0 26 0;
#X connect 26 0 27 0;
#X connect 27 0 34 0;
#X connect 29 0 50 0;
#X connect 30 0 45 0;
#X connect 30 0 54 0;
#X connect 32 0 42 0;
#X connect 33 0 32 1;
#X connect 33 0 43 1;
#X connect 34 0 28 0;
#X connect 35 0 36 0;
#X connect 36 0 38 0;
#X connect 36 1 37 0;
#X connect 37 0 53 0;
#X connect 38 1 39 0;
#X connect 39 0 40 0;
#X connect 40 0 30 0;
#X connect 41 0 30 0;
#X connect 42 0 54 0;
#X connect 43 0 44 0;
#X connect 44 0 54 0;
#X connect 45 0 27 0;
#X connect 46 0 45 1;
#X connect 47 0 45 1;
#X connect 48 0 41 0;
#X connect 48 1 41 0;
#X connect 48 2 41 0;
#X connect 48 3 41 0;
#X connect 49 0 7 0;
#X connect 49 1 10 0;
#X connect 49 2 8 0;
#X connect 50 0 35 0;
#X connect 50 1 51 0;
#X connect 50 2 48 0;
#X connect 51 0 52 0;
#X connect 52 0 30 0;
#X connect 53 0 43 0;
#X connect 53 0 46 0;
#X connect 53 1 47 0;
#X connect 53 1 43 0;
#X connect 53 2 32 0;
#X connect 53 2 47 0;
#X connect 54 0 31 0;
#X connect 55 0 54 1;
#X connect 56 0 57 0;
#X connect 57 0 14 0;
#X connect 59 0 61 0;
#X connect 60 0 59 0;
#X connect 61 0 62 0;
#X connect 62 0 63 0;
#X connect 63 0 65 0;
#X connect 66 0 67 0;
#X connect 67 0 68 0;
#X connect 68 0 69 0;
#X connect 69 0 75 0;
#X connect 71 0 72 1;
#X connect 72 0 74 0;
#X connect 74 0 73 0;
#X connect 75 0 70 0;
#X connect 75 1 72 0;
#X restore 8 70 pd communication;
#N canvas 1016 264 316 272 gui.code 0;
#N canvas 2026 859 379 223 host 0;
#X restore 8 26 pd host;
#N canvas 854 838 343 302 latency.switch 0;
#X obj 43 23 r \$1.latency.switch;
#X obj 136 206 s \$1.latency.switch.r;
#X msg 136 178 color \$1 \$2 \$3;
#X msg 136 149 0 0 0;
#X msg 185 149 0 0 255;
#X obj 43 57 == 0;
#X obj 43 78 t a a a;
#X obj 136 118 sel 0 1;
#X obj 185 29 loadbang;
#X msg 185 50 0;
#X obj 43 237 s \$1.latency.measurement.state;
#X connect 0 0 5 0;
#X connect 2 0 1 0;
#X connect 3 0 2 0;
#X connect 4 0 2 0;
#X connect 5 0 6 0;
#X connect 6 0 10 0;
#X connect 6 1 7 0;
#X connect 6 2 5 1;
#X connect 7 0 3 0;
#X connect 7 1 4 0;
#X connect 8 0 9 0;
#X connect 9 0 6 0;
#X restore 9 49 pd latency.switch;
#N canvas 881 518 615 188 connect 0;
#X obj 47 85 r \$1.connection.state;
#X obj 16 104 ==;
#X obj 16 125 s \$1.connect;
#X obj 16 46 t b b;
#X obj 266 31 r \$1.registered;
#X obj 184 6 r \$1.connection.state;
#X obj 477 17 r \$1.error;
#X obj 16 11 r \$1.connect.switch;
#X obj 204 138 s \$1.connect.switch.r;
#X msg 204 107 color \$1 \$2 \$3;
#X msg 477 37 255 0 0;
#X msg 266 53 0 0 255;
#X msg 203 57 0 0 0;
#X msg 123 58 192 192 192;
#X obj 407 104 loadbang;
#X obj 184 33 sel 1 0;
#X connect 0 0 1 1;
#X connect 1 0 2 0;
#X connect 3 0 1 0;
#X connect 4 0 11 0;
#X connect 5 0 15 0;
#X connect 6 0 10 0;
#X connect 7 0 3 0;
#X connect 9 0 8 0;
#X connect 10 0 9 0;
#X connect 11 0 9 0;
#X connect 12 0 9 0;
#X connect 13 0 9 0;
#X connect 14 0 12 0;
#X connect 15 0 13 0;
#X connect 15 1 12 0;
#X restore 8 7 pd connect;
#N canvas 1072 549 450 300 show.code 0;
#X obj 33 22 r \$1.show.code;
#X obj 33 45 sel;
#X obj 77 48 t a;
#X obj 146 29 keyname;
#X obj 146 54 pack f s;
#X msg 146 79 \$2 \$1;
#X obj 146 102 route Shift_L;
#X obj 33 103 spigot;
#X msg 33 130 vis 1;
#X obj 33 153 s pd-\$1.code;
#X connect 0 0 1 0;
#X connect 1 0 7 0;
#X connect 1 1 2 0;
#X connect 2 0 1 1;
#X connect 3 0 4 0;
#X connect 3 1 4 1;
#X connect 4 0 5 0;
#X connect 5 0 6 0;
#X connect 6 0 7 1;
#X connect 7 0 8 0;
#X connect 8 0 9 0;
#X restore 9 70 pd show.code;
#N canvas 1384 26 450 300 suppress.artefacts 0;
#X obj 72 69 r \$1.channels.gui;
#X msg 72 204 map 0 \, map 1;
#X obj 72 227 s pd-settings;
#X obj 95 101 r \$1.codec.gui;
#X obj 72 157 b;
#X obj 73 181 del 40;
#X obj 72 127 route selected;
#X obj 140 155 r \$1.reset.s;
#X connect 0 0 6 0;
#X connect 1 0 2 0;
#X connect 3 0 6 0;
#X connect 4 0 5 0;
#X connect 5 0 1 0;
#X connect 6 0 4 0;
#X connect 7 0 4 0;
#X restore 9 94 pd suppress.artefacts;
#X restore 8 130 pd gui.code;
#N canvas 464 269 992 567 chat.code 0;
#X obj 52 52 list prepend <name>;
#X obj 163 28 r \$1.name;
#X obj 52 27 r \$1.chat.s;
#X obj 295 52 text define \$1.chat;
#X obj 690 242 loadbang;
#X obj 596 241 list;
#X msg 295 28 clear;
#X obj 635 290 text insert \$1.chat;
#X msg 690 262 0;
#X obj 615 314 text size \$1.chat;
#X obj 615 335 - 30;
#X obj 615 356 max 0;
#X obj 615 378 until;
#X obj 615 422 text delete \$1.chat;
#X obj 615 399 f 30;
#X obj 785 26 loadbang;
#X obj 785 89 s \$1.chat.buffer;
#X obj 693 375 r \$1.chat.buffer;
#X msg 596 469 totalsize \$1;
#X obj 596 263 t b b a;
#X obj 596 446 text size \$1.chat;
#X msg 785 47 80;
#X obj 103 372 s \$1.chat.r;
#X obj 104 185 r \$1.connection.state;
#X obj 104 206 sel 0 1;
#X obj 291 179 loadbang;
#X msg 103 313 set <not\$1connected>;
#X msg 233 315 set <Enter\$1your\$1message\$1here>;
#X obj 103 277 symbol;
#X obj 233 276 symbol;
#X obj 291 200 t b b;
#X msg 318 222 32;
#X obj 318 243 makefilename %c;
#X obj 309 130 bng 15 250 50 0 empty empty empty 17 7 0 10 #fcfcfc
#000000 #000000;
#N canvas 1136 447 521 398 wrap 0;
#X obj 17 8 inlet;
#X obj 44 345 outlet;
#X obj 17 139 list fromsymbol;
#X obj 17 182 list tosymbol;
#X msg 17 55 list \$2 \$1 \$3;
#X obj 44 302 pack s s f;
#X msg 44 323 list \$2 \$1 \$3;
#X obj 17 76 unpack s s f;
#X obj 17 217 t b a;
#X msg 17 256 symbol;
#X obj 17 30 list;
#N canvas 966 53 526 756 serialize 0;
#X obj 92 152 until;
#X obj 91 431 list store;
#X obj 91 177 f;
#X msg 144 152 0, f 2;
#X obj 92 96 t b b a a;
#X obj 207 208 list length;
#X obj 91 198 t a a;
#X obj 175 246 pack f f;
#X msg 175 267 \$2 \$1;
#X obj 175 288 -;
#X obj 175 330 max 1;
#X obj 91 364 pack f f;
#X msg 91 400 get \$1 \$2;
#X obj 92 47 inlet;
#X obj 91 458 outlet;
#X obj 131 178 + 73;
#X obj 175 309 min 73;
#X connect 0 0 2 0;
#X connect 1 0 14 0;
#X connect 1 1 0 1;
#X connect 2 0 6 0;
#X connect 2 0 15 0;
#X connect 3 0 2 1;
#X connect 4 0 0 0;
#X connect 4 1 3 0;
#X connect 4 2 5 0;
#X connect 4 3 1 1;
#X connect 5 0 7 1;
#X connect 6 0 11 0;
#X connect 6 1 7 0;
#X connect 7 0 8 0;
#X connect 8 0 9 0;
#X connect 9 0 16 0;
#X connect 10 0 11 1;
#X connect 11 0 12 0;
#X connect 12 0 1 0;
#X connect 13 0 4 0;
#X connect 15 0 2 1;
#X connect 16 0 10 0;
#X restore 18 161 pd serialize 73;
#X connect 0 0 10 0;
#X connect 2 0 11 0;
#X connect 3 0 8 0;
#X connect 4 0 7 0;
#X connect 5 0 6 0;
#X connect 6 0 1 0;
#X connect 7 0 2 0;
#X connect 7 1 5 1;
#X connect 7 2 5 2;
#X connect 8 0 9 0;
#X connect 8 1 5 0;
#X connect 9 0 5 1;
#X connect 10 0 4 0;
#X connect 11 0 3 0;
#X restore 596 219 pd wrap;
#X obj 277 438 r \$1.display.chat;
#X msg 277 459 vis 1;
#X obj 277 480 s pd-chat;
#X obj 596 494 s \$1.scb.chat.r;
#X obj 821 181 b;
#X obj 821 206 s \$1.new.chat.msg;
#X obj 284 345 r \$1.new.chat.msg;
#X obj 284 387 s \$1.display.chat.r;
#X msg 284 366 color 128 255 128;
#X obj 596 115 list;
#X obj 596 19 r \$1.oscrecv;
#X obj 596 42 route tpf;
#X obj 596 64 route chat;
#X obj 596 87 route message;
#X obj 52 123 s \$1.oscsend;
#X obj 52 75 t a b;
#X msg 79 97 dest _all tpf chat message;
#X obj 821 129 r \$1.name;
#X msg 724 121 symbol \$1;
#X obj 794 151 sel /;
#X obj 596 143 t a a a;
#N canvas 0 103 374 311 generate_id 0;
#X obj 21 4 inlet;
#X msg 21 29 symbol \$1;
#X obj 21 56 list fromsymbol;
#N canvas 0 103 375 321 serial 0;
#X obj 73 169 until;
#X obj 86 252 list store;
#X obj 88 122 t b b l;
#X obj 73 194 f;
#X obj 111 195 + 1;
#X msg 130 169 0, f 2;
#X msg 73 225 get \$1 1;
#X obj 93 81 inlet;
#X msg 73 144 5;
#X obj 86 275 outlet;
#X connect 0 0 3 0;
#X connect 1 0 9 0;
#X connect 1 1 0 1;
#X connect 2 0 8 0;
#X connect 2 1 5 0;
#X connect 2 2 1 1;
#X connect 3 0 4 0;
#X connect 3 0 6 0;
#X connect 4 0 3 1;
#X connect 5 0 3 1;
#X connect 6 0 1 0;
#X connect 7 0 2 0;
#X connect 8 0 0 0;
#X restore 91 113 pd serial;
#X obj 21 80 t b a b, f 24;
#X obj 91 160 f;
#X obj 91 136 t b a;
#X obj 91 182 +;
#X msg 162 138 0;
#X obj 91 205 t a a;
#X obj 21 226 f;
#X obj 21 249 mod 256;
#X obj 21 272 outlet;
#X connect 0 0 1 0;
#X connect 1 0 2 0;
#X connect 2 0 4 0;
#X connect 3 0 6 0;
#X connect 4 0 10 0;
#X connect 4 1 3 0;
#X connect 4 2 8 0;
#X connect 5 0 7 0;
#X connect 6 0 5 0;
#X connect 6 1 7 1;
#X connect 7 0 9 0;
#X connect 8 0 5 1;
#X connect 9 0 10 1;
#X connect 9 1 5 1;
#X connect 10 0 11 0;
#X connect 11 0 12 0;
#X restore 615 165 pd generate_id;
#X obj 596 194 list append;
#X connect 0 0 50 0;
#X connect 1 0 0 1;
#X connect 2 0 0 0;
#X connect 4 0 8 0;
#X connect 5 0 19 0;
#X connect 6 0 3 0;
#X connect 8 0 7 1;
#X connect 9 0 10 0;
#X connect 10 0 11 0;
#X connect 11 0 12 0;
#X connect 12 0 14 0;
#X connect 14 0 13 0;
#X connect 15 0 21 0;
#X connect 17 0 14 1;
#X connect 17 0 10 1;
#X connect 18 0 38 0;
#X connect 19 0 20 0;
#X connect 19 1 9 0;
#X connect 19 2 7 0;
#X connect 20 0 18 0;
#X connect 21 0 16 0;
#X connect 23 0 24 0;
#X connect 24 0 28 0;
#X connect 24 1 29 0;
#X connect 25 0 30 0;
#X connect 26 0 22 0;
#X connect 27 0 22 0;
#X connect 28 0 26 0;
#X connect 29 0 27 0;
#X connect 30 0 28 0;
#X connect 30 1 31 0;
#X connect 31 0 32 0;
#X connect 32 0 29 1;
#X connect 32 0 28 1;
#X connect 33 0 29 0;
#X connect 34 0 5 0;
#X connect 35 0 36 0;
#X connect 36 0 37 0;
#X connect 39 0 40 0;
#X connect 41 0 43 0;
#X connect 43 0 42 0;
#X connect 44 0 55 0;
#X connect 45 0 46 0;
#X connect 46 0 47 0;
#X connect 47 0 48 0;
#X connect 48 0 44 0;
#X connect 50 0 49 0;
#X connect 50 1 51 0;
#X connect 51 0 49 0;
#X connect 52 0 54 1;
#X connect 53 0 54 0;
#X connect 54 1 39 0;
#X connect 55 0 57 0;
#X connect 55 1 56 0;
#X connect 55 2 53 0;
#X connect 56 0 57 1;
#X connect 57 0 34 0;
#X restore 8 220 pd chat.code;
#N canvas 667 381 623 572 latency.code 0;
#X obj 75 122 osc~;
#X obj 75 248 *~;
#X obj 12 51 t b b;
#X obj 75 98 vline~;
#X obj 74 379 sigmund~ -npts 4096 -hop 1024 pitch;
#X obj 74 400 mtof;
#X obj 12 451 f;
#X text 165 144 -6dB;
#X obj 74 272 lop~ 4000;
#X obj 74 302 lop~ 4000;
#X obj 74 329 lop~ 4000;
#X obj 74 359 lop~ 4000;
#X obj 112 221 dac~ 65;
#X obj 343 107 t a a;
#X obj 343 128 div 8;
#X obj 383 128 mod 8;
#X obj 343 181 pack f f;
#X msg 343 202 set \$1.channel.\$2;
#X obj 343 296 env~ 8192 8192;
#X obj 343 320 int;
#X obj 343 341 makefilename %3d;
#X msg 343 363 label \$1dB;
#X obj 343 386 s \$1.lat.ret.level;
#X obj 12 7 r \$1.latency.measurement.state;
#X obj 343 63 r \$1.lat.ret.ch;
#X obj 129 121 r \$1.latency.measurement.state;
#X obj 75 173 *~ 0;
#X obj 129 142 * 0.5;
#X msg 312 507 vis 1;
#X obj 312 486 r \$1.display.latency;
#X obj 312 530 s pd-latency;
#X obj 12 30 metro 1000;
#X obj 12 429 delay 900;
#N canvas 1484 862 757 449 latency.display 0;
#X obj 35 200 int;
#X msg 35 243 label \$1ms;
#X obj 35 266 s \$1.latency.label;
#X obj 35 221 makefilename %3d;
#X obj 228 106 r \$1.latency.measurement.state;
#X msg 228 202 color -1 -1 \$1;
#X obj 228 127 - 1;
#X obj 228 176 f;
#X obj 35 22 inlet;
#X obj 35 43 t a b b;
#X obj 456 29 inlet;
#X obj 553 96 * 1.01;
#X obj 510 96 * 0.99;
#X obj 483 130 moses;
#X obj 510 152 moses;
#X obj 510 68 f;
#X obj 510 34 r \$1.lat.range.reset;
#X obj 456 75 sel 0;
#X obj 589 242 s \$1.lat.range.reset;
#X obj 562 216 t b a;
#X obj 510 243 t a b;
#X obj 537 279 f;
#X obj 588 296 + 1;
#X obj 537 304 t a a;
#X msg 562 248 0;
#X msg 537 366 0;
#X msg 582 367 1;
#X obj 127 161 f 13;
#X obj 537 392 s \$1.lat.mes.valid;
#X obj 211 265 r \$1.lat.mes.valid;
#X obj 211 286 sel 0 1;
#X msg 211 311 13;
#X msg 240 310 16;
#X obj 160 140 del 300;
#X obj 537 345 moses 20;
#X obj 35 147 - 20;
#X obj 35 172 max 0;
#X connect 0 0 3 0;
#X connect 1 0 2 0;
#X connect 3 0 1 0;
#X connect 4 0 6 0;
#X connect 5 0 2 0;
#X connect 6 0 7 0;
#X connect 7 0 5 0;
#X connect 8 0 9 0;
#X connect 9 0 35 0;
#X connect 9 1 27 0;
#X connect 9 2 33 0;
#X connect 10 0 17 0;
#X connect 11 0 14 1;
#X connect 12 0 13 1;
#X connect 13 0 19 0;
#X connect 13 1 14 0;
#X connect 14 0 20 0;
#X connect 14 1 19 0;
#X connect 15 0 12 0;
#X connect 15 0 11 0;
#X connect 16 0 15 0;
#X connect 17 1 13 0;
#X connect 19 0 24 0;
#X connect 19 1 18 0;
#X connect 20 1 21 0;
#X connect 21 0 23 0;
#X connect 22 0 21 1;
#X connect 23 0 34 0;
#X connect 23 1 22 0;
#X connect 24 0 21 0;
#X connect 25 0 28 0;
#X connect 26 0 28 0;
#X connect 27 0 5 0;
#X connect 29 0 30 0;
#X connect 30 0 31 0;
#X connect 30 1 32 0;
#X connect 31 0 27 1;
#X connect 32 0 27 1;
#X connect 33 0 7 0;
#X connect 34 0 25 0;
#X connect 34 1 26 0;
#X connect 35 0 36 0;
#X connect 36 0 0 0;
#X restore 12 525 pd latency.display;
#X obj 226 416 r \$1.latency.measurement.state;
#X obj 226 437 sel 0;
#X msg 226 458 stop;
#X obj 75 54 f;
#X msg 75 77 1000 \, 9000 \$1;
#N canvas 658 352 284 188 sample.period 0;
#X obj 91 29 loadbang;
#X msg 91 50 1;
#X obj 91 71 s \$1.lat.period.r;
#X obj 91 92 r \$1.lat.period;
#X obj 91 113 * 1000;
#X obj 91 134 outlet;
#X connect 0 0 1 0;
#X connect 1 0 2 0;
#X connect 3 0 4 0;
#X connect 4 0 5 0;
#X restore 151 39 pd sample.period;
#N canvas 658 406 284 188 sample.period 0;
#X obj 88 12 r \$1.lat.period;
#X obj 59 159 outlet;
#X obj 20 33 inlet;
#X obj 59 125 *;
#X obj 39 85 f;
#X obj 20 54 t b b a;
#X obj 88 59 / 8;
#X obj 88 33 t a a;
#X obj 147 101 * 1000;
#X obj 147 122 - 100;
#X obj 147 143 outlet;
#X connect 0 0 7 0;
#X connect 2 0 5 0;
#X connect 3 0 1 0;
#X connect 4 0 3 1;
#X connect 5 0 8 0;
#X connect 5 1 4 0;
#X connect 5 2 3 0;
#X connect 6 0 4 1;
#X connect 7 0 6 0;
#X connect 7 1 8 1;
#X connect 8 0 9 0;
#X connect 9 0 10 0;
#X restore 12 485 pd sample.period;
#X obj 343 151 + 1;
#X obj 201 226 s~ 0.channel.0;
#X obj 383 151 + 1;
#X obj 343 86 - 1;
#X obj 156 174 r \$1.latency.outchannel;
#X msg 156 197 set \$1;
#X obj 426 93 r \$1.maxchannels;
#X obj 473 213 s \$1.lat.ret.ch.r;
#X obj 473 141 r \$1.latency.outchannel;
#X obj 473 164 - 1;
#X msg 473 188 range 1 \$1;
#X obj 343 225 r~ 1.channel.1;
#X obj 343 249 delwrite~ \$0.offset 20;
#X obj 343 272 delread~ \$0.offset 20;
#X connect 0 0 26 0;
#X connect 1 0 8 0;
#X connect 2 0 32 0;
#X connect 2 1 37 0;
#X connect 3 0 0 0;
#X connect 4 0 5 0;
#X connect 5 0 6 1;
#X connect 5 0 33 1;
#X connect 6 0 40 0;
#X connect 8 0 9 0;
#X connect 9 0 10 0;
#X connect 10 0 11 0;
#X connect 11 0 4 0;
#X connect 13 0 14 0;
#X connect 13 1 15 0;
#X connect 14 0 41 0;
#X connect 15 0 43 0;
#X connect 16 0 17 0;
#X connect 17 0 52 0;
#X connect 18 0 19 0;
#X connect 19 0 20 0;
#X connect 20 0 21 0;
#X connect 21 0 22 0;
#X connect 23 0 31 0;
#X connect 24 0 44 0;
#X connect 25 0 27 0;
#X connect 26 0 1 0;
#X connect 26 0 12 0;
#X connect 27 0 26 1;
#X connect 28 0 30 0;
#X connect 29 0 28 0;
#X connect 31 0 2 0;
#X connect 32 0 6 0;
#X connect 34 0 35 0;
#X connect 35 0 36 0;
#X connect 36 0 32 0;
#X connect 37 0 38 0;
#X connect 38 0 3 0;
#X connect 39 0 31 1;
#X connect 39 0 37 1;
#X connect 40 0 33 0;
#X connect 40 1 32 1;
#X connect 41 0 16 0;
#X connect 43 0 16 1;
#X connect 44 0 13 0;
#X connect 45 0 46 0;
#X connect 46 0 12 0;
#X connect 47 0 15 1;
#X connect 47 0 14 1;
#X connect 49 0 50 0;
#X connect 50 0 51 0;
#X connect 51 0 48 0;
#X connect 52 0 53 0;
#X connect 54 0 1 1;
#X connect 54 0 18 0;
#X restore 8 280 pd latency.code;
#N canvas 41 537 1034 543 messages.code 0;
#X obj 420 74 print TPF_ERROR;
#X msg 17 102 vis 1;
#X obj 216 28 text define \$1.msgs;
#X obj 612 264 loadbang;
#X obj 518 263 list;
#X msg 612 284 0;
#X obj 537 357 - 30;
#X obj 537 378 max 0;
#X obj 537 400 until;
#X obj 537 421 f 30;
#X obj 809 20 loadbang;
#X msg 518 491 totalsize \$1;
#X obj 518 285 t b b a;
#X obj 809 83 s \$1.msgs.buffer;
#X obj 615 397 r \$1.msgs.buffer;
#X obj 557 312 text insert \$1.msgs;
#X obj 537 336 text size \$1.msgs;
#X obj 537 444 text delete \$1.msgs;
#X obj 518 467 text size \$1.msgs;
#X obj 518 516 s \$1.scb.msgs.r;
#X obj 17 81 r \$1.display.messages;
#X obj 393 28 r \$1.error;
#X obj 518 30 r \$1.warning;
#X obj 660 27 r \$1.info;
#X obj 687 82 print TPF_INFO;
#X obj 393 49 t a a;
#X obj 518 56 t a a;
#X obj 545 81 print TPF_WARN;
#X obj 660 48 t a a;
#X msg 809 41 300;
#X obj 393 102 list prepend ERROR;
#X obj 518 105 list prepend WARNING;
#X obj 660 106 list prepend INFO;
#X obj 518 159 list split 1;
#N canvas 789 242 443 595 list2symbol 0;
#X obj 168 149 until;
#X obj 168 231 list store;
#X obj 168 174 f;
#X obj 206 175 + 1;
#X msg 222 147 0, f 2;
#X obj 168 122 t b b a;
#X msg 168 203 get \$1 1;
#X obj 166 298 list fromsymbol;
#X obj 167 253 list append;
#X msg 166 276 symbol \$1\$2;
#X obj 297 168 loadbang;
#X msg 297 199 symbol;
#X obj 166 339 list prepend append;
#X obj 166 360 list trim;
#X obj 72 394 list store;
#X obj 166 319 list append 32;
#X obj 68 64 t b b a;
#X obj 72 415 list tosymbol;
#X obj 68 43 list;
#X obj 72 436 outlet;
#X obj 68 21 inlet;
#X connect 0 0 2 0;
#X connect 1 0 8 0;
#X connect 1 1 0 1;
#X connect 2 0 3 0;
#X connect 2 0 6 0;
#X connect 3 0 2 1;
#X connect 4 0 2 1;
#X connect 5 0 0 0;
#X connect 5 1 4 0;
#X connect 5 2 1 1;
#X connect 6 0 1 0;
#X connect 7 0 15 0;
#X connect 8 0 9 0;
#X connect 9 0 7 0;
#X connect 10 0 11 0;
#X connect 11 0 8 1;
#X connect 12 0 13 0;
#X connect 13 0 14 0;
#X connect 14 0 17 0;
#X connect 15 0 12 0;
#X connect 16 0 14 1;
#X connect 16 1 14 0;
#X connect 16 2 5 0;
#X connect 17 0 19 0;
#X connect 18 0 16 0;
#X connect 20 0 18 0;
#X restore 552 183 pd list2symbol;
#X obj 518 213 list append;
#X obj 518 234 list append -1;
#X obj 393 123 t a b;
#X obj 518 126 t a b;
#X obj 660 127 t a b;
#X msg 675 195 -1;
#X msg 716 194 -2;
#X msg 743 193 -4;
#X msg 318 242 color 255 128 128;
#X obj 318 263 s \$1.display.messages.r;
#X obj 17 123 s pd-messages;
#X connect 1 0 45 0;
#X connect 3 0 5 0;
#X connect 4 0 12 0;
#X connect 5 0 15 1;
#X connect 6 0 7 0;
#X connect 7 0 8 0;
#X connect 8 0 9 0;
#X connect 9 0 17 0;
#X connect 10 0 29 0;
#X connect 11 0 19 0;
#X connect 12 0 18 0;
#X connect 12 1 16 0;
#X connect 12 2 15 0;
#X connect 14 0 9 1;
#X connect 14 0 6 1;
#X connect 16 0 6 0;
#X connect 18 0 11 0;
#X connect 20 0 1 0;
#X connect 21 0 25 0;
#X connect 22 0 26 0;
#X connect 23 0 28 0;
#X connect 25 0 30 0;
#X connect 25 1 0 0;
#X connect 26 0 31 0;
#X connect 26 1 27 0;
#X connect 28 0 32 0;
#X connect 28 1 24 0;
#X connect 29 0 13 0;
#X connect 30 0 37 0;
#X connect 31 0 38 0;
#X connect 32 0 39 0;
#X connect 33 0 35 0;
#X connect 33 1 34 0;
#X connect 34 0 35 1;
#X connect 35 0 36 0;
#X connect 36 0 4 0;
#X connect 37 0 33 0;
#X connect 37 1 40 0;
#X connect 37 1 43 0;
#X connect 38 0 33 0;
#X connect 38 1 41 0;
#X connect 39 0 33 0;
#X connect 39 1 42 0;
#X connect 40 0 36 1;
#X connect 41 0 36 1;
#X connect 42 0 36 1;
#X connect 43 0 44 0;
#X restore 8 250 pd messages.code;
#N canvas 219 132 984 519 settings.code 0;
#X msg 20 80 vis 1;
#X obj 31 57 r \$1.display.settings;
#X obj 20 101 s pd-settings;
#X obj 22 132 r \$1.name;
#X msg 22 155 label \$1;
#X obj 22 178 s \$1.name.display.r;
#X obj 22 219 r \$1.host;
#X obj 88 220 r \$1.room;
#X obj 22 267 pack s s;
#X obj 88 243 t b a;
#X msg 22 290 label \$1/\$2;
#X obj 22 313 s \$1.connection.display.r;
#X obj 20 9 r \$1.show.settings;
#X obj 20 32 sel;
#X obj 48 32 t a;
#X msg 458 298 label Save*;
#X obj 458 322 s \$1.save.r;
#N canvas 518 290 522 552 save.settings 0;
#X obj 11 17 r \$1.save.s;
#X msg 11 167 label Save;
#X obj 11 190 s \$1.save.r;
#X msg 248 315 fetch_settings;
#X obj 248 372 s \$1.intercom;
#X obj 248 395 r \$1.intercom;
#X obj 248 419 route save_settings;
#X msg 358 217 clear;
#X obj 248 503 text set \$1.settings;
#X obj 248 477 list;
#X obj 307 450 loadbang;
#X msg 307 473 1e+15;
#X obj 11 40 t b b;
#X obj 139 191 t b a b b b, f 37;
#X msg 193 233 write -c \$1;
#X obj 193 263 outlet;
#X obj 335 18 r \$1.save.to.s;
#X obj 335 67 savepanel;
#X msg 38 75 symbol ../default_settings.cnf;
#X msg 335 44 symbol ..;
#X obj 248 339 t a a;
#X obj 88 384 outlet;
#X connect 0 0 12 0;
#X connect 1 0 2 0;
#X connect 3 0 20 0;
#X connect 5 0 6 0;
#X connect 6 0 9 0;
#X connect 7 0 15 0;
#X connect 9 0 8 0;
#X connect 10 0 11 0;
#X connect 11 0 8 1;
#X connect 12 0 1 0;
#X connect 12 1 18 0;
#X connect 13 1 14 0;
#X connect 13 2 3 0;
#X connect 13 4 7 0;
#X connect 14 0 15 0;
#X connect 16 0 19 0;
#X connect 17 0 13 0;
#X connect 18 0 13 0;
#X connect 19 0 17 0;
#X connect 20 0 4 0;
#X connect 20 1 21 0;
#X restore 334 8 pd save.settings;
#N canvas 20 259 533 498 load.settings 0;
#X obj 58 27 r \$1.load.settings;
#X obj 58 333 text get \$1.settings;
#X obj 58 262 until;
#X obj 58 239 t a b, f 8;
#X obj 58 285 f;
#X msg 103 263 0;
#X obj 58 308 t a a;
#X obj 107 301 + 1;
#X obj 58 382 list trim;
#X obj 85 436 s \$1.intercom;
#X obj 283 23 r \$1.load.from.s;
#X obj 310 95 openpanel;
#X msg 310 70 symbol ..;
#X msg 85 74 symbol ../default_settings.cnf;
#X obj 58 359 list prepend restore_settings;
#X obj 58 405 t a a;
#X obj 58 461 outlet;
#X obj 58 50 t b b;
#X obj 58 144 f;
#X obj 85 97 s \$0.load.settings.file;
#X obj 84 118 r \$0.settings.file.size;
#X obj 283 46 t b b;
#X obj 283 169 f;
#X obj 310 122 s \$0.load.settings.file;
#X obj 309 143 r \$0.settings.file.size;
#X connect 0 0 17 0;
#X connect 1 0 14 0;
#X connect 2 0 4 0;
#X connect 3 0 2 0;
#X connect 3 1 5 0;
#X connect 4 0 6 0;
#X connect 5 0 4 1;
#X connect 6 0 1 0;
#X connect 6 1 7 0;
#X connect 7 0 4 1;
#X connect 8 0 15 0;
#X connect 10 0 21 0;
#X connect 11 0 23 0;
#X connect 12 0 11 0;
#X connect 13 0 19 0;
#X connect 14 0 8 0;
#X connect 15 0 16 0;
#X connect 15 1 9 0;
#X connect 17 0 18 0;
#X connect 17 1 13 0;
#X connect 18 0 3 0;
#X connect 20 0 18 1;
#X connect 21 0 22 0;
#X connect 21 1 12 0;
#X connect 22 0 3 0;
#X connect 24 0 22 1;
#X restore 444 8 pd load.settings;
#X obj 427 97 text define \$1.settings;
#X obj 458 243 r \$1.intercom;
#X obj 426 127 r \$1.reset.s;
#X msg 426 150 reset;
#X obj 426 173 s \$1.intercom;
#X obj 195 50 tpf-settings-param \$1 host;
#X obj 195 71 tpf-settings-param \$1 room;
#X obj 195 91 tpf-settings-param \$1 name;
#X obj 195 111 tpf-settings-param \$1 port;
#X obj 195 171 tpf-settings-param \$1 channels;
#X obj 195 191 tpf-settings-param \$1 codec;
#X obj 195 211 tpf-settings-param \$1 blocksize;
#X obj 195 231 tpf-settings-param \$1 bitdepth;
#X obj 195 251 tpf-settings-param \$1 packetsize;
#X obj 195 271 tpf-settings-param \$1 framesize;
#X obj 195 291 tpf-settings-param \$1 quality;
#X obj 195 311 tpf-settings-param \$1 bitrate;
#X obj 195 331 tpf-settings-param \$1 signal;
#X obj 195 351 tpf-settings-param \$1 usage;
#X obj 458 266 route peer_swap_response modified_flag;
#X msg 784 74 clear;
#X msg 731 96 read -c \$1;
#X obj 679 45 t b a b, f 18;
#X obj 679 163 text size \$1.settings;
#X obj 679 186 s \$0.settings.file.size;
#X obj 679 11 r \$0.load.settings.file;
#X obj 731 124 t a;
#N canvas 553 658 439 342 save.layout 0;
#X obj 9 7 inlet;
#X obj 46 86 r \$1.maxchannels;
#X msg 71 114 set \$1;
#X obj 71 139 s \$1.maxchannels.gui.r;
#X obj 43 61 r \$1.maxchannels.gui.s;
#X obj 25 136 t a;
#X obj 9 171 f;
#X msg 296 118 set \$1;
#X obj 250 140 t a;
#X obj 234 175 f;
#X obj 268 65 r \$1.maxrows.gui.s;
#X obj 271 90 r \$1.maxrows;
#X obj 296 143 s \$1.maxrows.gui.r;
#X obj 9 239 list prepend save_settings;
#X obj 9 262 list trim;
#X obj 9 285 s \$1.intercom;
#X obj 9 35 t b b, f 38;
#X msg 9 197 layout maxchannels \$1;
#X msg 234 199 layout maxrows \$1;
#X obj 240 296 s \$1.intercom;
#X msg 240 270 modified_flag;
#X connect 0 0 16 0;
#X connect 1 0 2 0;
#X connect 1 0 5 0;
#X connect 2 0 3 0;
#X connect 4 0 5 0;
#X connect 4 0 20 0;
#X connect 5 0 6 1;
#X connect 6 0 17 0;
#X connect 7 0 12 0;
#X connect 8 0 9 1;
#X connect 9 0 18 0;
#X connect 10 0 8 0;
#X connect 10 0 20 0;
#X connect 11 0 7 0;
#X connect 11 0 8 0;
#X connect 13 0 14 0;
#X connect 14 0 15 0;
#X connect 16 0 6 0;
#X connect 16 1 9 0;
#X connect 17 0 13 0;
#X connect 18 0 13 0;
#X connect 20 0 19 0;
#X restore 195 465 pd save.layout;
#X obj 195 131 tpf-settings-param \$1 callback;
#X obj 195 151 tpf-settings-param \$1 audiobuf;
#N canvas 1022 496 464 524 jack.params 0;
#X obj 42 24 r \$1.audiobuf.s;
#X obj 42 73 s \$1.audiobuf;
#X obj 252 486 s \$1.audiobuf.label;
#X obj 42 464 s \$1.callback.label;
#X obj 41 205 r \$1.callback.click;
#X msg 42 399 symbol #909090;
#X msg 42 426 color #ffffff #ffffff \$1;
#X msg 139 399 symbol #000000;
#X msg 271 408 symbol #909090;
#X msg 252 456 color #ffffff #ffffff \$1;
#X msg 252 431 symbol #000000;
#X obj 41 228 sel;
#X obj 67 229 t a;
#X obj 182 226 makefilename %3d;
#X msg 182 259 label \$1;
#X obj 66 253 r \$1.callback;
#X obj 41 253 f;
#X obj 41 277 == 0;
#X obj 41 300 s \$1.callback;
#X obj 42 348 r \$1.callback;
#X obj 42 371 sel 0 1;
#X obj 252 361 r \$1.callback;
#X obj 252 384 sel 0 1;
#X obj 182 25 r \$1.audiobuf;
#X obj 237 106 r \$1.callback;
#X obj 237 129 t a a;
#X obj 237 152 == 0;
#X obj 182 172 spigot 1;
#X obj 271 154 sel 0 1;
#X msg 300 187 0;
#X obj 182 48 t a a;
#X obj 271 184 f;
#X obj 42 48 spigot 1;
#X obj 182 285 s \$1.audiobuf.label;
#X obj 42 159 s \$1.audiobuf.r;
#X msg 42 135 set \$1;
#X obj 42 106 r \$1.audiobuf;
#X connect 0 0 32 0;
#X connect 4 0 11 0;
#X connect 5 0 6 0;
#X connect 6 0 3 0;
#X connect 7 0 6 0;
#X connect 8 0 9 0;
#X connect 9 0 2 0;
#X connect 10 0 9 0;
#X connect 11 0 16 0;
#X connect 11 1 12 0;
#X connect 12 0 11 1;
#X connect 13 0 14 0;
#X connect 14 0 33 0;
#X connect 15 0 16 1;
#X connect 16 0 17 0;
#X connect 17 0 18 0;
#X connect 19 0 20 0;
#X connect 20 0 5 0;
#X connect 20 1 7 0;
#X connect 21 0 22 0;
#X connect 22 0 10 0;
#X connect 22 1 8 0;
#X connect 23 0 30 0;
#X connect 24 0 25 0;
#X connect 25 0 26 0;
#X connect 25 1 28 0;
#X connect 26 0 27 1;
#X connect 26 0 32 1;
#X connect 27 0 13 0;
#X connect 28 0 31 0;
#X connect 28 1 29 0;
#X connect 29 0 13 0;
#X connect 30 0 27 0;
#X connect 30 1 31 1;
#X connect 31 0 13 0;
#X connect 31 0 35 0;
#X connect 32 0 1 0;
#X connect 35 0 34 0;
#X connect 36 0 35 0;
#X restore 656 359 pd jack.params;
#X obj 195 371 tpf-settings-param \$1 ardour.enable;
#X obj 195 391 tpf-settings-param \$1 ardour.jack;
#X obj 195 411 tpf-settings-param \$1 ardour.hide;
#X obj 195 431 tpf-settings-param \$1 ardour.strips;
#X connect 0 0 2 0;
#X connect 1 0 0 0;
#X connect 3 0 4 0;
#X connect 4 0 5 0;
#X connect 6 0 8 0;
#X connect 7 0 9 0;
#X connect 8 0 10 0;
#X connect 9 0 8 0;
#X connect 9 1 8 1;
#X connect 10 0 11 0;
#X connect 12 0 13 0;
#X connect 13 0 0 0;
#X connect 13 1 14 0;
#X connect 14 0 13 1;
#X connect 15 0 16 0;
#X connect 17 0 24 0;
#X connect 17 1 19 0;
#X connect 18 0 24 0;
#X connect 20 0 38 0;
#X connect 21 0 22 0;
#X connect 22 0 23 0;
#X connect 24 0 25 0;
#X connect 25 0 26 0;
#X connect 26 0 27 0;
#X connect 27 0 47 0;
#X connect 28 0 29 0;
#X connect 29 0 30 0;
#X connect 30 0 31 0;
#X connect 31 0 32 0;
#X connect 32 0 33 0;
#X connect 33 0 34 0;
#X connect 34 0 35 0;
#X connect 35 0 36 0;
#X connect 36 0 37 0;
#X connect 37 0 50 0;
#X connect 38 0 15 0;
#X connect 38 1 15 0;
#X connect 39 0 45 0;
#X connect 40 0 45 0;
#X connect 41 0 42 0;
#X connect 41 1 40 0;
#X connect 41 2 39 0;
#X connect 42 0 43 0;
#X connect 44 0 41 0;
#X connect 45 0 19 0;
#X connect 47 0 48 0;
#X connect 48 0 28 0;
#X connect 50 0 51 0;
#X connect 51 0 52 0;
#X connect 52 0 53 0;
#X connect 53 0 46 0;
#X restore 8 160 pd settings.code;
#N canvas 220 217 559 377 peers 0;
#X obj 23 22 r \$1.receive;
#X obj 23 45 route peer_join;
#X obj 209 27 r \$1.receive;
#X obj 209 50 route peer_leave;
#X obj 23 69 list;
#X msg 23 92 symbol \$2;
#X msg 87 143 peer_reclaim \$1;
#X obj 87 170 s \$1.intercom;
#X obj 23 118 t a a b, f 22;
#X msg 156 244 1;
#X obj 23 272 spigot 0;
#X obj 68 198 r \$1.intercom;
#X obj 68 221 route peer_reclaimed;
#X msg 68 244 0;
#X msg 23 297 peer_new 1 \$1;
#X obj 23 323 s \$1.intercom;
#X obj 209 75 list;
#X msg 209 102 peer_leave \$2;
#X obj 209 129 s \$1.intercom;
#X obj 346 27 r \$1.connection.state;
#X obj 346 50 sel 0;
#X msg 346 73 peer_leave_all;
#X obj 346 99 s \$1.intercom;
#X connect 0 0 1 0;
#X connect 1 0 4 0;
#X connect 2 0 3 0;
#X connect 3 0 16 0;
#X connect 4 0 5 0;
#X connect 5 0 8 0;
#X connect 6 0 7 0;
#X connect 8 0 10 0;
#X connect 8 1 6 0;
#X connect 8 2 9 0;
#X connect 9 0 10 1;
#X connect 10 0 14 0;
#X connect 11 0 12 0;
#X connect 12 0 13 0;
#X connect 13 0 10 1;
#X connect 14 0 15 0;
#X connect 16 0 17 0;
#X connect 17 0 18 0;
#X connect 19 0 20 0;
#X connect 20 0 21 0;
#X connect 21 0 22 0;
#X restore 8 100 pd peers;
#N canvas 814 162 784 497 format.code 0;
#X obj 21 408 r \$1.packetsize;
#N canvas 0 103 422 444 pcm.format 0;
#X obj 80 108 r \$1.blocksize;
#X text 191 375 ch bs sr bd;
#X obj 190 155 r \$1.bitdepth;
#X obj 190 178 / 8;
#X obj 52 257 pack f f f f, f 28;
#X obj 52 234 f;
#X obj 80 131 t b a;
#X obj 135 158 t b a;
#X obj 52 207 del 0;
#X obj 63 87 t b a;
#X obj 190 201 t b a;
#X obj 11 14 r \$1.codec;
#X obj 11 73 sel pcm;
#X obj 52 348 spigot 0;
#X obj 97 288 sel pcm;
#X msg 97 313 1;
#X msg 136 314 0;
#X msg 52 376 format pcm \$1 \$2 \$3 \$4;
#X obj 52 399 outlet;
#X obj 135 132 samplerate~;
#X obj 11 40 t a a b;
#X obj 85 15 r \$1.channels;
#X obj 100 37 r \$1.maxchannels;
#X obj 85 61 min;
#X connect 0 0 6 0;
#X connect 2 0 3 0;
#X connect 3 0 10 0;
#X connect 4 0 13 0;
#X connect 5 0 4 0;
#X connect 6 0 8 0;
#X connect 6 1 4 1;
#X connect 7 0 8 0;
#X connect 7 1 4 2;
#X connect 8 0 5 0;
#X connect 9 0 8 0;
#X connect 9 1 5 1;
#X connect 10 0 8 0;
#X connect 10 1 4 3;
#X connect 11 0 20 0;
#X connect 12 0 8 0;
#X connect 13 0 17 0;
#X connect 14 0 15 0;
#X connect 14 1 16 0;
#X connect 15 0 13 1;
#X connect 16 0 13 1;
#X connect 17 0 18 0;
#X connect 19 0 7 0;
#X connect 20 0 12 0;
#X connect 20 1 14 0;
#X connect 20 2 19 0;
#X connect 21 0 23 0;
#X connect 22 0 23 1;
#X connect 23 0 9 0;
#X restore 14 29 pd pcm.format;
#N canvas 0 103 422 444 opus.format 0;
#X obj 52 234 f;
#X obj 80 131 t b a;
#X obj 135 158 t b a;
#X obj 52 207 del 0;
#X obj 63 87 t b a;
#X obj 190 181 t b a;
#X obj 11 14 r \$1.codec;
#X obj 52 348 spigot 0;
#X msg 97 313 1;
#X msg 136 314 0;
#X obj 52 399 outlet;
#X text 203 375 ch fs sr us;
#X obj 190 155 r \$1.usage;
#X obj 52 257 pack f f f s, f 28;
#X obj 11 72 sel opus;
#X obj 97 288 sel opus;
#X obj 80 108 r \$1.framesize;
#X msg 52 376 format opus \$1 \$2 \$3 \$4;
#X obj 11 40 t a a b;
#X obj 135 132 samplerate~;
#X obj 85 15 r \$1.channels;
#X obj 100 37 r \$1.maxchannels;
#X obj 85 61 min;
#X connect 0 0 13 0;
#X connect 1 0 3 0;
#X connect 1 1 13 1;
#X connect 2 0 3 0;
#X connect 2 1 13 2;
#X connect 3 0 0 0;
#X connect 4 0 3 0;
#X connect 4 1 0 1;
#X connect 5 0 3 0;
#X connect 5 1 13 3;
#X connect 6 0 18 0;
#X connect 7 0 17 0;
#X connect 8 0 7 1;
#X connect 9 0 7 1;
#X connect 12 0 5 0;
#X connect 13 0 7 0;
#X connect 14 0 3 0;
#X connect 15 0 8 0;
#X connect 15 1 9 0;
#X connect 16 0 1 0;
#X connect 17 0 10 0;
#X connect 18 0 14 0;
#X connect 18 1 15 0;
#X connect 18 2 19 0;
#X connect 19 0 2 0;
#X connect 20 0 22 0;
#X connect 21 0 22 1;
#X connect 22 0 4 0;
#X restore 124 30 pd opus.format;
#X obj 148 116 r \$1.quality;
#X obj 426 29 r \$1.bitrate;
#X obj 243 121 r \$1.signal;
#X obj 404 236 list;
#X obj 426 209 t b a;
#X msg 404 261 bitrate \$1;
#X obj 223 146 symbol;
#X msg 223 169 signal \$1;
#X obj 124 148 f;
#X msg 124 171 complexity \$1;
#X obj 124 237 list prepend codec_set;
#X obj 124 260 list trim;
#X obj 124 53 t b b b a, f 27;
#X obj 124 319 spigot 0;
#X obj 283 77 t b a;
#X msg 282 283 1;
#X obj 14 52 t a b;
#X msg 41 262 0;
#X obj 426 178 *;
#X obj 578 31 r \$1.channels;
#X obj 438 150 t b a;
#X obj 14 342 s \$1.to.aoo.s;
#X obj 124 344 s \$1.to.aoo.s;
#X obj 21 457 s \$1.to.aoo.s;
#X obj 310 99 s \$1.to.aoo.s;
#X obj 373 324 r \$1.send;
#X obj 373 347 route port;
#X obj 373 395 s \$1.to.aoo.s;
#X msg 373 370 port \$1;
#X msg 21 431 packetsize \$1 \, start;
#X obj 426 52 route float;
#X obj 489 75 t a b;
#X obj 426 75 t a b;
#X obj 450 127 spigot;
#X msg 516 98 0;
#X msg 453 98 1;
#X obj 593 53 r \$1.maxchannels;
#X obj 578 87 min;
#X connect 0 0 32 0;
#X connect 1 0 19 0;
#X connect 2 0 15 0;
#X connect 3 0 11 0;
#X connect 4 0 33 0;
#X connect 5 0 9 0;
#X connect 6 0 8 0;
#X connect 7 0 6 0;
#X connect 7 1 6 1;
#X connect 8 0 13 0;
#X connect 9 0 10 0;
#X connect 10 0 13 0;
#X connect 11 0 12 0;
#X connect 12 0 13 0;
#X connect 13 0 14 0;
#X connect 14 0 16 0;
#X connect 15 0 11 0;
#X connect 15 1 9 0;
#X connect 15 2 6 0;
#X connect 15 3 17 0;
#X connect 16 0 25 0;
#X connect 17 0 18 0;
#X connect 17 1 27 0;
#X connect 18 0 16 1;
#X connect 19 0 24 0;
#X connect 19 1 20 0;
#X connect 20 0 16 1;
#X connect 21 0 7 0;
#X connect 22 0 40 0;
#X connect 23 0 21 0;
#X connect 23 1 21 1;
#X connect 28 0 29 0;
#X connect 29 0 31 0;
#X connect 31 0 30 0;
#X connect 32 0 26 0;
#X connect 33 0 35 0;
#X connect 33 1 34 0;
#X connect 34 0 7 0;
#X connect 34 1 37 0;
#X connect 35 0 21 0;
#X connect 35 1 38 0;
#X connect 36 0 23 0;
#X connect 37 0 36 1;
#X connect 38 0 36 1;
#X connect 39 0 40 1;
#X connect 40 0 36 0;
#X restore 8 190 pd format.code;
#N canvas 0 103 315 313 info 0;
#X obj 12 57 list;
#X obj 12 80 list append;
#X obj 73 59 list;
#X obj 12 128 s \$1.info;
#X obj 17 212 list;
#X obj 17 259 s \$1.info;
#X obj 12 11 r \$1.from.aoo.s;
#X obj 17 166 r \$1.from.aoo.s;
#X obj 12 34 route add format;
#X obj 17 189 route remove;
#X msg 17 235 [\$2] sending stopped;
#X msg 12 103 [\$2] sending started;
#X connect 0 0 1 0;
#X connect 1 0 11 0;
#X connect 2 0 1 1;
#X connect 4 0 10 0;
#X connect 6 0 8 0;
#X connect 7 0 9 0;
#X connect 8 0 0 0;
#X connect 8 1 2 0;
#X connect 9 0 4 0;
#X connect 10 0 5 0;
#X connect 11 0 3 0;
#X restore 8 310 pd info;
#N canvas 589 257 402 585 init 0;
#N canvas 593 229 380 213 port 0;
#X obj 45 27 inlet;
#X obj 45 76 + 32768;
#X msg 45 99 port \$1;
#X obj 45 53 seeded-random 32768;
#X obj 45 122 s \$1.send;
#X connect 0 0 3 0;
#X connect 1 0 2 0;
#X connect 2 0 4 0;
#X connect 3 0 1 0;
#X restore 64 96 pd port;
#X obj 17 16 r \$1.init;
#X obj 80 72 s \$1.load.layout;
#X obj 48 147 f \$1;
#X obj 32 450 s \$1.load.settings;
#X obj 59 120 r \$1.reset.s;
#X obj 17 49 t b b b b b;
#X msg 17 528 dsp 1;
#X obj 17 551 s pd;
#X obj 17 475 t b b;
#X obj 44 500 s \$0.start.audio.backend;
#X msg 48 169 \; \$1.name symbol <yourname> \; \$1.host symbol <servername>
\; \$1.room symbol public \; \$1.port 12043 \; \$1.callback 1 \; \$1.audiobuf
5 \; \$1.channels 2 \; \$1.codec symbol pcm \; \$1.blocksize 64 \;
\$1.bitdepth 16 \; \$1.packetsize 1450 \; \$1.framesize 120 \; \$1.quality
10 \; \$1.bitrate 96 \; \$1.signal symbol music \; \$1.usage symbol
lowdelay \; \$1.ardour.enable 0 \; \$1.ardour.jack 0 \; \$1.ardour.hide
0 \; \$1.ardour.strips list empty empty empty empty \;;
#X connect 1 0 6 0;
#X connect 3 0 11 0;
#X connect 5 0 3 0;
#X connect 6 0 9 0;
#X connect 6 1 4 0;
#X connect 6 2 3 0;
#X connect 6 3 0 0;
#X connect 6 4 2 0;
#X connect 7 0 8 0;
#X connect 9 0 7 0;
#X connect 9 1 10 0;
#X restore 8 10 pd init;
#N canvas 836 123 901 640 layout 0;
#X obj 354 71 r \$1.maxrows;
#X obj 444 346 s \$1.main.cnv;
#X obj 417 118 t a b;
#X obj 417 141 until;
#X obj 417 164 f;
#X obj 483 178 + 1;
#X msg 456 142 0;
#X obj 417 187 t a a a;
#X obj 417 215 * 35;
#X obj 417 238 + 65;
#X obj 450 226 + 1;
#X obj 450 250 list prepend \$1;
#X obj 417 273 list append;
#X text 491 274 y parentID instance;
#X msg 444 318 obj 4 \$1 tpf-client-link \$2 \$3;
#X obj 355 358 * 35;
#X obj 355 381 + 65;
#X obj 354 94 t a a, f 11;
#X obj 382 513 s \$1.main.cnv;
#X obj 355 411 list append \$1;
#X obj 417 296 t a a;
#X msg 417 369 \; \$2.\$3.link loadbang;
#X msg 355 536 \; \$2.panels loadbang;
#X obj 355 465 t a a;
#X obj 53 406 text get \$1.settings;
#X obj 53 335 until;
#X obj 53 358 f;
#X msg 98 336 0;
#X obj 53 381 t a a;
#X obj 102 374 + 1;
#X obj 53 429 list trim;
#X obj 53 452 route layout;
#X obj 31 206 t b a;
#X obj 31 255 t b a, f 17;
#X obj 31 282 f;
#X obj 53 482 route symbol;
#X obj 170 425 t a a;
#X msg 197 474 symbol \$1.\$2;
#X obj 197 451 list prepend \$1;
#X obj 31 591 send;
#X text 21 18 make sure to load maxrow \, maxchannels before anything
else:;
#X obj 31 46 r \$1.load.layout;
#X msg 58 96 symbol ../default_settings.cnf;
#X obj 31 72 t b b;
#X obj 31 166 f;
#X obj 58 119 s \$0.load.settings.file;
#X obj 57 140 r \$0.settings.file.size;
#X obj 170 288 list;
#X obj 170 311 unpack s f;
#X obj 31 308 t b a b, f 8;
#X obj 31 515 f;
#X text 189 231 default values;
#X obj 31 540 max 1;
#X obj 31 563 min 64;
#X obj 716 110 r \$1.maxrows;
#X obj 663 84 r \$1.maxchannels;
#X obj 663 107 * 35;
#X obj 716 134 * 35;
#X obj 663 269 s \$1.main.cnv;
#X msg 663 241 setbounds 0 0 \$1 \$2 \, vis 0 \, vis 1;
#X obj 663 135 + 683;
#X obj 716 159 + 103;
#X obj 663 215 pack f f;
#X text 657 44 Set main window size;
#X obj 355 439 list append;
#X obj 355 322 t a a;
#X msg 382 489 obj 4 \$1 tpf-client-panels \$2 \$3;
#X msg 31 232 maxrows 4 \, maxchannels 4;
#X connect 0 0 17 0;
#X connect 2 0 3 0;
#X connect 2 1 6 0;
#X connect 3 0 4 0;
#X connect 4 0 7 0;
#X connect 5 0 4 1;
#X connect 6 0 4 1;
#X connect 7 0 8 0;
#X connect 7 1 10 0;
#X connect 7 2 5 0;
#X connect 8 0 9 0;
#X connect 9 0 12 0;
#X connect 10 0 11 0;
#X connect 11 0 12 1;
#X connect 12 0 20 0;
#X connect 14 0 1 0;
#X connect 15 0 16 0;
#X connect 16 0 19 0;
#X connect 17 0 65 0;
#X connect 17 1 2 0;
#X connect 19 0 64 0;
#X connect 20 0 21 0;
#X connect 20 1 14 0;
#X connect 23 0 22 0;
#X connect 23 1 66 0;
#X connect 24 0 30 0;
#X connect 25 0 26 0;
#X connect 26 0 28 0;
#X connect 27 0 26 1;
#X connect 28 0 24 0;
#X connect 28 1 29 0;
#X connect 29 0 26 1;
#X connect 30 0 31 0;
#X connect 31 0 35 0;
#X connect 32 0 67 0;
#X connect 32 1 34 1;
#X connect 33 0 34 0;
#X connect 33 1 47 0;
#X connect 34 0 49 0;
#X connect 35 0 50 1;
#X connect 36 0 35 1;
#X connect 36 1 38 0;
#X connect 37 0 39 1;
#X connect 38 0 37 0;
#X connect 41 0 43 0;
#X connect 42 0 45 0;
#X connect 43 0 44 0;
#X connect 43 1 42 0;
#X connect 44 0 32 0;
#X connect 46 0 44 1;
#X connect 47 0 48 0;
#X connect 48 0 36 0;
#X connect 48 1 50 1;
#X connect 49 0 50 0;
#X connect 49 1 25 0;
#X connect 49 2 27 0;
#X connect 50 0 52 0;
#X connect 52 0 53 0;
#X connect 53 0 39 0;
#X connect 54 0 57 0;
#X connect 55 0 56 0;
#X connect 56 0 60 0;
#X connect 57 0 61 0;
#X connect 59 0 58 0;
#X connect 60 0 62 0;
#X connect 61 0 62 1;
#X connect 62 0 59 0;
#X connect 64 0 23 0;
#X connect 65 0 15 0;
#X connect 65 1 64 1;
#X connect 66 0 18 0;
#X connect 67 0 33 0;
#X restore 8 40 pd layout;
#N canvas 1015 481 482 397 udp.pipe 0;
#X obj 24 156 netsend -u -b;
#X msg 189 98 connect localhost 12041 12040;
#X obj 24 183 tgl 15 0 empty empty empty 17 7 0 10 #fcfcfc #000000
#000000 0 1;
#X msg 219 128 disconnect;
#X obj 189 67 loadbang;
#X obj 27 5 r \$1.oscrecv;
#X obj 27 28 route tpf;
#X obj 99 311 s \$1.oscsend;
#X obj 99 263 t a b;
#X obj 27 50 route udppipe;
#X obj 99 181 t a a;
#X obj 126 204 list length;
#X obj 99 231 list prepend;
#X msg 126 285 dest _others tpf udppipe \, format b;
#X obj 27 73 list split 1;
#X obj 24 100 list prepend send;
#X obj 24 123 list trim;
#X connect 0 0 2 0;
#X connect 0 1 10 0;
#X connect 1 0 0 0;
#X connect 3 0 0 0;
#X connect 4 0 1 0;
#X connect 5 0 6 0;
#X connect 6 0 9 0;
#X connect 8 0 7 0;
#X connect 8 1 13 0;
#X connect 9 0 14 0;
#X connect 10 0 12 0;
#X connect 10 1 11 0;
#X connect 11 0 12 1;
#X connect 12 0 8 0;
#X connect 13 0 7 0;
#X connect 14 1 15 0;
#X connect 15 0 16 0;
#X connect 16 0 0 0;
#X restore 184 10 pd udp.pipe;
#N canvas 1015 481 613 393 jack 0;
#X obj 97 78 r \$1.maxrows;
#X obj 52 55 r \$1.maxchannels;
#X obj 52 106 pack f f;
#X msg 95 153 \$1 \$2;
#X obj 95 176 *;
#X obj 95 199 + 1;
#X msg 52 186 \$1;
#X obj 52 129 t a a b, f 15;
#X obj 139 195 samplerate~;
#X obj 37 344 s pd;
#X text 55 30 set input and output channels for JACK;
#X obj 95 226 min 128;
#X obj 422 148 r \$1.callback;
#X obj 296 143 r \$1.audiobuf;
#X obj 37 279 pack f f f f f, f 34;
#X obj 37 10 r \$0.start.audio.backend;
#X obj 37 236 f;
#X msg 37 308 audio-dialog 0 -1 -1 -1 \$1 0 0 0 0 -1 -1 -1 \$2 0 0
0 \$3 \$4 \$5 256;
#X obj 422 171 t b a;
#X obj 479 196 r pd;
#X obj 479 219 route dsp;
#X obj 422 242 spigot 0;
#X obj 422 283 s \$0.start.audio.backend;
#X obj 308 236 del 500;
#X obj 308 210 b;
#X obj 306 179 spigot 0;
#X connect 0 0 2 1;
#X connect 1 0 2 0;
#X connect 2 0 7 0;
#X connect 3 0 4 0;
#X connect 4 0 5 0;
#X connect 5 0 11 0;
#X connect 6 0 16 1;
#X connect 7 0 6 0;
#X connect 7 1 3 0;
#X connect 7 2 8 0;
#X connect 8 0 14 2;
#X connect 11 0 14 1;
#X connect 12 0 18 0;
#X connect 13 0 14 3;
#X connect 13 0 25 0;
#X connect 14 0 17 0;
#X connect 15 0 16 0;
#X connect 16 0 14 0;
#X connect 17 0 9 0;
#X connect 18 0 21 0;
#X connect 18 1 14 4;
#X connect 19 0 20 0;
#X connect 20 0 21 1;
#X connect 20 0 25 1;
#X connect 21 0 22 0;
#X connect 23 0 22 0;
#X connect 24 0 23 0;
#X connect 25 0 24 0;
#X restore 184 40 pd jack;
#N canvas 649 430 710 591 ardour.code 0;
#X obj 16 411 r \$0.from.ard;
#X obj 16 434 route session_name;
#X obj 16 457 symbol;
#X obj 133 410 r \$0.from.ard;
#X obj 133 433 route ready;
#X obj 133 456 sel 0;
#X msg 133 479 symbol;
#X obj 337 17 r \$0.from.ard;
#X obj 337 40 route ready;
#X obj 337 63 sel 1;
#X obj 337 136 s \$0.to.jcm;
#X msg 337 110 refresh;
#X obj 245 495 r \$1.jack.clientname;
#X symbolatom 246 520 35 0 0 0 - - - 0;
#N canvas 1127 295 444 431 detect.jack.clientname 0;
#X obj 16 121 ask \$0 jcm;
#X msg 16 98 list_clients;
#X obj 16 19 r \$0.from.jcm;
#X obj 16 42 route refreshed;
#X obj 73 144 select tpf-client tpf-client-dev;
#X msg 73 171 symbol tpf-client;
#X msg 167 191 symbol tpf-client-dev;
#X obj 16 217 symbol;
#X obj 16 65 t b b, f 18;
#X obj 16 240 select UNKNOWN;
#X msg 121 106 symbol UNKNOWN;
#X obj 16 380 s \$1.warning;
#X msg 16 351 couldn't detect tpf-client's JACK client name;
#X obj 124 286 s \$1.jack.clientname;
#X obj 97 264 t b a;
#X obj 97 311 s \$0.jack.ready;
#X connect 0 0 7 0;
#X connect 0 1 4 0;
#X connect 1 0 0 0;
#X connect 2 0 3 0;
#X connect 3 0 8 0;
#X connect 4 0 5 0;
#X connect 4 1 6 0;
#X connect 5 0 7 1;
#X connect 6 0 7 1;
#X connect 7 0 9 0;
#X connect 8 0 1 0;
#X connect 8 1 10 0;
#X connect 9 0 12 0;
#X connect 9 1 14 0;
#X connect 10 0 7 1;
#X connect 12 0 11 0;
#X connect 14 0 15 0;
#X connect 14 1 13 0;
#X restore 145 69 pd detect.jack.clientname;
#X text 396 86 <- make sure we see ourselves as jack client;
#N canvas 1023 302 1015 433 set.peer.name.in.ardour 0;
#X obj 14 8 r \$1.intercom;
#X obj 14 87 route peer_name;
#X obj 14 144 unpack f s, f 35;
#X obj 684 136 s \$1.intercom;
#X msg 684 98 peer_get_name 2;
#X obj 52 216 r \$1.maxchannels;
#X obj 14 169 - 1;
#X obj 14 215 *;
#X obj 14 238 + 1;
#X obj 14 317 s \$0.to.ard;
#X msg 14 293 rename_group \$1 \$2;
#X obj 14 267 pack f s, f 22;
#X obj 14 191 + 1;
#X text 45 192 <- offset by local group;
#X msg 287 144 \$1;
#X obj 221 183 sel empty;
#X obj 221 212 f;
#X obj 221 235 + 64;
#X obj 221 258 list tosymbol;
#X msg 221 281 symbol Location_\$1;
#X obj 443 5 r \$0.from.ard;
#X obj 443 28 route ready;
#X obj 443 76 sel 1;
#X obj 498 196 r \$1.maxrows;
#X obj 470 195 f;
#X obj 470 255 t a b;
#X obj 470 278 until;
#X obj 470 301 f;
#X obj 470 324 t a a;
#X obj 529 315 + 1;
#X msg 515 278 1;
#X obj 470 373 s \$1.intercom;
#X msg 470 345 peer_get_name \$1;
#X obj 443 51 t a a;
#X obj 470 218 t a a, f 24;
#X obj 14 113 t a a, f 46;
#X obj 581 13 r \$1.intercom;
#X obj 581 37 route peer_name_refreshed;
#X obj 581 60 b;
#X obj 581 83 del 0;
#X obj 611 250 t a b;
#X obj 611 273 until;
#X obj 611 296 f;
#X obj 611 319 t a a;
#X obj 670 310 + 1;
#X msg 656 273 1;
#X msg 611 401 \$1 empty;
#X obj 581 111 spigot 0;
#X obj 443 166 s \$0.refresh.show.strips;
#X obj 870 220 r \$1.name;
#X obj 870 243 list;
#X obj 782 291 symbol;
#X msg 782 314 rename_group 1 \$1;
#X obj 782 338 s \$0.to.ard;
#X obj 443 101 t b b b;
#X text 762 192 ---- Local Name -----------;
#X obj 581 134 t b b;
#X obj 612 172 s \$0.hide.empty.strips;
#X connect 0 0 1 0;
#X connect 1 0 35 0;
#X connect 2 0 6 0;
#X connect 2 1 15 0;
#X connect 4 0 3 0;
#X connect 5 0 7 1;
#X connect 6 0 12 0;
#X connect 7 0 8 0;
#X connect 8 0 11 0;
#X connect 10 0 9 0;
#X connect 11 0 10 0;
#X connect 12 0 7 0;
#X connect 14 0 16 1;
#X connect 15 0 16 0;
#X connect 15 1 11 1;
#X connect 16 0 17 0;
#X connect 17 0 18 0;
#X connect 18 0 19 0;
#X connect 19 0 11 1;
#X connect 20 0 21 0;
#X connect 21 0 33 0;
#X connect 22 0 54 0;
#X connect 23 0 24 1;
#X connect 24 0 34 0;
#X connect 25 0 26 0;
#X connect 25 1 30 0;
#X connect 26 0 27 0;
#X connect 27 0 28 0;
#X connect 28 0 32 0;
#X connect 28 1 29 0;
#X connect 29 0 27 1;
#X connect 30 0 27 1;
#X connect 32 0 31 0;
#X connect 33 0 22 0;
#X connect 33 1 47 1;
#X connect 34 0 25 0;
#X connect 34 1 40 0;
#X connect 35 0 2 0;
#X connect 35 1 14 0;
#X connect 36 0 37 0;
#X connect 37 0 38 0;
#X connect 38 0 39 0;
#X connect 39 0 47 0;
#X connect 40 0 41 0;
#X connect 40 1 45 0;
#X connect 41 0 42 0;
#X connect 42 0 43 0;
#X connect 43 0 46 0;
#X connect 43 1 44 0;
#X connect 44 0 42 1;
#X connect 45 0 42 1;
#X connect 46 0 35 0;
#X connect 47 0 56 0;
#X connect 49 0 50 0;
#X connect 50 0 51 0;
#X connect 51 0 52 0;
#X connect 52 0 53 0;
#X connect 54 0 48 0;
#X connect 54 1 24 0;
#X connect 54 2 51 0;
#X connect 56 0 57 0;
#X connect 56 1 24 0;
#X restore 145 99 pd set.peer.name.in.ardour;
#N canvas 769 106 451 461 manage.channel.names 0;
#X obj 230 11 text define \$0.channel.name;
#N canvas 192 333 1091 426 strip.name.entry 0;
#X obj 9 9 r \$1.channels;
#X obj 9 128 s \$0.ch.name.sel;
#X obj 18 154 r \$0.ch.name.sel;
#X msg 17 311 symbol;
#X msg 17 338 set \$1;
#X obj 427 117 r \$0.ch.name.sel;
#X obj 350 117 list append;
#X obj 377 176 list split 1;
#X obj 18 209 - 1;
#X obj 400 351 s \$1.oscsend;
#X obj 400 303 t a b;
#X msg 427 325 dest _others tpf ardour strip name;
#X obj 350 149 t a a;
#X msg 350 277 list \$2 \$1;
#X obj 411 201 - 1;
#X obj 18 230 text get \$0.channel.name;
#X obj 377 230 text set \$0.channel.name;
#X obj 323 44 select _;
#X msg 323 67 symbol empty;
#X obj 415 43 loadbang;
#X msg 415 66 symbol;
#X obj 17 289 select empty;
#X msg 9 33 range 1 \$1;
#X obj 369 379 s \$1.strip.rename.local;
#X obj 17 365 s \$1.strip.name.entry.r;
#X obj 323 13 r \$1.strip.name.entry.s;
#X obj 9 60 s \$1.strip.no;
#X obj 9 82 r \$1.strip.no;
#X obj 9 105 route float;
#X obj 819 49 r \$1.maxchannels;
#X obj 819 169 t a b;
#X obj 819 192 until;
#X obj 819 215 f;
#X obj 819 238 t a a;
#X obj 871 227 + 1;
#X msg 866 195 0;
#X obj 819 317 text set \$0.channel.name;
#X obj 819 269 t b a;
#X msg 819 293 symbol empty;
#X text 818 23 INIT local strip names to empty;
#X obj 18 253 route bang;
#N canvas 1499 101 439 212 clear.all.button 0;
#X obj 14 11 r \$1.strip.name.clearall.button;
#X obj 14 34 sel -1;
#X obj 59 36 t a a;
#X obj 77 123 s \$1.strip.name.clearall.label;
#X obj 14 68 t b b;
#X obj 14 158 outlet;
#X connect 0 0 1 0;
#X connect 1 0 4 0;
#X connect 1 1 2 0;
#X connect 2 0 1 1;
#X connect 4 0 5 0;
#X restore 668 8 pd clear.all.button;
#X obj 603 124 t a b;
#X obj 603 147 until;
#X obj 603 170 f;
#X obj 694 181 + 1;
#X msg 650 150 0;
#X obj 631 102 r \$1.maxchannels;
#X obj 603 102 f;
#X obj 819 139 f;
#X obj 603 215 text get \$0.channel.name;
#X obj 603 264 list append;
#X obj 603 193 t a a a;
#X obj 564 5 r \$0.from.ard;
#X obj 564 28 route ready;
#X obj 564 51 sel 1;
#X obj 667 32 t b b b;
#X msg 887 96 symbol;
#X msg 887 123 set \$1;
#X obj 887 150 s \$1.strip.name.entry.r;
#X obj 666 239 + 1;
#N canvas 1195 51 586 395 clear.button 0;
#X obj 14 68 t b b;
#X obj 14 244 outlet;
#X obj 14 11 r \$1.strip.name.clear.button;
#X obj 374 221 s \$1.strip.name.clear.label;
#X obj 60 34 t a;
#X obj 29 115 r \$0.ch.name.sel;
#X obj 14 142 f;
#X obj 135 215 t b a, f 9;
#X obj 186 268 - 1;
#X msg 135 242 symbol empty;
#X msg 14 203 list empty \$1;
#X msg 257 193 symbol;
#X msg 257 220 set \$1;
#X obj 257 247 s \$1.strip.name.entry.r;
#X obj 14 165 t a a b, f 41;
#X obj 135 296 text set \$0.channel.name;
#X msg 374 193 color #e0e0e0 #e0e0e0 \$1;
#X msg 406 133 symbol #000000;
#X msg 337 157 symbol #a0a0a0;
#X obj 337 3 r \$0.ch.name.sel;
#X obj 337 26 - 1;
#X obj 337 48 text get \$0.channel.name;
#X obj 337 110 select empty;
#X obj 253 18 inlet;
#X obj 337 70 route bang;
#X obj 14 34 sel 0;
#X connect 0 0 6 0;
#X connect 2 0 25 0;
#X connect 4 0 25 1;
#X connect 5 0 6 1;
#X connect 6 0 14 0;
#X connect 7 0 9 0;
#X connect 7 1 8 0;
#X connect 8 0 15 1;
#X connect 9 0 15 0;
#X connect 10 0 1 0;
#X connect 11 0 12 0;
#X connect 12 0 13 0;
#X connect 14 0 10 0;
#X connect 14 1 7 0;
#X connect 14 2 11 0;
#X connect 14 2 18 0;
#X connect 16 0 3 0;
#X connect 17 0 16 0;
#X connect 18 0 16 0;
#X connect 19 0 20 0;
#X connect 20 0 21 0;
#X connect 21 0 24 0;
#X connect 22 0 18 0;
#X connect 22 1 17 0;
#X connect 23 0 22 0;
#X connect 24 1 22 0;
#X connect 25 0 0 0;
#X connect 25 1 4 0;
#X restore 249 232 pd clear.button;
#X obj 323 91 t a a;
#X obj 350 300 t b a a;
#X obj 350 402 outlet;
#X obj 50 180 r \$0.refresh.strip.name.display;
#X obj 18 177 f;
#X connect 0 0 22 0;
#X connect 2 0 66 0;
#X connect 3 0 4 0;
#X connect 4 0 24 0;
#X connect 5 0 6 1;
#X connect 6 0 12 0;
#X connect 7 0 16 0;
#X connect 7 1 14 0;
#X connect 8 0 15 0;
#X connect 10 0 9 0;
#X connect 10 1 11 0;
#X connect 11 0 9 0;
#X connect 12 0 13 0;
#X connect 12 1 7 0;
#X connect 13 0 63 0;
#X connect 14 0 16 1;
#X connect 15 0 40 0;
#X connect 17 0 18 0;
#X connect 17 1 62 0;
#X connect 18 0 62 0;
#X connect 19 0 20 0;
#X connect 20 0 17 1;
#X connect 21 0 3 0;
#X connect 21 1 4 0;
#X connect 22 0 26 0;
#X connect 25 0 17 0;
#X connect 27 0 28 0;
#X connect 28 0 1 0;
#X connect 29 0 49 0;
#X connect 30 0 31 0;
#X connect 30 1 35 0;
#X connect 31 0 32 0;
#X connect 32 0 33 0;
#X connect 33 0 37 0;
#X connect 33 1 34 0;
#X connect 34 0 32 1;
#X connect 35 0 32 1;
#X connect 37 0 38 0;
#X connect 37 1 36 1;
#X connect 38 0 36 0;
#X connect 40 1 21 0;
#X connect 41 0 56 0;
#X connect 42 0 43 0;
#X connect 42 1 46 0;
#X connect 43 0 44 0;
#X connect 44 0 52 0;
#X connect 45 0 44 1;
#X connect 46 0 44 1;
#X connect 47 0 48 1;
#X connect 48 0 42 0;
#X connect 49 0 30 0;
#X connect 50 0 51 0;
#X connect 51 0 13 0;
#X connect 52 0 50 0;
#X connect 52 1 60 0;
#X connect 52 2 45 0;
#X connect 53 0 54 0;
#X connect 54 0 55 0;
#X connect 55 0 48 0;
#X connect 56 0 57 0;
#X connect 56 1 48 0;
#X connect 56 2 49 0;
#X connect 57 0 58 0;
#X connect 58 0 59 0;
#X connect 60 0 51 1;
#X connect 61 0 13 0;
#X connect 62 0 61 0;
#X connect 62 1 6 0;
#X connect 63 0 64 0;
#X connect 63 1 23 0;
#X connect 63 2 10 0;
#X connect 65 0 66 0;
#X connect 66 0 8 0;
#X restore 26 14 pd strip.name.entry;
#N canvas 927 410 1103 620 reset.ardour.strip.names 0;
#X obj 23 15 inlet;
#X obj 23 61 f;
#X obj 23 87 t a b, f 8;
#X obj 23 110 until;
#X obj 516 63 r \$1.maxrows;
#X obj 53 61 r \$1.maxchannels;
#X msg 68 109 1;
#X obj 23 133 f;
#X obj 83 145 + 1;
#X obj 50 236 makefilename %02d;
#X obj 23 271 pack f s;
#X obj 23 294 list append;
#X obj 23 203 t a a;
#X obj 23 156 t a a b;
#X msg 62 179 symbol;
#X obj 23 344 s \$0.to.ard;
#X obj 488 62 f;
#X msg 23 319 rename_strip \$1 L\$2\$3;
#X obj 160 107 unpack f s;
#X msg 225 181 symbol _\$1;
#X obj 160 80 r \$1.strip.rename.local;
#X obj 23 38 t b b, f 78;
#X obj 488 285 t a b, f 8;
#X obj 488 308 until;
#X msg 533 307 1;
#X obj 488 331 f;
#X obj 548 343 + 1;
#X obj 515 448 makefilename %02d;
#X obj 488 493 pack f s;
#X obj 488 516 list append;
#X obj 488 415 t a a;
#X obj 488 566 s \$0.to.ard;
#X msg 488 541 rename_strip \$1 \$2\$3;
#X obj 488 448 +;
#X obj 573 415 r \$1.maxchannels;
#X obj 488 354 t a a b;
#X msg 527 406 symbol;
#X obj 721 312 unpack f s;
#X msg 768 371 symbol _\$1;
#X obj 721 285 r \$1.strip.rename.remote;
#X obj 778 337 select empty;
#X obj 217 132 select empty;
#X obj 488 261 f;
#X obj 488 235 t b a, f 26;
#X obj 488 183 - 1;
#X obj 519 261 r \$1.maxchannels;
#X obj 514 209 r \$1.maxchannels;
#X obj 488 210 *;
#X obj 488 377 +, f 26;
#X obj 488 85 t a b, f 7;
#X obj 488 108 until;
#X obj 488 131 f;
#X obj 488 154 t a a;
#X obj 531 141 + 1;
#X msg 527 108 1;
#X obj 774 93 t b a b;
#X msg 793 116 peer_get_id \$1;
#X obj 793 139 s \$1.intercom;
#X obj 793 159 r \$1.intercom;
#X obj 793 182 route peer_id;
#X obj 774 207 list append;
#X obj 774 25 r \$1.intercom;
#X obj 774 48 route peer_leave;
#X obj 774 71 symbol;
#X obj 615 65 r \$1.intercom;
#X obj 615 88 route peer_leave_all;
#X obj 615 111 b;
#X obj 908 28 r \$1.intercom;
#X obj 908 51 route peer_name;
#X obj 908 91 t a a, f 15;
#X msg 908 125 symbol \$2;
#X msg 995 126 \$1;
#X obj 908 155 select empty;
#X obj 908 178 f;
#X obj 774 247 s \$0.hide.channels.peer;
#X connect 0 0 21 0;
#X connect 1 0 2 0;
#X connect 2 0 3 0;
#X connect 2 1 6 0;
#X connect 3 0 7 0;
#X connect 4 0 16 1;
#X connect 5 0 1 1;
#X connect 6 0 7 1;
#X connect 7 0 13 0;
#X connect 8 0 7 1;
#X connect 9 0 10 1;
#X connect 10 0 11 0;
#X connect 11 0 17 0;
#X connect 12 0 10 0;
#X connect 12 1 9 0;
#X connect 13 0 12 0;
#X connect 13 1 8 0;
#X connect 13 2 14 0;
#X connect 14 0 11 1;
#X connect 16 0 49 0;
#X connect 17 0 15 0;
#X connect 18 0 12 0;
#X connect 18 1 41 0;
#X connect 19 0 11 1;
#X connect 20 0 18 0;
#X connect 21 0 1 0;
#X connect 21 1 16 0;
#X connect 22 0 23 0;
#X connect 22 1 24 0;
#X connect 23 0 25 0;
#X connect 24 0 25 1;
#X connect 25 0 35 0;
#X connect 26 0 25 1;
#X connect 27 0 28 1;
#X connect 28 0 29 0;
#X connect 29 0 32 0;
#X connect 30 0 33 0;
#X connect 30 1 27 0;
#X connect 32 0 31 0;
#X connect 33 0 28 0;
#X connect 34 0 33 1;
#X connect 35 0 48 0;
#X connect 35 1 26 0;
#X connect 35 2 36 0;
#X connect 36 0 29 1;
#X connect 37 0 30 0;
#X connect 37 1 40 0;
#X connect 38 0 29 1;
#X connect 39 0 37 0;
#X connect 40 0 36 0;
#X connect 40 1 38 0;
#X connect 41 0 14 0;
#X connect 41 1 19 0;
#X connect 42 0 22 0;
#X connect 43 0 42 0;
#X connect 43 1 48 1;
#X connect 44 0 47 0;
#X connect 45 0 42 1;
#X connect 46 0 47 1;
#X connect 47 0 43 0;
#X connect 48 0 30 0;
#X connect 49 0 50 0;
#X connect 49 1 54 0;
#X connect 50 0 51 0;
#X connect 51 0 52 0;
#X connect 52 0 44 0;
#X connect 52 1 53 0;
#X connect 53 0 51 1;
#X connect 54 0 51 1;
#X connect 55 0 60 0;
#X connect 55 1 56 0;
#X connect 55 2 60 1;
#X connect 56 0 57 0;
#X connect 58 0 59 0;
#X connect 59 0 60 1;
#X connect 60 0 44 0;
#X connect 60 0 74 0;
#X connect 61 0 62 0;
#X connect 62 0 63 0;
#X connect 63 0 55 0;
#X connect 64 0 65 0;
#X connect 65 0 66 0;
#X connect 66 0 16 0;
#X connect 67 0 68 0;
#X connect 68 0 69 0;
#X connect 69 0 70 0;
#X connect 69 1 71 0;
#X connect 70 0 72 0;
#X connect 71 0 73 1;
#X connect 72 0 73 0;
#X connect 73 0 44 0;
#X restore 31 138 pd reset.ardour.strip.names;
#N canvas 0 0 307 343 receive.remote.strip.names 0;
#X obj 16 12 r \$1.oscrecv;
#X obj 16 35 route tpf;
#X obj 16 57 route ardour;
#X obj 16 80 route strip;
#X obj 16 103 route name;
#X obj 106 17 r \$1.origin;
#X msg 106 41 symbol \$2;
#X obj 106 65 t b a b;
#X msg 125 88 peer_get_id \$1;
#X obj 125 111 s \$1.intercom;
#X obj 125 131 r \$1.intercom;
#X obj 125 154 route peer_id;
#X obj 106 179 list append;
#X obj 106 202 - 1;
#X obj 106 225 *;
#X obj 133 224 r \$1.maxchannels;
#X obj 16 232 unpack f s;
#X obj 16 255 +;
#X obj 16 278 pack f s;
#X obj 16 302 s \$1.strip.rename.remote;
#X connect 0 0 1 0;
#X connect 1 0 2 0;
#X connect 2 0 3 0;
#X connect 3 0 4 0;
#X connect 4 0 16 0;
#X connect 5 0 6 0;
#X connect 6 0 7 0;
#X connect 7 0 12 0;
#X connect 7 1 8 0;
#X connect 7 2 12 1;
#X connect 8 0 9 0;
#X connect 10 0 11 0;
#X connect 11 0 12 1;
#X connect 12 0 13 0;
#X connect 13 0 14 0;
#X connect 14 0 17 1;
#X connect 15 0 14 1;
#X connect 16 0 17 0;
#X connect 16 1 18 1;
#X connect 17 0 18 0;
#X connect 18 0 19 0;
#X restore 31 171 pd receive.remote.strip.names;
#N canvas 967 274 794 627 refresh.remote.strip.names 0;
#X obj 15 13 inlet;
#X obj 15 112 s \$1.oscsend;
#X obj 84 15 r \$1.maxchannels;
#X obj 15 39 list prepend;
#X obj 15 64 t a a;
#X msg 42 88 dest \$2 tpf ardour refresh;
#X msg 15 87 \$1;
#X obj 16 152 r \$1.oscrecv;
#X obj 16 175 route tpf;
#X obj 16 197 route ardour;
#X obj 127 152 r \$1.origin;
#X msg 127 176 symbol \$2;
#X obj 16 220 route refresh;
#X obj 16 286 t a b;
#X obj 16 309 until;
#X obj 16 332 f;
#X msg 55 308 0;
#X obj 16 355 t a a;
#X obj 61 352 + 1;
#X obj 61 413 text get \$0.channel.name;
#X obj 61 436 route bang;
#X msg 61 459 symbol empty;
#X obj 16 387 t a a;
#X obj 16 483 pack f s;
#X obj 16 579 s \$1.oscsend;
#X obj 16 508 list append, f 19;
#X obj 16 531 t a a, f 17;
#X msg 115 554 dest \$3 tpf ardour strip name;
#X msg 16 554 list \$1 \$2;
#X obj 16 432 + 1;
#X obj 251 22 r \$1.channels;
#X obj 251 116 s \$1.oscsend;
#X msg 278 94 dest _others tpf ardour channels;
#X obj 251 45 change -1;
#X obj 251 68 t a b;
#X obj 16 243 t a b, f 33;
#X obj 226 243 r \$1.channels;
#X obj 211 268 f;
#X obj 211 315 list append;
#X obj 211 388 s \$1.oscsend;
#X obj 211 340 t a a, f 17;
#X msg 211 363 \$1;
#X msg 310 363 dest \$2 tpf ardour channels;
#X connect 0 0 3 0;
#X connect 2 0 3 1;
#X connect 3 0 4 0;
#X connect 4 0 6 0;
#X connect 4 1 5 0;
#X connect 5 0 1 0;
#X connect 6 0 1 0;
#X connect 7 0 8 0;
#X connect 8 0 9 0;
#X connect 9 0 12 0;
#X connect 10 0 11 0;
#X connect 11 0 25 1;
#X connect 11 0 38 1;
#X connect 12 0 35 0;
#X connect 13 0 14 0;
#X connect 13 1 16 0;
#X connect 14 0 15 0;
#X connect 15 0 17 0;
#X connect 16 0 15 1;
#X connect 17 0 22 0;
#X connect 17 1 18 0;
#X connect 18 0 15 1;
#X connect 19 0 20 0;
#X connect 20 0 21 0;
#X connect 20 1 23 1;
#X connect 21 0 23 1;
#X connect 22 0 29 0;
#X connect 22 1 19 0;
#X connect 23 0 25 0;
#X connect 25 0 26 0;
#X connect 26 0 28 0;
#X connect 26 1 27 0;
#X connect 27 0 24 0;
#X connect 28 0 24 0;
#X connect 29 0 23 0;
#X connect 30 0 33 0;
#X connect 32 0 31 0;
#X connect 33 0 34 0;
#X connect 34 0 31 0;
#X connect 34 1 32 0;
#X connect 35 0 13 0;
#X connect 35 1 37 0;
#X connect 36 0 37 1;
#X connect 37 0 38 0;
#X connect 38 0 40 0;
#X connect 40 0 41 0;
#X connect 40 1 42 0;
#X connect 41 0 39 0;
#X connect 42 0 39 0;
#X restore 27 398 pd refresh.remote.strip.names;
#X obj 27 234 r \$1.intercom;
#X obj 27 282 symbol;
#X obj 31 111 bng 15 250 50 0 empty empty empty 17 7 0 10 #fcfcfc #000000
#000000;
#X text 47 111 FULL RESET;
#X obj 27 257 route peer_reclaim peer_name;
#X obj 172 325 list;
#X msg 172 348 symbol \$1;
#X msg 109 280 \$2 \$1;
#X obj 109 303 route empty;
#N canvas 1148 183 278 765 strip.state.saving 0;
#X obj 50 118 text sequence \$0.channel.name;
#X msg 88 93 line 0;
#X msg 50 92 step;
#X obj 50 64 until;
#X obj 13 38 t b b b, f 13;
#X msg 50 141 append \$1;
#X obj 40 194 list store;
#X obj 13 155 t b b;
#X obj 61 434 until;
#X obj 61 530 list store, f 14;
#X obj 61 460 f;
#X obj 99 459 + 1;
#X msg 101 435 0;
#X msg 61 508 get \$1 1;
#X obj 61 372 t b b a, f 14;
#X obj 61 483 t a a;
#X obj 61 553 list append;
#X obj 61 605 text set \$0.channel.name, f 25;
#X obj 61 576 list split 1, f 17;
#X obj 34 287 r \$1.ardour.strips;
#X obj 59 242 s \$1.ardour.strips;
#X obj 40 217 t b a b;
#X obj 34 324 spigot 1;
#X msg 40 266 1;
#X msg 79 266 0;
#X obj 13 11 inlet;
#X text 58 12 update \$1.ardour.strips;
#X obj 61 404 f;
#X obj 89 405 r \$1.maxchannels;
#X obj 34 349 t b a;
#X obj 34 653 s \$0.refresh.strip.name.display;
#X connect 0 0 5 0;
#X connect 0 1 3 1;
#X connect 1 0 0 0;
#X connect 2 0 0 0;
#X connect 3 0 2 0;
#X connect 4 0 7 0;
#X connect 4 1 3 0;
#X connect 4 2 1 0;
#X connect 5 0 6 0;
#X connect 6 0 21 0;
#X connect 7 0 6 1;
#X connect 7 1 6 0;
#X connect 8 0 10 0;
#X connect 9 0 16 0;
#X connect 9 1 8 1;
#X connect 10 0 11 0;
#X connect 10 0 15 0;
#X connect 11 0 10 1;
#X connect 12 0 10 1;
#X connect 13 0 9 0;
#X connect 14 0 27 0;
#X connect 14 1 12 0;
#X connect 14 2 9 1;
#X connect 15 0 13 0;
#X connect 15 1 16 1;
#X connect 16 0 18 0;
#X connect 18 0 17 0;
#X connect 18 1 17 1;
#X connect 19 0 22 0;
#X connect 21 0 23 0;
#X connect 21 1 20 0;
#X connect 21 2 24 0;
#X connect 22 0 29 0;
#X connect 23 0 22 1;
#X connect 24 0 22 1;
#X connect 25 0 4 0;
#X connect 27 0 8 0;
#X connect 28 0 27 1;
#X connect 29 0 30 0;
#X connect 29 1 14 0;
#X restore 26 39 pd strip.state.saving;
#X connect 1 0 14 0;
#X connect 5 0 9 0;
#X connect 6 0 4 0;
#X connect 7 0 2 0;
#X connect 9 0 6 0;
#X connect 9 1 12 0;
#X connect 10 0 11 0;
#X connect 11 0 4 0;
#X connect 12 0 13 0;
#X connect 13 1 10 0;
#X restore 145 129 pd manage.channel.names;
#X obj 456 17 r \$1.display.ardour;
#X obj 456 63 s pd-ardour;
#X msg 456 40 vis 1;
#N canvas 1107 149 780 691 hide.unused.strips 0;
#X obj 36 14 r \$1.oscrecv;
#X obj 36 37 route tpf;
#X obj 36 59 route ardour;
#X obj 147 24 r \$1.origin;
#X msg 147 48 symbol \$2;
#X obj 36 82 route channels;
#X obj 36 135 list prepend, f 19;
#X obj 63 321 r \$1.maxchannels;
#X obj 36 182 t b a b;
#X msg 55 205 peer_get_id \$1;
#X obj 55 228 s \$1.intercom;
#X obj 55 248 r \$1.intercom;
#X obj 55 271 route peer_id;
#X obj 36 296 list append;
#X obj 36 158 unpack s f, f 27;
#X obj 36 322 *;
#X obj 36 345 + 1;
#X obj 36 373 pack f f, f 27;
#X obj 36 428 f;
#X obj 36 454 t a b, f 8;
#X obj 36 477 until;
#X obj 65 426 r \$1.maxchannels;
#X obj 36 500 f, f 8;
#X obj 111 508 + 1;
#X obj 36 523 t a a;
#X obj 36 402 t b a, f 23;
#X obj 171 497 unpack f f;
#X obj 36 600 list prepend;
#X obj 36 571 <=;
#X msg 81 476 0;
#X obj 105 567 +;
#X obj 36 548 + 1;
#X msg 36 626 show_strip \$1 \$2;
#X obj 36 649 s \$0.to.ard;
#X obj 257 329 r \$1.channels;
#X msg 257 375 1 \$1;
#X text 256 308 local channels;
#X obj 442 188 r \$0.hide.channels.peer;
#X obj 269 238 t a b;
#X msg 296 263 0;
#X obj 297 100 r \$1.maxrows;
#X obj 269 99 f;
#X obj 269 122 t a b, f 7;
#X obj 269 145 until;
#X obj 269 168 f;
#X obj 269 191 t a a;
#X obj 312 178 + 1;
#X msg 308 145 1;
#X obj 269 28 r \$1.intercom;
#X obj 269 51 route peer_leave_all;
#X obj 269 74 b;
#X obj 257 352 f;
#X obj 450 32 r \$0.refresh.show.strips;
#X obj 561 465 t a b, f 8;
#X obj 561 488 until;
#X obj 561 511 f, f 8;
#X obj 636 519 + 1;
#X obj 561 534 t a a;
#X obj 590 439 r \$1.maxchannels;
#X obj 561 392 f;
#X obj 590 390 r \$1.maxrows;
#X obj 561 441 *;
#X obj 561 415 + 1;
#X msg 606 487 1;
#X obj 561 581 s \$0.to.ard;
#X msg 561 558 show_strip \$1 1;
#X obj 450 105 t b;
#X obj 594 319 r \$1.ardour.enable;
#X obj 561 266 r \$1.ardour.hide;
#X obj 561 347 spigot;
#X obj 561 289 sel 0;
#N canvas 971 139 483 722 refresh_hide_peers 0;
#X obj 40 70 t a b, f 8;
#X obj 40 93 until;
#X obj 40 116 f, f 8;
#X obj 115 124 + 1;
#X obj 40 139 t a a;
#X obj 39 44 f;
#X obj 68 42 r \$1.maxrows;
#X msg 85 92 1;
#X obj 40 167 t b a b;
#X obj 59 213 s \$1.intercom;
#X obj 59 233 r \$1.intercom;
#X obj 40 281 list append;
#X msg 59 190 peer_get_name \$1;
#X obj 59 256 route peer_name;
#X obj 103 457 s \$1.oscsend;
#X obj 187 386 r \$1.maxchannels;
#X obj 103 384 list prepend;
#X obj 103 409 t a a;
#X msg 103 432 \$1;
#X obj 39 18 inlet;
#X msg 40 307 \$2 \$1;
#X obj 40 330 route empty;
#X msg 130 433 dest \$2 tpf ardour refresh;
#X obj 40 586 until;
#X obj 40 609 f, f 8;
#X obj 115 567 + 1;
#X obj 40 632 t a a;
#X obj 69 559 r \$1.maxchannels;
#X obj 40 684 s \$0.to.ard;
#X msg 40 656 show_strip \$1 0;
#X obj 96 504 r \$1.maxchannels;
#X obj 67 506 *;
#X obj 67 529 + 1;
#X obj 40 561 f;
#X obj 40 481 t b a;
#X obj 227 45 r \$0.hide.empty.strips;
#X obj 103 355 spigot 1;
#X obj 227 94 t b b b;
#X msg 266 229 0;
#X msg 227 222 1;
#X obj 327 82 r \$1.ardour.hide;
#X obj 227 68 spigot;
#X connect 0 0 1 0;
#X connect 0 1 7 0;
#X connect 1 0 2 0;
#X connect 2 0 4 0;
#X connect 3 0 2 1;
#X connect 4 0 8 0;
#X connect 4 1 3 0;
#X connect 5 0 0 0;
#X connect 6 0 5 1;
#X connect 7 0 2 1;
#X connect 8 0 11 0;
#X connect 8 1 12 0;
#X connect 8 2 11 1;
#X connect 10 0 13 0;
#X connect 11 0 20 0;
#X connect 12 0 9 0;
#X connect 13 0 11 1;
#X connect 15 0 16 1;
#X connect 16 0 17 0;
#X connect 17 0 18 0;
#X connect 17 1 22 0;
#X connect 18 0 14 0;
#X connect 19 0 5 0;
#X connect 20 0 21 0;
#X connect 21 0 34 0;
#X connect 21 1 36 0;
#X connect 22 0 14 0;
#X connect 23 0 24 0;
#X connect 24 0 26 0;
#X connect 25 0 24 1;
#X connect 26 0 29 0;
#X connect 26 1 25 0;
#X connect 27 0 33 1;
#X connect 29 0 28 0;
#X connect 30 0 31 1;
#X connect 31 0 32 0;
#X connect 32 0 24 1;
#X connect 33 0 23 0;
#X connect 34 0 33 0;
#X connect 34 1 31 0;
#X connect 35 0 41 0;
#X connect 36 0 16 0;
#X connect 37 0 39 0;
#X connect 37 1 5 0;
#X connect 37 2 38 0;
#X connect 38 0 36 1;
#X connect 39 0 36 1;
#X connect 40 0 41 1;
#X connect 41 0 37 0;
#X restore 347 503 pd refresh_hide_peers;
#X obj 394 380 t b b;
#X obj 405 253 r \$1.ardour.enable;
#X obj 394 229 r \$1.ardour.hide;
#X obj 394 304 &&;
#X obj 405 276 t b a;
#X obj 394 357 sel 1;
#X obj 36 105 spigot;
#X obj 394 331 t a a;
#X obj 450 71 spigot;
#X connect 0 0 1 0;
#X connect 1 0 2 0;
#X connect 2 0 5 0;
#X connect 3 0 4 0;
#X connect 4 0 6 1;
#X connect 5 0 78 0;
#X connect 6 0 14 0;
#X connect 7 0 15 1;
#X connect 8 0 13 0;
#X connect 8 1 9 0;
#X connect 8 2 13 1;
#X connect 9 0 10 0;
#X connect 11 0 12 0;
#X connect 12 0 13 1;
#X connect 13 0 15 0;
#X connect 14 0 8 0;
#X connect 14 1 17 1;
#X connect 15 0 16 0;
#X connect 16 0 17 0;
#X connect 17 0 25 0;
#X connect 18 0 19 0;
#X connect 19 0 20 0;
#X connect 19 1 29 0;
#X connect 20 0 22 0;
#X connect 21 0 18 1;
#X connect 22 0 24 0;
#X connect 23 0 22 1;
#X connect 24 0 31 0;
#X connect 24 1 23 0;
#X connect 24 1 30 0;
#X connect 25 0 18 0;
#X connect 25 1 26 0;
#X connect 26 0 30 1;
#X connect 26 1 28 1;
#X connect 27 0 32 0;
#X connect 28 0 27 0;
#X connect 29 0 22 1;
#X connect 30 0 27 1;
#X connect 31 0 28 0;
#X connect 32 0 33 0;
#X connect 34 0 51 0;
#X connect 35 0 25 0;
#X connect 37 0 38 0;
#X connect 38 0 15 0;
#X connect 38 1 39 0;
#X connect 39 0 17 1;
#X connect 40 0 41 1;
#X connect 41 0 42 0;
#X connect 42 0 43 0;
#X connect 42 1 47 0;
#X connect 43 0 44 0;
#X connect 44 0 45 0;
#X connect 45 0 38 0;
#X connect 45 1 46 0;
#X connect 46 0 44 1;
#X connect 47 0 44 1;
#X connect 48 0 49 0;
#X connect 49 0 50 0;
#X connect 50 0 41 0;
#X connect 51 0 35 0;
#X connect 52 0 80 0;
#X connect 53 0 54 0;
#X connect 53 1 63 0;
#X connect 54 0 55 0;
#X connect 55 0 57 0;
#X connect 56 0 55 1;
#X connect 57 0 65 0;
#X connect 57 1 56 0;
#X connect 58 0 61 1;
#X connect 59 0 62 0;
#X connect 60 0 59 1;
#X connect 61 0 53 0;
#X connect 62 0 61 0;
#X connect 63 0 55 1;
#X connect 65 0 64 0;
#X connect 66 0 51 0;
#X connect 66 0 50 0;
#X connect 67 0 69 1;
#X connect 68 0 70 0;
#X connect 69 0 59 0;
#X connect 70 0 69 0;
#X connect 72 0 51 0;
#X connect 72 1 71 0;
#X connect 73 0 76 0;
#X connect 74 0 75 0;
#X connect 75 0 79 0;
#X connect 76 0 75 0;
#X connect 76 1 75 1;
#X connect 77 0 72 0;
#X connect 78 0 6 0;
#X connect 79 0 77 0;
#X connect 79 1 78 1;
#X connect 79 1 80 1;
#X connect 80 0 66 0;
#X restore 145 159 pd hide.unused.strips;
#N canvas 1503 194 578 500 check.boxes 0;
#X obj 15 18 r \$1.enable.ardour.check;
#X obj 15 41 route float;
#X obj 15 64 sel 0;
#X obj 15 86 ==;
#X obj 15 111 s \$1.ardour.enable;
#X obj 41 87 r \$1.ardour.enable;
#X obj 54 64 t a;
#X obj 173 17 r \$1.ardour.enable;
#X msg 173 82 symbol ;
#X obj 173 40 sel 1 0;
#X msg 192 62 symbol empty;
#X msg 173 105 label \$1;
#X obj 173 128 s \$1.enable.ardour.check;
#X obj 15 191 route float;
#X obj 15 214 sel 0;
#X obj 15 236 ==;
#X obj 54 214 t a;
#X msg 173 232 symbol ;
#X obj 173 190 sel 1 0;
#X msg 192 212 symbol empty;
#X msg 173 255 label \$1;
#X obj 15 168 r \$1.automate.jack.check;
#X obj 15 261 s \$1.ardour.jack;
#X obj 173 167 r \$1.ardour.jack;
#X obj 173 278 s \$1.automate.jack.check;
#X obj 418 362 r \$1.ardour.enable;
#X obj 417 237 r \$1.ardour.jack;
#X obj 418 391 tgl 15 0 empty empty empty 17 7 0 10 #fcfcfc #000000
#000000 0 1;
#X obj 417 262 tgl 15 0 empty empty empty 17 7 0 10 #fcfcfc #000000
#000000 0 1;
#X obj 41 237 r \$1.ardour.jack;
#X obj 15 341 route float;
#X obj 15 364 sel 0;
#X obj 15 386 ==;
#X obj 54 364 t a;
#X msg 173 382 symbol ;
#X obj 173 340 sel 1 0;
#X msg 192 362 symbol empty;
#X msg 173 405 label \$1;
#X obj 15 318 r \$1.hide.unused.check;
#X obj 173 428 s \$1.hide.unused.check;
#X obj 15 411 s \$1.ardour.hide;
#X obj 41 387 r \$1.ardour.hide;
#X obj 173 317 r \$1.ardour.hide;
#X obj 415 339 tgl 15 0 empty empty empty 17 7 0 10 #fcfcfc #000000
#000000 0 1;
#X obj 415 314 r \$1.ardour.hide;
#X obj 384 135 s \$1.automate.jack.check;
#X obj 363 161 s \$1.hide.unused.check;
#X msg 363 107 color #ffffff #ffffff \$1;
#X msg 383 80 symbol #000000;
#X msg 363 55 symbol #a0a0a0;
#X obj 363 8 r \$1.ardour.enable;
#X obj 363 31 sel 0 1;
#X connect 0 0 1 0;
#X connect 1 0 2 0;
#X connect 2 0 3 0;
#X connect 2 1 6 0;
#X connect 3 0 4 0;
#X connect 5 0 3 1;
#X connect 6 0 2 1;
#X connect 7 0 9 0;
#X connect 8 0 11 0;
#X connect 9 0 8 0;
#X connect 9 1 10 0;
#X connect 10 0 11 0;
#X connect 11 0 12 0;
#X connect 13 0 14 0;
#X connect 14 0 15 0;
#X connect 14 1 16 0;
#X connect 15 0 22 0;
#X connect 16 0 14 1;
#X connect 17 0 20 0;
#X connect 18 0 17 0;
#X connect 18 1 19 0;
#X connect 19 0 20 0;
#X connect 20 0 24 0;
#X connect 21 0 13 0;
#X connect 23 0 18 0;
#X connect 25 0 27 0;
#X connect 26 0 28 0;
#X connect 29 0 15 1;
#X connect 30 0 31 0;
#X connect 31 0 32 0;
#X connect 31 1 33 0;
#X connect 32 0 40 0;
#X connect 33 0 31 1;
#X connect 34 0 37 0;
#X connect 35 0 34 0;
#X connect 35 1 36 0;
#X connect 36 0 37 0;
#X connect 37 0 39 0;
#X connect 38 0 30 0;
#X connect 41 0 32 1;
#X connect 42 0 35 0;
#X connect 44 0 43 0;
#X connect 47 0 46 0;
#X connect 47 0 45 0;
#X connect 48 0 47 0;
#X connect 49 0 47 0;
#X connect 50 0 51 0;
#X connect 51 0 49 0;
#X connect 51 1 48 0;
#X restore 145 219 pd check.boxes;
#X obj 16 537 s \$1.ardour.session.label;
#X msg 16 510 label \$1;
#X obj 337 86 del 1000;
#N canvas 608 175 531 342 auto.connect.jack 0;
#N canvas 1430 576 430 599 connect.adc.to.tpf-client 0;
#X obj 14 84 ask \$0 jcm;
#X msg 14 37 list_ports system;
#X obj 70 162 list fromsymbol;
#X obj 70 231 list tosymbol;
#X obj 14 60 t a b, f 26;
#X obj 70 287 f;
#X obj 70 310 t a a;
#X obj 113 297 + 1;
#X msg 166 256 1;
#X obj 70 431 ask \$0 jcm;
#X obj 152 359 r \$1.jack.clientname;
#X obj 70 360 list prepend;
#X msg 70 335 symbol input_\$1;
#X msg 70 406 port_exists \$1 \$2;
#X obj 70 383 t a a;
#X obj 127 455 sel 1;
#X obj 70 254 t b a, f 12;
#X obj 70 110 route symbol;
#X obj 70 133 symbol;
#X msg 233 328 list system \$1;
#X obj 127 478 list append;
#X obj 127 504 list prepend;
#X msg 127 527 connect \$1 \$2 \$3 \$4;
#X obj 127 551 s \$0.to.jcm;
#X obj 70 185 route 99;
#X obj 70 208 list prepend 99;
#X obj 14 11 inlet;
#X connect 0 1 17 0;
#X connect 1 0 4 0;
#X connect 2 0 24 0;
#X connect 3 0 16 0;
#X connect 4 0 0 0;
#X connect 4 1 8 0;
#X connect 5 0 6 0;
#X connect 6 0 12 0;
#X connect 6 1 7 0;
#X connect 7 0 5 1;
#X connect 8 0 5 1;
#X connect 9 1 15 0;
#X connect 10 0 11 1;
#X connect 11 0 14 0;
#X connect 12 0 11 0;
#X connect 13 0 9 0;
#X connect 14 0 13 0;
#X connect 14 1 20 1;
#X connect 15 0 20 0;
#X connect 16 0 5 0;
#X connect 16 1 19 0;
#X connect 17 0 18 0;
#X connect 18 0 2 0;
#X connect 19 0 21 1;
#X connect 20 0 21 0;
#X connect 21 0 22 0;
#X connect 22 0 23 0;
#X connect 24 0 25 0;
#X connect 25 0 3 0;
#X connect 26 0 1 0;
#X restore 73 275 pd connect.adc.to.tpf-client;
#N canvas 1430 576 376 554 connect.tpf-client.to.ardour 0;
#X obj 14 11 inlet;
#X obj 107 51 r \$1.maxrows;
#X obj 92 21 r \$1.maxchannels;
#X obj 14 69 f;
#X obj 14 92 *;
#X obj 14 125 t a b;
#X obj 14 194 until;
#X msg 61 156 1;
#X obj 14 221 f;
#X obj 14 244 t a a;
#X obj 63 235 + 1;
#X obj 14 352 list append;
#X obj 77 305 s \$0.to.ard;
#X obj 77 326 r \$0.from.ard;
#X msg 77 280 get_strip \$1;
#X obj 77 257 +;
#X text 89 190 <- offset local channels;
#X obj 14 273 t a a;
#X obj 145 399 r \$1.jack.clientname;
#X obj 71 399 list append;
#X msg 71 426 connect \$7 output_\$1 ardour \$5/audio_in\\\ 1;
#X obj 14 375 route bang;
#X obj 15 512 s \$1.error;
#X msg 14 489 cannot auto-connect to ardour. Too few strips detected
;
#X obj 71 451 s \$0.to.jcm;
#X connect 0 0 3 0;
#X connect 1 0 4 1;
#X connect 2 0 3 1;
#X connect 2 0 15 1;
#X connect 3 0 4 0;
#X connect 4 0 5 0;
#X connect 5 0 6 0;
#X connect 5 1 7 0;
#X connect 6 0 8 0;
#X connect 7 0 8 1;
#X connect 8 0 9 0;
#X connect 9 0 17 0;
#X connect 9 1 10 0;
#X connect 10 0 8 1;
#X connect 11 0 21 0;
#X connect 13 0 11 1;
#X connect 14 0 12 0;
#X connect 15 0 14 0;
#X connect 17 0 11 0;
#X connect 17 1 15 0;
#X connect 18 0 19 1;
#X connect 19 0 20 0;
#X connect 20 0 24 0;
#X connect 21 0 23 0;
#X connect 21 1 19 0;
#X connect 23 0 22 0;
#X restore 46 300 pd connect.tpf-client.to.ardour;
#X obj 186 12 r \$1.ardour.jack;
#X obj 46 148 f;
#X obj 46 72 b;
#X obj 46 222 sel 1;
#X obj 46 248 t b b;
#X obj 186 246 s \$0.to.jcm;
#X msg 186 220 refresh;
#X obj 186 141 sel 1;
#X obj 201 34 r \$1.ardour.enable;
#X obj 186 92 &&;
#X obj 201 57 t b a;
#X obj 186 115 t a a;
#X obj 270 150 r \$0.from.ard;
#X obj 270 173 route ready;
#X obj 186 164 f 0;
#X obj 186 187 sel 1;
#X obj 46 30 r \$0.jack.ready;
#X connect 2 0 11 0;
#X connect 3 0 5 0;
#X connect 4 0 3 0;
#X connect 5 0 6 0;
#X connect 6 0 1 0;
#X connect 6 1 0 0;
#X connect 8 0 7 0;
#X connect 9 0 16 0;
#X connect 10 0 12 0;
#X connect 11 0 13 0;
#X connect 12 0 11 0;
#X connect 12 1 11 1;
#X connect 13 0 9 0;
#X connect 13 1 3 1;
#X connect 14 0 15 0;
#X connect 15 0 16 1;
#X connect 16 0 17 0;
#X connect 17 0 8 0;
#X connect 18 0 4 0;
#X restore 145 189 pd auto.connect.jack;
#N canvas 1100 852 414 258 ardour.com 0;
#X obj 16 117 ardour-interface;
#X obj 16 24 r \$0.to.ard;
#X obj 16 213 s \$0.from.ard;
#X obj 16 47 t a a;
#X obj 16 144 t a a;
#X obj 43 71 spigot 0;
#X obj 43 94 print TO___ARDOUR;
#X obj 43 168 spigot 0;
#X obj 43 191 print FROM_ARDOUR;
#X obj 153 23 inlet;
#X connect 0 0 4 0;
#X connect 1 0 3 0;
#X connect 3 0 0 0;
#X connect 3 1 5 0;
#X connect 4 0 2 0;
#X connect 4 1 7 0;
#X connect 5 0 6 0;
#X connect 7 0 8 0;
#X connect 9 0 5 1;
#X connect 9 0 7 1;
#X restore 20 226 pd ardour.com;
#N canvas 980 727 450 300 jcm.com 0;
#X obj 26 121 jack-connection-manager;
#X obj 26 11 r \$0.to.jcm;
#X obj 26 226 s \$0.from.jcm;
#X obj 161 166 print jack-connection-manager;
#X msg 161 144 ERROR: inconsistency detected;
#X obj 26 34 t a a;
#X obj 53 88 print TO___JCM;
#X obj 53 59 spigot;
#X obj 53 170 spigot;
#X obj 53 199 print FROM_JCM;
#X obj 26 146 t a a;
#X obj 183 16 inlet;
#X connect 0 0 10 0;
#X connect 0 1 4 0;
#X connect 1 0 5 0;
#X connect 4 0 3 0;
#X connect 5 0 0 0;
#X connect 5 1 7 0;
#X connect 7 0 6 0;
#X connect 8 0 9 0;
#X connect 10 0 2 0;
#X connect 10 1 8 0;
#X connect 11 0 7 1;
#X connect 11 0 8 1;
#X restore 20 286 pd jcm.com;
#X obj 20 206 tgl 15 0 empty empty empty 17 7 0 10 #fcfcfc #000000
#000000 0 1;
#X obj 20 266 tgl 15 0 empty empty empty 17 7 0 10 #fcfcfc #000000
#000000 0 1;
#N canvas 1174 65 450 372 connect.ardour 0;
#X obj 85 54 r \$0.from.ard;
#X obj 85 77 route ready;
#X obj 85 103 == 0;
#X obj 19 306 s \$0.to.ard;
#X obj 46 180 change -1;
#X obj 46 209 metro 3000;
#X obj 19 14 r \$1.ardour.enable;
#X obj 85 126 t b a;
#X obj 46 152 && 1;
#X obj 19 37 t a a;
#X msg 46 232 0 \, 1;
#X msg 19 278 connect \$1;
#X obj 19 77 sel 0;
#X msg 19 100 0;
#X connect 0 0 1 0;
#X connect 1 0 2 0;
#X connect 2 0 7 0;
#X connect 4 0 5 0;
#X connect 5 0 10 0;
#X connect 6 0 9 0;
#X connect 7 0 8 0;
#X connect 7 1 8 1;
#X connect 8 0 4 0;
#X connect 9 0 12 0;
#X connect 9 1 8 0;
#X connect 10 0 11 0;
#X connect 11 0 3 0;
#X connect 12 0 13 0;
#X connect 13 0 11 0;
#X restore 145 39 pd connect.ardour;
#N canvas 1275 387 385 243 ardour.state.display 0;
#X obj 26 159 s \$1.ardour.logo;
#X msg 26 132 color \$1 #000000 #000000;
#X msg 124 102 symbol #ff585b;
#X msg 26 102 symbol #e0e0e0;
#X obj 26 20 r \$0.from.ard;
#X obj 26 43 route ready;
#X obj 26 66 sel 0 1, f 23;
#X connect 1 0 0 0;
#X connect 2 0 1 0;
#X connect 3 0 1 0;
#X connect 4 0 5 0;
#X connect 5 0 6 0;
#X connect 6 0 3 0;
#X connect 6 1 2 0;
#X restore 145 249 pd ardour.state.display;
#X connect 0 0 1 0;
#X connect 1 0 2 0;
#X connect 2 0 24 0;
#X connect 3 0 4 0;
#X connect 4 0 5 0;
#X connect 5 0 6 0;
#X connect 6 0 24 0;
#X connect 7 0 8 0;
#X connect 8 0 9 0;
#X connect 9 0 25 0;
#X connect 11 0 10 0;
#X connect 12 0 13 0;
#X connect 18 0 20 0;
#X connect 20 0 19 0;
#X connect 24 0 23 0;
#X connect 25 0 11 0;
#X connect 29 0 27 0;
#X connect 30 0 28 0;
#X restore 184 70 pd ardour.code;
#N canvas 968 0 783 374 chat 0;
#X obj 9 334 cnv 15 128 22 empty empty empty 20 12 0 14 #e0e0e0 #404040
0;
#X obj 743 334 cnv 15 24 22 empty empty empty 2 12 0 14 #e0e0e0 #404040
0;
#X obj 743 10 scrollbar_24x321 \$1.scb.chat.r \$1.scb.chat.s 14;
#X obj 140 334 symbolatom_600x22 \$1 \$1.chat.s \$1.chat.r 150 340
;
#X obj 9 309 tpf-client-chatline \$1.chat \$1.scb.chat.s 0;
#X obj 9 10 tpf-client-chatline \$1.chat \$1.scb.chat.s 13;
#X obj 9 33 tpf-client-chatline \$1.chat \$1.scb.chat.s 12;
#X obj 9 56 tpf-client-chatline \$1.chat \$1.scb.chat.s 11;
#X obj 9 79 tpf-client-chatline \$1.chat \$1.scb.chat.s 10;
#X obj 9 102 tpf-client-chatline \$1.chat \$1.scb.chat.s 9;
#X obj 9 125 tpf-client-chatline \$1.chat \$1.scb.chat.s 8;
#X obj 9 148 tpf-client-chatline \$1.chat \$1.scb.chat.s 7;
#X obj 9 171 tpf-client-chatline \$1.chat \$1.scb.chat.s 6;
#X obj 9 194 tpf-client-chatline \$1.chat \$1.scb.chat.s 5;
#X obj 9 217 tpf-client-chatline \$1.chat \$1.scb.chat.s 4;
#X obj 9 240 tpf-client-chatline \$1.chat \$1.scb.chat.s 3;
#X obj 9 263 tpf-client-chatline \$1.chat \$1.scb.chat.s 2;
#X obj 9 286 tpf-client-chatline \$1.chat \$1.scb.chat.s 1;
#X restore 216 227 pd chat;
#N canvas 652 611 323 201 latency 0;
#X obj 170 78 cnv 32 70 32 empty empty empty 8 16 0 20 #000000 #fcfcfc
0;
#X obj 170 83 nbx 2 20 1 16 0 0 \$1.lat.ret.ch \$1.lat.ret.ch.r empty
0 -8 0 20 #000000 #fcfcfc #000000 0 256;
#X obj 170 8 tpf-client-button32x32 \$1.latency.switch \$1.latency.switch.r
;
#X obj 7 8 cnv 32 160 32 empty \$1.button.fg ON/OFF 8 16 0 20 #e0e0e0
#000000 0;
#X obj 7 78 cnv 32 160 32 empty empty RETURN/CHAN 8 16 0 20 #e0e0e0
#000000 0;
#X obj 7 113 cnv 32 160 32 empty empty RETURN/LEVEL 8 16 0 20 #e0e0e0
#000000 0;
#X obj 170 113 cnv 32 70 32 empty \$1.lat.ret.level \ \ 0dB 8 16 0
20 #000000 #fcfcfc 0;
#X obj 7 148 cnv 32 160 32 empty empty LATENCY 8 16 0 20 #e0e0e0 #000000
0;
#X obj 170 148 cnv 32 70 32 empty \$1.latency.label 0ms 8 16 0 20 #000000
#000000 0;
#X obj 170 43 cnv 32 70 32 empty empty empty 8 16 0 20 #000000 #fcfcfc
0;
#X obj 7 43 cnv 32 160 32 empty empty SAMPLEPERIOD 8 16 0 20 #e0e0e0
#000000 0;
#X obj 170 48 nbx 2 20 1 10 0 0 \$1.lat.period \$1.lat.period.r empty
0 -8 0 20 #000000 #fcfcfc #000000 0 256;
#X obj 210 43 cnv 14 14 28 empty empty s 3 16 0 20 #000000 #fcfcfc
0;
#X restore 216 257 pd latency;
#N canvas 968 483 783 348 messages 0;
#X obj 743 10 scrollbar_24x321 \$1.scb.msgs.r \$1.scb.msgs.s 14;
#X obj 9 10 tpf-client-chatline \$1.msgs \$1.scb.msgs.s 13;
#X obj 9 309 tpf-client-chatline \$1.msgs \$1.scb.msgs.s 0;
#X obj 9 33 tpf-client-chatline \$1.msgs \$1.scb.msgs.s 12;
#X obj 9 56 tpf-client-chatline \$1.msgs \$1.scb.msgs.s 11;
#X obj 9 79 tpf-client-chatline \$1.msgs \$1.scb.msgs.s 10;
#X obj 9 102 tpf-client-chatline \$1.msgs \$1.scb.msgs.s 9;
#X obj 9 125 tpf-client-chatline \$1.msgs \$1.scb.msgs.s 8;
#X obj 9 148 tpf-client-chatline \$1.msgs \$1.scb.msgs.s 7;
#X obj 9 171 tpf-client-chatline \$1.msgs \$1.scb.msgs.s 6;
#X obj 9 194 tpf-client-chatline \$1.msgs \$1.scb.msgs.s 5;
#X obj 9 217 tpf-client-chatline \$1.msgs \$1.scb.msgs.s 4;
#X obj 9 240 tpf-client-chatline \$1.msgs \$1.scb.msgs.s 3;
#X obj 9 263 tpf-client-chatline \$1.msgs \$1.scb.msgs.s 2;
#X obj 9 286 tpf-client-chatline \$1.msgs \$1.scb.msgs.s 1;
#X restore 216 287 pd messages;
#X text 214 174 ======;
#N canvas -10 509 627 694 settings 0;
#X obj 16 8 tpf-settings-panel \$1;
#X restore 216 197 pd settings;
#X text 214 159 PANELS;
#N canvas 472 534 638 341 ardour 0;
#X obj 20 15 tpf-ardour-panel \$1;
#X restore 216 317 pd ardour;
