#N canvas 418 424 455 392 10;
#X obj 40 40 cnv 15 224 32 empty empty empty 20 12 0 14 -262144 -66577
0;
#X obj 43 49 hsl 145 23 0 1 0 0 \$0.volume.slider.s \$0.volume.slider
empty -2 -8 0 10 -262144 -1 -1 11339 1;
#X obj 40 40 cnv 24 150 32 empty empty empty 5 10 0 12 -1 -1 0;
#X obj 40 40 cnv 2 98 8 empty \$0.output.meter.r empty -20 12 0 14
-4034 -66577 0;
#X obj 193 40 cnv 3 71 32 empty empty empty 20 12 0 14 -1 -1 0;
#X obj 40 49 cnv 2 118 23 empty \$0.volume.slider.r empty 20 12 0 14
-232576 -66577 0;
#X obj 42 280 *~;
#X obj 92 280 *~;
#X obj 171 254 line~;
#X msg 171 233 \$1 50;
#N canvas 698 466 307 286 level__ 0;
#X obj 14 9 inlet;
#X obj 156 9 inlet;
#X obj 14 246 outlet;
#X obj 183 243 outlet;
#X obj 14 201 *;
#X obj 27 171 t b a;
#X text 202 9 range: 0-1;
#X obj 156 86 *;
#X obj 156 149 t a a;
#X obj 156 123 *;
#X obj 156 61 t a a a;
#X obj 195 85 max 1;
#X obj 183 191 rmstodb;
#X obj 195 107 t a a;
#X obj 195 129 *;
#X obj 183 213 - 100;
#X obj 156 31 * 1.27;
#X connect 0 0 4 0;
#X connect 1 0 16 0;
#X connect 4 0 2 0;
#X connect 5 0 4 0;
#X connect 5 1 4 1;
#X connect 7 0 9 0;
#X connect 8 0 5 0;
#X connect 8 1 12 0;
#X connect 9 0 8 0;
#X connect 10 0 7 0;
#X connect 10 1 7 1;
#X connect 10 2 11 0;
#X connect 11 0 13 0;
#X connect 12 0 15 0;
#X connect 13 0 14 0;
#X connect 13 1 14 1;
#X connect 14 0 9 1;
#X connect 15 0 3 0;
#X connect 16 0 10 0;
#X restore 171 168 pd level__;
#X msg 171 146 1;
#X obj 171 123 loadbang;
#X obj 70 169 env~ 4096;
#X obj 70 192 s \$0.meter.out;
#X obj 42 330 dac~ 1 2;
#X obj 42 107 catch~ \$1.sum.l;
#X obj 62 127 catch~ \$1.sum.r;
#N canvas 740 515 450 300 output.meter 0;
#X obj 44 173 max 2;
#X obj 44 71 - 40;
#X obj 44 94 / 50;
#X obj 44 120 * 150;
#X obj 44 147 min 150;
#X msg 44 199 vis_size \$1 8;
#X obj 44 45 r \$0.meter.out;
#X obj 44 225 s \$0.output.meter.r;
#X connect 0 0 5 0;
#X connect 1 0 2 0;
#X connect 2 0 3 0;
#X connect 3 0 4 0;
#X connect 4 0 0 0;
#X connect 5 0 7 0;
#X connect 6 0 1 0;
#X restore 287 309 pd output.meter;
#N canvas 605 252 465 461 save.restore 0;
#X obj 27 45 route fetch_settings;
#X obj 27 68 b;
#X obj 26 244 route restore_settings;
#X obj 27 22 r \$1.intercom;
#X obj 27 192 s \$1.intercom;
#X obj 26 221 r \$1.intercom;
#X obj 27 91 f;
#X obj 26 267 route mixer;
#X obj 26 367 s \$0.volume.slider;
#X obj 27 141 list prepend output;
#X msg 27 166 save_settings mixer \$1 \$2;
#X obj 26 290 route output;
#X obj 229 23 r \$0.volume.slider.s;
#X connect 0 0 1 0;
#X connect 1 0 6 0;
#X connect 2 0 7 0;
#X connect 3 0 0 0;
#X connect 5 0 2 0;
#X connect 6 0 9 0;
#X connect 7 0 11 0;
#X connect 9 0 10 0;
#X connect 10 0 4 0;
#X connect 11 0 8 0;
#X connect 12 0 6 1;
#X restore 285 213 pd save.restore;
#X obj 255 109 r \$0.volume.slider.s;
#N canvas 0 106 475 221 volume.slider 0;
#X msg 13 149 vis_size \$1 23;
#X obj 13 101 min 150;
#X obj 13 79 * 150;
#X obj 13 124 max 2;
#N canvas 0 99 437 351 detect.double.click 0;
#X obj 15 32 route float;
#X obj 15 54 t a a;
#X obj 15 102 sel 0;
#X obj 15 124 t b b;
#X obj 15 176 del 300;
#X obj 42 153 f;
#X obj 83 154 + 1;
#X msg 57 132 0;
#X obj 42 204 sel 1;
#X obj 42 226 t b b;
#X obj 15 77 -;
#X obj 42 248 del 0;
#X obj 15 8 inlet;
#X obj 42 271 outlet;
#X connect 0 0 1 0;
#X connect 1 0 10 1;
#X connect 1 1 10 0;
#X connect 2 0 3 0;
#X connect 3 0 4 0;
#X connect 3 1 5 0;
#X connect 4 0 7 0;
#X connect 5 0 6 0;
#X connect 5 0 8 0;
#X connect 6 0 5 1;
#X connect 7 0 5 1;
#X connect 8 0 9 0;
#X connect 9 0 11 0;
#X connect 9 1 7 0;
#X connect 10 0 2 0;
#X connect 11 0 13 0;
#X connect 12 0 0 0;
#X restore 195 83 pd detect.double.click;
#X obj 13 44 t a a;
#X obj 158 47 loadbang;
#X obj 195 106 f 0.787402;
#X obj 13 21 r \$0.volume.slider.s;
#X obj 13 173 s \$0.volume.slider.r;
#X obj 195 131 s \$0.volume.slider;
#X obj 269 14 r \$1.intercom;
#X obj 269 37 route reset;
#X obj 269 60 b;
#X connect 0 0 9 0;
#X connect 1 0 3 0;
#X connect 2 0 1 0;
#X connect 3 0 0 0;
#X connect 4 0 7 0;
#X connect 5 0 2 0;
#X connect 5 1 4 0;
#X connect 6 0 7 0;
#X connect 7 0 10 0;
#X connect 8 0 5 0;
#X connect 11 0 12 0;
#X connect 12 0 13 0;
#X connect 13 0 7 0;
#X restore 285 276 pd volume.slider;
#X connect 6 0 15 0;
#X connect 7 0 15 1;
#X connect 8 0 6 1;
#X connect 8 0 7 1;
#X connect 9 0 8 0;
#X connect 10 0 9 0;
#X connect 11 0 10 0;
#X connect 12 0 11 0;
#X connect 13 0 14 0;
#X connect 16 0 13 0;
#X connect 16 0 6 0;
#X connect 17 0 13 0;
#X connect 17 0 7 0;
#X connect 20 0 10 1;
#X coords 0 -1 1 1 224 32 2 40 40;
