#N canvas 235 450 826 266 10;
#N canvas 225 837 502 352 \$0.gop 0;
#X coords 0 0 139 32 139 32 2 20 200;
#X restore 20 200 pd \$0.gop;
#N canvas 957 26 679 538 dynamic.creation 0;
#X obj 245 153 s pd-\$0.gop;
#X obj 26 51 list prepend \$1 \$2 \$3;
#X obj 135 141 t a b a, f 11;
#X msg 135 164 \$4;
#X obj 135 187 until;
#X obj 135 210 f;
#X obj 213 219 + 1;
#X msg 167 164 0;
#X obj 260 360 * 35;
#X obj 260 383 + 20;
#X obj 260 434 list prepend;
#X obj 135 233 t a a a;
#X obj 293 383 + 1;
#X obj 260 408 pack f f;
#X obj 260 493 s pd-\$0.gop;
#X msg 260 461 obj \$5 200 tpf-client-outchannel \$3 \$2 \$6 \$4;
#X obj 362 249 s pd-\$0.gop;
#X msg 362 219 clear;
#X obj 260 331 t a a;
#X obj 134 308 t a a;
#X obj 161 334 + 3;
#X obj 134 361 pack f f;
#X msg 134 402 connect 1 \$1 \$2 0;
#X obj 134 472 s pd-\$0.gop;
#X obj 26 464 s pd-\$0.gop;
#X obj 26 74 t b a a, f 37;
#X msg 26 283 loadbang;
#X obj 26 24 inlet;
#X msg 245 103 clear \, obj 18 19 r \$3.to.aoo.r \, obj 18 58 aoo_receive~
0 \$2 \$4 \, obj 243 89 s \$3.from.aoo.r \, connect 0 0 1 0 \, connect
1 \$4 2 0;
#X connect 1 0 25 0;
#X connect 2 0 3 0;
#X connect 2 1 7 0;
#X connect 2 2 10 1;
#X connect 3 0 4 0;
#X connect 4 0 5 0;
#X connect 5 0 11 0;
#X connect 6 0 5 1;
#X connect 7 0 5 1;
#X connect 8 0 9 0;
#X connect 9 0 13 0;
#X connect 10 0 15 0;
#X connect 11 0 19 0;
#X connect 11 1 18 0;
#X connect 11 2 6 0;
#X connect 12 0 13 1;
#X connect 13 0 10 0;
#X connect 15 0 14 0;
#X connect 17 0 16 0;
#X connect 18 0 8 0;
#X connect 18 1 12 0;
#X connect 19 0 21 0;
#X connect 19 1 20 0;
#X connect 20 0 21 1;
#X connect 21 0 22 0;
#X connect 22 0 23 0;
#X connect 25 0 26 0;
#X connect 25 1 2 0;
#X connect 25 2 28 0;
#X connect 26 0 24 0;
#X connect 27 0 1 0;
#X connect 28 0 0 0;
#X restore 30 114 pd dynamic.creation;
#N canvas 933 439 407 297 gop.resize 0;
#X obj 30 26 inlet;
#X obj 30 235 s pd-\$0.gop;
#X msg 30 190 coords 0 0 \$2 \$1 \$2 \$1 2 20 200;
#X obj 40 215 s \$0.top;
#X obj 30 62 * 35;
#X obj 30 85 - 1;
#X msg 30 165 32 \$1;
#X obj 57 137 s \$3.expand;
#X obj 30 108 t a a;
#X connect 0 0 4 0;
#X connect 2 0 3 0;
#X connect 2 0 1 0;
#X connect 4 0 5 0;
#X connect 5 0 8 0;
#X connect 6 0 2 0;
#X connect 8 0 6 0;
#X connect 8 1 7 0;
#X restore 57 90 pd gop.resize;
#X obj 30 66 t a a;
#X obj 139 31 namecanvas \$0.top;
#X obj 30 31 r \$1.maxchannels;
#X connect 3 0 1 0;
#X connect 3 1 2 0;
#X connect 5 0 3 0;
#X coords 0 0 139 32 139 32 2 20 200;
