#N struct 1046.rectangle float id float x float y float w float h float
txtclr float boxclr float bgclr symbol label;
#N struct 1048.rectangle float id float x float y float w float h float
txtclr float boxclr float bgclr symbol label;
#N struct 1049.rectangle float id float x float y float w float h float
txtclr float boxclr float bgclr symbol label;
#N struct 1050.rectangle float id float x float y float w float h float
txtclr float boxclr float bgclr symbol label;
#N struct 1051.rectangle float id float x float y float w float h float
txtclr float boxclr float bgclr symbol label;
#N struct 1052.rectangle float id float x float y float w float h float
txtclr float boxclr float bgclr symbol label;
#N struct 1053.rectangle float id float x float y float w float h float
txtclr float boxclr float bgclr symbol label;
#N canvas 258 103 1193 590 10;
#X obj 20 44 cnv 15 580 216 empty empty empty 20 12 0 14 #e0e0e0 #404040
0;
#X obj 20 294 cnv 15 580 216 empty empty empty 20 12 0 14 #e0e0e0 #404040
0;
#X obj 20 20 cnv 4 580 24 empty empty empty 20 12 0 14 #ffffff #ffffff
0;
#X obj 81 20 cnv 15 60 24 empty empty opus 4 12 0 18 #dfdfdf #000000
0;
#X obj 20 270 cnv 15 580 24 empty empty empty 20 12 0 14 #ffffff #ffffff
0;
#X obj 20 270 cnv 15 60 24 empty empty pcm 4 12 0 18 #dfdfdf #000000
0;
#X msg 652 233 20;
#X msg 740 237 270;
#X obj 652 272 change -1;
#X obj 647 30 namecanvas \$0.gop;
#X obj 652 318 s \$0.gop;
#X obj 23 20 hsl 55 24 0 127 0 0 \$0.pcm empty empty -2 -8 0 10 #fcfcfc
#000000 #000000 0 1;
#X obj 20 20 cnv 15 60 24 empty empty pcm 4 12 0 18 #ffffff #000000
0;
#X obj 84 270 hsl 55 24 0 127 0 0 \$0.opus empty empty -2 -8 0 10 #fcfcfc
#000000 #000000 0 1;
#X obj 81 270 cnv 15 60 24 empty empty opus 4 12 0 18 #ffffff #000000
0;
#X obj 750 175 r \$0.pcm;
#X obj 750 204 sel;
#X obj 788 205 t a;
#X obj 662 204 sel;
#X obj 700 205 t a;
#X obj 662 175 r \$0.opus;
#X msg 652 295 coords 0 -1 1 1 580 240 2 20 \$1;
#X obj 103 395 hmenu \$1.bitdepth.gui 26 16 24 32 64;
#X obj 33 314 cnv 15 30 20 empty empty channels: 0 12 0 12 #e0e0e0
#000000 0;
#X obj 33 354 cnv 15 30 20 empty empty blocksize: 0 12 0 12 #e0e0e0
#000000 0;
#X obj 33 394 cnv 15 30 20 empty empty bitdepth: 0 12 0 12 #e0e0e0
#000000 0;
#X obj 33 64 cnv 15 30 20 empty empty channels: 0 12 0 12 #e0e0e0 #000000
0;
#X obj 33 104 cnv 15 30 20 empty empty framesize: 0 12 0 12 #e0e0e0
#000000 0;
#X obj 453 144 cnv 15 30 20 empty empty usage: 0 12 0 12 #e0e0e0 #000000
0;
#X obj 33 184 cnv 15 30 20 empty empty samplerate: 0 12 0 12 #e0e0e0
#000000 0;
#X obj 33 144 cnv 15 30 20 empty empty quality: 0 12 0 12 #e0e0e0 #000000
0;
#X obj 103 145 hmenu \$1.quality.gui 20 0 1 2 3 4 5 6 7 8 9 10;
#X obj 383 54 cnv 15 30 20 empty empty bitrate: 0 12 0 12 #e0e0e0 #000000
0;
#X obj 383 75 vmenu \$1.bitrate.gui 34 16 32 48 64 96 128 160 auto
max;
#X obj 103 355 hmenu \$1.blocksize.gui 28 32 64 96 128 192 256 512
;
#X obj 103 105 hmenu \$1.framesize.gui 34 120 240 480 960 1920 2880
;
#X obj 453 54 cnv 15 30 20 empty empty signal: 0 12 0 12 #e0e0e0 #000000
0;
#X obj 453 75 vmenu \$1.signal.gui 46 auto voice music;
#X obj 453 165 vmenu \$1.usage.gui 62 audio voip lowdelay;
#X obj 33 434 cnv 15 30 20 empty empty samplerate: 0 12 0 12 #e0e0e0
#000000 0;
#X obj 33 474 cnv 15 30 20 empty empty packetsize: 0 12 0 12 #e0e0e0
#000000 0;
#X obj 125 476 nbx 5 14 200 10000 0 0 \$1.packetsize \$1.packetsize.gui
empty 0 -8 0 10 #fcfcfc #000000 #000000 0 256;
#X obj 123 474 cnv 15 60 20 empty \$1.packetsize.label 1450 4 12 0
12 #ffffff #000000 0;
#X obj 768 396 int;
#X obj 768 476 s \$1.packetsize.label;
#X obj 768 419 list append;
#X obj 861 403 loadbang;
#X msg 861 426 symbol;
#X obj 33 224 cnv 15 30 20 empty empty packetsize: 0 12 0 12 #e0e0e0
#000000 0;
#X obj 123 227 nbx 5 14 200 10000 0 0 \$1.packetsize \$1.packetsize.gui
empty 0 -8 0 10 #fcfcfc #000000 #000000 0 256;
#X obj 123 224 cnv 15 60 20 empty \$1.packetsize.label 1450 4 12 0
12 #ffffff #000000 0;
#X msg 768 449 label \$1\$2;
#X obj 768 371 r \$1.packetsize;
#X msg 836 131 opus;
#X msg 903 129 pcm;
#X obj 836 168 symbol;
#X msg 836 191 selected \$1;
#X obj 836 214 s \$1.codec.gui;
#X obj 652 88 r \$1.codec.gui;
#X obj 652 111 route set;
#X obj 652 134 route opus pcm, f 26;
#X obj 123 434 cnv 15 60 20 empty \$1.samplerate.label 44100 4 12 0
12 #ffffff #000000 0;
#X obj 123 184 cnv 15 60 20 empty \$1.samplerate.label 44100 4 12 0
12 #ffffff #000000 0;
#X obj 951 346 loadbang;
#X obj 951 369 metro 1000;
#X obj 951 392 samplerate~;
#X obj 951 415 change -1;
#X obj 951 440 list append;
#X msg 951 470 label \$1\$2;
#X obj 951 497 s \$1.samplerate.label;
#X obj 105 317 nbx 5 14 1 12 0 0 \$1.channels \$1.channels.gui empty
0 -8 0 10 #fcfcfc #000000 #000000 0 256;
#X obj 103 315 cnv 15 60 20 empty \$1.channels.label 12 4 12 0 12 #ffffff
#000000 0;
#X obj 621 400 int;
#X obj 621 423 list append;
#X msg 621 453 label \$1\$2;
#X obj 621 375 r \$1.channels;
#X obj 621 480 s \$1.channels.label;
#X obj 622 556 s \$1.channels.gui;
#X obj 622 507 r \$1.maxchannels;
#X msg 622 530 range 1 \$1;
#X obj 105 67 nbx 5 14 1 12 0 0 \$1.channels \$1.channels.gui empty
0 -8 0 10 #fcfcfc #000000 #000000 0 256;
#X obj 103 65 cnv 15 60 20 empty \$1.channels.label 12 4 12 0 12 #ffffff
#000000 0;
#X connect 6 0 8 0;
#X connect 7 0 8 0;
#X connect 8 0 21 0;
#X connect 15 0 16 0;
#X connect 16 0 7 0;
#X connect 16 0 54 0;
#X connect 16 1 17 0;
#X connect 17 0 16 1;
#X connect 18 0 6 0;
#X connect 18 0 53 0;
#X connect 18 1 19 0;
#X connect 19 0 18 1;
#X connect 20 0 18 0;
#X connect 21 0 10 0;
#X connect 43 0 45 0;
#X connect 45 0 51 0;
#X connect 46 0 47 0;
#X connect 47 0 45 1;
#X connect 47 0 67 1;
#X connect 47 0 73 1;
#X connect 51 0 44 0;
#X connect 52 0 43 0;
#X connect 53 0 55 0;
#X connect 54 0 55 0;
#X connect 55 0 56 0;
#X connect 56 0 57 0;
#X connect 58 0 59 0;
#X connect 59 0 60 0;
#X connect 60 0 6 0;
#X connect 60 1 7 0;
#X connect 63 0 64 0;
#X connect 64 0 65 0;
#X connect 65 0 66 0;
#X connect 66 0 67 0;
#X connect 67 0 68 0;
#X connect 68 0 69 0;
#X connect 72 0 73 0;
#X connect 73 0 74 0;
#X connect 74 0 76 0;
#X connect 75 0 72 0;
#X connect 78 0 79 0;
#X connect 79 0 77 0;
#X coords 0 -1 1 1 580 240 2 20 270;
