#N struct 1212.rectangle float id float x float y float w float h float
txtclr float boxclr float bgclr symbol label;
#N struct 1213.rectangle float id float x float y float w float h float
txtclr float boxclr float bgclr symbol label;
#N struct 1214.rectangle float id float x float y float w float h float
txtclr float boxclr float bgclr symbol label;
#N struct 1215.rectangle float id float x float y float w float h float
txtclr float boxclr float bgclr symbol label;
#N struct 1216.rectangle float id float x float y float w float h float
txtclr float boxclr float bgclr symbol label;
#N struct 1217.rectangle float id float x float y float w float h float
txtclr float boxclr float bgclr symbol label;
#N struct 1218.rectangle float id float x float y float w float h float
txtclr float boxclr float bgclr symbol label;
#N struct 1219.rectangle float id float x float y float w float h float
txtclr float boxclr float bgclr symbol label;
#N struct 1220.rectangle float id float x float y float w float h float
txtclr float boxclr float bgclr symbol label;
#N struct 1221.rectangle float id float x float y float w float h float
txtclr float boxclr float bgclr symbol label;
#N canvas 265 292 656 549 16;
#X symbolatom 147 66 30 0 0 0 - #1.set.host.r #1.set.host;
#X symbolatom 147 96 30 0 0 0 - #1.set.room.r #1.set.room;
#X symbolatom 147 126 30 0 0 0 - #1.set.name.r #1.set.name;
#X text 70 67 server:;
#X text 88 96 room:;
#X text 88 126 name:;
#X floatatom 147 156 6 1 65535 0 - #1.set.port.r #1.set.port;
#X text 88 156 port:;
#X text 30 33 CONNECTION PARAMETERS:;
#X obj 220 428 cnv 15 370 25 empty \$1.notification.label empty 2 12
0 17 #fcfcfc #7c7c7c 0;
#X obj 350 477 tpf-client-button Save\ to \$1.save.to.s \$1.save.to.r
;
#X obj 219 477 tpf-client-button Load\ from \$1.load.from.s \$1.load.from.r
;
#X obj 481 477 tpf-client-button Save \$1.save.s \$1.save.r;
#X obj 88 477 tpf-client-button Reset \$1.reset.s \$1.reset.r;
#X obj 31 224 tpf-audio-params-panel \$1;
#X text 31 193 AUDIO PARAMETERS:;
#X coords 0 -1 1 1 600 500 2 20 20;
