#N canvas 235 450 961 635 10;
#N canvas 225 837 502 352 \$0.gop 0;
#X coords 0 -1 1 1 279 32 2 20 200;
#X restore 20 20 pd \$0.gop;
#X msg 339 41 8;
#X obj 558 166 s pd-\$0.gop;
#X msg 558 116 clear \, obj 18 19 r \$3.to.aoo.r \, obj 18 58 aoo_receive~
0 \$2 \$4 \, obj 243 89 s \$3.from.aoo.r \, connect 0 0 1 0 \, connect
1 8 2 0;
#X obj 339 64 list prepend \$1 \$2 \$3;
#X obj 448 154 t a b a, f 11;
#X msg 448 177 \$4;
#X obj 448 200 until;
#X obj 448 223 f;
#X obj 526 232 + 1;
#X msg 480 177 0;
#X obj 573 373 * 35;
#X obj 573 396 + 20;
#X obj 573 447 list prepend;
#X obj 448 246 t a a a;
#X obj 606 396 + 1;
#X obj 573 421 pack f f;
#X obj 573 506 s pd-\$0.gop;
#X msg 573 474 obj \$5 200 tpf-client-outchannel \$3 \$2 \$6 \$4;
#X obj 675 262 s pd-\$0.gop;
#X msg 675 232 clear;
#X obj 573 344 t a a;
#X obj 447 321 t a a;
#X obj 474 347 + 3;
#X obj 447 374 pack f f;
#X msg 447 415 connect 1 \$1 \$2 0;
#X obj 447 485 s pd-\$0.gop;
#X obj 339 13 loadbang;
#X obj 339 477 s pd-\$0.gop;
#X obj 339 87 t b a a, f 37;
#X msg 339 296 loadbang;
#X connect 1 0 4 0;
#X connect 3 0 2 0;
#X connect 4 0 29 0;
#X connect 5 0 6 0;
#X connect 5 1 10 0;
#X connect 5 2 13 1;
#X connect 6 0 7 0;
#X connect 7 0 8 0;
#X connect 8 0 14 0;
#X connect 9 0 8 1;
#X connect 10 0 8 1;
#X connect 11 0 12 0;
#X connect 12 0 16 0;
#X connect 13 0 18 0;
#X connect 14 0 22 0;
#X connect 14 1 21 0;
#X connect 14 2 9 0;
#X connect 15 0 16 1;
#X connect 16 0 13 0;
#X connect 18 0 17 0;
#X connect 20 0 19 0;
#X connect 21 0 11 0;
#X connect 21 1 15 0;
#X connect 22 0 24 0;
#X connect 22 1 23 0;
#X connect 23 0 24 1;
#X connect 24 0 25 0;
#X connect 25 0 26 0;
#X connect 27 0 1 0;
#X connect 29 0 30 0;
#X connect 29 1 5 0;
#X connect 29 2 3 0;
#X connect 30 0 28 0;
#X coords 0 -1 1 1 279 32 2 20 20;
