#N canvas 438 396 610 485 10;
#X obj 148 374 s \$0.led.r;
#X msg 148 354 color \$1 0 30;
#X obj 148 166 max 0;
#X obj 148 257 << 8;
#X obj 148 283 * -1;
#X obj 148 304 - 1;
#X obj 148 234 * 255;
#X obj 148 144 - 30;
#X obj 148 188 min 40;
#X obj 148 210 / 40;
#X obj 148 93 env~ 1024 1024;
#X obj 288 203 switch~;
#X msg 249 265 10;
#X obj 249 242 sel 0;
#X obj 148 330 change 11;
#X obj 459 179 s \$0.led.r;
#X msg 459 159 label \$1;
#X obj 459 134 makefilename %2d;
#X obj 459 23 loadbang;
#X obj 459 43 f \$2;
#X obj 459 93 * 8;
#X obj 459 113 + \$3;
#X msg 249 101 0;
#X obj 174 44 loadbang;
#X obj 249 74 sel 0 1;
#X obj 286 113 f;
#X obj 459 66 - 1;
#X obj 249 166 t a a a;
#X obj 148 122 spigot 0;
#X obj 249 54 r \$1.receiving;
#X obj 352 58 r \$1.inchannels;
#X obj 352 81 t b a;
#X obj 249 141 >= \$3;
#X obj 68 25 inlet~;
#X obj 35 436 dac~ 0;
#X msg 237 391 set \$1;
#N canvas 0 103 362 180 delwrite 0;
#X obj 24 22 inlet~;
#X obj 24 45 delwrite~ \$0.delay 1000;
#X obj 29 104 outlet~;
#X connect 0 0 1 0;
#X restore 33 209 pd delwrite;
#N canvas 102 553 422 205 delread 0;
#X obj 28 28 inlet~;
#X obj 27 128 delread~ \$0.delay;
#X obj 27 151 outlet~;
#X obj 80 67 r \$1.delay;
#X connect 1 0 2 0;
#X connect 3 0 1 0;
#X restore 34 245 pd delread;
#X obj 47 405 s~ \$2.channel.\$3;
#X obj 20 20 cnv 4 34 32 empty empty empty 14 10 0 14 #ffffff #fcfcfc
0;
#X obj 22 20 cnv 32 32 32 empty \$0.led.r \\\ 1 14 10 0 14 #e0e0e0
#fcfcfc 0;
#X connect 1 0 0 0;
#X connect 2 0 8 0;
#X connect 3 0 4 0;
#X connect 4 0 5 0;
#X connect 5 0 14 0;
#X connect 6 0 3 0;
#X connect 7 0 2 0;
#X connect 8 0 9 0;
#X connect 9 0 6 0;
#X connect 10 0 28 0;
#X connect 12 0 14 0;
#X connect 13 0 12 0;
#X connect 14 0 1 0;
#X connect 16 0 15 0;
#X connect 17 0 16 0;
#X connect 18 0 19 0;
#X connect 19 0 26 0;
#X connect 20 0 21 0;
#X connect 21 0 17 0;
#X connect 21 0 35 0;
#X connect 22 0 32 0;
#X connect 23 0 22 0;
#X connect 24 0 22 0;
#X connect 24 1 25 0;
#X connect 25 0 32 0;
#X connect 26 0 20 0;
#X connect 27 0 13 0;
#X connect 27 1 28 1;
#X connect 27 2 11 0;
#X connect 28 0 7 0;
#X connect 29 0 24 0;
#X connect 30 0 31 0;
#X connect 31 0 25 0;
#X connect 31 1 25 1;
#X connect 32 0 27 0;
#X connect 33 0 10 0;
#X connect 33 0 36 0;
#X connect 35 0 34 0;
#X connect 36 0 37 0;
#X connect 37 0 34 0;
#X connect 37 0 38 0;
#X coords 0 -1 1 1 34 32 2 20 20;
