#N canvas 716 251 947 682 10;
#X obj 20 20 cnv 8 289 32 empty empty empty 20 12 0 14 #000000 #404040
0;
#X obj 128 20 cnv 15 100 16 empty \$0.format.label format=pcm 3 9 0
12 #000000 #000000 0;
#X obj 229 20 cnv 15 80 16 empty \$0.fs.bs.label bs=64 3 9 0 12 #000000
#000000 0;
#X obj 229 36 cnv 15 80 16 empty \$0.sr.label sr=44100 3 9 0 12 #000000
#000000 0;
#X obj 128 36 cnv 15 100 16 empty \$0.type.bd.label bd=16 3 9 0 12
#000000 #000000 0;
#X obj 123 20 cnv 1 1 32 empty empty empty 0 12 0 14 #fcfcfc #404040
0;
#X obj 20 20 cnv 16 100 16 empty \$0.recvbuf.label recvbuf: 3 9 0 12
#000000 #000000 0;
#X obj 80 20 nbx 3 14 2 999 0 0 \$3.recvbuf \$3.recvbuf.r empty 0 -8
0 12 #000000 #000000 #000000 0 256;
#X obj 20 36 cnv 16 100 16 empty \$0.delay.label delay: 3 9 0 12 #000000
#000000 0;
#X obj 80 36 nbx 3 14 0 999 0 0 \$3.delay \$3.delay.r empty 0 -8 0
12 #000000 #000000 #000000 0 256;
#X obj 81 20 cnv 4 6 32 empty empty empty 0 12 0 14 #000000 #404040
0;
#X obj 26 441 s \$0.recvbuf.label;
#X obj 19 464 s \$0.delay.label;
#X msg 55 321 symbol #ffffff;
#X msg 19 346 symbol #000000;
#X msg 19 376 color #000 \$1 \$1;
#X obj 187 385 s \$0.format.label;
#X obj 182 407 s \$0.type.bd.label;
#X obj 173 433 s \$0.fs.bs.label;
#X obj 160 456 s \$0.sr.label;
#X msg 160 335 symbol #000000;
#X msg 160 363 color #000 \$1 \$1;
#X msg 189 311 symbol #e0e0e0;
#X obj 36 259 sel 0 1;
#X obj 359 93 r \$3.from.aoo.r;
#X obj 359 116 route event;
#X obj 359 139 list split 3;
#X obj 393 163 list trim;
#X obj 393 211 list;
#X obj 393 590 s \$0.format.label;
#X obj 467 541 s \$0.type.bd.label;
#X obj 541 497 s \$0.fs.bs.label;
#X obj 615 451 s \$0.sr.label;
#X msg 393 565 label format=\$1;
#X msg 615 424 label sr=\$4;
#X obj 393 234 t a a a a a, f 50;
#X msg 689 287 symbol \$1;
#X obj 689 310 select pcm opus;
#X obj 467 393 list append;
#X obj 467 306 route float;
#X obj 467 328 * 8;
#X msg 536 336 symbol bd;
#X msg 546 359 symbol type;
#X obj 541 419 list append;
#X msg 638 364 symbol bs;
#X msg 648 387 symbol fs;
#X msg 467 261 \$5;
#X obj 467 285 list;
#X msg 467 518 label \$2=\$1;
#X msg 541 473 label \$2=\$1;
#X msg 541 284 \$3;
#N canvas 1026 618 436 160 recvbuf 0;
#X msg 10 32 bufsize \$1;
#X obj 10 55 s \$3.to.aoo.r;
#X obj 10 12 r \$3.recvbuf;
#X obj 256 21 r \$3.recvbuf;
#X obj 256 44 route float;
#X msg 256 67 set \$1;
#X obj 256 90 s \$3.recvbuf.r;
#X connect 0 0 1 0;
#X connect 2 0 0 0;
#X connect 3 0 4 0;
#X connect 4 0 5 0;
#X connect 5 0 6 0;
#X restore 361 28 pd recvbuf;
#X obj 38 396 s \$3.recvbuf.r;
#X obj 33 417 s \$3.delay.r;
#N canvas 1026 618 436 160 delay 0;
#X msg 13 55 set \$1;
#X obj 13 9 r \$3.delay;
#X obj 13 32 route float set;
#X obj 13 78 s \$3.delay.r;
#X connect 0 0 3 0;
#X connect 1 0 2 0;
#X connect 2 0 0 0;
#X connect 2 1 0 0;
#X restore 367 49 pd delay;
#X obj 89 152 r \$3.aoo.link.status;
#X obj 36 116 r \$3.receiving;
#X obj 89 175 sel 7;
#X msg 89 196 1;
#X msg 116 198 0;
#X obj 36 191 ||;
#X obj 43 158 t b a;
#X obj 393 186 route format;
#X connect 13 0 15 0;
#X connect 14 0 15 0;
#X connect 15 0 11 0;
#X connect 15 0 12 0;
#X connect 15 0 52 0;
#X connect 15 0 53 0;
#X connect 20 0 21 0;
#X connect 21 0 16 0;
#X connect 21 0 17 0;
#X connect 21 0 18 0;
#X connect 21 0 19 0;
#X connect 22 0 21 0;
#X connect 23 0 14 0;
#X connect 23 0 20 0;
#X connect 23 1 13 0;
#X connect 23 1 22 0;
#X connect 24 0 25 0;
#X connect 25 0 26 0;
#X connect 26 1 27 0;
#X connect 27 0 62 0;
#X connect 28 0 35 0;
#X connect 33 0 29 0;
#X connect 34 0 32 0;
#X connect 35 0 33 0;
#X connect 35 1 46 0;
#X connect 35 2 50 0;
#X connect 35 3 34 0;
#X connect 35 4 36 0;
#X connect 36 0 37 0;
#X connect 37 0 41 0;
#X connect 37 0 44 0;
#X connect 37 1 42 0;
#X connect 37 1 45 0;
#X connect 38 0 48 0;
#X connect 39 0 40 0;
#X connect 39 1 38 0;
#X connect 40 0 38 0;
#X connect 41 0 38 1;
#X connect 42 0 38 1;
#X connect 43 0 49 0;
#X connect 44 0 43 1;
#X connect 45 0 43 1;
#X connect 46 0 47 0;
#X connect 47 0 39 0;
#X connect 48 0 30 0;
#X connect 49 0 31 0;
#X connect 50 0 43 0;
#X connect 55 0 57 0;
#X connect 56 0 60 0;
#X connect 57 0 58 0;
#X connect 57 1 59 0;
#X connect 58 0 61 0;
#X connect 59 0 61 0;
#X connect 60 0 23 0;
#X connect 61 0 60 0;
#X connect 61 1 60 1;
#X connect 62 0 28 0;
#X coords 0 -1 1 1 289 32 2 20 20;
