#N canvas 1234 454 763 411 10;
#X obj 10 10 cnv 15 130 22 empty \$0.client empty 4 12 0 14 -233017
-124831 0;
#X obj 141 10 cnv 15 600 22 empty \$0.msg empty 4 12 0 14 -233017 -124831
0;
#X obj 27 297 s \$0.client;
#X msg 27 274 label \$1;
#X msg 27 236 symbol;
#X msg 118 277 label \$1;
#X obj 118 300 s \$0.msg;
#X obj 27 141 text get \$1;
#X obj 27 66 r \$2;
#X obj 27 87 route pos;
#X obj 27 110 + \$3;
#X obj 27 172 route bang;
#X obj 84 196 unpack s s f;
#X obj 451 354 s \$0.client;
#X obj 523 354 s \$0.msg;
#X msg 451 318 color 10 10 \$1;
#N canvas 1753 53 319 227 rgb2iem 0;
#X obj 14 11 inlet;
#X obj 14 32 unpack f f f;
#X obj 14 177 outlet;
#X obj 48 58 << 8;
#X obj 14 58 << 16;
#X obj 14 115 +;
#X obj 48 87 +;
#X text 93 88 converts rgb 8bit to iem colors;
#X obj 14 135 * -1;
#X obj 14 156 - 1;
#X connect 0 0 1 0;
#X connect 1 0 4 0;
#X connect 1 1 3 0;
#X connect 1 2 6 1;
#X connect 3 0 6 0;
#X connect 4 0 5 0;
#X connect 5 0 8 0;
#X connect 6 0 5 1;
#X connect 8 0 9 0;
#X connect 9 0 2 0;
#X restore 451 295 pd rgb2iem;
#X obj 451 266 pack f f f;
#X obj 451 124 mod 8;
#X obj 451 145 t a a a;
#X obj 451 172 & 4;
#X obj 488 174 & 2;
#X obj 527 175 & 1;
#X obj 451 221 * 110;
#X obj 451 242 + 10;
#X obj 488 220 * 110;
#X obj 488 241 + 10;
#X obj 527 221 * 110;
#X obj 527 242 + 10;
#X obj 451 193 >> 2;
#X obj 488 194 >> 1;
#X obj 248 62 moses 0;
#X obj 248 104 sel -1 -2 -3 -4;
#X msg 248 189 255 0 0;
#X msg 269 167 255 255 0;
#X msg 291 149 0 128 0;
#X msg 313 130 64 64 255;
#X text 303 186 red;
#X text 336 172 yellow;
#X text 346 152 green;
#X text 379 131 blue;
#X obj 248 221 t a;
#X connect 3 0 2 0;
#X connect 4 0 3 0;
#X connect 4 0 5 0;
#X connect 5 0 6 0;
#X connect 7 0 11 0;
#X connect 8 0 9 0;
#X connect 9 0 10 0;
#X connect 10 0 7 0;
#X connect 11 0 4 0;
#X connect 11 1 12 0;
#X connect 12 0 3 0;
#X connect 12 1 5 0;
#X connect 12 2 31 0;
#X connect 15 0 13 0;
#X connect 15 0 14 0;
#X connect 16 0 15 0;
#X connect 17 0 16 0;
#X connect 18 0 19 0;
#X connect 19 0 20 0;
#X connect 19 1 21 0;
#X connect 19 2 22 0;
#X connect 20 0 29 0;
#X connect 21 0 30 0;
#X connect 22 0 27 0;
#X connect 23 0 24 0;
#X connect 24 0 17 0;
#X connect 25 0 26 0;
#X connect 26 0 17 1;
#X connect 27 0 28 0;
#X connect 28 0 17 2;
#X connect 29 0 23 0;
#X connect 30 0 25 0;
#X connect 31 0 32 0;
#X connect 31 1 18 0;
#X connect 32 0 33 0;
#X connect 32 1 34 0;
#X connect 32 2 35 0;
#X connect 32 3 36 0;
#X connect 33 0 41 0;
#X connect 34 0 41 0;
#X connect 35 0 41 0;
#X connect 36 0 41 0;
#X connect 41 0 16 0;
#X coords 0 -1 1 1 731 22 2 10 10;
