#N canvas 0 106 557 386 10;
#X obj 40 40 cnv 15 224 32 empty empty empty 20 12 0 14 -262144 -66577
0;
#X obj 43 49 hsl 145 23 0 1 0 0 \$0.volume.slider.s \$0.volume.slider
empty -2 -8 0 10 -262144 -1 -1 11339 1;
#X obj 40 40 cnv 3 150 32 empty empty empty 20 12 0 14 -1 -1 0;
#X obj 40 49 cnv 2 118 23 empty \$0.volume.slider.r empty 20 12 0 14
-261234 -66577 0;
#X obj 196 49 hsl 66 23 0 1 0 0 \$0.pan.slider.s \$0.pan.slider empty
-2 -8 0 10 -262144 -1 -1 3250 1;
#X obj 193 40 cnv 3 71 32 empty empty empty 20 12 0 14 -1 -66577 0
;
#X obj 227 50 cnv 2 2 22 empty \$0.pan.slider.r empty -40 12 0 14 -261234
-66577 0;
#X obj 40 40 cnv 2 2 8 empty \$0.meter.r empty 20 12 0 14 -4034 -66577
0;
#X obj 48 334 throw~ \$1.sum.l;
#X obj 48 284 *~;
#X obj 98 284 *~;
#X obj 177 258 line~;
#X msg 177 237 \$1 50;
#X obj 227 259 line~;
#X msg 226 237 \$1 50;
#N canvas 698 400 450 300 pan____ 0;
#X obj 115 118 cos;
#X obj 215 122 atan;
#X msg 215 101 1;
#X obj 215 144 * 2;
#X obj 115 73 *;
#X obj 142 117 sin;
#X obj 14 9 inlet;
#X obj 188 11 inlet;
#X obj 14 246 outlet;
#X obj 73 245 outlet;
#X obj 190 246 outlet;
#X obj 115 95 t a a;
#X obj 14 201 *;
#X obj 27 171 t b a;
#X obj 73 204 *;
#X obj 86 174 t b a;
#X text 234 11 range: 0-1;
#X text 237 27 default: 0.5;
#X obj 14 116 t a a;
#X obj 188 34 t a b;
#X connect 0 0 13 0;
#X connect 1 0 3 0;
#X connect 2 0 1 0;
#X connect 3 0 4 1;
#X connect 4 0 11 0;
#X connect 5 0 15 0;
#X connect 6 0 18 0;
#X connect 7 0 19 0;
#X connect 11 0 0 0;
#X connect 11 1 5 0;
#X connect 12 0 8 0;
#X connect 13 0 12 0;
#X connect 13 1 12 1;
#X connect 14 0 9 0;
#X connect 15 0 14 0;
#X connect 15 1 14 1;
#X connect 18 0 12 0;
#X connect 18 1 14 0;
#X connect 19 0 4 0;
#X connect 19 1 2 0;
#X restore 177 198 pd pan____;
#N canvas 698 466 307 286 level__ 0;
#X obj 14 9 inlet;
#X obj 156 9 inlet;
#X obj 14 246 outlet;
#X obj 183 243 outlet;
#X obj 14 201 *;
#X obj 27 171 t b a;
#X text 202 9 range: 0-1;
#X obj 156 86 *;
#X obj 156 149 t a a;
#X obj 156 123 *;
#X obj 156 61 t a a a;
#X obj 195 85 max 1;
#X obj 183 191 rmstodb;
#X obj 195 107 t a a;
#X obj 195 129 *;
#X obj 183 213 - 100;
#X obj 156 31 * 1.27;
#X connect 0 0 4 0;
#X connect 1 0 16 0;
#X connect 4 0 2 0;
#X connect 5 0 4 0;
#X connect 5 1 4 1;
#X connect 7 0 9 0;
#X connect 8 0 5 0;
#X connect 8 1 12 0;
#X connect 9 0 8 0;
#X connect 10 0 7 0;
#X connect 10 1 7 1;
#X connect 10 2 11 0;
#X connect 11 0 13 0;
#X connect 12 0 15 0;
#X connect 13 0 14 0;
#X connect 13 1 14 1;
#X connect 14 0 9 1;
#X connect 15 0 3 0;
#X connect 16 0 10 0;
#X restore 177 172 pd level__;
#X msg 177 150 1;
#X obj 177 127 loadbang;
#X obj 261 113 r \$0.volume.slider.s;
#X obj 271 163 r \$0.pan.slider.s;
#X obj 76 173 env~ 4096;
#X obj 76 196 s \$0.meter.in;
#X obj 97 309 throw~ \$1.sum.r;
#N canvas 0 106 475 221 volume.slider 0;
#X obj 13 173 s \$0.volume.slider.r;
#X msg 13 149 vis_size \$1 23;
#X obj 13 101 min 150;
#X obj 13 21 r \$0.volume.slider.s;
#X obj 13 79 * 150;
#X obj 13 124 max 2;
#N canvas 0 99 437 351 detect.double.click 0;
#X obj 15 32 route float;
#X obj 15 54 t a a;
#X obj 15 102 sel 0;
#X obj 15 124 t b b;
#X obj 15 176 del 300;
#X obj 42 153 f;
#X obj 83 154 + 1;
#X msg 57 132 0;
#X obj 42 204 sel 1;
#X obj 42 226 t b b;
#X obj 15 77 -;
#X obj 42 248 del 0;
#X obj 15 8 inlet;
#X obj 42 271 outlet;
#X connect 0 0 1 0;
#X connect 1 0 10 1;
#X connect 1 1 10 0;
#X connect 2 0 3 0;
#X connect 3 0 4 0;
#X connect 3 1 5 0;
#X connect 4 0 7 0;
#X connect 5 0 6 0;
#X connect 5 0 8 0;
#X connect 6 0 5 1;
#X connect 7 0 5 1;
#X connect 8 0 9 0;
#X connect 9 0 11 0;
#X connect 9 1 7 0;
#X connect 10 0 2 0;
#X connect 11 0 13 0;
#X connect 12 0 0 0;
#X restore 195 83 pd detect.double.click;
#X obj 13 44 t a a;
#X obj 195 106 f 0.787402;
#X obj 195 131 s \$0.volume.slider;
#X obj 158 47 loadbang;
#X obj 276 9 r \$1.intercom;
#X obj 276 32 route reset;
#X obj 276 55 b;
#X connect 1 0 0 0;
#X connect 2 0 5 0;
#X connect 3 0 7 0;
#X connect 4 0 2 0;
#X connect 5 0 1 0;
#X connect 6 0 8 0;
#X connect 7 0 4 0;
#X connect 7 1 6 0;
#X connect 8 0 9 0;
#X connect 10 0 8 0;
#X connect 11 0 12 0;
#X connect 12 0 13 0;
#X connect 13 0 8 0;
#X restore 310 251 pd volume.slider;
#N canvas 530 480 475 221 pan.slider 0;
#N canvas 0 99 437 351 detect.double.click 0;
#X obj 15 32 route float;
#X obj 15 54 t a a;
#X obj 15 102 sel 0;
#X obj 15 124 t b b;
#X obj 15 176 del 300;
#X obj 42 153 f;
#X obj 83 154 + 1;
#X msg 57 132 0;
#X obj 42 204 sel 1;
#X obj 42 226 t b b;
#X obj 15 77 -;
#X obj 42 248 del 0;
#X obj 15 8 inlet;
#X obj 42 271 outlet;
#X connect 0 0 1 0;
#X connect 1 0 10 1;
#X connect 1 1 10 0;
#X connect 2 0 3 0;
#X connect 3 0 4 0;
#X connect 3 1 5 0;
#X connect 4 0 7 0;
#X connect 5 0 6 0;
#X connect 5 0 8 0;
#X connect 6 0 5 1;
#X connect 7 0 5 1;
#X connect 8 0 9 0;
#X connect 9 0 11 0;
#X connect 9 1 7 0;
#X connect 10 0 2 0;
#X connect 11 0 13 0;
#X connect 12 0 0 0;
#X restore 195 83 pd detect.double.click;
#X obj 13 44 t a a;
#X obj 158 47 loadbang;
#X obj 195 131 s \$0.pan.slider;
#X obj 195 106 f 0.5;
#X obj 13 21 r \$0.pan.slider.s;
#X obj 13 173 s \$0.pan.slider.r;
#X obj 13 79 * 69;
#X obj 13 102 + 193;
#X msg 13 148 pos \$1 50;
#X obj 276 9 r \$1.intercom;
#X obj 276 32 route reset;
#X obj 276 55 b;
#X connect 0 0 4 0;
#X connect 1 0 7 0;
#X connect 1 1 0 0;
#X connect 2 0 4 0;
#X connect 4 0 3 0;
#X connect 5 0 1 0;
#X connect 7 0 8 0;
#X connect 8 0 9 0;
#X connect 9 0 6 0;
#X connect 10 0 11 0;
#X connect 11 0 12 0;
#X connect 12 0 4 0;
#X restore 310 271 pd pan.slider;
#N canvas 0 132 371 231 meter 0;
#X obj 38 21 r \$0.meter.in;
#X obj 38 204 s \$0.meter.r;
#X msg 38 176 vis_size \$1 8;
#X obj 38 126 min 150;
#X obj 38 149 max 2;
#X obj 38 99 * 150;
#X obj 38 51 - 40;
#X obj 38 74 / 50;
#X connect 0 0 6 0;
#X connect 2 0 1 0;
#X connect 3 0 4 0;
#X connect 4 0 2 0;
#X connect 5 0 3 0;
#X connect 6 0 7 0;
#X connect 7 0 5 0;
#X restore 310 292 pd meter;
#X obj 48 139 r~ \$1.\$2.channel.0;
#N canvas 605 252 465 461 save.restore 0;
#X obj 27 45 route fetch_settings;
#X obj 27 68 b;
#X obj 27 141 list prepend \$2;
#X obj 26 244 route restore_settings;
#X obj 26 290 route \$2;
#X obj 27 22 r \$1.intercom;
#X obj 27 192 s \$1.intercom;
#X obj 26 221 r \$1.intercom;
#X obj 229 23 r \$0.volume.slider.s;
#X obj 277 49 r \$0.pan.slider.s;
#X obj 27 91 f;
#X obj 27 114 pack f f;
#X msg 27 166 save_settings mixer \$1 \$2 \$3;
#X obj 26 267 route mixer;
#X obj 26 313 unpack f f;
#X obj 26 367 s \$0.volume.slider;
#X obj 83 338 s \$0.pan.slider;
#X connect 0 0 1 0;
#X connect 1 0 10 0;
#X connect 2 0 12 0;
#X connect 3 0 13 0;
#X connect 4 0 14 0;
#X connect 5 0 0 0;
#X connect 7 0 3 0;
#X connect 8 0 10 1;
#X connect 9 0 11 1;
#X connect 10 0 11 0;
#X connect 11 0 2 0;
#X connect 12 0 6 0;
#X connect 13 0 4 0;
#X connect 14 0 15 0;
#X connect 14 1 16 0;
#X restore 312 212 pd save.restore;
#X connect 9 0 8 0;
#X connect 10 0 23 0;
#X connect 11 0 9 1;
#X connect 12 0 11 0;
#X connect 13 0 10 1;
#X connect 14 0 13 0;
#X connect 15 0 12 0;
#X connect 15 1 14 0;
#X connect 16 0 15 0;
#X connect 17 0 16 0;
#X connect 18 0 17 0;
#X connect 19 0 16 1;
#X connect 20 0 15 1;
#X connect 21 0 22 0;
#X connect 27 0 9 0;
#X connect 27 0 10 0;
#X connect 27 0 21 0;
#X coords 0 -1 1 1 224 32 2 40 40;
